<svg xmlns="http://www.w3.org/2000/svg" viewBox="0 0 128 128"><path d="M56.64 62.858c-.427 0-.713-.12-.86-.36-.147-.24-.22-.64-.22-1.2v-10.64c0-1.093-.24-2.02-.72-2.78a5.768 5.768 0 0 0-1.9-1.86 8.547 8.547 0 0 0-2.66-1.04 14.182 14.182 0 0 0-3-.32c-1.147 0-2.267.107-3.36.32-1.094.214-2.074.587-2.94 1.12a6.635 6.635 0 0 0-2.14 2.12c-.56.88-.88 1.987-.96 3.32h4.56c.106-1.12.573-1.946 1.4-2.48.826-.533 1.88-.8 3.16-.8.453 0 .933.034 1.44.1.506.067.966.2 1.38.4.413.2.76.487 1.04.86.28.374.42.854.42 1.44 0 .667-.167 1.167-.5 1.5-.333.333-.787.58-1.36.74-.574.16-1.234.274-1.98.34a23.17 23.17 0 0 0-2.36.34 29.71 29.71 0 0 0-2.86.46c-.947.2-1.8.527-2.56.98a5.186 5.186 0 0 0-1.84 1.88c-.467.8-.7 1.84-.7 3.12 0 1.014.193 1.9.58 2.66a5.35 5.35 0 0 0 1.56 1.88 7.003 7.003 0 0 0 2.26 1.12c.853.253 1.746.38 2.68.38 1.227 0 2.5-.2 3.82-.6 1.32-.4 2.433-1.04 3.34-1.92.186.934.586 1.587 1.2 1.96.613.373 1.386.56 2.32.56a8.537 8.537 0 0 0 1.48-.16c.266-.054.526-.114.78-.18.254-.067.46-.127.62-.18v-3.16c-.24.054-.454.08-.64.08h-.48zM51 58.938c0 .72-.174 1.327-.52 1.82-.347.494-.78.9-1.3 1.22-.52.32-1.074.547-1.66.68-.587.134-1.134.2-1.64.2-.4 0-.847-.04-1.34-.12a4.898 4.898 0 0 1-1.36-.42 3.181 3.181 0 0 1-1.06-.82c-.293-.346-.44-.773-.44-1.28 0-.586.1-1.086.3-1.5.2-.413.473-.746.82-1a4.216 4.216 0 0 1 1.2-.6c.453-.146.92-.26 1.4-.34a34.412 34.412 0 0 1 3.04-.42c1.013-.093 1.866-.366 2.56-.82v3.4zM78.68 47.878c-.8-1-1.807-1.786-3.02-2.36-1.214-.573-2.634-.86-4.26-.86-1.334 0-2.574.26-3.72.78-1.147.52-2.04 1.38-2.68 2.58h-.08v-2.8H60.6v28.32h4.56v-10.32h.08c.346.56.78 1.047 1.3 1.46.52.414 1.086.754 1.7 1.02.613.267 1.253.46 1.92.58.666.12 1.333.18 2 .18 1.52 0 2.84-.3 3.96-.9 1.12-.6 2.046-1.4 2.78-2.4.733-1 1.28-2.153 1.64-3.46.36-1.306.54-2.653.54-4.04 0-1.52-.2-2.946-.6-4.28-.4-1.333-1-2.5-1.8-3.5zm-2.46 10.36c-.2.867-.534 1.64-1 2.32a5.59 5.59 0 0 1-1.78 1.66c-.72.427-1.6.64-2.64.64-.934 0-1.754-.186-2.46-.56a5.688 5.688 0 0 1-1.82-1.52c-.507-.64-.887-1.406-1.14-2.3-.253-.893-.38-1.86-.38-2.9 0-2.213.486-3.986 1.46-5.32.973-1.333 2.42-2 4.34-2 .933 0 1.76.207 2.48.62.72.414 1.32.96 1.8 1.64.48.68.84 1.46 1.08 2.34.24.88.36 1.787.36 2.72 0 .907-.1 1.794-.3 2.66zM85.04 37.338h4.56v4.32h-4.56zM85.04 45.218h4.56v20.68h-4.56z"/><path d="M12 12v104h104V12H12zm4 4h96v80H16V16z"/></svg>