<svg xmlns="http://www.w3.org/2000/svg" viewBox="0 0 64 64"><path d="M28.32 31.429c-.213 0-.357-.06-.43-.18-.074-.12-.11-.32-.11-.6v-5.32c0-.546-.12-1.01-.36-1.39a2.874 2.874 0 0 0-.95-.93 4.269 4.269 0 0 0-1.33-.52 7.065 7.065 0 0 0-1.5-.16c-.574 0-1.134.054-1.68.16a4.372 4.372 0 0 0-1.47.56c-.433.267-.79.62-1.07 1.06-.28.44-.44.993-.48 1.66h2.28c.053-.56.287-.973.7-1.24s.94-.4 1.58-.4c.227 0 .466.017.72.05.253.034.483.1.691.2.207.1.38.243.52.43s.21.427.21.72c0 .333-.083.583-.25.75-.167.167-.393.29-.68.37-.287.08-.617.137-.99.17s-.767.09-1.18.17c-.48.053-.957.13-1.43.23s-.9.263-1.28.49c-.38.227-.687.54-.92.94-.234.4-.35.92-.35 1.56 0 .507.096.95.29 1.33.193.38.453.693.78.94s.703.434 1.13.56c.427.127.873.19 1.34.19.613 0 1.25-.1 1.91-.3a4.03 4.03 0 0 0 1.67-.96c.093.467.293.793.6.98.307.187.693.28 1.16.28a3.941 3.941 0 0 0 .74-.08 7.422 7.422 0 0 0 .7-.18v-1.58c-.12.027-.227.04-.32.04h-.241zm-2.82-1.96c0 .36-.087.664-.26.91-.173.247-.39.45-.65.61a2.74 2.74 0 0 1-.83.34c-.293.067-.567.1-.82.1-.2 0-.423-.02-.67-.06a2.444 2.444 0 0 1-.68-.21 1.59 1.59 0 0 1-.53-.41.953.953 0 0 1-.22-.64c0-.293.05-.543.15-.75.1-.207.237-.373.41-.5s.373-.227.6-.3c.227-.073.46-.13.7-.17a17.232 17.232 0 0 1 1.52-.21c.507-.046.933-.183 1.28-.41v1.7zM39.34 23.94a4.19 4.19 0 0 0-1.51-1.18c-.607-.287-1.317-.43-2.13-.43-.667 0-1.287.13-1.86.39-.573.26-1.02.69-1.34 1.29h-.04v-1.4H30.3v14.16h2.28v-5.16h.04c.173.28.39.523.65.73.26.206.543.377.85.51.307.133.627.23.96.29.333.06.667.09 1 .09.76 0 1.42-.15 1.98-.45.56-.3 1.023-.7 1.39-1.2.366-.5.64-1.077.82-1.73a7.57 7.57 0 0 0 .27-2.02c0-.76-.1-1.473-.3-2.14-.2-.668-.5-1.25-.9-1.75zm-1.23 5.179c-.1.434-.267.82-.5 1.16-.233.34-.53.617-.89.83-.36.213-.8.32-1.32.32-.467 0-.877-.093-1.23-.28a2.84 2.84 0 0 1-.91-.76 3.255 3.255 0 0 1-.57-1.15 5.286 5.286 0 0 1-.19-1.45c0-1.107.243-1.993.73-2.66s1.21-1 2.17-1c.467 0 .88.103 1.24.31.36.206.66.48.9.82.24.34.42.73.54 1.17.12.44.18.894.18 1.36 0 .454-.05.897-.15 1.33zM42.519 18.669h2.28v2.16h-2.28zM42.519 22.609h2.28v10.34h-2.28z"/><path d="M6 6v52h52V6H6zm2 2h48v40H8V8z"/></svg>