<svg xmlns="http://www.w3.org/2000/svg" viewBox="0 0 128 128"><path d="M47.373 54h33.254c-3.586-4.822-9.692-8-16.627-8-6.936 0-13.041 3.178-16.627 8zM44.131 62A15.745 15.745 0 0 0 44 64v6h40v-6c0-.676-.047-1.344-.131-2H44.131zM44 84c0 .676.047 1.344.131 2h39.738c.084-.656.131-1.324.131-2v-6H44v6zM64 102c6.935 0 13.041-3.178 16.627-8H47.373c3.586 4.822 9.691 8 16.627 8zM12.922 58.197a14.436 14.436 0 0 0-7.82 7.819A14.417 14.417 0 0 0 4 71.547a14.394 14.394 0 0 0 1.102 5.533 14.342 14.342 0 0 0 3.131 4.689 14.46 14.46 0 0 0 4.688 3.133A14.406 14.406 0 0 0 18.424 86h.058c1.871 0 3.742-.371 5.502-1.102a14.363 14.363 0 0 0 4.688-3.129 14.411 14.411 0 0 0 3.133-4.689L44 46 12.922 58.197zm15.174 17.384a10.392 10.392 0 0 1-2.253 3.36 10.375 10.375 0 0 1-3.392 2.263 10.31 10.31 0 0 1-3.969.796h-.059c-1.363 0-2.701-.268-3.965-.79a10.457 10.457 0 0 1-3.4-2.271 10.379 10.379 0 0 1-2.262-3.391A10.377 10.377 0 0 1 8 71.543a10.36 10.36 0 0 1 .796-3.994 10.423 10.423 0 0 1 5.626-5.643l22.505-8.833-8.831 22.508zM122.898 66.016a14.432 14.432 0 0 0-7.82-7.819L84 46l12.195 31.08a14.4 14.4 0 0 0 3.133 4.689 14.352 14.352 0 0 0 4.688 3.129c1.76.73 3.631 1.102 5.502 1.102h.058c1.873 0 3.746-.371 5.504-1.098a14.47 14.47 0 0 0 4.688-3.133 14.352 14.352 0 0 0 3.131-4.689 14.416 14.416 0 0 0-.001-11.064zm-3.696 9.535a10.443 10.443 0 0 1-9.626 6.45h-.059a10.31 10.31 0 0 1-3.975-.799 10.352 10.352 0 0 1-3.386-2.26 10.413 10.413 0 0 1-2.253-3.36l-8.831-22.509 22.505 8.833a10.438 10.438 0 0 1 6.422 9.646 10.355 10.355 0 0 1-.797 3.999zM54 42c4.418 0 8-3.58 8-8s-3.582-8-8-8-8 3.58-8 8 3.582 8 8 8zm0-12c2.206 0 4 1.795 4 4s-1.794 4-4 4-4-1.795-4-4 1.794-4 4-4zM74 42c4.418 0 8-3.58 8-8s-3.582-8-8-8-8 3.58-8 8 3.582 8 8 8zm0-12c2.206 0 4 1.795 4 4s-1.794 4-4 4-4-1.795-4-4 1.794-4 4-4z"/></svg>