<svg xmlns="http://www.w3.org/2000/svg" viewBox="0 0 24 24"><path d="M15.445 10.5c-.693-1.191-1.968-2-3.445-2s-2.752.809-3.445 2h6.89zM8.026 11.5a3.113 3.113 0 0 0-.026.4v1.6h8v-1.6c0-.135-.009-.269-.026-.4H8.026zM8 16.1c0 .135.009.269.026.4h7.948c.017-.131.026-.265.026-.4v-1.6H8v1.6zM8.555 17.5c.693 1.191 1.968 2 3.445 2s2.752-.809 3.445-2h-6.89zM6.356 11.144l-1.191 3.359c-.083.192-.2.365-.349.515a1.648 1.648 0 0 1-2.69-.537 1.628 1.628 0 0 1 0-1.262 1.646 1.646 0 0 1 .873-.885l3.357-1.19M8 9.5l-5.364 1.902a2.654 2.654 0 0 0-1.434 3.462 2.637 2.637 0 0 0 1.433 1.434c.323.134.666.202 1.009.202h.01c.343 0 .686-.068 1.009-.202a2.647 2.647 0 0 0 1.433-1.434L8 9.5zM17.644 11.144l3.357 1.191A1.64 1.64 0 0 1 22 13.851a1.641 1.641 0 0 1-.483 1.166 1.652 1.652 0 0 1-1.8.355 1.62 1.62 0 0 1-.533-.356 1.625 1.625 0 0 1-.349-.515l-1.191-3.357M16 9.5l1.902 5.364c.13.314.32.606.574.86s.546.445.859.574c.323.134.666.202 1.009.202h.01a2.648 2.648 0 0 0 2.444-3.664 2.654 2.654 0 0 0-1.434-1.433L16 9.5zM9.5 5.5a.5.5 0 1 1 0 1 .5.5 0 0 1 0-1m0-1a1.5 1.5 0 1 0 0 3 1.5 1.5 0 0 0 0-3zM14.5 5.5a.5.5 0 1 1 0 1 .5.5 0 0 1 0-1m0-1a1.5 1.5 0 1 0 0 3 1.5 1.5 0 0 0 0-3z"/></svg>