<svg xmlns="http://www.w3.org/2000/svg" viewBox="0 0 32 32"><path d="M24.484 4.515A11.958 11.958 0 0 0 16 1a11.955 11.955 0 0 0-8.484 3.515C5.344 6.687 4 9.686 4 13s1.344 6.313 3.516 8.485A11.955 11.955 0 0 0 16 25v6l8.484-9.016C26.656 19.685 28 16.508 28 13c0-3.314-1.344-6.313-3.516-8.485zm-1.457 16.098L18 25.956V23h-2a9.927 9.927 0 0 1-7.07-2.93C7.041 18.182 6 15.671 6 13s1.041-5.182 2.93-7.071C10.818 4.04 13.329 3 16 3s5.182 1.04 7.07 2.93A9.93 9.93 0 0 1 26 13c0 2.881-1.055 5.583-2.973 7.613z"/><circle cx="16" cy="13" r="1.5"/><circle cx="21" cy="13" r="1.5"/><circle cx="11" cy="13" r="1.5"/></svg>