<svg xmlns="http://www.w3.org/2000/svg" viewBox="0 0 128 128"><path d="M97.937 18.06C89.254 9.373 77.254 4 64 4 50.746 4 38.746 9.373 30.062 18.06 21.375 26.746 16 38.746 16 52s5.375 25.254 14.062 33.939C38.746 94.627 50.746 100 64 100v24l33.937-36.064C106.625 78.74 112 66.033 112 52c0-13.254-5.375-25.254-14.063-33.94zm-2.913 67.134L68 113.913V96h-4c-11.753 0-22.801-4.577-31.109-12.889C24.578 74.8 20 63.751 20 52s4.578-22.8 12.892-31.112C41.199 12.577 52.247 8 64 8s22.801 4.577 31.109 12.889C103.422 29.2 108 40.249 108 52c0 12.549-4.606 24.336-12.976 33.194z"/><circle cx="64" cy="52" r="6"/><circle cx="84" cy="52" r="6"/><circle cx="44" cy="52" r="6"/></svg>