<svg xmlns="http://www.w3.org/2000/svg" viewBox="0 0 128 128"><path d="M4 36h8v56H4zM56.242 45.418c-1.461-2.74-3.5-4.998-6.117-6.768C47.508 36.885 44.133 36 40.004 36c-4.137 0-7.512.885-10.125 2.65-2.621 1.77-4.66 4.027-6.117 6.768-1.461 2.748-2.453 5.762-2.977 9.041C20.262 57.744 20 60.926 20 64c0 3.074.262 6.256.785 9.537.523 3.283 1.516 6.297 2.977 9.039 1.457 2.746 3.496 5 6.117 6.77C32.492 91.115 35.867 92 40.004 92c4.129 0 7.504-.885 10.121-2.654 2.617-1.77 4.656-4.023 6.117-6.77 1.457-2.742 2.449-5.756 2.973-9.039A60.13 60.13 0 0 0 60 64c0-3.074-.258-6.256-.785-9.541-.524-3.279-1.516-6.293-2.973-9.041zm-6.16 26.584c-.332 2.51-.898 4.703-1.695 6.576-.797 1.871-1.883 3.359-3.266 4.461-1.375 1.104-3.082 1.654-5.117 1.654-2.098 0-3.824-.551-5.168-1.654-1.351-1.102-2.43-2.59-3.226-4.461-.801-1.873-1.363-4.066-1.691-6.576-.332-2.514-.496-5.182-.496-8.002 0-2.82.164-5.475.496-7.963.328-2.486.891-4.678 1.691-6.578.797-1.895 1.875-3.396 3.226-4.498 1.344-1.104 3.07-1.654 5.168-1.654 2.035 0 3.742.551 5.117 1.654 1.383 1.102 2.469 2.604 3.266 4.498.797 1.9 1.363 4.092 1.695 6.578.332 2.488.496 5.143.496 7.963 0 2.82-.164 5.488-.496 8.002zM123.215 54.459c-.523-3.279-1.516-6.293-2.973-9.041-1.461-2.74-3.5-4.998-6.117-6.768-2.617-1.766-5.992-2.65-10.121-2.65-4.137 0-7.512.885-10.125 2.65-2.621 1.77-4.66 4.027-6.117 6.768-1.461 2.748-2.453 5.762-2.977 9.041C84.262 57.744 84 60.926 84 64c0 3.074.262 6.256.785 9.537.523 3.283 1.516 6.297 2.977 9.039 1.457 2.746 3.496 5 6.117 6.77C96.492 91.115 99.867 92 104.004 92c4.129 0 7.504-.885 10.121-2.654 2.617-1.77 4.656-4.023 6.117-6.77 1.457-2.742 2.449-5.756 2.973-9.039A60.13 60.13 0 0 0 124 64c0-3.074-.258-6.256-.785-9.541zm-9.133 17.543c-.332 2.51-.898 4.703-1.695 6.576-.797 1.871-1.883 3.359-3.266 4.461-1.375 1.104-3.082 1.654-5.117 1.654-2.098 0-3.824-.551-5.168-1.654-1.351-1.102-2.43-2.59-3.226-4.461-.801-1.873-1.363-4.066-1.691-6.576-.332-2.514-.496-5.182-.496-8.002 0-2.82.164-5.475.496-7.963.328-2.486.891-4.678 1.691-6.578.797-1.895 1.875-3.396 3.226-4.498 1.344-1.104 3.07-1.654 5.168-1.654 2.035 0 3.742.551 5.117 1.654 1.383 1.102 2.469 2.604 3.266 4.498.797 1.9 1.363 4.092 1.695 6.578.332 2.488.496 5.143.496 7.963 0 2.82-.164 5.488-.496 8.002zM68 36h8v56h-8z"/></svg>