<svg xmlns="http://www.w3.org/2000/svg" viewBox="0 0 32 32"><path d="M12.494 8.54V5.574H1.126v20.758H30.78V8.54H12.494zm16.804 16.309H2.609V11.505h26.689v13.344zM8.046 22.378H6.563v-8.402h1.483v8.402zm10.378 0h-1.483v-8.402h1.483v8.402zm-5.93 0c1.631 0 2.965-1.038 2.965-4.25 0-3.163-1.384-4.201-2.965-4.201s-2.965 1.038-2.965 4.201c-.001 3.262 1.334 4.25 2.965 4.25zm0-7.067c1.334 0 1.334 1.977 1.334 2.817 0 .89 0 2.916-1.334 2.916s-1.334-1.977-1.334-2.916c-.001-.84-.001-2.817 1.334-2.817zm10.379 7.067c1.631 0 2.965-1.038 2.965-4.25 0-3.163-1.384-4.152-2.965-4.152s-2.965 1.038-2.965 4.152c-.001 3.212 1.383 4.25 2.965 4.25zm0-7.067c1.334 0 1.334 1.977 1.334 2.817 0 .89 0 2.867-1.334 2.867s-1.334-1.977-1.334-2.867c.049-.84-.001-2.817 1.334-2.817z"/></svg>