<svg xmlns="http://www.w3.org/2000/svg" viewBox="0 0 32 32"><path d="M1 9h2v14H1zM14.06 11.354a4.665 4.665 0 0 0-1.529-1.692C11.877 9.221 11.033 9 10.001 9c-1.034 0-1.878.221-2.531.663a4.647 4.647 0 0 0-1.529 1.692 7.2 7.2 0 0 0-.744 2.26C5.065 14.436 5 15.231 5 16s.065 1.564.196 2.384c.131.821.379 1.574.744 2.26.364.687.874 1.25 1.529 1.692.654.443 1.498.664 2.532.664 1.032 0 1.876-.221 2.53-.664a4.657 4.657 0 0 0 1.529-1.692 7.198 7.198 0 0 0 .743-2.26c.132-.82.197-1.615.197-2.384s-.065-1.564-.196-2.385a7.214 7.214 0 0 0-.744-2.261zM12.521 18a6.33 6.33 0 0 1-.424 1.644c-.199.468-.471.84-.816 1.115-.344.276-.771.413-1.279.413-.524 0-.956-.138-1.292-.413-.338-.275-.607-.647-.807-1.115A6.252 6.252 0 0 1 7.48 18a15.284 15.284 0 0 1-.124-2c0-.705.041-1.369.124-1.991.082-.622.223-1.17.423-1.645.199-.474.469-.849.807-1.125.336-.276.768-.413 1.292-.413.509 0 .935.138 1.279.413.346.275.617.651.816 1.125.199.475.341 1.023.424 1.645.083.622.124 1.286.124 1.991a15.46 15.46 0 0 1-.124 2zM30.804 13.615a7.224 7.224 0 0 0-.743-2.26 4.665 4.665 0 0 0-1.529-1.692C27.877 9.221 27.033 9 26.001 9c-1.034 0-1.878.221-2.531.663a4.647 4.647 0 0 0-1.529 1.692 7.2 7.2 0 0 0-.744 2.26C21.065 14.436 21 15.231 21 16s.065 1.564.196 2.384c.131.821.379 1.574.744 2.26.364.687.874 1.25 1.529 1.692.654.443 1.498.664 2.532.664 1.032 0 1.876-.221 2.53-.664a4.657 4.657 0 0 0 1.529-1.692 7.198 7.198 0 0 0 .743-2.26c.132-.82.197-1.615.197-2.384s-.065-1.564-.196-2.385zM28.521 18a6.33 6.33 0 0 1-.424 1.644c-.199.468-.471.84-.816 1.115-.344.276-.771.413-1.279.413-.524 0-.956-.138-1.292-.413-.338-.275-.607-.647-.807-1.115A6.252 6.252 0 0 1 23.48 18a15.284 15.284 0 0 1-.124-2c0-.705.041-1.369.124-1.991.082-.622.223-1.17.423-1.645.199-.474.469-.849.807-1.125.336-.276.768-.413 1.292-.413.509 0 .935.138 1.279.413.346.275.617.651.816 1.125.199.475.341 1.023.424 1.645.083.622.124 1.286.124 1.991a15.46 15.46 0 0 1-.124 2zM17 9h2v14h-2z"/></svg>