<svg xmlns="http://www.w3.org/2000/svg" viewBox="0 0 24 24"><path d="M18 14a3.991 3.991 0 0 0-3.859 3H9.859a3.932 3.932 0 0 0-.446-1.06l6.527-6.527A3.962 3.962 0 0 0 18 10a4 4 0 0 0 0-8c-1.862 0-3.412 1.278-3.859 3H9.859A3.991 3.991 0 0 0 6 2a4 4 0 0 0 0 8c1.862 0 3.412-1.278 3.859-3h4.283c.091.349.228.677.404.982l-6.509 6.592A3.97 3.97 0 0 0 6 14a4 4 0 0 0 0 8c1.862 0 3.412-1.278 3.859-3h4.283a3.991 3.991 0 0 0 3.859 3A4 4 0 1 0 18 14zM6 8c-1.103 0-2-.897-2-2s.897-2 2-2 2 .897 2 2-.897 2-2 2zm12-4c1.103 0 2 .897 2 2s-.897 2-2 2-2-.897-2-2 .897-2 2-2zM6 20c-1.103 0-2-.897-2-2s.897-2 2-2 2 .897 2 2-.897 2-2 2z"/></svg>