<svg xmlns="http://www.w3.org/2000/svg" viewBox="0 0 16 16"><path d="M13 10a2.99 2.99 0 0 0-2.816 2H5.816c-.038-.106-.094-.201-.142-.301l6.016-6.016c.396.197.837.317 1.31.317a3 3 0 1 0 0-6 2.99 2.99 0 0 0-2.816 2H5.816A2.99 2.99 0 0 0 3 0a3 3 0 1 0 0 6 2.99 2.99 0 0 0 2.816-2h4.367c.031.086.078.163.116.245l-6.044 6.044A2.917 2.917 0 0 0 3 10a3 3 0 1 0 0 6 2.99 2.99 0 0 0 2.816-2h4.367a2.99 2.99 0 0 0 2.816 2A3 3 0 0 0 13 10zM3 4.5c-.827 0-1.5-.673-1.5-1.5S2.173 1.5 3 1.5s1.5.673 1.5 1.5S3.827 4.5 3 4.5zm10-3c.827 0 1.5.673 1.5 1.5s-.673 1.5-1.5 1.5-1.5-.673-1.5-1.5.673-1.5 1.5-1.5zm-10 13c-.827 0-1.5-.673-1.5-1.5s.673-1.5 1.5-1.5 1.5.673 1.5 1.5-.673 1.5-1.5 1.5z"/></svg>