<svg xmlns="http://www.w3.org/2000/svg" viewBox="0 0 32 32"><path d="M24 19a5 5 0 0 0-4.899 4H12.9a4.975 4.975 0 0 0-.731-1.754l9.078-9.077A4.965 4.965 0 0 0 24 13c2.762 0 5-2.238 5-5a5 5 0 0 0-9.899-1H12.9A5 5 0 0 0 3 8a5 5 0 0 0 9.899 1H19.1c.13.638.384 1.23.731 1.754l-9.078 9.077A4.965 4.965 0 0 0 8 19c-2.762 0-5 2.238-5 5a5 5 0 0 0 9.899 1H19.1a5 5 0 0 0 9.899-1c0-2.762-2.237-5-4.999-5zm0-14a3 3 0 1 1 0 6 3 3 0 0 1 0-6zM8 11a3 3 0 1 1 0-6 3 3 0 0 1 0 6zm0 16a3 3 0 1 1 0-6 3 3 0 0 1 0 6z"/></svg>