<svg xmlns="http://www.w3.org/2000/svg" viewBox="0 0 128 128"><path d="M96 76c-10.371 0-18.895 7.893-19.898 18H51.898a19.895 19.895 0 0 0-4.414-10.655l35.859-35.861A19.924 19.924 0 0 0 96 52c11.047 0 20-8.953 20-20s-8.953-20-20-20c-10.371 0-18.895 7.893-19.898 18H51.898C50.894 19.893 42.371 12 32 12c-11.047 0-20 8.953-20 20s8.953 20 20 20c10.371 0 18.894-7.893 19.898-18h24.203a19.895 19.895 0 0 0 4.414 10.655L44.656 80.517A19.914 19.914 0 0 0 32 76c-11.047 0-20 8.953-20 20s8.953 20 20 20c10.371 0 18.894-7.893 19.898-18h24.203c1.004 10.107 9.527 18 19.898 18 11.047 0 20-8.953 20-20S107.047 76 96 76zM32 48c-8.836 0-16-7.164-16-16s7.164-16 16-16 16 7.164 16 16-7.164 16-16 16zm48-16c0-8.836 7.164-16 16-16s16 7.164 16 16-7.164 16-16 16-16-7.164-16-16zm-48 80c-8.836 0-16-7.164-16-16s7.164-16 16-16 16 7.164 16 16-7.164 16-16 16z"/></svg>