<svg xmlns="http://www.w3.org/2000/svg" viewBox="0 0 32 32"><path d="M8 23c2.762 0 5-2.238 5-5s-2.238-5-5-5-5 2.238-5 5 2.238 5 5 5zm0-8c1.654 0 3 1.346 3 3s-1.346 3-3 3-3-1.346-3-3 1.346-3 3-3zM19 18c0 2.762 2.238 5 5 5s5-2.238 5-5-2.238-5-5-5-5 2.238-5 5zm5-3c1.654 0 3 1.346 3 3s-1.346 3-3 3-3-1.346-3-3 1.346-3 3-3zM21 7c0-2.762-2.238-5-5-5s-5 2.238-5 5 2.238 5 5 5 5-2.238 5-5zm-5 3c-1.654 0-3-1.346-3-3s1.346-3 3-3 3 1.346 3 3-1.346 3-3 3zM12 25H4a2 2 0 0 0-2 2v3h12v-3a2 2 0 0 0-2-2zM28 25h-8a2 2 0 0 0-2 2v3h12v-3a2 2 0 0 0-2-2z"/></svg>