<svg xmlns="http://www.w3.org/2000/svg" viewBox="0 0 64 64"><path d="M16 46c5.523 0 10-4.477 10-10s-4.477-10-10-10S6 30.477 6 36s4.477 10 10 10zm0-18c4.411 0 8 3.589 8 8s-3.589 8-8 8-8-3.589-8-8 3.589-8 8-8zM38 36c0 5.523 4.477 10 10 10s10-4.477 10-10-4.477-10-10-10-10 4.477-10 10zm10-8c4.411 0 8 3.589 8 8s-3.589 8-8 8-8-3.589-8-8 3.589-8 8-8zM42 14c0-5.523-4.477-10-10-10S22 8.477 22 14s4.477 10 10 10 10-4.477 10-10zm-10 8c-4.411 0-8-3.589-8-8s3.589-8 8-8 8 3.589 8 8-3.589 8-8 8zM24 50H8a4 4 0 0 0-4 4v6h24v-6a4 4 0 0 0-4-4zM56 50H40a4 4 0 0 0-4 4v6h24v-6a4 4 0 0 0-4-4z"/></svg>