<svg xmlns="http://www.w3.org/2000/svg" viewBox="0 0 64 64"><path d="M62.149 51.034v3.005H2.042V9.961h3.005v41.073h57.102zm-49.088-7.013c2.805 0 5.009-2.204 5.009-5.009a5.392 5.392 0 0 0-.801-2.805l7.012-8.615c.601.2 1.202.401 1.803.401 1.202 0 2.304-.401 3.106-1.102l7.113 4.708c-.1.501-.2.902-.2 1.402 0 2.805 2.204 5.009 5.009 5.009s5.009-2.204 5.009-5.009c0-1.002-.301-1.803-.701-2.605l7.714-8.816c.601.301 1.302.401 2.004.401 2.805 0 5.009-2.204 5.009-5.009s-2.204-5.009-5.009-5.009-5.009 2.204-5.009 5.009c0 1.002.301 1.803.701 2.605l-7.714 8.816c-.601-.301-1.302-.401-2.004-.401-1.202 0-2.304.401-3.106 1.102l-7.113-4.708c.1-.401.2-.902.2-1.402 0-2.805-2.204-5.009-5.009-5.009s-5.009 2.204-5.009 5.009c0 1.002.301 2.004.801 2.805l-7.012 8.615c-.501-.301-1.102-.401-1.803-.401-2.805 0-5.009 2.204-5.009 5.009.001 2.805 2.204 5.009 5.009 5.009z"/></svg>