<svg xmlns="http://www.w3.org/2000/svg" viewBox="0 0 24 24"><path d="M22.984 18.957v1.098H1.016V3.945h1.098v15.012h20.87zM5.043 16.394a1.814 1.814 0 0 0 1.831-1.831c0-.366-.11-.732-.293-1.025l2.563-3.149c.22.073.439.146.659.146.439 0 .842-.146 1.135-.403l2.6 1.721c-.037.183-.073.33-.073.513 0 1.025.806 1.831 1.831 1.831s1.831-.806 1.831-1.831c0-.366-.11-.659-.256-.952l2.819-3.222c.22.11.476.146.732.146 1.025 0 1.831-.806 1.831-1.831s-.806-1.831-1.831-1.831a1.814 1.814 0 0 0-1.831 1.831c0 .366.11.659.256.952l-2.819 3.222c-.22-.11-.476-.146-.732-.146-.439 0-.842.146-1.135.403l-2.6-1.721c.037-.146.073-.33.073-.513 0-1.025-.806-1.831-1.831-1.831s-1.831.807-1.831 1.832c0 .366.11.732.293 1.025l-2.563 3.149c-.183-.11-.403-.146-.659-.146-1.025 0-1.831.806-1.831 1.831s.806 1.83 1.831 1.83z"/></svg>