<svg xmlns="http://www.w3.org/2000/svg" viewBox="0 0 64 64"><path d="M48.969 9.03C44.627 4.687 38.627 2 32 2S19.373 4.687 15.031 9.03A23.922 23.922 0 0 0 8 26c0 7.017 2.687 13.37 7.031 17.968L32 62l16.969-18.032C53.312 39.37 56 33.017 56 26a23.926 23.926 0 0 0-7.031-16.97zm-1.457 33.567L32 59.082 16.485 42.594C12.303 38.168 10 32.274 10 26c0-5.875 2.289-11.4 6.446-15.556A21.849 21.849 0 0 1 32 4c5.876 0 11.4 2.289 15.555 6.445A21.853 21.853 0 0 1 54 26c0 6.274-2.303 12.168-6.488 16.597z"/><circle cx="32" cy="26" r="8"/></svg>