<svg xmlns="http://www.w3.org/2000/svg" viewBox="0 0 32 32"><path d="M13.964 21.424a1.744 1.744 0 0 0-.584-.488 1.801 1.801 0 0 0-.84-.183c-.256 0-.491.051-.704.152-.213.102-.39.264-.528.488h-.016v-.529h-1.08v5.585h1.136v-1.96h.016c.139.203.316.355.532.46.216.104.452.155.708.155.304 0 .569-.059.796-.176a1.67 1.67 0 0 0 .568-.472c.152-.197.265-.424.34-.681a2.82 2.82 0 0 0 .112-.799 3.18 3.18 0 0 0-.112-.845 2.07 2.07 0 0 0-.344-.707zm-.728 2.008c-.032.16-.087.301-.164.42a.907.907 0 0 1-.304.293.906.906 0 0 1-.468.111.913.913 0 0 1-.464-.111.892.892 0 0 1-.308-.293 1.245 1.245 0 0 1-.168-.42 2.272 2.272 0 0 1-.052-.488c0-.17.016-.336.048-.495a1.26 1.26 0 0 1 .164-.425.869.869 0 0 1 .772-.416c.181 0 .335.039.46.117a.948.948 0 0 1 .308.303c.08.126.138.269.172.429.035.16.052.323.052.487 0 .165-.016.327-.048.488zM15.956 20.932c-.23.12-.42.279-.572.477a2.087 2.087 0 0 0-.344.684 2.774 2.774 0 0 0-.116.805c0 .287.039.564.116.832.077.266.192.502.344.707.152.206.345.369.58.488.235.12.507.18.816.18.272 0 .516-.049.732-.147a1.18 1.18 0 0 0 .524-.483h.016V25h1.08v-5.712h-1.136v2.08h-.016a1.22 1.22 0 0 0-.524-.46 1.644 1.644 0 0 0-.7-.156 1.7 1.7 0 0 0-.8.18zm1.568.789a.917.917 0 0 1 .3.291c.078.12.132.259.164.416a2.52 2.52 0 0 1 0 .988c-.032.16-.085.303-.16.428a.865.865 0 0 1-.3.301.906.906 0 0 1-.468.111.855.855 0 0 1-.452-.115 1.02 1.02 0 0 1-.312-.305 1.306 1.306 0 0 1-.18-.428 2.07 2.07 0 0 1-.056-.48c0-.17.017-.334.052-.492a1.34 1.34 0 0 1 .168-.42.888.888 0 0 1 .308-.295.919.919 0 0 1 .472-.113.867.867 0 0 1 .464.113zM20.236 25h1.136v-3.376h.784v-.761h-.784v-.247c0-.171.033-.292.1-.364.066-.072.177-.108.332-.108.144 0 .283.008.416.023v-.847c-.096-.006-.195-.012-.296-.02a3.861 3.861 0 0 0-.304-.012c-.464 0-.81.117-1.04.353-.229.234-.344.535-.344.903v.319h-.68v.761h.68V25z"/><path d="M18 1H6v30h20V9l-8-8zm6 28H8V3h9v7h7v19z"/></svg>