<svg xmlns="http://www.w3.org/2000/svg" viewBox="0 0 128 128"><path d="M55.856 85.696a6.947 6.947 0 0 0-2.336-1.952c-.939-.49-2.059-.736-3.36-.736-1.024 0-1.963.203-2.816.608-.854.405-1.558 1.056-2.112 1.952h-.064v-2.112h-4.32v22.336h4.544v-7.84h.064a5.36 5.36 0 0 0 2.128 1.84c.864.416 1.808.624 2.832.624 1.216 0 2.277-.235 3.184-.704a6.735 6.735 0 0 0 2.272-1.888 8.146 8.146 0 0 0 1.36-2.721c.299-1.023.448-2.09.448-3.199 0-1.173-.149-2.299-.448-3.376-.299-1.077-.757-2.021-1.376-2.832zm-2.912 8.032a4.823 4.823 0 0 1-.656 1.681c-.31.479-.715.869-1.216 1.168-.501.299-1.125.448-1.872.448-.726 0-1.344-.149-1.856-.448a3.595 3.595 0 0 1-1.232-1.168 5.021 5.021 0 0 1-.672-1.681 9.163 9.163 0 0 1-.208-1.951c0-.683.064-1.345.192-1.984a4.97 4.97 0 0 1 .656-1.696c.309-.49.714-.891 1.216-1.199.501-.31 1.125-.465 1.872-.465.725 0 1.339.155 1.84.465.501.309.912.715 1.232 1.216.32.501.549 1.071.688 1.712.138.64.208 1.291.208 1.952 0 .66-.064 1.31-.192 1.95zM63.824 83.728a6.868 6.868 0 0 0-2.288 1.904 8.365 8.365 0 0 0-1.376 2.736 11.177 11.177 0 0 0-.464 3.216c0 1.152.155 2.262.464 3.328a8.855 8.855 0 0 0 1.376 2.832 6.553 6.553 0 0 0 2.32 1.952c.938.479 2.026.72 3.264.72 1.088 0 2.064-.197 2.928-.592.864-.395 1.562-1.04 2.096-1.937h.064V100h4.32V77.152h-4.544v8.319h-.064a4.878 4.878 0 0 0-2.096-1.84 6.505 6.505 0 0 0-2.8-.624c-1.216.001-2.283.241-3.2.721zm6.272 3.152a3.69 3.69 0 0 1 1.2 1.168c.309.48.528 1.035.656 1.664.128.63.192 1.285.192 1.968 0 .684-.064 1.345-.192 1.984a5.367 5.367 0 0 1-.64 1.712 3.406 3.406 0 0 1-1.2 1.2c-.501.299-1.126.448-1.872.448-.704 0-1.307-.155-1.808-.465a3.988 3.988 0 0 1-1.248-1.216 5.217 5.217 0 0 1-.72-1.712 8.443 8.443 0 0 1-.224-1.92c0-.683.069-1.339.208-1.968a5.255 5.255 0 0 1 .672-1.68c.309-.491.72-.886 1.232-1.185.512-.299 1.141-.448 1.888-.448.746.002 1.365.151 1.856.45zM80.944 100h4.544V86.496h3.136v-3.04h-3.136v-.992c0-.683.133-1.168.4-1.456.267-.288.709-.432 1.328-.432.576 0 1.13.032 1.664.096V77.28a49.099 49.099 0 0 1-1.184-.08 15.464 15.464 0 0 0-1.216-.048c-1.856 0-3.243.469-4.16 1.407-.918.939-1.376 2.145-1.376 3.616v1.28h-2.72v3.04h2.72V100z"/><path d="M72 4H24v120h80V36L72 4zm28 116H28V8h40v32h32v80z"/></svg>