<svg xmlns="http://www.w3.org/2000/svg" viewBox="0 0 64 64"><path d="M27.928 42.848a3.48 3.48 0 0 0-1.168-.976c-.47-.245-1.03-.368-1.68-.368a3.25 3.25 0 0 0-1.408.304c-.427.203-.779.528-1.056.977h-.032v-1.057h-2.16v11.169h2.273v-3.921h.032c.277.406.632.713 1.064.921.432.207.904.312 1.416.312.608 0 1.139-.117 1.592-.352.453-.235.832-.55 1.136-.944a4.07 4.07 0 0 0 .68-1.36 5.695 5.695 0 0 0 .224-1.6c0-.587-.075-1.149-.224-1.688a4.15 4.15 0 0 0-.689-1.417zm-1.456 4.016c-.064.319-.174.6-.328.84-.155.24-.357.435-.608.584-.251.149-.563.224-.936.224-.363 0-.672-.074-.928-.224a1.789 1.789 0 0 1-.616-.584 2.516 2.516 0 0 1-.336-.84 4.56 4.56 0 0 1-.104-.977c0-.341.032-.672.096-.991.064-.32.173-.603.328-.849.154-.245.357-.445.608-.6.25-.154.562-.232.936-.232.363 0 .669.078.92.232.251.154.456.357.616.607.16.251.274.536.344.856.069.32.104.645.104.976 0 .333-.032.658-.096.978zM31.912 41.864c-.459.239-.84.558-1.144.952a4.178 4.178 0 0 0-.688 1.367 5.579 5.579 0 0 0-.232 1.608c0 .576.077 1.131.232 1.664.154.533.384 1.006.688 1.416.304.411.69.736 1.16.976.469.24 1.014.36 1.632.36a3.49 3.49 0 0 0 1.464-.296c.432-.197.781-.521 1.048-.968h.032V50h2.16V38.576h-2.272v4.16h-.032a2.445 2.445 0 0 0-1.048-.92 3.256 3.256 0 0 0-1.4-.312c-.608 0-1.141.12-1.6.36zm3.136 1.576c.245.149.445.344.6.584.154.239.264.517.328.832.064.314.096.643.096.983 0 .342-.032.672-.096.992a2.7 2.7 0 0 1-.32.856c-.15.25-.349.45-.6.6-.251.149-.563.224-.936.224-.352 0-.654-.077-.904-.231a1.978 1.978 0 0 1-.624-.608 2.609 2.609 0 0 1-.36-.856 4.2 4.2 0 0 1-.112-.96c0-.342.034-.67.104-.984.069-.315.181-.595.336-.84.154-.245.36-.442.616-.592.256-.149.571-.225.944-.225.373.001.682.076.928.225zM40.472 50h2.272v-6.752h1.568v-1.521h-1.568v-.495c0-.342.067-.584.2-.729.133-.143.354-.216.664-.216.288 0 .565.016.832.048V38.64c-.192-.01-.39-.023-.592-.04a7.72 7.72 0 0 0-.608-.023c-.928 0-1.622.234-2.08.704-.458.469-.688 1.071-.688 1.808v.64h-1.36v1.521h1.36V50z"/><path d="M36 2H12v60h40V18L36 2zm14 58H14V4h20v16h16v40z"/></svg>