<svg xmlns="http://www.w3.org/2000/svg" viewBox="0 0 64 64"><path d="M50 2L34.707 17.293l-1.414 1.414-2.586 2.586-1.414 1.414-2.586 2.586-1.414 1.414-2.586 2.586-1.414 1.414-2.586 2.586-1.414 1.414-2.586 2.586-1.414 1.414L8 44l-6 6 12 12 6-6 42-42L50 2zM18.586 54.586l-9.172-9.172 5.293-5.293 4.586 4.586 1.414-1.414-4.586-4.586 2.586-2.586 4.586 4.586 1.414-1.414-4.586-4.586 2.586-2.586 4.586 4.586 1.414-1.414-4.586-4.586 2.586-2.586 4.586 4.586 1.414-1.414-4.586-4.586 2.586-2.586 4.586 4.586 1.414-1.414-4.586-4.586 2.586-2.586 4.586 4.586 1.414-1.414-4.586-4.586L50 4.829 59.172 14 18.586 54.586z"/><circle cx="50" cy="14" r="2"/></svg>