<svg xmlns="http://www.w3.org/2000/svg" viewBox="0 0 32 32"><path d="M25 1l-7.646 7.646-.707.707-1.293 1.293-.707.707-1.293 1.293-.707.707-1.293 1.293-.707.707-1.293 1.293-.707.707-1.293 1.293-.707.707L4 22l-3 3 6 6 3-3L31 7l-6-6zM8.586 26.586l-3.172-3.172 2.646-2.647 1.586 1.586.707-.707-1.585-1.586 1.293-1.293 1.586 1.586.707-.707-1.586-1.586 1.293-1.293 1.586 1.586.707-.707-1.586-1.586 1.293-1.293 1.586 1.586.707-.707-1.586-1.586 1.293-1.293 1.586 1.586.707-.707-1.586-1.586 1.293-1.293 1.586 1.586.707-.707-1.586-1.586L25 3.829 28.172 7 8.586 26.586z"/><circle cx="25" cy="7" r="1"/></svg>