<svg xmlns="http://www.w3.org/2000/svg" viewBox="0 0 128 128"><path d="M100 4L69.414 34.586l-2.828 2.828-5.172 5.172-2.828 2.828-5.172 5.172-2.828 2.828-5.172 5.172-2.828 2.828-5.172 5.172-2.828 2.828-5.172 5.172-2.828 2.828L16 88 4 100l24 24 12-12 84-84-24-24zM37.172 109.172L18.828 90.828l10.586-10.586 9.172 9.172 2.828-2.828-9.172-9.172 5.172-5.172 9.172 9.172 2.828-2.828-9.172-9.172 5.172-5.172 9.172 9.172 2.828-2.828-9.172-9.172 5.172-5.172 9.172 9.172 2.828-2.828-9.172-9.172 5.172-5.172 9.172 9.172 2.828-2.828-9.172-9.172 5.172-5.172 9.172 9.172 2.828-2.828-9.172-9.172L100 9.657 118.344 28l-81.172 81.172z"/><circle cx="100" cy="28" r="4"/></svg>