<svg xmlns="http://www.w3.org/2000/svg" viewBox="0 0 128 128"><path d="M96 36c8.836 0 16-7.164 16-16S104.836 4 96 4s-16 7.164-16 16 7.164 16 16 16zm0-28c6.617 0 12 5.383 12 12s-5.383 12-12 12-12-5.383-12-12S89.383 8 96 8zM108 44H84L64 64 44 44H20a8 8 0 0 0-8 8v32l8 8v28c0 2.209 1.789 4 4 4h16c2.211 0 4-1.791 4-4V64l20 20 20-20v56c0 2.209 1.789 4 4 4h16c2.211 0 4-1.791 4-4V92l8-8V52a8 8 0 0 0-8-8zM32 36c8.836 0 16-7.164 16-16S40.836 4 32 4s-16 7.164-16 16 7.164 16 16 16zm0-28c6.617 0 12 5.383 12 12s-5.383 12-12 12-12-5.383-12-12S25.383 8 32 8z"/></svg>