<svg xmlns="http://www.w3.org/2000/svg" viewBox="0 0 128 128"><path d="M112 84L76 48l9.949-16.582A3.969 3.969 0 0 0 88 32c2.211 0 4-1.791 4-4s-1.789-4-4-4c-2.211 0-4 1.791-4 4 0 .753.221 1.449.582 2.051L68 40 32 4C21.801 14.195 16 28.441 16 44c0 15.561 5.801 29.805 16 40 10.191 10.197 24.437 16 40 16 15.559 0 29.805-5.803 40-16zM20 44c0-12.985 4.275-24.987 12.115-34.228l74.112 74.112C96.985 91.725 84.983 96 72 96c-14.414 0-27.614-5.266-37.172-14.829C25.266 71.613 20 58.412 20 44zM44 108h40v16H44z"/></svg>