<svg xmlns="http://www.w3.org/2000/svg" viewBox="0 0 64 64"><path d="M29 43.171l-4.586-4.585-2.828 2.828L29 48.829l13.414-13.415-2.828-2.828z"/><path d="M48 24.91V18c0-8.837-7.163-16-16-16S16 9.163 16 18v6.911c-3.717 3.94-6 9.247-6 15.089 0 12.147 9.853 22 22 22 12.151 0 22-9.853 22-22 0-5.843-2.283-11.15-6-15.09zM20 18c0-6.617 5.383-12 12-12s12 5.383 12 12v3.565A21.885 21.885 0 0 0 32 18a21.889 21.889 0 0 0-12 3.566V18zm12 42c-11.045 0-20-8.955-20-20s8.955-20 20-20 20 8.955 20 20-8.955 20-20 20z"/></svg>