<svg xmlns="http://www.w3.org/2000/svg" viewBox="0 0 128 128"><path d="M110.172 87.844V40.287c7.849-2.078 13.852-9.234 13.852-17.776 0-10.158-8.311-18.469-18.469-18.469-8.542 0-15.699 5.772-17.776 13.852H40.221c-2.078-7.849-9.234-13.852-17.776-13.852-10.158 0-18.469 8.311-18.469 18.469 0 8.542 6.002 15.699 13.852 17.776v47.327C9.979 89.691 3.976 96.848 3.976 105.39c0 10.158 8.311 18.469 18.469 18.469 9.465 0 17.084-7.157 18.238-16.16h46.403c1.154 9.004 9.004 16.16 18.238 16.16 10.158 0 18.469-8.311 18.469-18.469.231-8.311-5.772-15.468-13.621-17.546zm-72.49 7.388l15.929-15.929c3.001 2.078 6.464 3.232 10.389 3.232s7.388-1.154 10.389-3.232l15.929 15.929c-1.154 1.616-2.078 3.694-2.539 5.772H40.221c-.461-2.079-1.385-3.925-2.539-5.772zm-4.848-57.485l15.929 15.929c-2.078 3.001-3.232 6.464-3.232 10.389s1.154 7.388 3.232 10.389l-15.929 15.93c-2.309-1.616-5.079-2.77-8.08-3.001V40.748c3.001-.23 5.771-1.385 8.08-3.001zm57.484-4.848l-15.929 15.93c-3.001-2.078-6.464-3.232-10.389-3.232s-7.388 1.154-10.389 3.232l-15.929-15.93c1.616-2.309 2.77-5.079 3.001-8.08h46.403a19.24 19.24 0 0 0 3.232 8.08zm4.848 57.485l-15.929-15.93c2.078-3.001 3.232-6.464 3.232-10.389s-1.154-7.388-3.232-10.389l15.929-15.929c2.309 1.616 5.079 2.77 8.08 3.001v46.403a19.247 19.247 0 0 0-8.08 3.233zm10.389-79.417c6.002 0 11.543 5.541 11.543 11.543s-5.541 11.543-11.543 11.543c-6.002 0-11.543-5.541-11.543-11.543s5.541-11.543 11.543-11.543zM10.902 22.51c0-6.002 5.541-11.543 11.543-11.543s11.543 5.541 11.543 11.543-5.541 11.543-11.543 11.543-11.543-5.54-11.543-11.543zm11.543 94.653c-6.002 0-11.543-5.541-11.543-11.543 0-6.002 5.541-11.543 11.543-11.543s11.543 5.541 11.543 11.543c0 6.003-5.541 11.543-11.543 11.543zm83.11 0c-6.002 0-11.543-5.541-11.543-11.543 0-6.002 5.541-11.543 11.543-11.543 6.002 0 11.543 5.541 11.543 11.543 0 6.003-5.541 11.543-11.543 11.543z"/></svg>