<svg xmlns="http://www.w3.org/2000/svg" viewBox="0 0 32 32"><path d="M27.334 21.847V10.11c1.937-.513 3.418-2.279 3.418-4.387a4.571 4.571 0 0 0-4.558-4.558c-2.108 0-3.874 1.424-4.387 3.418H10.071c-.513-1.936-2.279-3.417-4.387-3.417a4.571 4.571 0 0 0-4.558 4.558c0 2.108 1.481 3.874 3.418 4.387V21.79c-1.937.513-3.418 2.279-3.418 4.387a4.571 4.571 0 0 0 4.558 4.558c2.336 0 4.216-1.766 4.501-3.988h11.451c.285 2.222 2.222 3.988 4.501 3.988a4.571 4.571 0 0 0 4.558-4.558c.057-2.051-1.424-3.818-3.361-4.33zM9.444 23.67l3.931-3.931c.741.513 1.595.798 2.564.798s1.823-.285 2.564-.798l3.931 3.931a4.031 4.031 0 0 0-.627 1.424H10.071c-.114-.513-.342-.968-.627-1.424zM8.248 9.484l3.931 3.931c-.513.741-.798 1.595-.798 2.564s.285 1.823.798 2.564l-3.931 3.931c-.57-.399-1.253-.684-1.994-.741V10.224c.74-.057 1.424-.342 1.994-.74zm14.186-1.197l-3.931 3.931c-.741-.513-1.595-.798-2.564-.798s-1.823.285-2.564.798L9.444 8.287c.399-.57.684-1.253.741-1.994h11.451c.114.741.399 1.424.798 1.994zm1.196 14.186l-3.931-3.931c.513-.741.798-1.595.798-2.564s-.285-1.823-.798-2.564l3.931-3.931c.57.399 1.253.684 1.994.741v11.451c-.74.115-1.424.4-1.994.798zm2.564-19.598c1.481 0 2.849 1.367 2.849 2.849s-1.367 2.849-2.849 2.849c-1.481 0-2.849-1.367-2.849-2.849s1.368-2.849 2.849-2.849zM2.835 5.723c0-1.481 1.367-2.849 2.849-2.849s2.849 1.367 2.849 2.849-1.368 2.849-2.849 2.849-2.849-1.367-2.849-2.849zm2.849 23.359c-1.481 0-2.849-1.367-2.849-2.849s1.367-2.849 2.849-2.849 2.849 1.367 2.849 2.849-1.368 2.849-2.849 2.849zm20.51 0c-1.481 0-2.849-1.367-2.849-2.849s1.367-2.849 2.849-2.849c1.481 0 2.849 1.367 2.849 2.849s-1.368 2.849-2.849 2.849z"/></svg>