<svg xmlns="http://www.w3.org/2000/svg" viewBox="0 0 24 24"><path d="M20.449 16.323V7.62c1.436-.38 2.535-1.69 2.535-3.253a3.39 3.39 0 0 0-3.38-3.38 3.349 3.349 0 0 0-3.253 2.535H7.649C7.269 2.086 5.959.987 4.396.987a3.39 3.39 0 0 0-3.38 3.38c0 1.563 1.098 2.873 2.535 3.253v8.661c-1.436.38-2.535 1.69-2.535 3.253a3.39 3.39 0 0 0 3.38 3.38c1.732 0 3.126-1.31 3.338-2.957h8.492c.211 1.648 1.648 2.957 3.338 2.957a3.39 3.39 0 0 0 3.38-3.38c.04-1.522-1.058-2.831-2.495-3.211zM7.184 17.675l2.915-2.915c.549.38 1.183.591 1.901.591s1.352-.211 1.901-.591l2.915 2.915c-.211.296-.38.676-.465 1.056H7.649c-.085-.381-.254-.719-.465-1.056zm-.887-10.52l2.915 2.915a3.275 3.275 0 0 0-.591 1.901c0 .718.211 1.352.591 1.901l-2.915 2.915a2.987 2.987 0 0 0-1.479-.549V7.704a2.994 2.994 0 0 0 1.479-.549zm10.519-.887l-2.915 2.915A3.276 3.276 0 0 0 12 8.591c-.718 0-1.352.211-1.901.591L7.184 6.268c.296-.423.507-.93.549-1.479h8.492c.084.549.295 1.056.591 1.479zm.887 10.519l-2.915-2.915c.38-.549.591-1.183.591-1.901s-.211-1.352-.591-1.901l2.915-2.915c.422.296.929.507 1.479.549v8.492a3.529 3.529 0 0 0-1.479.591zm1.902-14.533c1.098 0 2.112 1.014 2.112 2.112s-1.014 2.112-2.112 2.112-2.112-1.014-2.112-2.112 1.013-2.112 2.112-2.112zM2.283 4.367c0-1.098 1.014-2.112 2.112-2.112s2.112 1.014 2.112 2.112-1.013 2.112-2.112 2.112-2.112-1.014-2.112-2.112zm2.112 17.321c-1.098 0-2.112-1.014-2.112-2.112s1.014-2.112 2.112-2.112 2.112 1.014 2.112 2.112c.001 1.098-1.013 2.112-2.112 2.112zm15.21 0c-1.098 0-2.112-1.014-2.112-2.112s1.014-2.112 2.112-2.112 2.112 1.014 2.112 2.112-1.014 2.112-2.112 2.112z"/></svg>