<svg xmlns="http://www.w3.org/2000/svg" viewBox="0 0 128 128"><circle cx="64" cy="32" r="12"/><path d="M64 76c6.625 0 12-5.373 12-12s-5.375-12-12-12-12 5.373-12 12 5.375 12 12 12zm0-20c4.411 0 8 3.589 8 8s-3.589 8-8 8-8-3.589-8-8 3.589-8 8-8zM64 108c6.625 0 12-5.373 12-12s-5.375-12-12-12-12 5.373-12 12 5.375 12 12 12zm0-20c4.411 0 8 3.589 8 8s-3.589 8-8 8-8-3.589-8-8 3.589-8 8-8z"/><path d="M108 52H92v-8l16-24H92V4H36v16H20l16 24v8H20l16 24v8H20l16 24v16h56v-16l16-24H92v-8l16-24zm-20 68H40V8h48v112z"/></svg>