<svg xmlns="http://www.w3.org/2000/svg" viewBox="0 0 128 128"><path d="M22.445 3.976c-10.158 0-18.469 8.311-18.469 18.469s8.311 18.469 18.469 18.469 18.469-8.311 18.469-18.469S32.603 3.976 22.445 3.976zm0 30.012c-6.002 0-11.543-5.541-11.543-11.543s5.541-11.543 11.543-11.543 11.543 5.541 11.543 11.543-5.541 11.543-11.543 11.543zM82.469 64c0 10.158-8.311 18.469-18.469 18.469S45.531 74.158 45.531 64 53.842 45.531 64 45.531 82.469 53.842 82.469 64zM22.445 87.086c-10.158 0-18.469 8.311-18.469 18.469s8.311 18.469 18.469 18.469 18.469-8.311 18.469-18.469-8.311-18.469-18.469-18.469zm0 30.012c-6.002 0-11.543-5.541-11.543-11.543 0-6.002 5.541-11.543 11.543-11.543s11.543 5.541 11.543 11.543c0 6.002-5.541 11.543-11.543 11.543zm83.11-76.184c10.158 0 18.469-8.311 18.469-18.469s-8.311-18.469-18.469-18.469-18.469 8.311-18.469 18.469 8.311 18.469 18.469 18.469zm0-30.012c6.002 0 11.543 5.541 11.543 11.543s-5.541 11.543-11.543 11.543c-6.002 0-11.543-5.541-11.543-11.543s5.541-11.543 11.543-11.543zm0 76.184c-10.158 0-18.469 8.311-18.469 18.469s8.311 18.469 18.469 18.469 18.469-8.311 18.469-18.469-8.311-18.469-18.469-18.469zm0 30.012c-6.002 0-11.543-5.541-11.543-11.543 0-6.002 5.541-11.543 11.543-11.543 6.002 0 11.543 5.541 11.543 11.543 0 6.002-5.541 11.543-11.543 11.543z"/></svg>