<svg xmlns="http://www.w3.org/2000/svg" viewBox="0 0 64 64"><path d="M11.375 1.937c-5.088 0-9.25 4.163-9.25 9.25s4.163 9.25 9.25 9.25 9.25-4.163 9.25-9.25-4.162-9.25-9.25-9.25zm0 15.031c-3.006 0-5.781-2.775-5.781-5.781s2.775-5.781 5.781-5.781 5.781 2.775 5.781 5.781-2.775 5.781-5.781 5.781zM41.438 32c0 5.088-4.163 9.25-9.25 9.25s-9.25-4.163-9.25-9.25 4.163-9.25 9.25-9.25 9.25 4.162 9.25 9.25zM11.375 43.563c-5.088 0-9.25 4.163-9.25 9.25s4.163 9.25 9.25 9.25 9.25-4.163 9.25-9.25-4.162-9.25-9.25-9.25zm0 15.031c-3.006 0-5.781-2.775-5.781-5.781s2.775-5.781 5.781-5.781 5.781 2.775 5.781 5.781-2.775 5.781-5.781 5.781zm41.626-38.157c5.088 0 9.25-4.163 9.25-9.25s-4.163-9.25-9.25-9.25-9.25 4.163-9.25 9.25 4.162 9.25 9.25 9.25zm0-15.031c3.006 0 5.781 2.775 5.781 5.781s-2.775 5.781-5.781 5.781-5.781-2.775-5.781-5.781 2.775-5.781 5.781-5.781zm0 38.157c-5.088 0-9.25 4.163-9.25 9.25s4.163 9.25 9.25 9.25 9.25-4.163 9.25-9.25-4.162-9.25-9.25-9.25zm0 15.031c-3.006 0-5.781-2.775-5.781-5.781s2.775-5.781 5.781-5.781 5.781 2.775 5.781 5.781-2.775 5.781-5.781 5.781z"/></svg>