<svg xmlns="http://www.w3.org/2000/svg" viewBox="0 0 32 32"><path d="M5.684 1.187c-2.507 0-4.558 2.051-4.558 4.558s2.051 4.558 4.558 4.558 4.558-2.051 4.558-4.558-2.051-4.558-4.558-4.558zm0 7.407c-1.481 0-2.849-1.367-2.849-2.849s1.367-2.849 2.849-2.849 2.849 1.367 2.849 2.849-1.368 2.849-2.849 2.849zM20.497 16c0 2.507-2.051 4.558-4.558 4.558S11.381 18.507 11.381 16s2.051-4.558 4.558-4.558 4.558 2.051 4.558 4.558zM5.684 21.697c-2.507 0-4.558 2.051-4.558 4.558s2.051 4.558 4.558 4.558 4.558-2.051 4.558-4.558-2.051-4.558-4.558-4.558zm0 7.407c-1.481 0-2.849-1.367-2.849-2.849s1.367-2.849 2.849-2.849 2.849 1.367 2.849 2.849-1.368 2.849-2.849 2.849zm20.51-18.801c2.507 0 4.558-2.051 4.558-4.558s-2.051-4.558-4.558-4.558-4.558 2.051-4.558 4.558 2.051 4.558 4.558 4.558zm0-7.407c1.481 0 2.849 1.367 2.849 2.849s-1.367 2.849-2.849 2.849c-1.481 0-2.849-1.367-2.849-2.849s1.368-2.849 2.849-2.849zm0 18.801c-2.507 0-4.558 2.051-4.558 4.558s2.051 4.558 4.558 4.558 4.558-2.051 4.558-4.558-2.051-4.558-4.558-4.558zm0 7.407c-1.481 0-2.849-1.367-2.849-2.849s1.367-2.849 2.849-2.849c1.481 0 2.849 1.367 2.849 2.849s-1.368 2.849-2.849 2.849z"/></svg>