<?xml version="1.0" encoding="UTF-8" standalone="no"?><svg xmlns="http://www.w3.org/2000/svg" xmlns:xlink="http://www.w3.org/1999/xlink" contentScriptType="application/ecmascript" contentStyleType="text/css" height="237px" preserveAspectRatio="none" style="width:550px;height:237px;" version="1.1" viewBox="0 0 550 237" width="550px" zoomAndPan="magnify"><defs><filter height="300%" id="fi4m8sz" width="300%" x="-1" y="-1"><feGaussianBlur result="blurOut" stdDeviation="2.0"/><feColorMatrix in="blurOut" result="blurOut2" type="matrix" values="0 0 0 0 0 0 0 0 0 0 0 0 0 0 0 0 0 0 .4 0"/><feOffset dx="4.0" dy="4.0" in="blurOut2" result="blurOut3"/><feBlend in="SourceGraphic" in2="blurOut3" mode="normal"/></filter></defs><g><!--class AssetRegistry--><rect fill="#FEFECE" filter="url(#fi4m8sz)" height="112.0234" style="stroke: #A80036; stroke-width: 1.5;" width="535" x="6" y="8"/><ellipse cx="226.75" cy="24" fill="#ADD1B2" rx="11" ry="11" style="stroke: #A80036; stroke-width: 1.0;"/><path d="M229.7188,29.6406 Q229.1406,29.9375 228.5,30.0859 Q227.8594,30.2344 227.1563,30.2344 Q224.6563,30.2344 223.3359,28.5859 Q222.0156,26.9375 222.0156,23.8125 Q222.0156,20.6875 223.3359,19.0313 Q224.6563,17.375 227.1563,17.375 Q227.8594,17.375 228.5078,17.5313 Q229.1563,17.6875 229.7188,17.9844 L229.7188,20.7031 Q229.0938,20.125 228.5,19.8516 Q227.9063,19.5781 227.2813,19.5781 Q225.9375,19.5781 225.25,20.6484 Q224.5625,21.7188 224.5625,23.8125 Q224.5625,25.9063 225.25,26.9766 Q225.9375,28.0469 227.2813,28.0469 Q227.9063,28.0469 228.5,27.7734 Q229.0938,27.5 229.7188,26.9219 L229.7188,29.6406 Z "/><text fill="#000000" font-family="sans-serif" font-size="12" lengthAdjust="spacingAndGlyphs" textLength="85" x="247.25" y="28.1543">AssetRegistry</text><line style="stroke: #A80036; stroke-width: 1.5;" x1="7" x2="540" y1="40" y2="40"/><line style="stroke: #A80036; stroke-width: 1.5;" x1="7" x2="540" y1="48" y2="48"/><ellipse cx="17" cy="59.9023" fill="#84BE84" rx="3" ry="3" style="stroke: #038048; stroke-width: 1.0;"/><text fill="#000000" font-family="sans-serif" font-size="11" lengthAdjust="spacingAndGlyphs" textLength="456" x="26" y="62.2104">Promise getAllAssetRegistries(SecurityContext,ModelManager,Factory,Serializer)</text><ellipse cx="17" cy="72.707" fill="#84BE84" rx="3" ry="3" style="stroke: #038048; stroke-width: 1.0;"/><text fill="#000000" font-family="sans-serif" font-size="11" lengthAdjust="spacingAndGlyphs" textLength="469" x="26" y="75.0151">Promise getAssetRegistry(SecurityContext,string,ModelManager,Factory,Serializer)</text><ellipse cx="17" cy="85.5117" fill="#84BE84" rx="3" ry="3" style="stroke: #038048; stroke-width: 1.0;"/><text fill="#000000" font-family="sans-serif" font-size="11" lengthAdjust="spacingAndGlyphs" textLength="485" x="26" y="87.8198">Promise existsAssetRegistry(SecurityContext,string,ModelManager,Factory,Serializer)</text><ellipse cx="17" cy="98.3164" fill="#84BE84" rx="3" ry="3" style="stroke: #038048; stroke-width: 1.0;"/><text fill="#000000" font-family="sans-serif" font-size="11" lengthAdjust="spacingAndGlyphs" textLength="509" x="26" y="100.6245">Promise addAssetRegistry(SecurityContext,string,string,ModelManager,Factory,Serializer)</text><ellipse cx="17" cy="111.1211" fill="#84BE84" rx="3" ry="3" style="stroke: #038048; stroke-width: 1.0;"/><text fill="#000000" font-family="sans-serif" font-size="11" lengthAdjust="spacingAndGlyphs" textLength="451" x="26" y="113.4292">void constructor(string,string,SecurityContext,ModelManager,Factory,Serializer)</text><!--class Registry--><rect fill="#FEFECE" filter="url(#fi4m8sz)" height="48" style="stroke: #A80036; stroke-width: 1.5;" width="82" x="232.5" y="180"/><ellipse cx="247.5" cy="196" fill="#ADD1B2" rx="11" ry="11" style="stroke: #A80036; stroke-width: 1.0;"/><path d="M250.4688,201.6406 Q249.8906,201.9375 249.25,202.0859 Q248.6094,202.2344 247.9063,202.2344 Q245.4063,202.2344 244.0859,200.5859 Q242.7656,198.9375 242.7656,195.8125 Q242.7656,192.6875 244.0859,191.0313 Q245.4063,189.375 247.9063,189.375 Q248.6094,189.375 249.2578,189.5313 Q249.9063,189.6875 250.4688,189.9844 L250.4688,192.7031 Q249.8438,192.125 249.25,191.8516 Q248.6563,191.5781 248.0313,191.5781 Q246.6875,191.5781 246,192.6484 Q245.3125,193.7188 245.3125,195.8125 Q245.3125,197.9063 246,198.9766 Q246.6875,200.0469 248.0313,200.0469 Q248.6563,200.0469 249.25,199.7734 Q249.8438,199.5 250.4688,198.9219 L250.4688,201.6406 Z "/><text fill="#000000" font-family="sans-serif" font-size="12" lengthAdjust="spacingAndGlyphs" textLength="50" x="261.5" y="200.1543">Registry</text><line style="stroke: #A80036; stroke-width: 1.5;" x1="233.5" x2="313.5" y1="212" y2="212"/><line style="stroke: #A80036; stroke-width: 1.5;" x1="233.5" x2="313.5" y1="220" y2="220"/><path d="M273.5,120.335 C273.5,133.4314 273.5,147.2124 273.5,159.6867 " fill="none" style="stroke: #A80036; stroke-width: 1.0;"/><polygon fill="none" points="280.5,159.6927,273.5,179.6926,266.5,159.6926,280.5,159.6927" style="stroke: #A80036; stroke-width: 1.0;"/></g></svg>