<?xml version="1.0" encoding="UTF-8" standalone="no"?><svg xmlns="http://www.w3.org/2000/svg" xmlns:xlink="http://www.w3.org/1999/xlink" contentScriptType="application/ecmascript" contentStyleType="text/css" height="467px" preserveAspectRatio="none" style="width:550px;height:467px;" version="1.1" viewBox="0 0 550 467" width="550px" zoomAndPan="magnify"><defs><filter height="300%" id="fo7cf5a" width="300%" x="-1" y="-1"><feGaussianBlur result="blurOut" stdDeviation="2.0"/><feColorMatrix in="blurOut" result="blurOut2" type="matrix" values="0 0 0 0 0 0 0 0 0 0 0 0 0 0 0 0 0 0 .4 0"/><feOffset dx="4.0" dy="4.0" in="blurOut2" result="blurOut3"/><feBlend in="SourceGraphic" in2="blurOut3" mode="normal"/></filter></defs><g><!--class Registry--><rect fill="#FEFECE" filter="url(#fo7cf5a)" height="278.4844" style="stroke: #A80036; stroke-width: 1.5;" width="514" x="16.5" y="180"/><ellipse cx="244.25" cy="196" fill="#ADD1B2" rx="11" ry="11" style="stroke: #A80036; stroke-width: 1.0;"/><path d="M247.2188,201.6406 Q246.6406,201.9375 246,202.0859 Q245.3594,202.2344 244.6563,202.2344 Q242.1563,202.2344 240.8359,200.5859 Q239.5156,198.9375 239.5156,195.8125 Q239.5156,192.6875 240.8359,191.0313 Q242.1563,189.375 244.6563,189.375 Q245.3594,189.375 246.0078,189.5313 Q246.6563,189.6875 247.2188,189.9844 L247.2188,192.7031 Q246.5938,192.125 246,191.8516 Q245.4063,191.5781 244.7813,191.5781 Q243.4375,191.5781 242.75,192.6484 Q242.0625,193.7188 242.0625,195.8125 Q242.0625,197.9063 242.75,198.9766 Q243.4375,200.0469 244.7813,200.0469 Q245.4063,200.0469 246,199.7734 Q246.5938,199.5 247.2188,198.9219 L247.2188,201.6406 Z "/><text fill="#000000" font-family="sans-serif" font-size="12" lengthAdjust="spacingAndGlyphs" textLength="50" x="264.75" y="200.1543">Registry</text><line style="stroke: #A80036; stroke-width: 1.5;" x1="17.5" x2="529.5" y1="212" y2="212"/><line style="stroke: #A80036; stroke-width: 1.5;" x1="17.5" x2="529.5" y1="220" y2="220"/><ellipse cx="27.5" cy="231.9023" fill="#84BE84" rx="3" ry="3" style="stroke: #038048; stroke-width: 1.0;"/><text fill="#000000" font-family="sans-serif" font-size="11" lengthAdjust="spacingAndGlyphs" textLength="273" x="36.5" y="234.2104">Promise getAllRegistries(SecurityContext,string)</text><ellipse cx="27.5" cy="244.707" fill="#84BE84" rx="3" ry="3" style="stroke: #038048; stroke-width: 1.0;"/><text fill="#000000" font-family="sans-serif" font-size="11" lengthAdjust="spacingAndGlyphs" textLength="286" x="36.5" y="247.0151">Promise getRegistry(SecurityContext,string,string)</text><ellipse cx="27.5" cy="257.5117" fill="#84BE84" rx="3" ry="3" style="stroke: #038048; stroke-width: 1.0;"/><text fill="#000000" font-family="sans-serif" font-size="11" lengthAdjust="spacingAndGlyphs" textLength="302" x="36.5" y="259.8198">Promise existsRegistry(SecurityContext,string,string)</text><ellipse cx="27.5" cy="270.3164" fill="#84BE84" rx="3" ry="3" style="stroke: #038048; stroke-width: 1.0;"/><text fill="#000000" font-family="sans-serif" font-size="11" lengthAdjust="spacingAndGlyphs" textLength="326" x="36.5" y="272.6245">Promise addRegistry(SecurityContext,string,string,string)</text><ellipse cx="27.5" cy="283.1211" fill="#84BE84" rx="3" ry="3" style="stroke: #038048; stroke-width: 1.0;"/><text fill="#000000" font-family="sans-serif" font-size="11" lengthAdjust="spacingAndGlyphs" textLength="488" x="36.5" y="285.4292">void constructor(string,string,string,SecurityContext,ModelManager,Factory,Serializer)</text><ellipse cx="27.5" cy="295.9258" fill="#84BE84" rx="3" ry="3" style="stroke: #038048; stroke-width: 1.0;"/><text fill="#000000" font-family="sans-serif" font-size="11" lengthAdjust="spacingAndGlyphs" textLength="154" x="36.5" y="298.2339">Promise addAll(Resource[])</text><ellipse cx="27.5" cy="308.7305" fill="#84BE84" rx="3" ry="3" style="stroke: #038048; stroke-width: 1.0;"/><text fill="#000000" font-family="sans-serif" font-size="11" lengthAdjust="spacingAndGlyphs" textLength="133" x="36.5" y="311.0386">Promise add(Resource)</text><ellipse cx="27.5" cy="321.5352" fill="#84BE84" rx="3" ry="3" style="stroke: #038048; stroke-width: 1.0;"/><text fill="#000000" font-family="sans-serif" font-size="11" lengthAdjust="spacingAndGlyphs" textLength="172" x="36.5" y="323.8433">Promise updateAll(Resource[])</text><ellipse cx="27.5" cy="334.3398" fill="#84BE84" rx="3" ry="3" style="stroke: #038048; stroke-width: 1.0;"/><text fill="#000000" font-family="sans-serif" font-size="11" lengthAdjust="spacingAndGlyphs" textLength="151" x="36.5" y="336.6479">Promise update(Resource)</text><ellipse cx="27.5" cy="347.1445" fill="#84BE84" rx="3" ry="3" style="stroke: #038048; stroke-width: 1.0;"/><text fill="#000000" font-family="sans-serif" font-size="11" lengthAdjust="spacingAndGlyphs" textLength="115" x="36.5" y="349.4526">Promise removeAll()</text><ellipse cx="27.5" cy="359.9492" fill="#84BE84" rx="3" ry="3" style="stroke: #038048; stroke-width: 1.0;"/><text fill="#000000" font-family="sans-serif" font-size="11" lengthAdjust="spacingAndGlyphs" textLength="102" x="36.5" y="362.2573">Promise remove()</text><ellipse cx="27.5" cy="372.7539" fill="#84BE84" rx="3" ry="3" style="stroke: #038048; stroke-width: 1.0;"/><text fill="#000000" font-family="sans-serif" font-size="11" lengthAdjust="spacingAndGlyphs" textLength="90" x="36.5" y="375.062">Promise getAll()</text><ellipse cx="27.5" cy="385.5586" fill="#84BE84" rx="3" ry="3" style="stroke: #038048; stroke-width: 1.0;"/><text fill="#000000" font-family="sans-serif" font-size="11" lengthAdjust="spacingAndGlyphs" textLength="110" x="36.5" y="387.8667">Promise get(string)</text><ellipse cx="27.5" cy="398.3633" fill="#84BE84" rx="3" ry="3" style="stroke: #038048; stroke-width: 1.0;"/><text fill="#000000" font-family="sans-serif" font-size="11" lengthAdjust="spacingAndGlyphs" textLength="126" x="36.5" y="400.6714">Promise exists(string)</text><ellipse cx="27.5" cy="411.168" fill="#84BE84" rx="3" ry="3" style="stroke: #038048; stroke-width: 1.0;"/><text fill="#000000" font-family="sans-serif" font-size="11" lengthAdjust="spacingAndGlyphs" textLength="113" x="36.5" y="413.4761">Promise find(string)</text><ellipse cx="27.5" cy="423.9727" fill="#84BE84" rx="3" ry="3" style="stroke: #038048; stroke-width: 1.0;"/><text fill="#000000" font-family="sans-serif" font-size="11" lengthAdjust="spacingAndGlyphs" textLength="124" x="36.5" y="426.2808">Promise query(string)</text><ellipse cx="27.5" cy="436.7773" fill="#84BE84" rx="3" ry="3" style="stroke: #038048; stroke-width: 1.0;"/><text fill="#000000" font-family="sans-serif" font-size="11" lengthAdjust="spacingAndGlyphs" textLength="114" x="36.5" y="439.0854">Promise resolveAll()</text><ellipse cx="27.5" cy="449.582" fill="#84BE84" rx="3" ry="3" style="stroke: #038048; stroke-width: 1.0;"/><text fill="#000000" font-family="sans-serif" font-size="11" lengthAdjust="spacingAndGlyphs" textLength="134" x="36.5" y="451.8901">Promise resolve(string)</text><!--class AssetRegistry--><rect fill="#FEFECE" filter="url(#fo7cf5a)" height="112.0234" style="stroke: #A80036; stroke-width: 1.5;" width="535" x="6" y="8"/><ellipse cx="226.75" cy="24" fill="#ADD1B2" rx="11" ry="11" style="stroke: #A80036; stroke-width: 1.0;"/><path d="M229.7188,29.6406 Q229.1406,29.9375 228.5,30.0859 Q227.8594,30.2344 227.1563,30.2344 Q224.6563,30.2344 223.3359,28.5859 Q222.0156,26.9375 222.0156,23.8125 Q222.0156,20.6875 223.3359,19.0313 Q224.6563,17.375 227.1563,17.375 Q227.8594,17.375 228.5078,17.5313 Q229.1563,17.6875 229.7188,17.9844 L229.7188,20.7031 Q229.0938,20.125 228.5,19.8516 Q227.9063,19.5781 227.2813,19.5781 Q225.9375,19.5781 225.25,20.6484 Q224.5625,21.7188 224.5625,23.8125 Q224.5625,25.9063 225.25,26.9766 Q225.9375,28.0469 227.2813,28.0469 Q227.9063,28.0469 228.5,27.7734 Q229.0938,27.5 229.7188,26.9219 L229.7188,29.6406 Z "/><text fill="#000000" font-family="sans-serif" font-size="12" lengthAdjust="spacingAndGlyphs" textLength="85" x="247.25" y="28.1543">AssetRegistry</text><line style="stroke: #A80036; stroke-width: 1.5;" x1="7" x2="540" y1="40" y2="40"/><line style="stroke: #A80036; stroke-width: 1.5;" x1="7" x2="540" y1="48" y2="48"/><ellipse cx="17" cy="59.9023" fill="#84BE84" rx="3" ry="3" style="stroke: #038048; stroke-width: 1.0;"/><text fill="#000000" font-family="sans-serif" font-size="11" lengthAdjust="spacingAndGlyphs" textLength="456" x="26" y="62.2104">Promise getAllAssetRegistries(SecurityContext,ModelManager,Factory,Serializer)</text><ellipse cx="17" cy="72.707" fill="#84BE84" rx="3" ry="3" style="stroke: #038048; stroke-width: 1.0;"/><text fill="#000000" font-family="sans-serif" font-size="11" lengthAdjust="spacingAndGlyphs" textLength="469" x="26" y="75.0151">Promise getAssetRegistry(SecurityContext,string,ModelManager,Factory,Serializer)</text><ellipse cx="17" cy="85.5117" fill="#84BE84" rx="3" ry="3" style="stroke: #038048; stroke-width: 1.0;"/><text fill="#000000" font-family="sans-serif" font-size="11" lengthAdjust="spacingAndGlyphs" textLength="485" x="26" y="87.8198">Promise existsAssetRegistry(SecurityContext,string,ModelManager,Factory,Serializer)</text><ellipse cx="17" cy="98.3164" fill="#84BE84" rx="3" ry="3" style="stroke: #038048; stroke-width: 1.0;"/><text fill="#000000" font-family="sans-serif" font-size="11" lengthAdjust="spacingAndGlyphs" textLength="509" x="26" y="100.6245">Promise addAssetRegistry(SecurityContext,string,string,ModelManager,Factory,Serializer)</text><ellipse cx="17" cy="111.1211" fill="#84BE84" rx="3" ry="3" style="stroke: #038048; stroke-width: 1.0;"/><text fill="#000000" font-family="sans-serif" font-size="11" lengthAdjust="spacingAndGlyphs" textLength="451" x="26" y="113.4292">void constructor(string,string,SecurityContext,ModelManager,Factory,Serializer)</text><path d="M273.5,120.209 C273.5,132.365 273.5,145.824 273.5,159.837 " fill="none" style="stroke: #A80036; stroke-width: 1.0;"/><polygon fill="none" points="280.5,159.939,273.5,179.939,266.5,159.939,280.5,159.939" style="stroke: #A80036; stroke-width: 1.0;"/></g></svg>