<?xml version="1.0" encoding="UTF-8" standalone="no"?><svg xmlns="http://www.w3.org/2000/svg" xmlns:xlink="http://www.w3.org/1999/xlink" contentScriptType="application/ecmascript" contentStyleType="text/css" height="378px" preserveAspectRatio="none" style="width:907px;height:378px;" version="1.1" viewBox="0 0 907 378" width="907px" zoomAndPan="magnify"><defs><filter height="300%" id="fmld50b" width="300%" x="-1" y="-1"><feGaussianBlur result="blurOut" stdDeviation="2.0"/><feColorMatrix in="blurOut" result="blurOut2" type="matrix" values="0 0 0 0 0 0 0 0 0 0 0 0 0 0 0 0 0 0 .4 0"/><feOffset dx="4.0" dy="4.0" in="blurOut2" result="blurOut3"/><feBlend in="SourceGraphic" in2="blurOut3" mode="normal"/></filter></defs><g><!--class AssetRegistry--><rect fill="#FEFECE" filter="url(#fmld50b)" height="112.0234" style="stroke: #A80036; stroke-width: 1.5;" width="535" x="6" y="78.5"/><ellipse cx="226.75" cy="94.5" fill="#ADD1B2" rx="11" ry="11" style="stroke: #A80036; stroke-width: 1.0;"/><path d="M229.7188,100.1406 Q229.1406,100.4375 228.5,100.5859 Q227.8594,100.7344 227.1563,100.7344 Q224.6563,100.7344 223.3359,99.0859 Q222.0156,97.4375 222.0156,94.3125 Q222.0156,91.1875 223.3359,89.5313 Q224.6563,87.875 227.1563,87.875 Q227.8594,87.875 228.5078,88.0313 Q229.1563,88.1875 229.7188,88.4844 L229.7188,91.2031 Q229.0938,90.625 228.5,90.3516 Q227.9063,90.0781 227.2813,90.0781 Q225.9375,90.0781 225.25,91.1484 Q224.5625,92.2188 224.5625,94.3125 Q224.5625,96.4063 225.25,97.4766 Q225.9375,98.5469 227.2813,98.5469 Q227.9063,98.5469 228.5,98.2734 Q229.0938,98 229.7188,97.4219 L229.7188,100.1406 Z "/><text fill="#000000" font-family="sans-serif" font-size="12" lengthAdjust="spacingAndGlyphs" textLength="85" x="247.25" y="98.6543">AssetRegistry</text><line style="stroke: #A80036; stroke-width: 1.5;" x1="7" x2="540" y1="110.5" y2="110.5"/><line style="stroke: #A80036; stroke-width: 1.5;" x1="7" x2="540" y1="118.5" y2="118.5"/><ellipse cx="17" cy="130.4023" fill="#84BE84" rx="3" ry="3" style="stroke: #038048; stroke-width: 1.0;"/><text fill="#000000" font-family="sans-serif" font-size="11" lengthAdjust="spacingAndGlyphs" textLength="456" x="26" y="132.7104">Promise getAllAssetRegistries(SecurityContext,ModelManager,Factory,Serializer)</text><ellipse cx="17" cy="143.207" fill="#84BE84" rx="3" ry="3" style="stroke: #038048; stroke-width: 1.0;"/><text fill="#000000" font-family="sans-serif" font-size="11" lengthAdjust="spacingAndGlyphs" textLength="469" x="26" y="145.5151">Promise getAssetRegistry(SecurityContext,string,ModelManager,Factory,Serializer)</text><ellipse cx="17" cy="156.0117" fill="#84BE84" rx="3" ry="3" style="stroke: #038048; stroke-width: 1.0;"/><text fill="#000000" font-family="sans-serif" font-size="11" lengthAdjust="spacingAndGlyphs" textLength="485" x="26" y="158.3198">Promise existsAssetRegistry(SecurityContext,string,ModelManager,Factory,Serializer)</text><ellipse cx="17" cy="168.8164" fill="#84BE84" rx="3" ry="3" style="stroke: #038048; stroke-width: 1.0;"/><text fill="#000000" font-family="sans-serif" font-size="11" lengthAdjust="spacingAndGlyphs" textLength="509" x="26" y="171.1245">Promise addAssetRegistry(SecurityContext,string,string,ModelManager,Factory,Serializer)</text><ellipse cx="17" cy="181.6211" fill="#84BE84" rx="3" ry="3" style="stroke: #038048; stroke-width: 1.0;"/><text fill="#000000" font-family="sans-serif" font-size="11" lengthAdjust="spacingAndGlyphs" textLength="451" x="26" y="183.9292">void constructor(string,string,SecurityContext,ModelManager,Factory,Serializer)</text><!--class Registry--><rect fill="#FEFECE" filter="url(#fmld50b)" height="48" style="stroke: #A80036; stroke-width: 1.5;" width="82" x="232.5" y="321"/><ellipse cx="247.5" cy="337" fill="#ADD1B2" rx="11" ry="11" style="stroke: #A80036; stroke-width: 1.0;"/><path d="M250.4688,342.6406 Q249.8906,342.9375 249.25,343.0859 Q248.6094,343.2344 247.9063,343.2344 Q245.4063,343.2344 244.0859,341.5859 Q242.7656,339.9375 242.7656,336.8125 Q242.7656,333.6875 244.0859,332.0313 Q245.4063,330.375 247.9063,330.375 Q248.6094,330.375 249.2578,330.5313 Q249.9063,330.6875 250.4688,330.9844 L250.4688,333.7031 Q249.8438,333.125 249.25,332.8516 Q248.6563,332.5781 248.0313,332.5781 Q246.6875,332.5781 246,333.6484 Q245.3125,334.7188 245.3125,336.8125 Q245.3125,338.9063 246,339.9766 Q246.6875,341.0469 248.0313,341.0469 Q248.6563,341.0469 249.25,340.7734 Q249.8438,340.5 250.4688,339.9219 L250.4688,342.6406 Z "/><text fill="#000000" font-family="sans-serif" font-size="12" lengthAdjust="spacingAndGlyphs" textLength="50" x="261.5" y="341.1543">Registry</text><line style="stroke: #A80036; stroke-width: 1.5;" x1="233.5" x2="313.5" y1="353" y2="353"/><line style="stroke: #A80036; stroke-width: 1.5;" x1="233.5" x2="313.5" y1="361" y2="361"/><!--class BusinessNetworkConnection--><rect fill="#FEFECE" filter="url(#fmld50b)" height="252.875" style="stroke: #A80036; stroke-width: 1.5;" width="322" x="576.5" y="8"/><ellipse cx="644.25" cy="24" fill="#ADD1B2" rx="11" ry="11" style="stroke: #A80036; stroke-width: 1.0;"/><path d="M647.2188,29.6406 Q646.6406,29.9375 646,30.0859 Q645.3594,30.2344 644.6563,30.2344 Q642.1563,30.2344 640.8359,28.5859 Q639.5156,26.9375 639.5156,23.8125 Q639.5156,20.6875 640.8359,19.0313 Q642.1563,17.375 644.6563,17.375 Q645.3594,17.375 646.0078,17.5313 Q646.6563,17.6875 647.2188,17.9844 L647.2188,20.7031 Q646.5938,20.125 646,19.8516 Q645.4063,19.5781 644.7813,19.5781 Q643.4375,19.5781 642.75,20.6484 Q642.0625,21.7188 642.0625,23.8125 Q642.0625,25.9063 642.75,26.9766 Q643.4375,28.0469 644.7813,28.0469 Q645.4063,28.0469 646,27.7734 Q646.5938,27.5 647.2188,26.9219 L647.2188,29.6406 Z "/><text fill="#000000" font-family="sans-serif" font-size="12" lengthAdjust="spacingAndGlyphs" textLength="178" x="664.75" y="28.1543">BusinessNetworkConnection</text><line style="stroke: #A80036; stroke-width: 1.5;" x1="577.5" x2="897.5" y1="40" y2="40"/><line style="stroke: #A80036; stroke-width: 1.5;" x1="577.5" x2="897.5" y1="48" y2="48"/><ellipse cx="587.5" cy="59.9023" fill="#84BE84" rx="3" ry="3" style="stroke: #038048; stroke-width: 1.0;"/><text fill="#000000" font-family="sans-serif" font-size="11" lengthAdjust="spacingAndGlyphs" textLength="225" x="596.5" y="62.2104">void constructor(Object,Object,boolean)</text><ellipse cx="587.5" cy="72.707" fill="#84BE84" rx="3" ry="3" style="stroke: #038048; stroke-width: 1.0;"/><text fill="#000000" font-family="sans-serif" font-size="11" lengthAdjust="spacingAndGlyphs" textLength="281" x="596.5" y="75.0151">BusinessNetworkDefinition getBusinessNetwork()</text><ellipse cx="587.5" cy="85.5117" fill="#84BE84" rx="3" ry="3" style="stroke: #038048; stroke-width: 1.0;"/><text fill="#000000" font-family="sans-serif" font-size="11" lengthAdjust="spacingAndGlyphs" textLength="268" x="596.5" y="87.8198">Promise getAllAssetRegistries(SecurityContext)</text><ellipse cx="587.5" cy="98.3164" fill="#84BE84" rx="3" ry="3" style="stroke: #038048; stroke-width: 1.0;"/><text fill="#000000" font-family="sans-serif" font-size="11" lengthAdjust="spacingAndGlyphs" textLength="188" x="596.5" y="100.6245">Promise getAssetRegistry(string)</text><ellipse cx="587.5" cy="111.1211" fill="#84BE84" rx="3" ry="3" style="stroke: #038048; stroke-width: 1.0;"/><text fill="#000000" font-family="sans-serif" font-size="11" lengthAdjust="spacingAndGlyphs" textLength="204" x="596.5" y="113.4292">Promise existsAssetRegistry(string)</text><ellipse cx="587.5" cy="123.9258" fill="#84BE84" rx="3" ry="3" style="stroke: #038048; stroke-width: 1.0;"/><text fill="#000000" font-family="sans-serif" font-size="11" lengthAdjust="spacingAndGlyphs" textLength="228" x="596.5" y="126.2339">Promise addAssetRegistry(string,string)</text><ellipse cx="587.5" cy="136.7305" fill="#84BE84" rx="3" ry="3" style="stroke: #038048; stroke-width: 1.0;"/><text fill="#000000" font-family="sans-serif" font-size="11" lengthAdjust="spacingAndGlyphs" textLength="296" x="596.5" y="139.0386">Promise getAllParticipantRegistries(SecurityContext)</text><ellipse cx="587.5" cy="149.5352" fill="#84BE84" rx="3" ry="3" style="stroke: #038048; stroke-width: 1.0;"/><text fill="#000000" font-family="sans-serif" font-size="11" lengthAdjust="spacingAndGlyphs" textLength="216" x="596.5" y="151.8433">Promise getParticipantRegistry(string)</text><ellipse cx="587.5" cy="162.3398" fill="#84BE84" rx="3" ry="3" style="stroke: #038048; stroke-width: 1.0;"/><text fill="#000000" font-family="sans-serif" font-size="11" lengthAdjust="spacingAndGlyphs" textLength="256" x="596.5" y="164.6479">Promise addParticipantRegistry(string,string)</text><ellipse cx="587.5" cy="175.1445" fill="#84BE84" rx="3" ry="3" style="stroke: #038048; stroke-width: 1.0;"/><text fill="#000000" font-family="sans-serif" font-size="11" lengthAdjust="spacingAndGlyphs" textLength="190" x="596.5" y="177.4526">Promise getTransactionRegistry()</text><ellipse cx="587.5" cy="187.9492" fill="#84BE84" rx="3" ry="3" style="stroke: #038048; stroke-width: 1.0;"/><text fill="#000000" font-family="sans-serif" font-size="11" lengthAdjust="spacingAndGlyphs" textLength="247" x="596.5" y="190.2573">Promise connect(string,string,string,string)</text><ellipse cx="587.5" cy="200.7539" fill="#84BE84" rx="3" ry="3" style="stroke: #038048; stroke-width: 1.0;"/><text fill="#000000" font-family="sans-serif" font-size="11" lengthAdjust="spacingAndGlyphs" textLength="120" x="596.5" y="203.062">Promise disconnect()</text><ellipse cx="587.5" cy="213.5586" fill="#84BE84" rx="3" ry="3" style="stroke: #038048; stroke-width: 1.0;"/><text fill="#000000" font-family="sans-serif" font-size="11" lengthAdjust="spacingAndGlyphs" textLength="218" x="596.5" y="215.8667">Promise submitTransaction(Resource)</text><ellipse cx="587.5" cy="226.3633" fill="#84BE84" rx="3" ry="3" style="stroke: #038048; stroke-width: 1.0;"/><text fill="#000000" font-family="sans-serif" font-size="11" lengthAdjust="spacingAndGlyphs" textLength="83" x="596.5" y="228.6714">Promise ping()</text><ellipse cx="587.5" cy="239.168" fill="#84BE84" rx="3" ry="3" style="stroke: #038048; stroke-width: 1.0;"/><text fill="#000000" font-family="sans-serif" font-size="11" lengthAdjust="spacingAndGlyphs" textLength="251" x="596.5" y="241.4761">Promise issueIdentity(string,object,boolean)</text><ellipse cx="587.5" cy="251.9727" fill="#84BE84" rx="3" ry="3" style="stroke: #038048; stroke-width: 1.0;"/><text fill="#000000" font-family="sans-serif" font-size="11" lengthAdjust="spacingAndGlyphs" textLength="171" x="596.5" y="254.2808">Promise revokeIdentity(string)</text><!--class EventEmitter--><rect fill="#FEFECE" filter="url(#fmld50b)" height="48" style="stroke: #A80036; stroke-width: 1.5;" width="112" x="681.5" y="321"/><ellipse cx="696.5" cy="337" fill="#ADD1B2" rx="11" ry="11" style="stroke: #A80036; stroke-width: 1.0;"/><path d="M699.4688,342.6406 Q698.8906,342.9375 698.25,343.0859 Q697.6094,343.2344 696.9063,343.2344 Q694.4063,343.2344 693.0859,341.5859 Q691.7656,339.9375 691.7656,336.8125 Q691.7656,333.6875 693.0859,332.0313 Q694.4063,330.375 696.9063,330.375 Q697.6094,330.375 698.2578,330.5313 Q698.9063,330.6875 699.4688,330.9844 L699.4688,333.7031 Q698.8438,333.125 698.25,332.8516 Q697.6563,332.5781 697.0313,332.5781 Q695.6875,332.5781 695,333.6484 Q694.3125,334.7188 694.3125,336.8125 Q694.3125,338.9063 695,339.9766 Q695.6875,341.0469 697.0313,341.0469 Q697.6563,341.0469 698.25,340.7734 Q698.8438,340.5 699.4688,339.9219 L699.4688,342.6406 Z "/><text fill="#000000" font-family="sans-serif" font-size="12" lengthAdjust="spacingAndGlyphs" textLength="80" x="710.5" y="341.1543">EventEmitter</text><line style="stroke: #A80036; stroke-width: 1.5;" x1="682.5" x2="792.5" y1="353" y2="353"/><line style="stroke: #A80036; stroke-width: 1.5;" x1="682.5" x2="792.5" y1="361" y2="361"/><path d="M273.5,190.554 C273.5,224.893 273.5,268.474 273.5,300.4088 " fill="none" style="stroke: #A80036; stroke-width: 1.0;"/><polygon fill="none" points="280.5,300.8526,273.5,320.8526,266.5,300.8526,280.5,300.8526" style="stroke: #A80036; stroke-width: 1.0;"/><path d="M737.5,261.296 C737.5,275.415 737.5,288.9829 737.5,300.9013 " fill="none" style="stroke: #A80036; stroke-width: 1.0;"/><polygon fill="none" points="744.5,300.913,737.5,320.9129,730.5,300.9129,744.5,300.913" style="stroke: #A80036; stroke-width: 1.0;"/></g></svg>