<?xml version="1.0" encoding="UTF-8" standalone="no"?><svg xmlns="http://www.w3.org/2000/svg" xmlns:xlink="http://www.w3.org/1999/xlink" contentScriptType="application/ecmascript" contentStyleType="text/css" height="608px" preserveAspectRatio="none" style="width:2110px;height:608px;" version="1.1" viewBox="0 0 2110 608" width="2110px" zoomAndPan="magnify"><defs><filter height="300%" id="fwx7wkd" width="300%" x="-1" y="-1"><feGaussianBlur result="blurOut" stdDeviation="2.0"/><feColorMatrix in="blurOut" result="blurOut2" type="matrix" values="0 0 0 0 0 0 0 0 0 0 0 0 0 0 0 0 0 0 .4 0"/><feOffset dx="4.0" dy="4.0" in="blurOut2" result="blurOut3"/><feBlend in="SourceGraphic" in2="blurOut3" mode="normal"/></filter></defs><g><!--class Registry--><rect fill="#FEFECE" filter="url(#fwx7wkd)" height="278.4844" style="stroke: #A80036; stroke-width: 1.5;" width="514" x="600.5" y="321"/><ellipse cx="828.25" cy="337" fill="#ADD1B2" rx="11" ry="11" style="stroke: #A80036; stroke-width: 1.0;"/><path d="M831.2188,342.6406 Q830.6406,342.9375 830,343.0859 Q829.3594,343.2344 828.6563,343.2344 Q826.1563,343.2344 824.8359,341.5859 Q823.5156,339.9375 823.5156,336.8125 Q823.5156,333.6875 824.8359,332.0313 Q826.1563,330.375 828.6563,330.375 Q829.3594,330.375 830.0078,330.5313 Q830.6563,330.6875 831.2188,330.9844 L831.2188,333.7031 Q830.5938,333.125 830,332.8516 Q829.4063,332.5781 828.7813,332.5781 Q827.4375,332.5781 826.75,333.6484 Q826.0625,334.7188 826.0625,336.8125 Q826.0625,338.9063 826.75,339.9766 Q827.4375,341.0469 828.7813,341.0469 Q829.4063,341.0469 830,340.7734 Q830.5938,340.5 831.2188,339.9219 L831.2188,342.6406 Z "/><text fill="#000000" font-family="sans-serif" font-size="12" lengthAdjust="spacingAndGlyphs" textLength="50" x="848.75" y="341.1543">Registry</text><line style="stroke: #A80036; stroke-width: 1.5;" x1="601.5" x2="1113.5" y1="353" y2="353"/><line style="stroke: #A80036; stroke-width: 1.5;" x1="601.5" x2="1113.5" y1="361" y2="361"/><ellipse cx="611.5" cy="372.9023" fill="#84BE84" rx="3" ry="3" style="stroke: #038048; stroke-width: 1.0;"/><text fill="#000000" font-family="sans-serif" font-size="11" lengthAdjust="spacingAndGlyphs" textLength="273" x="620.5" y="375.2104">Promise getAllRegistries(SecurityContext,string)</text><ellipse cx="611.5" cy="385.707" fill="#84BE84" rx="3" ry="3" style="stroke: #038048; stroke-width: 1.0;"/><text fill="#000000" font-family="sans-serif" font-size="11" lengthAdjust="spacingAndGlyphs" textLength="286" x="620.5" y="388.0151">Promise getRegistry(SecurityContext,string,string)</text><ellipse cx="611.5" cy="398.5117" fill="#84BE84" rx="3" ry="3" style="stroke: #038048; stroke-width: 1.0;"/><text fill="#000000" font-family="sans-serif" font-size="11" lengthAdjust="spacingAndGlyphs" textLength="302" x="620.5" y="400.8198">Promise existsRegistry(SecurityContext,string,string)</text><ellipse cx="611.5" cy="411.3164" fill="#84BE84" rx="3" ry="3" style="stroke: #038048; stroke-width: 1.0;"/><text fill="#000000" font-family="sans-serif" font-size="11" lengthAdjust="spacingAndGlyphs" textLength="326" x="620.5" y="413.6245">Promise addRegistry(SecurityContext,string,string,string)</text><ellipse cx="611.5" cy="424.1211" fill="#84BE84" rx="3" ry="3" style="stroke: #038048; stroke-width: 1.0;"/><text fill="#000000" font-family="sans-serif" font-size="11" lengthAdjust="spacingAndGlyphs" textLength="488" x="620.5" y="426.4292">void constructor(string,string,string,SecurityContext,ModelManager,Factory,Serializer)</text><ellipse cx="611.5" cy="436.9258" fill="#84BE84" rx="3" ry="3" style="stroke: #038048; stroke-width: 1.0;"/><text fill="#000000" font-family="sans-serif" font-size="11" lengthAdjust="spacingAndGlyphs" textLength="154" x="620.5" y="439.2339">Promise addAll(Resource[])</text><ellipse cx="611.5" cy="449.7305" fill="#84BE84" rx="3" ry="3" style="stroke: #038048; stroke-width: 1.0;"/><text fill="#000000" font-family="sans-serif" font-size="11" lengthAdjust="spacingAndGlyphs" textLength="133" x="620.5" y="452.0386">Promise add(Resource)</text><ellipse cx="611.5" cy="462.5352" fill="#84BE84" rx="3" ry="3" style="stroke: #038048; stroke-width: 1.0;"/><text fill="#000000" font-family="sans-serif" font-size="11" lengthAdjust="spacingAndGlyphs" textLength="172" x="620.5" y="464.8433">Promise updateAll(Resource[])</text><ellipse cx="611.5" cy="475.3398" fill="#84BE84" rx="3" ry="3" style="stroke: #038048; stroke-width: 1.0;"/><text fill="#000000" font-family="sans-serif" font-size="11" lengthAdjust="spacingAndGlyphs" textLength="151" x="620.5" y="477.6479">Promise update(Resource)</text><ellipse cx="611.5" cy="488.1445" fill="#84BE84" rx="3" ry="3" style="stroke: #038048; stroke-width: 1.0;"/><text fill="#000000" font-family="sans-serif" font-size="11" lengthAdjust="spacingAndGlyphs" textLength="115" x="620.5" y="490.4526">Promise removeAll()</text><ellipse cx="611.5" cy="500.9492" fill="#84BE84" rx="3" ry="3" style="stroke: #038048; stroke-width: 1.0;"/><text fill="#000000" font-family="sans-serif" font-size="11" lengthAdjust="spacingAndGlyphs" textLength="102" x="620.5" y="503.2573">Promise remove()</text><ellipse cx="611.5" cy="513.7539" fill="#84BE84" rx="3" ry="3" style="stroke: #038048; stroke-width: 1.0;"/><text fill="#000000" font-family="sans-serif" font-size="11" lengthAdjust="spacingAndGlyphs" textLength="90" x="620.5" y="516.062">Promise getAll()</text><ellipse cx="611.5" cy="526.5586" fill="#84BE84" rx="3" ry="3" style="stroke: #038048; stroke-width: 1.0;"/><text fill="#000000" font-family="sans-serif" font-size="11" lengthAdjust="spacingAndGlyphs" textLength="110" x="620.5" y="528.8667">Promise get(string)</text><ellipse cx="611.5" cy="539.3633" fill="#84BE84" rx="3" ry="3" style="stroke: #038048; stroke-width: 1.0;"/><text fill="#000000" font-family="sans-serif" font-size="11" lengthAdjust="spacingAndGlyphs" textLength="126" x="620.5" y="541.6714">Promise exists(string)</text><ellipse cx="611.5" cy="552.168" fill="#84BE84" rx="3" ry="3" style="stroke: #038048; stroke-width: 1.0;"/><text fill="#000000" font-family="sans-serif" font-size="11" lengthAdjust="spacingAndGlyphs" textLength="113" x="620.5" y="554.4761">Promise find(string)</text><ellipse cx="611.5" cy="564.9727" fill="#84BE84" rx="3" ry="3" style="stroke: #038048; stroke-width: 1.0;"/><text fill="#000000" font-family="sans-serif" font-size="11" lengthAdjust="spacingAndGlyphs" textLength="124" x="620.5" y="567.2808">Promise query(string)</text><ellipse cx="611.5" cy="577.7773" fill="#84BE84" rx="3" ry="3" style="stroke: #038048; stroke-width: 1.0;"/><text fill="#000000" font-family="sans-serif" font-size="11" lengthAdjust="spacingAndGlyphs" textLength="114" x="620.5" y="580.0854">Promise resolveAll()</text><ellipse cx="611.5" cy="590.582" fill="#84BE84" rx="3" ry="3" style="stroke: #038048; stroke-width: 1.0;"/><text fill="#000000" font-family="sans-serif" font-size="11" lengthAdjust="spacingAndGlyphs" textLength="134" x="620.5" y="592.8901">Promise resolve(string)</text><!--class AssetRegistry--><rect fill="#FEFECE" filter="url(#fwx7wkd)" height="112.0234" style="stroke: #A80036; stroke-width: 1.5;" width="535" x="6" y="78.5"/><ellipse cx="226.75" cy="94.5" fill="#ADD1B2" rx="11" ry="11" style="stroke: #A80036; stroke-width: 1.0;"/><path d="M229.7188,100.1406 Q229.1406,100.4375 228.5,100.5859 Q227.8594,100.7344 227.1563,100.7344 Q224.6563,100.7344 223.3359,99.0859 Q222.0156,97.4375 222.0156,94.3125 Q222.0156,91.1875 223.3359,89.5313 Q224.6563,87.875 227.1563,87.875 Q227.8594,87.875 228.5078,88.0313 Q229.1563,88.1875 229.7188,88.4844 L229.7188,91.2031 Q229.0938,90.625 228.5,90.3516 Q227.9063,90.0781 227.2813,90.0781 Q225.9375,90.0781 225.25,91.1484 Q224.5625,92.2188 224.5625,94.3125 Q224.5625,96.4063 225.25,97.4766 Q225.9375,98.5469 227.2813,98.5469 Q227.9063,98.5469 228.5,98.2734 Q229.0938,98 229.7188,97.4219 L229.7188,100.1406 Z "/><text fill="#000000" font-family="sans-serif" font-size="12" lengthAdjust="spacingAndGlyphs" textLength="85" x="247.25" y="98.6543">AssetRegistry</text><line style="stroke: #A80036; stroke-width: 1.5;" x1="7" x2="540" y1="110.5" y2="110.5"/><line style="stroke: #A80036; stroke-width: 1.5;" x1="7" x2="540" y1="118.5" y2="118.5"/><ellipse cx="17" cy="130.4023" fill="#84BE84" rx="3" ry="3" style="stroke: #038048; stroke-width: 1.0;"/><text fill="#000000" font-family="sans-serif" font-size="11" lengthAdjust="spacingAndGlyphs" textLength="456" x="26" y="132.7104">Promise getAllAssetRegistries(SecurityContext,ModelManager,Factory,Serializer)</text><ellipse cx="17" cy="143.207" fill="#84BE84" rx="3" ry="3" style="stroke: #038048; stroke-width: 1.0;"/><text fill="#000000" font-family="sans-serif" font-size="11" lengthAdjust="spacingAndGlyphs" textLength="469" x="26" y="145.5151">Promise getAssetRegistry(SecurityContext,string,ModelManager,Factory,Serializer)</text><ellipse cx="17" cy="156.0117" fill="#84BE84" rx="3" ry="3" style="stroke: #038048; stroke-width: 1.0;"/><text fill="#000000" font-family="sans-serif" font-size="11" lengthAdjust="spacingAndGlyphs" textLength="485" x="26" y="158.3198">Promise existsAssetRegistry(SecurityContext,string,ModelManager,Factory,Serializer)</text><ellipse cx="17" cy="168.8164" fill="#84BE84" rx="3" ry="3" style="stroke: #038048; stroke-width: 1.0;"/><text fill="#000000" font-family="sans-serif" font-size="11" lengthAdjust="spacingAndGlyphs" textLength="509" x="26" y="171.1245">Promise addAssetRegistry(SecurityContext,string,string,ModelManager,Factory,Serializer)</text><ellipse cx="17" cy="181.6211" fill="#84BE84" rx="3" ry="3" style="stroke: #038048; stroke-width: 1.0;"/><text fill="#000000" font-family="sans-serif" font-size="11" lengthAdjust="spacingAndGlyphs" textLength="451" x="26" y="183.9292">void constructor(string,string,SecurityContext,ModelManager,Factory,Serializer)</text><!--class ParticipantRegistry--><rect fill="#FEFECE" filter="url(#fwx7wkd)" height="99.2188" style="stroke: #A80036; stroke-width: 1.5;" width="563" x="576" y="85"/><ellipse cx="794.25" cy="101" fill="#ADD1B2" rx="11" ry="11" style="stroke: #A80036; stroke-width: 1.0;"/><path d="M797.2188,106.6406 Q796.6406,106.9375 796,107.0859 Q795.3594,107.2344 794.6563,107.2344 Q792.1563,107.2344 790.8359,105.5859 Q789.5156,103.9375 789.5156,100.8125 Q789.5156,97.6875 790.8359,96.0313 Q792.1563,94.375 794.6563,94.375 Q795.3594,94.375 796.0078,94.5313 Q796.6563,94.6875 797.2188,94.9844 L797.2188,97.7031 Q796.5938,97.125 796,96.8516 Q795.4063,96.5781 794.7813,96.5781 Q793.4375,96.5781 792.75,97.6484 Q792.0625,98.7188 792.0625,100.8125 Q792.0625,102.9063 792.75,103.9766 Q793.4375,105.0469 794.7813,105.0469 Q795.4063,105.0469 796,104.7734 Q796.5938,104.5 797.2188,103.9219 L797.2188,106.6406 Z "/><text fill="#000000" font-family="sans-serif" font-size="12" lengthAdjust="spacingAndGlyphs" textLength="118" x="814.75" y="105.1543">ParticipantRegistry</text><line style="stroke: #A80036; stroke-width: 1.5;" x1="577" x2="1138" y1="117" y2="117"/><line style="stroke: #A80036; stroke-width: 1.5;" x1="577" x2="1138" y1="125" y2="125"/><ellipse cx="587" cy="136.9023" fill="#84BE84" rx="3" ry="3" style="stroke: #038048; stroke-width: 1.0;"/><text fill="#000000" font-family="sans-serif" font-size="11" lengthAdjust="spacingAndGlyphs" textLength="484" x="596" y="139.2104">Promise getAllParticipantRegistries(SecurityContext,ModelManager,Factory,Serializer)</text><ellipse cx="587" cy="149.707" fill="#84BE84" rx="3" ry="3" style="stroke: #038048; stroke-width: 1.0;"/><text fill="#000000" font-family="sans-serif" font-size="11" lengthAdjust="spacingAndGlyphs" textLength="497" x="596" y="152.0151">Promise getParticipantRegistry(SecurityContext,string,ModelManager,Factory,Serializer)</text><ellipse cx="587" cy="162.5117" fill="#84BE84" rx="3" ry="3" style="stroke: #038048; stroke-width: 1.0;"/><text fill="#000000" font-family="sans-serif" font-size="11" lengthAdjust="spacingAndGlyphs" textLength="537" x="596" y="164.8198">Promise addParticipantRegistry(SecurityContext,string,string,ModelManager,Factory,Serializer)</text><ellipse cx="587" cy="175.3164" fill="#84BE84" rx="3" ry="3" style="stroke: #038048; stroke-width: 1.0;"/><text fill="#000000" font-family="sans-serif" font-size="11" lengthAdjust="spacingAndGlyphs" textLength="451" x="596" y="177.6245">void constructor(string,string,SecurityContext,ModelManager,Factory,Serializer)</text><!--class TransactionRegistry--><rect fill="#FEFECE" filter="url(#fwx7wkd)" height="176.0469" style="stroke: #A80036; stroke-width: 1.5;" width="570" x="1174.5" y="46.5"/><ellipse cx="1393.25" cy="62.5" fill="#ADD1B2" rx="11" ry="11" style="stroke: #A80036; stroke-width: 1.0;"/><path d="M1396.2188,68.1406 Q1395.6406,68.4375 1395,68.5859 Q1394.3594,68.7344 1393.6563,68.7344 Q1391.1563,68.7344 1389.8359,67.0859 Q1388.5156,65.4375 1388.5156,62.3125 Q1388.5156,59.1875 1389.8359,57.5313 Q1391.1563,55.875 1393.6563,55.875 Q1394.3594,55.875 1395.0078,56.0313 Q1395.6563,56.1875 1396.2188,56.4844 L1396.2188,59.2031 Q1395.5938,58.625 1395,58.3516 Q1394.4063,58.0781 1393.7813,58.0781 Q1392.4375,58.0781 1391.75,59.1484 Q1391.0625,60.2188 1391.0625,62.3125 Q1391.0625,64.4063 1391.75,65.4766 Q1392.4375,66.5469 1393.7813,66.5469 Q1394.4063,66.5469 1395,66.2734 Q1395.5938,66 1396.2188,65.4219 L1396.2188,68.1406 Z "/><text fill="#000000" font-family="sans-serif" font-size="12" lengthAdjust="spacingAndGlyphs" textLength="124" x="1413.75" y="66.6543">TransactionRegistry</text><line style="stroke: #A80036; stroke-width: 1.5;" x1="1175.5" x2="1743.5" y1="78.5" y2="78.5"/><line style="stroke: #A80036; stroke-width: 1.5;" x1="1175.5" x2="1743.5" y1="86.5" y2="86.5"/><ellipse cx="1185.5" cy="98.4023" fill="#84BE84" rx="3" ry="3" style="stroke: #038048; stroke-width: 1.0;"/><text fill="#000000" font-family="sans-serif" font-size="11" lengthAdjust="spacingAndGlyphs" textLength="491" x="1194.5" y="100.7104">Promise getAllTransactionRegistries(SecurityContext,ModelManager,Factory,Serializer)</text><ellipse cx="1185.5" cy="111.207" fill="#84BE84" rx="3" ry="3" style="stroke: #038048; stroke-width: 1.0;"/><text fill="#000000" font-family="sans-serif" font-size="11" lengthAdjust="spacingAndGlyphs" textLength="504" x="1194.5" y="113.5151">Promise getTransactionRegistry(SecurityContext,string,ModelManager,Factory,Serializer)</text><ellipse cx="1185.5" cy="124.0117" fill="#84BE84" rx="3" ry="3" style="stroke: #038048; stroke-width: 1.0;"/><text fill="#000000" font-family="sans-serif" font-size="11" lengthAdjust="spacingAndGlyphs" textLength="544" x="1194.5" y="126.3198">Promise addTransactionRegistry(SecurityContext,string,string,ModelManager,Factory,Serializer)</text><ellipse cx="1185.5" cy="136.8164" fill="#84BE84" rx="3" ry="3" style="stroke: #038048; stroke-width: 1.0;"/><text fill="#000000" font-family="sans-serif" font-size="11" lengthAdjust="spacingAndGlyphs" textLength="451" x="1194.5" y="139.1245">void constructor(string,string,SecurityContext,ModelManager,Factory,Serializer)</text><ellipse cx="1185.5" cy="149.6211" fill="#84BE84" rx="3" ry="3" style="stroke: #038048; stroke-width: 1.0;"/><text fill="#000000" font-family="sans-serif" font-size="11" lengthAdjust="spacingAndGlyphs" textLength="146" x="1194.5" y="151.9292">void add(Resource,string)</text><ellipse cx="1185.5" cy="162.4258" fill="#84BE84" rx="3" ry="3" style="stroke: #038048; stroke-width: 1.0;"/><text fill="#000000" font-family="sans-serif" font-size="11" lengthAdjust="spacingAndGlyphs" textLength="130" x="1194.5" y="164.7339">void addAll(Resource[])</text><ellipse cx="1185.5" cy="175.2305" fill="#84BE84" rx="3" ry="3" style="stroke: #038048; stroke-width: 1.0;"/><text fill="#000000" font-family="sans-serif" font-size="11" lengthAdjust="spacingAndGlyphs" textLength="127" x="1194.5" y="177.5386">void update(Resource)</text><ellipse cx="1185.5" cy="188.0352" fill="#84BE84" rx="3" ry="3" style="stroke: #038048; stroke-width: 1.0;"/><text fill="#000000" font-family="sans-serif" font-size="11" lengthAdjust="spacingAndGlyphs" textLength="148" x="1194.5" y="190.3433">void updateAll(Resource[])</text><ellipse cx="1185.5" cy="200.8398" fill="#84BE84" rx="3" ry="3" style="stroke: #038048; stroke-width: 1.0;"/><text fill="#000000" font-family="sans-serif" font-size="11" lengthAdjust="spacingAndGlyphs" textLength="78" x="1194.5" y="203.1479">void remove()</text><ellipse cx="1185.5" cy="213.6445" fill="#84BE84" rx="3" ry="3" style="stroke: #038048; stroke-width: 1.0;"/><text fill="#000000" font-family="sans-serif" font-size="11" lengthAdjust="spacingAndGlyphs" textLength="91" x="1194.5" y="215.9526">void removeAll()</text><!--class BusinessNetworkConnection--><rect fill="#FEFECE" filter="url(#fwx7wkd)" height="252.875" style="stroke: #A80036; stroke-width: 1.5;" width="322" x="1779.5" y="8"/><ellipse cx="1847.25" cy="24" fill="#ADD1B2" rx="11" ry="11" style="stroke: #A80036; stroke-width: 1.0;"/><path d="M1850.2188,29.6406 Q1849.6406,29.9375 1849,30.0859 Q1848.3594,30.2344 1847.6563,30.2344 Q1845.1563,30.2344 1843.8359,28.5859 Q1842.5156,26.9375 1842.5156,23.8125 Q1842.5156,20.6875 1843.8359,19.0313 Q1845.1563,17.375 1847.6563,17.375 Q1848.3594,17.375 1849.0078,17.5313 Q1849.6563,17.6875 1850.2188,17.9844 L1850.2188,20.7031 Q1849.5938,20.125 1849,19.8516 Q1848.4063,19.5781 1847.7813,19.5781 Q1846.4375,19.5781 1845.75,20.6484 Q1845.0625,21.7188 1845.0625,23.8125 Q1845.0625,25.9063 1845.75,26.9766 Q1846.4375,28.0469 1847.7813,28.0469 Q1848.4063,28.0469 1849,27.7734 Q1849.5938,27.5 1850.2188,26.9219 L1850.2188,29.6406 Z "/><text fill="#000000" font-family="sans-serif" font-size="12" lengthAdjust="spacingAndGlyphs" textLength="178" x="1867.75" y="28.1543">BusinessNetworkConnection</text><line style="stroke: #A80036; stroke-width: 1.5;" x1="1780.5" x2="2100.5" y1="40" y2="40"/><line style="stroke: #A80036; stroke-width: 1.5;" x1="1780.5" x2="2100.5" y1="48" y2="48"/><ellipse cx="1790.5" cy="59.9023" fill="#84BE84" rx="3" ry="3" style="stroke: #038048; stroke-width: 1.0;"/><text fill="#000000" font-family="sans-serif" font-size="11" lengthAdjust="spacingAndGlyphs" textLength="225" x="1799.5" y="62.2104">void constructor(Object,Object,boolean)</text><ellipse cx="1790.5" cy="72.707" fill="#84BE84" rx="3" ry="3" style="stroke: #038048; stroke-width: 1.0;"/><text fill="#000000" font-family="sans-serif" font-size="11" lengthAdjust="spacingAndGlyphs" textLength="281" x="1799.5" y="75.0151">BusinessNetworkDefinition getBusinessNetwork()</text><ellipse cx="1790.5" cy="85.5117" fill="#84BE84" rx="3" ry="3" style="stroke: #038048; stroke-width: 1.0;"/><text fill="#000000" font-family="sans-serif" font-size="11" lengthAdjust="spacingAndGlyphs" textLength="268" x="1799.5" y="87.8198">Promise getAllAssetRegistries(SecurityContext)</text><ellipse cx="1790.5" cy="98.3164" fill="#84BE84" rx="3" ry="3" style="stroke: #038048; stroke-width: 1.0;"/><text fill="#000000" font-family="sans-serif" font-size="11" lengthAdjust="spacingAndGlyphs" textLength="188" x="1799.5" y="100.6245">Promise getAssetRegistry(string)</text><ellipse cx="1790.5" cy="111.1211" fill="#84BE84" rx="3" ry="3" style="stroke: #038048; stroke-width: 1.0;"/><text fill="#000000" font-family="sans-serif" font-size="11" lengthAdjust="spacingAndGlyphs" textLength="204" x="1799.5" y="113.4292">Promise existsAssetRegistry(string)</text><ellipse cx="1790.5" cy="123.9258" fill="#84BE84" rx="3" ry="3" style="stroke: #038048; stroke-width: 1.0;"/><text fill="#000000" font-family="sans-serif" font-size="11" lengthAdjust="spacingAndGlyphs" textLength="228" x="1799.5" y="126.2339">Promise addAssetRegistry(string,string)</text><ellipse cx="1790.5" cy="136.7305" fill="#84BE84" rx="3" ry="3" style="stroke: #038048; stroke-width: 1.0;"/><text fill="#000000" font-family="sans-serif" font-size="11" lengthAdjust="spacingAndGlyphs" textLength="296" x="1799.5" y="139.0386">Promise getAllParticipantRegistries(SecurityContext)</text><ellipse cx="1790.5" cy="149.5352" fill="#84BE84" rx="3" ry="3" style="stroke: #038048; stroke-width: 1.0;"/><text fill="#000000" font-family="sans-serif" font-size="11" lengthAdjust="spacingAndGlyphs" textLength="216" x="1799.5" y="151.8433">Promise getParticipantRegistry(string)</text><ellipse cx="1790.5" cy="162.3398" fill="#84BE84" rx="3" ry="3" style="stroke: #038048; stroke-width: 1.0;"/><text fill="#000000" font-family="sans-serif" font-size="11" lengthAdjust="spacingAndGlyphs" textLength="256" x="1799.5" y="164.6479">Promise addParticipantRegistry(string,string)</text><ellipse cx="1790.5" cy="175.1445" fill="#84BE84" rx="3" ry="3" style="stroke: #038048; stroke-width: 1.0;"/><text fill="#000000" font-family="sans-serif" font-size="11" lengthAdjust="spacingAndGlyphs" textLength="190" x="1799.5" y="177.4526">Promise getTransactionRegistry()</text><ellipse cx="1790.5" cy="187.9492" fill="#84BE84" rx="3" ry="3" style="stroke: #038048; stroke-width: 1.0;"/><text fill="#000000" font-family="sans-serif" font-size="11" lengthAdjust="spacingAndGlyphs" textLength="247" x="1799.5" y="190.2573">Promise connect(string,string,string,string)</text><ellipse cx="1790.5" cy="200.7539" fill="#84BE84" rx="3" ry="3" style="stroke: #038048; stroke-width: 1.0;"/><text fill="#000000" font-family="sans-serif" font-size="11" lengthAdjust="spacingAndGlyphs" textLength="120" x="1799.5" y="203.062">Promise disconnect()</text><ellipse cx="1790.5" cy="213.5586" fill="#84BE84" rx="3" ry="3" style="stroke: #038048; stroke-width: 1.0;"/><text fill="#000000" font-family="sans-serif" font-size="11" lengthAdjust="spacingAndGlyphs" textLength="218" x="1799.5" y="215.8667">Promise submitTransaction(Resource)</text><ellipse cx="1790.5" cy="226.3633" fill="#84BE84" rx="3" ry="3" style="stroke: #038048; stroke-width: 1.0;"/><text fill="#000000" font-family="sans-serif" font-size="11" lengthAdjust="spacingAndGlyphs" textLength="83" x="1799.5" y="228.6714">Promise ping()</text><ellipse cx="1790.5" cy="239.168" fill="#84BE84" rx="3" ry="3" style="stroke: #038048; stroke-width: 1.0;"/><text fill="#000000" font-family="sans-serif" font-size="11" lengthAdjust="spacingAndGlyphs" textLength="251" x="1799.5" y="241.4761">Promise issueIdentity(string,object,boolean)</text><ellipse cx="1790.5" cy="251.9727" fill="#84BE84" rx="3" ry="3" style="stroke: #038048; stroke-width: 1.0;"/><text fill="#000000" font-family="sans-serif" font-size="11" lengthAdjust="spacingAndGlyphs" textLength="171" x="1799.5" y="254.2808">Promise revokeIdentity(string)</text><!--class EventEmitter--><rect fill="#FEFECE" filter="url(#fwx7wkd)" height="48" style="stroke: #A80036; stroke-width: 1.5;" width="112" x="1884.5" y="436"/><ellipse cx="1899.5" cy="452" fill="#ADD1B2" rx="11" ry="11" style="stroke: #A80036; stroke-width: 1.0;"/><path d="M1902.4688,457.6406 Q1901.8906,457.9375 1901.25,458.0859 Q1900.6094,458.2344 1899.9063,458.2344 Q1897.4063,458.2344 1896.0859,456.5859 Q1894.7656,454.9375 1894.7656,451.8125 Q1894.7656,448.6875 1896.0859,447.0313 Q1897.4063,445.375 1899.9063,445.375 Q1900.6094,445.375 1901.2578,445.5313 Q1901.9063,445.6875 1902.4688,445.9844 L1902.4688,448.7031 Q1901.8438,448.125 1901.25,447.8516 Q1900.6563,447.5781 1900.0313,447.5781 Q1898.6875,447.5781 1898,448.6484 Q1897.3125,449.7188 1897.3125,451.8125 Q1897.3125,453.9063 1898,454.9766 Q1898.6875,456.0469 1900.0313,456.0469 Q1900.6563,456.0469 1901.25,455.7734 Q1901.8438,455.5 1902.4688,454.9219 L1902.4688,457.6406 Z "/><text fill="#000000" font-family="sans-serif" font-size="12" lengthAdjust="spacingAndGlyphs" textLength="80" x="1913.5" y="456.1543">EventEmitter</text><line style="stroke: #A80036; stroke-width: 1.5;" x1="1885.5" x2="1995.5" y1="468" y2="468"/><line style="stroke: #A80036; stroke-width: 1.5;" x1="1885.5" x2="1995.5" y1="476" y2="476"/><path d="M372.898,190.561 C433.137,223.929 513.116,268.233 590.704,311.212 " fill="none" style="stroke: #A80036; stroke-width: 1.0;"/><polygon fill="none" points="594.154,305.12,608.257,320.935,587.37,317.367,594.154,305.12" style="stroke: #A80036; stroke-width: 1.0;"/><path d="M857.5,184.281 C857.5,215.671 857.5,258.398 857.5,300.799 " fill="none" style="stroke: #A80036; stroke-width: 1.0;"/><polygon fill="none" points="864.5,300.874,857.5,320.874,850.5,300.874,864.5,300.874" style="stroke: #A80036; stroke-width: 1.0;"/><path d="M1297.38,222.618 C1246.44,249.991 1188.71,281.016 1132.22,311.373 " fill="none" style="stroke: #A80036; stroke-width: 1.0;"/><polygon fill="none" points="1135.27,317.682,1114.33,320.983,1128.64,305.35,1135.27,317.682" style="stroke: #A80036; stroke-width: 1.0;"/><path d="M1940.5,261.037 C1940.5,315.629 1940.5,376.023 1940.5,415.576 " fill="none" style="stroke: #A80036; stroke-width: 1.0;"/><polygon fill="none" points="1947.5,415.746,1940.5,435.746,1933.5,415.746,1947.5,415.746" style="stroke: #A80036; stroke-width: 1.0;"/></g></svg>