<?xml version="1.0" encoding="UTF-8" standalone="no"?><svg xmlns="http://www.w3.org/2000/svg" xmlns:xlink="http://www.w3.org/1999/xlink" contentScriptType="application/ecmascript" contentStyleType="text/css" height="275px" preserveAspectRatio="none" style="width:254px;height:275px;" version="1.1" viewBox="0 0 254 275" width="254px" zoomAndPan="magnify"><defs><filter height="300%" id="f1kmrt2" width="300%" x="-1" y="-1"><feGaussianBlur result="blurOut" stdDeviation="2.0"/><feColorMatrix in="blurOut" result="blurOut2" type="matrix" values="0 0 0 0 0 0 0 0 0 0 0 0 0 0 0 0 0 0 .4 0"/><feOffset dx="4.0" dy="4.0" in="blurOut2" result="blurOut3"/><feBlend in="SourceGraphic" in2="blurOut3" mode="normal"/></filter></defs><g><!--class FileWallet--><rect fill="#FEFECE" filter="url(#f1kmrt2)" height="150.4375" style="stroke: #A80036; stroke-width: 1.5;" width="239" x="6" y="8"/><ellipse cx="91.75" cy="24" fill="#ADD1B2" rx="11" ry="11" style="stroke: #A80036; stroke-width: 1.0;"/><path d="M94.7188,29.6406 Q94.1406,29.9375 93.5,30.0859 Q92.8594,30.2344 92.1563,30.2344 Q89.6563,30.2344 88.3359,28.5859 Q87.0156,26.9375 87.0156,23.8125 Q87.0156,20.6875 88.3359,19.0313 Q89.6563,17.375 92.1563,17.375 Q92.8594,17.375 93.5078,17.5313 Q94.1563,17.6875 94.7188,17.9844 L94.7188,20.7031 Q94.0938,20.125 93.5,19.8516 Q92.9063,19.5781 92.2813,19.5781 Q90.9375,19.5781 90.25,20.6484 Q89.5625,21.7188 89.5625,23.8125 Q89.5625,25.9063 90.25,26.9766 Q90.9375,28.0469 92.2813,28.0469 Q92.9063,28.0469 93.5,27.7734 Q94.0938,27.5 94.7188,26.9219 L94.7188,29.6406 Z "/><text fill="#000000" font-family="sans-serif" font-size="12" lengthAdjust="spacingAndGlyphs" textLength="59" x="112.25" y="28.1543">FileWallet</text><line style="stroke: #A80036; stroke-width: 1.5;" x1="7" x2="244" y1="40" y2="40"/><line style="stroke: #A80036; stroke-width: 1.5;" x1="7" x2="244" y1="48" y2="48"/><ellipse cx="17" cy="59.9023" fill="#84BE84" rx="3" ry="3" style="stroke: #038048; stroke-width: 1.0;"/><text fill="#000000" font-family="sans-serif" font-size="11" lengthAdjust="spacingAndGlyphs" textLength="147" x="26" y="62.2104">string getHomeDirectory()</text><ellipse cx="17" cy="72.707" fill="#84BE84" rx="3" ry="3" style="stroke: #038048; stroke-width: 1.0;"/><text fill="#000000" font-family="sans-serif" font-size="11" lengthAdjust="spacingAndGlyphs" textLength="213" x="26" y="75.0151">void constructor(Object,string,Object)</text><ellipse cx="17" cy="85.5117" fill="#84BE84" rx="3" ry="3" style="stroke: #038048; stroke-width: 1.0;"/><text fill="#000000" font-family="sans-serif" font-size="11" lengthAdjust="spacingAndGlyphs" textLength="76" x="26" y="87.8198">Promise list()</text><ellipse cx="17" cy="98.3164" fill="#84BE84" rx="3" ry="3" style="stroke: #038048; stroke-width: 1.0;"/><text fill="#000000" font-family="sans-serif" font-size="11" lengthAdjust="spacingAndGlyphs" textLength="140" x="26" y="100.6245">Promise contains(string)</text><ellipse cx="17" cy="111.1211" fill="#84BE84" rx="3" ry="3" style="stroke: #038048; stroke-width: 1.0;"/><text fill="#000000" font-family="sans-serif" font-size="11" lengthAdjust="spacingAndGlyphs" textLength="110" x="26" y="113.4292">Promise get(string)</text><ellipse cx="17" cy="123.9258" fill="#84BE84" rx="3" ry="3" style="stroke: #038048; stroke-width: 1.0;"/><text fill="#000000" font-family="sans-serif" font-size="11" lengthAdjust="spacingAndGlyphs" textLength="150" x="26" y="126.2339">Promise add(string,string)</text><ellipse cx="17" cy="136.7305" fill="#84BE84" rx="3" ry="3" style="stroke: #038048; stroke-width: 1.0;"/><text fill="#000000" font-family="sans-serif" font-size="11" lengthAdjust="spacingAndGlyphs" textLength="168" x="26" y="139.0386">Promise update(string,string)</text><ellipse cx="17" cy="149.5352" fill="#84BE84" rx="3" ry="3" style="stroke: #038048; stroke-width: 1.0;"/><text fill="#000000" font-family="sans-serif" font-size="11" lengthAdjust="spacingAndGlyphs" textLength="135" x="26" y="151.8433">Promise remove(string)</text><!--class Wallet--><rect fill="#FEFECE" filter="url(#f1kmrt2)" height="48" style="stroke: #A80036; stroke-width: 1.5;" width="70" x="90.5" y="218"/><ellipse cx="105.5" cy="234" fill="#ADD1B2" rx="11" ry="11" style="stroke: #A80036; stroke-width: 1.0;"/><path d="M108.4688,239.6406 Q107.8906,239.9375 107.25,240.0859 Q106.6094,240.2344 105.9063,240.2344 Q103.4063,240.2344 102.0859,238.5859 Q100.7656,236.9375 100.7656,233.8125 Q100.7656,230.6875 102.0859,229.0313 Q103.4063,227.375 105.9063,227.375 Q106.6094,227.375 107.2578,227.5313 Q107.9063,227.6875 108.4688,227.9844 L108.4688,230.7031 Q107.8438,230.125 107.25,229.8516 Q106.6563,229.5781 106.0313,229.5781 Q104.6875,229.5781 104,230.6484 Q103.3125,231.7188 103.3125,233.8125 Q103.3125,235.9063 104,236.9766 Q104.6875,238.0469 106.0313,238.0469 Q106.6563,238.0469 107.25,237.7734 Q107.8438,237.5 108.4688,236.9219 L108.4688,239.6406 Z "/><text fill="#000000" font-family="sans-serif" font-size="12" lengthAdjust="spacingAndGlyphs" textLength="38" x="119.5" y="238.1543">Wallet</text><line style="stroke: #A80036; stroke-width: 1.5;" x1="91.5" x2="159.5" y1="250" y2="250"/><line style="stroke: #A80036; stroke-width: 1.5;" x1="91.5" x2="159.5" y1="258" y2="258"/><path d="M125.5,158.362 C125.5,171.8358 125.5,185.4725 125.5,197.6786 " fill="none" style="stroke: #A80036; stroke-width: 1.0;"/><polygon fill="none" points="132.5,197.7602,125.5,217.7602,118.5,197.7602,132.5,197.7602" style="stroke: #A80036; stroke-width: 1.0;"/></g></svg>