<?xml version="1.0" encoding="UTF-8" standalone="no"?><svg xmlns="http://www.w3.org/2000/svg" xmlns:xlink="http://www.w3.org/1999/xlink" contentScriptType="application/ecmascript" contentStyleType="text/css" height="186px" preserveAspectRatio="none" style="width:181px;height:186px;" version="1.1" viewBox="0 0 181 186" width="181px" zoomAndPan="magnify"><defs><filter height="300%" id="f68b6e3" width="300%" x="-1" y="-1"><feGaussianBlur result="blurOut" stdDeviation="2.0"/><feColorMatrix in="blurOut" result="blurOut2" type="matrix" values="0 0 0 0 0 0 0 0 0 0 0 0 0 0 0 0 0 0 .4 0"/><feOffset dx="4.0" dy="4.0" in="blurOut2" result="blurOut3"/><feBlend in="SourceGraphic" in2="blurOut3" mode="normal"/></filter></defs><g><!--class IllegalModelException--><rect fill="#FEFECE" filter="url(#f68b6e3)" height="60.8047" style="stroke: #A80036; stroke-width: 1.5;" width="166" x="6" y="8"/><ellipse cx="21" cy="24" fill="#ADD1B2" rx="11" ry="11" style="stroke: #A80036; stroke-width: 1.0;"/><path d="M23.9688,29.6406 Q23.3906,29.9375 22.75,30.0859 Q22.1094,30.2344 21.4063,30.2344 Q18.9063,30.2344 17.5859,28.5859 Q16.2656,26.9375 16.2656,23.8125 Q16.2656,20.6875 17.5859,19.0313 Q18.9063,17.375 21.4063,17.375 Q22.1094,17.375 22.7578,17.5313 Q23.4063,17.6875 23.9688,17.9844 L23.9688,20.7031 Q23.3438,20.125 22.75,19.8516 Q22.1563,19.5781 21.5313,19.5781 Q20.1875,19.5781 19.5,20.6484 Q18.8125,21.7188 18.8125,23.8125 Q18.8125,25.9063 19.5,26.9766 Q20.1875,28.0469 21.5313,28.0469 Q22.1563,28.0469 22.75,27.7734 Q23.3438,27.5 23.9688,26.9219 L23.9688,29.6406 Z "/><text fill="#000000" font-family="sans-serif" font-size="12" lengthAdjust="spacingAndGlyphs" textLength="134" x="35" y="28.1543">IllegalModelException</text><line style="stroke: #A80036; stroke-width: 1.5;" x1="7" x2="171" y1="40" y2="40"/><line style="stroke: #A80036; stroke-width: 1.5;" x1="7" x2="171" y1="48" y2="48"/><ellipse cx="17" cy="59.9023" fill="#84BE84" rx="3" ry="3" style="stroke: #038048; stroke-width: 1.0;"/><text fill="#000000" font-family="sans-serif" font-size="11" lengthAdjust="spacingAndGlyphs" textLength="133" x="26" y="62.2104">void constructor(string)</text><!--class BaseException--><rect fill="#FEFECE" filter="url(#f68b6e3)" height="48" style="stroke: #A80036; stroke-width: 1.5;" width="124" x="27" y="129"/><ellipse cx="42" cy="145" fill="#ADD1B2" rx="11" ry="11" style="stroke: #A80036; stroke-width: 1.0;"/><path d="M44.9688,150.6406 Q44.3906,150.9375 43.75,151.0859 Q43.1094,151.2344 42.4063,151.2344 Q39.9063,151.2344 38.5859,149.5859 Q37.2656,147.9375 37.2656,144.8125 Q37.2656,141.6875 38.5859,140.0313 Q39.9063,138.375 42.4063,138.375 Q43.1094,138.375 43.7578,138.5313 Q44.4063,138.6875 44.9688,138.9844 L44.9688,141.7031 Q44.3438,141.125 43.75,140.8516 Q43.1563,140.5781 42.5313,140.5781 Q41.1875,140.5781 40.5,141.6484 Q39.8125,142.7188 39.8125,144.8125 Q39.8125,146.9063 40.5,147.9766 Q41.1875,149.0469 42.5313,149.0469 Q43.1563,149.0469 43.75,148.7734 Q44.3438,148.5 44.9688,147.9219 L44.9688,150.6406 Z "/><text fill="#000000" font-family="sans-serif" font-size="12" lengthAdjust="spacingAndGlyphs" textLength="92" x="56" y="149.1543">BaseException</text><line style="stroke: #A80036; stroke-width: 1.5;" x1="28" x2="150" y1="161" y2="161"/><line style="stroke: #A80036; stroke-width: 1.5;" x1="28" x2="150" y1="169" y2="169"/><path d="M89,69.058 C89,81.1313 89,95.3402 89,108.5536 " fill="none" style="stroke: #A80036; stroke-width: 1.0;"/><polygon fill="none" points="96.0001,108.6686,89,128.6686,82.0001,108.6686,96.0001,108.6686" style="stroke: #A80036; stroke-width: 1.0;"/></g></svg>