<?xml version="1.0" encoding="UTF-8" standalone="no"?><svg xmlns="http://www.w3.org/2000/svg" xmlns:xlink="http://www.w3.org/1999/xlink" contentScriptType="application/ecmascript" contentStyleType="text/css" height="103px" preserveAspectRatio="none" style="width:297px;height:103px;" version="1.1" viewBox="0 0 297 103" width="297px" zoomAndPan="magnify"><defs><filter height="300%" id="fjiowjy" width="300%" x="-1" y="-1"><feGaussianBlur result="blurOut" stdDeviation="2.0"/><feColorMatrix in="blurOut" result="blurOut2" type="matrix" values="0 0 0 0 0 0 0 0 0 0 0 0 0 0 0 0 0 0 .4 0"/><feOffset dx="4.0" dy="4.0" in="blurOut2" result="blurOut3"/><feBlend in="SourceGraphic" in2="blurOut3" mode="normal"/></filter></defs><g><!--class Introspector--><rect fill="#FEFECE" filter="url(#fjiowjy)" height="86.4141" style="stroke: #A80036; stroke-width: 1.5;" width="282" x="6" y="8"/><ellipse cx="104.25" cy="24" fill="#ADD1B2" rx="11" ry="11" style="stroke: #A80036; stroke-width: 1.0;"/><path d="M107.2188,29.6406 Q106.6406,29.9375 106,30.0859 Q105.3594,30.2344 104.6563,30.2344 Q102.1563,30.2344 100.8359,28.5859 Q99.5156,26.9375 99.5156,23.8125 Q99.5156,20.6875 100.8359,19.0313 Q102.1563,17.375 104.6563,17.375 Q105.3594,17.375 106.0078,17.5313 Q106.6563,17.6875 107.2188,17.9844 L107.2188,20.7031 Q106.5938,20.125 106,19.8516 Q105.4063,19.5781 104.7813,19.5781 Q103.4375,19.5781 102.75,20.6484 Q102.0625,21.7188 102.0625,23.8125 Q102.0625,25.9063 102.75,26.9766 Q103.4375,28.0469 104.7813,28.0469 Q105.4063,28.0469 106,27.7734 Q106.5938,27.5 107.2188,26.9219 L107.2188,29.6406 Z "/><text fill="#000000" font-family="sans-serif" font-size="12" lengthAdjust="spacingAndGlyphs" textLength="77" x="124.75" y="28.1543">Introspector</text><line style="stroke: #A80036; stroke-width: 1.5;" x1="7" x2="287" y1="40" y2="40"/><line style="stroke: #A80036; stroke-width: 1.5;" x1="7" x2="287" y1="48" y2="48"/><ellipse cx="17" cy="59.9023" fill="#84BE84" rx="3" ry="3" style="stroke: #038048; stroke-width: 1.0;"/><text fill="#000000" font-family="sans-serif" font-size="11" lengthAdjust="spacingAndGlyphs" textLength="182" x="26" y="62.2104">void constructor(ModelManager)</text><ellipse cx="17" cy="72.707" fill="#84BE84" rx="3" ry="3" style="stroke: #038048; stroke-width: 1.0;"/><text fill="#000000" font-family="sans-serif" font-size="11" lengthAdjust="spacingAndGlyphs" textLength="237" x="26" y="75.0151">ClassDeclaration[] getClassDeclarations()</text><ellipse cx="17" cy="85.5117" fill="#84BE84" rx="3" ry="3" style="stroke: #038048; stroke-width: 1.0;"/><text fill="#000000" font-family="sans-serif" font-size="11" lengthAdjust="spacingAndGlyphs" textLength="256" x="26" y="87.8198">ClassDeclaration getClassDeclaration(String)</text></g></svg>