<?xml version="1.0" encoding="UTF-8" standalone="no"?><svg xmlns="http://www.w3.org/2000/svg" xmlns:xlink="http://www.w3.org/1999/xlink" contentScriptType="application/ecmascript" contentStyleType="text/css" height="224px" preserveAspectRatio="none" style="width:578px;height:224px;" version="1.1" viewBox="0 0 578 224" width="578px" zoomAndPan="magnify"><defs><filter height="300%" id="ff7ffb5" width="300%" x="-1" y="-1"><feGaussianBlur result="blurOut" stdDeviation="2.0"/><feColorMatrix in="blurOut" result="blurOut2" type="matrix" values="0 0 0 0 0 0 0 0 0 0 0 0 0 0 0 0 0 0 .4 0"/><feOffset dx="4.0" dy="4.0" in="blurOut2" result="blurOut3"/><feBlend in="SourceGraphic" in2="blurOut3" mode="normal"/></filter></defs><g><!--class ParticipantRegistry--><rect fill="#FEFECE" filter="url(#ff7ffb5)" height="99.2188" style="stroke: #A80036; stroke-width: 1.5;" width="563" x="6" y="8"/><ellipse cx="224.25" cy="24" fill="#ADD1B2" rx="11" ry="11" style="stroke: #A80036; stroke-width: 1.0;"/><path d="M227.2188,29.6406 Q226.6406,29.9375 226,30.0859 Q225.3594,30.2344 224.6563,30.2344 Q222.1563,30.2344 220.8359,28.5859 Q219.5156,26.9375 219.5156,23.8125 Q219.5156,20.6875 220.8359,19.0313 Q222.1563,17.375 224.6563,17.375 Q225.3594,17.375 226.0078,17.5313 Q226.6563,17.6875 227.2188,17.9844 L227.2188,20.7031 Q226.5938,20.125 226,19.8516 Q225.4063,19.5781 224.7813,19.5781 Q223.4375,19.5781 222.75,20.6484 Q222.0625,21.7188 222.0625,23.8125 Q222.0625,25.9063 222.75,26.9766 Q223.4375,28.0469 224.7813,28.0469 Q225.4063,28.0469 226,27.7734 Q226.5938,27.5 227.2188,26.9219 L227.2188,29.6406 Z "/><text fill="#000000" font-family="sans-serif" font-size="12" lengthAdjust="spacingAndGlyphs" textLength="118" x="244.75" y="28.1543">ParticipantRegistry</text><line style="stroke: #A80036; stroke-width: 1.5;" x1="7" x2="568" y1="40" y2="40"/><line style="stroke: #A80036; stroke-width: 1.5;" x1="7" x2="568" y1="48" y2="48"/><ellipse cx="17" cy="59.9023" fill="#84BE84" rx="3" ry="3" style="stroke: #038048; stroke-width: 1.0;"/><text fill="#000000" font-family="sans-serif" font-size="11" lengthAdjust="spacingAndGlyphs" textLength="484" x="26" y="62.2104">Promise getAllParticipantRegistries(SecurityContext,ModelManager,Factory,Serializer)</text><ellipse cx="17" cy="72.707" fill="#84BE84" rx="3" ry="3" style="stroke: #038048; stroke-width: 1.0;"/><text fill="#000000" font-family="sans-serif" font-size="11" lengthAdjust="spacingAndGlyphs" textLength="497" x="26" y="75.0151">Promise getParticipantRegistry(SecurityContext,string,ModelManager,Factory,Serializer)</text><ellipse cx="17" cy="85.5117" fill="#84BE84" rx="3" ry="3" style="stroke: #038048; stroke-width: 1.0;"/><text fill="#000000" font-family="sans-serif" font-size="11" lengthAdjust="spacingAndGlyphs" textLength="537" x="26" y="87.8198">Promise addParticipantRegistry(SecurityContext,string,string,ModelManager,Factory,Serializer)</text><ellipse cx="17" cy="98.3164" fill="#84BE84" rx="3" ry="3" style="stroke: #038048; stroke-width: 1.0;"/><text fill="#000000" font-family="sans-serif" font-size="11" lengthAdjust="spacingAndGlyphs" textLength="451" x="26" y="100.6245">void constructor(string,string,SecurityContext,ModelManager,Factory,Serializer)</text><!--class Registry--><rect fill="#FEFECE" filter="url(#ff7ffb5)" height="48" style="stroke: #A80036; stroke-width: 1.5;" width="82" x="246.5" y="167"/><ellipse cx="261.5" cy="183" fill="#ADD1B2" rx="11" ry="11" style="stroke: #A80036; stroke-width: 1.0;"/><path d="M264.4688,188.6406 Q263.8906,188.9375 263.25,189.0859 Q262.6094,189.2344 261.9063,189.2344 Q259.4063,189.2344 258.0859,187.5859 Q256.7656,185.9375 256.7656,182.8125 Q256.7656,179.6875 258.0859,178.0313 Q259.4063,176.375 261.9063,176.375 Q262.6094,176.375 263.2578,176.5313 Q263.9063,176.6875 264.4688,176.9844 L264.4688,179.7031 Q263.8438,179.125 263.25,178.8516 Q262.6563,178.5781 262.0313,178.5781 Q260.6875,178.5781 260,179.6484 Q259.3125,180.7188 259.3125,182.8125 Q259.3125,184.9063 260,185.9766 Q260.6875,187.0469 262.0313,187.0469 Q262.6563,187.0469 263.25,186.7734 Q263.8438,186.5 264.4688,185.9219 L264.4688,188.6406 Z "/><text fill="#000000" font-family="sans-serif" font-size="12" lengthAdjust="spacingAndGlyphs" textLength="50" x="275.5" y="187.1543">Registry</text><line style="stroke: #A80036; stroke-width: 1.5;" x1="247.5" x2="327.5" y1="199" y2="199"/><line style="stroke: #A80036; stroke-width: 1.5;" x1="247.5" x2="327.5" y1="207" y2="207"/><path d="M287.5,107.092 C287.5,120.0557 287.5,133.9761 287.5,146.6384 " fill="none" style="stroke: #A80036; stroke-width: 1.0;"/><polygon fill="none" points="294.5,146.977,287.5,166.9769,280.5,146.9769,294.5,146.977" style="stroke: #A80036; stroke-width: 1.0;"/></g></svg>