<?xml version="1.0" encoding="UTF-8" standalone="no"?><svg xmlns="http://www.w3.org/2000/svg" xmlns:xlink="http://www.w3.org/1999/xlink" contentScriptType="application/ecmascript" contentStyleType="text/css" height="454px" preserveAspectRatio="none" style="width:578px;height:454px;" version="1.1" viewBox="0 0 578 454" width="578px" zoomAndPan="magnify"><defs><filter height="300%" id="f5ejhk8" width="300%" x="-1" y="-1"><feGaussianBlur result="blurOut" stdDeviation="2.0"/><feColorMatrix in="blurOut" result="blurOut2" type="matrix" values="0 0 0 0 0 0 0 0 0 0 0 0 0 0 0 0 0 0 .4 0"/><feOffset dx="4.0" dy="4.0" in="blurOut2" result="blurOut3"/><feBlend in="SourceGraphic" in2="blurOut3" mode="normal"/></filter></defs><g><!--class Registry--><rect fill="#FEFECE" filter="url(#f5ejhk8)" height="278.4844" style="stroke: #A80036; stroke-width: 1.5;" width="514" x="30.5" y="167"/><ellipse cx="258.25" cy="183" fill="#ADD1B2" rx="11" ry="11" style="stroke: #A80036; stroke-width: 1.0;"/><path d="M261.2188,188.6406 Q260.6406,188.9375 260,189.0859 Q259.3594,189.2344 258.6563,189.2344 Q256.1563,189.2344 254.8359,187.5859 Q253.5156,185.9375 253.5156,182.8125 Q253.5156,179.6875 254.8359,178.0313 Q256.1563,176.375 258.6563,176.375 Q259.3594,176.375 260.0078,176.5313 Q260.6563,176.6875 261.2188,176.9844 L261.2188,179.7031 Q260.5938,179.125 260,178.8516 Q259.4063,178.5781 258.7813,178.5781 Q257.4375,178.5781 256.75,179.6484 Q256.0625,180.7188 256.0625,182.8125 Q256.0625,184.9063 256.75,185.9766 Q257.4375,187.0469 258.7813,187.0469 Q259.4063,187.0469 260,186.7734 Q260.5938,186.5 261.2188,185.9219 L261.2188,188.6406 Z "/><text fill="#000000" font-family="sans-serif" font-size="12" lengthAdjust="spacingAndGlyphs" textLength="50" x="278.75" y="187.1543">Registry</text><line style="stroke: #A80036; stroke-width: 1.5;" x1="31.5" x2="543.5" y1="199" y2="199"/><line style="stroke: #A80036; stroke-width: 1.5;" x1="31.5" x2="543.5" y1="207" y2="207"/><ellipse cx="41.5" cy="218.9023" fill="#84BE84" rx="3" ry="3" style="stroke: #038048; stroke-width: 1.0;"/><text fill="#000000" font-family="sans-serif" font-size="11" lengthAdjust="spacingAndGlyphs" textLength="273" x="50.5" y="221.2104">Promise getAllRegistries(SecurityContext,string)</text><ellipse cx="41.5" cy="231.707" fill="#84BE84" rx="3" ry="3" style="stroke: #038048; stroke-width: 1.0;"/><text fill="#000000" font-family="sans-serif" font-size="11" lengthAdjust="spacingAndGlyphs" textLength="286" x="50.5" y="234.0151">Promise getRegistry(SecurityContext,string,string)</text><ellipse cx="41.5" cy="244.5117" fill="#84BE84" rx="3" ry="3" style="stroke: #038048; stroke-width: 1.0;"/><text fill="#000000" font-family="sans-serif" font-size="11" lengthAdjust="spacingAndGlyphs" textLength="302" x="50.5" y="246.8198">Promise existsRegistry(SecurityContext,string,string)</text><ellipse cx="41.5" cy="257.3164" fill="#84BE84" rx="3" ry="3" style="stroke: #038048; stroke-width: 1.0;"/><text fill="#000000" font-family="sans-serif" font-size="11" lengthAdjust="spacingAndGlyphs" textLength="326" x="50.5" y="259.6245">Promise addRegistry(SecurityContext,string,string,string)</text><ellipse cx="41.5" cy="270.1211" fill="#84BE84" rx="3" ry="3" style="stroke: #038048; stroke-width: 1.0;"/><text fill="#000000" font-family="sans-serif" font-size="11" lengthAdjust="spacingAndGlyphs" textLength="488" x="50.5" y="272.4292">void constructor(string,string,string,SecurityContext,ModelManager,Factory,Serializer)</text><ellipse cx="41.5" cy="282.9258" fill="#84BE84" rx="3" ry="3" style="stroke: #038048; stroke-width: 1.0;"/><text fill="#000000" font-family="sans-serif" font-size="11" lengthAdjust="spacingAndGlyphs" textLength="154" x="50.5" y="285.2339">Promise addAll(Resource[])</text><ellipse cx="41.5" cy="295.7305" fill="#84BE84" rx="3" ry="3" style="stroke: #038048; stroke-width: 1.0;"/><text fill="#000000" font-family="sans-serif" font-size="11" lengthAdjust="spacingAndGlyphs" textLength="133" x="50.5" y="298.0386">Promise add(Resource)</text><ellipse cx="41.5" cy="308.5352" fill="#84BE84" rx="3" ry="3" style="stroke: #038048; stroke-width: 1.0;"/><text fill="#000000" font-family="sans-serif" font-size="11" lengthAdjust="spacingAndGlyphs" textLength="172" x="50.5" y="310.8433">Promise updateAll(Resource[])</text><ellipse cx="41.5" cy="321.3398" fill="#84BE84" rx="3" ry="3" style="stroke: #038048; stroke-width: 1.0;"/><text fill="#000000" font-family="sans-serif" font-size="11" lengthAdjust="spacingAndGlyphs" textLength="151" x="50.5" y="323.6479">Promise update(Resource)</text><ellipse cx="41.5" cy="334.1445" fill="#84BE84" rx="3" ry="3" style="stroke: #038048; stroke-width: 1.0;"/><text fill="#000000" font-family="sans-serif" font-size="11" lengthAdjust="spacingAndGlyphs" textLength="115" x="50.5" y="336.4526">Promise removeAll()</text><ellipse cx="41.5" cy="346.9492" fill="#84BE84" rx="3" ry="3" style="stroke: #038048; stroke-width: 1.0;"/><text fill="#000000" font-family="sans-serif" font-size="11" lengthAdjust="spacingAndGlyphs" textLength="102" x="50.5" y="349.2573">Promise remove()</text><ellipse cx="41.5" cy="359.7539" fill="#84BE84" rx="3" ry="3" style="stroke: #038048; stroke-width: 1.0;"/><text fill="#000000" font-family="sans-serif" font-size="11" lengthAdjust="spacingAndGlyphs" textLength="90" x="50.5" y="362.062">Promise getAll()</text><ellipse cx="41.5" cy="372.5586" fill="#84BE84" rx="3" ry="3" style="stroke: #038048; stroke-width: 1.0;"/><text fill="#000000" font-family="sans-serif" font-size="11" lengthAdjust="spacingAndGlyphs" textLength="110" x="50.5" y="374.8667">Promise get(string)</text><ellipse cx="41.5" cy="385.3633" fill="#84BE84" rx="3" ry="3" style="stroke: #038048; stroke-width: 1.0;"/><text fill="#000000" font-family="sans-serif" font-size="11" lengthAdjust="spacingAndGlyphs" textLength="126" x="50.5" y="387.6714">Promise exists(string)</text><ellipse cx="41.5" cy="398.168" fill="#84BE84" rx="3" ry="3" style="stroke: #038048; stroke-width: 1.0;"/><text fill="#000000" font-family="sans-serif" font-size="11" lengthAdjust="spacingAndGlyphs" textLength="113" x="50.5" y="400.4761">Promise find(string)</text><ellipse cx="41.5" cy="410.9727" fill="#84BE84" rx="3" ry="3" style="stroke: #038048; stroke-width: 1.0;"/><text fill="#000000" font-family="sans-serif" font-size="11" lengthAdjust="spacingAndGlyphs" textLength="124" x="50.5" y="413.2808">Promise query(string)</text><ellipse cx="41.5" cy="423.7773" fill="#84BE84" rx="3" ry="3" style="stroke: #038048; stroke-width: 1.0;"/><text fill="#000000" font-family="sans-serif" font-size="11" lengthAdjust="spacingAndGlyphs" textLength="114" x="50.5" y="426.0854">Promise resolveAll()</text><ellipse cx="41.5" cy="436.582" fill="#84BE84" rx="3" ry="3" style="stroke: #038048; stroke-width: 1.0;"/><text fill="#000000" font-family="sans-serif" font-size="11" lengthAdjust="spacingAndGlyphs" textLength="134" x="50.5" y="438.8901">Promise resolve(string)</text><!--class ParticipantRegistry--><rect fill="#FEFECE" filter="url(#f5ejhk8)" height="99.2188" style="stroke: #A80036; stroke-width: 1.5;" width="563" x="6" y="8"/><ellipse cx="224.25" cy="24" fill="#ADD1B2" rx="11" ry="11" style="stroke: #A80036; stroke-width: 1.0;"/><path d="M227.2188,29.6406 Q226.6406,29.9375 226,30.0859 Q225.3594,30.2344 224.6563,30.2344 Q222.1563,30.2344 220.8359,28.5859 Q219.5156,26.9375 219.5156,23.8125 Q219.5156,20.6875 220.8359,19.0313 Q222.1563,17.375 224.6563,17.375 Q225.3594,17.375 226.0078,17.5313 Q226.6563,17.6875 227.2188,17.9844 L227.2188,20.7031 Q226.5938,20.125 226,19.8516 Q225.4063,19.5781 224.7813,19.5781 Q223.4375,19.5781 222.75,20.6484 Q222.0625,21.7188 222.0625,23.8125 Q222.0625,25.9063 222.75,26.9766 Q223.4375,28.0469 224.7813,28.0469 Q225.4063,28.0469 226,27.7734 Q226.5938,27.5 227.2188,26.9219 L227.2188,29.6406 Z "/><text fill="#000000" font-family="sans-serif" font-size="12" lengthAdjust="spacingAndGlyphs" textLength="118" x="244.75" y="28.1543">ParticipantRegistry</text><line style="stroke: #A80036; stroke-width: 1.5;" x1="7" x2="568" y1="40" y2="40"/><line style="stroke: #A80036; stroke-width: 1.5;" x1="7" x2="568" y1="48" y2="48"/><ellipse cx="17" cy="59.9023" fill="#84BE84" rx="3" ry="3" style="stroke: #038048; stroke-width: 1.0;"/><text fill="#000000" font-family="sans-serif" font-size="11" lengthAdjust="spacingAndGlyphs" textLength="484" x="26" y="62.2104">Promise getAllParticipantRegistries(SecurityContext,ModelManager,Factory,Serializer)</text><ellipse cx="17" cy="72.707" fill="#84BE84" rx="3" ry="3" style="stroke: #038048; stroke-width: 1.0;"/><text fill="#000000" font-family="sans-serif" font-size="11" lengthAdjust="spacingAndGlyphs" textLength="497" x="26" y="75.0151">Promise getParticipantRegistry(SecurityContext,string,ModelManager,Factory,Serializer)</text><ellipse cx="17" cy="85.5117" fill="#84BE84" rx="3" ry="3" style="stroke: #038048; stroke-width: 1.0;"/><text fill="#000000" font-family="sans-serif" font-size="11" lengthAdjust="spacingAndGlyphs" textLength="537" x="26" y="87.8198">Promise addParticipantRegistry(SecurityContext,string,string,ModelManager,Factory,Serializer)</text><ellipse cx="17" cy="98.3164" fill="#84BE84" rx="3" ry="3" style="stroke: #038048; stroke-width: 1.0;"/><text fill="#000000" font-family="sans-serif" font-size="11" lengthAdjust="spacingAndGlyphs" textLength="451" x="26" y="100.6245">void constructor(string,string,SecurityContext,ModelManager,Factory,Serializer)</text><path d="M287.5,107.2 C287.5,119.121 287.5,132.532 287.5,146.611 " fill="none" style="stroke: #A80036; stroke-width: 1.0;"/><polygon fill="none" points="294.5,146.874,287.5,166.873,280.5,146.873,294.5,146.874" style="stroke: #A80036; stroke-width: 1.0;"/></g></svg>