<?xml version="1.0" encoding="UTF-8" standalone="no"?><svg xmlns="http://www.w3.org/2000/svg" xmlns:xlink="http://www.w3.org/1999/xlink" contentScriptType="application/ecmascript" contentStyleType="text/css" height="167px" preserveAspectRatio="none" style="width:209px;height:167px;" version="1.1" viewBox="0 0 209 167" width="209px" zoomAndPan="magnify"><defs><filter height="300%" id="fmq9efs" width="300%" x="-1" y="-1"><feGaussianBlur result="blurOut" stdDeviation="2.0"/><feColorMatrix in="blurOut" result="blurOut2" type="matrix" values="0 0 0 0 0 0 0 0 0 0 0 0 0 0 0 0 0 0 .4 0"/><feOffset dx="4.0" dy="4.0" in="blurOut2" result="blurOut3"/><feBlend in="SourceGraphic" in2="blurOut3" mode="normal"/></filter></defs><g><!--class Wallet--><rect fill="#FEFECE" filter="url(#fmq9efs)" height="150.4375" style="stroke: #A80036; stroke-width: 1.5;" width="194" x="6" y="8"/><ellipse cx="79.75" cy="24" fill="#ADD1B2" rx="11" ry="11" style="stroke: #A80036; stroke-width: 1.0;"/><path d="M82.7188,29.6406 Q82.1406,29.9375 81.5,30.0859 Q80.8594,30.2344 80.1563,30.2344 Q77.6563,30.2344 76.3359,28.5859 Q75.0156,26.9375 75.0156,23.8125 Q75.0156,20.6875 76.3359,19.0313 Q77.6563,17.375 80.1563,17.375 Q80.8594,17.375 81.5078,17.5313 Q82.1563,17.6875 82.7188,17.9844 L82.7188,20.7031 Q82.0938,20.125 81.5,19.8516 Q80.9063,19.5781 80.2813,19.5781 Q78.9375,19.5781 78.25,20.6484 Q77.5625,21.7188 77.5625,23.8125 Q77.5625,25.9063 78.25,26.9766 Q78.9375,28.0469 80.2813,28.0469 Q80.9063,28.0469 81.5,27.7734 Q82.0938,27.5 82.7188,26.9219 L82.7188,29.6406 Z "/><text fill="#000000" font-family="sans-serif" font-size="12" lengthAdjust="spacingAndGlyphs" textLength="38" x="100.25" y="28.1543">Wallet</text><line style="stroke: #A80036; stroke-width: 1.5;" x1="7" x2="199" y1="40" y2="40"/><line style="stroke: #A80036; stroke-width: 1.5;" x1="7" x2="199" y1="48" y2="48"/><ellipse cx="17" cy="59.9023" fill="#84BE84" rx="3" ry="3" style="stroke: #038048; stroke-width: 1.0;"/><text fill="#000000" font-family="sans-serif" font-size="11" lengthAdjust="spacingAndGlyphs" textLength="96" x="26" y="62.2104">Wallet getWallet()</text><ellipse cx="17" cy="72.707" fill="#84BE84" rx="3" ry="3" style="stroke: #038048; stroke-width: 1.0;"/><text fill="#000000" font-family="sans-serif" font-size="11" lengthAdjust="spacingAndGlyphs" textLength="119" x="26" y="75.0151">void setWallet(Wallet)</text><ellipse cx="17" cy="85.5117" fill="#84BE84" rx="3" ry="3" style="stroke: #038048; stroke-width: 1.0;"/><text fill="#000000" font-family="sans-serif" font-size="11" lengthAdjust="spacingAndGlyphs" textLength="76" x="26" y="87.8198">Promise list()</text><ellipse cx="17" cy="98.3164" fill="#84BE84" rx="3" ry="3" style="stroke: #038048; stroke-width: 1.0;"/><text fill="#000000" font-family="sans-serif" font-size="11" lengthAdjust="spacingAndGlyphs" textLength="140" x="26" y="100.6245">Promise contains(string)</text><ellipse cx="17" cy="111.1211" fill="#84BE84" rx="3" ry="3" style="stroke: #038048; stroke-width: 1.0;"/><text fill="#000000" font-family="sans-serif" font-size="11" lengthAdjust="spacingAndGlyphs" textLength="110" x="26" y="113.4292">Promise get(string)</text><ellipse cx="17" cy="123.9258" fill="#84BE84" rx="3" ry="3" style="stroke: #038048; stroke-width: 1.0;"/><text fill="#000000" font-family="sans-serif" font-size="11" lengthAdjust="spacingAndGlyphs" textLength="150" x="26" y="126.2339">Promise add(string,string)</text><ellipse cx="17" cy="136.7305" fill="#84BE84" rx="3" ry="3" style="stroke: #038048; stroke-width: 1.0;"/><text fill="#000000" font-family="sans-serif" font-size="11" lengthAdjust="spacingAndGlyphs" textLength="168" x="26" y="139.0386">Promise update(string,string)</text><ellipse cx="17" cy="149.5352" fill="#84BE84" rx="3" ry="3" style="stroke: #038048; stroke-width: 1.0;"/><text fill="#000000" font-family="sans-serif" font-size="11" lengthAdjust="spacingAndGlyphs" textLength="135" x="26" y="151.8433">Promise remove(string)</text></g></svg>