<?xml version="1.0" encoding="UTF-8"?>
<svg width="853px" height="333px" viewBox="0 0 853 333" version="1.1" xmlns="http://www.w3.org/2000/svg" xmlns:xlink="http://www.w3.org/1999/xlink">
    <!-- Generator: Sketch 48.2 (47327) - http://www.bohemiancoding.com/sketch -->
    <title>Angular Generator Flow</title>
    <desc>Created with Sketch.</desc>
    <defs>
        <rect id="path-1" x="2" y="0" width="144" height="50" rx="3"></rect>
        <filter x="-21.5%" y="-58.0%" width="143.1%" height="224.0%" filterUnits="objectBoundingBox" id="filter-2">
            <feOffset dx="0" dy="2" in="SourceAlpha" result="shadowOffsetOuter1"></feOffset>
            <feGaussianBlur stdDeviation="10" in="shadowOffsetOuter1" result="shadowBlurOuter1"></feGaussianBlur>
            <feColorMatrix values="0 0 0 0 0   0 0 0 0 0   0 0 0 0 0  0 0 0 0.3 0" type="matrix" in="shadowBlurOuter1"></feColorMatrix>
        </filter>
        <path d="M3,0 L25,0 L25,50 L3,50 C1.34314575,50 2.02906125e-16,48.6568542 0,47 L0,3 C-2.02906125e-16,1.34314575 1.34314575,3.04359188e-16 3,0 Z" id="path-3"></path>
        <rect id="path-4" x="0" y="0" width="205" height="50" rx="3"></rect>
        <filter x="-15.1%" y="-58.0%" width="130.2%" height="224.0%" filterUnits="objectBoundingBox" id="filter-5">
            <feOffset dx="0" dy="2" in="SourceAlpha" result="shadowOffsetOuter1"></feOffset>
            <feGaussianBlur stdDeviation="10" in="shadowOffsetOuter1" result="shadowBlurOuter1"></feGaussianBlur>
            <feColorMatrix values="0 0 0 0 0   0 0 0 0 0   0 0 0 0 0  0 0 0 0.3 0" type="matrix" in="shadowBlurOuter1"></feColorMatrix>
        </filter>
        <path d="M3,0 L25,0 L25,50 L3,50 C1.34314575,50 2.02906125e-16,48.6568542 0,47 L0,3 C-2.02906125e-16,1.34314575 1.34314575,3.04359188e-16 3,0 Z" id="path-6"></path>
        <rect id="path-7" x="0" y="0" width="182" height="50" rx="3"></rect>
        <filter x="-17.0%" y="-58.0%" width="134.1%" height="224.0%" filterUnits="objectBoundingBox" id="filter-8">
            <feOffset dx="0" dy="2" in="SourceAlpha" result="shadowOffsetOuter1"></feOffset>
            <feGaussianBlur stdDeviation="10" in="shadowOffsetOuter1" result="shadowBlurOuter1"></feGaussianBlur>
            <feColorMatrix values="0 0 0 0 0   0 0 0 0 0   0 0 0 0 0  0 0 0 0.3 0" type="matrix" in="shadowBlurOuter1"></feColorMatrix>
        </filter>
        <path d="M3,0 L25,0 L25,50 L3,50 C1.34314575,50 2.02906125e-16,48.6568542 0,47 L0,3 C-2.02906125e-16,1.34314575 1.34314575,3.04359188e-16 3,0 Z" id="path-9"></path>
        <rect id="path-10" x="0" y="0" width="201" height="50" rx="3"></rect>
        <filter x="-15.4%" y="-58.0%" width="130.8%" height="224.0%" filterUnits="objectBoundingBox" id="filter-11">
            <feOffset dx="0" dy="2" in="SourceAlpha" result="shadowOffsetOuter1"></feOffset>
            <feGaussianBlur stdDeviation="10" in="shadowOffsetOuter1" result="shadowBlurOuter1"></feGaussianBlur>
            <feColorMatrix values="0 0 0 0 0   0 0 0 0 0   0 0 0 0 0  0 0 0 0.3 0" type="matrix" in="shadowBlurOuter1"></feColorMatrix>
        </filter>
        <path d="M3,0 L25,0 L25,50 L3,50 C1.34314575,50 2.02906125e-16,48.6568542 0,47 L0,3 C-2.02906125e-16,1.34314575 1.34314575,3.04359188e-16 3,0 Z" id="path-12"></path>
        <rect id="path-13" x="0" y="0" width="144" height="50" rx="3"></rect>
        <filter x="-21.5%" y="-58.0%" width="143.1%" height="224.0%" filterUnits="objectBoundingBox" id="filter-14">
            <feOffset dx="0" dy="2" in="SourceAlpha" result="shadowOffsetOuter1"></feOffset>
            <feGaussianBlur stdDeviation="10" in="shadowOffsetOuter1" result="shadowBlurOuter1"></feGaussianBlur>
            <feColorMatrix values="0 0 0 0 0   0 0 0 0 0   0 0 0 0 0  0 0 0 0.3 0" type="matrix" in="shadowBlurOuter1"></feColorMatrix>
        </filter>
        <path d="M3,0 L25,0 L25,50 L3,50 C1.34314575,50 2.02906125e-16,48.6568542 0,47 L0,3 C-2.02906125e-16,1.34314575 1.34314575,3.04359188e-16 3,0 Z" id="path-15"></path>
        <rect id="path-16" x="0" y="0" width="149" height="50" rx="3"></rect>
        <filter x="-20.8%" y="-58.0%" width="141.6%" height="224.0%" filterUnits="objectBoundingBox" id="filter-17">
            <feOffset dx="0" dy="2" in="SourceAlpha" result="shadowOffsetOuter1"></feOffset>
            <feGaussianBlur stdDeviation="10" in="shadowOffsetOuter1" result="shadowBlurOuter1"></feGaussianBlur>
            <feColorMatrix values="0 0 0 0 0   0 0 0 0 0   0 0 0 0 0  0 0 0 0.3 0" type="matrix" in="shadowBlurOuter1"></feColorMatrix>
        </filter>
        <path d="M3,0 L25,0 L25,50 L3,50 C1.34314575,50 2.02906125e-16,48.6568542 0,47 L0,3 C-2.02906125e-16,1.34314575 1.34314575,3.04359188e-16 3,0 Z" id="path-18"></path>
    </defs>
    <g id="Angular-Generator-Flow" stroke="none" stroke-width="1" fill="none" fill-rule="evenodd">
        <g>
            <path d="M562,105 L562,152.20811 C562,153.864964 560.656854,155.20811 559,155.20811 L165,155.20811 C163.343146,155.20811 162,156.551256 162,158.20811 L162,211" id="Path-2" stroke="#473793" stroke-width="2" stroke-linecap="square"></path>
            <path d="M108.5,100.5 L539.640348,100.5" id="Line-2" stroke="#473793" stroke-width="2" stroke-linecap="square"></path>
            <path d="M175.5,216.5 L606.640348,216.5" id="Line-2-Copy" stroke="#473793" stroke-width="2" stroke-linecap="square"></path>
            <g id="Group-4" transform="translate(73.000000, 76.000000)">
                <g id="Rectangle-Copy-11">
                    <use fill="black" fill-opacity="1" filter="url(#filter-2)" xlink:href="#path-1"></use>
                    <use fill="#785EF0" fill-rule="evenodd" xlink:href="#path-1"></use>
                </g>
                <path d="M53.4047852,26.3408203 C53.4047852,27.220382 53.0857779,27.9062475 52.4477539,28.3984375 C51.8097299,28.8906275 50.9438531,29.1367188 49.8500977,29.1367188 C48.6651959,29.1367188 47.7537467,28.984051 47.1157227,28.6787109 L47.1157227,27.5576172 C47.525881,27.7307951 47.9724911,27.8675125 48.4555664,27.9677734 C48.9386417,28.0680344 49.4171526,28.1181641 49.8911133,28.1181641 C50.6658567,28.1181641 51.2491842,27.9711929 51.6411133,27.6772461 C52.0330423,27.3832993 52.2290039,26.9742865 52.2290039,26.4501953 C52.2290039,26.1038394 52.1595059,25.8201508 52.0205078,25.5991211 C51.8815097,25.3780913 51.6490902,25.1741546 51.3232422,24.9873047 C50.9973942,24.8004548 50.5017937,24.5885429 49.8364258,24.3515625 C48.9067336,24.0188785 48.242515,23.6246768 47.84375,23.1689453 C47.444985,22.7132139 47.2456055,22.1184933 47.2456055,21.3847656 C47.2456055,20.6145795 47.5349906,20.0016299 48.1137695,19.5458984 C48.6925485,19.090167 49.4581658,18.8623047 50.4106445,18.8623047 C51.4041391,18.8623047 52.3178669,19.0445945 53.1518555,19.4091797 L52.7895508,20.4208984 C51.9646769,20.0745425 51.1626016,19.9013672 50.3833008,19.9013672 C49.7680633,19.9013672 49.2872739,20.0335273 48.940918,20.2978516 C48.5945621,20.5621758 48.4213867,20.9290341 48.4213867,21.3984375 C48.4213867,21.7447934 48.4851882,22.028482 48.612793,22.2495117 C48.7403978,22.4705415 48.9557277,22.6733389 49.2587891,22.8579102 C49.5618505,23.0424814 50.0255503,23.2464182 50.6499023,23.4697266 C51.6980847,23.8434263 52.4192689,24.244464 52.8134766,24.6728516 C53.2076843,25.1012391 53.4047852,25.6572231 53.4047852,26.3408203 Z M57.6977539,28.2001953 C57.8982757,28.2001953 58.0919587,28.1853843 58.2788086,28.1557617 C58.4656585,28.1261392 58.613769,28.0953778 58.7231445,28.0634766 L58.7231445,28.9316406 C58.600097,28.9908857 58.4189465,29.0398761 58.1796875,29.0786133 C57.9404285,29.1173505 57.7250986,29.1367188 57.5336914,29.1367188 C56.0844654,29.1367188 55.3598633,28.37338 55.3598633,26.8466797 L55.3598633,22.3896484 L54.2866211,22.3896484 L54.2866211,21.8427734 L55.3598633,21.3710938 L55.8383789,19.7714844 L56.4946289,19.7714844 L56.4946289,21.5078125 L58.668457,21.5078125 L58.668457,22.3896484 L56.4946289,22.3896484 L56.4946289,26.7988281 C56.4946289,27.2500023 56.6017242,27.596353 56.815918,27.8378906 C57.0301117,28.0794283 57.3240541,28.2001953 57.6977539,28.2001953 Z M64.8276367,29 L64.6020508,27.9335938 L64.5473633,27.9335938 C64.1736635,28.4029971 63.8011086,28.7208651 63.4296875,28.887207 C63.0582664,29.053549 62.5945666,29.1367188 62.0385742,29.1367188 C61.295732,29.1367188 60.7135438,28.9453144 60.2919922,28.5625 C59.8704406,28.1796856 59.659668,27.6350947 59.659668,26.9287109 C59.659668,25.4156825 60.8696168,24.6227217 63.2895508,24.5498047 L64.5610352,24.5087891 L64.5610352,24.0439453 C64.5610352,23.4560517 64.4345716,23.0219741 64.1816406,22.7416992 C63.9287097,22.4614244 63.5242541,22.3212891 62.9682617,22.3212891 C62.3439096,22.3212891 61.6375365,22.5126934 60.8491211,22.8955078 L60.5004883,22.0273438 C60.8696308,21.8268219 61.2740863,21.6695969 61.7138672,21.5556641 C62.153648,21.4417312 62.5945616,21.3847656 63.0366211,21.3847656 C63.9298547,21.3847656 64.5917947,21.5830058 65.0224609,21.9794922 C65.4531272,22.3759785 65.668457,23.0117144 65.668457,23.8867188 L65.668457,29 L64.8276367,29 Z M62.2641602,28.2001953 C62.9705439,28.2001953 63.5253886,28.0065124 63.9287109,27.6191406 C64.3320333,27.2317689 64.5336914,26.6894566 64.5336914,25.9921875 L64.5336914,25.3154297 L63.3989258,25.3632812 C62.4965775,25.3951825 61.8460306,25.5353178 61.4472656,25.7836914 C61.0485006,26.032065 60.8491211,26.4182917 60.8491211,26.9423828 C60.8491211,27.3525411 60.973306,27.6647125 61.2216797,27.8789062 C61.4700533,28.0931 61.8175433,28.2001953 62.2641602,28.2001953 Z M71.4243164,21.3710938 C71.7570004,21.3710938 72.0555,21.3984372 72.3198242,21.453125 L72.1625977,22.5058594 C71.8527003,22.4374997 71.5792655,22.4033203 71.3422852,22.4033203 C70.7361623,22.4033203 70.2177756,22.6494116 69.7871094,23.1416016 C69.3564432,23.6337915 69.1411133,24.2467411 69.1411133,24.9804688 L69.1411133,29 L68.0063477,29 L68.0063477,21.5078125 L68.9428711,21.5078125 L69.0727539,22.8955078 L69.1274414,22.8955078 C69.4054376,22.4078752 69.7403952,22.0319024 70.1323242,21.7675781 C70.5242533,21.5032539 70.954913,21.3710938 71.4243164,21.3710938 Z M76.1411133,28.2001953 C76.3416351,28.2001953 76.5353181,28.1853843 76.722168,28.1557617 C76.9090179,28.1261392 77.0571284,28.0953778 77.1665039,28.0634766 L77.1665039,28.9316406 C77.0434564,28.9908857 76.8623059,29.0398761 76.6230469,29.0786133 C76.3837879,29.1173505 76.168458,29.1367188 75.9770508,29.1367188 C74.5278248,29.1367188 73.8032227,28.37338 73.8032227,26.8466797 L73.8032227,22.3896484 L72.7299805,22.3896484 L72.7299805,21.8427734 L73.8032227,21.3710938 L74.2817383,19.7714844 L74.9379883,19.7714844 L74.9379883,21.5078125 L77.1118164,21.5078125 L77.1118164,22.3896484 L74.9379883,22.3896484 L74.9379883,26.7988281 C74.9379883,27.2500023 75.0450836,27.596353 75.2592773,27.8378906 C75.4734711,28.0794283 75.7674135,28.2001953 76.1411133,28.2001953 Z M83.6333008,29 L82.4711914,29 L82.4711914,19.0058594 L88.0424805,19.0058594 L88.0424805,20.0380859 L83.6333008,20.0380859 L83.6333008,23.6953125 L87.7758789,23.6953125 L87.7758789,24.7275391 L83.6333008,24.7275391 L83.6333008,29 Z M94.1333008,29 L93.9077148,27.9335938 L93.8530273,27.9335938 C93.4793276,28.4029971 93.1067727,28.7208651 92.7353516,28.887207 C92.3639304,29.053549 91.9002306,29.1367188 91.3442383,29.1367188 C90.601396,29.1367188 90.0192078,28.9453144 89.5976562,28.5625 C89.1761047,28.1796856 88.965332,27.6350947 88.965332,26.9287109 C88.965332,25.4156825 90.1752809,24.6227217 92.5952148,24.5498047 L93.8666992,24.5087891 L93.8666992,24.0439453 C93.8666992,23.4560517 93.7402356,23.0219741 93.4873047,22.7416992 C93.2343737,22.4614244 92.8299181,22.3212891 92.2739258,22.3212891 C91.6495737,22.3212891 90.9432006,22.5126934 90.1547852,22.8955078 L89.8061523,22.0273438 C90.1752948,21.8268219 90.5797504,21.6695969 91.0195312,21.5556641 C91.4593121,21.4417312 91.9002257,21.3847656 92.3422852,21.3847656 C93.2355188,21.3847656 93.8974588,21.5830058 94.328125,21.9794922 C94.7587912,22.3759785 94.9741211,23.0117144 94.9741211,23.8867188 L94.9741211,29 L94.1333008,29 Z M91.5698242,28.2001953 C92.276208,28.2001953 92.8310527,28.0065124 93.234375,27.6191406 C93.6376973,27.2317689 93.8393555,26.6894566 93.8393555,25.9921875 L93.8393555,25.3154297 L92.7045898,25.3632812 C91.8022416,25.3951825 91.1516947,25.5353178 90.7529297,25.7836914 C90.3541647,26.032065 90.1547852,26.4182917 90.1547852,26.9423828 C90.1547852,27.3525411 90.2789701,27.6647125 90.5273438,27.8789062 C90.7757174,28.0931 91.1232074,28.2001953 91.5698242,28.2001953 Z M100.79834,21.3847656 C101.78272,21.3847656 102.547198,21.7208625 103.091797,22.3930664 C103.636396,23.0652703 103.908691,24.0165954 103.908691,25.2470703 C103.908691,26.4775452 103.634117,27.4334276 103.084961,28.1147461 C102.535805,28.7960646 101.773605,29.1367188 100.79834,29.1367188 C100.310707,29.1367188 99.8652364,29.0467131 99.4619141,28.8666992 C99.0585917,28.6866853 98.7202162,28.4098326 98.4467773,28.0361328 L98.3647461,28.0361328 L98.1254883,29 L97.3120117,29 L97.3120117,18.3632812 L98.4467773,18.3632812 L98.4467773,20.9472656 C98.4467773,21.5260446 98.4285484,22.0455706 98.3920898,22.5058594 L98.4467773,22.5058594 C98.9754258,21.7584598 99.7592721,21.3847656 100.79834,21.3847656 Z M100.634277,22.3349609 C99.8595339,22.3349609 99.3012712,22.5571267 98.9594727,23.0014648 C98.6176741,23.445803 98.4467773,24.1943307 98.4467773,25.2470703 C98.4467773,26.29981 98.6222313,27.0528949 98.9731445,27.5063477 C99.3240577,27.9598004 99.8868776,28.1865234 100.661621,28.1865234 C101.35889,28.1865234 101.878416,27.932457 102.220215,27.4243164 C102.562013,26.9161758 102.73291,26.1858772 102.73291,25.2333984 C102.73291,24.2581331 102.562013,23.5312524 102.220215,23.0527344 C101.878416,22.5742164 101.349776,22.3349609 100.634277,22.3349609 Z M109.309082,21.3710938 C109.641766,21.3710938 109.940266,21.3984372 110.20459,21.453125 L110.047363,22.5058594 C109.737466,22.4374997 109.464031,22.4033203 109.227051,22.4033203 C108.620928,22.4033203 108.102541,22.6494116 107.671875,23.1416016 C107.241209,23.6337915 107.025879,24.2467411 107.025879,24.9804688 L107.025879,29 L105.891113,29 L105.891113,21.5078125 L106.827637,21.5078125 L106.95752,22.8955078 L107.012207,22.8955078 C107.290203,22.4078752 107.625161,22.0319024 108.01709,21.7675781 C108.409019,21.5032539 108.839679,21.3710938 109.309082,21.3710938 Z M112.740723,29 L111.605957,29 L111.605957,21.5078125 L112.740723,21.5078125 L112.740723,29 Z M111.510254,19.4775391 C111.510254,19.2177721 111.574055,19.0275071 111.70166,18.9067383 C111.829265,18.7859694 111.988769,18.7255859 112.180176,18.7255859 C112.362468,18.7255859 112.519693,18.7871088 112.651855,18.9101562 C112.784018,19.0332037 112.850098,19.2223295 112.850098,19.4775391 C112.850098,19.7327487 112.784018,19.9230137 112.651855,20.0483398 C112.519693,20.173666 112.362468,20.2363281 112.180176,20.2363281 C111.988769,20.2363281 111.829265,20.173666 111.70166,20.0483398 C111.574055,19.9230137 111.510254,19.7327487 111.510254,19.4775391 Z M118.141113,29.1367188 C117.056472,29.1367188 116.2168,28.8029005 115.62207,28.1352539 C115.027341,27.4676073 114.72998,26.5231181 114.72998,25.3017578 C114.72998,24.0484963 115.031898,23.0800815 115.635742,22.3964844 C116.239586,21.7128872 117.099767,21.3710938 118.216309,21.3710938 C118.576336,21.3710938 118.936359,21.4098303 119.296387,21.4873047 C119.656415,21.564779 119.938964,21.655924 120.144043,21.7607422 L119.79541,22.7246094 C119.544758,22.6243485 119.271323,22.5411787 118.975098,22.4750977 C118.678872,22.4090166 118.416831,22.3759766 118.188965,22.3759766 C116.666822,22.3759766 115.905762,23.34667 115.905762,25.2880859 C115.905762,26.2086635 116.091469,26.9150366 116.462891,27.4072266 C116.834312,27.8994165 117.384599,28.1455078 118.11377,28.1455078 C118.738122,28.1455078 119.378415,28.0110691 120.034668,27.7421875 L120.034668,28.7470703 C119.533363,29.0068372 118.902185,29.1367188 118.141113,29.1367188 Z" id="Start-Fabric" fill="#FFFFFF"></path>
                <g id="Group">
                    <g id="Rectangle-Copy-11">
                        <use fill="#F1F3F7" fill-rule="evenodd" xlink:href="#path-3"></use>
                        <path stroke="#785EF0" stroke-width="1" d="M24.5,49.5 L24.5,0.5 L3,0.5 C1.61928813,0.5 0.5,1.61928813 0.5,3 L0.5,47 C0.5,48.3807119 1.61928813,49.5 3,49.5 L24.5,49.5 Z"></path>
                    </g>
                    <path d="M13.8876953,29 L12.7802734,29 L12.7802734,21.8769531 C12.7802734,21.2845022 12.7985024,20.723961 12.8349609,20.1953125 C12.7392573,20.2910161 12.6321621,20.3912755 12.5136719,20.4960938 C12.3951817,20.600912 11.8528694,21.0452435 10.8867188,21.8291016 L10.2851562,21.0498047 L12.9306641,19.0058594 L13.8876953,19.0058594 L13.8876953,29 Z" id="1" fill="#19273C"></path>
                </g>
            </g>
            <g id="Group-7" transform="translate(567.000000, 191.000000)">
                <g id="Rectangle-Copy-16">
                    <use fill="black" fill-opacity="1" filter="url(#filter-5)" xlink:href="#path-4"></use>
                    <use fill="#785EF0" fill-rule="evenodd" xlink:href="#path-4"></use>
                </g>
                <path d="M48.8862305,23.7636719 L52.2836914,23.7636719 L52.2836914,28.6240234 C51.7550429,28.7926441 51.2172879,28.920247 50.6704102,29.0068359 C50.1235324,29.0934249 49.4900752,29.1367188 48.7700195,29.1367188 C47.2569911,29.1367188 46.078943,28.6866907 45.2358398,27.7866211 C44.3927367,26.8865515 43.9711914,25.6253336 43.9711914,24.0029297 C43.9711914,22.963862 44.1796854,22.0535521 44.5966797,21.2719727 C45.013674,20.4903932 45.6140911,19.893394 46.3979492,19.480957 C47.1818073,19.0685201 48.1000924,18.8623047 49.152832,18.8623047 C50.2192436,18.8623047 51.2127233,19.0582663 52.1333008,19.4501953 L51.6821289,20.4755859 C50.7797806,20.0927715 49.9116253,19.9013672 49.0776367,19.9013672 C47.8608338,19.9013672 46.9106479,20.2636683 46.2270508,20.9882812 C45.5434536,21.7128942 45.2016602,22.717767 45.2016602,24.0029297 C45.2016602,25.3518948 45.5309212,26.3749965 46.1894531,27.0722656 C46.8479851,27.7695347 47.8152605,28.1181641 49.0913086,28.1181641 C49.7840204,28.1181641 50.4607714,28.0384123 51.121582,27.8789062 L51.121582,24.8027344 L48.8862305,24.8027344 L48.8862305,23.7636719 Z M57.6772461,29.1367188 C56.5698187,29.1367188 55.6959667,28.7994825 55.0556641,28.125 C54.4153614,27.4505175 54.0952148,26.5140034 54.0952148,25.3154297 C54.0952148,24.1077414 54.3925752,23.1484411 54.9873047,22.4375 C55.5820342,21.7265589 56.3806916,21.3710938 57.3833008,21.3710938 C58.3221076,21.3710938 59.0649387,21.6798472 59.6118164,22.2973633 C60.1586941,22.9148794 60.4321289,23.7294871 60.4321289,24.7412109 L60.4321289,25.4589844 L55.2709961,25.4589844 C55.2937827,26.3385461 55.5159484,27.0061826 55.9375,27.4619141 C56.3590516,27.9176455 56.9526329,28.1455078 57.7182617,28.1455078 C58.5249064,28.1455078 59.3224244,27.9768897 60.1108398,27.6396484 L60.1108398,28.6513672 C59.7097962,28.8245451 59.3304054,28.9487301 58.9726562,29.0239258 C58.6149071,29.0991215 58.183108,29.1367188 57.6772461,29.1367188 Z M57.3696289,22.3212891 C56.7680634,22.3212891 56.2884132,22.5172506 55.9306641,22.9091797 C55.5729149,23.3011087 55.3621422,23.843421 55.2983398,24.5361328 L59.215332,24.5361328 C59.215332,23.8206344 59.0558284,23.2726256 58.7368164,22.8920898 C58.4178044,22.5115541 57.9620798,22.3212891 57.3696289,22.3212891 Z M67.4936523,29 L67.4936523,24.1533203 C67.4936523,23.5426402 67.3546563,23.0869156 67.0766602,22.7861328 C66.798664,22.4853501 66.363447,22.3349609 65.7709961,22.3349609 C64.987138,22.3349609 64.412925,22.5468729 64.0483398,22.9707031 C63.6837547,23.3945334 63.5014648,24.0940706 63.5014648,25.0693359 L63.5014648,29 L62.3666992,29 L62.3666992,21.5078125 L63.2895508,21.5078125 L63.4741211,22.5332031 L63.5288086,22.5332031 C63.7612316,22.1640607 64.0870747,21.8780935 64.5063477,21.675293 C64.9256206,21.4724925 65.3927383,21.3710938 65.9077148,21.3710938 C66.8100631,21.3710938 67.4890928,21.5887023 67.9448242,22.0239258 C68.4005557,22.4591493 68.628418,23.1552687 68.628418,24.1123047 L68.628418,29 L67.4936523,29 Z M74.1245117,29.1367188 C73.0170843,29.1367188 72.1432324,28.7994825 71.5029297,28.125 C70.862627,27.4505175 70.5424805,26.5140034 70.5424805,25.3154297 C70.5424805,24.1077414 70.8398408,23.1484411 71.4345703,22.4375 C72.0292998,21.7265589 72.8279572,21.3710938 73.8305664,21.3710938 C74.7693732,21.3710938 75.5122043,21.6798472 76.059082,22.2973633 C76.6059598,22.9148794 76.8793945,23.7294871 76.8793945,24.7412109 L76.8793945,25.4589844 L71.7182617,25.4589844 C71.7410483,26.3385461 71.963214,27.0061826 72.3847656,27.4619141 C72.8063172,27.9176455 73.3998985,28.1455078 74.1655273,28.1455078 C74.972172,28.1455078 75.7696901,27.9768897 76.5581055,27.6396484 L76.5581055,28.6513672 C76.1570618,28.8245451 75.7776711,28.9487301 75.4199219,29.0239258 C75.0621727,29.0991215 74.6303736,29.1367188 74.1245117,29.1367188 Z M73.8168945,22.3212891 C73.215329,22.3212891 72.7356789,22.5172506 72.3779297,22.9091797 C72.0201805,23.3011087 71.8094079,23.843421 71.7456055,24.5361328 L75.6625977,24.5361328 C75.6625977,23.8206344 75.503094,23.2726256 75.184082,22.8920898 C74.86507,22.5115541 74.4093454,22.3212891 73.8168945,22.3212891 Z M82.2319336,21.3710938 C82.5646175,21.3710938 82.8631172,21.3984372 83.1274414,21.453125 L82.9702148,22.5058594 C82.6603175,22.4374997 82.3868827,22.4033203 82.1499023,22.4033203 C81.5437795,22.4033203 81.0253928,22.6494116 80.5947266,23.1416016 C80.1640603,23.6337915 79.9487305,24.2467411 79.9487305,24.9804688 L79.9487305,29 L78.8139648,29 L78.8139648,21.5078125 L79.7504883,21.5078125 L79.8803711,22.8955078 L79.9350586,22.8955078 C80.2130548,22.4078752 80.5480124,22.0319024 80.9399414,21.7675781 C81.3318704,21.5032539 81.7625302,21.3710938 82.2319336,21.3710938 Z M89.1362305,29 L88.9106445,27.9335938 L88.855957,27.9335938 C88.4822572,28.4029971 88.1097024,28.7208651 87.7382812,28.887207 C87.3668601,29.053549 86.9031603,29.1367188 86.347168,29.1367188 C85.6043257,29.1367188 85.0221375,28.9453144 84.6005859,28.5625 C84.1790344,28.1796856 83.9682617,27.6350947 83.9682617,26.9287109 C83.9682617,25.4156825 85.1782106,24.6227217 87.5981445,24.5498047 L88.8696289,24.5087891 L88.8696289,24.0439453 C88.8696289,23.4560517 88.7431653,23.0219741 88.4902344,22.7416992 C88.2373034,22.4614244 87.8328478,22.3212891 87.2768555,22.3212891 C86.6525034,22.3212891 85.9461302,22.5126934 85.1577148,22.8955078 L84.809082,22.0273438 C85.1782245,21.8268219 85.5826801,21.6695969 86.0224609,21.5556641 C86.4622418,21.4417312 86.9031553,21.3847656 87.3452148,21.3847656 C88.2384485,21.3847656 88.9003885,21.5830058 89.3310547,21.9794922 C89.7617209,22.3759785 89.9770508,23.0117144 89.9770508,23.8867188 L89.9770508,29 L89.1362305,29 Z M86.5727539,28.2001953 C87.2791376,28.2001953 87.8339824,28.0065124 88.2373047,27.6191406 C88.640627,27.2317689 88.8422852,26.6894566 88.8422852,25.9921875 L88.8422852,25.3154297 L87.7075195,25.3632812 C86.8051713,25.3951825 86.1546244,25.5353178 85.7558594,25.7836914 C85.3570944,26.032065 85.1577148,26.4182917 85.1577148,26.9423828 C85.1577148,27.3525411 85.2818998,27.6647125 85.5302734,27.8789062 C85.7786471,28.0931 86.1261371,28.2001953 86.5727539,28.2001953 Z M94.7348633,28.2001953 C94.9353851,28.2001953 95.1290681,28.1853843 95.315918,28.1557617 C95.5027679,28.1261392 95.6508784,28.0953778 95.7602539,28.0634766 L95.7602539,28.9316406 C95.6372064,28.9908857 95.4560559,29.0398761 95.2167969,29.0786133 C94.9775379,29.1173505 94.762208,29.1367188 94.5708008,29.1367188 C93.1215748,29.1367188 92.3969727,28.37338 92.3969727,26.8466797 L92.3969727,22.3896484 L91.3237305,22.3896484 L91.3237305,21.8427734 L92.3969727,21.3710938 L92.8754883,19.7714844 L93.5317383,19.7714844 L93.5317383,21.5078125 L95.7055664,21.5078125 L95.7055664,22.3896484 L93.5317383,22.3896484 L93.5317383,26.7988281 C93.5317383,27.2500023 93.6388336,27.596353 93.8530273,27.8378906 C94.0672211,28.0794283 94.3611635,28.2001953 94.7348633,28.2001953 Z M100.422363,29.1367188 C99.3149359,29.1367188 98.4410839,28.7994825 97.8007812,28.125 C97.1604786,27.4505175 96.840332,26.5140034 96.840332,25.3154297 C96.840332,24.1077414 97.1376923,23.1484411 97.7324219,22.4375 C98.3271514,21.7265589 99.1258088,21.3710938 100.128418,21.3710938 C101.067225,21.3710938 101.810056,21.6798472 102.356934,22.2973633 C102.903811,22.9148794 103.177246,23.7294871 103.177246,24.7412109 L103.177246,25.4589844 L98.0161133,25.4589844 C98.0388999,26.3385461 98.2610656,27.0061826 98.6826172,27.4619141 C99.1041688,27.9176455 99.6977501,28.1455078 100.463379,28.1455078 C101.270024,28.1455078 102.067542,27.9768897 102.855957,27.6396484 L102.855957,28.6513672 C102.454913,28.8245451 102.075523,28.9487301 101.717773,29.0239258 C101.360024,29.0991215 100.928225,29.1367188 100.422363,29.1367188 Z M100.114746,22.3212891 C99.5131806,22.3212891 99.0335304,22.5172506 98.6757812,22.9091797 C98.3180321,23.3011087 98.1072594,23.843421 98.043457,24.5361328 L101.960449,24.5361328 C101.960449,23.8206344 101.800946,23.2726256 101.481934,22.8920898 C101.162922,22.5115541 100.707197,22.3212891 100.114746,22.3212891 Z M115.20166,29 L113.95752,25.8212891 L109.95166,25.8212891 L108.721191,29 L107.54541,29 L111.496582,18.9648438 L112.474121,18.9648438 L116.404785,29 L115.20166,29 Z M113.595215,24.7753906 L112.433105,21.6787109 C112.282714,21.2867819 112.127768,20.8059924 111.968262,20.2363281 C111.868001,20.6738303 111.724448,21.1546198 111.537598,21.6787109 L110.361816,24.7753906 L113.595215,24.7753906 Z M122.734863,29 L122.734863,24.1533203 C122.734863,23.5426402 122.595867,23.0869156 122.317871,22.7861328 C122.039875,22.4853501 121.604658,22.3349609 121.012207,22.3349609 C120.228349,22.3349609 119.654136,22.5468729 119.289551,22.9707031 C118.924966,23.3945334 118.742676,24.0940706 118.742676,25.0693359 L118.742676,29 L117.60791,29 L117.60791,21.5078125 L118.530762,21.5078125 L118.715332,22.5332031 L118.77002,22.5332031 C119.002443,22.1640607 119.328286,21.8780935 119.747559,21.675293 C120.166832,21.4724925 120.633949,21.3710938 121.148926,21.3710938 C122.051274,21.3710938 122.730304,21.5887023 123.186035,22.0239258 C123.641767,22.4591493 123.869629,23.1552687 123.869629,24.1123047 L123.869629,29 L122.734863,29 Z M132.33252,21.5078125 L132.33252,22.2255859 L130.944824,22.3896484 C131.072429,22.5491544 131.18636,22.7576485 131.286621,23.0151367 C131.386882,23.272625 131.437012,23.5631494 131.437012,23.8867188 C131.437012,24.6204464 131.186363,25.2060525 130.685059,25.6435547 C130.183754,26.0810569 129.49561,26.2998047 128.620605,26.2998047 C128.397297,26.2998047 128.187664,26.2815757 127.991699,26.2451172 C127.508624,26.5003268 127.26709,26.8216126 127.26709,27.2089844 C127.26709,27.4140635 127.351399,27.565592 127.52002,27.6635742 C127.68864,27.7615565 127.978025,27.8105469 128.388184,27.8105469 L129.714355,27.8105469 C130.525557,27.8105469 131.148761,27.9814436 131.583984,28.3232422 C132.019208,28.6650408 132.236816,29.1617806 132.236816,29.8134766 C132.236816,30.6429078 131.904137,31.2752257 131.23877,31.7104492 C130.573402,32.1456727 129.602708,32.3632812 128.32666,32.3632812 C127.346838,32.3632812 126.591474,32.1809914 126.060547,31.8164062 C125.52962,31.4518211 125.26416,30.9368523 125.26416,30.2714844 C125.26416,29.8157529 125.409992,29.4215511 125.70166,29.0888672 C125.993328,28.7561832 126.40348,28.5305996 126.932129,28.4121094 C126.740722,28.3255204 126.580079,28.1910816 126.450195,28.0087891 C126.320312,27.8264965 126.255371,27.6145845 126.255371,27.3730469 C126.255371,27.099608 126.328287,26.8603526 126.474121,26.6552734 C126.619955,26.4501943 126.850096,26.2519541 127.164551,26.0605469 C126.777179,25.9010409 126.46159,25.6298847 126.217773,25.2470703 C125.973957,24.8642559 125.852051,24.4267603 125.852051,23.9345703 C125.852051,23.1142537 126.098142,22.4819358 126.590332,22.0375977 C127.082522,21.5932595 127.779781,21.3710938 128.682129,21.3710938 C129.074058,21.3710938 129.427245,21.4166662 129.741699,21.5078125 L132.33252,21.5078125 Z M126.35791,30.2578125 C126.35791,30.6634135 126.528807,30.9710276 126.870605,31.1806641 C127.212404,31.3903005 127.702308,31.4951172 128.340332,31.4951172 C129.292811,31.4951172 129.998045,31.3527032 130.456055,31.0678711 C130.914065,30.7830389 131.143066,30.3968123 131.143066,29.9091797 C131.143066,29.5035787 131.017742,29.2221688 130.76709,29.0649414 C130.516438,28.9077141 130.044763,28.8291016 129.352051,28.8291016 L127.991699,28.8291016 C127.476723,28.8291016 127.075685,28.9521472 126.788574,29.1982422 C126.501463,29.4443372 126.35791,29.7975237 126.35791,30.2578125 Z M126.973145,23.9072266 C126.973145,24.4313177 127.121255,24.8277981 127.41748,25.0966797 C127.713706,25.3655612 128.126137,25.5 128.654785,25.5 C129.762213,25.5 130.315918,24.962245 130.315918,23.8867188 C130.315918,22.7610621 129.755377,22.1982422 128.634277,22.1982422 C128.101072,22.1982422 127.690919,22.3417954 127.403809,22.6289062 C127.116698,22.9160171 126.973145,23.3421196 126.973145,23.9072266 Z M134.937012,21.5078125 L134.937012,26.3681641 C134.937012,26.9788442 135.076008,27.4345688 135.354004,27.7353516 C135.632,28.0361343 136.067217,28.1865234 136.659668,28.1865234 C137.443526,28.1865234 138.0166,27.9723329 138.378906,27.5439453 C138.741213,27.1155578 138.922363,26.4160205 138.922363,25.4453125 L138.922363,21.5078125 L140.057129,21.5078125 L140.057129,29 L139.120605,29 L138.956543,27.9951172 L138.89502,27.9951172 C138.662596,28.3642597 138.340171,28.6468089 137.927734,28.8427734 C137.515297,29.038738 137.044762,29.1367188 136.516113,29.1367188 C135.60465,29.1367188 134.922203,28.9202496 134.46875,28.4873047 C134.015297,28.0543598 133.788574,27.3616584 133.788574,26.4091797 L133.788574,21.5078125 L134.937012,21.5078125 Z M143.598145,29 L142.463379,29 L142.463379,18.3632812 L143.598145,18.3632812 L143.598145,29 Z M150.611816,29 L150.38623,27.9335938 L150.331543,27.9335938 C149.957843,28.4029971 149.585288,28.7208651 149.213867,28.887207 C148.842446,29.053549 148.378746,29.1367188 147.822754,29.1367188 C147.079912,29.1367188 146.497723,28.9453144 146.076172,28.5625 C145.65462,28.1796856 145.443848,27.6350947 145.443848,26.9287109 C145.443848,25.4156825 146.653796,24.6227217 149.07373,24.5498047 L150.345215,24.5087891 L150.345215,24.0439453 C150.345215,23.4560517 150.218751,23.0219741 149.96582,22.7416992 C149.712889,22.4614244 149.308434,22.3212891 148.752441,22.3212891 C148.128089,22.3212891 147.421716,22.5126934 146.633301,22.8955078 L146.284668,22.0273438 C146.65381,21.8268219 147.058266,21.6695969 147.498047,21.5556641 C147.937828,21.4417312 148.378741,21.3847656 148.820801,21.3847656 C149.714034,21.3847656 150.375974,21.5830058 150.806641,21.9794922 C151.237307,22.3759785 151.452637,23.0117144 151.452637,23.8867188 L151.452637,29 L150.611816,29 Z M148.04834,28.2001953 C148.754724,28.2001953 149.309568,28.0065124 149.712891,27.6191406 C150.116213,27.2317689 150.317871,26.6894566 150.317871,25.9921875 L150.317871,25.3154297 L149.183105,25.3632812 C148.280757,25.3951825 147.63021,25.5353178 147.231445,25.7836914 C146.83268,26.032065 146.633301,26.4182917 146.633301,26.9423828 C146.633301,27.3525411 146.757486,27.6647125 147.005859,27.8789062 C147.254233,28.0931 147.601723,28.2001953 148.04834,28.2001953 Z M157.208496,21.3710938 C157.54118,21.3710938 157.83968,21.3984372 158.104004,21.453125 L157.946777,22.5058594 C157.63688,22.4374997 157.363445,22.4033203 157.126465,22.4033203 C156.520342,22.4033203 156.001955,22.6494116 155.571289,23.1416016 C155.140623,23.6337915 154.925293,24.2467411 154.925293,24.9804688 L154.925293,29 L153.790527,29 L153.790527,21.5078125 L154.727051,21.5078125 L154.856934,22.8955078 L154.911621,22.8955078 C155.189617,22.4078752 155.524575,22.0319024 155.916504,21.7675781 C156.308433,21.5032539 156.739093,21.3710938 157.208496,21.3710938 Z M167.749512,29 L167.523926,27.9335938 L167.469238,27.9335938 C167.095538,28.4029971 166.722984,28.7208651 166.351562,28.887207 C165.980141,29.053549 165.516442,29.1367188 164.960449,29.1367188 C164.217607,29.1367188 163.635419,28.9453144 163.213867,28.5625 C162.792316,28.1796856 162.581543,27.6350947 162.581543,26.9287109 C162.581543,25.4156825 163.791492,24.6227217 166.211426,24.5498047 L167.48291,24.5087891 L167.48291,24.0439453 C167.48291,23.4560517 167.356447,23.0219741 167.103516,22.7416992 C166.850585,22.4614244 166.446129,22.3212891 165.890137,22.3212891 C165.265785,22.3212891 164.559411,22.5126934 163.770996,22.8955078 L163.422363,22.0273438 C163.791506,21.8268219 164.195961,21.6695969 164.635742,21.5556641 C165.075523,21.4417312 165.516437,21.3847656 165.958496,21.3847656 C166.85173,21.3847656 167.51367,21.5830058 167.944336,21.9794922 C168.375002,22.3759785 168.590332,23.0117144 168.590332,23.8867188 L168.590332,29 L167.749512,29 Z M165.186035,28.2001953 C165.892419,28.2001953 166.447264,28.0065124 166.850586,27.6191406 C167.253908,27.2317689 167.455566,26.6894566 167.455566,25.9921875 L167.455566,25.3154297 L166.320801,25.3632812 C165.418453,25.3951825 164.767906,25.5353178 164.369141,25.7836914 C163.970376,26.032065 163.770996,26.4182917 163.770996,26.9423828 C163.770996,27.3525411 163.895181,27.6647125 164.143555,27.8789062 C164.391928,28.0931 164.739418,28.2001953 165.186035,28.2001953 Z M174.414551,29.1367188 C173.926918,29.1367188 173.481447,29.0467131 173.078125,28.8666992 C172.674803,28.6866853 172.336427,28.4098326 172.062988,28.0361328 L171.980957,28.0361328 C172.035645,28.473635 172.062988,28.8883444 172.062988,29.2802734 L172.062988,32.3632812 L170.928223,32.3632812 L170.928223,21.5078125 L171.851074,21.5078125 L172.008301,22.5332031 L172.062988,22.5332031 C172.354656,22.1230448 172.694171,21.8268238 173.081543,21.6445312 C173.468915,21.4622387 173.913246,21.3710938 174.414551,21.3710938 C175.408045,21.3710938 176.174802,21.7106086 176.714844,22.3896484 C177.254886,23.0686883 177.524902,24.0211527 177.524902,25.2470703 C177.524902,26.4775452 177.250328,27.4334276 176.701172,28.1147461 C176.152015,28.7960646 175.389816,29.1367188 174.414551,29.1367188 Z M174.250488,22.3349609 C173.484859,22.3349609 172.931154,22.5468729 172.589355,22.9707031 C172.247557,23.3945334 172.072103,24.0690058 172.062988,24.9941406 L172.062988,25.2470703 C172.062988,26.29981 172.238442,27.0528949 172.589355,27.5063477 C172.940269,27.9598004 173.503089,28.1865234 174.277832,28.1865234 C174.924971,28.1865234 175.431964,27.9244818 175.798828,27.4003906 C176.165692,26.8762995 176.349121,26.153976 176.349121,25.2333984 C176.349121,24.299149 176.165692,23.582522 175.798828,23.0834961 C175.431964,22.5844702 174.915856,22.3349609 174.250488,22.3349609 Z M182.993652,29.1367188 C182.50602,29.1367188 182.060549,29.0467131 181.657227,28.8666992 C181.253904,28.6866853 180.915529,28.4098326 180.64209,28.0361328 L180.560059,28.0361328 C180.614746,28.473635 180.64209,28.8883444 180.64209,29.2802734 L180.64209,32.3632812 L179.507324,32.3632812 L179.507324,21.5078125 L180.430176,21.5078125 L180.587402,22.5332031 L180.64209,22.5332031 C180.933758,22.1230448 181.273273,21.8268238 181.660645,21.6445312 C182.048016,21.4622387 182.492348,21.3710938 182.993652,21.3710938 C183.987147,21.3710938 184.753904,21.7106086 185.293945,22.3896484 C185.833987,23.0686883 186.104004,24.0211527 186.104004,25.2470703 C186.104004,26.4775452 185.82943,27.4334276 185.280273,28.1147461 C184.731117,28.7960646 183.968918,29.1367188 182.993652,29.1367188 Z M182.82959,22.3349609 C182.063961,22.3349609 181.510256,22.5468729 181.168457,22.9707031 C180.826658,23.3945334 180.651204,24.0690058 180.64209,24.9941406 L180.64209,25.2470703 C180.64209,26.29981 180.817544,27.0528949 181.168457,27.5063477 C181.51937,27.9598004 182.08219,28.1865234 182.856934,28.1865234 C183.504072,28.1865234 184.011066,27.9244818 184.37793,27.4003906 C184.744794,26.8762995 184.928223,26.153976 184.928223,25.2333984 C184.928223,24.299149 184.744794,23.582522 184.37793,23.0834961 C184.011066,22.5844702 183.494958,22.3349609 182.82959,22.3349609 Z" id="Generate-Angular-app" fill="#FFFFFF"></path>
                <g id="Group-Copy-5">
                    <g id="Rectangle-Copy-11">
                        <use fill="#F1F3F7" fill-rule="evenodd" xlink:href="#path-6"></use>
                        <path stroke="#785EF0" stroke-width="1" d="M24.5,49.5 L24.5,0.5 L3,0.5 C1.61928813,0.5 0.5,1.61928813 0.5,3 L0.5,47 C0.5,48.3807119 1.61928813,49.5 3,49.5 L24.5,49.5 Z"></path>
                    </g>
                    <path d="M9.79980469,24.7275391 C9.79980469,22.7633365 10.181474,21.294764 10.9448242,20.3217773 C11.7081744,19.3487907 12.8372321,18.8623047 14.3320312,18.8623047 C14.8470078,18.8623047 15.2526027,18.9055985 15.5488281,18.9921875 L15.5488281,19.9697266 C15.1979149,19.8557937 14.7968773,19.7988281 14.3457031,19.7988281 C13.2747342,19.7988281 12.4567086,20.1326464 11.8916016,20.800293 C11.3264946,21.4679395 11.0166018,22.5172454 10.9619141,23.9482422 L11.0439453,23.9482422 C11.5452499,23.1643841 12.3382107,22.7724609 13.4228516,22.7724609 C14.3206425,22.7724609 15.028155,23.0436171 15.5454102,23.5859375 C16.0626653,24.1282579 16.3212891,24.8642532 16.3212891,25.7939453 C16.3212891,26.833013 16.0376005,27.6498994 15.4702148,28.2446289 C14.9028292,28.8393584 14.1360725,29.1367188 13.1699219,29.1367188 C12.1354115,29.1367188 11.3151072,28.7482135 10.7089844,27.9711914 C10.1028616,27.1941693 9.79980469,26.1129627 9.79980469,24.7275391 Z M13.15625,28.1728516 C13.8033887,28.1728516 14.305825,27.9689148 14.6635742,27.5610352 C15.0213234,27.1531555 15.2001953,26.5641315 15.2001953,25.7939453 C15.2001953,25.1331347 15.0338558,24.6136087 14.7011719,24.2353516 C14.3684879,23.8570945 13.8717481,23.6679688 13.2109375,23.6679688 C12.8007792,23.6679688 12.4248064,23.7522778 12.0830078,23.9208984 C11.7412092,24.0895191 11.4689138,24.3219386 11.2661133,24.6181641 C11.0633128,24.9143895 10.9619141,25.2220036 10.9619141,25.5410156 C10.9619141,26.010419 11.053059,26.4479146 11.2353516,26.8535156 C11.4176441,27.2591166 11.6762679,27.5804025 12.0112305,27.8173828 C12.3461931,28.0543632 12.7278624,28.1728516 13.15625,28.1728516 Z" id="1" fill="#19273C"></path>
                </g>
            </g>
            <g id="Group-6" transform="translate(328.000000, 191.000000)">
                <g id="Rectangle-Copy-15">
                    <use fill="black" fill-opacity="1" filter="url(#filter-8)" xlink:href="#path-7"></use>
                    <use fill="#785EF0" fill-rule="evenodd" xlink:href="#path-7"></use>
                </g>
                <path d="M54.4921875,26.3408203 C54.4921875,27.220382 54.1731803,27.9062475 53.5351562,28.3984375 C52.8971322,28.8906275 52.0312555,29.1367188 50.9375,29.1367188 C49.7525982,29.1367188 48.841149,28.984051 48.203125,28.6787109 L48.203125,27.5576172 C48.6132833,27.7307951 49.0598934,27.8675125 49.5429688,27.9677734 C50.0260441,28.0680344 50.5045549,28.1181641 50.9785156,28.1181641 C51.7532591,28.1181641 52.3365866,27.9711929 52.7285156,27.6772461 C53.1204447,27.3832993 53.3164062,26.9742865 53.3164062,26.4501953 C53.3164062,26.1038394 53.2469082,25.8201508 53.1079102,25.5991211 C52.9689121,25.3780913 52.7364925,25.1741546 52.4106445,24.9873047 C52.0847965,24.8004548 51.589196,24.5885429 50.9238281,24.3515625 C49.994136,24.0188785 49.3299174,23.6246768 48.9311523,23.1689453 C48.5323873,22.7132139 48.3330078,22.1184933 48.3330078,21.3847656 C48.3330078,20.6145795 48.6223929,20.0016299 49.2011719,19.5458984 C49.7799508,19.090167 50.5455682,18.8623047 51.4980469,18.8623047 C52.4915414,18.8623047 53.4052693,19.0445945 54.2392578,19.4091797 L53.8769531,20.4208984 C53.0520792,20.0745425 52.2500039,19.9013672 51.4707031,19.9013672 C50.8554657,19.9013672 50.3746762,20.0335273 50.0283203,20.2978516 C49.6819644,20.5621758 49.5087891,20.9290341 49.5087891,21.3984375 C49.5087891,21.7447934 49.5725905,22.028482 49.7001953,22.2495117 C49.8278001,22.4705415 50.04313,22.6733389 50.3461914,22.8579102 C50.6492528,23.0424814 51.1129526,23.2464182 51.7373047,23.4697266 C52.785487,23.8434263 53.5066712,24.244464 53.9008789,24.6728516 C54.2950866,25.1012391 54.4921875,25.6572231 54.4921875,26.3408203 Z M58.7851562,28.2001953 C58.9856781,28.2001953 59.179361,28.1853843 59.3662109,28.1557617 C59.5530608,28.1261392 59.7011713,28.0953778 59.8105469,28.0634766 L59.8105469,28.9316406 C59.6874994,28.9908857 59.5063489,29.0398761 59.2670898,29.0786133 C59.0278308,29.1173505 58.812501,29.1367188 58.6210938,29.1367188 C57.1718678,29.1367188 56.4472656,28.37338 56.4472656,26.8466797 L56.4472656,22.3896484 L55.3740234,22.3896484 L55.3740234,21.8427734 L56.4472656,21.3710938 L56.9257812,19.7714844 L57.5820312,19.7714844 L57.5820312,21.5078125 L59.7558594,21.5078125 L59.7558594,22.3896484 L57.5820312,22.3896484 L57.5820312,26.7988281 C57.5820312,27.2500023 57.6891265,27.596353 57.9033203,27.8378906 C58.1175141,28.0794283 58.4114565,28.2001953 58.7851562,28.2001953 Z M65.9150391,29 L65.6894531,27.9335938 L65.6347656,27.9335938 C65.2610658,28.4029971 64.888511,28.7208651 64.5170898,28.887207 C64.1456687,29.053549 63.6819689,29.1367188 63.1259766,29.1367188 C62.3831343,29.1367188 61.8009461,28.9453144 61.3793945,28.5625 C60.9578429,28.1796856 60.7470703,27.6350947 60.7470703,26.9287109 C60.7470703,25.4156825 61.9570192,24.6227217 64.3769531,24.5498047 L65.6484375,24.5087891 L65.6484375,24.0439453 C65.6484375,23.4560517 65.5219739,23.0219741 65.269043,22.7416992 C65.016112,22.4614244 64.6116564,22.3212891 64.0556641,22.3212891 C63.431312,22.3212891 62.7249388,22.5126934 61.9365234,22.8955078 L61.5878906,22.0273438 C61.9570331,21.8268219 62.3614887,21.6695969 62.8012695,21.5556641 C63.2410504,21.4417312 63.6819639,21.3847656 64.1240234,21.3847656 C65.0172571,21.3847656 65.6791971,21.5830058 66.1098633,21.9794922 C66.5405295,22.3759785 66.7558594,23.0117144 66.7558594,23.8867188 L66.7558594,29 L65.9150391,29 Z M63.3515625,28.2001953 C64.0579462,28.2001953 64.612791,28.0065124 65.0161133,27.6191406 C65.4194356,27.2317689 65.6210938,26.6894566 65.6210938,25.9921875 L65.6210938,25.3154297 L64.4863281,25.3632812 C63.5839799,25.3951825 62.933433,25.5353178 62.534668,25.7836914 C62.135903,26.032065 61.9365234,26.4182917 61.9365234,26.9423828 C61.9365234,27.3525411 62.0607084,27.6647125 62.309082,27.8789062 C62.5574557,28.0931 62.9049457,28.2001953 63.3515625,28.2001953 Z M72.5117188,21.3710938 C72.8444027,21.3710938 73.1429023,21.3984372 73.4072266,21.453125 L73.25,22.5058594 C72.9401026,22.4374997 72.6666679,22.4033203 72.4296875,22.4033203 C71.8235647,22.4033203 71.3051779,22.6494116 70.8745117,23.1416016 C70.4438455,23.6337915 70.2285156,24.2467411 70.2285156,24.9804688 L70.2285156,29 L69.09375,29 L69.09375,21.5078125 L70.0302734,21.5078125 L70.1601562,22.8955078 L70.2148438,22.8955078 C70.4928399,22.4078752 70.8277975,22.0319024 71.2197266,21.7675781 C71.6116556,21.5032539 72.0423154,21.3710938 72.5117188,21.3710938 Z M77.2285156,28.2001953 C77.4290375,28.2001953 77.6227204,28.1853843 77.8095703,28.1557617 C77.9964202,28.1261392 78.1445307,28.0953778 78.2539062,28.0634766 L78.2539062,28.9316406 C78.1308588,28.9908857 77.9497082,29.0398761 77.7104492,29.0786133 C77.4711902,29.1173505 77.2558603,29.1367188 77.0644531,29.1367188 C75.6152271,29.1367188 74.890625,28.37338 74.890625,26.8466797 L74.890625,22.3896484 L73.8173828,22.3896484 L73.8173828,21.8427734 L74.890625,21.3710938 L75.3691406,19.7714844 L76.0253906,19.7714844 L76.0253906,21.5078125 L78.1992188,21.5078125 L78.1992188,22.3896484 L76.0253906,22.3896484 L76.0253906,26.7988281 C76.0253906,27.2500023 76.1324859,27.596353 76.3466797,27.8378906 C76.5608735,28.0794283 76.8548158,28.2001953 77.2285156,28.2001953 Z M84.7207031,24.84375 L84.7207031,29 L83.5585938,29 L83.5585938,19.0058594 L86.2998047,19.0058594 C87.5257223,19.0058594 88.4314749,19.2405575 89.0170898,19.7099609 C89.6027048,20.1793643 89.8955078,20.8857375 89.8955078,21.8291016 C89.8955078,23.1507228 89.2255926,24.043943 87.8857422,24.5087891 L90.5996094,29 L89.2255859,29 L86.8056641,24.84375 L84.7207031,24.84375 Z M84.7207031,23.8457031 L86.3134766,23.8457031 C87.1337932,23.8457031 87.7353496,23.6827816 88.1181641,23.3569336 C88.5009785,23.0310856 88.6923828,22.542321 88.6923828,21.890625 C88.6923828,21.2298144 88.4975605,20.7535822 88.1079102,20.4619141 C87.7182598,20.1702459 87.0927777,20.0244141 86.2314453,20.0244141 L84.7207031,20.0244141 L84.7207031,23.8457031 Z M97.7841797,29 L92.2128906,29 L92.2128906,19.0058594 L97.7841797,19.0058594 L97.7841797,20.0380859 L93.375,20.0380859 L93.375,23.2578125 L97.5175781,23.2578125 L97.5175781,24.2832031 L93.375,24.2832031 L93.375,27.9609375 L97.7841797,27.9609375 L97.7841797,29 Z M105.638672,26.3408203 C105.638672,27.220382 105.319665,27.9062475 104.681641,28.3984375 C104.043617,28.8906275 103.17774,29.1367188 102.083984,29.1367188 C100.899083,29.1367188 99.9876334,28.984051 99.3496094,28.6787109 L99.3496094,27.5576172 C99.7597677,27.7307951 100.206378,27.8675125 100.689453,27.9677734 C101.172528,28.0680344 101.651039,28.1181641 102.125,28.1181641 C102.899743,28.1181641 103.483071,27.9711929 103.875,27.6772461 C104.266929,27.3832993 104.462891,26.9742865 104.462891,26.4501953 C104.462891,26.1038394 104.393393,25.8201508 104.254395,25.5991211 C104.115396,25.3780913 103.882977,25.1741546 103.557129,24.9873047 C103.231281,24.8004548 102.73568,24.5885429 102.070312,24.3515625 C101.14062,24.0188785 100.476402,23.6246768 100.077637,23.1689453 C99.6788717,22.7132139 99.4794922,22.1184933 99.4794922,21.3847656 C99.4794922,20.6145795 99.7688773,20.0016299 100.347656,19.5458984 C100.926435,19.090167 101.692053,18.8623047 102.644531,18.8623047 C103.638026,18.8623047 104.551754,19.0445945 105.385742,19.4091797 L105.023438,20.4208984 C104.198564,20.0745425 103.396488,19.9013672 102.617188,19.9013672 C102.00195,19.9013672 101.521161,20.0335273 101.174805,20.2978516 C100.828449,20.5621758 100.655273,20.9290341 100.655273,21.3984375 C100.655273,21.7447934 100.719075,22.028482 100.84668,22.2495117 C100.974284,22.4705415 101.189614,22.6733389 101.492676,22.8579102 C101.795737,23.0424814 102.259437,23.2464182 102.883789,23.4697266 C103.931971,23.8434263 104.653156,24.244464 105.047363,24.6728516 C105.441571,25.1012391 105.638672,25.6572231 105.638672,26.3408203 Z M110.758789,29 L109.59668,29 L109.59668,20.0380859 L106.431641,20.0380859 L106.431641,19.0058594 L113.923828,19.0058594 L113.923828,20.0380859 L110.758789,20.0380859 L110.758789,29 Z M123.726562,26.9560547 C123.726562,27.6533238 123.466799,28.1910788 122.947266,28.5693359 C122.427732,28.947593 121.698572,29.1367188 120.759766,29.1367188 C119.766271,29.1367188 118.991539,28.9794938 118.435547,28.6650391 L118.435547,27.6123047 C118.795575,27.7945973 119.181801,27.9381505 119.594238,28.0429688 C120.006675,28.147787 120.404295,28.2001953 120.787109,28.2001953 C121.37956,28.2001953 121.835285,28.1056325 122.154297,27.9165039 C122.473309,27.7273754 122.632812,27.4391295 122.632812,27.0517578 C122.632812,26.7600897 122.506349,26.5105805 122.253418,26.3032227 C122.000487,26.0958648 121.507165,25.8509129 120.773438,25.5683594 C120.076168,25.3085925 119.580568,25.0818695 119.286621,24.8881836 C118.992674,24.6944977 118.773926,24.4746106 118.630371,24.2285156 C118.486816,23.9824206 118.415039,23.6884783 118.415039,23.3466797 C118.415039,22.7359996 118.663409,22.2540708 119.160156,21.9008789 C119.656904,21.547687 120.338212,21.3710938 121.204102,21.3710938 C122.010746,21.3710938 122.79915,21.5351546 123.569336,21.8632812 L123.166016,22.7861328 C122.414059,22.4762354 121.73275,22.3212891 121.12207,22.3212891 C120.584307,22.3212891 120.178712,22.4055981 119.905273,22.5742188 C119.631835,22.7428394 119.495117,22.9752589 119.495117,23.2714844 C119.495117,23.4720062 119.546386,23.6429029 119.648926,23.7841797 C119.751465,23.9254564 119.916666,24.0598952 120.144531,24.1875 C120.372397,24.3151048 120.809893,24.4996733 121.457031,24.7412109 C122.345708,25.0647803 122.946125,25.3906234 123.258301,25.71875 C123.570477,26.0468766 123.726562,26.4593074 123.726562,26.9560547 Z M128.737305,29.1367188 C127.629877,29.1367188 126.756025,28.7994825 126.115723,28.125 C125.47542,27.4505175 125.155273,26.5140034 125.155273,25.3154297 C125.155273,24.1077414 125.452634,23.1484411 126.047363,22.4375 C126.642093,21.7265589 127.44075,21.3710938 128.443359,21.3710938 C129.382166,21.3710938 130.124997,21.6798472 130.671875,22.2973633 C131.218753,22.9148794 131.492188,23.7294871 131.492188,24.7412109 L131.492188,25.4589844 L126.331055,25.4589844 C126.353841,26.3385461 126.576007,27.0061826 126.997559,27.4619141 C127.41911,27.9176455 128.012691,28.1455078 128.77832,28.1455078 C129.584965,28.1455078 130.382483,27.9768897 131.170898,27.6396484 L131.170898,28.6513672 C130.769855,28.8245451 130.390464,28.9487301 130.032715,29.0239258 C129.674966,29.0991215 129.243167,29.1367188 128.737305,29.1367188 Z M128.429688,22.3212891 C127.828122,22.3212891 127.348472,22.5172506 126.990723,22.9091797 C126.632973,23.3011087 126.422201,23.843421 126.358398,24.5361328 L130.275391,24.5361328 C130.275391,23.8206344 130.115887,23.2726256 129.796875,22.8920898 C129.477863,22.5115541 129.022138,22.3212891 128.429688,22.3212891 Z M136.844727,21.3710938 C137.177411,21.3710938 137.47591,21.3984372 137.740234,21.453125 L137.583008,22.5058594 C137.27311,22.4374997 136.999676,22.4033203 136.762695,22.4033203 C136.156572,22.4033203 135.638186,22.6494116 135.20752,23.1416016 C134.776853,23.6337915 134.561523,24.2467411 134.561523,24.9804688 L134.561523,29 L133.426758,29 L133.426758,21.5078125 L134.363281,21.5078125 L134.493164,22.8955078 L134.547852,22.8955078 C134.825848,22.4078752 135.160805,22.0319024 135.552734,21.7675781 C135.944663,21.5032539 136.375323,21.3710938 136.844727,21.3710938 Z M140.782227,29 L137.938477,21.5078125 L139.155273,21.5078125 L140.768555,25.9511719 C141.13314,26.9902396 141.34733,27.664712 141.411133,27.9746094 L141.46582,27.9746094 C141.515951,27.7330717 141.674315,27.232914 141.940918,26.4741211 C142.207521,25.7153282 142.805659,24.0599086 143.735352,21.5078125 L144.952148,21.5078125 L142.108398,29 L140.782227,29 Z M149.320312,29.1367188 C148.212885,29.1367188 147.339033,28.7994825 146.69873,28.125 C146.058428,27.4505175 145.738281,26.5140034 145.738281,25.3154297 C145.738281,24.1077414 146.035642,23.1484411 146.630371,22.4375 C147.225101,21.7265589 148.023758,21.3710938 149.026367,21.3710938 C149.965174,21.3710938 150.708005,21.6798472 151.254883,22.2973633 C151.801761,22.9148794 152.075195,23.7294871 152.075195,24.7412109 L152.075195,25.4589844 L146.914062,25.4589844 C146.936849,26.3385461 147.159015,27.0061826 147.580566,27.4619141 C148.002118,27.9176455 148.595699,28.1455078 149.361328,28.1455078 C150.167973,28.1455078 150.965491,27.9768897 151.753906,27.6396484 L151.753906,28.6513672 C151.352863,28.8245451 150.973472,28.9487301 150.615723,29.0239258 C150.257973,29.0991215 149.826174,29.1367188 149.320312,29.1367188 Z M149.012695,22.3212891 C148.41113,22.3212891 147.93148,22.5172506 147.57373,22.9091797 C147.215981,23.3011087 147.005209,23.843421 146.941406,24.5361328 L150.858398,24.5361328 C150.858398,23.8206344 150.698895,23.2726256 150.379883,22.8920898 C150.060871,22.5115541 149.605146,22.3212891 149.012695,22.3212891 Z M157.427734,21.3710938 C157.760418,21.3710938 158.058918,21.3984372 158.323242,21.453125 L158.166016,22.5058594 C157.856118,22.4374997 157.582683,22.4033203 157.345703,22.4033203 C156.73958,22.4033203 156.221194,22.6494116 155.790527,23.1416016 C155.359861,23.6337915 155.144531,24.2467411 155.144531,24.9804688 L155.144531,29 L154.009766,29 L154.009766,21.5078125 L154.946289,21.5078125 L155.076172,22.8955078 L155.130859,22.8955078 C155.408856,22.4078752 155.743813,22.0319024 156.135742,21.7675781 C156.527671,21.5032539 156.958331,21.3710938 157.427734,21.3710938 Z" id="Start-REST-server" fill="#FFFFFF"></path>
                <g id="Group-Copy-4">
                    <g id="Rectangle-Copy-11">
                        <use fill="#F1F3F7" fill-rule="evenodd" xlink:href="#path-9"></use>
                        <path stroke="#785EF0" stroke-width="1" d="M24.5,49.5 L24.5,0.5 L3,0.5 C1.61928813,0.5 0.5,1.61928813 0.5,3 L0.5,47 C0.5,48.3807119 1.61928813,49.5 3,49.5 L24.5,49.5 Z"></path>
                    </g>
                    <path d="M12.8076172,22.8955078 C13.8603568,22.8955078 14.6886363,23.1564102 15.2924805,23.6782227 C15.8963246,24.2000352 16.1982422,24.9143835 16.1982422,25.8212891 C16.1982422,26.8557994 15.8689812,27.6669892 15.2104492,28.2548828 C14.5519173,28.8427764 13.643886,29.1367188 12.4863281,29.1367188 C11.3606715,29.1367188 10.5016306,28.9567075 9.90917969,28.5966797 L9.90917969,27.5029297 C10.2281917,27.7080088 10.6246721,27.8686518 11.0986328,27.9848633 C11.5725935,28.1010748 12.0397112,28.1591797 12.5,28.1591797 C13.3020873,28.1591797 13.9252907,27.970054 14.3696289,27.5917969 C14.8139671,27.2135398 15.0361328,26.6666702 15.0361328,25.9511719 C15.0361328,24.5566337 14.1816492,23.859375 12.4726562,23.859375 C12.0397114,23.859375 11.4609411,23.9254551 10.7363281,24.0576172 L10.1484375,23.6816406 L10.5244141,19.0058594 L15.4941406,19.0058594 L15.4941406,20.0517578 L11.4951172,20.0517578 L11.2421875,23.0527344 C11.7662787,22.9479161 12.2880833,22.8955078 12.8076172,22.8955078 Z" id="1" fill="#19273C"></path>
                </g>
            </g>
            <g id="Group-5" transform="translate(70.000000, 191.000000)">
                <g id="Rectangle-Copy-14">
                    <use fill="black" fill-opacity="1" filter="url(#filter-11)" xlink:href="#path-10"></use>
                    <use fill="#785EF0" fill-rule="evenodd" xlink:href="#path-10"></use>
                </g>
                <path d="M45.2041016,23.7636719 L48.6015625,23.7636719 L48.6015625,28.6240234 C48.072914,28.7926441 47.535159,28.920247 46.9882812,29.0068359 C46.4414035,29.0934249 45.8079463,29.1367188 45.0878906,29.1367188 C43.5748622,29.1367188 42.3968141,28.6866907 41.5537109,27.7866211 C40.7106078,26.8865515 40.2890625,25.6253336 40.2890625,24.0029297 C40.2890625,22.963862 40.4975565,22.0535521 40.9145508,21.2719727 C41.3315451,20.4903932 41.9319622,19.893394 42.7158203,19.480957 C43.4996784,19.0685201 44.4179635,18.8623047 45.4707031,18.8623047 C46.5371147,18.8623047 47.5305944,19.0582663 48.4511719,19.4501953 L48,20.4755859 C47.0976517,20.0927715 46.2294964,19.9013672 45.3955078,19.9013672 C44.1787049,19.9013672 43.228519,20.2636683 42.5449219,20.9882812 C41.8613247,21.7128942 41.5195312,22.717767 41.5195312,24.0029297 C41.5195312,25.3518948 41.8487923,26.3749965 42.5073242,27.0722656 C43.1658562,27.7695347 44.1331316,28.1181641 45.4091797,28.1181641 C46.1018915,28.1181641 46.7786425,28.0384123 47.4394531,27.8789062 L47.4394531,24.8027344 L45.2041016,24.8027344 L45.2041016,23.7636719 Z M53.9951172,29.1367188 C52.8876898,29.1367188 52.0138378,28.7994825 51.3735352,28.125 C50.7332325,27.4505175 50.4130859,26.5140034 50.4130859,25.3154297 C50.4130859,24.1077414 50.7104462,23.1484411 51.3051758,22.4375 C51.8999053,21.7265589 52.6985627,21.3710938 53.7011719,21.3710938 C54.6399787,21.3710938 55.3828098,21.6798472 55.9296875,22.2973633 C56.4765652,22.9148794 56.75,23.7294871 56.75,24.7412109 L56.75,25.4589844 L51.5888672,25.4589844 C51.6116538,26.3385461 51.8338195,27.0061826 52.2553711,27.4619141 C52.6769227,27.9176455 53.270504,28.1455078 54.0361328,28.1455078 C54.8427775,28.1455078 55.6402955,27.9768897 56.4287109,27.6396484 L56.4287109,28.6513672 C56.0276673,28.8245451 55.6482765,28.9487301 55.2905273,29.0239258 C54.9327782,29.0991215 54.5009791,29.1367188 53.9951172,29.1367188 Z M53.6875,22.3212891 C53.0859345,22.3212891 52.6062843,22.5172506 52.2485352,22.9091797 C51.890786,23.3011087 51.6800133,23.843421 51.6162109,24.5361328 L55.5332031,24.5361328 C55.5332031,23.8206344 55.3736995,23.2726256 55.0546875,22.8920898 C54.7356755,22.5115541 54.2799509,22.3212891 53.6875,22.3212891 Z M63.8115234,29 L63.8115234,24.1533203 C63.8115234,23.5426402 63.6725274,23.0869156 63.3945312,22.7861328 C63.1165351,22.4853501 62.6813181,22.3349609 62.0888672,22.3349609 C61.3050091,22.3349609 60.7307961,22.5468729 60.3662109,22.9707031 C60.0016258,23.3945334 59.8193359,24.0940706 59.8193359,25.0693359 L59.8193359,29 L58.6845703,29 L58.6845703,21.5078125 L59.6074219,21.5078125 L59.7919922,22.5332031 L59.8466797,22.5332031 C60.0791027,22.1640607 60.4049458,21.8780935 60.8242188,21.675293 C61.2434917,21.4724925 61.7106094,21.3710938 62.2255859,21.3710938 C63.1279342,21.3710938 63.8069639,21.5887023 64.2626953,22.0239258 C64.7184268,22.4591493 64.9462891,23.1552687 64.9462891,24.1123047 L64.9462891,29 L63.8115234,29 Z M70.4423828,29.1367188 C69.3349554,29.1367188 68.4611035,28.7994825 67.8208008,28.125 C67.1804981,27.4505175 66.8603516,26.5140034 66.8603516,25.3154297 C66.8603516,24.1077414 67.1577119,23.1484411 67.7524414,22.4375 C68.3471709,21.7265589 69.1458283,21.3710938 70.1484375,21.3710938 C71.0872443,21.3710938 71.8300754,21.6798472 72.3769531,22.2973633 C72.9238309,22.9148794 73.1972656,23.7294871 73.1972656,24.7412109 L73.1972656,25.4589844 L68.0361328,25.4589844 C68.0589194,26.3385461 68.2810851,27.0061826 68.7026367,27.4619141 C69.1241883,27.9176455 69.7177696,28.1455078 70.4833984,28.1455078 C71.2900431,28.1455078 72.0875612,27.9768897 72.8759766,27.6396484 L72.8759766,28.6513672 C72.4749329,28.8245451 72.0955422,28.9487301 71.737793,29.0239258 C71.3800438,29.0991215 70.9482447,29.1367188 70.4423828,29.1367188 Z M70.1347656,22.3212891 C69.5332001,22.3212891 69.05355,22.5172506 68.6958008,22.9091797 C68.3380516,23.3011087 68.127279,23.843421 68.0634766,24.5361328 L71.9804688,24.5361328 C71.9804688,23.8206344 71.8209651,23.2726256 71.5019531,22.8920898 C71.1829411,22.5115541 70.7272165,22.3212891 70.1347656,22.3212891 Z M78.5498047,21.3710938 C78.8824886,21.3710938 79.1809883,21.3984372 79.4453125,21.453125 L79.2880859,22.5058594 C78.9781886,22.4374997 78.7047538,22.4033203 78.4677734,22.4033203 C77.8616506,22.4033203 77.3432639,22.6494116 76.9125977,23.1416016 C76.4819314,23.6337915 76.2666016,24.2467411 76.2666016,24.9804688 L76.2666016,29 L75.1318359,29 L75.1318359,21.5078125 L76.0683594,21.5078125 L76.1982422,22.8955078 L76.2529297,22.8955078 C76.5309259,22.4078752 76.8658835,22.0319024 77.2578125,21.7675781 C77.6497415,21.5032539 78.0804013,21.3710938 78.5498047,21.3710938 Z M85.4541016,29 L85.2285156,27.9335938 L85.1738281,27.9335938 C84.8001283,28.4029971 84.4275735,28.7208651 84.0561523,28.887207 C83.6847312,29.053549 83.2210314,29.1367188 82.6650391,29.1367188 C81.9221968,29.1367188 81.3400086,28.9453144 80.918457,28.5625 C80.4969054,28.1796856 80.2861328,27.6350947 80.2861328,26.9287109 C80.2861328,25.4156825 81.4960817,24.6227217 83.9160156,24.5498047 L85.1875,24.5087891 L85.1875,24.0439453 C85.1875,23.4560517 85.0610364,23.0219741 84.8081055,22.7416992 C84.5551745,22.4614244 84.1507189,22.3212891 83.5947266,22.3212891 C82.9703745,22.3212891 82.2640013,22.5126934 81.4755859,22.8955078 L81.1269531,22.0273438 C81.4960956,21.8268219 81.9005512,21.6695969 82.340332,21.5556641 C82.7801129,21.4417312 83.2210264,21.3847656 83.6630859,21.3847656 C84.5563196,21.3847656 85.2182596,21.5830058 85.6489258,21.9794922 C86.079592,22.3759785 86.2949219,23.0117144 86.2949219,23.8867188 L86.2949219,29 L85.4541016,29 Z M82.890625,28.2001953 C83.5970087,28.2001953 84.1518535,28.0065124 84.5551758,27.6191406 C84.9584981,27.2317689 85.1601562,26.6894566 85.1601562,25.9921875 L85.1601562,25.3154297 L84.0253906,25.3632812 C83.1230424,25.3951825 82.4724955,25.5353178 82.0737305,25.7836914 C81.6749655,26.032065 81.4755859,26.4182917 81.4755859,26.9423828 C81.4755859,27.3525411 81.5997709,27.6647125 81.8481445,27.8789062 C82.0965182,28.0931 82.4440082,28.2001953 82.890625,28.2001953 Z M91.0527344,28.2001953 C91.2532562,28.2001953 91.4469392,28.1853843 91.6337891,28.1557617 C91.820639,28.1261392 91.9687495,28.0953778 92.078125,28.0634766 L92.078125,28.9316406 C91.9550775,28.9908857 91.773927,29.0398761 91.534668,29.0786133 C91.295409,29.1173505 91.0800791,29.1367188 90.8886719,29.1367188 C89.4394459,29.1367188 88.7148438,28.37338 88.7148438,26.8466797 L88.7148438,22.3896484 L87.6416016,22.3896484 L87.6416016,21.8427734 L88.7148438,21.3710938 L89.1933594,19.7714844 L89.8496094,19.7714844 L89.8496094,21.5078125 L92.0234375,21.5078125 L92.0234375,22.3896484 L89.8496094,22.3896484 L89.8496094,26.7988281 C89.8496094,27.2500023 89.9567047,27.596353 90.1708984,27.8378906 C90.3850922,28.0794283 90.6790346,28.2001953 91.0527344,28.2001953 Z M96.7402344,29.1367188 C95.632807,29.1367188 94.758955,28.7994825 94.1186523,28.125 C93.4783497,27.4505175 93.1582031,26.5140034 93.1582031,25.3154297 C93.1582031,24.1077414 93.4555634,23.1484411 94.050293,22.4375 C94.6450225,21.7265589 95.4436799,21.3710938 96.4462891,21.3710938 C97.3850958,21.3710938 98.127927,21.6798472 98.6748047,22.2973633 C99.2216824,22.9148794 99.4951172,23.7294871 99.4951172,24.7412109 L99.4951172,25.4589844 L94.3339844,25.4589844 C94.3567709,26.3385461 94.5789367,27.0061826 95.0004883,27.4619141 C95.4220399,27.9176455 96.0156212,28.1455078 96.78125,28.1455078 C97.5878947,28.1455078 98.3854127,27.9768897 99.1738281,27.6396484 L99.1738281,28.6513672 C98.7727845,28.8245451 98.3933937,28.9487301 98.0356445,29.0239258 C97.6778953,29.0991215 97.2460963,29.1367188 96.7402344,29.1367188 Z M96.4326172,22.3212891 C95.8310517,22.3212891 95.3514015,22.5172506 94.9936523,22.9091797 C94.6359032,23.3011087 94.4251305,23.843421 94.3613281,24.5361328 L98.2783203,24.5361328 C98.2783203,23.8206344 98.1188167,23.2726256 97.7998047,22.8920898 C97.4807927,22.5115541 97.0250681,22.3212891 96.4326172,22.3212891 Z M111.519531,29 L110.275391,25.8212891 L106.269531,25.8212891 L105.039062,29 L103.863281,29 L107.814453,18.9648438 L108.791992,18.9648438 L112.722656,29 L111.519531,29 Z M109.913086,24.7753906 L108.750977,21.6787109 C108.600585,21.2867819 108.445639,20.8059924 108.286133,20.2363281 C108.185872,20.6738303 108.042319,21.1546198 107.855469,21.6787109 L106.679688,24.7753906 L109.913086,24.7753906 Z M119.025391,27.9951172 L118.963867,27.9951172 C118.439776,28.7561887 117.65593,29.1367188 116.612305,29.1367188 C115.632482,29.1367188 114.870283,28.8017612 114.325684,28.1318359 C113.781085,27.4619107 113.508789,26.5094463 113.508789,25.2744141 C113.508789,24.0393818 113.782224,23.0800815 114.329102,22.3964844 C114.875979,21.7128872 115.637039,21.3710938 116.612305,21.3710938 C117.628586,21.3710938 118.407875,21.7402307 118.950195,22.4785156 L119.039062,22.4785156 L118.991211,21.9384766 L118.963867,21.4121094 L118.963867,18.3632812 L120.098633,18.3632812 L120.098633,29 L119.175781,29 L119.025391,27.9951172 Z M116.755859,28.1865234 C117.530603,28.1865234 118.092283,27.9757508 118.440918,27.5541992 C118.789553,27.1326476 118.963867,26.4524787 118.963867,25.5136719 L118.963867,25.2744141 C118.963867,24.2125598 118.787274,23.4549176 118.434082,23.0014648 C118.08089,22.5480121 117.516931,22.3212891 116.742188,22.3212891 C116.07682,22.3212891 115.567547,22.5799128 115.214355,23.097168 C114.861164,23.6144232 114.68457,24.3447218 114.68457,25.2880859 C114.68457,26.245122 114.860024,26.9674455 115.210938,27.4550781 C115.561851,27.9427108 116.07682,28.1865234 116.755859,28.1865234 Z M132.054688,29 L132.054688,24.1259766 C132.054688,23.5289684 131.927085,23.0812189 131.671875,22.7827148 C131.416665,22.4842107 131.020185,22.3349609 130.482422,22.3349609 C129.776038,22.3349609 129.254233,22.5377584 128.916992,22.9433594 C128.579751,23.3489604 128.411133,23.9733031 128.411133,24.8164062 L128.411133,29 L127.276367,29 L127.276367,24.1259766 C127.276367,23.5289684 127.148764,23.0812189 126.893555,22.7827148 C126.638345,22.4842107 126.239586,22.3349609 125.697266,22.3349609 C124.986325,22.3349609 124.465659,22.5480122 124.135254,22.9741211 C123.804849,23.40023 123.639648,24.098628 123.639648,25.0693359 L123.639648,29 L122.504883,29 L122.504883,21.5078125 L123.427734,21.5078125 L123.612305,22.5332031 L123.666992,22.5332031 C123.881186,22.168618 124.183104,21.8837901 124.572754,21.6787109 C124.962404,21.4736318 125.398761,21.3710938 125.881836,21.3710938 C127.053066,21.3710938 127.818683,21.7949176 128.178711,22.6425781 L128.233398,22.6425781 C128.456707,22.2506491 128.780271,21.9407563 129.204102,21.7128906 C129.627932,21.4850249 130.111,21.3710938 130.65332,21.3710938 C131.500981,21.3710938 132.135577,21.5887023 132.557129,22.0239258 C132.97868,22.4591493 133.189453,23.1552687 133.189453,24.1123047 L133.189453,29 L132.054688,29 Z M136.662109,29 L135.527344,29 L135.527344,21.5078125 L136.662109,21.5078125 L136.662109,29 Z M135.431641,19.4775391 C135.431641,19.2177721 135.495442,19.0275071 135.623047,18.9067383 C135.750652,18.7859694 135.910155,18.7255859 136.101562,18.7255859 C136.283855,18.7255859 136.44108,18.7871088 136.573242,18.9101562 C136.705404,19.0332037 136.771484,19.2223295 136.771484,19.4775391 C136.771484,19.7327487 136.705404,19.9230137 136.573242,20.0483398 C136.44108,20.173666 136.283855,20.2363281 136.101562,20.2363281 C135.910155,20.2363281 135.750652,20.173666 135.623047,20.0483398 C135.495442,19.9230137 135.431641,19.7327487 135.431641,19.4775391 Z M144.195312,29 L144.195312,24.1533203 C144.195312,23.5426402 144.056316,23.0869156 143.77832,22.7861328 C143.500324,22.4853501 143.065107,22.3349609 142.472656,22.3349609 C141.688798,22.3349609 141.114585,22.5468729 140.75,22.9707031 C140.385415,23.3945334 140.203125,24.0940706 140.203125,25.0693359 L140.203125,29 L139.068359,29 L139.068359,21.5078125 L139.991211,21.5078125 L140.175781,22.5332031 L140.230469,22.5332031 C140.462892,22.1640607 140.788735,21.8780935 141.208008,21.675293 C141.627281,21.4724925 142.094398,21.3710938 142.609375,21.3710938 C143.511723,21.3710938 144.190753,21.5887023 144.646484,22.0239258 C145.102216,22.4591493 145.330078,23.1552687 145.330078,24.1123047 L145.330078,29 L144.195312,29 Z M151.133789,28.2753906 C151.133789,27.9700506 151.203287,27.7387703 151.342285,27.581543 C151.481283,27.4243156 151.680663,27.3457031 151.94043,27.3457031 C152.204754,27.3457031 152.410969,27.4243156 152.559082,27.581543 C152.707195,27.7387703 152.78125,27.9700506 152.78125,28.2753906 C152.78125,28.5716161 152.706055,28.7994784 152.555664,28.9589844 C152.405273,29.1184904 152.200197,29.1982422 151.94043,29.1982422 C151.708007,29.1982422 151.515463,29.1264656 151.362793,28.9829102 C151.210123,28.8393548 151.133789,28.6035173 151.133789,28.2753906 Z M158.017578,29.1367188 C156.932937,29.1367188 156.093265,28.8029005 155.498535,28.1352539 C154.903806,27.4676073 154.606445,26.5231181 154.606445,25.3017578 C154.606445,24.0484963 154.908363,23.0800815 155.512207,22.3964844 C156.116051,21.7128872 156.976231,21.3710938 158.092773,21.3710938 C158.452801,21.3710938 158.812824,21.4098303 159.172852,21.4873047 C159.532879,21.564779 159.815429,21.655924 160.020508,21.7607422 L159.671875,22.7246094 C159.421223,22.6243485 159.147788,22.5411787 158.851562,22.4750977 C158.555337,22.4090166 158.293295,22.3759766 158.06543,22.3759766 C156.543287,22.3759766 155.782227,23.34667 155.782227,25.2880859 C155.782227,26.2086635 155.967934,26.9150366 156.339355,27.4072266 C156.710777,27.8994165 157.261064,28.1455078 157.990234,28.1455078 C158.614586,28.1455078 159.25488,28.0110691 159.911133,27.7421875 L159.911133,28.7470703 C159.409828,29.0068372 158.77865,29.1367188 158.017578,29.1367188 Z M166.295898,29 L166.070312,27.9335938 L166.015625,27.9335938 C165.641925,28.4029971 165.26937,28.7208651 164.897949,28.887207 C164.526528,29.053549 164.062828,29.1367188 163.506836,29.1367188 C162.763994,29.1367188 162.181805,28.9453144 161.760254,28.5625 C161.338702,28.1796856 161.12793,27.6350947 161.12793,26.9287109 C161.12793,25.4156825 162.337879,24.6227217 164.757812,24.5498047 L166.029297,24.5087891 L166.029297,24.0439453 C166.029297,23.4560517 165.902833,23.0219741 165.649902,22.7416992 C165.396971,22.4614244 164.992516,22.3212891 164.436523,22.3212891 C163.812171,22.3212891 163.105798,22.5126934 162.317383,22.8955078 L161.96875,22.0273438 C162.337892,21.8268219 162.742348,21.6695969 163.182129,21.5556641 C163.62191,21.4417312 164.062823,21.3847656 164.504883,21.3847656 C165.398116,21.3847656 166.060056,21.5830058 166.490723,21.9794922 C166.921389,22.3759785 167.136719,23.0117144 167.136719,23.8867188 L167.136719,29 L166.295898,29 Z M163.732422,28.2001953 C164.438806,28.2001953 164.99365,28.0065124 165.396973,27.6191406 C165.800295,27.2317689 166.001953,26.6894566 166.001953,25.9921875 L166.001953,25.3154297 L164.867188,25.3632812 C163.964839,25.3951825 163.314292,25.5353178 162.915527,25.7836914 C162.516762,26.032065 162.317383,26.4182917 162.317383,26.9423828 C162.317383,27.3525411 162.441568,27.6647125 162.689941,27.8789062 C162.938315,28.0931 163.285805,28.2001953 163.732422,28.2001953 Z M172.892578,21.3710938 C173.225262,21.3710938 173.523762,21.3984372 173.788086,21.453125 L173.630859,22.5058594 C173.320962,22.4374997 173.047527,22.4033203 172.810547,22.4033203 C172.204424,22.4033203 171.686037,22.6494116 171.255371,23.1416016 C170.824705,23.6337915 170.609375,24.2467411 170.609375,24.9804688 L170.609375,29 L169.474609,29 L169.474609,21.5078125 L170.411133,21.5078125 L170.541016,22.8955078 L170.595703,22.8955078 C170.873699,22.4078752 171.208657,22.0319024 171.600586,21.7675781 C171.992515,21.5032539 172.423175,21.3710938 172.892578,21.3710938 Z M180.289062,27.9951172 L180.227539,27.9951172 C179.703448,28.7561887 178.919602,29.1367188 177.875977,29.1367188 C176.896154,29.1367188 176.133955,28.8017612 175.589355,28.1318359 C175.044756,27.4619107 174.772461,26.5094463 174.772461,25.2744141 C174.772461,24.0393818 175.045896,23.0800815 175.592773,22.3964844 C176.139651,21.7128872 176.900711,21.3710938 177.875977,21.3710938 C178.892258,21.3710938 179.671547,21.7402307 180.213867,22.4785156 L180.302734,22.4785156 L180.254883,21.9384766 L180.227539,21.4121094 L180.227539,18.3632812 L181.362305,18.3632812 L181.362305,29 L180.439453,29 L180.289062,27.9951172 Z M178.019531,28.1865234 C178.794275,28.1865234 179.355955,27.9757508 179.70459,27.5541992 C180.053224,27.1326476 180.227539,26.4524787 180.227539,25.5136719 L180.227539,25.2744141 C180.227539,24.2125598 180.050946,23.4549176 179.697754,23.0014648 C179.344562,22.5480121 178.780603,22.3212891 178.005859,22.3212891 C177.340491,22.3212891 176.831219,22.5799128 176.478027,23.097168 C176.124835,23.6144232 175.948242,24.3447218 175.948242,25.2880859 C175.948242,26.245122 176.123696,26.9674455 176.474609,27.4550781 C176.825523,27.9427108 177.340491,28.1865234 178.019531,28.1865234 Z" id="Generate-Admin-.card" fill="#FFFFFF"></path>
                <g id="Group-Copy-3">
                    <g id="Rectangle-Copy-11">
                        <use fill="#F1F3F7" fill-rule="evenodd" xlink:href="#path-12"></use>
                        <path stroke="#785EF0" stroke-width="1" d="M24.5,49.5 L24.5,0.5 L3,0.5 C1.61928813,0.5 0.5,1.61928813 0.5,3 L0.5,47 C0.5,48.3807119 1.61928813,49.5 3,49.5 L24.5,49.5 Z"></path>
                    </g>
                    <path d="M16.7246094,26.703125 L15.2412109,26.703125 L15.2412109,29 L14.1542969,29 L14.1542969,26.703125 L9.29394531,26.703125 L9.29394531,25.7119141 L14.0380859,18.9511719 L15.2412109,18.9511719 L15.2412109,25.6708984 L16.7246094,25.6708984 L16.7246094,26.703125 Z M14.1542969,25.6708984 L14.1542969,22.3486328 C14.1542969,21.6969368 14.1770831,20.9609416 14.2226562,20.140625 L14.1679688,20.140625 C13.9492177,20.5781272 13.7441416,20.9404283 13.5527344,21.2275391 L10.4287109,25.6708984 L14.1542969,25.6708984 Z" id="1" fill="#19273C"></path>
                </g>
            </g>
            <g id="Group-3" transform="translate(276.000000, 76.000000)">
                <g id="Rectangle-Copy-12">
                    <use fill="black" fill-opacity="1" filter="url(#filter-14)" xlink:href="#path-13"></use>
                    <use fill="#785EF0" fill-rule="evenodd" xlink:href="#path-13"></use>
                </g>
                <path d="M42.1704102,21.9179688 C42.1704102,22.9296926 41.8251988,23.7078423 41.1347656,24.2524414 C40.4443325,24.7970405 39.4565494,25.0693359 38.1713867,25.0693359 L36.9956055,25.0693359 L36.9956055,29 L35.8334961,29 L35.8334961,19.0058594 L38.4243164,19.0058594 C40.9217247,19.0058594 42.1704102,19.9765528 42.1704102,21.9179688 Z M36.9956055,24.0712891 L38.0415039,24.0712891 C39.071457,24.0712891 39.8165667,23.9049496 40.2768555,23.5722656 C40.7371442,23.2395817 40.9672852,22.7063839 40.9672852,21.9726562 C40.9672852,21.3118457 40.750816,20.8196631 40.3178711,20.4960938 C39.8849262,20.1725244 39.2104538,20.0107422 38.2944336,20.0107422 L36.9956055,20.0107422 L36.9956055,24.0712891 Z M47.5092773,21.3710938 C47.8419613,21.3710938 48.1404609,21.3984372 48.4047852,21.453125 L48.2475586,22.5058594 C47.9376612,22.4374997 47.6642264,22.4033203 47.4272461,22.4033203 C46.8211233,22.4033203 46.3027365,22.6494116 45.8720703,23.1416016 C45.4414041,23.6337915 45.2260742,24.2467411 45.2260742,24.9804688 L45.2260742,29 L44.0913086,29 L44.0913086,21.5078125 L45.027832,21.5078125 L45.1577148,22.8955078 L45.2124023,22.8955078 C45.4903985,22.4078752 45.8253561,22.0319024 46.2172852,21.7675781 C46.6092142,21.5032539 47.039874,21.3710938 47.5092773,21.3710938 Z M52.9711914,29.1367188 C51.863764,29.1367188 50.9899121,28.7994825 50.3496094,28.125 C49.7093067,27.4505175 49.3891602,26.5140034 49.3891602,25.3154297 C49.3891602,24.1077414 49.6865205,23.1484411 50.28125,22.4375 C50.8759795,21.7265589 51.6746369,21.3710938 52.6772461,21.3710938 C53.6160529,21.3710938 54.358884,21.6798472 54.9057617,22.2973633 C55.4526395,22.9148794 55.7260742,23.7294871 55.7260742,24.7412109 L55.7260742,25.4589844 L50.5649414,25.4589844 C50.587728,26.3385461 50.8098937,27.0061826 51.2314453,27.4619141 C51.6529969,27.9176455 52.2465782,28.1455078 53.012207,28.1455078 C53.8188517,28.1455078 54.6163698,27.9768897 55.4047852,27.6396484 L55.4047852,28.6513672 C55.0037415,28.8245451 54.6243507,28.9487301 54.2666016,29.0239258 C53.9088524,29.0991215 53.4770533,29.1367188 52.9711914,29.1367188 Z M52.6635742,22.3212891 C52.0620087,22.3212891 51.5823586,22.5172506 51.2246094,22.9091797 C50.8668602,23.3011087 50.6560876,23.843421 50.5922852,24.5361328 L54.5092773,24.5361328 C54.5092773,23.8206344 54.3497737,23.2726256 54.0307617,22.8920898 C53.7117497,22.5115541 53.2560251,22.3212891 52.6635742,22.3212891 Z M61.1469727,29.1367188 C60.65934,29.1367188 60.2138692,29.0467131 59.8105469,28.8666992 C59.4072245,28.6866853 59.068849,28.4098326 58.7954102,28.0361328 L58.7133789,28.0361328 C58.7680667,28.473635 58.7954102,28.8883444 58.7954102,29.2802734 L58.7954102,32.3632812 L57.6606445,32.3632812 L57.6606445,21.5078125 L58.5834961,21.5078125 L58.7407227,22.5332031 L58.7954102,22.5332031 C59.0870783,22.1230448 59.4265931,21.8268238 59.8139648,21.6445312 C60.2013366,21.4622387 60.6456681,21.3710938 61.1469727,21.3710938 C62.1404672,21.3710938 62.9072239,21.7106086 63.4472656,22.3896484 C63.9873074,23.0686883 64.2573242,24.0211527 64.2573242,25.2470703 C64.2573242,26.4775452 63.9827501,27.4334276 63.4335938,28.1147461 C62.8844374,28.7960646 62.1222379,29.1367188 61.1469727,29.1367188 Z M60.9829102,22.3349609 C60.2172813,22.3349609 59.6635759,22.5468729 59.3217773,22.9707031 C58.9799788,23.3945334 58.8045248,24.0690058 58.7954102,24.9941406 L58.7954102,25.2470703 C58.7954102,26.29981 58.9708641,27.0528949 59.3217773,27.5063477 C59.6726906,27.9598004 60.2355104,28.1865234 61.0102539,28.1865234 C61.6573926,28.1865234 62.1643862,27.9244818 62.53125,27.4003906 C62.8981138,26.8762995 63.081543,26.153976 63.081543,25.2333984 C63.081543,24.299149 62.8981138,23.582522 62.53125,23.0834961 C62.1643862,22.5844702 61.6482781,22.3349609 60.9829102,22.3349609 Z M70.847168,29 L70.621582,27.9335938 L70.5668945,27.9335938 C70.1931947,28.4029971 69.8206399,28.7208651 69.4492188,28.887207 C69.0777976,29.053549 68.6140978,29.1367188 68.0581055,29.1367188 C67.3152632,29.1367188 66.733075,28.9453144 66.3115234,28.5625 C65.8899719,28.1796856 65.6791992,27.6350947 65.6791992,26.9287109 C65.6791992,25.4156825 66.8891481,24.6227217 69.309082,24.5498047 L70.5805664,24.5087891 L70.5805664,24.0439453 C70.5805664,23.4560517 70.4541028,23.0219741 70.2011719,22.7416992 C69.9482409,22.4614244 69.5437853,22.3212891 68.987793,22.3212891 C68.3634409,22.3212891 67.6570677,22.5126934 66.8686523,22.8955078 L66.5200195,22.0273438 C66.889162,21.8268219 67.2936176,21.6695969 67.7333984,21.5556641 C68.1731793,21.4417312 68.6140928,21.3847656 69.0561523,21.3847656 C69.949386,21.3847656 70.611326,21.5830058 71.0419922,21.9794922 C71.4726584,22.3759785 71.6879883,23.0117144 71.6879883,23.8867188 L71.6879883,29 L70.847168,29 Z M68.2836914,28.2001953 C68.9900751,28.2001953 69.5449199,28.0065124 69.9482422,27.6191406 C70.3515645,27.2317689 70.5532227,26.6894566 70.5532227,25.9921875 L70.5532227,25.3154297 L69.418457,25.3632812 C68.5161088,25.3951825 67.8655619,25.5353178 67.4667969,25.7836914 C67.0680319,26.032065 66.8686523,26.4182917 66.8686523,26.9423828 C66.8686523,27.3525411 66.9928373,27.6647125 67.2412109,27.8789062 C67.4895846,28.0931 67.8370746,28.2001953 68.2836914,28.2001953 Z M77.4438477,21.3710938 C77.7765316,21.3710938 78.0750312,21.3984372 78.3393555,21.453125 L78.1821289,22.5058594 C77.8722315,22.4374997 77.5987968,22.4033203 77.3618164,22.4033203 C76.7556936,22.4033203 76.2373068,22.6494116 75.8066406,23.1416016 C75.3759744,23.6337915 75.1606445,24.2467411 75.1606445,24.9804688 L75.1606445,29 L74.0258789,29 L74.0258789,21.5078125 L74.9624023,21.5078125 L75.0922852,22.8955078 L75.1469727,22.8955078 C75.4249688,22.4078752 75.7599264,22.0319024 76.1518555,21.7675781 C76.5437845,21.5032539 76.9744443,21.3710938 77.4438477,21.3710938 Z M82.9057617,29.1367188 C81.7983343,29.1367188 80.9244824,28.7994825 80.2841797,28.125 C79.643877,27.4505175 79.3237305,26.5140034 79.3237305,25.3154297 C79.3237305,24.1077414 79.6210908,23.1484411 80.2158203,22.4375 C80.8105498,21.7265589 81.6092072,21.3710938 82.6118164,21.3710938 C83.5506232,21.3710938 84.2934543,21.6798472 84.840332,22.2973633 C85.3872098,22.9148794 85.6606445,23.7294871 85.6606445,24.7412109 L85.6606445,25.4589844 L80.4995117,25.4589844 C80.5222983,26.3385461 80.744464,27.0061826 81.1660156,27.4619141 C81.5875672,27.9176455 82.1811485,28.1455078 82.9467773,28.1455078 C83.753422,28.1455078 84.5509401,27.9768897 85.3393555,27.6396484 L85.3393555,28.6513672 C84.9383118,28.8245451 84.5589211,28.9487301 84.2011719,29.0239258 C83.8434227,29.0991215 83.4116236,29.1367188 82.9057617,29.1367188 Z M82.5981445,22.3212891 C81.996579,22.3212891 81.5169289,22.5172506 81.1591797,22.9091797 C80.8014305,23.3011087 80.5906579,23.843421 80.5268555,24.5361328 L84.4438477,24.5361328 C84.4438477,23.8206344 84.284344,23.2726256 83.965332,22.8920898 C83.64632,22.5115541 83.1905954,22.3212891 82.5981445,22.3212891 Z M92.5649414,29 L91.402832,29 L91.402832,19.0058594 L96.9741211,19.0058594 L96.9741211,20.0380859 L92.5649414,20.0380859 L92.5649414,23.6953125 L96.7075195,23.6953125 L96.7075195,24.7275391 L92.5649414,24.7275391 L92.5649414,29 Z M103.064941,29 L102.839355,27.9335938 L102.784668,27.9335938 C102.410968,28.4029971 102.038413,28.7208651 101.666992,28.887207 C101.295571,29.053549 100.831871,29.1367188 100.275879,29.1367188 C99.5330367,29.1367188 98.9508485,28.9453144 98.5292969,28.5625 C98.1077453,28.1796856 97.8969727,27.6350947 97.8969727,26.9287109 C97.8969727,25.4156825 99.1069215,24.6227217 101.526855,24.5498047 L102.79834,24.5087891 L102.79834,24.0439453 C102.79834,23.4560517 102.671876,23.0219741 102.418945,22.7416992 C102.166014,22.4614244 101.761559,22.3212891 101.205566,22.3212891 C100.581214,22.3212891 99.8748412,22.5126934 99.0864258,22.8955078 L98.737793,22.0273438 C99.1069354,21.8268219 99.511391,21.6695969 99.9511719,21.5556641 C100.390953,21.4417312 100.831866,21.3847656 101.273926,21.3847656 C102.167159,21.3847656 102.829099,21.5830058 103.259766,21.9794922 C103.690432,22.3759785 103.905762,23.0117144 103.905762,23.8867188 L103.905762,29 L103.064941,29 Z M100.501465,28.2001953 C101.207849,28.2001953 101.762693,28.0065124 102.166016,27.6191406 C102.569338,27.2317689 102.770996,26.6894566 102.770996,25.9921875 L102.770996,25.3154297 L101.63623,25.3632812 C100.733882,25.3951825 100.083335,25.5353178 99.6845703,25.7836914 C99.2858053,26.032065 99.0864258,26.4182917 99.0864258,26.9423828 C99.0864258,27.3525411 99.2106107,27.6647125 99.4589844,27.8789062 C99.707358,28.0931 100.054848,28.2001953 100.501465,28.2001953 Z M109.72998,21.3847656 C110.71436,21.3847656 111.478838,21.7208625 112.023438,22.3930664 C112.568037,23.0652703 112.840332,24.0165954 112.840332,25.2470703 C112.840332,26.4775452 112.565758,27.4334276 112.016602,28.1147461 C111.467445,28.7960646 110.705246,29.1367188 109.72998,29.1367188 C109.242348,29.1367188 108.796877,29.0467131 108.393555,28.8666992 C107.990232,28.6866853 107.651857,28.4098326 107.378418,28.0361328 L107.296387,28.0361328 L107.057129,29 L106.243652,29 L106.243652,18.3632812 L107.378418,18.3632812 L107.378418,20.9472656 C107.378418,21.5260446 107.360189,22.0455706 107.32373,22.5058594 L107.378418,22.5058594 C107.907066,21.7584598 108.690913,21.3847656 109.72998,21.3847656 Z M109.565918,22.3349609 C108.791175,22.3349609 108.232912,22.5571267 107.891113,23.0014648 C107.549315,23.445803 107.378418,24.1943307 107.378418,25.2470703 C107.378418,26.29981 107.553872,27.0528949 107.904785,27.5063477 C108.255698,27.9598004 108.818518,28.1865234 109.593262,28.1865234 C110.290531,28.1865234 110.810057,27.932457 111.151855,27.4243164 C111.493654,26.9161758 111.664551,26.1858772 111.664551,25.2333984 C111.664551,24.2581331 111.493654,23.5312524 111.151855,23.0527344 C110.810057,22.5742164 110.281416,22.3349609 109.565918,22.3349609 Z M118.240723,21.3710938 C118.573407,21.3710938 118.871906,21.3984372 119.13623,21.453125 L118.979004,22.5058594 C118.669107,22.4374997 118.395672,22.4033203 118.158691,22.4033203 C117.552569,22.4033203 117.034182,22.6494116 116.603516,23.1416016 C116.172849,23.6337915 115.95752,24.2467411 115.95752,24.9804688 L115.95752,29 L114.822754,29 L114.822754,21.5078125 L115.759277,21.5078125 L115.88916,22.8955078 L115.943848,22.8955078 C116.221844,22.4078752 116.556801,22.0319024 116.94873,21.7675781 C117.34066,21.5032539 117.771319,21.3710938 118.240723,21.3710938 Z M121.672363,29 L120.537598,29 L120.537598,21.5078125 L121.672363,21.5078125 L121.672363,29 Z M120.441895,19.4775391 C120.441895,19.2177721 120.505696,19.0275071 120.633301,18.9067383 C120.760906,18.7859694 120.920409,18.7255859 121.111816,18.7255859 C121.294109,18.7255859 121.451334,18.7871088 121.583496,18.9101562 C121.715658,19.0332037 121.781738,19.2223295 121.781738,19.4775391 C121.781738,19.7327487 121.715658,19.9230137 121.583496,20.0483398 C121.451334,20.173666 121.294109,20.2363281 121.111816,20.2363281 C120.920409,20.2363281 120.760906,20.173666 120.633301,20.0483398 C120.505696,19.9230137 120.441895,19.7327487 120.441895,19.4775391 Z M127.072754,29.1367188 C125.988113,29.1367188 125.14844,28.8029005 124.553711,28.1352539 C123.958981,27.4676073 123.661621,26.5231181 123.661621,25.3017578 C123.661621,24.0484963 123.963539,23.0800815 124.567383,22.3964844 C125.171227,21.7128872 126.031407,21.3710938 127.147949,21.3710938 C127.507977,21.3710938 127.868,21.4098303 128.228027,21.4873047 C128.588055,21.564779 128.870604,21.655924 129.075684,21.7607422 L128.727051,22.7246094 C128.476398,22.6243485 128.202964,22.5411787 127.906738,22.4750977 C127.610513,22.4090166 127.348471,22.3759766 127.120605,22.3759766 C125.598462,22.3759766 124.837402,23.34667 124.837402,25.2880859 C124.837402,26.2086635 125.02311,26.9150366 125.394531,27.4072266 C125.765952,27.8994165 126.31624,28.1455078 127.04541,28.1455078 C127.669762,28.1455078 128.310055,28.0110691 128.966309,27.7421875 L128.966309,28.7470703 C128.465004,29.0068372 127.833825,29.1367188 127.072754,29.1367188 Z" id="Prepare-Fabric" fill="#FFFFFF"></path>
                <g id="Group-Copy">
                    <g id="Rectangle-Copy-11">
                        <use fill="#F1F3F7" fill-rule="evenodd" xlink:href="#path-15"></use>
                        <path stroke="#785EF0" stroke-width="1" d="M24.5,49.5 L24.5,0.5 L3,0.5 C1.61928813,0.5 0.5,1.61928813 0.5,3 L0.5,47 C0.5,48.3807119 1.61928813,49.5 3,49.5 L24.5,49.5 Z"></path>
                    </g>
                    <path d="M16.2529297,29 L9.68359375,29 L9.68359375,28.0224609 L12.3154297,25.3769531 C13.117517,24.5657512 13.6461576,23.9869809 13.9013672,23.640625 C14.1565768,23.2942691 14.3479811,22.9570329 14.4755859,22.6289062 C14.6031907,22.3007796 14.6669922,21.947593 14.6669922,21.5693359 C14.6669922,21.0361301 14.50521,20.6134456 14.1816406,20.3012695 C13.8580713,19.9890935 13.4091826,19.8330078 12.8349609,19.8330078 C12.4202453,19.8330078 12.0271828,19.9013665 11.6557617,20.0380859 C11.2843406,20.1748054 10.8707705,20.4231753 10.4150391,20.7832031 L9.81347656,20.0107422 C10.7340541,19.2451134 11.7366482,18.8623047 12.8212891,18.8623047 C13.7600958,18.8623047 14.4960911,19.1026994 15.0292969,19.5834961 C15.5625027,20.0642928 15.8291016,20.7102824 15.8291016,21.5214844 C15.8291016,22.1549511 15.651369,22.7815724 15.2958984,23.4013672 C14.9404279,24.021162 14.27507,24.8050083 13.2998047,25.7529297 L11.1123047,27.8925781 L11.1123047,27.9472656 L16.2529297,27.9472656 L16.2529297,29 Z" id="1" fill="#19273C"></path>
                </g>
            </g>
            <g id="Group-2" transform="translate(477.000000, 76.000000)">
                <g id="Rectangle-Copy-13">
                    <use fill="black" fill-opacity="1" filter="url(#filter-17)" xlink:href="#path-16"></use>
                    <use fill="#785EF0" fill-rule="evenodd" xlink:href="#path-16"></use>
                </g>
                <path d="M55.5820312,23.9072266 C55.5820312,25.5569744 55.1342818,26.8181923 54.2387695,27.690918 C53.3432572,28.5636437 52.0546959,29 50.3730469,29 L47.6044922,29 L47.6044922,19.0058594 L50.6669922,19.0058594 C52.2210364,19.0058594 53.4287066,19.4365191 54.2900391,20.2978516 C55.1513715,21.159184 55.5820312,22.362297 55.5820312,23.9072266 Z M54.3515625,23.9482422 C54.3515625,22.6448503 54.0245801,21.6627637 53.3706055,21.0019531 C52.7166308,20.3411425 51.7447981,20.0107422 50.4550781,20.0107422 L48.7666016,20.0107422 L48.7666016,27.9951172 L50.1816406,27.9951172 C51.5670642,27.9951172 52.608395,27.654463 53.3056641,26.9731445 C54.0029332,26.291826 54.3515625,25.2835353 54.3515625,23.9482422 Z M60.8046875,29.1367188 C59.6972601,29.1367188 58.8234081,28.7994825 58.1831055,28.125 C57.5428028,27.4505175 57.2226562,26.5140034 57.2226562,25.3154297 C57.2226562,24.1077414 57.5200166,23.1484411 58.1147461,22.4375 C58.7094756,21.7265589 59.508133,21.3710938 60.5107422,21.3710938 C61.449549,21.3710938 62.1923801,21.6798472 62.7392578,22.2973633 C63.2861355,22.9148794 63.5595703,23.7294871 63.5595703,24.7412109 L63.5595703,25.4589844 L58.3984375,25.4589844 C58.4212241,26.3385461 58.6433898,27.0061826 59.0649414,27.4619141 C59.486493,27.9176455 60.0800743,28.1455078 60.8457031,28.1455078 C61.6523478,28.1455078 62.4498658,27.9768897 63.2382812,27.6396484 L63.2382812,28.6513672 C62.8372376,28.8245451 62.4578468,28.9487301 62.1000977,29.0239258 C61.7423485,29.0991215 61.3105494,29.1367188 60.8046875,29.1367188 Z M60.4970703,22.3212891 C59.8955048,22.3212891 59.4158547,22.5172506 59.0581055,22.9091797 C58.7003563,23.3011087 58.4895837,23.843421 58.4257812,24.5361328 L62.3427734,24.5361328 C62.3427734,23.8206344 62.1832698,23.2726256 61.8642578,22.8920898 C61.5452458,22.5115541 61.0895212,22.3212891 60.4970703,22.3212891 Z M68.9804688,29.1367188 C68.4928361,29.1367188 68.0473653,29.0467131 67.644043,28.8666992 C67.2407206,28.6866853 66.9023451,28.4098326 66.6289062,28.0361328 L66.546875,28.0361328 C66.6015628,28.473635 66.6289062,28.8883444 66.6289062,29.2802734 L66.6289062,32.3632812 L65.4941406,32.3632812 L65.4941406,21.5078125 L66.4169922,21.5078125 L66.5742188,22.5332031 L66.6289062,22.5332031 C66.9205744,22.1230448 67.2600892,21.8268238 67.6474609,21.6445312 C68.0348327,21.4622387 68.4791642,21.3710938 68.9804688,21.3710938 C69.9739633,21.3710938 70.74072,21.7106086 71.2807617,22.3896484 C71.8208035,23.0686883 72.0908203,24.0211527 72.0908203,25.2470703 C72.0908203,26.4775452 71.8162462,27.4334276 71.2670898,28.1147461 C70.7179335,28.7960646 69.955734,29.1367188 68.9804688,29.1367188 Z M68.8164062,22.3349609 C68.0507774,22.3349609 67.497072,22.5468729 67.1552734,22.9707031 C66.8134749,23.3945334 66.6380209,24.0690058 66.6289062,24.9941406 L66.6289062,25.2470703 C66.6289062,26.29981 66.8043602,27.0528949 67.1552734,27.5063477 C67.5061867,27.9598004 68.0690065,28.1865234 68.84375,28.1865234 C69.4908887,28.1865234 69.9978823,27.9244818 70.3647461,27.4003906 C70.7316099,26.8762995 70.9150391,26.153976 70.9150391,25.2333984 C70.9150391,24.299149 70.7316099,23.582522 70.3647461,23.0834961 C69.9978823,22.5844702 69.4817742,22.3349609 68.8164062,22.3349609 Z M75.2080078,29 L74.0732422,29 L74.0732422,18.3632812 L75.2080078,18.3632812 L75.2080078,29 Z M84.0810547,25.2470703 C84.0810547,26.4684306 83.7734406,27.4220343 83.1582031,28.1079102 C82.5429657,28.793786 81.6930393,29.1367188 80.6083984,29.1367188 C79.9384732,29.1367188 79.3437526,28.9794938 78.8242188,28.6650391 C78.3046849,28.3505844 77.9036472,27.899417 77.6210938,27.3115234 C77.3385403,26.7236299 77.1972656,26.0354857 77.1972656,25.2470703 C77.1972656,24.02571 77.5026011,23.0743849 78.1132812,22.3930664 C78.7239614,21.7117479 79.5716092,21.3710938 80.65625,21.3710938 C81.7044323,21.3710938 82.537269,21.7197231 83.1547852,22.4169922 C83.7723013,23.1142613 84.0810547,24.0576112 84.0810547,25.2470703 Z M78.3730469,25.2470703 C78.3730469,26.2041063 78.5644512,26.9332657 78.9472656,27.4345703 C79.33008,27.9358749 79.8928999,28.1865234 80.6357422,28.1865234 C81.3785844,28.1865234 81.9425436,27.9370142 82.3276367,27.4379883 C82.7127298,26.9389623 82.9052734,26.2086637 82.9052734,25.2470703 C82.9052734,24.2945916 82.7127298,23.5711288 82.3276367,23.0766602 C81.9425436,22.5821915 81.3740272,22.3349609 80.6220703,22.3349609 C79.8792281,22.3349609 79.3186868,22.5787736 78.9404297,23.0664062 C78.5621726,23.5540389 78.3730469,24.2809196 78.3730469,25.2470703 Z M84.8808594,21.5078125 L86.0976562,21.5078125 L87.7382812,25.7802734 C88.0983091,26.7555387 88.3216142,27.4596333 88.4082031,27.8925781 L88.4628906,27.8925781 C88.5221357,27.6601551 88.6463207,27.2625354 88.8354492,26.699707 C89.0245778,26.1368787 89.6432239,24.4062645 90.6914062,21.5078125 L91.9082031,21.5078125 L88.6884766,30.0390625 C88.3694646,30.8821657 87.9969097,31.4803042 87.5708008,31.8334961 C87.1446919,32.186688 86.6217479,32.3632812 86.0019531,32.3632812 C85.6555972,32.3632812 85.3138038,32.3245447 84.9765625,32.2470703 L84.9765625,31.3378906 C85.2272148,31.3925784 85.5074854,31.4199219 85.8173828,31.4199219 C86.5966836,31.4199219 87.1526676,30.9824262 87.4853516,30.1074219 L87.9023438,29.0410156 L84.8808594,21.5078125 Z M96.5976562,28.2753906 C96.5976562,27.9700506 96.6671543,27.7387703 96.8061523,27.581543 C96.9451504,27.4243156 97.14453,27.3457031 97.4042969,27.3457031 C97.6686211,27.3457031 97.8748365,27.4243156 98.0229492,27.581543 C98.1710619,27.7387703 98.2451172,27.9700506 98.2451172,28.2753906 C98.2451172,28.5716161 98.1699226,28.7994784 98.0195312,28.9589844 C97.8691399,29.1184904 97.6640638,29.1982422 97.4042969,29.1982422 C97.1718738,29.1982422 96.9793302,29.1264656 96.8266602,28.9829102 C96.6739901,28.8393548 96.5976562,28.6035173 96.5976562,28.2753906 Z M100.658203,19.0058594 L103.481445,19.0058594 C104.807624,19.0058594 105.766924,19.2040996 106.359375,19.6005859 C106.951826,19.9970723 107.248047,20.6236936 107.248047,21.4804688 C107.248047,22.0729196 107.082847,22.5616843 106.752441,22.9467773 C106.422036,23.3318704 105.940107,23.5813796 105.306641,23.6953125 L105.306641,23.7636719 C106.824226,24.0234388 107.583008,24.8209569 107.583008,26.15625 C107.583008,27.0494836 107.28109,27.7467423 106.677246,28.2480469 C106.073402,28.7493515 105.229172,29 104.144531,29 L100.658203,29 L100.658203,19.0058594 Z M101.820312,23.2851562 L103.734375,23.2851562 C104.554692,23.2851562 105.144855,23.156414 105.504883,22.8989258 C105.864911,22.6414375 106.044922,22.2073598 106.044922,21.5966797 C106.044922,21.03613 105.844403,20.6316744 105.443359,20.3833008 C105.042316,20.1349271 104.404301,20.0107422 103.529297,20.0107422 L101.820312,20.0107422 L101.820312,23.2851562 Z M101.820312,24.2695312 L101.820312,28.0087891 L103.905273,28.0087891 C104.711918,28.0087891 105.319171,27.8527034 105.727051,27.5405273 C106.13493,27.2283513 106.338867,26.7395867 106.338867,26.0742188 C106.338867,25.454424 106.130373,24.9986994 105.713379,24.7070312 C105.296385,24.4153631 104.661788,24.2695312 103.80957,24.2695312 L101.820312,24.2695312 Z M117.536133,29 L116.209961,29 L110.748047,20.6123047 L110.693359,20.6123047 C110.766276,21.5966846 110.802734,22.4990193 110.802734,23.3193359 L110.802734,29 L109.729492,29 L109.729492,19.0058594 L111.041992,19.0058594 L116.490234,27.359375 L116.544922,27.359375 C116.535807,27.2363275 116.5153,26.8409864 116.483398,26.1733398 C116.451497,25.5056933 116.440104,25.0283217 116.449219,24.7412109 L116.449219,19.0058594 L117.536133,19.0058594 L117.536133,29 Z M126.566406,29 L125.322266,25.8212891 L121.316406,25.8212891 L120.085938,29 L118.910156,29 L122.861328,18.9648438 L123.838867,18.9648438 L127.769531,29 L126.566406,29 Z M124.959961,24.7753906 L123.797852,21.6787109 C123.64746,21.2867819 123.492514,20.8059924 123.333008,20.2363281 C123.232747,20.6738303 123.089194,21.1546198 122.902344,21.6787109 L121.726562,24.7753906 L124.959961,24.7753906 Z" id="Deploy-.BNA" fill="#FFFFFF"></path>
                <g id="Group-Copy-2">
                    <g id="Rectangle-Copy-11">
                        <use fill="#F1F3F7" fill-rule="evenodd" xlink:href="#path-18"></use>
                        <path stroke="#785EF0" stroke-width="1" d="M24.5,49.5 L24.5,0.5 L3,0.5 C1.61928813,0.5 0.5,1.61928813 0.5,3 L0.5,47 C0.5,48.3807119 1.61928813,49.5 3,49.5 L24.5,49.5 Z"></path>
                    </g>
                    <path d="M15.8769531,21.3574219 C15.8769531,21.9954459 15.6980812,22.5172506 15.340332,22.9228516 C14.9825828,23.3284525 14.4755892,23.5996087 13.8193359,23.7363281 L13.8193359,23.7910156 C14.6214233,23.8912765 15.2161439,24.1464823 15.6035156,24.5566406 C15.9908874,24.9667989 16.1845703,25.504554 16.1845703,26.1699219 C16.1845703,27.1224006 15.85417,27.8549779 15.1933594,28.3676758 C14.5325488,28.8803737 13.5937561,29.1367188 12.3769531,29.1367188 C11.8483046,29.1367188 11.3640973,29.0968428 10.9243164,29.0170898 C10.4845356,28.9373368 10.0572937,28.7972015 9.64257812,28.5966797 L9.64257812,27.5166016 C10.075523,27.7307953 10.5369442,27.8937169 11.0268555,28.0053711 C11.5167668,28.1170253 11.9804666,28.1728516 12.4179688,28.1728516 C14.1451909,28.1728516 15.0087891,27.4961005 15.0087891,26.1425781 C15.0087891,24.9303325 14.0563246,24.3242188 12.1513672,24.3242188 L11.1669922,24.3242188 L11.1669922,23.3466797 L12.1650391,23.3466797 C12.9443398,23.3466797 13.5618467,23.1746436 14.0175781,22.8305664 C14.4733096,22.4864892 14.7011719,22.0091176 14.7011719,21.3984375 C14.7011719,20.9108049 14.5336931,20.5279962 14.1987305,20.25 C13.8637679,19.9720038 13.4091826,19.8330078 12.8349609,19.8330078 C12.3974588,19.8330078 11.985028,19.892252 11.5976562,20.0107422 C11.2102845,20.1292324 10.7682317,20.3479802 10.2714844,20.6669922 L9.69726562,19.9013672 C10.1074239,19.5777979 10.5802382,19.3237314 11.1157227,19.1391602 C11.6512071,18.9545889 12.2151663,18.8623047 12.8076172,18.8623047 C13.7783252,18.8623047 14.5325494,19.0844704 15.0703125,19.5288086 C15.6080756,19.9731468 15.8769531,20.5826784 15.8769531,21.3574219 Z" id="1" fill="#19273C"></path>
                </g>
            </g>
        </g>
    </g>
</svg>