<svg xmlns="http://www.w3.org/2000/svg" xmlns:xlink="http://www.w3.org/1999/xlink" viewBox="0 0 837.56 728.67"><defs><style>.cls-1,.cls-18,.cls-42{fill:#3c3c3b;}.cls-2{fill:#2ab29d;}.cls-3{fill:#81778e;}.cls-4{fill:#414142;}.cls-5{fill:#7975b5;}.cls-6{fill:#cfc3e1;}.cls-7{fill:#b094c5;}.cls-8{fill:#d1d0d1;}.cls-9{fill:#748c9f;}.cls-10{fill:#9db2dd;}.cls-11{fill:#cde2f6;}.cls-12{fill:#567dbe;}.cls-13{fill:#749176;}.cls-14{fill:#029a87;}.cls-15{fill:#a1d0a7;}.cls-16{fill:#52b57f;}.cls-17{fill:#f49d8d;}.cls-18{font-size:20px;font-family:HelveticaNeueforIBM-Bold, Helvetica Neue for IBM;}.cls-19,.cls-20,.cls-21,.cls-22,.cls-28,.cls-36,.cls-69{font-weight:700;}.cls-19{letter-spacing:-0.03em;}.cls-20{letter-spacing:0.01em;}.cls-22{letter-spacing:0.03em;}.cls-23,.cls-24,.cls-25,.cls-26,.cls-27,.cls-29,.cls-30,.cls-31,.cls-32{font-family:HelveticaNeueforIBM-Roman, Helvetica Neue for IBM;}.cls-24{letter-spacing:0.01em;}.cls-25{letter-spacing:0em;}.cls-26{letter-spacing:0em;}.cls-27{letter-spacing:0em;}.cls-28{letter-spacing:0.02em;}.cls-29{letter-spacing:-0.02em;}.cls-30{letter-spacing:0.01em;}.cls-31{letter-spacing:0em;}.cls-32{letter-spacing:0.02em;}.cls-33,.cls-38,.cls-47,.cls-48,.cls-55,.cls-56,.cls-57{fill:none;}.cls-33{stroke:#cdcccc;}.cls-33,.cls-37,.cls-38,.cls-49,.cls-55{stroke-miterlimit:10;}.cls-34,.cls-49,.cls-52,.cls-53,.cls-58{fill:#fff;}.cls-35,.cls-36,.cls-67{fill:#2365ae;}.cls-36{font-size:13px;}.cls-36,.cls-60,.cls-69,.cls-70{font-family:OpenSans-Bold, Open Sans;}.cls-37,.cls-61,.cls-65,.cls-68{fill:#575756;}.cls-37,.cls-38,.cls-47,.cls-48,.cls-49{stroke:#9d9d9c;}.cls-39{fill:#9d9d9c;}.cls-40{clip-path:url(#clip-path);}.cls-41{clip-path:url(#clip-path-2);}.cls-42,.cls-68{font-size:10px;}.cls-42,.cls-61,.cls-62,.cls-68,.cls-71{font-family:OpenSans, Open Sans;}.cls-43{clip-path:url(#clip-path-3);}.cls-44{clip-path:url(#clip-path-4);}.cls-45{clip-path:url(#clip-path-5);}.cls-46{clip-path:url(#clip-path-6);}.cls-47,.cls-48,.cls-52,.cls-55,.cls-56,.cls-57,.cls-58{stroke-linecap:round;}.cls-47,.cls-48,.cls-52,.cls-53,.cls-56,.cls-57,.cls-58{stroke-linejoin:round;}.cls-48{stroke-dasharray:0.99 3.98;}.cls-50{fill:#e1ebf7;opacity:0.3;}.cls-51{fill:#b0bce1;}.cls-52,.cls-56{stroke:#b0bce1;}.cls-52,.cls-53,.cls-56,.cls-57,.cls-58{stroke-width:2px;}.cls-53{stroke:#2e408f;}.cls-54{fill:#2e408f;}.cls-55{stroke:#f9af15;stroke-width:3px;}.cls-57,.cls-58{stroke:#d2d7ee;}.cls-59{fill:#ef7d6e;}.cls-60{font-size:9px;fill:#2465ae;}.cls-62{font-size:4px;}.cls-62,.cls-64{fill:#1d1d1b;}.cls-63,.cls-67{font-size:8px;font-family:SourceCodePro-Regular, Source Code Pro;}.cls-63{fill:#f39200;}.cls-66{fill:#e6332a;}</style><clipPath id="clip-path"><path class="cls-1" d="M256.2,601a5.48,5.48,0,0,0-1.39-3.76l1.15-1.15a7.36,7.36,0,0,1-10.39,10.39l1.15-1.15a5.48,5.48,0,0,0,3.76,1.39A5.69,5.69,0,0,0,256.2,601Zm.65,6.38a8.94,8.94,0,0,0,.25-12.44l-.49-.49-2.37,2.21a5.48,5.48,0,0,0-3.76-1.39,5.69,5.69,0,0,0-5.73,5.73,5.48,5.48,0,0,0,1.39,3.76L243.84,607l.33.33a9.3,9.3,0,0,0,5.56,2.62v.82H248v1.64h5.73v-1.64H252.1v-1A9.49,9.49,0,0,0,256.85,607.36Z"/></clipPath><clipPath id="clip-path-2"><rect class="cls-1" x="-1143.9" y="569.43" width="1440" height="1024"/></clipPath><clipPath id="clip-path-3"><path class="cls-1" d="M474.81,601a5.48,5.48,0,0,0-1.39-3.76l1.15-1.15a7.36,7.36,0,0,1-10.39,10.39l1.15-1.15a5.48,5.48,0,0,0,3.76,1.39A5.69,5.69,0,0,0,474.81,601Zm.65,6.38a8.94,8.94,0,0,0,.25-12.44l-.49-.49-2.37,2.21a5.48,5.48,0,0,0-3.76-1.39,5.69,5.69,0,0,0-5.73,5.73,5.48,5.48,0,0,0,1.39,3.76L462.46,607l.33.33a9.3,9.3,0,0,0,5.56,2.62v.82h-1.72v1.64h5.73v-1.64h-1.64v-1A9.49,9.49,0,0,0,475.47,607.36Z"/></clipPath><clipPath id="clip-path-4"><rect class="cls-1" x="-925.28" y="569.43" width="1440" height="1024"/></clipPath><clipPath id="clip-path-5"><path class="cls-1" d="M703.44,601a5.48,5.48,0,0,0-1.39-3.76l1.15-1.15a7.36,7.36,0,0,1-10.39,10.39l1.15-1.15a5.48,5.48,0,0,0,3.76,1.39A5.69,5.69,0,0,0,703.44,601Zm.65,6.38a8.94,8.94,0,0,0,.25-12.44l-.49-.49-2.37,2.21a5.48,5.48,0,0,0-3.76-1.39A5.69,5.69,0,0,0,692,601a5.48,5.48,0,0,0,1.39,3.76L691.08,607l.33.33A9.3,9.3,0,0,0,697,610v.82h-1.72v1.64H701v-1.64h-1.64v-1A9.49,9.49,0,0,0,704.09,607.36Z"/></clipPath><clipPath id="clip-path-6"><rect class="cls-1" x="-696.65" y="569.43" width="1440" height="1024"/></clipPath></defs><title>Composer-Diagram</title><g id="Layer_2" data-name="Layer 2"><path class="cls-1" d="M87.57,505.78,67.63,494.26v-23l19.94-11.51,19.94,11.51v23ZM71,492.31l16.56,9.56,16.56-9.56V473.18l-16.56-9.56L71,473.18Z"/><path class="cls-1" d="M59.87,521.64,39.92,510.13v-23l19.94-11.51L79.81,487.1v23ZM43.3,508.18l16.56,9.56,16.56-9.56V489.05l-16.56-9.56L43.3,489.05Z"/><path class="cls-1" d="M122.49,512l-11.62-6.71V491.91l11.62-6.71,11.62,6.71v13.42Zm-8.24-8.66,8.24,4.76,8.24-4.76v-9.52l-8.24-4.76-8.24,4.76Z"/><path class="cls-1" d="M54.11,475.09l-11.62-6.71V455l11.62-6.71L65.74,455v13.42Zm-8.24-8.66,8.24,4.76,8.24-4.76v-9.52l-8.24-4.76-8.24,4.76Z"/><path class="cls-1" d="M54.11,549l-11.62-6.71V528.85l11.62-6.71,11.62,6.71v13.42Zm-8.24-8.66,8.24,4.76,8.24-4.76V530.8L54.11,526l-8.24,4.76Z"/><path class="cls-1" d="M87.57,538,67.63,526.48v-23l19.94-11.51,19.94,11.51v23ZM71,524.53l16.56,9.56,16.56-9.56V505.4l-16.56-9.56L71,505.4Z"/><g id="Layer_1" data-name="Layer 1"><g id="CircleBG"><circle class="cls-2" cx="84.78" cy="148.56" r="49.07"/></g><g id="VioletBlock"><polygon class="cls-3" points="74.49 111.26 66.72 117.53 74.49 119.97 74.49 111.26"/><polygon class="cls-4" points="74.49 120.99 74.49 119.97 66.72 117.53 74.49 111.26 74.49 110.14 64.61 117.87 74.49 120.99"/><g id="SideFace"><polygon class="cls-5" points="88.5 116.18 106.95 105.24 106.95 126.56 88.5 137.51 88.5 116.18"/><path class="cls-4" d="M106.65,105.75v20.64L88.79,137V116.36l17.86-10.6m.59-1L88.2,116v22l19-11.31v-22Z"/></g><g id="TopFace"><polygon class="cls-6" points="70.34 104.72 88.76 94.34 106.67 104.72 88.22 115.67 70.34 104.72"/><path class="cls-4" d="M88.76,94.68l17.32,10-17.87,10.6L70.94,104.73,88.76,94.68m0-.68-19,10.72L88.22,116l19-11.3L88.76,94Z"/></g><g id="FrontFace"><polygon class="cls-7" points="70.06 126.56 70.06 105.24 87.91 116.18 87.91 137.5 70.06 126.56"/><path class="cls-4" d="M70.36,105.77l17.26,10.57V137L70.36,126.39V105.77m-.59-1.05v22L88.22,138V116Z"/></g><g id="Outline"><path class="cls-4" d="M88.76,94l18.48,10.7v22L88.2,138,69.75,126.72v-22L88.76,94m0-1.36-.59.33-19,10.72-.61.34V127.4l.56.34,18.45,11.31.61.37.61-.37,19-11.31.58-.34V104l-.59-.34L89.36,93l-.58-.34Z"/></g><path class="cls-8" d="M76.71,124.75a7.72,7.72,0,0,1-1.35-1.6,6.14,6.14,0,0,1-.78-1.78,7,7,0,0,1-.25-2v-1.7L83.24,123v1.33a4.33,4.33,0,0,1-.33,1.88,1.61,1.61,0,0,1-.92.87,2.45,2.45,0,0,1-1.45,0,8,8,0,0,1-1.88-.87A12.62,12.62,0,0,1,76.71,124.75Z"/><path class="cls-4" d="M81.42,127.79a3.52,3.52,0,0,1-1-.16,8.67,8.67,0,0,1-2-.93,11.94,11.94,0,0,1-2-1.51h0a8,8,0,0,1-1.45-1.72,7.32,7.32,0,0,1-.86-1.94,8.06,8.06,0,0,1-.28-2.15v-2.75l10.1,6.07v1.66a5,5,0,0,1-.38,2.13,2.24,2.24,0,0,1-2,1.3Zm-4.29-3.48A11.67,11.67,0,0,0,79,125.67a8.17,8.17,0,0,0,1.75.81,1.9,1.9,0,0,0,1.1.06,1,1,0,0,0,.58-.56,3.86,3.86,0,0,0,.27-1.63v-1l-7.76-4.65v.67a7,7,0,0,0,.24,1.84,6,6,0,0,0,.73,1.63,6.28,6.28,0,0,0,1.26,1.47Z"/><polygon class="cls-4" points="80.98 117.33 84.37 119.38 84.37 120.52 80.98 118.49 80.98 117.33"/><polygon class="cls-4" points="73.19 112.65 76.58 114.7 76.58 115.84 73.19 113.81 73.19 112.65"/><polygon class="cls-6" points="94.75 122.25 86.99 128.5 94.75 130.94 94.75 122.25"/><polygon class="cls-4" points="94.75 131.96 94.75 130.94 86.99 128.5 94.75 122.25 94.75 121.11 84.89 128.84 94.75 131.96"/></g><g id="BlueBlock"><polygon class="cls-9" points="72.64 137.5 83.15 144.9 72.64 151.58 72.64 137.5"/><polygon class="cls-4" points="72.64 152.88 72.64 151.58 82.56 144.61 72.64 138.39 72.64 136.95 85.25 144.89 72.64 152.88"/><g id="SideFace-2"><polygon class="cls-10" points="31.08 157.5 31.08 130.07 54.81 144.16 54.81 171.6 31.08 157.5"/><path class="cls-4" d="M31.38,130.58l23.14,13.74v26.74L31.38,157.34V130.58m-.59-1v28.12L55.11,172.1V144L30.78,129.55Z"/></g><g id="TopFace-2"><polygon class="cls-11" points="31.36 129.55 54.4 116.21 78.09 129.56 55.11 143.64 31.36 129.55"/><path class="cls-4" d="M54.4,116.55l23.1,13L55.11,143.29,32,129.56l22.45-13m0-.68L30.78,129.55,55.11,144l23.56-14.44L54.4,115.87Z"/></g><g id="FrontFace-2"><polygon class="cls-12" points="55.41 144.16 78.37 130.08 78.37 157.5 55.41 171.58 55.41 144.16"/><path class="cls-4" d="M78.07,130.61v26.73L55.7,171V144.32l22.37-13.71m.59-1.07L55.11,144V172.1l23.56-14.44V129.55Z"/></g><g id="Outline-2"><path class="cls-4" d="M54.38,115.87l24.28,13.68v28.13L55.09,172.12,30.78,157.66V129.55l23.6-13.68m0-1.36-.59.34-23.6,13.68-.59.34v29.48l.58.34L54.5,173.12l.61.37.61-.37,23.56-14.44.56-.34V128.85l-.61-.34L54.95,114.83l-.56-.33Z"/></g><path class="cls-8" d="M67.28,156.57a9.66,9.66,0,0,1-2.21,1,2.89,2.89,0,0,1-1.69.06,1.84,1.84,0,0,1-1.08-1,5.15,5.15,0,0,1-.38-2.19v-1.55l10.42-6.26v2a8.78,8.78,0,0,1-.3,2.32,8.22,8.22,0,0,1-.92,2.09,9.54,9.54,0,0,1-1.57,1.87A13.49,13.49,0,0,1,67.28,156.57Z"/><path class="cls-4" d="M64.07,158.48a3.1,3.1,0,0,1-.9-.13A2.53,2.53,0,0,1,61.65,157a5.71,5.71,0,0,1-.46-2.52v-2l11.9-7.15v3.3a9.63,9.63,0,0,1-.33,2.52,8.3,8.3,0,0,1-1,2.28,10.07,10.07,0,0,1-1.7,2,14.7,14.7,0,0,1-2.4,1.76h0a10.75,10.75,0,0,1-2.37,1.1A3.88,3.88,0,0,1,64.07,158.48Zm-1.39-5.18v1.13A4.45,4.45,0,0,0,63,156.3a1.14,1.14,0,0,0,.64.64,2,2,0,0,0,1.24-.07,9.32,9.32,0,0,0,2-.93,14.22,14.22,0,0,0,2.16-1.58,8,8,0,0,0,1.45-1.72,6.68,6.68,0,0,0,.83-1.88,7.94,7.94,0,0,0,.27-2.13v-.7Z"/><polygon class="cls-4" points="64.35 145.67 60.02 148.28 60.02 149.74 64.35 147.14 64.35 145.67"/><polygon class="cls-4" points="74.28 139.71 69.96 142.31 69.96 143.78 74.28 141.17 74.28 139.71"/><polygon class="cls-11" points="46.74 152.6 56.68 160.6 46.74 163.72 46.74 152.6"/><polygon class="cls-4" points="46.74 165.02 46.74 163.72 56.68 160.6 46.74 152.6 46.74 151.16 59.36 161.03 46.74 165.02"/></g><g id="GreenBlock"><g id="BackArm"><polygon class="cls-13" points="79.48 175.59 68.52 172.15 79.48 163.32 79.48 175.59"/><polygon class="cls-4" points="65.56 172.62 79.48 161.72 79.48 163.32 68.52 172.15 79.48 175.59 79.48 177.03 65.56 172.62"/></g><g id="SideFace-3"><polygon class="cls-14" points="99.14 201.98 99.14 171.61 125.41 156.02 125.41 186.39 99.14 201.98"/><path class="cls-4" d="M125.11,156.54v29.67L99.44,201.46V171.79l25.67-15.25m.59-1.05-26.86,16v31l26.86-15.95V155.49Z"/></g><polygon class="cls-15" points="98.85 171.09 73.41 155.5 99.63 140.73 125.13 155.5 98.85 171.09"/><path class="cls-4" d="M99.63,141.07l24.9,14.44L98.85,170.75,74,155.52l25.64-14.45m-26.8,14.42,26,15.95,26.86-16L99.63,140.39Z"/><polygon class="cls-16" points="98.55 201.98 73.11 186.39 73.11 156.02 98.55 171.61 98.55 201.98"/><path class="cls-4" d="M73.42,156.55l24.83,15.22v29.67L73.42,186.23V156.55m-.59,30,26,15.95v-31l-26-16Z"/><path class="cls-4" d="M99.63,140.39l26.07,15.1v31.06L98.85,202.5l-26-15.95V155.49l26.8-15.1m0-1.36-.59.33L72.24,154.47l-.59.34v32.41l.56.34,26,15.95.61.37.61-.37,26.86-15.95.58-.34V154.79l-.59-.34-26.07-15.09-.58-.34Z"/><g id="Face"><path class="cls-17" d="M82.22,184a12.09,12.09,0,0,1-2.07-2.44,10.11,10.11,0,0,1-1.21-2.74,11.73,11.73,0,0,1-.4-3.05V173.2l13.67,8.22v2a6.57,6.57,0,0,1-.5,2.87,2.42,2.42,0,0,1-1.41,1.33,3.66,3.66,0,0,1-2.21-.07,12.78,12.78,0,0,1-2.89-1.33A19.24,19.24,0,0,1,82.22,184Z"/><path class="cls-4" d="M87.86,188.43A13.08,13.08,0,0,1,84.77,187a19.26,19.26,0,0,1-3.14-2.31,12.64,12.64,0,0,1-2.22-2.64,10.9,10.9,0,0,1-1.3-3,12.92,12.92,0,0,1-.43-3.29V171.6l15.44,9.31v2.53a7.52,7.52,0,0,1-.59,3.27,3.32,3.32,0,0,1-1.94,1.79,3.86,3.86,0,0,1-1.17.18A6.2,6.2,0,0,1,87.86,188.43Zm-8.42-13.67v1.05a11.27,11.27,0,0,0,.36,2.81,8.71,8.71,0,0,0,1.11,2.49,10.84,10.84,0,0,0,1.92,2.27,17.76,17.76,0,0,0,2.84,2.09h0a11.92,11.92,0,0,0,2.68,1.24,2.81,2.81,0,0,0,1.69.09,1.55,1.55,0,0,0,.89-.87,6,6,0,0,0,.41-2.49v-1.53Z"/><polygon class="cls-4" points="88.63 174.93 93.41 177.8 93.41 176.17 88.63 173.3 88.63 174.93"/><polygon class="cls-4" points="77.66 168.32 82.44 171.2 82.44 169.58 77.66 166.71 77.66 168.32"/></g><g id="FrontArm"><polygon class="cls-15" points="108.07 192.77 97.11 189.32 108.07 180.5 108.07 192.77"/><polygon class="cls-4" points="94.15 189.79 108.07 178.9 108.07 180.5 97.11 189.32 108.07 192.77 108.07 194.21 94.15 189.79"/></g></g></g><text class="cls-18" transform="translate(3.99 233.16)"><tspan class="cls-19">F</tspan><tspan class="cls-20" x="11.02" y="0">a</tspan><tspan class="cls-21" x="22.34" y="0">b</tspan><tspan class="cls-22" x="34.32" y="0">r</tspan><tspan class="cls-21" x="42.38" y="0">ic</tspan><tspan class="cls-23" x="58.38" y="0"> </tspan><tspan class="cls-24" x="63.14" y="0">C</tspan><tspan class="cls-25" x="77.44" y="0">om</tspan><tspan class="cls-26" x="105.42" y="0">po</tspan><tspan class="cls-27" x="128.4" y="0">s</tspan><tspan class="cls-25" x="138.26" y="0">er</tspan></text><text class="cls-18" transform="translate(0 581.68)"><tspan class="cls-21">Hype</tspan><tspan class="cls-28" x="48.16" y="0">r</tspan><tspan class="cls-21" x="56.12" y="0">ledger </tspan><tspan class="cls-29" x="119.48" y="0">F</tspan><tspan class="cls-30" x="130.24" y="0">a</tspan><tspan class="cls-31" x="141" y="0">b</tspan><tspan class="cls-32" x="152.54" y="0">r</tspan><tspan class="cls-23" x="159.48" y="0">ic</tspan></text><rect class="cls-33" x="219.43" y="34.48" width="181.35" height="87.31"/><polygon class="cls-34" points="232.62 51.94 212.62 51.94 198.22 66.38 198.22 104.34 232.62 104.34 232.62 51.94"/><path class="cls-35" d="M197.42,65.54v39.6h36v-54h-21.6Zm1.8,1.8h14.4V52.94h18v50.4h-32.4Z"/><text class="cls-36" transform="translate(203.55 85.32)">.cto</text><rect class="cls-33" x="437.43" y="34.48" width="181.35" height="87.31"/><polygon class="cls-34" points="450.62 51.94 430.62 51.94 416.21 66.38 416.21 104.34 450.62 104.34 450.62 51.94"/><path class="cls-35" d="M415.42,65.54v39.6h36v-54h-21.6Zm1.8,1.8h14.4V52.94h18v50.4h-32.4Z"/><text class="cls-36" transform="translate(426.55 85.32)">.js</text><rect class="cls-33" x="655.43" y="34.48" width="181.35" height="87.31"/><polygon class="cls-34" points="668.62 51.94 648.62 51.94 634.22 66.38 634.22 104.34 668.62 104.34 668.62 51.94"/><path class="cls-35" d="M633.42,65.54v39.6h36v-54h-21.6Zm1.8,1.8h14.4V52.94h18v50.4h-32.4Z"/><text class="cls-36" transform="translate(644.55 85.32)">.js</text><line class="cls-37" x1="304" y1="176.6" x2="304" y2="201"/><line class="cls-38" x1="526.37" y1="176.6" x2="526.37" y2="220.49"/><polygon class="cls-39" points="523.47 218.51 526.37 229.35 529.28 218.51 523.47 218.51"/><line class="cls-37" x1="749.12" y1="176.6" x2="749.12" y2="201"/><line class="cls-38" x1="304" y1="201" x2="749.12" y2="201"/><line class="cls-38" x1="304" y1="571.05" x2="304" y2="555.51"/><polygon class="cls-39" points="306.9 569.07 304 579.91 301.09 569.07 306.9 569.07"/><line class="cls-38" x1="526.37" y1="571.05" x2="526.37" y2="527.15"/><polygon class="cls-39" points="529.28 569.07 526.38 579.91 523.47 569.07 529.28 569.07"/><line class="cls-38" x1="749.12" y1="571.05" x2="749.12" y2="555.51"/><polygon class="cls-39" points="752.03 569.07 749.13 579.91 746.22 569.07 752.03 569.07"/><line class="cls-38" x1="304" y1="555.51" x2="749.12" y2="555.51"/><path class="cls-1" d="M256.2,601a5.48,5.48,0,0,0-1.39-3.76l1.15-1.15a7.36,7.36,0,0,1-10.39,10.39l1.15-1.15a5.48,5.48,0,0,0,3.76,1.39A5.69,5.69,0,0,0,256.2,601Zm.65,6.38a8.94,8.94,0,0,0,.25-12.44l-.49-.49-2.37,2.21a5.48,5.48,0,0,0-3.76-1.39,5.69,5.69,0,0,0-5.73,5.73,5.48,5.48,0,0,0,1.39,3.76L243.84,607l.33.33a9.3,9.3,0,0,0,5.56,2.62v.82H248v1.64h5.73v-1.64H252.1v-1A9.49,9.49,0,0,0,256.85,607.36Z"/><g class="cls-40"><rect class="cls-1" x="-1143.9" y="569.43" width="1440" height="1024"/><g class="cls-41"><rect class="cls-1" x="238.84" y="589.43" width="25.65" height="28"/></g></g><text class="cls-42" transform="translate(264.52 605.43)">Hyperledger Fabric v0.6</text><path class="cls-1" d="M474.81,601a5.48,5.48,0,0,0-1.39-3.76l1.15-1.15a7.36,7.36,0,0,1-10.39,10.39l1.15-1.15a5.48,5.48,0,0,0,3.76,1.39A5.69,5.69,0,0,0,474.81,601Zm.65,6.38a8.94,8.94,0,0,0,.25-12.44l-.49-.49-2.37,2.21a5.48,5.48,0,0,0-3.76-1.39,5.69,5.69,0,0,0-5.73,5.73,5.48,5.48,0,0,0,1.39,3.76L462.46,607l.33.33a9.3,9.3,0,0,0,5.56,2.62v.82h-1.72v1.64h5.73v-1.64h-1.64v-1A9.49,9.49,0,0,0,475.47,607.36Z"/><g class="cls-43"><rect class="cls-1" x="-925.28" y="569.43" width="1440" height="1024"/><g class="cls-44"><rect class="cls-1" x="457.46" y="589.43" width="25.65" height="28"/></g></g><text class="cls-42" transform="translate(483.14 605.43)">Hyperledger Fabric v1.0*</text><path class="cls-1" d="M703.44,601a5.48,5.48,0,0,0-1.39-3.76l1.15-1.15a7.36,7.36,0,0,1-10.39,10.39l1.15-1.15a5.48,5.48,0,0,0,3.76,1.39A5.69,5.69,0,0,0,703.44,601Zm.65,6.38a8.94,8.94,0,0,0,.25-12.44l-.49-.49-2.37,2.21a5.48,5.48,0,0,0-3.76-1.39A5.69,5.69,0,0,0,692,601a5.48,5.48,0,0,0,1.39,3.76L691.08,607l.33.33A9.3,9.3,0,0,0,697,610v.82h-1.72v1.64H701v-1.64h-1.64v-1A9.49,9.49,0,0,0,704.09,607.36Z"/><g class="cls-45"><rect class="cls-1" x="-696.65" y="569.43" width="1440" height="1024"/><g class="cls-46"><rect class="cls-1" x="686.08" y="589.43" width="25.65" height="28"/></g></g><text class="cls-42" transform="translate(711.76 605.43)">Web Browser / Node.js</text><line class="cls-47" x1="84.37" y1="256.67" x2="84.37" y2="257.17"/><line class="cls-48" x1="84.37" y1="261.15" x2="84.37" y2="423.32"/><line class="cls-47" x1="84.37" y1="425.31" x2="84.37" y2="425.81"/><polygon class="cls-39" points="81.46 423.83 84.36 434.67 87.27 423.83 81.46 423.83"/><path class="cls-49" d="M87.33,339.33a3.55,3.55,0,0,0-3,1.75,3.55,3.55,0,0,0-3-1.75,3.43,3.43,0,0,0-3.46,3.4,3.48,3.48,0,0,0,1,2.43c1.39,1.43,5.43,5.83,5.43,5.83s4-4.4,5.43-5.83a3.48,3.48,0,0,0,1-2.43A3.43,3.43,0,0,0,87.33,339.33Z"/><path class="cls-50" d="M467.93,404.58a18.17,18.17,0,0,1,11,3.66v.06a19.73,19.73,0,0,1,37.91,3l.37-1.08a19.75,19.75,0,0,1,19.74,19.62h10.26s0-.09,0-.13a8.11,8.11,0,0,1,15.27-3.83,15.41,15.41,0,0,1,30.42-3.06,90.66,90.66,0,1,0-140.59-9.35A18.22,18.22,0,0,1,467.93,404.58Z"/><path class="cls-50" d="M585.62,429.83h-.41v.34Z"/><circle class="cls-51" cx="569.37" cy="305.14" r="1.83"/><circle class="cls-51" cx="579.69" cy="344.98" r="1.83"/><circle class="cls-51" cx="488.76" cy="371.66" r="1.83"/><polygon class="cls-52" points="466.43 333.63 456.38 342.58 469.16 346.81 466.43 333.63"/><polygon class="cls-53" points="554.35 377.4 502.15 384.22 495.17 330.73 512.43 328.48 510.15 311.01 545.09 306.45 554.35 377.4"/><polygon class="cls-53" points="510.15 311.01 512.4 328.27 495.14 330.52 510.15 311.01"/><path class="cls-54" d="M512.11,353.65a1,1,0,0,1,.17-.77,1.07,1.07,0,0,1,.73-.35,1,1,0,0,1,.78.16,1.14,1.14,0,0,1,.19,1.46,1,1,0,0,1-.71.36,1.05,1.05,0,0,1-.79-.16A1,1,0,0,1,512.11,353.65Z"/><path class="cls-54" d="M518.61,346.92a2.12,2.12,0,0,1,1.92.66,4.15,4.15,0,0,1,1,2.38,4.08,4.08,0,0,1-.35,2.58,2.36,2.36,0,0,1-3.62.53l-.12,0-.2.75-1.35.18-1.18-9,1.77-.23.27,2.1q.05.4.1,1.29h.07A2.07,2.07,0,0,1,518.61,346.92Zm-.38,1.49a1.13,1.13,0,0,0-.91.53,2.33,2.33,0,0,0-.14,1.37l0,.19a2.76,2.76,0,0,0,.51,1.46,1.12,1.12,0,0,0,1,.32,1,1,0,0,0,.8-.62,2.75,2.75,0,0,0,.13-1.5,2.6,2.6,0,0,0-.51-1.4A1,1,0,0,0,518.23,348.41Z"/><path class="cls-54" d="M529.39,352.24l-1.77.23-.49-3.79a1.85,1.85,0,0,0-.39-1,.92.92,0,0,0-.84-.25,1.2,1.2,0,0,0-1,.64,3.1,3.1,0,0,0-.12,1.69l.4,3.06-1.77.23-.85-6.5,1.35-.18.35.8h.1a1.88,1.88,0,0,1,.72-.82,2.82,2.82,0,0,1,1.15-.4,2.3,2.3,0,0,1,1.8.39,2.48,2.48,0,0,1,.82,1.69Z"/><path class="cls-54" d="M535.34,351.46l-.46-.84h0a2.66,2.66,0,0,1-.82.9,3,3,0,0,1-1.21.38,2,2,0,0,1-1.54-.34,2.07,2.07,0,0,1-.74-1.45,1.72,1.72,0,0,1,.52-1.62,4.23,4.23,0,0,1,2.11-.83l1.12-.18,0-.28a.89.89,0,0,0-1.14-.86,4.67,4.67,0,0,0-1.77.71l-.74-1.12A5.32,5.32,0,0,1,533,345a3.12,3.12,0,0,1,2.08.31A2.12,2.12,0,0,1,536,347l.56,4.33Zm-.92-2.94-.68.11a2.23,2.23,0,0,0-1.11.43.89.89,0,0,0-.28.83q.1.75,1,.64a1.37,1.37,0,0,0,.94-.48,1.25,1.25,0,0,0,.25-1Z"/><line class="cls-55" x1="524.63" y1="267.1" x2="529.64" y2="302.61"/><line class="cls-55" x1="522.54" y1="252.25" x2="523.77" y2="261.02"/><line class="cls-55" x1="497.1" y1="280.29" x2="498.86" y2="292.81"/><line class="cls-55" x1="495.8" y1="271.09" x2="496.24" y2="274.18"/><line class="cls-55" x1="536.85" y1="289.28" x2="540.45" y2="314.8"/><line class="cls-55" x1="535.16" y1="277.32" x2="536.04" y2="283.57"/><path class="cls-56" d="M478.32,420.09A19.75,19.75,0,1,1,510.41,430"/><path class="cls-56" d="M479.92,424.23q-.39-.74-.71-1.51"/><path class="cls-56" d="M449.89,425.59a18.27,18.27,0,0,1,18-21,18.17,18.17,0,0,1,11,3.66"/><path class="cls-56" d="M562.44,425.81a7.51,7.51,0,0,0-7.13-4.23,8.12,8.12,0,0,0-8.12,8.13q0,.13,0,.26H536.93c0-10.91-9.46-19.75-20.36-19.75"/><path class="cls-56" d="M592.88,429.83a15.43,15.43,0,1,0-30,0"/><line class="cls-56" x1="563.37" y1="388.78" x2="571.71" y2="396.69"/><path class="cls-57" d="M508.39,425.59a15.39,15.39,0,0,0,.63-20"/><path class="cls-57" d="M571.23,437.06a11.86,11.86,0,0,0,14-19.15"/><path class="cls-57" d="M473.37,410.13a24.72,24.72,0,0,0,1,13.34"/><polyline class="cls-58" points="547.79 363.84 549 373.21 539.37 374.59"/></g><g id="Cake"><rect class="cls-59" x="266.08" y="50.58" width="18.15" height="2.06"/><path class="cls-35" d="M284.24,53.15H266.08a.51.51,0,0,1-.51-.51V50.58a.51.51,0,0,1,.51-.51h18.15a.51.51,0,0,1,.51.51v2.06A.51.51,0,0,1,284.24,53.15Zm-17.64-1h17.13v-1H266.6Z"/><rect class="cls-34" x="265.74" y="52.64" width="18.84" height="3.81"/><path class="cls-35" d="M284.58,57H265.74a.51.51,0,0,1-.51-.51V52.64a.51.51,0,0,1,.51-.51h18.84a.51.51,0,0,1,.51.51v3.81A.51.51,0,0,1,284.58,57Zm-18.32-1h17.81V53.15H266.26Z"/><rect class="cls-34" x="265.74" y="46.74" width="18.84" height="3.84"/><path class="cls-35" d="M284.58,51.09H265.74a.51.51,0,0,1-.51-.51V46.74a.51.51,0,0,1,.51-.51h18.84a.51.51,0,0,1,.51.51v3.84A.51.51,0,0,1,284.58,51.09Zm-18.32-1h17.81V47.26H266.26Z"/><path class="cls-34" d="M280.15,41.48l-14.4,5.26h18.84a4.73,4.73,0,0,0-4.43-5.26Z"/><path class="cls-35" d="M284.58,47.26H265.74a.51.51,0,0,1-.18-1L280,41a.52.52,0,0,1,.18,0,5.24,5.24,0,0,1,4.93,5.89A.51.51,0,0,1,284.58,47.26Zm-15.94-1h15.47a4.49,4.49,0,0,0-.89-2.6,4,4,0,0,0-3-1.64Z"/><path class="cls-35" d="M280.15,43a.51.51,0,0,1-.43-.79l2.57-4a.51.51,0,0,1,.87.55l-2.57,4A.51.51,0,0,1,280.15,43Z"/><circle class="cls-59" cx="280.3" cy="41.99" r="2.42"/><path class="cls-35" d="M280.3,44.93A2.94,2.94,0,1,1,283.23,42,2.94,2.94,0,0,1,280.3,44.93Zm0-4.84A1.91,1.91,0,1,0,282.21,42,1.91,1.91,0,0,0,280.3,40.09Z"/></g><g id="Cake_copy_2" data-name="Cake copy 2"><rect class="cls-59" x="291.03" y="110.71" width="13.34" height="1.51"/><path class="cls-35" d="M304.38,112.6H291a.38.38,0,0,1-.38-.38v-1.51a.38.38,0,0,1,.38-.38h13.34a.38.38,0,0,1,.38.38v1.51A.38.38,0,0,1,304.38,112.6Zm-13-.76H304v-.76H291.41Z"/><rect class="cls-34" x="290.78" y="112.22" width="13.85" height="2.8"/><path class="cls-35" d="M304.63,115.4H290.78a.38.38,0,0,1-.38-.38v-2.8a.38.38,0,0,1,.38-.38h13.85a.38.38,0,0,1,.38.38V115A.38.38,0,0,1,304.63,115.4Zm-13.47-.76h13.09v-2H291.16Z"/><rect class="cls-34" x="290.78" y="107.89" width="13.85" height="2.82"/><path class="cls-35" d="M304.63,111.09H290.78a.38.38,0,0,1-.38-.38v-2.82a.38.38,0,0,1,.38-.38h13.85a.38.38,0,0,1,.38.38v2.82A.38.38,0,0,1,304.63,111.09Zm-13.47-.76h13.09v-2.06H291.16Z"/><path class="cls-34" d="M301.37,104l-10.59,3.87h13.85a3.48,3.48,0,0,0-3.26-3.87Z"/><path class="cls-35" d="M304.63,108.27H290.78a.38.38,0,0,1-.13-.73l10.59-3.87.13,0A3.85,3.85,0,0,1,305,108,.38.38,0,0,1,304.63,108.27Zm-11.71-.76h11.37a3.3,3.3,0,0,0-.65-1.91,3,3,0,0,0-2.2-1.2Z"/><path class="cls-35" d="M301.37,105.15a.38.38,0,0,1-.32-.58l1.89-3a.38.38,0,1,1,.64.41l-1.89,3A.38.38,0,0,1,301.37,105.15Z"/><circle class="cls-59" cx="301.48" cy="104.4" r="1.78"/><path class="cls-35" d="M301.48,106.56a2.16,2.16,0,1,1,2.16-2.16A2.16,2.16,0,0,1,301.48,106.56Zm0-3.56a1.4,1.4,0,1,0,1.4,1.4A1.4,1.4,0,0,0,301.48,103Z"/><text class="cls-60" transform="translate(315.81 46.84)"><tspan class="cls-21">Asset</tspan><tspan class="cls-61"><tspan x="0" y="10.8">Cake</tspan></tspan><tspan class="cls-62"><tspan x="0" y="15.6"> </tspan></tspan><tspan class="cls-21"><tspan x="0" y="26.4">Participants</tspan></tspan><tspan class="cls-61"><tspan x="0" y="37.2">Baker, Customer</tspan></tspan><tspan class="cls-62"><tspan x="0" y="42"> </tspan></tspan><tspan class="cls-21"><tspan x="0" y="52.8">Transaction</tspan></tspan><tspan class="cls-61"><tspan x="0" y="63.6">CakeSale</tspan></tspan></text></g><g id="Cake_copy_3" data-name="Cake copy 3"><rect class="cls-59" x="247.51" y="82.12" width="13.34" height="1.51"/><path class="cls-35" d="M260.85,84H247.51a.38.38,0,0,1-.38-.38V82.12a.38.38,0,0,1,.38-.38h13.34a.38.38,0,0,1,.38.38v1.51A.38.38,0,0,1,260.85,84Zm-13-.76h12.59V82.5H247.89Z"/><rect class="cls-34" x="247.26" y="83.64" width="13.85" height="2.8"/><path class="cls-35" d="M261.1,86.81H247.26a.38.38,0,0,1-.38-.38v-2.8a.38.38,0,0,1,.38-.38H261.1a.38.38,0,0,1,.38.38v2.8A.38.38,0,0,1,261.1,86.81Zm-13.47-.76h13.09V84H247.64Z"/><rect class="cls-34" x="247.26" y="79.31" width="13.85" height="2.82"/><path class="cls-35" d="M261.1,82.5H247.26a.38.38,0,0,1-.38-.38V79.31a.38.38,0,0,1,.38-.38H261.1a.38.38,0,0,1,.38.38v2.82A.38.38,0,0,1,261.1,82.5Zm-13.47-.76h13.09V79.68H247.64Z"/><path class="cls-34" d="M257.85,75.44l-10.59,3.87H261.1a3.48,3.48,0,0,0-3.26-3.87Z"/><path class="cls-35" d="M261.1,79.68H247.26a.38.38,0,0,1-.13-.73l10.59-3.87.13,0a3.85,3.85,0,0,1,3.63,4.33A.38.38,0,0,1,261.1,79.68Zm-11.71-.76h11.37a3.3,3.3,0,0,0-.65-1.91,3,3,0,0,0-2.2-1.2Z"/><path class="cls-35" d="M257.85,76.57a.38.38,0,0,1-.32-.58l1.89-3a.38.38,0,1,1,.64.41l-1.89,3A.38.38,0,0,1,257.85,76.57Z"/><circle class="cls-59" cx="257.96" cy="75.81" r="1.78"/><path class="cls-35" d="M258,78a2.16,2.16,0,1,1,2.16-2.16A2.16,2.16,0,0,1,258,78Zm0-3.56a1.4,1.4,0,1,0,1.4,1.4A1.4,1.4,0,0,0,258,74.41Z"/></g><g id="Participants"><path class="cls-35" d="M270.38,70.15a3,3,0,1,0-3-3A3,3,0,0,0,270.38,70.15Zm0-4.54a1.51,1.51,0,1,1-1.51,1.51A1.51,1.51,0,0,1,270.38,65.61Z"/><path class="cls-35" d="M272.65,71.66h-4.54a1.51,1.51,0,0,0-1.51,1.51v6l1.51,1.51V86a.76.76,0,0,0,.76.76h3a.76.76,0,0,0,.76-.76V80.73l1.51-1.51v-6A1.51,1.51,0,0,0,272.65,71.66Z"/><path class="cls-35" d="M282.73,70.15a3,3,0,1,0-3-3A3,3,0,0,0,282.73,70.15Zm0-4.54a1.51,1.51,0,1,1-1.51,1.51A1.51,1.51,0,0,1,282.73,65.61Z"/><path class="cls-35" d="M285,71.66h-4.54a1.51,1.51,0,0,0-1.51,1.51v6l1.51,1.51V86a.76.76,0,0,0,.76.76h3A.76.76,0,0,0,285,86V80.73l1.51-1.51v-6A1.51,1.51,0,0,0,285,71.66Z"/></g><g id="Transaction"><path class="cls-35" d="M282.6,98.58a3,3,0,1,0-3-3A3,3,0,0,0,282.6,98.58Zm0-4.54a1.51,1.51,0,1,1-1.51,1.51A1.51,1.51,0,0,1,282.6,94Z"/><path class="cls-35" d="M284.87,100.09h-4.54l-3.78,3.78-3.78-3.78h-4.54a1.51,1.51,0,0,0-1.51,1.51v6l1.51,1.51v5.29a.76.76,0,0,0,.76.76h3a.76.76,0,0,0,.76-.76V103.87l3.78,3.78,3.78-3.78v10.58a.76.76,0,0,0,.76.76h3a.76.76,0,0,0,.76-.76v-5.29l1.51-1.51v-6A1.51,1.51,0,0,0,284.87,100.09Z"/><path class="cls-35" d="M270.51,98.58a3,3,0,1,0-3-3A3,3,0,0,0,270.51,98.58Zm0-4.54A1.51,1.51,0,1,1,269,95.55,1.51,1.51,0,0,1,270.51,94Z"/><text class="cls-63" transform="translate(466.06 63.88)">function<tspan class="cls-64" x="38.4" y="0"> </tspan><tspan class="cls-65" x="43.2" y="0">onTransaction(</tspan><tspan class="cls-66" x="110.4" y="0">tx</tspan><tspan class="cls-65" x="120" y="0">) {</tspan><tspan class="cls-64"><tspan x="0" y="9.6" xml:space="preserve">  </tspan><tspan class="cls-66" x="9.6" y="9.6">asset</tspan><tspan class="cls-65" x="33.6" y="9.6">.owner = </tspan><tspan x="76.8" y="9.6" xml:space="preserve">  </tspan><tspan x="0" y="19.2" xml:space="preserve">  </tspan><tspan class="cls-66" x="9.6" y="19.2">tx</tspan><tspan class="cls-65" x="19.2" y="19.2">.newOwner;</tspan></tspan><tspan class="cls-65"><tspan x="0" y="28.8">}</tspan></tspan></text><text class="cls-67" transform="translate(684.06 60.5)">rule Default<tspan class="cls-65" x="57.6" y="0" xml:space="preserve"> {</tspan><tspan class="cls-65"><tspan x="0" y="9.6" xml:space="preserve">  </tspan><tspan class="cls-35" x="9.6" y="9.6">participant:</tspan><tspan x="67.2" y="9.6" xml:space="preserve"> &quot;ANY&quot;</tspan><tspan x="0" y="19.2" xml:space="preserve">  </tspan><tspan class="cls-35" x="9.6" y="19.2">operation:</tspan><tspan x="57.6" y="19.2" xml:space="preserve"> ALL</tspan><tspan x="0" y="28.8" xml:space="preserve">  </tspan><tspan class="cls-35" x="9.6" y="28.8">action:</tspan><tspan x="43.2" y="28.8" xml:space="preserve"> ALLOW</tspan><tspan x="0" y="38.4">}</tspan></tspan></text><text class="cls-68" transform="translate(224.08 142.25)">A <tspan class="cls-69" x="8.93" y="0">model file</tspan><tspan x="58.7" y="0" xml:space="preserve"> defines the structure of </tspan><tspan x="5.83" y="12">your business network in terms of </tspan><tspan x="-0.9" y="24">Assets, Participants and Transactions</tspan></text><text class="cls-68" transform="translate(438.01 142.25)">A <tspan class="cls-69" x="8.93" y="0">script file</tspan><tspan x="55.78" y="0" xml:space="preserve"> processes transactions to </tspan><tspan x="16.28" y="12">update assets, and is written in </tspan><tspan x="65.89" y="24">JavaScript</tspan></text><text class="cls-68" transform="translate(660.97 142.25)">An <tspan class="cls-69" x="15.06" y="0">Access Control List</tspan><tspan x="108.56" y="0" xml:space="preserve"> (ACL) defines </tspan><tspan x="7.41" y="12">the rules that govern participants’ </tspan><tspan x="27.25" y="24">ability to perform actions</tspan></text><text class="cls-68" transform="translate(407.17 481.72)">Fabric Composer lets you package up your Business <tspan x="-12.77" y="12">Network Definition into a </tspan><tspan class="cls-69" x="106.97" y="12">Business Network Archive</tspan><tspan x="237.58" y="12" xml:space="preserve"> file</tspan><tspan class="cls-70"><tspan class="cls-21" x="12.64" y="36">Pro Tip:</tspan><tspan class="cls-71" x="50.27" y="36" xml:space="preserve"> we like to pronounce it “banana file” ;)</tspan></tspan></text><text class="cls-68" transform="translate(308.13 658.28)">Add <tspan class="cls-69" x="21.18" y="0">Connection Profiles</tspan><tspan x="118.55" y="0" xml:space="preserve"> to let Fabric Composer deploy your Business Network Definition to a </tspan><tspan x="-3.43" y="12" xml:space="preserve">distributed ledger.  We currently support </tspan><tspan class="cls-69" x="188.96" y="12">Hyperledger Fabric v0.6</tspan><tspan x="306.2" y="12" xml:space="preserve"> (and v1.0 support is *coming </tspan><tspan x="14.14" y="24" xml:space="preserve">soon).  We also offer a Web Browser profile for development, or Node.js  for unit testing.</tspan></text></g></svg>