<svg xmlns="http://www.w3.org/2000/svg" xmlns:xlink="http://www.w3.org/1999/xlink" viewBox="0 0 2712.33 1888"><defs><style>.cls-1,.cls-18,.cls-26,.cls-28,.cls-35{fill:none;}.cls-12,.cls-2{fill:#fff;}.cls-18,.cls-2{stroke:#575756;}.cls-18,.cls-2,.cls-27,.cls-35{stroke-miterlimit:10;}.cls-18,.cls-2,.cls-35{stroke-width:2px;}.cls-22,.cls-29,.cls-3{font-size:46px;}.cls-29,.cls-3{fill:#1d1d1b;}.cls-3,.cls-31{font-family:OpenSans, Open Sans;}.cls-32,.cls-4{font-size:32px;}.cls-4{font-family:SourceCodePro-Regular, Source Code Pro;}.cls-5{clip-path:url(#clip-path);}.cls-6{fill:#f5d08c;}.cls-7{fill:#050506;}.cls-8{fill:#dd0a2c;}.cls-9{fill:#d9af70;}.cls-10{fill:#931828;}.cls-11{fill:#b37e30;}.cls-13{fill:#ca8d29;}.cls-14{fill:#cea063;}.cls-15{fill:#f9af17;}.cls-16{fill:#4e1c0f;}.cls-17{font-size:34px;font-family:OpenSans-Light, Open Sans;}.cls-17,.cls-36{fill:#3c3c3b;}.cls-19{fill:#575756;}.cls-20{fill:#878787;}.cls-21{fill:#303031;}.cls-22,.cls-23{fill:#b1d28b;}.cls-22{font-family:SourceCodePro-Black, Source Code Pro;}.cls-24{fill:#f1f3f7;}.cls-25,.cls-27{fill:#fed601;}.cls-26,.cls-27{stroke:#fed601;}.cls-26,.cls-28{stroke-linecap:round;stroke-linejoin:round;stroke-width:3px;}.cls-28{stroke:#4256a2;}.cls-29{font-family:OpenSans-Bold, Open Sans;}.cls-30{font-weight:700;}.cls-33{fill:#dd0932;}.cls-34{fill:#c31532;}.cls-35{stroke:#3c3c3b;}</style><clipPath id="clip-path"><path class="cls-1" d="M267.13,135.37v-.3l6.6-33.2S259,68,209.63,72.07s-55.5,15.5-63.6,29.1l4.8,21.7-9.2,5.9s-3.3-9.9-8.5-10.3c0,0,7.7-11.1,2.2-18.8s-35-7-46.4,32c0,0-1.5-11.8-6.3-11.8s-22.5,6.4-17.7,24.8,21.4,23.9,26.9,26.2a9.52,9.52,0,0,1,1.5,7.7c-.6,2.3-13.9,43.6-2.8,81.8,8.3,28.5,35,53.3,35,53.3a112.77,112.77,0,0,0,78,31.3c62.7,0,113.6-51.3,113.6-114.6a114.51,114.51,0,0,0-50-95Z"/></clipPath></defs><title>ComposerArchitecture</title><g id="Yeoman"><rect class="cls-2" x="240.13" y="151.75" width="716.94" height="142.93"/><text class="cls-3" transform="translate(331.96 213.37)">Yeoman<tspan class="cls-4"><tspan x="0" y="38.4">generator-hyperledger-composer</tspan></tspan></text><g class="cls-5"><path class="cls-6" d="M335.33,401s1.9,25.7-5.1,30.9c0,0-1.5,10.3-11.4,10.6,0,0-2.2,5.9-12.5,2.9s-19.1-33.1-19.1-33.1,31.1-26.4,48.1-11.3Z"/><path class="cls-7" d="M243.63,272.17s82.6,13.3,91.7,128.8c0,0-15.4,9.8-31.5,10.5,0,0,1.4-88.9-60.2-139.3Z"/><path class="cls-8" d="M324.93,350.07c-4.5,2.2-14.1,6-28.9,7.5l1.5,5.7a138.78,138.78,0,0,0,29.2-8.1l-1.8-5.1Zm-33-5.7c.6,1.9,1.3,3.7,1.8,5.6,5.4-.6,17.6-2.3,28.4-7.1-.8-1.8-1.5-3.6-2.3-5.3-4,1.8-12.8,5-27.9,6.8Zm43.4,56.6a217.9,217.9,0,0,0-4.2-29.2,75.49,75.49,0,0,1-29.8,10.4,185.35,185.35,0,0,1,2.6,29.3c16-.7,31.4-10.5,31.4-10.5Z"/><circle class="cls-6" cx="158.43" cy="184.67" r="17.7"/><circle class="cls-6" cx="158.43" cy="184.67" r="17.7"/><path class="cls-6" d="M140.73,184.67a8.6,8.6,0,0,0,.1,1.6,17.84,17.84,0,0,0,4-2.2c8.4-5.4,8.6-11.8,6.8-15.8A18,18,0,0,0,140.73,184.67Z"/><circle class="cls-6" cx="149.33" cy="184.67" r="8.6"/><path class="cls-9" d="M149.33,176.17a3.4,3.4,0,0,0-1,.1c3.3.5,5.9,4.1,5.9,8.5s-2.6,8-5.9,8.5c.3,0,.7.1,1,.1a8.6,8.6,0,0,0,0-17.2Z"/><path class="cls-6" d="M148.23,176.27c-.3,0-.5-.1-.8-.1-3.7,0-6.7,3.8-6.7,8.6A8.55,8.55,0,0,1,148.23,176.27Zm-7.5,8.4c0,4.7,3,8.6,6.7,8.6a2.2,2.2,0,0,0,.8-.1A8.55,8.55,0,0,1,140.73,184.67Z"/><circle class="cls-6" cx="262.13" cy="184.67" r="17.7"/><circle class="cls-6" cx="262.13" cy="184.67" r="17.7"/><circle class="cls-6" cx="271.23" cy="184.67" r="8.6"/><path class="cls-9" d="M266.33,184.67c0-4.4,2.6-8,5.9-8.5-.3,0-.7-.1-1-.1a8.6,8.6,0,1,0,0,17.2,3.4,3.4,0,0,0,1-.1C268.93,192.67,266.33,189.07,266.33,184.67Z"/><path class="cls-6" d="M279.83,184.67c0-4.7-3-8.6-6.7-8.6a2.2,2.2,0,0,0-.8.1A8.7,8.7,0,0,1,279.83,184.67Zm-7.5,8.5c.3,0,.5.1.8.1,3.7,0,6.7-3.8,6.7-8.6a8.55,8.55,0,0,1-7.5,8.5Zm-163.4,2.9s16.9,2.2,14.7-14.7c0,0,5.9,9.2,19.1.7s6.2-19.5,2.6-19.8-8.8-4.4-21.7,8.8l-7.3-16.9,8.4-11s1.2,15.9,13.4,11.4,3.1-31.6-7.9-31.6l-19.8,11.4s3.7-10.3,19.8-18.7c0,0,6.2-3.7,2.6-12.9s-38.6-2.6-44.1,42.2a18.18,18.18,0,0,1-4.8-15.1c1.4-9.2-18-6.6-14.3,13.2S92.43,167,92.43,167s6.5,10.5,1.8,22.4C94.23,189.47,101.63,198.57,108.93,196.07Zm33.8-14c13.2-8.4,6.2-19.5,2.6-19.8-2.3-.2-5.1-1.8-9.9,0l4.3,8.9s-.9,12.7-15.1,9.5a5.81,5.81,0,0,1-.5,1.3C125.73,183.87,131.63,189.17,142.73,182.07Zm-19,.5c-2.2,3.9-9.8,11.5-28.2,2.1a28.52,28.52,0,0,1-1.3,4.8s7.3,9.2,14.7,6.6C108.93,196.07,125,198.17,123.73,182.57Zm1-39.4s1.2,15.9,13.4,11.4c5-1.8,6.4-7.5,5.6-13.5-3.1,3.2-12.5,11.2-16.2-5.8l-16.8,19.6-13.3,7.7,16.6-4.2,9.7,12.6-7.3-16.9Zm-11.5-13.6c2.7-3.8,7.9-9.2,17.1-14,0,0,6.2-3.7,2.6-12.9-.1-.2-.1-.3-.2-.5a16,16,0,0,1-5.9,8.4c-6.8,4.7-31.1,21.6-23.4,47.1C103.33,157.87,100.13,142.07,113.23,129.57Zm-24.8,15.1A17.67,17.67,0,0,1,84,130c.6-3.6-2.1-5.4-5.3-5-.7,9.8.7,29.8,20.1,35.5C98.83,160.47,91.53,157.07,88.43,144.67Z"/><path class="cls-7" d="M94.23,189.47l14.7,6.6s-13.2,72.7,55.8,75.7c0,0,.5,46.8-42.1,46C122.63,317.77,66.33,273,94.23,189.47Z"/><path class="cls-8" d="M111.83,235.57c-.2-.7-.4-1.3-.6-2h0a53.37,53.37,0,0,1-24.6,5.4l.3,4.8c6.3,0,16.8-.8,25.9-5.7V238a17.23,17.23,0,0,1-.7-2.1Zm4.7,10.4c-.3-.6-.7-1.2-1-1.8h0a68.65,68.65,0,0,1-28,6.1c.2,1.8.5,3.6.8,5.3a58.16,58.16,0,0,0,29.3-7.6v-.1c-.4-.6-.7-1.2-1.1-1.8V246Zm-22.3-56.5c-4,10.9-5.7,21-7,30.4,7,1.3,14,1.5,20.9-3a88,88,0,0,1,.8-20.8Z"/><path class="cls-7" d="M115.63,376l90,116s3.5,1.3,5-.5V376Zm189.3,0-90,116s-3.5,1.3-5-.5V376Zm-53.2-106.1h-82.8c-88.2,38.7-67.7,184.8-67.7,184.8h109.6v-66.8l6.1,66.8h102.4c0-.1,20.6-146.1-67.6-184.8Z"/><path class="cls-6" d="M287.23,412.37s8.8,30.1,19.1,33.1,12.5-2.9,12.5-2.9a11,11,0,0,0,6.7-2.4,329.17,329.17,0,0,0,0-43.6C308.53,394.27,287.23,412.37,287.23,412.37Z"/><path class="cls-10" d="M326,405.77c-1.2-31.4-7.5-71.7-28.7-102-25.3-27-53.7-31.6-53.7-31.6,61.6,50.4,60.2,139.3,60.2,139.3C312,411.07,320.13,408.37,326,405.77Z"/><path class="cls-8" d="M104.73,360.87c-.3,1.3-.6,2.7-.8,4,24.4-9,62.9-14.8,106.3-14.8s82,5.8,106.3,14.8c-.3-1.3-.5-2.7-.8-4-24.4-8.8-62.6-14.5-105.5-14.5S129.13,352.07,104.73,360.87Zm4.9-18.5c-.4,1.2-.7,2.4-1.1,3.6,24.5-8.1,61-13.2,101.8-13.2s77.3,5.1,101.8,13.2c-.4-1.2-.7-2.4-1.1-3.6-24.5-7.9-60.5-12.8-100.7-12.8S134,334.57,109.63,342.37Zm34.2-56.5c-18.9,24.3-16.8,54-16.8,54l5.1-2.3c-1.6-25.8,10.2-46.3,17.6-56.5C147.73,282.57,145.73,284.17,143.83,285.87Zm127-4.8c7.4,10.2,19.2,30.6,17.6,56.5l5.1,2.3s2-29.6-16.8-54c-1.9-1.7-3.9-3.3-5.9-4.8Zm-60,106.8,6.1,66.8h102.4s6.3-44.8-3.1-91.4l-5.2-1.7c8.6,23.5,4.6,86.9,4.6,86.9h-93.2l-8.8-98.5h-7.1l-.9,98.5H106c-4.6-44.7,2.5-86.7,2.5-86.7l-4.2,1.2c-9.5,46.7-3.1,91.7-3.1,91.7h109.6v-66.8Z"/><path class="cls-6" d="M256.13,266.77s-17.6,16-46.6,16c-34.4,0-45.1-16-45.1-16l-6.1-112.2h103.8l-6,112.2Zm0,0s-17.6,16-46.6,16c-34.4,0-45.1-16-45.1-16l-6.1-112.2h103.8l-6,112.2Zm0,0s-17.6,16-46.6,16c-34.4,0-45.1-16-45.1-16l-6.1-112.2h103.8l-6,112.2Z"/><path class="cls-11" d="M223.43,173.77l2.6-3.3s9.3-.5,23.7,7.2c0,0-10.4-12.8-26-8.5l.5-2.8-4.4,7.2s1.6,9.7-.1,16.7H201c-1.7-7-.1-16.7-.1-16.7l-4.4-7.2.5,2.8c-15.6-4.3-26,8.5-26,8.5,14.3-7.7,23.7-7.2,23.7-7.2l2.6,3.3c-5,10-16.8,10.8-16.8,10.8,12.4,1.3,16.9-6.4,16.9-6.4-.7,6.1.6,14.1.6,14.1l12.4,8.8.1-.1.1.1,12.4-8.8s1.3-8,.6-14.1c0,0,4.5,7.7,16.9,6.4-.3,0-12.1-.8-17.1-10.8Z"/><ellipse class="cls-7" cx="210.23" cy="210.07" rx="17" ry="10.2"/><path class="cls-8" d="M210.23,220.77a25.22,25.22,0,0,0,10.3-2.6c-2-2.2-5.8-3.6-10.3-3.6s-8.3,1.5-10.3,3.6A25.64,25.64,0,0,0,210.23,220.77Z"/><path class="cls-12" d="M210.23,199.87c-9.4,0-17,4.6-17,10.2a2.77,2.77,0,0,0,.1.9h33.9c0-.3.1-.6.1-.9,0-5.6-7.6-10.2-17.1-10.2Z"/><path class="cls-13" d="M210.23,226.87a25,25,0,0,1-9.4-1.7,11.8,11.8,0,0,0,9.4,4.6,11.94,11.94,0,0,0,9.4-4.6A25,25,0,0,1,210.23,226.87Zm0,30.4a44.29,44.29,0,0,1-16-2.9,20.09,20.09,0,0,0,16,7.8,20.39,20.39,0,0,0,16-7.8,43.89,43.89,0,0,1-16,2.9Z"/><path class="cls-14" d="M159.33,173.07h101.8l1-18.4H158.33Z"/><path class="cls-7" d="M262.43,154.57l9.1-52.7s-13.7-27-61-27c-57.4,0-61.6,27-61.6,27l9.2,52.7Z"/><path class="cls-8" d="M154.23,132l3.9,22.6h104.3l3.9-22.6Z"/><path class="cls-7" d="M278.13,167.17H142.43l-4.2-12.6h144.2Z"/><circle class="cls-7" cx="210.23" cy="139.27" r="16.8"/><path class="cls-8" d="M210.23,154a14.7,14.7,0,1,1,14.7-14.7A14.72,14.72,0,0,1,210.23,154Zm0-27.5a12.8,12.8,0,1,0,12.8,12.8,12.76,12.76,0,0,0-12.8-12.8Zm0,23.4a10.6,10.6,0,1,1,10.6-10.6A10.61,10.61,0,0,1,210.23,149.87Zm0-19.9a9.2,9.2,0,1,0,9.2,9.2A9.18,9.18,0,0,0,210.23,130Zm2.7,5.5,4.8-3.5-3.7,4.7,5.8-1.5-5.1,3.1,5.9.7-5.9,1,5.4,2.8-5.8-1.2,3.9,4.5-5-3.2,2,5.6-3.5-4.8-.1,6-1.5-5.8-2.3,5.5.6-5.9-4.1,4.3,2.7-5.3-5.4,2.5,4.5-4-6,.4,5.6-2.1-5.7-1.8,6,.1-4.7-3.7,5.5,2.2-3-5.1,4.3,4.1-1-5.9,2.6,5.4,1.2-5.8.5,6,3.3-5Z"/><path class="cls-7" d="M213.43,139.27a3.2,3.2,0,1,1-3.2-3.2A3.16,3.16,0,0,1,213.43,139.27Z"/><path class="cls-8" d="M209.53,282.87c-34.4,0-45.1-16-45.1-16l1.2,22.8s10.3,15.6,43.9,15.6c28.2,0,45.3-15.6,45.3-15.6l1.3-22.9c-.1,0-17.7,16.1-46.6,16.1Z"/><path class="cls-7" d="M210.23,304.87a43.41,43.41,0,0,0,1.3-10.9,42.25,42.25,0,0,0-1.3-10.9,43.41,43.41,0,0,0-1.3,10.9,42.83,42.83,0,0,0,1.3,10.9Z"/><circle class="cls-10" cx="218.43" cy="294.67" r="3.1"/><circle class="cls-12" cx="217.73" cy="293.97" r="3.1"/><path class="cls-15" d="M221.43,325.37h-22.3a6.44,6.44,0,0,0-6.4,6.4v15.9a6.44,6.44,0,0,0,6.4,6.4h22.3a6.44,6.44,0,0,0,6.4-6.4v-15.9A6.38,6.38,0,0,0,221.43,325.37Zm-1.7,8.9v10.9a1.22,1.22,0,0,1-1.2,1.2H202a1.22,1.22,0,0,1-1.2-1.2v-10.9a1.22,1.22,0,0,1,1.2-1.2h16.5a1.22,1.22,0,0,1,1.2,1.2Z"/><path class="cls-13" d="M197.93,192.27l12.3,8.7.1-.1.1.1,12.3-8.7Z"/><path class="cls-16" d="M210.23,199.07s-10.4-12.4-34.8-6.3l-36.9,36.3s13.3,9.9,34.1,7.2S210.43,211.37,210.23,199.07Zm0,0s10.4-12.4,34.8-6.3,36.9,36.3,36.9,36.3-13.3,9.9-34.1,7.2-37.7-24.9-37.6-37.2Z"/><path class="cls-8" d="M260.83,305.07H263l-3.9,4.7-3.8-4.7h2.2V303h-8.2v2.1h3.2l5.4,6.7V316h-3.2v2.1h8.6V316h-3.2v-4.2l5.4-6.7h3.2V303h-8.2Z"/></g><text class="cls-17" transform="translate(981.07 191.34)">GENERATES</text><line class="cls-18" x1="955.74" y1="224.76" x2="1175.9" y2="224.76"/><polygon class="cls-19" points="1167.48 235.87 1172.2 224.76 1167.48 213.65 1193.81 224.76 1167.48 235.87"/></g><g id="Composer"><rect class="cls-2" x="85.94" y="511.78" width="2538.09" height="665.73"/><rect class="cls-2" x="121.74" y="646.8" width="764" height="313.5"/><text class="cls-3" transform="translate(169.74 741.57)">CLI<tspan class="cls-4"><tspan x="0" y="38.4">composer-cli</tspan></tspan></text><rect class="cls-2" x="923.06" y="646.8" width="764" height="313.5"/><rect class="cls-2" x="955.74" y="822.62" width="698.64" height="99.56"/><text class="cls-3" transform="translate(971.07 741.57)">REST Server<tspan class="cls-4"><tspan x="0" y="38.4">composer-rest-server</tspan></tspan></text><text class="cls-3" transform="translate(993.07 888.97)">LoopBack Connector</text><rect class="cls-2" x="1724.39" y="646.8" width="862.12" height="313.5"/><text class="cls-3" transform="translate(1772.39 741.57)">Playground</text><path class="cls-20" d="M577.89,713H797.45A16.56,16.56,0,0,1,814,729.56V899a0,0,0,0,1,0,0H561.33a0,0,0,0,1,0,0V729.56A16.56,16.56,0,0,1,577.89,713Z"/><rect class="cls-21" x="569.01" y="733.48" width="237.24" height="157.08"/><text class="cls-22" transform="translate(579.01 780.48)">&gt;</text><rect class="cls-23" x="614.01" y="753.48" width="93" height="24"/><rect class="cls-23" x="614.01" y="788.02" width="50.12" height="24"/><rect class="cls-23" x="614.01" y="822.56" width="132" height="24"/><rect class="cls-23" x="677.95" y="788.02" width="16.32" height="24"/><rect class="cls-2" x="121.74" y="1000.31" width="2464.78" height="143.32"/><text class="cls-3" transform="translate(1253.74 1088.81)">SDK</text><g id="Layer_2" data-name="Layer 2"><g id="Layer_1-2" data-name="Layer 1-2"><path class="cls-24" d="M2292.23,848.21a12,12,0,0,0-15.68-6.49l-11.1,4.6L2226.33,752a15,15,0,0,0,4.63-17.55l-7.59-18.31-27.71,11.5,7.59,18.31a15,15,0,0,0,15.69,9.12l39.13,94.34L2247,854a12,12,0,0,0-6.54,15.63l4.72,9.63h57.68Z"/><polygon class="cls-24" points="2480.95 883.93 2480.95 739.23 2486.45 739.23 2486.45 721.63 2353.95 721.63 2353.95 739.23 2359.95 739.23 2360.09 752.96 2344.2 753.24 2344.2 883.93 2178.95 883.93 2178.95 888.93 2509.95 888.93 2509.95 883.93 2480.95 883.93"/><circle class="cls-25" cx="2211.36" cy="858.83" r="2.16" transform="translate(1264.83 3034.1) rotate(-87.71)"/><line class="cls-26" x1="2213.79" y1="843.03" x2="2190.93" y2="834.4"/><line class="cls-26" x1="2210.28" y1="810.4" x2="2219.41" y2="821.02"/><line class="cls-26" x1="2223.82" y1="826.15" x2="2226.37" y2="829.12"/><circle class="cls-27" cx="2276.52" cy="811.68" r="2.21" transform="translate(349.53 2270.46) rotate(-56.75)"/><line class="cls-26" x1="2311.18" y1="797.75" x2="2291.98" y2="821.53"/><line class="cls-26" x1="2321.19" y1="828.67" x2="2303.92" y2="834.75"/><line class="cls-28" x1="2495.28" y1="879.27" x2="2504.95" y2="879.27"/><polyline class="cls-28" points="2173.95 879.27 2339.2 879.63 2339.2 748.24 2363.06 747.93 2363.06 764.47 2386.93 764.47 2386.93 747.93 2410.79 747.93 2410.79 764.47 2434.66 764.47 2434.66 747.93 2459.02 748.24 2459.02 879.27 2484.28 879.27"/><rect class="cls-28" x="2233.29" y="745.53" width="8" height="100.69" transform="translate(-134.2 918) rotate(-22.53)"/><rect class="cls-28" x="2215.96" y="748.98" width="8" height="10.22" transform="translate(-119.51 908.17) rotate(-22.53)"/><rect class="cls-28" x="2244.39" y="801.24" width="8" height="42.77" transform="translate(-143.6 924.29) rotate(-22.53)"/><path class="cls-28" d="M2240.22,874.29l-4.77-9.67a12,12,0,0,1,6.49-15.68l29.6-12.22a12,12,0,0,1,15.68,6.49l10.67,31.08"/><path class="cls-28" d="M2190.66,722.61l27.71-11.5h0l7.59,18.31a15,15,0,0,1-8.11,19.6h0a15,15,0,0,1-19.6-8.11l-7.59-18.31Z"/><rect class="cls-28" x="2190.82" y="716.61" width="30" height="6.81" transform="translate(-107.53 900.15) rotate(-22.53)"/><rect class="cls-12" x="2374.95" y="817.93" width="59" height="66"/><polyline class="cls-28" points="2370.45 879.43 2370.45 813.43 2428.45 813.43 2428.45 853.43"/><line class="cls-28" x1="2428.45" y1="870.93" x2="2428.45" y2="879.43"/><line class="cls-28" x1="2428.45" y1="859.93" x2="2428.45" y2="864.26"/><polyline class="cls-28" points="2475.45 874.29 2475.45 734.23 2481.45 734.23 2481.45 716.63 2348.95 716.63 2348.95 734.23 2354.95 734.23 2354.95 741.17"/><line class="cls-28" x1="2467.95" y1="734.43" x2="2362.95" y2="734.43"/></g></g><text class="cls-29" transform="translate(118.74 594.79)"><tspan class="cls-30">Hyperledger Composer</tspan><tspan class="cls-31" x="526.35" y="0" xml:space="preserve"> components:</tspan></text><rect class="cls-2" x="85.94" y="1408.22" width="2538.09" height="425.97"/><rect class="cls-2" x="121.74" y="1543.23" width="585.27" height="255.77"/><text class="cls-3" transform="translate(169.74 1638)">Hyperledger Fabric<tspan x="0" y="55.2">V0.6</tspan></text><rect class="cls-2" x="746.01" y="1543.23" width="585.27" height="255.77"/><text class="cls-3" transform="translate(794.01 1638)">Hyperledger Fabric<tspan x="0" y="55.2">V1 Alpha1</tspan></text><rect class="cls-2" x="1369.75" y="1543.23" width="585.27" height="255.77"/><text class="cls-3" transform="translate(1417.75 1638)">Web</text><rect class="cls-2" x="1999.34" y="1543.23" width="585.27" height="255.77"/><text class="cls-3" transform="translate(2047.35 1638)">Embedded<tspan x="0" y="55.2">(Node.js)</tspan></text><text class="cls-3" transform="translate(118.74 1491.23)">Supported Runtimes:</text></g><g id="Angular"><text class="cls-17" transform="translate(1382.63 446.3)">CALLS REST API</text><rect class="cls-2" x="1365.79" y="151.75" width="716.94" height="142.93"/><text class="cls-3" transform="translate(1460.67 213.37)">Angular<tspan class="cls-32"><tspan x="0" y="38.4">Skeleton angular application</tspan></tspan></text><polygon class="cls-33" points="1325.91 99.22 1325.91 99.22 1325.91 99.22 1210.47 140.38 1228.08 293.03 1325.91 347.22 1325.91 347.22 1325.91 347.22 1423.75 293.03 1441.36 140.38 1325.91 99.22"/><polygon class="cls-34" points="1325.91 99.22 1325.91 126.75 1325.91 126.62 1325.91 252.23 1325.91 252.23 1325.91 347.22 1325.91 347.22 1423.75 293.03 1441.36 140.38 1325.91 99.22"/><path class="cls-12" d="M1325.91,126.62l-72.17,161.82h26.91l14.51-36.21h61.26l14.51,36.21h26.91l-71.92-161.82ZM1347,229.91h-42.16l21.08-50.72Z"/><line class="cls-35" x1="1325.79" y1="411.7" x2="1325.79" y2="598.26"/><polygon class="cls-36" points="1314.68 420.13 1325.79 415.41 1336.9 420.13 1325.79 393.8 1314.68 420.13"/><polygon class="cls-36" points="1314.68 589.84 1325.79 594.56 1336.9 589.84 1325.79 616.17 1314.68 589.84"/><text class="cls-17" transform="translate(1382.63 1281.42)">USE CONNECTION PROFILES &amp;<tspan x="0" y="40.8">CREDENTIALS TO CONNECT</tspan></text><line class="cls-35" x1="1325.79" y1="1230.08" x2="1325.79" y2="1353.38"/><polygon class="cls-36" points="1314.68 1238.51 1325.79 1233.79 1336.9 1238.51 1325.79 1212.18 1314.68 1238.51"/><polygon class="cls-36" points="1314.68 1344.95 1325.79 1349.67 1336.9 1344.95 1325.79 1371.29 1314.68 1344.95"/></g></svg>