<?xml version="1.0" encoding="utf-8"?>
<!-- Generator: Adobe Illustrator 21.1.0, SVG Export Plug-In . SVG Version: 6.00 Build 0)  -->
<svg version="1.1" id="Layer_1" xmlns="http://www.w3.org/2000/svg" xmlns:xlink="http://www.w3.org/1999/xlink" x="0px" y="0px"
	 viewBox="0 0 817 497" style="enable-background:new 0 0 817 497;" xml:space="preserve">
<style type="text/css">
	.st0{fill:none;stroke:#CDCCCC;stroke-miterlimit:10;}
	.st1{fill:#3C3C3B;}
	.st2{fill:#FFFFFF;}
	.st3{fill:#2365AE;}
	.st4{fill:none;stroke:#9D9D9C;stroke-miterlimit:10;}
	.st5{fill:#9D9D9C;}
	.st6{fill:#585857;}
	.st7{fill:none;stroke:#9D9D9C;stroke-linecap:round;stroke-linejoin:round;}
	.st8{fill:none;stroke:#9D9D9C;stroke-linecap:round;stroke-linejoin:round;stroke-dasharray:0.98,3.94;}
	.st9{fill:#FFFFFF;stroke:#9D9D9C;stroke-miterlimit:10;}
	.st10{opacity:0.3;fill:#E1EBF7;enable-background:new    ;}
	.st11{fill:#B0BCE1;}
	.st12{fill:#FFFFFF;stroke:#B0BCE1;stroke-width:2;stroke-linecap:round;stroke-linejoin:round;}
	.st13{fill:#FFFFFF;stroke:#2E408F;stroke-width:2;stroke-linejoin:round;}
	.st14{fill:#2E408F;}
	.st15{fill:none;stroke:#F9AF15;stroke-width:3;stroke-linecap:round;stroke-miterlimit:10;}
	.st16{fill:none;stroke:#B0BCE1;stroke-width:2;stroke-linecap:round;stroke-linejoin:round;}
	.st17{fill:none;stroke:#D2D7EE;stroke-width:2;stroke-linecap:round;stroke-linejoin:round;}
	.st18{fill:#FFFFFF;stroke:#D2D7EE;stroke-width:2;stroke-linecap:round;stroke-linejoin:round;}
	.st19{fill:#1D1D1B;}
	.st20{font-family:'OpenSans-Light';}
	.st21{font-size:12px;}
	.st22{font-family:'OpenSans-Bold';}
	.st23{fill:#EF7D6E;}
	.st24{fill:#2465AE;}
	.st25{fill:#575756;}
	.st26{fill:#F39200;}
	.st27{fill:#E6332A;}
</style>
<title>Hyperledger Composer Diagram</title>
<g id="Layer_2">
	<polyline class="st0" points="418,215.5 687.2,215.5 687.2,320.8 432.7,320.8 	"/>
	<path class="st1" d="M9.6,90.4v5.5h5.8v-5.5h3.1v14.3h-3.1v-6.2H9.6v6.2H6.5V90.4H9.6z"/>
	<path class="st1" d="M22.7,94.4l2.3,7.1l0,0l2.3-7.1h2.9L26,106c-0.2,0.7-0.7,1.3-1.3,1.8c-0.7,0.4-1.5,0.6-2.2,0.6
		c-0.4,0-1,0-1.8-0.1v-2.3c0.5,0.1,1,0.1,1.5,0.1c0.3,0,0.7-0.1,0.9-0.4c0.2-0.3,0.3-0.6,0.3-0.9c0-0.2,0-0.4-0.1-0.6l-3.6-9.7
		L22.7,94.4z"/>
	<path class="st1" d="M37,94.1c1.3-0.1,2.6,0.5,3.4,1.5c0.9,1.2,1.4,2.6,1.3,4.1c0.1,1.4-0.4,2.7-1.2,3.8c-0.8,1-2,1.5-3.3,1.5
		c-1.2,0.1-2.4-0.5-3.1-1.6l0,0v4.9h-2.9v-14h2.7v1.3l0,0C34.5,94.6,35.7,94,37,94.1z M33.9,99.6c0,0.8,0.2,1.7,0.6,2.4
		c0.4,0.6,1.1,0.9,1.8,0.9c0.7,0.1,1.4-0.3,1.8-0.9c0.4-0.7,0.7-1.6,0.6-2.4c0.1-0.9-0.2-1.7-0.7-2.4c-0.4-0.6-1.1-0.9-1.8-0.9
		c-0.7,0-1.4,0.3-1.8,0.9C34,97.9,33.8,98.7,33.9,99.6z"/>
	<path class="st1" d="M47.9,94.1c0.9,0,1.8,0.2,2.6,0.7c0.8,0.5,1.4,1.2,1.8,2c0.5,0.9,0.7,2,0.7,3c0,0.1,0,0.3,0,0.5h-7.5
		c0,0.7,0.2,1.4,0.7,1.9c0.5,0.5,1.2,0.7,1.9,0.7c0.5,0,1-0.1,1.4-0.4c0.4-0.2,0.7-0.6,0.8-1h2.5c-0.6,2.2-2.6,3.6-4.8,3.5
		c-0.9,0-1.8-0.2-2.6-0.6c-0.8-0.4-1.5-1.1-1.9-1.9c-0.5-0.9-0.8-2-0.7-3c0-1,0.2-2,0.7-2.9c0.4-0.8,1.1-1.5,1.9-1.9
		C46.1,94.3,47,94.1,47.9,94.1z M50,98.4c-0.1-0.6-0.3-1.2-0.7-1.7c-0.4-0.4-1-0.6-1.5-0.5c-0.6,0-1.2,0.2-1.6,0.6
		c-0.4,0.4-0.7,1-0.7,1.6H50z"/>
	<path class="st1" d="M60.4,94.1c0.2,0,0.4,0,0.6,0.1v2.6c-0.3-0.1-0.7-0.1-1-0.1c-1.9,0-2.8,1.1-2.8,3.3v4.7h-2.9V94.4h2.7v1.9l0,0
		C57.6,95,58.9,94.1,60.4,94.1L60.4,94.1z"/>
	<path class="st1" d="M65.2,90.4v14.3h-2.8V90.4H65.2z"/>
	<path class="st1" d="M72,94.1c0.9,0,1.8,0.2,2.6,0.7c0.8,0.5,1.4,1.2,1.8,2c0.5,0.9,0.7,2,0.7,3c0,0.1,0,0.3,0,0.5h-7.5
		c0,0.7,0.2,1.4,0.7,1.9c0.5,0.5,1.2,0.7,1.9,0.7c0.5,0,1-0.1,1.4-0.4c0.4-0.2,0.7-0.6,0.8-1h2.5c-0.6,2.2-2.6,3.7-4.9,3.5
		c-0.9,0-1.8-0.2-2.6-0.6c-0.8-0.4-1.5-1.1-1.9-1.9c-0.5-0.9-0.8-2-0.7-3c0-1,0.2-2,0.7-2.9c0.4-0.8,1.1-1.5,1.9-1.9
		C70.2,94.3,71.1,94.1,72,94.1z M74.2,98.4c-0.1-0.6-0.3-1.2-0.7-1.7c-0.4-0.4-1-0.6-1.5-0.5c-0.6,0-1.2,0.2-1.6,0.6
		c-0.4,0.4-0.7,1-0.7,1.6H74.2z"/>
	<path class="st1" d="M88.6,90.4v14.3h-2.7v-1.3l0,0c-0.7,1.1-1.9,1.7-3.1,1.6c-1.3,0.1-2.6-0.5-3.4-1.6c-0.9-1.1-1.3-2.6-1.2-4
		c-0.1-1.4,0.4-2.8,1.3-3.9c1.3-1.5,3.3-1.9,5.1-1.1c0.5,0.2,1,0.6,1.3,1.2l0,0v-5.2L88.6,90.4z M80.9,99.5c0,0.8,0.2,1.7,0.7,2.4
		c0.4,0.6,1.1,1,1.8,1c0.7,0,1.4-0.3,1.8-0.9c0.4-0.7,0.7-1.6,0.6-2.4c0.1-0.9-0.2-1.7-0.6-2.4c-0.4-0.6-1.1-0.9-1.8-0.9
		c-0.7,0-1.4,0.3-1.8,0.9C81.1,97.9,80.9,98.7,80.9,99.5z"/>
	<path class="st1" d="M94.5,94.1c1.3-0.1,2.5,0.6,3.1,1.7l0,0v-1.4h2.7v9.7c0.1,1.3-0.4,2.5-1.4,3.4c-1.2,0.9-2.6,1.3-4,1.2
		c-1.2,0-2.3-0.3-3.2-0.9c-0.8-0.5-1.3-1.4-1.3-2.4h2.8c0.2,0.9,0.9,1.4,2.1,1.4c0.6,0,1.2-0.2,1.7-0.7c0.4-0.5,0.6-1.2,0.6-1.8
		v-1.4l0,0c-0.3,0.5-0.7,0.9-1.2,1.2c-0.6,0.3-1.2,0.4-1.9,0.4c-1.2,0.1-2.4-0.4-3.2-1.4c-0.9-1.1-1.3-2.5-1.2-3.8
		c0-1.3,0.4-2.6,1.2-3.7C92,94.6,93.2,94.1,94.5,94.1z M92.9,99.2c0,0.8,0.2,1.6,0.6,2.3c0.4,0.5,1,0.8,1.7,0.8
		c0.7,0,1.3-0.3,1.8-0.8c0.5-0.6,0.7-1.3,0.7-2.1c0.1-0.8-0.1-1.7-0.6-2.4c-0.4-0.5-1.1-0.8-1.8-0.8c-0.7,0-1.3,0.3-1.7,0.8
		C93.1,97.7,92.8,98.4,92.9,99.2z"/>
	<path class="st1" d="M107,94.1c0.9,0,1.8,0.2,2.6,0.7c0.8,0.5,1.4,1.2,1.8,2c0.5,0.9,0.7,2,0.7,3c0,0.1,0,0.3,0,0.5h-7.5
		c0,0.7,0.2,1.4,0.7,1.9c0.5,0.5,1.2,0.7,1.9,0.7c0.5,0,1-0.1,1.4-0.4c0.4-0.2,0.7-0.6,0.8-1h2.5c-0.6,2.2-2.6,3.7-4.9,3.5
		c-0.9,0-1.8-0.2-2.6-0.6c-0.8-0.4-1.5-1.1-1.9-1.9c-0.5-0.9-0.8-2-0.7-3c0-1,0.2-2,0.7-2.9c0.4-0.8,1.1-1.5,1.9-1.9
		C105.2,94.3,106.1,94.1,107,94.1z M109.2,98.4c-0.1-0.6-0.3-1.2-0.7-1.7c-0.4-0.4-1-0.6-1.5-0.5c-0.6,0-1.2,0.2-1.6,0.6
		c-0.4,0.4-0.7,1-0.7,1.6H109.2z"/>
	<path class="st1" d="M119.5,94.1c0.2,0,0.4,0,0.6,0.1v2.6c-0.3-0.1-0.7-0.1-1-0.1c-1.9,0-2.8,1.1-2.8,3.3v4.7h-2.8V94.4h2.7v1.9
		l0,0C116.7,95,118,94.1,119.5,94.1L119.5,94.1z"/>
	<path class="st1" d="M23.9,114.1c1.4-0.1,2.9,0.4,4,1.2c1.1,0.8,1.7,2.1,1.9,3.4H28c-0.2-0.9-0.6-1.7-1.4-2.3
		c-0.8-0.5-1.7-0.8-2.6-0.8c-1.3,0-2.6,0.5-3.5,1.6c-0.9,1.2-1.4,2.7-1.3,4.2c-0.1,1.6,0.4,3.1,1.3,4.4c0.9,1.1,2.2,1.7,3.6,1.6
		c1.1,0,2.1-0.4,2.9-1.2c0.8-0.8,1.2-1.9,1.2-3H30c-0.1,1.6-0.8,3.2-2,4.3c-1.2,1-2.7,1.5-4.3,1.5c-1.8,0.1-3.6-0.6-4.8-2
		c-2.4-3.2-2.4-7.6,0-10.9C20.2,114.8,22,114,23.9,114.1z"/>
	<path class="st1" d="M36.4,118.1c1.4-0.1,2.7,0.5,3.7,1.5c1.8,2.3,1.8,5.5,0,7.8c-0.9,1-2.3,1.6-3.7,1.6c-1.4,0.1-2.7-0.5-3.7-1.5
		c-1-1.1-1.4-2.5-1.4-3.9c-0.1-1.4,0.4-2.9,1.4-3.9C33.7,118.6,35,118.1,36.4,118.1z M33.2,123.6c0,1,0.3,2,0.9,2.8
		c1.1,1.3,2.9,1.5,4.2,0.4c0.1-0.1,0.3-0.3,0.4-0.4c0.6-0.8,1-1.8,0.9-2.8c0-1-0.3-2-0.9-2.8c-0.6-0.7-1.4-1.1-2.3-1.1
		c-0.9,0-1.7,0.4-2.3,1.1C33.5,121.5,33.2,122.5,33.2,123.6z"/>
	<path class="st1" d="M48.1,118.1c1.3-0.2,2.5,0.6,2.9,1.8c0.3-0.5,0.8-1,1.4-1.3c0.6-0.3,1.2-0.5,1.9-0.5c0.9-0.1,1.9,0.2,2.6,0.8
		c0.6,0.6,0.9,1.3,0.8,2.2v7.6H56v-6.9c0-0.6-0.1-1.2-0.5-1.7c-0.4-0.4-1-0.6-1.5-0.6c-0.7,0-1.5,0.2-2,0.7
		c-0.5,0.5-0.8,1.2-0.8,1.9v6.5h-1.7v-6.9c0-0.6-0.1-1.2-0.5-1.7c-0.4-0.4-0.9-0.6-1.5-0.6c-0.5,0-0.9,0.1-1.3,0.3
		c-0.4,0.2-0.8,0.6-1,1c-0.2,0.4-0.4,0.8-0.4,1.2v6.5h-1.7v-10.3h1.6v1.5l0,0C45.5,118.7,46.8,118.1,48.1,118.1z"/>
	<path class="st1" d="M64.9,118.1c1.3-0.1,2.6,0.5,3.5,1.5c0.9,1.1,1.4,2.5,1.3,3.9c0.1,1.4-0.4,2.8-1.3,3.9c-0.9,1-2.1,1.6-3.4,1.5
		c-0.6,0-1.3-0.1-1.9-0.4c-0.6-0.3-1.1-0.7-1.5-1.2l0,0v5.3h-1.7v-14.3h1.7v1.4l0,0C62.1,118.7,63.2,118.1,64.9,118.1z M61.5,123.5
		c-0.1,1,0.2,2,0.8,2.9c0.6,0.7,1.5,1.1,2.4,1.1c0.9,0,1.7-0.4,2.3-1c0.6-0.9,0.9-1.9,0.8-2.9c0.1-1-0.2-2-0.8-2.8
		c-0.6-0.7-1.4-1.1-2.3-1.1c-0.9,0-1.7,0.3-2.3,1C61.7,121.5,61.4,122.5,61.5,123.5z"/>
	<path class="st1" d="M76,118.1c1.4-0.1,2.7,0.5,3.7,1.5c1.8,2.3,1.8,5.5,0,7.8c-0.9,1-2.3,1.6-3.7,1.6c-1.4,0.1-2.7-0.5-3.7-1.5
		c-1-1.1-1.4-2.5-1.3-4c-0.1-1.4,0.4-2.9,1.3-3.9C73.3,118.6,74.6,118.1,76,118.1z M72.8,123.6c0,1,0.3,2,0.9,2.8
		c1.1,1.3,2.9,1.5,4.2,0.4c0.1-0.1,0.3-0.3,0.4-0.4c0.6-0.8,1-1.8,0.9-2.8c0-1-0.3-2-0.9-2.8c-0.6-0.7-1.4-1.1-2.3-1.1
		c-0.9,0-1.7,0.4-2.3,1.1C73.1,121.5,72.7,122.5,72.8,123.6z"/>
	<path class="st1" d="M86.4,118.1c1.1-0.1,2.2,0.2,3.1,0.8c0.7,0.6,1.1,1.5,1.1,2.4h-1.7l0,0c0-0.5-0.3-1-0.7-1.3
		c-0.5-0.3-1.1-0.5-1.7-0.4c-0.6,0-1.1,0.1-1.6,0.3c-0.5,0.3-0.7,0.9-0.5,1.5c0.1,0.2,0.2,0.3,0.4,0.4c0.5,0.3,1,0.5,1.6,0.6
		l1.6,0.4c0.8,0.1,1.6,0.5,2.3,1c0.5,0.5,0.8,1.1,0.7,1.8c0,0.9-0.4,1.9-1.2,2.4c-1,0.6-2.1,0.9-3.2,0.9c-1.1,0.1-2.2-0.2-3.1-0.9
		c-0.8-0.6-1.3-1.6-1.2-2.6H84c0,0.6,0.3,1.1,0.8,1.5c0.6,0.4,1.3,0.6,2,0.5c1.7,0,2.5-0.5,2.5-1.5c0-0.4-0.2-0.9-0.6-1.1
		c-0.8-0.4-1.7-0.7-2.7-0.8c-1-0.1-1.9-0.5-2.7-1c-0.6-0.5-0.9-1.2-0.8-1.9c0-0.8,0.3-1.6,1-2.1C84.3,118.4,85.3,118.1,86.4,118.1z"
		/>
	<path class="st1" d="M97,118.1c1.3-0.1,2.6,0.5,3.4,1.6c0.9,1.2,1.3,2.7,1.2,4.1v0.2H94v0.1c0,0.9,0.3,1.7,0.9,2.4
		c0.6,0.6,1.5,0.9,2.4,0.9c1.3,0.1,2.5-0.7,2.7-2h1.7c-0.2,1-0.7,2-1.5,2.6c-0.8,0.6-1.9,0.9-2.9,0.9c-1.4,0.1-2.8-0.5-3.7-1.6
		c-0.9-1.1-1.3-2.5-1.3-3.9c0-1.4,0.4-2.8,1.4-3.8C94.4,118.7,95.7,118.1,97,118.1z M99.9,122.6c0-0.8-0.4-1.5-0.9-2.1
		c-0.6-0.6-1.3-0.9-2.1-0.8c-0.7,0-1.5,0.3-2,0.8c-0.6,0.6-0.9,1.3-0.9,2.1H99.9z"/>
	<path class="st1" d="M108.9,118.1v1.8c-1-0.1-2.1,0.3-2.8,1c-0.7,0.9-1,2-0.9,3.2v4.6h-1.7v-10.3h1.6v2.2l0,0
		c0.6-1.5,2-2.4,3.6-2.4H108.9z"/>
	<path class="st1" d="M5.1,331.2h3.1v5.3h6.1v-5.3h3.1v14.2h-3.1v-6.1H8.2v6.1H5.1V331.2z"/>
	<path class="st1" d="M25.5,346.9c-0.2,0.5-0.4,1-0.6,1.4c-0.2,0.4-0.4,0.7-0.7,1c-0.3,0.3-0.7,0.5-1.1,0.6
		c-0.6,0.2-1.2,0.2-1.7,0.2c-0.8,0-1.5-0.1-2.2-0.4l0.4-2.5c0.4,0.2,0.9,0.3,1.4,0.3c0.3,0,0.6,0,0.8-0.1c0.2-0.1,0.4-0.2,0.5-0.3
		c0.1-0.1,0.3-0.3,0.4-0.5c0.1-0.2,0.2-0.4,0.3-0.7l0.2-0.6l-4.3-9.8h3.2l2.5,6.4l0,0l2.1-6.4h3.1L25.5,346.9z"/>
	<path class="st1" d="M31.3,335.6h2.8v1.3l0,0c0.1-0.2,0.3-0.4,0.5-0.5c0.2-0.2,0.4-0.4,0.7-0.5c0.3-0.2,0.6-0.3,0.8-0.4
		c0.3-0.1,0.7-0.1,1-0.1c0.7,0,1.4,0.1,2,0.4c0.6,0.2,1.1,0.6,1.5,1c0.4,0.5,0.8,1,1,1.6c0.2,0.6,0.3,1.3,0.3,2c0,0.7-0.1,1.4-0.3,2
		c-0.2,0.6-0.5,1.2-0.9,1.6c-0.4,0.5-0.9,0.9-1.4,1.1c-0.6,0.3-1.2,0.4-1.9,0.4c-0.6,0-1.2-0.1-1.8-0.3c-0.5-0.2-1-0.5-1.3-1l0,0
		v5.6h-3L31.3,335.6z M34.1,340.5c0,0.7,0.2,1.3,0.6,1.8c1,0.9,2.5,0.9,3.5,0c0.8-1,0.8-2.5,0-3.6c-1-0.9-2.5-0.9-3.5,0
		C34.3,339.2,34,339.8,34.1,340.5L34.1,340.5z"/>
	<path class="st1" d="M52.8,343.7c-0.5,0.6-1.1,1.1-1.8,1.4c-0.7,0.3-1.5,0.5-2.3,0.5c-0.7,0-1.4-0.1-2.1-0.4
		c-0.6-0.2-1.2-0.6-1.7-1c-0.5-0.5-0.9-1-1.2-1.6c-0.6-1.3-0.6-2.9,0-4.2c0.3-0.6,0.7-1.2,1.2-1.6c0.5-0.4,1.1-0.8,1.7-1
		c0.7-0.2,1.4-0.4,2.1-0.4c0.6,0,1.3,0.1,1.9,0.4c0.5,0.2,1,0.6,1.4,1c0.4,0.5,0.7,1,0.9,1.6c0.2,0.7,0.3,1.4,0.3,2.1v0.9h-7
		c0.1,0.5,0.4,1,0.8,1.4c0.4,0.3,0.9,0.5,1.5,0.5c0.4,0,0.9-0.1,1.2-0.3c0.3-0.2,0.6-0.5,0.9-0.9L52.8,343.7z M50.3,339.4
		c0-0.5-0.2-1-0.5-1.3c-0.4-0.4-0.8-0.6-1.3-0.5c-0.3,0-0.6,0-0.9,0.2c-0.2,0.1-0.5,0.2-0.7,0.4c-0.2,0.2-0.3,0.4-0.4,0.6
		c-0.1,0.2-0.2,0.5-0.2,0.7H50.3z"/>
	<path class="st1" d="M55.1,335.6h3v1.6l0,0c0.3-0.5,0.7-1,1.1-1.4c0.5-0.3,1.1-0.5,1.7-0.5h0.5c0.2,0,0.3,0,0.5,0.1v2.7
		c-0.2-0.1-0.4-0.1-0.6-0.1c-0.2,0-0.4,0-0.7,0c-0.5,0-0.9,0.1-1.4,0.2c-0.3,0.1-0.6,0.4-0.8,0.7c-0.2,0.3-0.3,0.6-0.3,1
		c-0.1,0.4-0.1,0.9-0.1,1.3v4.1h-3L55.1,335.6z"/>
	<path class="st1" d="M63.3,330.2h3v15.1h-3V330.2z"/>
	<path class="st1" d="M77.7,343.7c-0.5,0.6-1.1,1.1-1.8,1.4c-0.7,0.3-1.5,0.5-2.3,0.5c-0.7,0-1.4-0.1-2.1-0.4
		c-0.6-0.2-1.2-0.6-1.7-1c-0.5-0.5-0.9-1-1.2-1.6c-0.6-1.3-0.6-2.9,0-4.2c0.3-0.6,0.7-1.2,1.2-1.6c0.5-0.4,1.1-0.8,1.7-1
		c0.7-0.2,1.4-0.4,2.1-0.4c0.6,0,1.3,0.1,1.9,0.4c0.5,0.2,1,0.6,1.4,1c0.4,0.5,0.7,1,0.9,1.6c0.2,0.7,0.3,1.4,0.3,2.1v0.9h-7
		c0.1,0.5,0.4,1,0.8,1.4c0.4,0.3,0.9,0.5,1.5,0.5c0.4,0,0.9-0.1,1.2-0.3c0.3-0.2,0.6-0.5,0.9-0.9L77.7,343.7z M75.1,339.4
		c0-0.5-0.2-1-0.5-1.3c-0.4-0.4-0.8-0.6-1.3-0.5c-0.3,0-0.6,0-0.9,0.2c-0.2,0.1-0.5,0.2-0.7,0.4c-0.2,0.2-0.3,0.4-0.4,0.6
		c-0.1,0.2-0.2,0.5-0.2,0.7H75.1z"/>
	<path class="st1" d="M90.1,345.3h-2.8v-1.3l0,0c-0.1,0.2-0.3,0.4-0.5,0.5c-0.2,0.2-0.4,0.4-0.7,0.5c-0.3,0.2-0.6,0.3-0.9,0.4
		c-0.3,0.1-0.7,0.1-1,0.1c-0.7,0-1.4-0.1-2-0.4c-0.6-0.2-1.1-0.6-1.5-1c-0.4-0.5-0.8-1-1-1.6c-0.2-0.6-0.3-1.3-0.3-2
		c0-0.7,0.1-1.4,0.3-2c0.2-0.6,0.5-1.2,0.9-1.6c0.4-0.5,0.9-0.9,1.4-1.1c0.6-0.3,1.2-0.4,1.9-0.4c0.6,0,1.2,0.1,1.8,0.3
		c0.5,0.2,1,0.5,1.3,1l0,0v-6.4h3L90.1,345.3z M87.4,340.5c0-0.7-0.2-1.3-0.6-1.8c-1-0.9-2.5-0.9-3.5,0c-0.8,1-0.8,2.5,0,3.6
		c1,0.9,2.5,0.9,3.5,0C87.2,341.8,87.4,341.1,87.4,340.5z"/>
	<path class="st1" d="M102.7,344.5c0.1,1.5-0.4,3-1.4,4.2c-1.2,1-2.7,1.6-4.2,1.4c-0.9,0-1.7-0.1-2.6-0.3c-0.8-0.2-1.6-0.6-2.3-1.1
		l1.7-2.5c0.4,0.4,0.9,0.7,1.5,0.9c0.5,0.2,1.1,0.3,1.7,0.3c0.7,0.1,1.5-0.2,2-0.7c0.4-0.5,0.7-1.1,0.7-1.7v-0.9l0,0
		c-0.3,0.5-0.8,0.8-1.3,1c-0.5,0.2-1,0.3-1.4,0.3c-0.7,0-1.4-0.1-2-0.4c-0.6-0.2-1.1-0.6-1.5-1c-0.4-0.5-0.8-1-1-1.6
		c-0.2-0.6-0.3-1.3-0.3-2c0-0.6,0.1-1.3,0.3-1.9c0.2-0.6,0.5-1.1,0.9-1.6c0.4-0.5,0.9-0.9,1.4-1.1c0.6-0.3,1.2-0.4,1.9-0.4
		c0.7,0,1.5,0.2,2.1,0.5c0.3,0.1,0.5,0.3,0.7,0.5c0.2,0.2,0.3,0.3,0.5,0.5l0,0v-1.3h2.8L102.7,344.5z M95.2,340.4
		c0,0.6,0.2,1.2,0.7,1.7c0.2,0.2,0.5,0.4,0.8,0.5c0.6,0.3,1.3,0.3,1.9,0c0.3-0.1,0.5-0.3,0.8-0.5c0.4-0.4,0.7-1,0.7-1.7
		c0-0.6-0.2-1.2-0.7-1.7c-0.2-0.2-0.5-0.4-0.8-0.5c-0.6-0.3-1.3-0.3-1.9,0c-0.3,0.1-0.5,0.3-0.8,0.5
		C95.4,339.2,95.2,339.8,95.2,340.4z"/>
	<path class="st1" d="M114.3,343.7c-0.5,0.6-1.1,1.1-1.8,1.4c-0.7,0.3-1.5,0.5-2.3,0.5c-0.7,0-1.4-0.1-2.1-0.4
		c-0.6-0.2-1.2-0.6-1.7-1c-0.5-0.5-0.9-1-1.2-1.6c-0.6-1.3-0.6-2.9,0-4.2c0.3-0.6,0.7-1.2,1.2-1.6c0.5-0.4,1.1-0.8,1.7-1
		c0.7-0.2,1.4-0.4,2.1-0.4c0.6,0,1.3,0.1,1.9,0.4c0.5,0.2,1,0.6,1.4,1c0.4,0.5,0.7,1,0.9,1.6c0.2,0.7,0.3,1.4,0.3,2.1v0.9h-7
		c0.1,0.5,0.4,1,0.8,1.4c0.4,0.3,0.9,0.5,1.5,0.5c0.4,0,0.9-0.1,1.2-0.3c0.3-0.2,0.6-0.5,0.9-0.9L114.3,343.7z M111.8,339.4
		c0-0.5-0.2-1-0.5-1.3c-0.4-0.4-0.8-0.6-1.3-0.5c-0.3,0-0.6,0-0.9,0.2c-0.2,0.1-0.5,0.2-0.7,0.4c-0.2,0.2-0.3,0.4-0.4,0.6
		c-0.1,0.2-0.2,0.5-0.2,0.7H111.8z"/>
	<path class="st1" d="M116.6,335.6h3v1.6l0,0c0.3-0.5,0.7-1,1.1-1.4c0.5-0.3,1.1-0.5,1.7-0.5h0.5c0.2,0,0.3,0,0.5,0.1v2.7
		c-0.2-0.1-0.4-0.1-0.6-0.1c-0.2,0-0.4,0-0.7,0c-0.5,0-0.9,0.1-1.4,0.2c-0.3,0.1-0.6,0.4-0.8,0.7c-0.2,0.3-0.3,0.6-0.3,1
		c-0.1,0.4-0.1,0.9-0.1,1.3v4.1h-3L116.6,335.6z"/>
	<path class="st1" d="M37.8,355.2h8.8v1.6h-7.1v4.7h6.6v1.6h-6.6v6.4h-1.7V355.2z"/>
	<path class="st1" d="M48.6,361.2c0.5-0.5,1.1-0.9,1.7-1.1c0.6-0.2,1.3-0.3,2-0.4c1.1-0.1,2.2,0.3,3,1c0.7,0.8,1,1.9,0.9,3v4
		c0,0.3,0,0.5,0,0.8c0,0.3,0.1,0.5,0.1,0.8h-1.5c-0.1-0.2-0.1-0.5-0.1-0.7c0-0.3,0-0.5,0-0.7l0,0c-0.3,0.5-0.7,0.9-1.2,1.2
		c-0.6,0.3-1.2,0.5-1.8,0.5c-0.5,0-0.9-0.1-1.3-0.2c-0.4-0.1-0.8-0.3-1.1-0.5c-0.3-0.2-0.6-0.5-0.8-0.9c-0.2-0.4-0.3-0.8-0.3-1.2
		c0-0.7,0.2-1.3,0.6-1.8c0.4-0.5,0.9-0.8,1.5-1c0.6-0.2,1.3-0.4,1.9-0.4c0.7-0.1,1.3-0.1,1.9-0.1h0.6v-0.3c0-0.6-0.2-1.2-0.6-1.5
		c-0.5-0.4-1.1-0.6-1.7-0.5c-0.5,0-1,0.1-1.5,0.2c-0.5,0.2-0.9,0.4-1.3,0.8L48.6,361.2z M53.1,364.8c-0.8,0-1.6,0.1-2.4,0.4
		c-0.6,0.2-0.9,0.8-0.9,1.4c0,0.5,0.2,1,0.6,1.2c0.4,0.3,1,0.4,1.5,0.4c0.4,0,0.8-0.1,1.2-0.2c0.3-0.1,0.6-0.3,0.8-0.6
		c0.2-0.3,0.4-0.6,0.5-0.9c0.1-0.4,0.2-0.7,0.2-1.1v-0.6H53.1z"/>
	<path class="st1" d="M59,354.2h1.6v7.1l0,0c0.4-0.5,0.9-0.9,1.5-1.2c0.6-0.3,1.2-0.4,1.9-0.4c0.7,0,1.4,0.1,2,0.4
		c0.6,0.2,1.1,0.6,1.6,1c0.4,0.4,0.8,1,1,1.6c0.5,1.3,0.5,2.7,0,3.9c-0.2,0.6-0.6,1.1-1,1.6c-0.4,0.4-0.9,0.8-1.5,1
		c-0.6,0.2-1.2,0.4-1.8,0.4c-0.7,0-1.5-0.2-2.1-0.5c-0.6-0.3-1.1-0.8-1.4-1.4l0,0v1.7H59V354.2z M60.6,364.7c0,0.5,0.1,0.9,0.2,1.4
		c0.3,0.8,0.9,1.5,1.7,1.8c0.9,0.4,1.9,0.4,2.7,0c0.8-0.3,1.5-1,1.8-1.9c0.3-0.9,0.3-1.9,0-2.7c-0.3-0.8-0.9-1.5-1.7-1.8
		c-0.9-0.4-1.9-0.4-2.7,0c-0.8,0.3-1.4,1-1.7,1.8C60.6,363.7,60.5,364.2,60.6,364.7L60.6,364.7z"/>
	<path class="st1" d="M71.3,362.2c0-0.4,0-0.8,0-1.2c0-0.4,0-0.7,0-1h1.5c0,0.3,0,0.5,0,0.8s0,0.5,0,0.8l0,0
		c0.1-0.2,0.3-0.5,0.4-0.7c0.2-0.2,0.4-0.4,0.7-0.6c0.3-0.2,0.6-0.3,0.9-0.4c0.4-0.1,0.7-0.2,1.1-0.1h0.3c0.1,0,0.2,0,0.3,0.1
		l-0.1,1.6c-0.3-0.1-0.6-0.1-0.8-0.1c-0.8-0.1-1.6,0.3-2.1,0.9c-0.5,0.8-0.7,1.7-0.7,2.5v4.6h-1.6V362.2z"/>
	<path class="st1" d="M78.1,356.3c0-0.3,0.1-0.6,0.3-0.8c0.4-0.4,1.2-0.5,1.6,0c0,0,0,0,0,0c0.4,0.5,0.4,1.2-0.1,1.6
		c-0.5,0.4-1.2,0.4-1.6-0.1C78.2,356.9,78.1,356.6,78.1,356.3L78.1,356.3z M78.5,360H80v9.4h-1.5V360z"/>
	<path class="st1" d="M89.8,362.3c-0.3-0.4-0.7-0.7-1.1-0.9c-0.4-0.2-0.8-0.3-1.3-0.3c-0.5,0-0.9,0.1-1.4,0.3
		c-0.4,0.2-0.7,0.4-1,0.8c-0.3,0.3-0.5,0.7-0.6,1.1c-0.1,0.4-0.2,0.9-0.2,1.4c0,0.5,0.1,0.9,0.2,1.4c0.1,0.4,0.4,0.8,0.6,1.1
		c0.3,0.3,0.6,0.6,1,0.8c0.4,0.2,0.9,0.3,1.3,0.3c0.9,0,1.8-0.4,2.4-1.1l1.2,1.1c-0.4,0.5-1,0.9-1.6,1.1c-1.3,0.5-2.7,0.5-3.9,0
		c-0.6-0.2-1.1-0.6-1.5-1c-0.4-0.4-0.8-1-1-1.6c-0.5-1.3-0.5-2.7,0-3.9c0.2-0.6,0.6-1.1,1-1.6c0.4-0.4,1-0.8,1.5-1
		c0.6-0.3,1.3-0.4,2-0.4c0.7,0,1.4,0.1,2,0.4c0.6,0.2,1.1,0.6,1.6,1L89.8,362.3z"/>
	<polyline class="st0" points="194.3,38.7 194.3,26.5 375.7,26.5 375.7,113.8 194.3,113.8 194.3,101 	"/>
	<polyline class="st0" points="411.6,38.7 411.6,26.5 593,26.5 593,113.8 411.6,113.8 411.6,101 	"/>
	<polyline class="st0" points="630,38.7 630,26.5 811.4,26.5 811.4,113.8 630,113.8 630,101 	"/>
	<polygon class="st2" points="207.5,43.9 187.5,43.9 173.1,58.4 173.1,96.3 207.5,96.3 	"/>
	<path class="st3" d="M172.3,57.5v39.6h36v-54h-21.6L172.3,57.5z M174.1,59.3h14.4V44.9h18v50.4h-32.4L174.1,59.3z"/>
	<path class="st3" d="M179.2,76.4c0-0.3,0.1-0.6,0.3-0.8c0.2-0.2,0.5-0.3,0.8-0.3c0.3,0,0.6,0.1,0.8,0.3c0.4,0.5,0.4,1.1,0,1.6
		c-0.2,0.2-0.5,0.3-0.8,0.3c-0.3,0-0.6-0.1-0.8-0.3C179.3,77,179.2,76.7,179.2,76.4z"/>
	<path class="st3" d="M186.1,77.4c-2.2,0-3.3-1.2-3.3-3.6c-0.1-1,0.3-2,0.9-2.8c0.7-0.7,1.6-1.1,2.6-1c0.8,0,1.5,0.2,2.2,0.5
		l-0.6,1.5c-0.3-0.1-0.6-0.2-0.9-0.3c-0.3-0.1-0.5-0.1-0.8-0.1c-1,0-1.5,0.7-1.5,2.2c0,1.4,0.5,2.1,1.5,2.1c0.3,0,0.7-0.1,1-0.2
		c0.4-0.1,0.7-0.3,1-0.5v1.7c-0.3,0.2-0.6,0.3-0.9,0.4C186.9,77.4,186.5,77.4,186.1,77.4z"/>
	<path class="st3" d="M192.9,75.9c0.4,0,0.8-0.1,1.2-0.2v1.4c-0.6,0.2-1.2,0.3-1.8,0.3c-0.6,0.1-1.2-0.2-1.7-0.6
		c-0.4-0.5-0.6-1.1-0.5-1.8v-3.4h-0.9v-0.8l1.1-0.7l0.6-1.5h1.2v1.5h2v1.4h-2v3.4c0,0.2,0.1,0.5,0.2,0.6
		C192.4,75.8,192.6,75.9,192.9,75.9z"/>
	<path class="st3" d="M202,73.8c0.1,1-0.3,2-0.9,2.7c-0.7,0.7-1.6,1.1-2.6,1c-0.6,0-1.3-0.1-1.8-0.4c-0.5-0.3-0.9-0.7-1.2-1.3
		c-0.3-0.6-0.4-1.3-0.4-2c-0.1-1,0.3-2,0.9-2.7c0.7-0.7,1.6-1,2.6-1c0.6,0,1.2,0.1,1.8,0.4c0.5,0.3,0.9,0.7,1.2,1.3
		C201.9,72.4,202,73.1,202,73.8z M197.1,73.8c0,0.6,0.1,1.1,0.4,1.6c0.3,0.4,0.7,0.6,1.1,0.5c0.4,0,0.9-0.2,1.1-0.5
		c0.3-0.5,0.4-1,0.3-1.6c0-0.5-0.1-1.1-0.3-1.6c-0.5-0.6-1.4-0.7-2.1-0.2c-0.1,0.1-0.1,0.1-0.2,0.2C197.1,72.6,197,73.2,197.1,73.8
		L197.1,73.8z"/>
	<polygon class="st2" points="425.5,43.9 405.5,43.9 391.1,58.4 391.1,96.3 425.5,96.3 	"/>
	<path class="st3" d="M390.3,57.5v39.6h36v-54h-21.6L390.3,57.5z M392.1,59.3h14.4V44.9h18v50.4h-32.4V59.3z"/>
	<path class="st3" d="M402.2,76.4c0-0.3,0.1-0.6,0.3-0.8c0.2-0.2,0.5-0.3,0.8-0.3c0.3,0,0.6,0.1,0.8,0.3c0.4,0.5,0.4,1.1,0,1.6
		c-0.2,0.2-0.5,0.3-0.8,0.3c-0.3,0-0.6-0.1-0.8-0.3C402.3,77,402.2,76.7,402.2,76.4z"/>
	<path class="st3" d="M405.6,80.4c-0.4,0-0.9,0-1.3-0.2v-1.5c0.3,0.1,0.6,0.1,0.9,0.1c0.3,0,0.5-0.1,0.7-0.3
		c0.2-0.2,0.3-0.5,0.2-0.8v-7.6h1.9v7.9c0,0.6-0.2,1.3-0.6,1.7C407,80.3,406.3,80.5,405.6,80.4z M406.1,68.4c0-0.6,0.3-0.9,1-0.9
		c0.7,0,1,0.3,1,0.9c0,0.3-0.1,0.5-0.3,0.7c-0.2,0.2-0.5,0.3-0.8,0.2C406.4,69.3,406.1,69,406.1,68.4L406.1,68.4z"/>
	<path class="st3" d="M415.1,75.2c0,0.6-0.3,1.3-0.8,1.7c-0.7,0.4-1.5,0.6-2.3,0.6c-0.4,0-0.9,0-1.3-0.1c-0.3-0.1-0.7-0.2-1-0.3
		v-1.6c0.4,0.2,0.8,0.3,1.2,0.4c0.4,0.1,0.8,0.2,1.2,0.2c0.7,0,1-0.2,1-0.6c0-0.1,0-0.3-0.1-0.4c-0.1-0.1-0.3-0.2-0.5-0.3
		c-0.2-0.1-0.5-0.3-0.9-0.4c-0.4-0.2-0.8-0.4-1.2-0.6c-0.2-0.2-0.4-0.4-0.6-0.7c-0.1-0.3-0.2-0.6-0.2-0.9c0-0.6,0.3-1.1,0.7-1.5
		c0.6-0.4,1.3-0.6,2.1-0.5c0.9,0,1.7,0.2,2.5,0.6l-0.6,1.4c-0.3-0.1-0.7-0.3-1-0.4c-0.3-0.1-0.6-0.1-1-0.2c-0.6,0-0.9,0.2-0.9,0.5
		c0,0.2,0.1,0.4,0.3,0.4c0.4,0.2,0.8,0.4,1.2,0.6c0.4,0.2,0.8,0.4,1.2,0.6c0.2,0.2,0.4,0.4,0.6,0.7
		C415.1,74.6,415.1,74.9,415.1,75.2z"/>
	<polygon class="st2" points="643.5,43.9 623.5,43.9 609.1,58.4 609.1,96.3 643.5,96.3 	"/>
	<path class="st3" d="M608.3,57.5v39.6h36v-54h-21.6L608.3,57.5z M610.1,59.3h14.4V44.9h18v50.4h-32.4V59.3z"/>
	<line class="st4" x1="278.9" y1="147.6" x2="278.9" y2="172"/>
	<line class="st4" x1="501.3" y1="147.6" x2="501.3" y2="191.5"/>
	<polygon class="st5" points="498.4,189.5 501.3,200.4 504.2,189.5 	"/>
	<line class="st4" x1="724" y1="147.6" x2="724" y2="172"/>
	<line class="st4" x1="278.9" y1="172" x2="724" y2="172"/>
	<line class="st4" x1="278.9" y1="430" x2="278.9" y2="414.5"/>
	<polygon class="st5" points="281.8,428 278.9,438.9 276,428 	"/>
	<line class="st4" x1="500.5" y1="414.5" x2="500.5" y2="380.7"/>
	<line class="st4" x1="724" y1="430" x2="724" y2="414.5"/>
	<polygon class="st5" points="726.9,428 724,438.9 721.1,428 	"/>
	<line class="st4" x1="278.9" y1="414.5" x2="724" y2="414.5"/>
	<path class="st1" d="M235.9,464.4H235V461h-3.8v3.4h-0.8v-7.1h0.8v3h3.8v-3h0.8L235.9,464.4z"/>
	<path class="st1" d="M236.8,459h0.9l1.2,3c0.2,0.5,0.4,1,0.5,1.5l0,0c0-0.2,0.1-0.5,0.3-0.9s0.6-1.6,1.3-3.7h0.9l-2.3,6.1
		c-0.2,0.5-0.4,0.9-0.8,1.3c-0.3,0.3-0.7,0.4-1.1,0.4c-0.2,0-0.5,0-0.7-0.1V466c0.2,0,0.4,0.1,0.6,0.1c0.6,0,1.1-0.4,1.2-0.9
		l0.3-0.8L236.8,459z"/>
	<path class="st1" d="M245.2,464.5c-0.3,0-0.7-0.1-1-0.2c-0.3-0.1-0.5-0.3-0.7-0.6h-0.1c0,0.3,0.1,0.6,0.1,0.9v2.2h-0.8V459h0.7
		l0.1,0.7l0,0c0.2-0.3,0.4-0.5,0.7-0.6c0.3-0.1,0.7-0.2,1-0.2c0.6,0,1.2,0.2,1.6,0.7c0.8,1.3,0.8,2.8,0,4.1
		C246.4,464.2,245.8,464.5,245.2,464.5z M245.1,459.6c-0.4,0-0.9,0.1-1.2,0.5c-0.3,0.4-0.4,0.9-0.4,1.5v0.2c0,0.6,0.1,1.1,0.4,1.6
		c0.3,0.3,0.8,0.5,1.2,0.5c0.4,0,0.8-0.2,1.1-0.6c0.3-0.5,0.4-1,0.4-1.5c0-0.5-0.1-1.1-0.4-1.5C246,459.8,245.5,459.6,245.1,459.6
		L245.1,459.6z"/>
	<path class="st1" d="M251.1,464.5c-0.7,0-1.4-0.2-1.9-0.7c-0.5-0.6-0.7-1.3-0.7-2c0-0.7,0.2-1.5,0.6-2.1c0.4-0.5,1.1-0.8,1.7-0.8
		c0.6,0,1.2,0.2,1.6,0.7c0.4,0.5,0.6,1.1,0.6,1.8v0.5h-3.7c0,0.5,0.2,1,0.5,1.4c0.3,0.3,0.8,0.5,1.3,0.5c0.6,0,1.2-0.1,1.7-0.4v0.7
		c-0.3,0.1-0.5,0.2-0.8,0.3C251.7,464.5,251.4,464.5,251.1,464.5z M250.9,459.6c-0.4,0-0.7,0.1-1,0.4c-0.3,0.3-0.4,0.7-0.4,1.2h2.8
		c0-0.4-0.1-0.8-0.3-1.2C251.7,459.7,251.3,459.6,250.9,459.6L250.9,459.6z"/>
	<path class="st1" d="M256.9,459c0.2,0,0.4,0,0.6,0.1l-0.1,0.8c-0.2,0-0.4-0.1-0.6-0.1c-0.4,0-0.8,0.2-1.1,0.5
		c-0.3,0.4-0.5,0.8-0.5,1.3v2.9h-0.8V459h0.7l0.1,1l0,0c0.2-0.3,0.4-0.6,0.7-0.8C256.2,459,256.6,458.9,256.9,459z"/>
	<path class="st1" d="M259.4,464.4h-0.8v-7.6h0.8V464.4z"/>
	<path class="st1" d="M263.3,464.5c-0.7,0-1.4-0.2-1.9-0.7c-0.5-0.6-0.7-1.3-0.7-2c0-0.7,0.2-1.5,0.6-2.1c0.4-0.5,1.1-0.8,1.7-0.8
		c0.6,0,1.2,0.2,1.6,0.7c0.4,0.5,0.6,1.1,0.6,1.8v0.5h-3.7c0,0.5,0.2,1,0.5,1.4c0.3,0.3,0.8,0.5,1.3,0.5c0.6,0,1.2-0.1,1.7-0.4v0.7
		c-0.3,0.1-0.5,0.2-0.8,0.3C264,464.5,263.7,464.5,263.3,464.5z M263.1,459.6c-0.4,0-0.7,0.1-1,0.4c-0.3,0.3-0.4,0.7-0.5,1.2h2.8
		c0-0.4-0.1-0.8-0.3-1.2C263.9,459.7,263.5,459.6,263.1,459.6L263.1,459.6z"/>
	<path class="st1" d="M270.3,463.7L270.3,463.7c-0.4,0.5-1,0.9-1.7,0.8c-0.6,0-1.2-0.2-1.6-0.7c-0.4-0.6-0.6-1.3-0.6-2
		c0-0.7,0.2-1.5,0.6-2.1c0.4-0.5,1-0.8,1.6-0.7c0.7,0,1.3,0.3,1.7,0.8h0.1v-0.4V459v-2.2h0.8v7.6h-0.7L270.3,463.7z M268.7,463.8
		c0.4,0,0.9-0.1,1.2-0.5c0.3-0.4,0.4-0.9,0.4-1.5v-0.2c0-0.6-0.1-1.1-0.4-1.6c-0.3-0.3-0.8-0.5-1.2-0.5c-0.4,0-0.8,0.2-1.1,0.5
		c-0.3,0.5-0.4,1-0.4,1.6c0,0.5,0.1,1.1,0.4,1.5C267.9,463.7,268.3,463.8,268.7,463.8z"/>
	<path class="st1" d="M277.2,459v0.5l-1,0.1c0.2,0.3,0.4,0.7,0.4,1.1c0,0.5-0.2,1-0.6,1.3c-0.4,0.3-0.9,0.5-1.5,0.5
		c-0.1,0-0.3,0-0.5,0c-0.3,0.1-0.5,0.4-0.5,0.7c0,0.1,0.1,0.3,0.2,0.3c0.2,0.1,0.4,0.1,0.6,0.1h1c0.5,0,0.9,0.1,1.3,0.4
		c0.3,0.3,0.5,0.7,0.5,1.1c0,0.5-0.2,1.1-0.7,1.4c-0.6,0.4-1.4,0.5-2.1,0.5c-0.6,0-1.1-0.1-1.6-0.4c-0.4-0.2-0.6-0.7-0.6-1.1
		c0-0.3,0.1-0.6,0.3-0.8c0.2-0.3,0.5-0.4,0.9-0.5c-0.1-0.1-0.3-0.2-0.3-0.3c-0.1-0.1-0.1-0.3-0.1-0.5c0-0.2,0.1-0.4,0.2-0.5
		c0.1-0.2,0.3-0.3,0.5-0.4c-0.3-0.1-0.5-0.3-0.7-0.6c-0.2-0.3-0.3-0.6-0.3-0.9c0-0.5,0.2-1,0.5-1.4c0.4-0.3,1-0.5,1.5-0.5
		c0.3,0,0.5,0,0.8,0.1L277.2,459z M272.9,465.2c0,0.3,0.1,0.5,0.4,0.7c0.3,0.2,0.7,0.2,1,0.2c0.5,0,1-0.1,1.5-0.3
		c0.3-0.2,0.5-0.5,0.5-0.8c0-0.2-0.1-0.5-0.3-0.6c-0.3-0.1-0.7-0.2-1-0.2h-1c-0.3,0-0.6,0.1-0.9,0.3
		C273,464.7,272.9,465,272.9,465.2L272.9,465.2z M273.4,460.7c0,0.3,0.1,0.6,0.3,0.9c0.2,0.2,0.6,0.3,0.9,0.3
		c0.5,0.1,1.1-0.2,1.2-0.8c0-0.1,0-0.3,0-0.4c0.1-0.6-0.3-1.1-0.9-1.2c-0.1,0-0.2,0-0.3,0c-0.3,0-0.6,0.1-0.9,0.3
		C273.4,460.1,273.3,460.4,273.4,460.7L273.4,460.7z"/>
	<path class="st1" d="M280.6,464.5c-0.7,0-1.4-0.2-1.9-0.7c-0.5-0.6-0.7-1.3-0.7-2c0-0.7,0.2-1.5,0.6-2.1c0.4-0.5,1.1-0.8,1.7-0.8
		c0.6,0,1.2,0.2,1.6,0.7c0.4,0.5,0.6,1.1,0.6,1.8v0.5h-3.7c0,0.5,0.2,1,0.5,1.4c0.3,0.3,0.8,0.5,1.3,0.5c0.6,0,1.2-0.1,1.7-0.4v0.7
		c-0.3,0.1-0.5,0.2-0.8,0.3C281.2,464.5,280.9,464.5,280.6,464.5z M280.3,459.6c-0.4,0-0.7,0.1-1,0.4c-0.3,0.3-0.4,0.7-0.5,1.2h2.8
		c0-0.4-0.1-0.8-0.3-1.2C281.1,459.7,280.7,459.6,280.3,459.6L280.3,459.6z"/>
	<path class="st1" d="M286.4,459c0.2,0,0.4,0,0.6,0.1l-0.1,0.8c-0.2,0-0.4-0.1-0.6-0.1c-0.4,0-0.8,0.2-1.1,0.5
		c-0.3,0.4-0.5,0.8-0.5,1.3v2.9h-0.8V459h0.7l0.1,1l0,0c0.2-0.3,0.4-0.6,0.7-0.8C285.7,459,286,458.9,286.4,459z"/>
	<path class="st1" d="M291.5,464.4h-0.8v-7.1h4v0.7h-3.1v2.6h3v0.7h-3L291.5,464.4z"/>
	<path class="st1" d="M299,464.4l-0.2-0.8l0,0c-0.2,0.3-0.5,0.5-0.8,0.7c-0.3,0.1-0.7,0.2-1,0.2c-0.5,0-0.9-0.1-1.2-0.4
		c-0.3-0.3-0.5-0.7-0.5-1.2c0-1.1,0.9-1.6,2.6-1.7h0.9v-0.3c0-0.3-0.1-0.7-0.3-0.9c-0.2-0.2-0.6-0.3-0.9-0.3c-0.5,0-1,0.2-1.5,0.4
		l-0.2-0.6c0.6-0.3,1.2-0.5,1.8-0.5c0.5,0,1,0.1,1.4,0.4c0.3,0.4,0.5,0.9,0.5,1.4v3.6L299,464.4z M297.2,463.8
		c0.4,0,0.9-0.1,1.2-0.4c0.3-0.3,0.5-0.7,0.4-1.2v-0.5H298c-0.5,0-1,0.1-1.4,0.3c-0.3,0.2-0.5,0.5-0.4,0.8c0,0.3,0.1,0.5,0.3,0.7
		C296.6,463.8,296.9,463.8,297.2,463.8L297.2,463.8z"/>
	<path class="st1" d="M303.8,459c0.6,0,1.2,0.2,1.6,0.7c0.8,1.3,0.8,2.8,0,4.1c-0.4,0.5-1,0.8-1.6,0.7c-0.3,0-0.7-0.1-1-0.2
		c-0.3-0.1-0.5-0.3-0.7-0.6H302l-0.2,0.7h-0.6v-7.6h0.8v1.9c0,0.4,0,0.8,0,1.1l0,0C302.5,459.3,303.1,458.9,303.8,459z M303.7,459.7
		c-0.5,0-0.9,0.1-1.2,0.5c-0.5,1-0.5,2.2,0,3.2c0.3,0.3,0.8,0.5,1.2,0.5c0.4,0,0.9-0.2,1.1-0.5c0.3-0.5,0.4-1,0.4-1.6
		c0-0.5-0.1-1.1-0.4-1.6C304.5,459.8,304.1,459.6,303.7,459.7L303.7,459.7z"/>
	<path class="st1" d="M309.9,459c0.2,0,0.4,0,0.6,0.1l-0.1,0.8c-0.2,0-0.4-0.1-0.6-0.1c-0.4,0-0.8,0.2-1.1,0.5
		c-0.3,0.4-0.5,0.8-0.5,1.3v2.9h-0.8V459h0.7l0.1,1l0,0c0.2-0.3,0.4-0.6,0.7-0.8C309.2,459,309.5,458.9,309.9,459z"/>
	<path class="st1" d="M311.5,457.6c0-0.2,0-0.3,0.1-0.4c0.2-0.2,0.5-0.2,0.7,0c0.1,0.1,0.2,0.3,0.1,0.4c0,0.2,0,0.3-0.1,0.4
		c-0.2,0.2-0.5,0.2-0.7,0C311.5,457.9,311.4,457.8,311.5,457.6z M312.3,464.4h-0.8V459h0.8V464.4z"/>
	<path class="st1" d="M316.2,464.5c-0.7,0-1.3-0.2-1.8-0.7c-0.5-0.6-0.7-1.3-0.6-2c-0.1-0.8,0.2-1.5,0.6-2.1
		c0.5-0.5,1.1-0.8,1.8-0.7c0.3,0,0.5,0,0.8,0.1c0.2,0,0.4,0.1,0.6,0.2l-0.2,0.7c-0.2-0.1-0.4-0.1-0.6-0.2c-0.2,0-0.4-0.1-0.6-0.1
		c-1.1,0-1.6,0.7-1.6,2.1c0,0.5,0.1,1.1,0.4,1.5c0.3,0.4,0.7,0.6,1.2,0.5c0.5,0,0.9-0.1,1.4-0.3v0.7
		C317.1,464.4,316.7,464.5,316.2,464.5z"/>
	<path class="st1" d="M322.6,464.4l-2-5.4h0.9l1.1,3.2c0.2,0.5,0.3,1,0.5,1.5l0,0c0.1-0.4,0.2-0.7,0.3-1.1c0.2-0.5,0.6-1.7,1.3-3.5
		h0.9l-2,5.4L322.6,464.4z"/>
	<path class="st1" d="M329,464.4h-0.8v-5.1c0-0.4,0-0.8,0-1.2l-0.2,0.2l-1.2,1l-0.4-0.6l1.9-1.5h0.7V464.4z"/>
	<path class="st1" d="M332,463.9c0-0.2,0-0.4,0.1-0.5c0.1-0.1,0.3-0.2,0.4-0.2c0.2,0,0.3,0.1,0.4,0.2c0.1,0.1,0.2,0.3,0.2,0.5
		c0,0.2,0,0.4-0.2,0.5c-0.1,0.1-0.3,0.2-0.4,0.2c-0.2,0-0.3,0-0.4-0.1C332,464.3,332,464.1,332,463.9z"/>
	<path class="st1" d="M339.2,460.8c0.1,1-0.1,1.9-0.6,2.8c-0.7,1-2,1.2-3,0.5c-0.2-0.1-0.4-0.3-0.5-0.5c-0.5-0.8-0.7-1.8-0.6-2.7
		c-0.1-1,0.1-2,0.6-2.8c0.7-1,2-1.2,3-0.5c0.2,0.1,0.4,0.3,0.5,0.5C339,458.9,339.2,459.8,339.2,460.8z M335.3,460.8
		c0,0.8,0.1,1.6,0.4,2.3c0.3,0.6,1.1,0.9,1.8,0.6c0.2-0.1,0.4-0.3,0.6-0.6c0.5-1.5,0.5-3,0-4.5c-0.3-0.6-1.1-0.9-1.8-0.6
		c-0.2,0.1-0.4,0.3-0.6,0.6C335.3,459.3,335.2,460.1,335.3,460.8z"/>
	<path class="st6" d="M671.5,458.7c0-1-0.3-1.9-1-2.7l0.8-0.8c1.9,2.1,1.8,5.4-0.3,7.4c-2,1.8-5,1.8-7,0l0.8-0.8
		c0.7,0.7,1.7,1,2.7,1c2.2,0,4-1.7,4.1-3.9C671.5,458.8,671.5,458.7,671.5,458.7z M671.9,463.2c2.4-2.4,2.5-6.3,0.2-8.8l-0.3-0.4
		l-1.7,1.6c-0.7-0.7-1.7-1-2.7-1c-2.2,0-4,1.7-4.1,3.9c0,0,0,0.1,0,0.1c0,1,0.3,1.9,1,2.7l-1.6,1.7l0.2,0.2c1.1,1,2.5,1.7,3.9,1.9
		v0.6h-1.2v1.2h4.1v-1.2h-1.2V465C669.8,464.7,671,464.1,671.9,463.2L671.9,463.2z"/>
	<path class="st1" d="M684.5,464.4h-0.8l-1.4-4.8c-0.1-0.2-0.1-0.5-0.2-0.8c-0.1-0.2-0.1-0.4-0.1-0.6c-0.1,0.5-0.2,0.9-0.3,1.4
		l-1.4,4.8h-0.8l-1.9-7.1h0.9l1.1,4.4c0.1,0.6,0.3,1.1,0.3,1.7c0.1-0.6,0.2-1.2,0.4-1.8l1.3-4.3h0.9l1.3,4.4
		c0.2,0.6,0.3,1.1,0.4,1.7c0.1-0.6,0.2-1.1,0.3-1.7l1.1-4.4h0.9L684.5,464.4z"/>
	<path class="st1" d="M689.6,464.5c-0.7,0-1.4-0.2-1.9-0.7c-0.5-0.6-0.7-1.3-0.7-2c0-0.7,0.2-1.5,0.6-2.1c0.4-0.5,1.1-0.8,1.7-0.8
		c0.6,0,1.2,0.2,1.6,0.7c0.4,0.5,0.6,1.1,0.6,1.8v0.5h-3.7c0,0.5,0.2,1,0.5,1.4c0.3,0.3,0.8,0.5,1.3,0.5c0.6,0,1.2-0.1,1.7-0.4v0.7
		c-0.3,0.1-0.5,0.2-0.8,0.3C690.3,464.5,690,464.5,689.6,464.5z M689.4,459.6c-0.4,0-0.7,0.1-1,0.4c-0.3,0.3-0.4,0.7-0.5,1.2h2.8
		c0-0.4-0.1-0.8-0.3-1.2C690.2,459.8,689.8,459.6,689.4,459.6L689.4,459.6z"/>
	<path class="st1" d="M695.5,459c0.6,0,1.2,0.2,1.6,0.7c0.8,1.3,0.8,2.8,0,4.1c-0.4,0.5-1,0.8-1.6,0.7c-0.3,0-0.7-0.1-1-0.2
		c-0.3-0.1-0.5-0.3-0.7-0.6h-0.1l-0.2,0.7H693v-7.6h0.8v1.9c0,0.4,0,0.8,0,1.1l0,0C694.2,459.3,694.8,459,695.5,459z M695.4,459.7
		c-0.5,0-0.9,0.1-1.2,0.5c-0.5,1-0.5,2.2,0,3.2c0.3,0.3,0.8,0.5,1.2,0.5c0.4,0,0.9-0.2,1.1-0.5c0.3-0.5,0.4-1,0.4-1.6
		c0-0.5-0.1-1.1-0.4-1.6C696.2,459.8,695.8,459.6,695.4,459.7L695.4,459.7z"/>
	<path class="st1" d="M701.8,457.3h2c0.7-0.1,1.4,0.1,2.1,0.4c0.4,0.3,0.7,0.8,0.6,1.3c0,0.4-0.1,0.7-0.3,1c-0.3,0.3-0.6,0.5-1,0.5
		l0,0c1.1,0.2,1.6,0.8,1.6,1.7c0,0.6-0.2,1.1-0.7,1.5c-0.5,0.4-1.2,0.6-1.8,0.5h-2.5L701.8,457.3z M702.7,460.3h1.3
		c0.4,0,0.9-0.1,1.3-0.3c0.3-0.2,0.4-0.6,0.4-0.9c0-0.3-0.1-0.7-0.4-0.9c-0.4-0.2-0.9-0.3-1.4-0.3h-1.2L702.7,460.3z M702.7,461v2.7
		h1.5c0.5,0,0.9-0.1,1.3-0.3c0.3-0.2,0.5-0.6,0.4-1c0-0.4-0.1-0.8-0.5-1c-0.4-0.2-0.9-0.3-1.4-0.3L702.7,461z"/>
	<path class="st1" d="M710.6,459c0.2,0,0.4,0,0.6,0.1l-0.1,0.8c-0.2,0-0.4-0.1-0.6-0.1c-0.4,0-0.8,0.2-1.1,0.5
		c-0.3,0.4-0.5,0.8-0.5,1.3v2.9h-0.8v-5.4h0.7l0.1,1l0,0c0.2-0.3,0.4-0.6,0.7-0.8C710,459.1,710.3,459,710.6,459z"/>
	<path class="st1" d="M716.9,461.7c0,0.7-0.2,1.4-0.7,2c-0.5,0.5-1.1,0.8-1.8,0.7c-0.4,0-0.9-0.1-1.3-0.3c-0.4-0.2-0.7-0.6-0.9-1
		c-0.2-0.5-0.3-1-0.3-1.5c0-0.7,0.2-1.4,0.7-2c0.5-0.5,1.1-0.8,1.8-0.7c0.7,0,1.3,0.2,1.8,0.8C716.7,460.2,716.9,461,716.9,461.7z
		 M712.8,461.7c0,0.6,0.1,1.1,0.4,1.6c0.6,0.7,1.6,0.7,2.3,0.1c0,0,0.1-0.1,0.1-0.1c0.3-0.5,0.4-1,0.4-1.6c0-0.5-0.1-1.1-0.4-1.5
		c-0.3-0.4-0.8-0.6-1.2-0.5c-0.5,0-0.9,0.2-1.2,0.5C712.9,460.6,712.8,461.2,712.8,461.7z"/>
	<path class="st1" d="M722.7,464.4l-1-3.1c-0.1-0.2-0.2-0.6-0.3-1.3l0,0c-0.1,0.6-0.2,1-0.3,1.3l-1,3.1h-1l-1.5-5.4h0.8l0.8,3.1
		c0.1,0.5,0.2,0.9,0.3,1.4l0,0c0-0.2,0.1-0.4,0.2-0.7c0.1-0.3,0.1-0.5,0.2-0.7l1-3.1h0.9l1,3.1c0.2,0.5,0.3,0.9,0.4,1.4l0,0
		c0-0.2,0.1-0.4,0.1-0.5c0.1-0.2,0.4-1.6,1-3.9h0.8l-1.5,5.4H722.7z"/>
	<path class="st1" d="M729.5,463c0,0.5-0.2,0.9-0.6,1.1c-0.5,0.3-1,0.4-1.6,0.4c-0.6,0-1.1-0.1-1.7-0.3v-0.8
		c0.3,0.1,0.5,0.2,0.8,0.3c0.3,0.1,0.6,0.1,0.8,0.1c0.3,0,0.7,0,1-0.2c0.3-0.2,0.4-0.6,0.2-1c0-0.1-0.1-0.1-0.2-0.2
		c-0.3-0.2-0.7-0.4-1.1-0.5c-0.4-0.1-0.7-0.3-1.1-0.5c-0.2-0.1-0.4-0.3-0.5-0.5c-0.1-0.2-0.2-0.4-0.2-0.6c0-0.4,0.2-0.8,0.5-1
		c0.4-0.3,0.9-0.4,1.5-0.4c0.6,0,1.2,0.1,1.7,0.4l-0.3,0.7c-0.5-0.2-1-0.3-1.5-0.3c-0.3,0-0.6,0-0.9,0.2c-0.2,0.1-0.3,0.3-0.3,0.5
		c0,0.1,0,0.3,0.1,0.4c0.1,0.1,0.2,0.2,0.3,0.3c0.3,0.2,0.6,0.3,0.9,0.4c0.5,0.1,0.9,0.4,1.3,0.7C729.4,462.3,729.5,462.6,729.5,463
		z"/>
	<path class="st1" d="M733.1,464.5c-0.7,0-1.4-0.2-1.9-0.7c-0.5-0.6-0.7-1.3-0.7-2c0-0.7,0.2-1.5,0.6-2.1c0.4-0.5,1.1-0.8,1.7-0.8
		c0.6,0,1.2,0.2,1.6,0.7c0.4,0.5,0.6,1.1,0.6,1.8v0.5h-3.7c0,0.5,0.2,1,0.5,1.4c0.3,0.3,0.8,0.5,1.3,0.5c0.6,0,1.2-0.1,1.7-0.4v0.7
		c-0.3,0.1-0.5,0.2-0.8,0.3C733.7,464.5,733.4,464.5,733.1,464.5z M732.9,459.6c-0.4,0-0.7,0.1-1,0.4c-0.3,0.3-0.4,0.7-0.5,1.2h2.8
		c0-0.4-0.1-0.8-0.3-1.2C733.7,459.8,733.3,459.6,732.9,459.6z"/>
	<path class="st1" d="M738.9,459c0.2,0,0.4,0,0.6,0.1l-0.1,0.8c-0.2,0-0.4-0.1-0.6-0.1c-0.4,0-0.8,0.2-1.1,0.5
		c-0.3,0.4-0.5,0.8-0.5,1.3v2.9h-0.8v-5.4h0.7l0.1,1l0,0c0.2-0.3,0.4-0.6,0.7-0.8C738.2,459.1,738.6,459,738.9,459z"/>
	<path class="st1" d="M745.9,457.3l-2.7,7.1h-0.8l2.7-7.1H745.9z"/>
	<path class="st1" d="M755.1,464.4h-1l-3.9-6l0,0c0.1,0.7,0.1,1.3,0.1,1.9v4.1h-0.8v-7.1h0.9l3.9,6l0,0c0-0.1,0-0.4,0-0.9s0-0.8,0-1
		v-4.1h0.8L755.1,464.4z"/>
	<path class="st1" d="M761.6,461.7c0,0.7-0.2,1.4-0.7,2c-0.5,0.5-1.1,0.8-1.8,0.7c-0.4,0-0.9-0.1-1.3-0.3c-0.4-0.2-0.7-0.6-0.9-1
		c-0.2-0.5-0.3-1-0.3-1.5c0-0.7,0.2-1.4,0.7-2c0.5-0.5,1.1-0.8,1.8-0.7c0.7,0,1.3,0.2,1.8,0.8C761.4,460.2,761.6,461,761.6,461.7z
		 M757.5,461.7c0,0.6,0.1,1.1,0.4,1.6c0.6,0.7,1.6,0.7,2.3,0.1c0,0,0.1-0.1,0.1-0.1c0.3-0.5,0.4-1,0.4-1.6c0-0.5-0.1-1.1-0.4-1.5
		c-0.3-0.4-0.8-0.6-1.2-0.5c-0.5,0-0.9,0.2-1.2,0.5C757.6,460.6,757.5,461.2,757.5,461.7z"/>
	<path class="st1" d="M766.6,463.7L766.6,463.7c-0.4,0.5-1,0.9-1.7,0.8c-0.6,0-1.2-0.2-1.6-0.7c-0.4-0.6-0.6-1.3-0.6-2
		c0-0.7,0.2-1.5,0.6-2.1c0.4-0.5,1-0.8,1.6-0.7c0.7,0,1.3,0.3,1.7,0.8h0.1v-0.4V459v-2.2h0.8v7.6h-0.7L766.6,463.7z M765,463.8
		c0.4,0,0.9-0.1,1.2-0.5c0.3-0.4,0.4-0.9,0.4-1.5v-0.2c0-0.6-0.1-1.1-0.4-1.6c-0.3-0.3-0.8-0.5-1.2-0.5c-0.4,0-0.8,0.2-1.1,0.5
		c-0.3,0.5-0.4,1-0.4,1.6c0,0.5,0.1,1.1,0.4,1.5C764.2,463.7,764.6,463.9,765,463.8L765,463.8z"/>
	<path class="st1" d="M771.4,464.5c-0.7,0-1.4-0.2-1.9-0.7c-0.5-0.6-0.7-1.3-0.7-2c0-0.7,0.2-1.5,0.6-2.1c0.4-0.5,1.1-0.8,1.7-0.8
		c0.6,0,1.2,0.2,1.6,0.7c0.4,0.5,0.6,1.1,0.6,1.8v0.5h-3.7c0,0.5,0.2,1,0.5,1.4c0.3,0.3,0.8,0.5,1.3,0.5c0.6,0,1.2-0.1,1.7-0.4v0.7
		c-0.3,0.1-0.5,0.2-0.8,0.3C772,464.5,771.7,464.5,771.4,464.5z M771.2,459.6c-0.4,0-0.7,0.1-1,0.4c-0.3,0.3-0.4,0.7-0.5,1.2h2.8
		c0-0.4-0.1-0.8-0.3-1.2C771.9,459.8,771.6,459.6,771.2,459.6L771.2,459.6z"/>
	<path class="st1" d="M774.6,463.9c0-0.2,0-0.4,0.2-0.5c0.1-0.1,0.3-0.2,0.4-0.2c0.2,0,0.3,0.1,0.4,0.2c0.1,0.1,0.2,0.3,0.2,0.5
		c0,0.2,0,0.4-0.2,0.5c-0.1,0.1-0.3,0.2-0.4,0.2c-0.2,0-0.3,0-0.4-0.1C774.7,464.3,774.6,464.1,774.6,463.9z"/>
	<path class="st1" d="M776.8,466.8c-0.3,0-0.5,0-0.8-0.1V466c0.2,0.1,0.4,0.1,0.7,0.1c0.2,0,0.4-0.1,0.6-0.2
		c0.1-0.2,0.2-0.4,0.2-0.6V459h0.8v6.2C778.2,466.3,777.7,466.8,776.8,466.8z M777.3,457.6c0-0.2,0-0.3,0.1-0.4
		c0.2-0.2,0.5-0.2,0.7,0c0.1,0.1,0.2,0.3,0.1,0.4c0,0.2,0,0.3-0.1,0.4c-0.2,0.2-0.5,0.2-0.7,0C777.4,457.9,777.3,457.8,777.3,457.6z
		"/>
	<path class="st1" d="M783.4,463c0,0.5-0.2,0.9-0.6,1.1c-0.5,0.3-1,0.4-1.6,0.4c-0.6,0-1.1-0.1-1.7-0.3v-0.8
		c0.3,0.1,0.5,0.2,0.8,0.3c0.3,0.1,0.6,0.1,0.8,0.1c0.3,0,0.7,0,1-0.2c0.3-0.2,0.4-0.6,0.2-1c0-0.1-0.1-0.1-0.2-0.2
		c-0.3-0.2-0.7-0.4-1.1-0.5c-0.4-0.1-0.7-0.3-1.1-0.5c-0.2-0.1-0.4-0.3-0.5-0.5c-0.1-0.2-0.2-0.4-0.2-0.6c0-0.4,0.2-0.8,0.5-1
		c0.4-0.3,0.9-0.4,1.5-0.4c0.6,0,1.2,0.1,1.7,0.4L783,460c-0.5-0.2-1-0.3-1.5-0.3c-0.3,0-0.6,0-0.9,0.2c-0.2,0.1-0.3,0.3-0.3,0.5
		c0,0.1,0,0.3,0.1,0.4c0.1,0.1,0.2,0.2,0.3,0.3c0.3,0.2,0.6,0.3,0.9,0.4c0.5,0.1,0.9,0.4,1.3,0.7C783.3,462.3,783.4,462.6,783.4,463
		z"/>
	<line class="st7" x1="64.9" y1="147.2" x2="64.9" y2="147.7"/>
	<line class="st8" x1="64.9" y1="151.6" x2="64.9" y2="302.3"/>
	<line class="st7" x1="64.9" y1="304.2" x2="64.9" y2="304.7"/>
	<polygon class="st5" points="62,302.8 64.9,313.6 67.8,302.8 	"/>
	<path class="st9" d="M67.9,219.1c-1.2,0-2.4,0.7-3,1.8c-0.6-1.1-1.8-1.7-3-1.8c-1.9,0-3.4,1.5-3.5,3.4c0,0,0,0,0,0
		c0,0.9,0.4,1.8,1,2.4c1.4,1.4,5.4,5.8,5.4,5.8s4-4.4,5.4-5.8c0.6-0.6,1-1.5,1-2.4C71.2,220.6,69.7,219.1,67.9,219.1z"/>
	<path class="st10" d="M338.1,302.6c2.8,0,5.5,0.9,7.8,2.6l0,0c2.7-7.3,10.7-11,18-8.3c4.6,1.7,7.9,5.6,8.9,10.4l0.3-0.8
		c7.7,0,13.9,6.2,14,13.9h7.3c0,0,0-0.1,0-0.1c0-3.2,2.6-5.8,5.7-5.8c2.1,0,4.1,1.2,5.1,3c0.2-6,5.2-10.8,11.2-10.6
		c5,0.1,9.2,3.6,10.3,8.4c24.1-26,22.5-66.7-3.5-90.8s-66.7-22.5-90.8,3.5c-20.6,22.2-22.8,55.9-5.4,80.6
		C329.4,305,333.6,302.6,338.1,302.6z"/>
	<path class="st10" d="M421.5,320.5h-0.3v0.2L421.5,320.5z"/>
	<circle class="st11" cx="410" cy="232.2" r="1.3"/>
	<circle class="st11" cx="417.3" cy="260.4" r="1.3"/>
	<circle class="st11" cx="352.9" cy="279.3" r="1.3"/>
	<polygon class="st12" points="337.1,252.4 330,258.7 339,261.7 	"/>
	<polygon class="st13" points="399.4,283.4 362.4,288.2 357.5,250.3 369.7,248.7 368.1,236.4 392.8,233.1 	"/>
	<polygon class="st13" points="368.1,236.4 369.6,248.6 357.4,250.2 	"/>
	<path class="st14" d="M369.5,266.6c0-0.2,0-0.4,0.1-0.5c0.1-0.1,0.3-0.2,0.5-0.2c0.2,0,0.4,0,0.5,0.1c0.3,0.3,0.3,0.7,0.1,1
		c-0.1,0.2-0.3,0.2-0.5,0.3c-0.2,0-0.4,0-0.6-0.1C369.6,266.9,369.5,266.8,369.5,266.6z"/>
	<path class="st14" d="M374.1,261.8c0.5-0.1,1,0.1,1.4,0.5c0.4,0.5,0.6,1.1,0.7,1.7c0.1,0.6,0,1.3-0.2,1.8c-0.5,0.8-1.5,1-2.3,0.6
		c-0.1-0.1-0.2-0.1-0.3-0.2h-0.1l-0.1,0.5l-1,0.1l-0.8-6.4l1.3-0.2l0.2,1.5c0,0.2,0,0.5,0.1,0.9l0,0
		C373,262.1,373.5,261.8,374.1,261.8z M373.8,262.9c-0.3,0-0.5,0.1-0.6,0.4c-0.1,0.3-0.2,0.7-0.1,1v0.1c0,0.4,0.2,0.7,0.4,1
		c0.2,0.2,0.5,0.3,0.7,0.2c0.3,0,0.5-0.2,0.6-0.4c0.1-0.3,0.2-0.7,0.1-1.1c0-0.4-0.1-0.7-0.4-1C374.3,262.9,374,262.8,373.8,262.9
		L373.8,262.9z"/>
	<path class="st14" d="M381.7,265.6l-1.3,0.2l-0.4-2.7c0-0.3-0.1-0.5-0.3-0.7c-0.2-0.2-0.4-0.2-0.6-0.2c-0.3,0-0.6,0.2-0.7,0.5
		c-0.1,0.4-0.2,0.8-0.1,1.2l0.3,2.2l-1.3,0.2l-0.6-4.6l1-0.1l0.2,0.6h0.1c0.1-0.2,0.3-0.4,0.5-0.6c0.2-0.2,0.5-0.2,0.8-0.3
		c0.4-0.1,0.9,0,1.3,0.3c0.3,0.3,0.6,0.7,0.6,1.2L381.7,265.6z"/>
	<path class="st14" d="M385.9,265l-0.3-0.6l0,0c-0.1,0.3-0.3,0.5-0.6,0.6c-0.3,0.1-0.6,0.2-0.9,0.3c-0.4,0.1-0.8,0-1.1-0.2
		c-0.3-0.3-0.5-0.6-0.5-1c-0.1-0.4,0.1-0.9,0.4-1.1c0.4-0.3,1-0.5,1.5-0.6l0.8-0.1V262c0-0.3-0.3-0.6-0.6-0.6c-0.1,0-0.1,0-0.2,0
		c-0.4,0.1-0.9,0.2-1.2,0.5l-0.5-0.8c0.5-0.4,1.1-0.6,1.7-0.6c0.5-0.1,1,0,1.5,0.2c0.4,0.3,0.6,0.7,0.6,1.2l0.4,3.1L385.9,265z
		 M385.2,262.9l-0.5,0.1c-0.3,0-0.6,0.1-0.8,0.3c-0.2,0.1-0.2,0.4-0.2,0.6c0,0.4,0.3,0.5,0.7,0.5c0.3,0,0.5-0.1,0.7-0.3
		c0.2-0.2,0.2-0.5,0.2-0.7L385.2,262.9z"/>
	<line class="st15" x1="378.3" y1="205.2" x2="381.9" y2="230.4"/>
	<line class="st15" x1="376.8" y1="194.7" x2="377.7" y2="200.9"/>
	<line class="st15" x1="358.8" y1="214.6" x2="360.1" y2="223.5"/>
	<line class="st15" x1="357.9" y1="208.1" x2="358.2" y2="210.3"/>
	<line class="st15" x1="387" y1="221" x2="389.5" y2="239.1"/>
	<line class="st15" x1="385.8" y1="212.5" x2="386.4" y2="216.9"/>
	<path class="st16" d="M345.5,313.6c-2-7.5,2.5-15.1,10-17.1s15.1,2.5,17.1,10c1.4,5.2-0.3,10.6-4.3,14.1"/>
	<path class="st16" d="M346.6,316.6c-0.2-0.3-0.3-0.7-0.5-1.1"/>
	<path class="st16" d="M325.4,317.5c-1.1-7.1,3.8-13.7,10.9-14.7c0.6-0.1,1.3-0.1,1.9-0.1c2.8,0,5.5,0.9,7.8,2.6"/>
	<path class="st16" d="M405.1,317.7c-0.9-1.9-2.9-3.1-5-3c-3.2,0-5.8,2.6-5.8,5.8c0,0,0,0,0,0c0,0.1,0,0.1,0,0.2H387
		c0-7.7-6.7-14-14.4-14"/>
	<path class="st16" d="M426.7,320.5c1.4-5.9-2.3-11.8-8.1-13.1c-5.9-1.4-11.8,2.3-13.1,8.1c-0.4,1.6-0.4,3.4,0,5"/>
	<line class="st16" x1="405.8" y1="291.5" x2="411.7" y2="297.1"/>
	<path class="st17" d="M366.8,317.5c3.6-4,3.8-10,0.4-14.2"/>
	<path class="st17" d="M411.3,325.7c3.8,2.6,9,1.7,11.7-2.1c2.6-3.7,1.8-8.7-1.8-11.5"/>
	<path class="st17" d="M342,306.6c-0.6,3.2-0.4,6.4,0.7,9.5"/>
	<polyline class="st18" points="394.7,273.8 395.6,280.4 388.8,281.4 	"/>
	<path class="st6" d="M223.3,458.7c0-1-0.3-1.9-1-2.7l0.8-0.8c1.9,2.1,1.8,5.4-0.3,7.4c-2,1.8-5,1.8-7,0l0.8-0.8
		c0.7,0.7,1.7,1,2.7,1c2.2,0,4-1.7,4.1-3.9C223.3,458.8,223.3,458.7,223.3,458.7z M223.7,463.2c2.4-2.4,2.5-6.3,0.2-8.8l-0.4-0.4
		l-1.7,1.6c-0.7-0.7-1.7-1-2.7-1c-2.2,0-4,1.7-4.1,3.9c0,0,0,0.1,0,0.1c0,1,0.3,1.9,1,2.7l-1.6,1.6l0.2,0.2c1.1,1,2.5,1.7,3.9,1.8
		v0.6h-1.2v1.2h4.1v-1.2h-1.2v-0.7C221.6,464.6,222.8,464.1,223.7,463.2L223.7,463.2z"/>
	<text transform="matrix(1 0 0 1 204.28 134.78)" class="st19 st20 st21">Use Composer to create a Business Network Definition, comprised of Model (.cto), Script (.js) and ACL (.acl) files</text>
	<text transform="matrix(1 0 0 1 258.17 369.35)" class="st19 st20 st21">Use Connection Profiles to deploy your Business Network Definition to a distributed ledger</text>
	<text transform="matrix(1 0 0 1 456.16 237.42)" class="st19 st20 st21">Package up your Business Network </text>
	<text transform="matrix(1 0 0 1 456.16 251.82)" class="st19 st20 st21">Definition and export it as an archive </text>
	<text transform="matrix(1 0 0 1 456.16 266.22)" class="st19 st20 st21">(.bna file) ready to deploy it somewhere</text>
	<text transform="matrix(1 0 0 1 456.16 295.02)" class="st19 st22 st21">Pro Tip:</text>
	<text transform="matrix(1 0 0 1 501.32 295.02)" class="st19 st20 st21"> we like to pronounce it</text>
	<text transform="matrix(1 0 0 1 456.16 309.42)" class="st19 st20 st21">“banana file”</text>
	<text transform="matrix(1 0 0 1 615.48 77.41)" class="st3 st22 st21">.acl</text>
</g>
<g id="Cake">
	<rect x="241" y="42.6" class="st23" width="18.2" height="2.1"/>
	<path class="st3" d="M259.1,45.2H241c-0.3,0-0.5-0.2-0.5-0.5v-2.1c0-0.3,0.2-0.5,0.5-0.5h18.1c0.3,0,0.5,0.2,0.5,0.5c0,0,0,0,0,0
		v2.1C259.7,44.9,259.4,45.2,259.1,45.2C259.1,45.2,259.1,45.2,259.1,45.2z M241.5,44.2h17.1v-1h-17.1L241.5,44.2z"/>
	<rect x="240.6" y="44.6" class="st2" width="18.8" height="3.8"/>
	<path class="st3" d="M259.5,49h-18.8c-0.3,0-0.5-0.2-0.5-0.5v-3.9c0-0.3,0.2-0.5,0.5-0.5h18.8c0.3,0,0.5,0.2,0.5,0.5c0,0,0,0,0,0
		v3.8C260,48.7,259.8,49,259.5,49C259.5,49,259.5,49,259.5,49z M241.2,48H259v-2.8h-17.8V48z"/>
	<rect x="240.6" y="38.7" class="st2" width="18.8" height="3.8"/>
	<path class="st3" d="M259.5,43.1h-18.8c-0.3,0-0.5-0.2-0.5-0.5v-3.8c0-0.3,0.2-0.5,0.5-0.5h18.8c0.3,0,0.5,0.2,0.5,0.5c0,0,0,0,0,0
		v3.8C260,42.9,259.8,43.1,259.5,43.1L259.5,43.1z M241.2,42.1H259v-2.8h-17.8V42.1z"/>
	<path class="st2" d="M255,33.5l-14.4,5.3h18.8c0.3-2.6-1.6-4.9-4.2-5.2C255.2,33.5,255.1,33.5,255,33.5z"/>
	<path class="st3" d="M259.5,39.3h-18.8c-0.3,0-0.5-0.2-0.6-0.5c0-0.2,0.1-0.5,0.4-0.5l14.4-5.3c0.1,0,0.1,0,0.2,0
		c2.9,0.1,5.1,2.6,5,5.5c0,0.1,0,0.2,0,0.4C259.9,39.1,259.7,39.3,259.5,39.3z M243.5,38.3H259c0-0.9-0.3-1.8-0.9-2.6
		c-0.7-1-1.8-1.6-3-1.6L243.5,38.3z"/>
	<path class="st3" d="M255,35c-0.3,0-0.5-0.2-0.5-0.5c0-0.1,0-0.2,0.1-0.3l2.6-4c0.2-0.2,0.5-0.3,0.7-0.2s0.3,0.5,0.2,0.7l-2.6,4
		C255.3,34.9,255.2,35,255,35z"/>
	<circle class="st23" cx="255.2" cy="34" r="2.4"/>
	<path class="st3" d="M255.2,36.9c-1.6,0-2.9-1.3-2.9-2.9c0-1.6,1.3-2.9,2.9-2.9c1.6,0,2.9,1.3,2.9,2.9c0,0,0,0,0,0
		C258.1,35.6,256.8,36.9,255.2,36.9z M255.2,32.1c-1.1,0-1.9,0.9-1.9,1.9c0,1.1,0.9,1.9,1.9,1.9c1.1,0,1.9-0.9,1.9-1.9c0,0,0,0,0,0
		C257.1,32.9,256.3,32.1,255.2,32.1z"/>
</g>
<g id="Cake_copy_2">
	<rect x="265.9" y="102.7" class="st23" width="13.3" height="1.5"/>
	<path class="st3" d="M279.3,104.6h-13.4c-0.2,0-0.4-0.2-0.4-0.4l0,0v-1.5c0-0.2,0.2-0.4,0.4-0.4l0,0h13.3c0.2,0,0.4,0.2,0.4,0.4
		l0,0v1.5C279.7,104.4,279.5,104.6,279.3,104.6z M266.3,103.8h12.6v-0.8h-12.6L266.3,103.8z"/>
	<rect x="265.7" y="104.2" class="st2" width="13.9" height="2.8"/>
	<path class="st3" d="M279.5,107.4h-13.9c-0.2,0-0.4-0.2-0.4-0.4l0,0v-2.8c0-0.2,0.2-0.4,0.4-0.4l0,0h13.9c0.2,0,0.4,0.2,0.4,0.4
		l0,0v2.8C279.9,107.2,279.8,107.4,279.5,107.4C279.5,107.4,279.5,107.4,279.5,107.4z M266.1,106.6h13.1v-2h-13.1V106.6z"/>
	<rect x="265.7" y="99.9" class="st2" width="13.9" height="2.8"/>
	<path class="st3" d="M279.5,103.1h-13.9c-0.2,0-0.4-0.2-0.4-0.4l0,0v-2.8c0-0.2,0.2-0.4,0.4-0.4l0,0h13.9c0.2,0,0.4,0.2,0.4,0.4
		l0,0v2.8C279.9,102.9,279.7,103.1,279.5,103.1L279.5,103.1z M266.1,102.3h13.1v-2.1h-13.1V102.3z"/>
	<path class="st2" d="M276.3,96l-10.6,3.9h13.9c0.2-1.9-1.2-3.6-3.1-3.9C276.4,96,276.3,96,276.3,96z"/>
	<path class="st3" d="M279.5,100.3h-13.9c-0.2,0-0.4-0.2-0.4-0.4c0-0.1,0.1-0.3,0.2-0.3l10.6-3.9h0.1c2.1,0.1,3.8,1.9,3.7,4
		c0,0.1,0,0.2,0,0.3C279.9,100.2,279.7,100.3,279.5,100.3z M267.8,99.5h11.4c0-0.7-0.2-1.4-0.6-1.9c-0.5-0.7-1.3-1.1-2.2-1.2
		L267.8,99.5z"/>
	<path class="st3" d="M276.3,97.2c-0.2,0-0.4-0.2-0.4-0.4c0-0.1,0-0.1,0.1-0.2l1.9-3c0.1-0.2,0.3-0.2,0.5-0.1
		c0.2,0.1,0.2,0.3,0.1,0.5l0,0l-1.9,3C276.5,97.1,276.4,97.2,276.3,97.2z"/>
	<circle class="st23" cx="276.4" cy="96.4" r="1.8"/>
	<path class="st3" d="M276.4,98.6c-1.2,0-2.2-1-2.2-2.2s1-2.2,2.2-2.2s2.2,1,2.2,2.2S277.6,98.6,276.4,98.6L276.4,98.6z M276.4,95
		c-0.8,0-1.4,0.6-1.4,1.4c0,0.8,0.6,1.4,1.4,1.4c0.8,0,1.4-0.6,1.4-1.4c0,0,0,0,0,0C277.8,95.6,277.2,95,276.4,95z"/>
	<path class="st24" d="M295.5,38.8l-0.5-1.5h-2.3l-0.5,1.5h-1.5l2.3-6.5h1.7l2.3,6.5H295.5z M294.7,36.2l-0.7-2.3
		c0-0.2-0.1-0.3-0.1-0.4c-0.1,0.4-0.4,1.3-0.8,2.8H294.7z"/>
	<path class="st24" d="M301,37.4c0,0.4-0.2,0.9-0.5,1.2c-0.5,0.3-1,0.4-1.6,0.4c-0.3,0-0.6,0-0.9-0.1c-0.2,0-0.5-0.1-0.7-0.2v-1.1
		c0.3,0.1,0.6,0.2,0.8,0.3c0.3,0.1,0.5,0.1,0.8,0.1c0.5,0,0.7-0.1,0.7-0.4c0-0.1,0-0.2-0.1-0.3c-0.1-0.1-0.2-0.2-0.3-0.2
		c-0.2-0.1-0.4-0.2-0.6-0.3c-0.3-0.1-0.6-0.3-0.8-0.4c-0.2-0.1-0.3-0.3-0.4-0.5c-0.1-0.2-0.1-0.4-0.1-0.6c0-0.4,0.2-0.8,0.5-1
		c0.4-0.3,0.9-0.4,1.4-0.4c0.6,0,1.2,0.1,1.7,0.4l-0.4,1c-0.2-0.1-0.5-0.2-0.7-0.3c-0.2-0.1-0.4-0.1-0.6-0.1c-0.4,0-0.6,0.1-0.6,0.3
		c0,0.1,0.1,0.2,0.2,0.3c0.3,0.2,0.5,0.3,0.8,0.4c0.3,0.1,0.6,0.3,0.8,0.4c0.2,0.1,0.3,0.3,0.4,0.5C301,37,301,37.2,301,37.4z"/>
	<path class="st24" d="M305.5,37.4c0,0.4-0.2,0.9-0.5,1.2c-0.5,0.3-1,0.4-1.6,0.4c-0.3,0-0.6,0-0.9-0.1c-0.2,0-0.5-0.1-0.7-0.2v-1.1
		c0.3,0.1,0.6,0.2,0.8,0.3c0.3,0.1,0.5,0.1,0.8,0.1c0.5,0,0.7-0.1,0.7-0.4c0-0.1,0-0.2-0.1-0.3c-0.1-0.1-0.2-0.2-0.3-0.2
		c-0.2-0.1-0.4-0.2-0.6-0.3c-0.3-0.1-0.6-0.3-0.8-0.4c-0.2-0.1-0.3-0.3-0.4-0.5c-0.1-0.2-0.1-0.4-0.1-0.6c0-0.4,0.2-0.8,0.5-1
		c0.4-0.3,0.9-0.4,1.4-0.4c0.6,0,1.2,0.1,1.7,0.4l-0.4,1c-0.2-0.1-0.5-0.2-0.7-0.3c-0.2-0.1-0.4-0.1-0.6-0.1c-0.4,0-0.6,0.1-0.6,0.3
		c0,0.1,0.1,0.2,0.2,0.3c0.3,0.2,0.5,0.3,0.8,0.4c0.3,0.1,0.6,0.3,0.8,0.4c0.2,0.1,0.3,0.3,0.4,0.5C305.5,37,305.5,37.2,305.5,37.4z
		"/>
	<path class="st24" d="M308.8,38.9c-0.7,0-1.3-0.2-1.9-0.7c-0.5-0.5-0.7-1.2-0.7-1.8c0-0.7,0.2-1.4,0.6-1.9c0.4-0.5,1.1-0.7,1.7-0.7
		c0.6,0,1.2,0.2,1.6,0.6c0.4,0.4,0.6,1,0.6,1.6v0.7h-3.2c0,0.3,0.1,0.6,0.3,0.9c0.2,0.2,0.6,0.3,0.9,0.3c0.3,0,0.6,0,0.8-0.1
		c0.3-0.1,0.6-0.2,0.8-0.3v1c-0.2,0.1-0.5,0.2-0.8,0.3C309.5,38.9,309.1,38.9,308.8,38.9z M308.6,34.8c-0.3,0-0.5,0.1-0.7,0.3
		c-0.2,0.2-0.3,0.5-0.3,0.8h1.9c0-0.3-0.1-0.6-0.3-0.8C309.1,34.9,308.9,34.8,308.6,34.8z"/>
	<path class="st24" d="M314,37.9c0.3,0,0.6-0.1,0.8-0.2v1c-0.4,0.2-0.8,0.2-1.2,0.2c-0.4,0-0.9-0.1-1.2-0.4
		c-0.3-0.3-0.5-0.8-0.4-1.2v-2.4h-0.6v-0.6l0.7-0.5l0.4-1h0.9v1h1.4v1h-1.4v2.4c0,0.2,0,0.3,0.2,0.4C313.6,37.8,313.8,37.9,314,37.9
		z"/>
	<path class="st25" d="M294.3,43.8c-0.6,0-1.2,0.2-1.7,0.7c-0.4,0.5-0.6,1.2-0.6,1.9c0,0.7,0.2,1.4,0.6,2c0.4,0.5,1.1,0.7,1.7,0.7
		c0.5,0,1-0.1,1.5-0.2v0.7c-0.5,0.2-1.1,0.3-1.6,0.2c-0.8,0.1-1.6-0.3-2.2-0.9c-0.6-0.7-0.8-1.6-0.8-2.5c0-0.6,0.1-1.2,0.4-1.7
		c0.2-0.5,0.6-0.9,1.1-1.2c0.5-0.3,1.1-0.4,1.6-0.4c0.6,0,1.2,0.1,1.8,0.4l-0.3,0.6C295.3,43.9,294.8,43.8,294.3,43.8z"/>
	<path class="st25" d="M300.1,49.6L300,49l0,0c-0.2,0.3-0.4,0.5-0.7,0.6c-0.3,0.1-0.6,0.2-0.9,0.2c-0.4,0-0.8-0.1-1.1-0.4
		c-0.3-0.3-0.4-0.7-0.4-1c0-1,0.8-1.5,2.3-1.5h0.8v-0.3c0-0.3-0.1-0.6-0.2-0.8c-0.2-0.2-0.5-0.3-0.8-0.3c-0.5,0-0.9,0.1-1.4,0.4
		l-0.2-0.6c0.2-0.1,0.5-0.2,0.8-0.3c0.3-0.1,0.6-0.1,0.9-0.1c0.5,0,0.9,0.1,1.3,0.4c0.3,0.3,0.5,0.8,0.4,1.2v3.3L300.1,49.6z
		 M298.5,49.1c0.4,0,0.8-0.1,1.1-0.4c0.3-0.3,0.4-0.6,0.4-1v-0.4h-0.7c-0.4,0-0.9,0.1-1.2,0.3c-0.3,0.2-0.4,0.4-0.4,0.7
		c0,0.2,0.1,0.4,0.2,0.6C298,49.1,298.2,49.1,298.5,49.1z"/>
	<path class="st25" d="M302.9,47.2c0.2-0.2,0.4-0.5,0.6-0.7l1.5-1.6h0.9l-2,2l2.1,2.8h-0.9l-1.7-2.3l-0.5,0.5v1.8h-0.7v-6.8h0.7v3.6
		C302.9,46.6,302.9,46.8,302.9,47.2L302.9,47.2z"/>
	<path class="st25" d="M308.9,49.7c-0.6,0-1.2-0.2-1.7-0.7c-0.4-0.5-0.7-1.1-0.6-1.8c0-0.7,0.2-1.3,0.6-1.8c0.4-0.5,0.9-0.7,1.5-0.7
		c0.5,0,1.1,0.2,1.4,0.6c0.4,0.4,0.6,1,0.5,1.6v0.5h-3.3c0,0.5,0.1,0.9,0.4,1.3c0.3,0.3,0.7,0.5,1.1,0.4c0.5,0,1.1-0.1,1.5-0.3v0.7
		c-0.2,0.1-0.5,0.2-0.7,0.2C309.5,49.7,309.2,49.7,308.9,49.7z M308.7,45.3c-0.3,0-0.7,0.1-0.9,0.4c-0.2,0.3-0.4,0.6-0.4,1h2.5
		c0-0.4-0.1-0.8-0.3-1.1C309.4,45.4,309.1,45.3,308.7,45.3L308.7,45.3z"/>
	<path class="st24" d="M296,60.8c0,0.6-0.2,1.2-0.6,1.6c-0.5,0.4-1.2,0.6-1.8,0.5h-0.6v2.3h-1.4v-6.4h2c0.6,0,1.3,0.1,1.8,0.5
		C295.8,59.7,296,60.3,296,60.8z M292.9,61.8h0.5c0.3,0,0.7-0.1,0.9-0.2c0.2-0.2,0.3-0.4,0.3-0.7c0-0.3-0.1-0.5-0.3-0.7
		c-0.2-0.2-0.5-0.3-0.8-0.2h-0.6V61.8z"/>
	<path class="st24" d="M300.2,65.2l-0.3-0.7l0,0c-0.2,0.2-0.4,0.5-0.7,0.6c-0.3,0.1-0.6,0.2-0.9,0.2c-0.4,0-0.8-0.1-1.1-0.4
		c-0.3-0.3-0.4-0.7-0.4-1.2c0-0.5,0.2-0.9,0.5-1.2c0.5-0.3,1.1-0.4,1.6-0.4h0.9V62c0-0.4-0.2-0.7-0.6-0.8c-0.1,0-0.1,0-0.2,0
		c-0.5,0-0.9,0.1-1.4,0.4l-0.4-0.9c0.6-0.3,1.2-0.4,1.9-0.4c0.5,0,1.1,0.1,1.5,0.4c0.4,0.3,0.6,0.8,0.5,1.3v3.3L300.2,65.2z
		 M299.8,63h-0.5c-0.3,0-0.6,0.1-0.9,0.2c-0.2,0.1-0.3,0.4-0.3,0.6c0,0.4,0.2,0.6,0.6,0.6c0.3,0,0.5-0.1,0.7-0.3
		c0.2-0.2,0.3-0.4,0.3-0.7L299.8,63z"/>
	<path class="st24" d="M305.2,60.2c0.1,0,0.3,0,0.5,0l-0.1,1.3c-0.1,0-0.3,0-0.4,0c-0.4,0-0.7,0.1-1,0.3c-0.2,0.2-0.4,0.6-0.4,0.9
		v2.5h-1.3v-4.9h1l0.2,0.8h0.1c0.1-0.3,0.4-0.5,0.6-0.7C304.6,60.3,304.9,60.2,305.2,60.2z"/>
	<path class="st24" d="M308.7,64.3c0.3,0,0.6-0.1,0.8-0.2v1c-0.4,0.2-0.8,0.2-1.2,0.2c-0.4,0-0.9-0.1-1.2-0.4
		c-0.3-0.3-0.4-0.8-0.4-1.2v-2.4h-0.6v-0.6l0.7-0.5l0.4-1h0.9v1h1.4v1h-1.4v2.4c0,0.2,0,0.3,0.2,0.4
		C308.4,64.2,308.5,64.3,308.7,64.3z"/>
	<path class="st24" d="M310.4,59.1c0-0.4,0.2-0.7,0.7-0.7c0.5,0,0.7,0.2,0.7,0.7c0,0.2-0.1,0.4-0.2,0.5c-0.2,0.1-0.4,0.2-0.5,0.2
		C310.7,59.7,310.4,59.5,310.4,59.1z M311.8,65.2h-1.3v-4.9h1.3V65.2z"/>
	<path class="st24" d="M315.2,65.3c-1.5,0-2.3-0.8-2.3-2.5c0-0.7,0.2-1.4,0.6-1.9c0.5-0.5,1.1-0.7,1.8-0.7c0.5,0,1.1,0.1,1.5,0.3
		l-0.4,1c-0.2-0.1-0.4-0.2-0.6-0.2c-0.2-0.1-0.4-0.1-0.5-0.1c-0.7,0-1,0.5-1,1.5c0,1,0.3,1.5,1,1.4c0.2,0,0.5,0,0.7-0.1
		c0.2-0.1,0.5-0.2,0.7-0.3V65c-0.2,0.1-0.4,0.2-0.7,0.3C315.8,65.3,315.5,65.3,315.2,65.3z"/>
	<path class="st24" d="M317.8,59.1c0-0.4,0.2-0.7,0.7-0.7c0.5,0,0.7,0.2,0.7,0.7c0,0.2-0.1,0.4-0.2,0.5c-0.2,0.1-0.4,0.2-0.5,0.2
		C318.1,59.7,317.8,59.5,317.8,59.1z M319.2,65.2h-1.3v-4.9h1.3V65.2z"/>
	<path class="st24" d="M323.3,65.3c-0.5,0-1-0.2-1.3-0.6h-0.1c0,0.4,0.1,0.7,0.1,0.7v2h-1.3v-7.1h1.1l0.2,0.6h0.1
		c0.3-0.5,0.8-0.8,1.4-0.7c0.5,0,1,0.2,1.4,0.7c0.4,0.6,0.5,1.2,0.5,1.9c0,0.5-0.1,0.9-0.2,1.4c-0.1,0.4-0.4,0.7-0.7,0.9
		C324,65.2,323.7,65.3,323.3,65.3z M322.9,61.3c-0.3,0-0.5,0.1-0.7,0.3c-0.2,0.3-0.3,0.7-0.2,1v0.2c0,0.4,0.1,0.8,0.2,1.1
		c0.2,0.2,0.5,0.4,0.8,0.3c0.6,0,0.9-0.5,0.9-1.5c0-0.4-0.1-0.8-0.2-1.1C323.5,61.4,323.2,61.3,322.9,61.3L322.9,61.3z"/>
	<path class="st24" d="M329.4,65.2l-0.3-0.7l0,0c-0.2,0.2-0.4,0.5-0.7,0.6c-0.3,0.1-0.6,0.2-0.9,0.2c-0.4,0-0.8-0.1-1.1-0.4
		c-0.3-0.3-0.4-0.7-0.4-1.2c0-0.5,0.2-0.9,0.5-1.2c0.5-0.3,1.1-0.4,1.6-0.4h0.9V62c0-0.4-0.2-0.7-0.6-0.8c-0.1,0-0.1,0-0.2,0
		c-0.5,0-0.9,0.1-1.4,0.4l-0.4-0.9c0.6-0.3,1.2-0.4,1.9-0.4c0.5,0,1.1,0.1,1.5,0.4c0.4,0.3,0.6,0.8,0.5,1.3v3.3L329.4,65.2z M329,63
		h-0.5c-0.3,0-0.6,0.1-0.9,0.2c-0.2,0.1-0.3,0.4-0.3,0.6c0,0.4,0.2,0.6,0.6,0.6c0.3,0,0.5-0.1,0.7-0.3c0.2-0.2,0.3-0.4,0.3-0.7
		L329,63z"/>
	<path class="st24" d="M336.3,65.2h-1.3v-2.9c0-0.3,0-0.6-0.2-0.8c-0.1-0.2-0.4-0.3-0.6-0.3c-0.3,0-0.6,0.1-0.8,0.4
		c-0.2,0.4-0.3,0.8-0.2,1.2v2.3h-1.3v-4.9h1l0.2,0.6h0.1c0.1-0.2,0.4-0.4,0.6-0.5c0.3-0.1,0.6-0.2,0.9-0.2c0.5,0,0.9,0.1,1.3,0.5
		c0.3,0.4,0.5,0.9,0.4,1.3L336.3,65.2z"/>
	<path class="st24" d="M339.7,64.3c0.3,0,0.6-0.1,0.8-0.2v1c-0.4,0.2-0.8,0.2-1.2,0.2c-0.4,0-0.9-0.1-1.2-0.4
		c-0.3-0.3-0.4-0.8-0.4-1.2v-2.4h-0.6v-0.6l0.7-0.5l0.4-1h0.9v1h1.4v1h-1.4v2.4c0,0.2,0,0.3,0.2,0.4
		C339.4,64.2,339.6,64.3,339.7,64.3z"/>
	<path class="st24" d="M345,63.8c0,0.4-0.2,0.9-0.5,1.2c-0.5,0.3-1,0.4-1.6,0.4c-0.3,0-0.6,0-0.9-0.1c-0.2,0-0.5-0.1-0.7-0.2v-1.1
		c0.3,0.1,0.6,0.2,0.8,0.3c0.3,0.1,0.5,0.1,0.8,0.1c0.5,0,0.7-0.1,0.7-0.4c0-0.1,0-0.2-0.1-0.3c-0.1-0.1-0.2-0.2-0.3-0.2
		c-0.2-0.1-0.4-0.2-0.6-0.3c-0.3-0.1-0.6-0.3-0.8-0.4c-0.2-0.1-0.3-0.3-0.4-0.5c-0.1-0.2-0.1-0.4-0.1-0.6c0-0.4,0.2-0.8,0.5-1
		c0.4-0.3,0.9-0.4,1.4-0.4c0.6,0,1.2,0.1,1.7,0.4l-0.4,1c-0.2-0.1-0.5-0.2-0.7-0.3c-0.2-0.1-0.4-0.1-0.7-0.1c-0.4,0-0.6,0.1-0.6,0.3
		c0,0.1,0.1,0.2,0.2,0.3c0.3,0.2,0.5,0.3,0.8,0.4c0.3,0.1,0.6,0.3,0.8,0.4c0.2,0.1,0.3,0.3,0.4,0.5C345,63.4,345,63.6,345,63.8z"/>
	<path class="st25" d="M291.6,69.6h1.8c0.6,0,1.3,0.1,1.9,0.4c0.4,0.3,0.6,0.7,0.6,1.2c0,0.3-0.1,0.7-0.3,0.9
		c-0.2,0.3-0.6,0.4-0.9,0.5l0,0c1,0.2,1.5,0.7,1.5,1.5c0,0.5-0.2,1-0.6,1.3c-0.5,0.3-1,0.5-1.6,0.5h-2.2L291.6,69.6z M292.3,72.4
		h1.2c0.4,0,0.8-0.1,1.1-0.2c0.2-0.2,0.4-0.5,0.4-0.8c0-0.3-0.1-0.6-0.4-0.8c-0.4-0.2-0.8-0.3-1.2-0.2h-1.1V72.4z M292.3,73v2.4h1.3
		c0.4,0,0.8-0.1,1.2-0.3c0.3-0.2,0.4-0.6,0.4-0.9c0-0.3-0.1-0.7-0.4-0.9c-0.4-0.2-0.8-0.3-1.2-0.3H292.3z"/>
	<path class="st25" d="M300.3,76l-0.1-0.7l0,0c-0.2,0.3-0.4,0.5-0.7,0.6c-0.3,0.1-0.6,0.2-0.9,0.2c-0.4,0-0.8-0.1-1.1-0.4
		c-0.3-0.3-0.4-0.7-0.4-1.1c0-1,0.8-1.5,2.3-1.5h0.8v-0.3c0-0.3-0.1-0.6-0.2-0.8c-0.2-0.2-0.5-0.3-0.8-0.3c-0.5,0-0.9,0.1-1.4,0.4
		l-0.2-0.6c0.2-0.1,0.5-0.2,0.8-0.3c0.3-0.1,0.6-0.1,0.9-0.1c0.5,0,0.9,0.1,1.3,0.4c0.3,0.3,0.5,0.8,0.4,1.2V76H300.3z M298.6,75.5
		c0.4,0,0.8-0.1,1.1-0.4c0.3-0.3,0.4-0.6,0.4-1v-0.4h-0.7c-0.4,0-0.9,0.1-1.2,0.3c-0.3,0.2-0.4,0.4-0.4,0.7c0,0.2,0.1,0.4,0.2,0.6
		C298.2,75.4,298.4,75.5,298.6,75.5L298.6,75.5z"/>
	<path class="st25" d="M303,73.6c0.2-0.2,0.4-0.5,0.6-0.7l1.6-1.7h0.9l-2,2.1l2.2,2.7h-0.9l-1.7-2.3l-0.5,0.5V76h-0.7v-6.8h0.7v3.6
		C303,73,303,73.2,303,73.6z"/>
	<path class="st25" d="M309.1,76.1c-0.6,0-1.2-0.2-1.7-0.7c-0.4-0.5-0.7-1.1-0.6-1.8c0-0.7,0.2-1.3,0.6-1.8c0.4-0.5,0.9-0.7,1.5-0.7
		c0.5,0,1.1,0.2,1.4,0.6c0.4,0.4,0.6,1,0.5,1.6v0.5h-3.3c0,0.5,0.1,0.9,0.4,1.3c0.3,0.3,0.7,0.5,1.1,0.4c0.5,0,1.1-0.1,1.5-0.3v0.7
		c-0.2,0.1-0.5,0.2-0.7,0.2C309.6,76.1,309.4,76.1,309.1,76.1z M308.9,71.8c-0.3,0-0.7,0.1-0.9,0.4c-0.2,0.3-0.4,0.6-0.4,1h2.5
		c0-0.4-0.1-0.8-0.3-1.1C309.5,71.8,309.2,71.7,308.9,71.8L308.9,71.8z"/>
	<path class="st25" d="M314.3,71.1c0.2,0,0.4,0,0.6,0.1l-0.1,0.7c-0.2,0-0.4-0.1-0.5-0.1c-0.4,0-0.8,0.2-1,0.5
		c-0.3,0.3-0.4,0.7-0.4,1.2V76h-0.7v-4.8h0.6l0.1,0.9l0,0c0.2-0.3,0.4-0.5,0.6-0.7C313.7,71.2,314,71.1,314.3,71.1z"/>
	<path class="st25" d="M316.5,75L316.5,75c0,0.4-0.1,0.7-0.3,1.1c-0.1,0.4-0.3,0.7-0.5,1.1h-0.5c0.1-0.3,0.2-0.7,0.3-1.1
		s0.2-0.8,0.2-1.1L316.5,75z"/>
	<path class="st25" d="M323.2,70.2c-0.6,0-1.2,0.2-1.7,0.7c-0.4,0.5-0.6,1.2-0.6,1.9c0,0.7,0.2,1.4,0.6,1.9c0.4,0.5,1,0.7,1.7,0.7
		c0.5,0,1-0.1,1.5-0.2v0.7c-0.5,0.2-1.1,0.3-1.6,0.2c-0.8,0.1-1.6-0.3-2.2-0.9c-0.6-0.7-0.8-1.6-0.8-2.4c0-0.6,0.1-1.2,0.4-1.7
		c0.2-0.5,0.6-0.9,1.1-1.2c0.5-0.3,1.1-0.4,1.6-0.4c0.6,0,1.2,0.1,1.8,0.4l-0.3,0.6C324.2,70.3,323.7,70.2,323.2,70.2z"/>
	<path class="st25" d="M326.7,71.2v3.1c0,0.3,0.1,0.6,0.3,0.9c0.2,0.2,0.5,0.3,0.8,0.3c0.4,0,0.8-0.1,1.1-0.4
		c0.3-0.4,0.4-0.9,0.4-1.3v-2.5h0.8V76h-0.6l-0.1-0.7l0,0c-0.2,0.2-0.4,0.4-0.6,0.5c-0.3,0.1-0.6,0.2-0.9,0.2c-0.5,0-1-0.1-1.3-0.4
		c-0.3-0.4-0.5-0.9-0.4-1.3v-3.1H326.7z"/>
	<path class="st25" d="M334.6,74.7c0,0.4-0.2,0.8-0.5,1c-0.4,0.3-0.9,0.4-1.4,0.4c-0.5,0-1-0.1-1.5-0.3v-0.7
		c0.2,0.1,0.5,0.2,0.8,0.3c0.3,0.1,0.5,0.1,0.8,0.1c0.3,0,0.6,0,0.9-0.2c0.3-0.2,0.4-0.6,0.2-0.9c0,0-0.1-0.1-0.1-0.1
		c-0.3-0.2-0.6-0.4-1-0.5c-0.3-0.1-0.7-0.3-1-0.4c-0.2-0.1-0.3-0.2-0.4-0.4c-0.1-0.2-0.1-0.4-0.1-0.6c0-0.4,0.2-0.7,0.5-0.9
		c0.4-0.2,0.8-0.4,1.3-0.3c0.5,0,1,0.1,1.5,0.3l-0.3,0.6c-0.4-0.2-0.9-0.3-1.3-0.3c-0.3,0-0.5,0-0.8,0.2c-0.2,0.1-0.3,0.3-0.3,0.4
		c0,0.1,0,0.2,0.1,0.3c0.1,0.1,0.2,0.2,0.3,0.3c0.3,0.1,0.6,0.3,0.8,0.4c0.4,0.1,0.8,0.3,1.2,0.6C334.5,74.1,334.6,74.4,334.6,74.7z
		"/>
	<path class="st25" d="M337.4,75.5c0.1,0,0.2,0,0.4,0l0.3-0.1V76c-0.1,0-0.2,0.1-0.4,0.1c-0.1,0-0.3,0-0.4,0c-0.9,0-1.4-0.5-1.4-1.5
		v-2.8h-0.7v-0.3l0.7-0.3l0.3-1h0.4v1.1h1.4v0.6h-1.4v2.8c0,0.2,0.1,0.5,0.2,0.7C337,75.5,337.2,75.5,337.4,75.5z"/>
	<path class="st25" d="M343.1,73.6c0,0.7-0.2,1.3-0.6,1.8c-0.4,0.5-1,0.7-1.6,0.7c-0.4,0-0.8-0.1-1.1-0.3c-0.3-0.2-0.6-0.5-0.8-0.8
		c-0.2-0.4-0.3-0.9-0.3-1.3c0-0.7,0.2-1.3,0.6-1.8c0.4-0.5,1-0.7,1.6-0.7c0.6,0,1.2,0.2,1.6,0.7C343,72.4,343.2,73,343.1,73.6z
		 M339.5,73.6c0,0.5,0.1,1,0.4,1.4c0.6,0.6,1.5,0.6,2.1,0c0,0,0.1-0.1,0.1-0.1c0.3-0.4,0.4-0.9,0.4-1.4c0-0.5-0.1-1-0.4-1.4
		c-0.3-0.3-0.7-0.5-1.1-0.5c-0.4,0-0.8,0.1-1.1,0.5C339.5,72.6,339.4,73.1,339.5,73.6z"/>
	<path class="st25" d="M350.6,76v-3.1c0-0.3-0.1-0.6-0.2-0.9c-0.2-0.2-0.5-0.3-0.8-0.3c-0.4,0-0.7,0.1-1,0.4
		c-0.2,0.4-0.4,0.8-0.3,1.2V76h-0.7v-3.1c0-0.3-0.1-0.6-0.2-0.9c-0.2-0.2-0.5-0.3-0.8-0.3c-0.4,0-0.8,0.1-1,0.4
		c-0.2,0.4-0.4,0.9-0.3,1.3V76h-0.7v-4.8h0.6l0.1,0.7l0,0c0.1-0.2,0.3-0.4,0.6-0.6c0.3-0.1,0.5-0.2,0.8-0.2c0.6-0.1,1.2,0.3,1.5,0.8
		l0,0c0.1-0.3,0.4-0.5,0.6-0.6c0.3-0.1,0.6-0.2,0.9-0.2c0.4,0,0.9,0.1,1.2,0.4c0.3,0.4,0.5,0.9,0.4,1.3V76H350.6z"/>
	<path class="st25" d="M354.8,76.1c-0.6,0-1.2-0.2-1.7-0.7c-0.4-0.5-0.7-1.1-0.6-1.8c0-0.7,0.2-1.3,0.6-1.8c0.4-0.5,0.9-0.7,1.5-0.7
		c0.5,0,1.1,0.2,1.4,0.6c0.4,0.4,0.6,1,0.5,1.6v0.5h-3.3c0,0.5,0.1,0.9,0.4,1.3c0.3,0.3,0.7,0.5,1.1,0.4c0.5,0,1.1-0.1,1.5-0.3v0.7
		c-0.2,0.1-0.5,0.2-0.7,0.2C355.4,76.1,355.1,76.1,354.8,76.1z M354.6,71.8c-0.3,0-0.7,0.1-0.9,0.4c-0.2,0.3-0.4,0.6-0.4,1h2.5
		c0-0.4-0.1-0.8-0.3-1.1C355.3,71.8,355,71.7,354.6,71.8L354.6,71.8z"/>
	<path class="st25" d="M360,71.1c0.2,0,0.4,0,0.6,0.1l-0.1,0.7c-0.2,0-0.4-0.1-0.5-0.1c-0.4,0-0.8,0.2-1,0.5
		c-0.3,0.3-0.4,0.7-0.4,1.2V76h-0.7v-4.8h0.6l0.1,0.9l0,0c0.2-0.3,0.4-0.5,0.6-0.7C359.4,71.2,359.7,71.1,360,71.1z"/>
	<path class="st24" d="M294,91.6h-1.4v-5.3h-1.7v-1.1h4.9v1.1H294V91.6z"/>
	<path class="st24" d="M299.4,86.6c0.1,0,0.3,0,0.5,0l-0.1,1.3c-0.1,0-0.3,0-0.4,0c-0.4,0-0.7,0.1-1,0.3c-0.2,0.2-0.4,0.6-0.4,0.9
		v2.5h-1.3v-4.9h1l0.2,0.8h0.1c0.1-0.3,0.4-0.5,0.6-0.7C298.8,86.7,299.1,86.6,299.4,86.6z"/>
	<path class="st24" d="M303.8,91.6l-0.3-0.7l0,0c-0.2,0.2-0.4,0.5-0.7,0.6c-0.3,0.1-0.6,0.2-0.9,0.2c-0.4,0-0.8-0.1-1.1-0.4
		c-0.3-0.3-0.4-0.7-0.4-1.2c0-0.5,0.2-0.9,0.5-1.2c0.5-0.3,1.1-0.4,1.6-0.4h0.9v-0.2c0-0.4-0.2-0.7-0.6-0.8c-0.1,0-0.1,0-0.2,0
		c-0.5,0-0.9,0.1-1.4,0.4l-0.4-0.9c0.6-0.3,1.2-0.4,1.9-0.4c0.5,0,1.1,0.1,1.5,0.4c0.4,0.3,0.6,0.8,0.5,1.3v3.3L303.8,91.6z
		 M303.4,89.4h-0.5c-0.3,0-0.6,0.1-0.9,0.2c-0.2,0.1-0.3,0.4-0.3,0.6c0,0.4,0.2,0.6,0.6,0.6c0.3,0,0.5-0.1,0.7-0.3
		c0.2-0.2,0.3-0.4,0.3-0.7L303.4,89.4z"/>
	<path class="st24" d="M310.7,91.6h-1.3v-2.9c0-0.3,0-0.6-0.2-0.8c-0.1-0.2-0.4-0.3-0.6-0.3c-0.3,0-0.6,0.1-0.8,0.4
		c-0.2,0.4-0.3,0.8-0.2,1.2v2.3h-1.3v-4.9h1l0.2,0.6h0.1c0.1-0.2,0.4-0.4,0.6-0.5c0.3-0.1,0.6-0.2,0.9-0.2c0.5,0,0.9,0.1,1.3,0.5
		c0.3,0.4,0.5,0.9,0.4,1.3L310.7,91.6z"/>
	<path class="st24" d="M315.5,90.2c0,0.4-0.2,0.9-0.5,1.2c-0.5,0.3-1,0.4-1.6,0.4c-0.3,0-0.6,0-0.9-0.1c-0.2,0-0.5-0.1-0.7-0.2v-1.1
		c0.3,0.1,0.6,0.2,0.8,0.3c0.3,0.1,0.5,0.1,0.8,0.1c0.5,0,0.7-0.1,0.7-0.4c0-0.1,0-0.2-0.1-0.3c-0.1-0.1-0.2-0.2-0.3-0.2
		c-0.2-0.1-0.4-0.2-0.6-0.3c-0.3-0.1-0.6-0.3-0.8-0.4c-0.2-0.1-0.3-0.3-0.4-0.5c-0.1-0.2-0.1-0.4-0.1-0.6c0-0.4,0.2-0.8,0.5-1
		c0.4-0.3,0.9-0.4,1.4-0.4c0.6,0,1.2,0.1,1.7,0.4l-0.4,1c-0.2-0.1-0.5-0.2-0.7-0.3c-0.2-0.1-0.4-0.1-0.7-0.1c-0.4,0-0.6,0.1-0.6,0.3
		c0,0.1,0.1,0.2,0.2,0.3c0.3,0.2,0.5,0.3,0.8,0.4c0.3,0.1,0.6,0.3,0.8,0.4c0.2,0.1,0.3,0.3,0.4,0.5C315.4,89.8,315.5,90,315.5,90.2z
		"/>
	<path class="st24" d="M319.7,91.6l-0.3-0.6l0,0c-0.2,0.2-0.4,0.5-0.7,0.6c-0.3,0.1-0.6,0.2-0.9,0.2c-0.4,0-0.8-0.1-1.1-0.4
		c-0.3-0.3-0.4-0.7-0.4-1.2c0-0.5,0.2-0.9,0.5-1.2c0.5-0.3,1.1-0.4,1.6-0.4h0.9v-0.2c0-0.4-0.2-0.7-0.6-0.8c-0.1,0-0.1,0-0.2,0
		c-0.5,0-0.9,0.1-1.4,0.4l-0.4-0.9c0.6-0.3,1.2-0.4,1.9-0.4c0.5,0,1.1,0.1,1.5,0.4c0.4,0.3,0.6,0.8,0.5,1.3v3.3L319.7,91.6z
		 M319.3,89.4h-0.5c-0.3,0-0.6,0.1-0.9,0.2c-0.2,0.1-0.3,0.4-0.3,0.6c0,0.4,0.2,0.6,0.6,0.6c0.3,0,0.5-0.1,0.7-0.3
		c0.2-0.2,0.3-0.4,0.3-0.7L319.3,89.4z"/>
	<path class="st24" d="M324,91.7c-1.5,0-2.3-0.8-2.3-2.5c0-0.7,0.2-1.4,0.6-1.9c0.5-0.5,1.1-0.7,1.8-0.7c0.5,0,1.1,0.1,1.5,0.3
		l-0.4,1c-0.2-0.1-0.4-0.2-0.6-0.2c-0.2-0.1-0.4-0.1-0.5-0.1c-0.7,0-1,0.5-1,1.5s0.3,1.5,1,1.4c0.2,0,0.5,0,0.7-0.1
		c0.2-0.1,0.5-0.2,0.7-0.3v1.2c-0.2,0.1-0.4,0.2-0.7,0.3C324.6,91.7,324.3,91.7,324,91.7z"/>
	<path class="st24" d="M328.7,90.7c0.3,0,0.6-0.1,0.8-0.2v1c-0.4,0.2-0.8,0.2-1.2,0.2c-0.4,0-0.9-0.1-1.2-0.4
		c-0.3-0.3-0.4-0.8-0.4-1.2v-2.4h-0.6v-0.6l0.7-0.4l0.4-1h0.9v1h1.4v1h-1.4v2.4c0,0.2,0,0.3,0.2,0.4
		C328.4,90.6,328.5,90.7,328.7,90.7z"/>
	<path class="st24" d="M330.5,85.5c0-0.4,0.2-0.7,0.7-0.7c0.5,0,0.7,0.2,0.7,0.7c0,0.2-0.1,0.4-0.2,0.5c-0.2,0.1-0.4,0.2-0.5,0.2
		C330.7,86.1,330.5,85.9,330.5,85.5z M331.9,91.6h-1.3v-4.9h1.3V91.6z"/>
	<path class="st24" d="M337.7,89.2c0,0.7-0.2,1.4-0.6,1.9c-0.5,0.5-1.1,0.7-1.8,0.7c-0.4,0-0.9-0.1-1.2-0.3
		c-0.4-0.2-0.6-0.5-0.8-0.9c-0.2-0.4-0.3-0.9-0.3-1.3c0-0.7,0.2-1.4,0.6-1.9c0.5-0.5,1.1-0.7,1.8-0.7c0.4,0,0.9,0.1,1.2,0.3
		c0.4,0.2,0.7,0.5,0.8,0.9C337.6,88.3,337.7,88.7,337.7,89.2z M334.3,89.2c0,0.4,0.1,0.8,0.2,1.1c0.2,0.3,0.5,0.4,0.8,0.4
		c0.3,0,0.6-0.1,0.8-0.4c0.2-0.3,0.3-0.7,0.2-1.1c0-0.4-0.1-0.8-0.2-1.1c-0.3-0.4-1-0.5-1.4-0.1c-0.1,0-0.1,0.1-0.1,0.1
		C334.4,88.4,334.3,88.8,334.3,89.2z"/>
	<path class="st24" d="M343.4,91.6H342v-2.9c0-0.3,0-0.6-0.2-0.8c-0.1-0.2-0.4-0.3-0.6-0.3c-0.3,0-0.6,0.1-0.8,0.4
		c-0.2,0.4-0.3,0.8-0.2,1.2v2.3h-1.3v-4.9h1l0.2,0.6h0.1c0.1-0.2,0.4-0.4,0.6-0.5c0.3-0.1,0.6-0.2,0.9-0.2c0.5,0,0.9,0.1,1.3,0.5
		c0.3,0.4,0.5,0.9,0.4,1.3L343.4,91.6z"/>
	<path class="st25" d="M294.3,96.6c-0.6,0-1.2,0.2-1.7,0.7c-0.4,0.5-0.6,1.2-0.6,1.9c0,0.7,0.2,1.4,0.6,1.9c0.4,0.5,1.1,0.7,1.7,0.7
		c0.5,0,1-0.1,1.5-0.2v0.7c-0.5,0.2-1.1,0.3-1.6,0.2c-0.8,0.1-1.6-0.3-2.2-0.9c-0.6-0.7-0.8-1.6-0.8-2.4c0-0.6,0.1-1.2,0.4-1.7
		c0.2-0.5,0.6-0.9,1.1-1.2c0.5-0.3,1.1-0.4,1.6-0.4c0.6,0,1.2,0.1,1.8,0.4l-0.3,0.6C295.3,96.7,294.8,96.6,294.3,96.6z"/>
	<path class="st25" d="M300.1,102.4l-0.1-0.7l0,0c-0.2,0.3-0.4,0.5-0.7,0.6c-0.3,0.1-0.6,0.2-0.9,0.2c-0.4,0-0.8-0.1-1.1-0.4
		c-0.3-0.3-0.4-0.7-0.4-1.1c0-1,0.8-1.5,2.3-1.5h0.8v-0.3c0-0.3-0.1-0.6-0.2-0.8c-0.2-0.2-0.5-0.3-0.8-0.3c-0.5,0-0.9,0.1-1.4,0.4
		l-0.2-0.6c0.2-0.1,0.5-0.2,0.8-0.3c0.3-0.1,0.6-0.1,0.9-0.1c0.5,0,0.9,0.1,1.3,0.4c0.3,0.3,0.5,0.8,0.4,1.2v3.3L300.1,102.4z
		 M298.5,101.9c0.4,0,0.8-0.1,1.1-0.4c0.3-0.3,0.4-0.6,0.4-1v-0.4h-0.7c-0.4,0-0.9,0.1-1.2,0.3c-0.3,0.2-0.4,0.4-0.4,0.7
		c0,0.2,0.1,0.4,0.2,0.6C298,101.9,298.2,101.9,298.5,101.9z"/>
	<path class="st25" d="M302.9,100c0.2-0.2,0.4-0.5,0.6-0.7l1.5-1.7h0.9l-2,2.1l2.1,2.8h-0.9l-1.7-2.3l-0.5,0.5v1.8h-0.7v-6.8h0.7
		v3.6C302.8,99.4,302.8,99.6,302.9,100L302.9,100z"/>
	<path class="st25" d="M308.9,102.5c-0.6,0-1.2-0.2-1.7-0.7c-0.4-0.5-0.7-1.1-0.6-1.8c0-0.7,0.2-1.3,0.6-1.8
		c0.4-0.5,0.9-0.7,1.5-0.7c0.5,0,1.1,0.2,1.4,0.6c0.4,0.4,0.6,1,0.5,1.6v0.5h-3.3c0,0.5,0.1,0.9,0.4,1.3c0.3,0.3,0.7,0.5,1.1,0.4
		c0.5,0,1.1-0.1,1.5-0.3v0.7c-0.2,0.1-0.5,0.2-0.7,0.2C309.5,102.5,309.2,102.5,308.9,102.5z M308.7,98.2c-0.3,0-0.7,0.1-0.9,0.4
		c-0.2,0.3-0.4,0.6-0.4,1h2.5c0-0.4-0.1-0.8-0.3-1.1C309.4,98.2,309.1,98.1,308.7,98.2L308.7,98.2z"/>
	<path class="st25" d="M315.7,100.7c0,0.5-0.2,1-0.6,1.3c-0.5,0.3-1.1,0.5-1.7,0.5c-0.6,0-1.2-0.1-1.8-0.3v-0.7
		c0.3,0.1,0.6,0.2,0.9,0.3c0.3,0.1,0.6,0.1,0.9,0.1c0.4,0,0.8-0.1,1.1-0.3c0.3-0.2,0.4-0.5,0.4-0.8c0-0.2,0-0.4-0.1-0.6
		c-0.1-0.2-0.3-0.3-0.5-0.4c-0.3-0.2-0.7-0.3-1-0.4c-0.5-0.1-0.9-0.4-1.3-0.8c-0.3-0.3-0.4-0.7-0.4-1.2c0-0.5,0.2-0.9,0.6-1.2
		c0.4-0.3,1-0.5,1.5-0.4c0.6,0,1.2,0.1,1.8,0.3l-0.2,0.7c-0.5-0.2-1-0.3-1.5-0.3c-0.3,0-0.7,0.1-0.9,0.2c-0.2,0.2-0.3,0.4-0.3,0.7
		c0,0.2,0,0.4,0.1,0.6c0.1,0.2,0.2,0.3,0.4,0.4c0.3,0.2,0.6,0.3,0.9,0.4c0.5,0.1,1,0.4,1.4,0.8C315.5,99.9,315.7,100.3,315.7,100.7z
		"/>
	<path class="st25" d="M319.8,102.4l-0.1-0.7l0,0c-0.2,0.3-0.4,0.5-0.7,0.6c-0.3,0.1-0.6,0.2-0.9,0.2c-0.4,0-0.8-0.1-1.1-0.4
		c-0.3-0.3-0.4-0.7-0.4-1.1c0-1,0.8-1.5,2.3-1.5h0.8v-0.3c0-0.3-0.1-0.6-0.2-0.8c-0.2-0.2-0.5-0.3-0.8-0.3c-0.5,0-0.9,0.1-1.4,0.4
		l-0.2-0.6c0.2-0.1,0.5-0.2,0.8-0.3c0.3-0.1,0.6-0.1,0.9-0.1c0.5,0,0.9,0.1,1.3,0.4c0.3,0.3,0.5,0.8,0.4,1.2v3.3L319.8,102.4z
		 M318.2,101.9c0.4,0,0.8-0.1,1.1-0.4c0.3-0.3,0.4-0.6,0.4-1v-0.4h-0.7c-0.4,0-0.9,0.1-1.2,0.3c-0.3,0.2-0.4,0.4-0.4,0.7
		c0,0.2,0.1,0.4,0.2,0.6C317.7,101.9,318,101.9,318.2,101.9z"/>
	<path class="st25" d="M322.6,102.4h-0.7v-6.8h0.7V102.4z"/>
	<path class="st25" d="M326.2,102.5c-0.6,0-1.2-0.2-1.7-0.7c-0.4-0.5-0.7-1.1-0.6-1.8c0-0.7,0.2-1.3,0.6-1.8
		c0.4-0.5,0.9-0.7,1.5-0.7c0.5,0,1.1,0.2,1.4,0.6c0.4,0.4,0.6,1,0.6,1.6v0.5h-3.3c0,0.5,0.1,0.9,0.4,1.3c0.3,0.3,0.7,0.5,1.1,0.4
		c0.5,0,1.1-0.1,1.5-0.3v0.7c-0.2,0.1-0.5,0.2-0.7,0.2C326.8,102.5,326.5,102.5,326.2,102.5z M326,98.2c-0.3,0-0.7,0.1-0.9,0.4
		c-0.2,0.3-0.4,0.6-0.4,1h2.5c0-0.4-0.1-0.8-0.3-1.1C326.7,98.2,326.3,98.1,326,98.2z"/>
</g>
<g id="Cake_copy_3">
	<rect x="222.4" y="74.1" class="st23" width="13.3" height="1.5"/>
	<path class="st3" d="M235.8,76h-13.3c-0.2,0-0.4-0.2-0.4-0.4l0,0v-1.5c0-0.2,0.2-0.4,0.4-0.4l0,0h13.3c0.2,0,0.4,0.2,0.4,0.4l0,0
		v1.5C236.1,75.8,236,76,235.8,76z M222.8,75.2h12.6v-0.7h-12.6L222.8,75.2z"/>
	<rect x="222.2" y="75.6" class="st2" width="13.9" height="2.8"/>
	<path class="st3" d="M236,78.8h-13.8c-0.2,0-0.4-0.2-0.4-0.4l0,0v-2.8c0-0.2,0.2-0.4,0.4-0.4l0,0H236c0.2,0,0.4,0.2,0.4,0.4l0,0
		v2.8C236.4,78.6,236.2,78.8,236,78.8L236,78.8z M222.5,78h13.1v-2h-13.1L222.5,78z"/>
	<rect x="222.2" y="71.3" class="st2" width="13.9" height="2.8"/>
	<path class="st3" d="M236,74.5h-13.8c-0.2,0-0.4-0.2-0.4-0.4l0,0v-2.8c0-0.2,0.2-0.4,0.4-0.4l0,0H236c0.2,0,0.4,0.2,0.4,0.4l0,0
		v2.8C236.4,74.3,236.2,74.5,236,74.5z M222.5,73.7h13.1v-2.1h-13.1L222.5,73.7z"/>
	<path class="st2" d="M232.8,67.4l-10.6,3.9H236c0.2-1.9-1.2-3.6-3.1-3.9C232.9,67.4,232.8,67.4,232.8,67.4L232.8,67.4z"/>
	<path class="st3" d="M236,71.7h-13.8c-0.2,0-0.3-0.2-0.3-0.4c0-0.1,0.1-0.2,0.1-0.2l10.6-3.9h0.1c2.1,0.1,3.8,1.9,3.7,4
		c0,0.1,0,0.2,0,0.3C236.3,71.6,236.1,71.7,236,71.7z M224.3,70.9h11.4c0-0.7-0.2-1.4-0.7-1.9c-0.5-0.7-1.3-1.1-2.2-1.2L224.3,70.9z
		"/>
	<path class="st3" d="M232.8,68.6c-0.2,0-0.4-0.2-0.4-0.4c0-0.1,0-0.1,0.1-0.2l1.9-3c0.1-0.2,0.3-0.2,0.5-0.1
		c0.2,0.1,0.2,0.3,0.1,0.5l-1.9,3C233,68.5,232.9,68.6,232.8,68.6z"/>
	<circle class="st23" cx="232.9" cy="67.8" r="1.8"/>
	<path class="st3" d="M232.9,70c-1.2,0-2.2-0.9-2.2-2.1c0-1.2,0.9-2.2,2.1-2.2c1.2,0,2.2,0.9,2.2,2.1C235,69,234.1,70,232.9,70
		C232.9,70,232.9,70,232.9,70z M232.9,66.4c-0.8,0-1.4,0.6-1.4,1.4s0.6,1.4,1.4,1.4c0.8,0,1.4-0.6,1.4-1.4c0,0,0,0,0,0
		C234.3,67.1,233.7,66.4,232.9,66.4C232.9,66.4,232.9,66.4,232.9,66.4L232.9,66.4z"/>
</g>
<g id="Participants">
	<path class="st3" d="M245.3,62.2c1.7,0,3-1.3,3-3s-1.3-3-3-3s-3,1.3-3,3l0,0C242.3,60.8,243.6,62.2,245.3,62.2z M245.3,57.6
		c0.8,0,1.5,0.7,1.5,1.5s-0.7,1.5-1.5,1.5c-0.8,0-1.5-0.7-1.5-1.5c0,0,0,0,0,0C243.8,58.3,244.4,57.6,245.3,57.6z"/>
	<path class="st3" d="M247.6,63.7H243c-0.8,0-1.5,0.7-1.5,1.5v6l1.5,1.6V78c0,0.4,0.3,0.8,0.8,0.8h3c0.4,0,0.8-0.3,0.8-0.8v-5.3
		l1.5-1.5v-6C249.1,64.4,248.4,63.7,247.6,63.7C247.6,63.7,247.6,63.7,247.6,63.7z"/>
	<path class="st3" d="M257.6,62.2c1.7,0,3-1.3,3-3s-1.3-3-3-3s-3,1.3-3,3l0,0C254.6,60.8,256,62.2,257.6,62.2z M257.6,57.6
		c0.8,0,1.5,0.7,1.5,1.5c0,0.8-0.7,1.5-1.5,1.5c-0.8,0-1.5-0.7-1.5-1.5C256.1,58.3,256.8,57.6,257.6,57.6L257.6,57.6z"/>
	<path class="st3" d="M259.9,63.7h-4.5c-0.8,0-1.5,0.7-1.5,1.5v6l1.5,1.5V78c0,0.4,0.3,0.8,0.8,0.8h3c0.4,0,0.8-0.3,0.8-0.8
		c0,0,0,0,0,0v-5.3l1.5-1.5v-6C261.4,64.4,260.8,63.7,259.9,63.7C259.9,63.7,259.9,63.7,259.9,63.7z"/>
</g>
<g id="Transaction">
	<path class="st3" d="M257.5,90.6c1.7,0,3-1.3,3-3s-1.3-3-3-3s-3,1.3-3,3S255.8,90.6,257.5,90.6z M257.5,86c0.8,0,1.5,0.7,1.5,1.5
		s-0.7,1.5-1.5,1.5c-0.8,0-1.5-0.7-1.5-1.5c0,0,0,0,0,0C256,86.7,256.6,86,257.5,86C257.5,86,257.5,86,257.5,86L257.5,86z"/>
	<path class="st3" d="M259.8,92.1h-4.5l-3.8,3.8l-3.8-3.8h-4.5c-0.8,0-1.5,0.7-1.5,1.5v6l1.5,1.5v5.3c0,0.4,0.3,0.8,0.8,0.8h3
		c0.4,0,0.8-0.3,0.8-0.8V95.9l3.8,3.8l3.8-3.8v10.6c0,0.4,0.3,0.8,0.8,0.8h3c0.4,0,0.8-0.3,0.8-0.8c0,0,0,0,0,0v-5.3l1.5-1.5v-6
		C261.3,92.8,260.6,92.1,259.8,92.1C259.8,92.1,259.8,92.1,259.8,92.1z"/>
	<path class="st3" d="M245.4,90.6c1.7,0,3-1.3,3-3s-1.3-3-3-3s-3,1.3-3,3S243.8,90.6,245.4,90.6z M245.4,86c0.8,0,1.5,0.7,1.5,1.5
		s-0.7,1.5-1.5,1.5c-0.8,0-1.5-0.7-1.5-1.5l0,0C243.9,86.7,244.5,86,245.4,86C245.4,86,245.4,86,245.4,86L245.4,86z"/>
	<path class="st26" d="M435.6,52.3h-1.3v-0.6h1.3v-0.4c-0.1-0.9,0.5-1.7,1.4-1.8c0.1,0,0.2,0,0.4,0c0.4,0,0.9,0.1,1.3,0.3l-0.2,0.6
		c-0.3-0.1-0.7-0.2-1-0.2c-0.5-0.1-1.1,0.3-1.1,0.9c0,0.1,0,0.2,0,0.3v0.4h1.9v0.6h-1.9v3.8h-0.7L435.6,52.3z"/>
	<path class="st26" d="M439.6,54.5v-2.8h0.8v2.7c0,0.8,0.3,1.2,1,1.2c0.6,0,1.1-0.3,1.4-0.8v-3.1h0.8v4.4h-0.6l-0.1-0.8l0,0
		c-0.4,0.5-1,0.9-1.6,0.9C440.1,56.3,439.6,55.7,439.6,54.5z"/>
	<path class="st26" d="M445.2,51.7h0.6l0.1,0.8l0,0c0.4-0.5,1-0.8,1.7-0.9c1,0,1.5,0.6,1.5,1.8v2.8h-0.8v-2.7c0-0.8-0.3-1.2-1-1.2
		c-0.5,0-0.9,0.3-1.4,0.8v3.1h-0.8L445.2,51.7z"/>
	<path class="st26" d="M450.6,54c0-1.3,1-2.3,2.3-2.3c0.1,0,0.1,0,0.2,0c0.6,0,1.2,0.2,1.6,0.7l-0.4,0.5c-0.3-0.3-0.8-0.5-1.2-0.5
		c-0.9-0.1-1.7,0.6-1.7,1.5c0,0.1,0,0.1,0,0.2c-0.1,0.9,0.6,1.6,1.5,1.7c0.1,0,0.1,0,0.2,0c0.5,0,1-0.2,1.4-0.6l0.3,0.5
		c-0.5,0.4-1.1,0.7-1.8,0.7c-1.2,0.1-2.3-0.8-2.4-2C450.6,54.2,450.6,54.1,450.6,54z"/>
	<path class="st26" d="M457.2,54.4v-2.1H456v-0.6h1.3l0.1-1.4h0.6v1.4h2.2v0.6H458v2.1c0,0.8,0.3,1.2,1.1,1.2c0.4,0,0.7-0.1,1.1-0.2
		l0.2,0.5c-0.4,0.2-0.9,0.3-1.4,0.3C457.6,56.3,457.2,55.5,457.2,54.4z"/>
	<path class="st26" d="M463.7,52.3h-2.1v-0.6h2.8v4.4h-0.8V52.3z M463.4,50.2c0-0.3,0.2-0.6,0.6-0.6c0.3,0,0.6,0.2,0.6,0.6
		c0,0.3-0.2,0.6-0.6,0.6c0,0,0,0,0,0C463.7,50.8,463.4,50.6,463.4,50.2C463.4,50.2,463.4,50.2,463.4,50.2z"/>
	<path class="st26" d="M466.9,54c0-1.2,1.1-2.2,2.3-2.1c1.2,0,2.2,1.1,2.1,2.3c0,1.2-1,2.2-2.2,2.1C467.8,56.3,466.8,55.3,466.9,54
		C466.8,54.1,466.8,54,466.9,54z M470.5,54c0-1-0.6-1.7-1.4-1.7s-1.4,0.7-1.4,1.7s0.6,1.7,1.4,1.7S470.5,55,470.5,54L470.5,54z"/>
	<path class="st26" d="M472.6,51.7h0.6l0.1,0.8l0,0c0.4-0.5,1-0.8,1.7-0.9c1,0,1.5,0.6,1.5,1.8v2.8h-0.8v-2.7c0-0.8-0.3-1.2-1-1.2
		c-0.5,0-0.9,0.3-1.4,0.8v3.1h-0.8L472.6,51.7z"/>
	<path class="st25" d="M483.3,54c0.1-1.2,1.1-2.1,2.3-2.1c1.2,0.1,2.1,1.1,2.1,2.3c-0.1,1.2-1,2.1-2.2,2.1c-1.2,0-2.2-0.9-2.2-2.1
		C483.3,54.1,483.3,54.1,483.3,54z M486.9,54c0-1-0.6-1.7-1.4-1.7s-1.4,0.7-1.4,1.7s0.6,1.7,1.4,1.7S486.9,55,486.9,54z"/>
	<path class="st25" d="M489.1,51.7h0.6l0.1,0.8l0,0c0.4-0.5,1-0.8,1.7-0.9c1,0,1.5,0.6,1.5,1.8v2.8h-0.8v-2.7c0-0.8-0.3-1.2-1-1.2
		c-0.5,0-0.9,0.3-1.4,0.8v3.1H489L489.1,51.7z"/>
	<path class="st25" d="M496.1,50.8h-2v-0.6h4.7v0.6h-2v5.3H496L496.1,50.8z"/>
	<path class="st25" d="M500.5,51.7h0.6l0.1,1l0,0c0.4-0.7,1.2-1.1,2-1.2c0.3,0,0.6,0,0.9,0.2l-0.2,0.7c-0.3-0.1-0.5-0.2-0.8-0.2
		c-0.8,0-1.5,0.5-1.8,1.3v2.6h-0.8L500.5,51.7z"/>
	<path class="st25" d="M505.4,55c0-1,0.9-1.5,3.2-1.7c0.1-0.5-0.3-1-0.9-1.1c-0.1,0-0.2,0-0.3,0c-0.6,0-1.1,0.2-1.5,0.5l-0.3-0.5
		c0.6-0.4,1.3-0.6,2-0.6c0.9-0.1,1.7,0.6,1.8,1.5c0,0.1,0,0.2,0,0.4v2.7h-0.6l-0.1-0.6l0,0c-0.5,0.4-1.1,0.7-1.8,0.7
		c-0.7,0.1-1.4-0.4-1.6-1.1C505.4,55.1,505.4,55.1,505.4,55z M508.6,55v-1.2c-1.9,0.2-2.5,0.5-2.5,1.1s0.5,0.7,1,0.7
		C507.7,55.6,508.2,55.4,508.6,55z"/>
	<path class="st25" d="M511,51.7h0.6l0.1,0.8l0,0c0.4-0.5,1-0.8,1.7-0.9c1,0,1.5,0.6,1.5,1.8v2.8h-0.8v-2.7c0-0.8-0.3-1.2-1-1.2
		c-0.5,0-0.9,0.3-1.4,0.8v3.1H511V51.7z"/>
	<path class="st25" d="M516.3,55.6l0.3-0.5c0.6,0.4,1.2,0.6,1.9,0.6c0.8,0,1.1-0.3,1.1-0.7s-0.2-0.6-1.4-0.8s-1.7-0.6-1.7-1.3
		s0.6-1.3,1.8-1.3c0.6,0,1.3,0.2,1.8,0.6l-0.4,0.5c-0.4-0.3-1-0.5-1.5-0.5c-0.8,0-1,0.3-1,0.6s0.4,0.5,1.3,0.7
		c1.5,0.3,1.8,0.7,1.8,1.4s-0.7,1.3-2,1.3C517.7,56.3,516.9,56,516.3,55.6z"/>
	<path class="st25" d="M521.9,55c0-1,0.9-1.5,3.2-1.7c0.1-0.5-0.3-1-0.9-1.1c-0.1,0-0.2,0-0.3,0c-0.6,0-1.1,0.2-1.5,0.5l-0.3-0.5
		c0.6-0.4,1.3-0.6,2-0.6c0.9-0.1,1.7,0.6,1.8,1.5c0,0.1,0,0.2,0,0.4v2.7h-0.6l-0.1-0.6l0,0c-0.5,0.4-1.1,0.7-1.8,0.7
		c-0.7,0.1-1.4-0.4-1.6-1.1C521.9,55.1,521.9,55.1,521.9,55z M525.1,55v-1.2c-1.9,0.2-2.5,0.5-2.5,1.1s0.5,0.7,1,0.7
		C524.1,55.6,524.7,55.4,525.1,55z"/>
	<path class="st25" d="M527.3,54c0-1.3,1-2.3,2.3-2.3c0.1,0,0.1,0,0.2,0c0.6,0,1.2,0.2,1.6,0.7l-0.4,0.5c-0.3-0.3-0.8-0.5-1.2-0.5
		c-0.9-0.1-1.7,0.6-1.7,1.5c0,0.1,0,0.1,0,0.2c-0.1,0.9,0.6,1.6,1.5,1.7c0.1,0,0.1,0,0.2,0c0.5,0,1-0.2,1.4-0.6l0.3,0.5
		c-0.5,0.4-1.1,0.7-1.8,0.7c-1.2,0.1-2.3-0.8-2.4-2C527.3,54.2,527.3,54.1,527.3,54z"/>
	<path class="st25" d="M534,54.4v-2.1h-1.2v-0.6h1.3l0.1-1.4h0.6v1.4h2.2v0.6h-2.2v2.1c0,0.8,0.3,1.2,1.1,1.2c0.4,0,0.7-0.1,1.1-0.2
		l0.2,0.5c-0.4,0.2-0.9,0.3-1.4,0.3C534.4,56.3,534,55.5,534,54.4z"/>
	<path class="st25" d="M540.5,52.3h-2.1v-0.6h2.8v4.4h-0.8V52.3z M540.1,50.2c0-0.3,0.2-0.6,0.6-0.6c0.3,0,0.6,0.2,0.6,0.6
		c0,0.3-0.2,0.6-0.6,0.6c0,0,0,0,0,0C540.4,50.8,540.2,50.6,540.1,50.2C540.1,50.2,540.1,50.2,540.1,50.2z"/>
	<path class="st25" d="M543.6,54c0.1-1.2,1.1-2.1,2.3-2.1c1.2,0.1,2.1,1.1,2.1,2.3c-0.1,1.2-1,2.1-2.2,2.1c-1.2,0-2.2-0.9-2.2-2.1
		C543.6,54.1,543.6,54.1,543.6,54z M547.2,54c0-1-0.6-1.7-1.4-1.7s-1.4,0.7-1.4,1.7s0.6,1.7,1.4,1.7S547.2,55,547.2,54z"/>
	<path class="st25" d="M549.4,51.7h0.6l0.1,0.8l0,0c0.4-0.5,1-0.8,1.7-0.9c1,0,1.5,0.6,1.5,1.8v2.8h-0.8v-2.7c0-0.8-0.3-1.2-1-1.2
		c-0.5,0-0.9,0.3-1.4,0.8v3.1h-0.8L549.4,51.7z"/>
	<path class="st25" d="M555.9,53.6c0-1.6,0.8-3.2,2.1-4.2l0.4,0.4c-2.1,1.7-2.4,4.7-0.7,6.8c0.2,0.3,0.4,0.5,0.7,0.7l-0.4,0.4
		C556.7,56.8,555.9,55.3,555.9,53.6z"/>
	<path class="st27" d="M561.4,54.4v-2.1h-1.2v-0.6h1.3l0.1-1.4h0.6v1.4h2.2v0.6h-2.2v2.1c0,0.8,0.3,1.2,1.1,1.2
		c0.4,0,0.7-0.1,1.1-0.2l0.2,0.5c-0.4,0.2-0.9,0.3-1.4,0.3C561.8,56.3,561.4,55.5,561.4,54.4z"/>
	<path class="st27" d="M567.2,53.9l-1.6-2.1h0.8l0.7,1c0.2,0.2,0.3,0.5,0.5,0.8l0,0l0.5-0.8l0.7-1h0.8l-1.6,2.2l1.7,2.2H569l-0.8-1
		l-0.6-0.8l0,0c-0.2,0.3-0.4,0.5-0.5,0.8l-0.7,1h-0.8L567.2,53.9z"/>
	<path class="st25" d="M571.6,57.4c2.1-1.7,2.4-4.7,0.7-6.8c-0.2-0.3-0.4-0.5-0.7-0.7l0.4-0.4c2.3,1.7,2.7,5,1,7.3
		c-0.3,0.4-0.6,0.7-1,1L571.6,57.4z"/>
	<path class="st25" d="M583.8,56.3c0-0.7,0.1-1.2,0.1-1.8c0-0.4-0.2-0.7-1.3-0.7v-0.5c1.1,0,1.3-0.4,1.3-0.7c0-0.6-0.1-1.1-0.1-1.8
		c0-0.9,0.5-1.2,1.7-1.2h0.6v0.4h-0.5c-0.9,0-1.1,0.2-1.1,0.8s0,1.1,0,1.7c0.1,0.5-0.2,0.9-0.7,1c0,0-0.1,0-0.1,0l0,0
		c0.5,0,0.8,0.4,0.8,0.9c0,0,0,0.1,0,0.1c0,0.6,0,1.1,0,1.7s0.2,0.8,1.1,0.8h0.5v0.4h-0.6C584.3,57.5,583.8,57.3,583.8,56.3z"/>
	<path class="st27" d="M445.1,66c0-1,0.9-1.5,3.2-1.7c0.1-0.5-0.3-1-0.9-1.1c-0.1,0-0.2,0-0.3,0c-0.6,0-1.1,0.2-1.5,0.5l-0.3-0.5
		c0.6-0.4,1.3-0.6,2-0.6c0.9-0.1,1.7,0.6,1.8,1.5c0,0.1,0,0.2,0,0.4v2.7h-0.6l-0.1-0.6l0,0c-0.5,0.4-1.1,0.7-1.8,0.7
		c-0.7,0.1-1.4-0.4-1.6-1.1C445.1,66.1,445.1,66.1,445.1,66z M448.3,66v-1.2c-1.9,0.2-2.5,0.5-2.5,1.1s0.5,0.7,1,0.7
		C447.4,66.6,447.9,66.4,448.3,66L448.3,66z"/>
	<path class="st27" d="M450.5,66.5l0.4-0.5c0.6,0.4,1.2,0.6,1.9,0.6c0.8,0,1.1-0.3,1.1-0.7s-0.2-0.6-1.4-0.8s-1.7-0.6-1.7-1.3
		s0.6-1.3,1.8-1.3c0.6,0,1.3,0.2,1.8,0.6l-0.4,0.5c-0.4-0.3-1-0.5-1.5-0.5c-0.8,0-1,0.3-1,0.6s0.4,0.5,1.3,0.7
		c1.5,0.3,1.8,0.7,1.8,1.4s-0.7,1.3-2,1.3C451.9,67.2,451.1,67,450.5,66.5z"/>
	<path class="st27" d="M456,66.5l0.4-0.5c0.6,0.4,1.2,0.6,1.9,0.6c0.8,0,1.1-0.3,1.1-0.7s-0.2-0.6-1.4-0.8s-1.7-0.6-1.7-1.3
		s0.6-1.3,1.8-1.3c0.6,0,1.3,0.2,1.8,0.6l-0.4,0.5c-0.4-0.3-1-0.5-1.5-0.5c-0.8,0-1,0.3-1,0.6s0.4,0.5,1.3,0.7
		c1.5,0.3,1.8,0.7,1.8,1.4s-0.7,1.3-2,1.3C457.4,67.2,456.6,67,456,66.5z"/>
	<path class="st27" d="M461.4,64.9c0-1.2,0.9-2.3,2.1-2.3c0,0,0.1,0,0.1,0c1.1-0.1,2,0.8,2,1.8c0,0.1,0,0.2,0,0.3c0,0.2,0,0.3,0,0.5
		h-3.5c0,0.9,0.8,1.6,1.7,1.5c0,0,0.1,0,0.1,0c0.5,0,1-0.1,1.4-0.4l0.3,0.5c-0.5,0.3-1.1,0.5-1.7,0.5c-1.2,0.1-2.3-0.9-2.4-2.1
		C461.4,65.1,461.4,65,461.4,64.9z M462.2,64.5h2.8c-0.1-0.9-0.6-1.4-1.3-1.4C462.9,63.2,462.3,63.8,462.2,64.5L462.2,64.5z"/>
	<path class="st27" d="M468.2,65.4v-2.1h-1.2v-0.6h1.3l0.1-1.4h0.6v1.4h2.2v0.6h-2.2v2.1c0,0.8,0.3,1.2,1.1,1.2
		c0.4,0,0.7-0.1,1.1-0.2l0.2,0.6c-0.4,0.2-0.9,0.3-1.4,0.3C468.6,67.2,468.2,66.5,468.2,65.4z"/>
	<path class="st25" d="M473.8,66.5c0-0.4,0.4-0.7,0.8-0.7c0.4,0,0.7,0.4,0.7,0.8c0,0.4-0.3,0.7-0.7,0.7
		C474.1,67.2,473.8,66.9,473.8,66.5C473.8,66.5,473.8,66.5,473.8,66.5z"/>
	<path class="st25" d="M477.8,64.9c0.1-1.2,1.1-2.1,2.3-2.1c1.2,0.1,2.1,1.1,2.1,2.3c-0.1,1.2-1,2.1-2.2,2.1c-1.2,0-2.2-0.9-2.2-2.1
		C477.8,65,477.8,65,477.8,64.9z M481.4,64.9c0-1-0.6-1.7-1.4-1.7s-1.4,0.7-1.4,1.7c0,1,0.6,1.7,1.4,1.7S481.4,65.9,481.4,64.9
		L481.4,64.9z"/>
	<path class="st25" d="M482.8,62.7h0.8l0.5,2.6c0.1,0.4,0.1,0.8,0.2,1.2l0,0c0.1-0.4,0.2-0.8,0.3-1.2l0.5-2.3h0.8l0.5,2.3
		c0.1,0.4,0.2,0.8,0.3,1.2l0,0c0.1-0.4,0.1-0.8,0.2-1.2l0.5-2.6h0.7l-1,4.4h-1l-0.4-2.1c-0.1-0.3-0.1-0.8-0.2-1.3l0,0
		c-0.1,0.6-0.1,1-0.2,1.3l-0.5,2.1h-1L482.8,62.7z"/>
	<path class="st25" d="M489.1,62.7h0.6l0.1,0.8l0,0c0.4-0.5,1-0.8,1.7-0.9c1,0,1.5,0.6,1.5,1.8v2.8h-0.8v-2.7c0-0.8-0.3-1.2-1-1.2
		c-0.5,0-0.9,0.3-1.4,0.8v3.1H489L489.1,62.7z"/>
	<path class="st25" d="M494.3,64.9c0-1.2,0.9-2.3,2.1-2.3c0,0,0.1,0,0.1,0c1.1-0.1,2,0.8,2,1.8c0,0.1,0,0.2,0,0.3c0,0.2,0,0.3,0,0.5
		h-3.5c0,0.9,0.8,1.6,1.7,1.5c0,0,0.1,0,0.1,0c0.5,0,1-0.1,1.4-0.4l0.3,0.5c-0.5,0.3-1.1,0.5-1.7,0.5c-1.2,0.1-2.3-0.9-2.4-2.1
		C494.3,65.1,494.3,65,494.3,64.9z M495.1,64.5h2.8c-0.1-0.9-0.6-1.4-1.3-1.4C495.8,63.2,495.2,63.8,495.1,64.5z"/>
	<path class="st25" d="M500.5,62.7h0.6l0.1,1l0,0c0.4-0.7,1.2-1.1,2-1.2c0.3,0,0.6,0,0.9,0.2l-0.2,0.7c-0.3-0.1-0.5-0.2-0.8-0.2
		c-0.8,0-1.5,0.5-1.8,1.3v2.6h-0.8L500.5,62.7z"/>
	<path class="st25" d="M510.9,62.9h3.9v0.6h-3.9V62.9z M510.9,64.9h3.9v0.6h-3.9V64.9z"/>
	<path class="st27" d="M446.2,76.4v-2.1H445v-0.6h1.3l0.1-1.4h0.6v1.4h2.2v0.6H447v2.1c0,0.8,0.3,1.2,1.1,1.2c0.4,0,0.7-0.1,1.1-0.2
		l0.2,0.6c-0.4,0.2-0.9,0.3-1.4,0.3C446.7,78.2,446.2,77.5,446.2,76.4z"/>
	<path class="st27" d="M452.1,75.8l-1.6-2.1h0.8l0.7,1c0.2,0.2,0.3,0.5,0.5,0.8l0,0l0.5-0.8l0.7-1h0.8l-1.6,2.2l1.7,2.2h-0.8l-0.8-1
		l-0.6-0.8l0,0c-0.2,0.3-0.4,0.5-0.5,0.8l-0.7,1h-0.8L452.1,75.8z"/>
	<path class="st25" d="M457.3,77.4c0-0.4,0.4-0.7,0.8-0.7c0.4,0,0.7,0.4,0.7,0.8c0,0.4-0.3,0.7-0.7,0.7
		C457.7,78.2,457.3,77.9,457.3,77.4C457.3,77.5,457.3,77.5,457.3,77.4z"/>
	<path class="st25" d="M461.7,73.7h0.6l0.1,0.8l0,0c0.4-0.5,1-0.8,1.7-0.9c1,0,1.5,0.6,1.5,1.8v2.8h-0.8v-2.7c0-0.8-0.3-1.2-1-1.2
		c-0.5,0-0.9,0.3-1.4,0.8v3.1h-0.8L461.7,73.7z"/>
	<path class="st25" d="M466.9,75.9c0-1.2,0.9-2.3,2.1-2.3c0,0,0.1,0,0.1,0c1.1-0.1,2,0.8,2,1.8c0,0.1,0,0.2,0,0.3c0,0.2,0,0.3,0,0.5
		h-3.5c0,0.9,0.8,1.6,1.7,1.5c0,0,0.1,0,0.1,0c0.5,0,1-0.1,1.4-0.4l0.3,0.5c-0.5,0.3-1.1,0.5-1.7,0.5c-1.2,0.1-2.3-0.9-2.4-2.1
		C466.9,76,466.9,75.9,466.9,75.9z M467.7,75.5h2.8c0.1-0.7-0.5-1.3-1.2-1.4c0,0-0.1,0-0.1,0C468.4,74.1,467.8,74.7,467.7,75.5z"/>
	<path class="st25" d="M471.9,73.7h0.8l0.5,2.6c0.1,0.4,0.1,0.8,0.2,1.2l0,0c0.1-0.4,0.2-0.8,0.3-1.2l0.5-2.3h0.8l0.5,2.3
		c0.1,0.4,0.2,0.8,0.3,1.2l0,0c0.1-0.4,0.1-0.8,0.2-1.2l0.5-2.6h0.7l-1,4.4h-1l-0.4-2.1c-0.1-0.3-0.1-0.8-0.2-1.3l0,0
		c-0.1,0.6-0.1,1-0.2,1.3l-0.5,2.1h-1L471.9,73.7z"/>
	<path class="st25" d="M477.7,75.1c0-1.9,1-3.1,2.3-3.1s2.3,1.1,2.3,3.1s-1,3.1-2.3,3.1S477.7,77,477.7,75.1z M481.5,75.1
		c0-1.5-0.6-2.4-1.5-2.4s-1.5,0.9-1.5,2.4s0.6,2.5,1.5,2.5S481.5,76.6,481.5,75.1L481.5,75.1z"/>
	<path class="st25" d="M482.8,73.7h0.8l0.5,2.6c0.1,0.4,0.1,0.8,0.2,1.2l0,0c0.1-0.4,0.2-0.8,0.3-1.2l0.5-2.3h0.8l0.5,2.3
		c0.1,0.4,0.2,0.8,0.3,1.2l0,0c0.1-0.4,0.1-0.8,0.2-1.2l0.5-2.6h0.7l-1,4.4h-1l-0.4-2.1c-0.1-0.3-0.1-0.8-0.2-1.3l0,0
		c-0.1,0.6-0.1,1-0.2,1.3l-0.5,2.1h-1L482.8,73.7z"/>
	<path class="st25" d="M489.1,73.7h0.6l0.1,0.8l0,0c0.4-0.5,1-0.8,1.7-0.9c1,0,1.5,0.6,1.5,1.8v2.8h-0.8v-2.7c0-0.8-0.3-1.2-1-1.2
		c-0.5,0-0.9,0.3-1.4,0.8v3.1H489L489.1,73.7z"/>
	<path class="st25" d="M494.3,75.9c0-1.2,0.9-2.3,2.1-2.3c0,0,0.1,0,0.1,0c1.1-0.1,2,0.8,2,1.8c0,0.1,0,0.2,0,0.3c0,0.2,0,0.3,0,0.5
		h-3.5c0,0.9,0.8,1.6,1.7,1.5c0,0,0.1,0,0.1,0c0.5,0,1-0.1,1.4-0.4l0.3,0.5c-0.5,0.3-1.1,0.5-1.7,0.5c-1.2,0.1-2.3-0.9-2.4-2.1
		C494.3,76,494.3,75.9,494.3,75.9z M495.1,75.5h2.8c0.1-0.7-0.5-1.3-1.2-1.4c0,0-0.1,0-0.1,0C495.8,74.1,495.2,74.7,495.1,75.5z"/>
	<path class="st25" d="M500.5,73.7h0.6l0.1,1.1l0,0c0.4-0.7,1.2-1.1,2-1.2c0.3,0,0.6,0,0.9,0.2l-0.2,0.7c-0.3-0.1-0.5-0.2-0.8-0.2
		c-0.8,0-1.5,0.5-1.8,1.3v2.6h-0.8L500.5,73.7z"/>
	<path class="st25" d="M506.5,79.6c0.7-0.2,1.1-0.8,1.1-1.6c-0.1,0-0.1,0-0.2,0c-0.4,0-0.7-0.2-0.7-0.6c0,0,0-0.1,0-0.1
		c0-0.4,0.3-0.7,0.7-0.7c0,0,0,0,0.1,0c0.5,0,0.8,0.5,0.8,1.2c0,1-0.6,1.9-1.6,2.2L506.5,79.6z M506.7,74.2c0-0.4,0.4-0.7,0.8-0.7
		c0.4,0,0.7,0.4,0.7,0.8c0,0.4-0.3,0.7-0.7,0.7C507,74.9,506.7,74.6,506.7,74.2C506.7,74.2,506.7,74.2,506.7,74.2L506.7,74.2z"/>
	<path class="st25" d="M434.3,90h0.5c0.9,0,1.1-0.2,1.1-0.8s-0.1-1-0.1-1.7c-0.1-0.5,0.2-0.9,0.7-1c0,0,0.1,0,0.1,0l0,0
		c-0.5,0-0.8-0.4-0.8-0.9c0,0,0-0.1,0-0.1c0-0.6,0.1-1.1,0.1-1.7s-0.2-0.8-1.1-0.8h-0.5v-0.4h0.6c1.1,0,1.7,0.3,1.7,1.2
		c0,0.6-0.1,1.2-0.1,1.8c0,0.4,0.2,0.7,1.3,0.7v0.5c-1.1,0-1.3,0.4-1.3,0.7c0,0.6,0.1,1.1,0.1,1.8c0,0.9-0.5,1.2-1.7,1.2h-0.6V90z"
		/>
	<path class="st3" d="M654.6,46.1h0.6l0.1,1l0,0c0.4-0.7,1.2-1.1,2-1.1c0.3,0,0.6,0.1,0.9,0.2l-0.2,0.6c-0.3-0.1-0.5-0.2-0.8-0.2
		c-0.8,0-1.5,0.5-1.8,1.2v2.5h-0.7V46.1z"/>
	<path class="st3" d="M659.3,48.8v-2.7h0.7v2.6c0,0.8,0.3,1.2,1,1.2c0.6,0,1.1-0.3,1.3-0.8v-3h0.7v4.3h-0.6l-0.1-0.8l0,0
		c-0.4,0.5-1,0.8-1.6,0.9C659.8,50.6,659.3,50,659.3,48.8z"/>
	<path class="st3" d="M666.2,49v-4.3h-1.5v-0.6h2.3v5c-0.1,0.4,0.2,0.8,0.7,0.9c0.1,0,0.1,0,0.2,0c0.3,0,0.6-0.1,0.8-0.2l0.2,0.5
		c-0.4,0.2-0.8,0.3-1.2,0.3C666.7,50.6,666.2,50.1,666.2,49z"/>
	<path class="st3" d="M670,48.3c-0.1-1.2,0.9-2.2,2.1-2.3c0,0,0.1,0,0.1,0c1-0.1,1.9,0.7,2,1.7c0,0.1,0,0.2,0,0.3c0,0.1,0,0.3,0,0.5
		h-3.4c0,0.9,0.7,1.6,1.6,1.6c0,0,0,0,0.1,0c0.5,0,0.9-0.1,1.3-0.4l0.3,0.5c-0.5,0.3-1.1,0.5-1.7,0.5c-1.2,0.1-2.3-0.9-2.3-2.1
		C670,48.5,670,48.4,670,48.3z M670.8,48h2.8c0.1-0.7-0.5-1.3-1.1-1.3c-0.1,0-0.1,0-0.2,0C671.5,46.6,670.8,47.2,670.8,48L670.8,48z
		"/>
	<path class="st3" d="M680.9,44.6h1.5c1.8,0,2.7,1,2.7,2.9s-1,3-2.7,3h-1.5V44.6z M682.3,49.9c1.3,0,2-0.9,2-2.3s-0.7-2.3-2-2.3
		h-0.7v4.7L682.3,49.9z"/>
	<path class="st3" d="M686.1,48.3c-0.1-1.2,0.9-2.2,2.1-2.3c0.1,0,0.1,0,0.2,0c1-0.1,1.9,0.7,2,1.7c0,0.1,0,0.2,0,0.3
		c0,0.1,0,0.3,0,0.5h-3.4c0,0.9,0.7,1.6,1.6,1.6c0,0,0,0,0.1,0c0.5,0,0.9-0.1,1.3-0.4l0.3,0.5c-0.5,0.3-1.1,0.5-1.7,0.5
		c-1.2,0.1-2.3-0.8-2.3-2.1C686.1,48.5,686.1,48.4,686.1,48.3z M686.9,48h2.8c0.1-0.7-0.5-1.3-1.1-1.3c-0.1,0-0.1,0-0.2,0
		C687.6,46.6,686.9,47.2,686.9,48z"/>
	<path class="st3" d="M693,46.7h-1.2v-0.5h1.2v-0.4c-0.1-0.9,0.5-1.7,1.3-1.8c0.1,0,0.3,0,0.5,0c0.4,0,0.9,0.1,1.2,0.2l-0.2,0.5
		c-0.3-0.1-0.7-0.2-1-0.2c-0.5-0.1-1,0.3-1.1,0.9c0,0.1,0,0.2,0,0.3v0.4h1.8v0.6h-1.8v3.8H693V46.7z"/>
	<path class="st3" d="M697,49.4c0-1,0.9-1.5,3.2-1.6c0.1-0.5-0.3-1-0.9-1.1c-0.1,0-0.2,0-0.3,0c-0.5,0-1.1,0.2-1.5,0.5l-0.3-0.5
		c0.6-0.4,1.2-0.6,1.9-0.6c0.9-0.1,1.7,0.6,1.8,1.4c0,0.1,0,0.2,0,0.3v2.7h-0.6l-0.1-0.6l0,0c-0.5,0.4-1.1,0.7-1.7,0.7
		c-0.7,0.1-1.4-0.4-1.5-1.1C697,49.5,697,49.4,697,49.4z M700.2,49.4v-1.1c-1.9,0.2-2.4,0.5-2.4,1.1s0.5,0.7,1,0.7
		C699.2,50,699.7,49.7,700.2,49.4L700.2,49.4z"/>
	<path class="st3" d="M702.3,48.8v-2.7h0.7v2.6c0,0.8,0.3,1.2,1,1.2c0.6,0,1.1-0.3,1.3-0.8v-3h0.7v4.3h-0.6l-0.1-0.8l0,0
		c-0.4,0.5-1,0.8-1.6,0.9C702.8,50.6,702.3,50,702.3,48.8z"/>
	<path class="st3" d="M709.2,49v-4.3h-1.5v-0.6h2.2v5c-0.1,0.4,0.2,0.8,0.7,0.9c0.1,0,0.1,0,0.2,0c0.3,0,0.6-0.1,0.8-0.2l0.2,0.5
		c-0.4,0.2-0.8,0.3-1.2,0.3C709.7,50.6,709.2,50.1,709.2,49z"/>
	<path class="st3" d="M714.2,48.8v-2.1H713v-0.5h1.2l0.1-1.4h0.6v1.4h2.1v0.6H715v2.1c0,0.8,0.3,1.2,1.1,1.2c0.3,0,0.7-0.1,1-0.2
		l0.2,0.5c-0.4,0.2-0.9,0.3-1.4,0.3C714.6,50.6,714.2,49.9,714.2,48.8z"/>
	<path class="st25" d="M725.4,50.7c0-0.7,0.1-1.1,0.1-1.7c0-0.3-0.2-0.7-1.3-0.7v-0.5c1.1,0,1.3-0.3,1.3-0.7c0-0.6-0.1-1.1-0.1-1.7
		c0-0.9,0.5-1.2,1.7-1.2h0.5v0.4h-0.5c-0.9,0-1.1,0.2-1.1,0.8s0,1.1,0,1.6c0.1,0.5-0.2,0.9-0.7,1c0,0-0.1,0-0.1,0l0,0
		c0.5,0,0.8,0.4,0.8,0.9c0,0,0,0.1,0,0.1c0,0.6,0,1.1,0,1.6s0.2,0.8,1.1,0.8h0.5v0.4H727C725.9,51.8,725.4,51.6,725.4,50.7z"/>
	<path class="st3" d="M664.8,56.9h0.6l0.1,0.5l0,0c0.4-0.4,0.9-0.6,1.5-0.7c1.2,0,1.8,0.9,1.8,2.2c0.1,1.2-0.7,2.2-1.8,2.3
		c-0.1,0-0.1,0-0.2,0c-0.5,0-0.9-0.2-1.3-0.6l0,0v0.8v1.5h-0.7L664.8,56.9z M668.1,59c0-1-0.4-1.6-1.2-1.6c-0.5,0-1,0.3-1.3,0.7v2.2
		c0.3,0.3,0.7,0.5,1.2,0.5C667.5,60.7,668.1,60.1,668.1,59z"/>
	<path class="st3" d="M670.1,60.1c0-1,0.9-1.5,3.2-1.6c0.1-0.5-0.3-1-0.9-1.1c-0.1,0-0.2,0-0.3,0c-0.5,0-1.1,0.2-1.5,0.5l-0.3-0.5
		c0.6-0.4,1.2-0.6,1.9-0.6c0.9-0.1,1.7,0.5,1.8,1.4c0,0.1,0,0.2,0,0.4v2.7h-0.6l-0.1-0.6l0,0c-0.5,0.4-1.1,0.7-1.7,0.7
		c-0.7,0.1-1.4-0.4-1.5-1.1C670.1,60.2,670.1,60.1,670.1,60.1z M673.3,60.1V59c-1.9,0.2-2.4,0.5-2.4,1.1s0.5,0.7,1,0.7
		C672.4,60.7,672.9,60.5,673.3,60.1L673.3,60.1z"/>
	<path class="st3" d="M676.1,56.9h0.6l0.1,1l0,0c0.4-0.7,1.1-1.1,1.9-1.1c0.3,0,0.6,0.1,0.9,0.2l-0.2,0.6c-0.3-0.1-0.5-0.2-0.8-0.2
		c-0.8,0-1.5,0.5-1.8,1.2v2.5H676L676.1,56.9z"/>
	<path class="st3" d="M682,59.5v-2.1h-1.2v-0.5h1.2l0.1-1.4h0.6v1.4h2.1v0.6h-2.2v2.1c0,0.8,0.3,1.2,1.1,1.2c0.3,0,0.7-0.1,1-0.2
		l0.2,0.5c-0.4,0.2-0.9,0.3-1.4,0.3C682.4,61.3,682,60.6,682,59.5z"/>
	<path class="st3" d="M688.3,57.5h-2v-0.6h2.8v4.3h-0.7L688.3,57.5z M688,55.4c0-0.3,0.2-0.6,0.6-0.6c0.3,0,0.6,0.2,0.6,0.6
		s-0.2,0.6-0.6,0.6c0,0,0,0,0,0C688.3,56,688,55.7,688,55.4C688,55.4,688,55.4,688,55.4z"/>
	<path class="st3" d="M691.6,59.1c0-1.2,1-2.3,2.2-2.3c0.1,0,0.1,0,0.2,0c0.6,0,1.2,0.2,1.6,0.6l-0.4,0.5c-0.3-0.3-0.7-0.5-1.2-0.5
		c-0.9-0.1-1.6,0.6-1.7,1.5c0,0.1,0,0.1,0,0.2c-0.1,0.9,0.6,1.6,1.5,1.7c0.1,0,0.1,0,0.2,0c0.5,0,1-0.2,1.3-0.5l0.3,0.5
		c-0.5,0.4-1.1,0.7-1.7,0.7c-1.2,0.1-2.3-0.8-2.4-2C691.6,59.2,691.6,59.1,691.6,59.1z"/>
	<path class="st3" d="M699.1,57.5h-2v-0.6h2.8v4.3h-0.7L699.1,57.5z M698.8,55.4c0-0.3,0.2-0.6,0.6-0.6c0.3,0,0.6,0.2,0.6,0.6
		s-0.2,0.6-0.6,0.6c0,0,0,0,0,0C699,56,698.8,55.8,698.8,55.4C698.8,55.4,698.7,55.4,698.8,55.4L698.8,55.4z"/>
	<path class="st3" d="M702.4,56.9h0.6l0.1,0.5l0,0c0.4-0.4,0.9-0.6,1.5-0.7c1.2,0,1.8,0.9,1.8,2.2c0.1,1.2-0.7,2.2-1.8,2.3
		c-0.1,0-0.1,0-0.2,0c-0.5,0-0.9-0.2-1.3-0.6l0,0v0.8v1.5h-0.7L702.4,56.9z M705.7,59c0-1-0.4-1.6-1.2-1.6c-0.5,0-1,0.3-1.3,0.7v2.2
		c0.3,0.3,0.7,0.5,1.2,0.5C705.1,60.7,705.7,60.1,705.7,59z"/>
	<path class="st3" d="M707.7,60.1c0-1,0.9-1.5,3.2-1.6c0.1-0.5-0.3-1-0.9-1.1c-0.1,0-0.2,0-0.3,0c-0.5,0-1.1,0.2-1.5,0.5l-0.3-0.5
		c0.6-0.4,1.2-0.6,1.9-0.6c0.9-0.1,1.7,0.6,1.8,1.4c0,0.1,0,0.2,0,0.3v2.7H711l-0.1-0.6l0,0c-0.5,0.4-1.1,0.7-1.7,0.7
		c-0.7,0.1-1.4-0.4-1.5-1.1C707.7,60.2,707.7,60.2,707.7,60.1z M710.8,60.1V59c-1.9,0.2-2.4,0.5-2.4,1.1s0.5,0.7,1,0.7
		C710,60.7,710.5,60.5,710.8,60.1z"/>
	<path class="st3" d="M713.2,56.9h0.6l0.1,0.7l0,0c0.4-0.5,1-0.8,1.6-0.8c1,0,1.5,0.6,1.5,1.8v2.7h-0.7v-2.6c0-0.8-0.3-1.2-1-1.2
		c-0.5,0-0.9,0.3-1.4,0.8v3h-0.7L713.2,56.9z"/>
	<path class="st3" d="M719.5,59.5v-2.1h-1.2v-0.5h1.2l0.1-1.4h0.6v1.4h2.1v0.6h-2.1v2.1c0,0.8,0.3,1.2,1.1,1.2c0.3,0,0.7-0.1,1-0.2
		l0.2,0.5c-0.4,0.2-0.9,0.3-1.4,0.3C720,61.3,719.5,60.6,719.5,59.5z"/>
	<path class="st3" d="M725,57.4c0-0.4,0.4-0.7,0.7-0.7c0.4,0,0.7,0.4,0.7,0.7c0,0.4-0.3,0.7-0.7,0.7C725.3,58.1,725,57.8,725,57.4
		C725,57.4,725,57.4,725,57.4z M725,60.6c0-0.4,0.4-0.7,0.7-0.7c0.4,0,0.7,0.4,0.7,0.7c0,0.4-0.3,0.7-0.7,0.7
		C725.3,61.3,725,61,725,60.6C725,60.6,725,60.6,725,60.6z"/>
	<path class="st25" d="M735,56.1v-1h1v1l-0.2,2h-0.5L735,56.1z M737.1,56.1v-1h1v1l-0.2,2h-0.5L737.1,56.1z"/>
	<path class="st25" d="M741.5,55.4h0.8l2,5.9h-0.8l-0.5-1.8h-2.2l-0.6,1.8h-0.8L741.5,55.4z M741,58.8h1.8l-0.3-0.9
		c-0.2-0.7-0.4-1.3-0.6-2l0,0c-0.2,0.7-0.4,1.3-0.6,2L741,58.8z"/>
	<path class="st25" d="M745.3,55.4h0.8L748,59l0.6,1.2l0,0c0-0.6-0.1-1.2-0.1-1.9v-3h0.7v5.9h-0.8l-1.9-3.7l-0.6-1.2l0,0
		c0,0.6,0.1,1.2,0.1,1.8v3.1h-0.7L745.3,55.4z"/>
	<path class="st25" d="M752.2,59.1l-2-3.8h0.8l0.9,1.7c0.2,0.5,0.4,0.9,0.7,1.4l0,0c0.2-0.5,0.5-0.9,0.7-1.4l0.8-1.7h0.9l-2,3.8v2.1
		h-0.8L752.2,59.1z"/>
	<path class="st25" d="M756.5,56.1v-1h1v1l-0.2,2h-0.5L756.5,56.1z M758.5,56.1v-1h1v1l-0.2,2h-0.5L758.5,56.1z"/>
	<path class="st3" d="M664.5,69.8c0.1-1.2,1.1-2.1,2.3-2s2.1,1.1,2,2.3c-0.1,1.1-1,2-2.1,2c-1.2,0-2.1-0.9-2.2-2.1
		C664.5,69.9,664.5,69.9,664.5,69.8z M668.1,69.8c0-1-0.5-1.7-1.4-1.7s-1.4,0.7-1.4,1.7s0.5,1.7,1.4,1.7S668.1,70.8,668.1,69.8z"/>
	<path class="st3" d="M670.2,67.6h0.6l0.1,0.6l0,0c0.4-0.4,0.9-0.6,1.5-0.7c1.2,0,1.8,0.9,1.8,2.2c0.1,1.2-0.7,2.2-1.8,2.3
		c-0.1,0-0.1,0-0.2,0c-0.5,0-0.9-0.2-1.3-0.6l0,0v0.8v1.5h-0.7L670.2,67.6z M673.5,69.7c0-1-0.4-1.6-1.2-1.6c-0.5,0-1,0.3-1.3,0.7
		v2.2c0.3,0.3,0.7,0.5,1.2,0.5C672.9,71.5,673.5,70.8,673.5,69.7z"/>
	<path class="st3" d="M675.4,69.8c0-1.2,0.9-2.2,2.1-2.3c0,0,0.1,0,0.1,0c1-0.1,1.9,0.7,2,1.7c0,0.1,0,0.2,0,0.3c0,0.1,0,0.3,0,0.4
		h-3.5c0,0.9,0.8,1.5,1.6,1.5c0,0,0,0,0.1,0c0.5,0,0.9-0.1,1.3-0.4l0.3,0.5c-0.5,0.3-1.1,0.5-1.7,0.5c-1.2,0.1-2.3-0.8-2.3-2.1
		C675.4,69.9,675.4,69.9,675.4,69.8z M676.1,69.4h2.8c0.1-0.7-0.5-1.3-1.1-1.3c-0.1,0-0.1,0-0.2,0C676.8,68.1,676.2,68.7,676.1,69.4
		z"/>
	<path class="st3" d="M681.4,67.6h0.6l0.1,1l0,0c0.4-0.7,1.1-1.1,1.9-1.1c0.3,0,0.6,0.1,0.9,0.2l-0.2,0.6c-0.3-0.1-0.5-0.2-0.8-0.2
		c-0.8,0-1.5,0.5-1.8,1.2V72h-0.7L681.4,67.6z"/>
	<path class="st3" d="M686.2,70.8c0-1,0.9-1.4,3.2-1.6c0.1-0.5-0.3-1-0.9-1.1c-0.1,0-0.2,0-0.3,0c-0.5,0-1.1,0.2-1.5,0.5l-0.3-0.5
		c0.6-0.4,1.2-0.6,1.9-0.6c0.9-0.1,1.7,0.6,1.8,1.4c0,0.1,0,0.2,0,0.3V72h-0.6l-0.1-0.6l0,0c-0.5,0.4-1.1,0.7-1.7,0.7
		c-0.7,0.1-1.4-0.4-1.5-1.1C686.2,70.9,686.2,70.9,686.2,70.8z M689.4,70.8v-1.1c-1.9,0.2-2.4,0.5-2.4,1.1s0.5,0.7,1,0.7
		C688.5,71.4,689,71.2,689.4,70.8L689.4,70.8z"/>
	<path class="st3" d="M692.7,70.3v-2.1h-1.2v-0.6h1.2l0.1-1.4h0.6v1.4h2.1v0.6h-2.1v2.1c0,0.8,0.3,1.2,1.1,1.2c0.3,0,0.7-0.1,1-0.2
		l0.2,0.5c-0.4,0.2-0.9,0.3-1.4,0.3C693.1,72.1,692.7,71.3,692.7,70.3z"/>
	<path class="st3" d="M699.1,68.2h-2v-0.6h2.8V72h-0.7L699.1,68.2z M698.8,66.1c0-0.3,0.2-0.6,0.6-0.6c0.3,0,0.6,0.2,0.6,0.6
		s-0.2,0.6-0.6,0.6c0,0,0,0,0,0C699,66.7,698.8,66.5,698.8,66.1C698.8,66.2,698.7,66.2,698.8,66.1L698.8,66.1z"/>
	<path class="st3" d="M702.1,69.8c0.1-1.2,1.1-2.1,2.3-2s2.1,1.1,2,2.3c-0.1,1.1-1,2-2.1,2c-1.2,0-2.1-0.9-2.2-2.1
		C702.1,69.9,702.1,69.9,702.1,69.8z M705.7,69.8c0-1-0.5-1.7-1.4-1.7s-1.4,0.7-1.4,1.7s0.5,1.7,1.4,1.7S705.7,70.8,705.7,69.8
		L705.7,69.8z"/>
	<path class="st3" d="M707.8,67.6h0.6l0.1,0.7l0,0c0.4-0.5,1-0.8,1.6-0.8c1,0,1.5,0.6,1.5,1.8V72h-0.7v-2.6c0-0.8-0.3-1.2-1-1.2
		c-0.5,0-0.9,0.3-1.4,0.8v3h-0.7L707.8,67.6z"/>
	<path class="st3" d="M714.3,68.1c0-0.4,0.4-0.7,0.7-0.7c0.4,0,0.7,0.4,0.7,0.7c0,0.4-0.3,0.7-0.7,0.7
		C714.6,68.9,714.3,68.5,714.3,68.1C714.3,68.1,714.3,68.1,714.3,68.1z M714.3,71.3c0-0.4,0.4-0.7,0.7-0.7c0.4,0,0.7,0.4,0.7,0.7
		c0,0.4-0.3,0.7-0.7,0.7C714.6,72.1,714.3,71.7,714.3,71.3C714.3,71.3,714.3,71.3,714.3,71.3z"/>
	<path class="st25" d="M725.3,66.1h0.8l2,5.9h-0.8l-0.5-1.8h-2.1l-0.6,1.8h-0.8L725.3,66.1z M724.9,69.6h1.8l-0.3-0.9
		c-0.2-0.7-0.4-1.3-0.6-2l0,0c-0.2,0.7-0.4,1.3-0.6,2L724.9,69.6z"/>
	<path class="st25" d="M729.7,66.1h0.7v5.2h2.9V72h-3.6L729.7,66.1z"/>
	<path class="st25" d="M735,66.1h0.7v5.2h2.9V72H735V66.1z"/>
	<path class="st3" d="M664.7,81.6c0-1,0.9-1.4,3.2-1.6c0.1-0.5-0.3-1-0.9-1.1c-0.1,0-0.2,0-0.3,0c-0.5,0-1.1,0.2-1.5,0.5l-0.3-0.5
		c0.6-0.4,1.2-0.6,1.9-0.6c0.9-0.1,1.7,0.6,1.8,1.4c0,0.1,0,0.2,0,0.3v2.7H668l-0.1-0.6l0,0c-0.5,0.4-1.1,0.7-1.7,0.7
		C665.5,82.9,664.8,82.4,664.7,81.6C664.7,81.6,664.7,81.6,664.7,81.6z M667.9,81.6v-1.1c-1.9,0.2-2.4,0.5-2.4,1.1s0.5,0.7,1,0.7
		C667,82.2,667.5,82,667.9,81.6L667.9,81.6z"/>
	<path class="st3" d="M670.1,80.5c0-1.2,1-2.3,2.2-2.3c0.1,0,0.1,0,0.2,0c0.6,0,1.2,0.2,1.6,0.6l-0.4,0.5c-0.3-0.3-0.7-0.5-1.2-0.5
		c-0.9-0.1-1.6,0.6-1.7,1.5c0,0.1,0,0.1,0,0.2c0,0.9,0.6,1.6,1.5,1.7c0.1,0,0.1,0,0.2,0c0.5,0,1-0.2,1.3-0.6l0.3,0.5
		c-0.5,0.4-1.1,0.7-1.7,0.7c-1.2,0.1-2.3-0.8-2.4-2C670.1,80.7,670.1,80.6,670.1,80.5z"/>
	<path class="st3" d="M676.6,81v-2h-1.2v-0.6h1.2l0.1-1.4h0.6v1.4h2.1V79h-2.1v2c0,0.8,0.3,1.2,1.1,1.2c0.3,0,0.7-0.1,1-0.2l0.2,0.5
		c-0.4,0.2-0.9,0.3-1.4,0.3C677,82.8,676.6,82.1,676.6,81z"/>
	<path class="st3" d="M683,79h-2v-0.6h2.8v4.3H683L683,79z M682.7,76.9c0-0.3,0.2-0.6,0.6-0.6c0.3,0,0.6,0.2,0.6,0.6
		s-0.2,0.6-0.6,0.6c0,0,0,0,0,0C682.9,77.5,682.7,77.3,682.7,76.9C682.6,76.9,682.6,76.9,682.7,76.9L682.7,76.9z"/>
	<path class="st3" d="M686,80.5c0.1-1.2,1.1-2.1,2.3-2s2.1,1.1,2,2.3c-0.1,1.1-1,2-2.1,2c-1.2,0-2.1-0.9-2.2-2.1
		C686,80.6,686,80.6,686,80.5z M689.5,80.5c0-1-0.5-1.7-1.4-1.7s-1.4,0.7-1.4,1.7s0.5,1.7,1.4,1.7S689.6,81.5,689.5,80.5L689.5,80.5
		z"/>
	<path class="st3" d="M691.7,78.4h0.6l0.1,0.7l0,0c0.4-0.5,1-0.8,1.6-0.8c1,0,1.5,0.6,1.5,1.8v2.7h-0.7v-2.6c0-0.8-0.3-1.2-1-1.2
		c-0.5,0-0.9,0.3-1.4,0.8v3h-0.7L691.7,78.4z"/>
	<path class="st3" d="M698.2,78.9c0-0.4,0.4-0.7,0.7-0.7c0.4,0,0.7,0.4,0.7,0.7c0,0.4-0.3,0.7-0.7,0.7
		C698.5,79.6,698.2,79.3,698.2,78.9C698.2,78.9,698.2,78.9,698.2,78.9z M698.2,82.1c0-0.4,0.4-0.7,0.7-0.7c0.4,0,0.7,0.4,0.7,0.7
		c0,0.4-0.3,0.7-0.7,0.7C698.5,82.8,698.2,82.5,698.2,82.1C698.2,82.1,698.2,82.1,698.2,82.1z"/>
	<path class="st25" d="M709.2,76.8h0.8l2,5.9h-0.8l-0.5-1.8h-2.1l-0.6,1.8h-0.8L709.2,76.8z M708.8,80.3h1.8l-0.3-0.9
		c-0.2-0.7-0.4-1.3-0.6-2l0,0c-0.2,0.7-0.4,1.3-0.6,2L708.8,80.3z"/>
	<path class="st25" d="M713.5,76.8h0.7v5.2h2.9v0.6h-3.6L713.5,76.8z"/>
	<path class="st25" d="M718.9,76.8h0.7v5.2h2.9v0.6h-3.6L718.9,76.8z"/>
	<path class="st25" d="M723.5,79.8c0-1.9,0.9-3,2.2-3s2.2,1.1,2.2,3s-0.9,3.1-2.2,3.1S723.5,81.7,723.5,79.8z M727.2,79.8
		c0-1.5-0.6-2.4-1.5-2.4s-1.5,0.9-1.5,2.4s0.6,2.4,1.5,2.4S727.2,81.2,727.2,79.8z"/>
	<path class="st25" d="M728.5,76.8h0.8l0.4,3.7c0,0.5,0.1,0.8,0.1,1.4l0,0c0.1-0.6,0.2-0.9,0.3-1.3l0.6-2.2h0.7l0.5,2.2
		c0.1,0.5,0.2,0.8,0.3,1.3l0,0c0-0.6,0-0.9,0.1-1.3l0.4-3.7h0.8l-0.9,5.9h-0.9l-0.6-2.4c-0.1-0.4-0.2-0.7-0.2-1.1l0,0
		c-0.1,0.4-0.1,0.7-0.2,1.1l-0.6,2.4h-0.9L728.5,76.8z"/>
	<path class="st25" d="M654.2,94.4h0.5c0.9,0,1.1-0.2,1.1-0.8s0-1,0-1.6c-0.1-0.4,0.2-0.9,0.6-1c0.1,0,0.1,0,0.2,0l0,0
		c-0.5,0-0.8-0.4-0.8-0.8c0-0.1,0-0.1,0-0.2c0-0.6,0-1.1,0-1.6s-0.2-0.8-1.1-0.8h-0.5v-0.4h0.5c1.1,0,1.7,0.3,1.7,1.2
		c0,0.6-0.1,1.2-0.1,1.7c0,0.3,0.2,0.7,1.3,0.7v0.5c-1.1,0-1.3,0.3-1.3,0.7c0,0.6,0.1,1.1,0.1,1.7c0,0.9-0.5,1.2-1.7,1.2h-0.5V94.4z
		"/>
</g>
</svg>
