<svg id="Layer_1" data-name="Layer 1" xmlns="http://www.w3.org/2000/svg" viewBox="0 0 696.67 870.12"><defs><style>.cls-1{fill:#e7e9f6;}.cls-2{fill:#ffd500;}.cls-3{fill:#1d1d1b;}.cls-4{fill:#8b9fd1;}.cls-5{fill:#fff;}.cls-6{fill:#f1f3f7;}.cls-7,.cls-9{fill:#fed601;}.cls-10,.cls-8{fill:none;stroke-linecap:round;stroke-linejoin:round;stroke-width:3px;}.cls-8,.cls-9{stroke:#fed601;}.cls-9{stroke-miterlimit:10;}.cls-10{stroke:#4256a2;}</style></defs><title>Install01</title><rect class="cls-1" x="0.33" y="-0.33" width="696.67" height="870.12" rx="34.02" ry="34.02"/><path class="cls-2" d="M.33,752.59H697a0,0,0,0,1,0,0v84a34,34,0,0,1-34,34H34.35a34,34,0,0,1-34-34v-84a0,0,0,0,1,0,0Z"/><path class="cls-3" d="M74.47,103.82H69.32V64.13h-14V59.56H88.48v4.57h-14Z"/><path class="cls-3" d="M109.52,70a19.67,19.67,0,0,1,4,.36l-.7,4.66a17.12,17.12,0,0,0-3.63-.45,8.84,8.84,0,0,0-6.89,3.27A11.92,11.92,0,0,0,99.41,86v17.8h-5V70.64h4.15l.58,6.15h.24a14.59,14.59,0,0,1,4.45-5A10,10,0,0,1,109.52,70Z"/><path class="cls-3" d="M114.43,70.64h5.39l7.27,18.92a72.08,72.08,0,0,1,3,9.35h.24q.39-1.54,1.65-5.28t8.22-23h5.39l-14.26,37.78q-2.12,5.6-4.95,7.95a10.53,10.53,0,0,1-6.95,2.35,20.23,20.23,0,0,1-4.54-.51v-4a17.51,17.51,0,0,0,3.72.36q5.18,0,7.39-5.81l1.85-4.72Z"/><path class="cls-3" d="M186.75,63.53q-7.3,0-11.52,4.86T171,81.69q0,8.69,4.07,13.43t11.61,4.74a39.63,39.63,0,0,0,10.57-1.67v4.51a32.54,32.54,0,0,1-11.35,1.73q-9.78,0-15.09-5.93T165.5,81.63a26.61,26.61,0,0,1,2.56-12,18.37,18.37,0,0,1,7.39-7.93,22.36,22.36,0,0,1,11.37-2.79A27.43,27.43,0,0,1,199,61.47l-2.18,4.42A23.46,23.46,0,0,0,186.75,63.53Z"/><path class="cls-3" d="M234.8,87.2q0,8.11-4.09,12.67t-11.29,4.56a15,15,0,0,1-7.9-2.09,13.78,13.78,0,0,1-5.33-6,20.89,20.89,0,0,1-1.88-9.14q0-8.11,4.06-12.64T219.63,70q7,0,11.06,4.63T234.8,87.2Zm-25.28,0q0,6.36,2.54,9.69t7.48,3.33q4.93,0,7.49-3.31t2.56-9.7q0-6.33-2.56-9.61t-7.55-3.28q-4.94,0-7.45,3.24T209.52,87.2Z"/><path class="cls-3" d="M285.9,103.82V82.24q0-4-1.7-5.95t-5.27-2q-4.69,0-6.93,2.69t-2.24,8.29v18.53h-5V82.24q0-4-1.7-5.95t-5.3-2q-4.72,0-6.92,2.83t-2.19,9.28v17.41h-5V70.64h4.09l.82,4.54h.24a9.88,9.88,0,0,1,4-3.78,12.25,12.25,0,0,1,5.8-1.36q7.78,0,10.17,5.63H269a10.58,10.58,0,0,1,4.3-4.12A13.34,13.34,0,0,1,279.69,70q5.63,0,8.43,2.89t2.8,9.25v21.65Z"/><path class="cls-3" d="M316.72,104.43a14.36,14.36,0,0,1-5.92-1.2,11.13,11.13,0,0,1-4.5-3.68h-.36a44.51,44.51,0,0,1,.36,5.51v13.65h-5V70.64h4.09l.7,4.54h.24a11.67,11.67,0,0,1,4.51-3.94,13.71,13.71,0,0,1,5.9-1.21q6.6,0,10.19,4.51t3.59,12.65q0,8.17-3.65,12.7A12.28,12.28,0,0,1,316.72,104.43ZM316,74.31q-5.09,0-7.36,2.82t-2.33,9V87.2q0,7,2.33,10t7.48,3a7.78,7.78,0,0,0,6.74-3.48q2.44-3.48,2.44-9.6t-2.44-9.52A8,8,0,0,0,316,74.31Z"/><path class="cls-3" d="M367.91,87.2q0,8.11-4.09,12.67t-11.29,4.56a15,15,0,0,1-7.9-2.09,13.78,13.78,0,0,1-5.33-6,20.89,20.89,0,0,1-1.88-9.14q0-8.11,4.06-12.64T352.74,70q7,0,11.07,4.63T367.91,87.2Zm-25.28,0q0,6.36,2.54,9.69t7.48,3.33q4.94,0,7.49-3.31t2.56-9.7q0-6.33-2.56-9.61t-7.55-3.28q-4.94,0-7.45,3.24T342.63,87.2Z"/><path class="cls-3" d="M398.12,94.77a8.31,8.31,0,0,1-3.45,7.14q-3.45,2.51-9.69,2.51-6.6,0-10.29-2.09V97.68a24.85,24.85,0,0,0,5.13,1.91,21.41,21.41,0,0,0,5.28.7A12,12,0,0,0,391.16,99a4.33,4.33,0,0,0,.44-7.14A26.46,26.46,0,0,0,385,88.62a35.52,35.52,0,0,1-6.58-3,9,9,0,0,1-2.91-2.92,7.62,7.62,0,0,1-1-3.91,7.44,7.44,0,0,1,3.3-6.4Q381.2,70,387,70a26.49,26.49,0,0,1,10.47,2.18l-1.79,4.09a24.05,24.05,0,0,0-9.05-2.06,10.41,10.41,0,0,0-5.39,1.12,3.46,3.46,0,0,0-1.82,3.09,3.76,3.76,0,0,0,.68,2.27,6.72,6.72,0,0,0,2.19,1.79A48.89,48.89,0,0,0,388.07,85q5.9,2.15,8,4.33A7.64,7.64,0,0,1,398.12,94.77Z"/><path class="cls-3" d="M420.31,104.43q-7.36,0-11.61-4.48T404.45,87.5q0-8,4-12.75A13.12,13.12,0,0,1,419,70a12.51,12.51,0,0,1,9.87,4.1q3.63,4.1,3.63,10.82v3.18H409.66q.15,5.84,3,8.87t7.89,3a26.72,26.72,0,0,0,10.6-2.24v4.48a26.59,26.59,0,0,1-5,1.65A28.34,28.34,0,0,1,420.31,104.43Zm-1.36-30.18a8.21,8.21,0,0,0-6.37,2.6,12,12,0,0,0-2.8,7.21h17.35q0-4.75-2.12-7.28A7.46,7.46,0,0,0,418.95,74.24Z"/><path class="cls-3" d="M456.22,70a19.66,19.66,0,0,1,4,.36l-.7,4.66a17.11,17.11,0,0,0-3.63-.45A8.84,8.84,0,0,0,449,77.88,11.92,11.92,0,0,0,446.1,86v17.8h-5V70.64h4.15l.58,6.15H446a14.6,14.6,0,0,1,4.45-5A10,10,0,0,1,456.22,70Z"/><path class="cls-3" d="M482.07,61.65a3.34,3.34,0,0,1,.85-2.53,3.14,3.14,0,0,1,4.21,0,3.28,3.28,0,0,1,.88,2.51,3.33,3.33,0,0,1-.88,2.53,3.07,3.07,0,0,1-4.21,0A3.4,3.4,0,0,1,482.07,61.65Zm5.45,42.17h-5V70.64h5Z"/><path class="cls-3" d="M520.88,103.82V82.36q0-4.06-1.85-6.05t-5.78-2q-5.21,0-7.63,2.82t-2.42,9.29v17.41h-5V70.64h4.09l.82,4.54h.24a10.27,10.27,0,0,1,4.33-3.8A14.07,14.07,0,0,1,513.86,70q6,0,9,2.89t3,9.25v21.65Z"/><path class="cls-3" d="M563.05,100.28a17.88,17.88,0,0,0,4.54-.61v3.84a9.18,9.18,0,0,1-2.41.65,18.1,18.1,0,0,1-2.86.26q-9.63,0-9.63-10.14V74.55h-4.75V72.13L552.7,70,554.82,63h2.91v7.69h9.63v3.91h-9.63V94.07a6.72,6.72,0,0,0,1.42,4.6A5,5,0,0,0,563.05,100.28Z"/><path class="cls-3" d="M596.93,103.82V82.36q0-4.06-1.85-6.05t-5.78-2q-5.24,0-7.64,2.85t-2.41,9.32v17.35h-5V56.72h5V71a31.11,31.11,0,0,1-.24,4.27h.3a10.25,10.25,0,0,1,4.22-3.77,13.73,13.73,0,0,1,6.25-1.38q6.08,0,9.13,2.89t3,9.19v21.65Z"/><path class="cls-3" d="M626.29,104.43q-7.36,0-11.61-4.48T610.43,87.5q0-8,4-12.75A13.12,13.12,0,0,1,625,70a12.51,12.51,0,0,1,9.87,4.1q3.63,4.1,3.63,10.82v3.18H615.64q.15,5.84,3,8.87t7.89,3a26.72,26.72,0,0,0,10.6-2.24v4.48a26.59,26.59,0,0,1-5,1.65A28.34,28.34,0,0,1,626.29,104.43Zm-1.36-30.18a8.21,8.21,0,0,0-6.37,2.6,12,12,0,0,0-2.8,7.21H633.1q0-4.75-2.12-7.28A7.46,7.46,0,0,0,624.93,74.24Z"/><path class="cls-3" d="M119.53,161.6q0,8.11-4.09,12.67t-11.29,4.56a15,15,0,0,1-7.9-2.09,13.78,13.78,0,0,1-5.33-6A20.89,20.89,0,0,1,89,161.6q0-8.11,4.06-12.64t11.26-4.53q7,0,11.06,4.63T119.53,161.6Zm-25.28,0q0,6.36,2.54,9.69t7.48,3.33q4.93,0,7.49-3.31t2.56-9.7q0-6.33-2.56-9.61t-7.55-3.28q-4.94,0-7.45,3.24T94.25,161.6Z"/><path class="cls-3" d="M151,178.22V156.76q0-4.06-1.85-6.05t-5.78-2q-5.21,0-7.63,2.82t-2.42,9.29v17.41h-5V145h4.09l.82,4.54h.24a10.26,10.26,0,0,1,4.33-3.8,14.07,14.07,0,0,1,6.21-1.35q6,0,9,2.89t3,9.25v21.65Z"/><path class="cls-3" d="M171.42,178.22h-5V131.12h5Z"/><path class="cls-3" d="M181.65,136.05a3.34,3.34,0,0,1,.85-2.53,3.14,3.14,0,0,1,4.21,0,3.28,3.28,0,0,1,.88,2.51,3.33,3.33,0,0,1-.88,2.53,2.93,2.93,0,0,1-2.09.83,2.9,2.9,0,0,1-2.12-.83A3.4,3.4,0,0,1,181.65,136.05Zm5.45,42.17h-5V145h5Z"/><path class="cls-3" d="M220.46,178.22V156.76q0-4.06-1.85-6.05t-5.78-2q-5.21,0-7.63,2.82t-2.42,9.29v17.41h-5V145h4.09l.82,4.54h.24a10.26,10.26,0,0,1,4.33-3.8,14.07,14.07,0,0,1,6.21-1.35q6,0,9,2.89t3,9.25v21.65Z"/><path class="cls-3" d="M249.83,178.83q-7.36,0-11.61-4.48T234,161.9q0-8,4-12.75a13.12,13.12,0,0,1,10.61-4.72,12.51,12.51,0,0,1,9.87,4.1q3.63,4.1,3.63,10.82v3.18H239.17q.15,5.84,3,8.87t7.89,3a26.72,26.72,0,0,0,10.6-2.24v4.48a26.6,26.6,0,0,1-5,1.65A28.33,28.33,0,0,1,249.83,178.83Zm-1.36-30.18a8.21,8.21,0,0,0-6.37,2.6,12,12,0,0,0-2.8,7.21h17.35q0-4.75-2.12-7.28A7.46,7.46,0,0,0,248.46,148.64Z"/><path class="cls-3" d="M315.52,146.86q0,6.72-4.59,10.34t-13.12,3.62H292.6v17.41h-5.15V134h11.47Q315.52,134,315.52,146.86Zm-22.92,9.54h4.63q6.84,0,9.9-2.21t3.06-7.08q0-4.39-2.88-6.54t-9-2.15H292.6Z"/><path class="cls-3" d="M329.05,178.22h-5V131.12h5Z"/><path class="cls-3" d="M360.11,178.22l-1-4.72h-.24a14,14,0,0,1-5,4.22,15.09,15.09,0,0,1-6.16,1.1q-4.94,0-7.73-2.54a9.27,9.27,0,0,1-2.8-7.24q0-10.05,16.08-10.54l5.63-.18v-2.06q0-3.91-1.68-5.77t-5.37-1.86a21.89,21.89,0,0,0-9.39,2.54L341,147.34a23.64,23.64,0,0,1,5.37-2.09,23.28,23.28,0,0,1,5.86-.76q5.93,0,8.79,2.63t2.86,8.45v22.64Zm-11.35-3.54a10.2,10.2,0,0,0,7.37-2.57,9.52,9.52,0,0,0,2.68-7.21v-3l-5,.21q-6,.21-8.64,1.86a5.61,5.61,0,0,0-2.65,5.13,5.18,5.18,0,0,0,1.65,4.15A6.85,6.85,0,0,0,348.76,174.68Z"/><path class="cls-3" d="M368.92,145h5.39L381.58,164a72.16,72.16,0,0,1,3,9.35h.24q.39-1.54,1.65-5.28t8.22-23H400l-14.26,37.78q-2.12,5.6-5,7.95a10.53,10.53,0,0,1-6.95,2.35,20.23,20.23,0,0,1-4.54-.51v-4a17.51,17.51,0,0,0,3.72.36q5.18,0,7.39-5.81l1.85-4.72Z"/><path class="cls-3" d="M432.59,145v3.18l-6.15.73a10.79,10.79,0,0,1,2.18,6.63,9.81,9.81,0,0,1-3.33,7.78q-3.33,2.91-9.14,2.91a15.2,15.2,0,0,1-2.79-.24q-3.21,1.7-3.21,4.27a2.17,2.17,0,0,0,1.12,2,8.18,8.18,0,0,0,3.84.65H421q5.39,0,8.28,2.27a7.89,7.89,0,0,1,2.89,6.6,9.42,9.42,0,0,1-4.42,8.4q-4.42,2.89-12.9,2.89-6.51,0-10-2.42a7.82,7.82,0,0,1-3.53-6.84,7.68,7.68,0,0,1,1.94-5.24,9.86,9.86,0,0,1,5.45-3,5.25,5.25,0,0,1-2.13-1.79,4.73,4.73,0,0,1-.86-2.82,5.34,5.34,0,0,1,1-3.18,10.18,10.18,0,0,1,3.06-2.63,9,9,0,0,1-4.19-3.6,10.58,10.58,0,0,1-1.62-5.81q0-5.45,3.27-8.4t9.26-3a16.86,16.86,0,0,1,4.69.61Zm-26.46,38.75a4.5,4.5,0,0,0,2.27,4.09,12.53,12.53,0,0,0,6.51,1.39q6.33,0,9.37-1.89a5.79,5.79,0,0,0,3-5.13q0-2.69-1.67-3.74t-6.27-1h-6A7.93,7.93,0,0,0,408,179.1,5.84,5.84,0,0,0,406.13,183.79Zm2.72-28.12a6.75,6.75,0,0,0,2,5.27,7.85,7.85,0,0,0,5.48,1.79q7.36,0,7.36-7.14,0-7.48-7.45-7.48a7.37,7.37,0,0,0-5.45,1.91A7.68,7.68,0,0,0,408.85,155.67Z"/><path class="cls-3" d="M454.54,144.44a19.67,19.67,0,0,1,4,.36l-.7,4.66a17.13,17.13,0,0,0-3.63-.45,8.84,8.84,0,0,0-6.89,3.27,11.92,11.92,0,0,0-2.86,8.14v17.8h-5V145h4.15l.58,6.15h.24a14.58,14.58,0,0,1,4.45-5A10,10,0,0,1,454.54,144.44Z"/><path class="cls-3" d="M493.35,161.6q0,8.11-4.09,12.67T478,178.83a15,15,0,0,1-7.9-2.09,13.78,13.78,0,0,1-5.33-6,20.88,20.88,0,0,1-1.88-9.14q0-8.11,4.06-12.64t11.26-4.53q7,0,11.06,4.63T493.35,161.6Zm-25.28,0q0,6.36,2.54,9.69t7.48,3.33q4.93,0,7.49-3.31t2.56-9.7q0-6.33-2.56-9.61T478,148.71q-4.94,0-7.45,3.24T468.07,161.6Z"/><path class="cls-3" d="M506.88,145v21.52q0,4.06,1.85,6.05t5.78,2q5.21,0,7.61-2.85t2.41-9.29V145h5v33.18h-4.15l-.73-4.45h-.27a10,10,0,0,1-4.28,3.75,14.4,14.4,0,0,1-6.25,1.3q-6.06,0-9.07-2.88t-3-9.2V145Z"/><path class="cls-3" d="M562.92,178.22V156.76q0-4.06-1.85-6.05t-5.78-2q-5.21,0-7.63,2.82t-2.42,9.29v17.41h-5V145h4.09l.82,4.54h.24a10.26,10.26,0,0,1,4.33-3.8,14.06,14.06,0,0,1,6.21-1.35q6,0,9,2.89t3,9.25v21.65Z"/><path class="cls-3" d="M600.85,173.77h-.27q-3.48,5.06-10.41,5.06-6.51,0-10.13-4.45t-3.62-12.65q0-8.2,3.63-12.75a12.22,12.22,0,0,1,10.11-4.54q6.75,0,10.35,4.9h.39l-.21-2.39-.12-2.33v-13.5h5v47.11h-4.09Zm-10.05.85q5.15,0,7.46-2.8t2.32-9v-1.06q0-7.05-2.35-10.07t-7.49-3a7.69,7.69,0,0,0-6.77,3.44q-2.35,3.44-2.35,9.7t2.33,9.6A7.89,7.89,0,0,0,590.8,174.62Z"/><path class="cls-3" d="M126.61,272.88h-3.76l-15.48-23.77h-.15q.31,4.19.31,7.67v16.1h-3V244.55h3.72l15.44,23.68h.16q0-.52-.17-3.36t-.1-4.06V244.55h3.08Z"/><path class="cls-3" d="M152.24,262.24q0,5.19-2.62,8.11a9.21,9.21,0,0,1-7.23,2.92,9.57,9.57,0,0,1-5.06-1.34,8.82,8.82,0,0,1-3.41-3.84,13.37,13.37,0,0,1-1.2-5.85q0-5.19,2.6-8.09a9.18,9.18,0,0,1,7.21-2.9,9,9,0,0,1,7.08,3A11.66,11.66,0,0,1,152.24,262.24Zm-16.18,0a10.08,10.08,0,0,0,1.63,6.2,6.46,6.46,0,0,0,9.58,0q1.64-2.12,1.64-6.21t-1.64-6.15a5.75,5.75,0,0,0-4.83-2.1,5.66,5.66,0,0,0-4.77,2.07Q136.06,258.14,136.06,262.24Z"/><path class="cls-3" d="M167.91,245.89a2.14,2.14,0,0,1,.54-1.62,2,2,0,0,1,2.69,0,2.1,2.1,0,0,1,.56,1.61,2.13,2.13,0,0,1-.56,1.62,1.88,1.88,0,0,1-1.34.53,1.86,1.86,0,0,1-1.36-.53A2.17,2.17,0,0,1,167.91,245.89Zm3.49,27h-3.22V251.65h3.22Z"/><path class="cls-3" d="M192.75,272.88V259.14a5.54,5.54,0,0,0-1.18-3.87,4.81,4.81,0,0,0-3.7-1.28q-3.33,0-4.88,1.8t-1.55,5.95v11.14h-3.22V251.65h2.62l.52,2.91h.15a6.56,6.56,0,0,1,2.77-2.43,9,9,0,0,1,4-.86q3.84,0,5.77,1.85T196,259v13.85Z"/><path class="cls-3" d="M216.27,267.09a5.32,5.32,0,0,1-2.21,4.57,10.38,10.38,0,0,1-6.2,1.61,13.48,13.48,0,0,1-6.59-1.34v-3a15.92,15.92,0,0,0,3.28,1.22,13.7,13.7,0,0,0,3.38.45,7.67,7.67,0,0,0,3.88-.8,2.77,2.77,0,0,0,.28-4.57,16.93,16.93,0,0,0-4.19-2.08,22.73,22.73,0,0,1-4.21-1.93,5.75,5.75,0,0,1-1.86-1.87,4.88,4.88,0,0,1-.61-2.5,4.77,4.77,0,0,1,2.11-4.1,9.84,9.84,0,0,1,5.79-1.5,17,17,0,0,1,6.7,1.4l-1.14,2.62a15.39,15.39,0,0,0-5.79-1.32,6.67,6.67,0,0,0-3.45.72,2.22,2.22,0,0,0-1.16,2,2.41,2.41,0,0,0,.44,1.45,4.3,4.3,0,0,0,1.4,1.14,31.28,31.28,0,0,0,3.72,1.57,13.9,13.9,0,0,1,5.1,2.77A4.89,4.89,0,0,1,216.27,267.09Z"/><path class="cls-3" d="M228.36,270.61a10.51,10.51,0,0,0,1.65-.13,10.65,10.65,0,0,0,1.26-.26v2.46a5.88,5.88,0,0,1-1.54.42,11.56,11.56,0,0,1-1.83.17q-6.16,0-6.16-6.49V254.14h-3V252.6l3-1.34,1.36-4.53H225v4.92h6.16v2.5H225v12.5a4.3,4.3,0,0,0,.91,2.94A3.17,3.17,0,0,0,228.36,270.61Z"/><path class="cls-3" d="M248.57,272.88l-.64-3h-.16a8.93,8.93,0,0,1-3.17,2.7,9.65,9.65,0,0,1-3.94.71,7.09,7.09,0,0,1-5-1.63,5.93,5.93,0,0,1-1.79-4.63q0-6.43,10.29-6.74l3.6-.12v-1.32a5.38,5.38,0,0,0-1.08-3.69A4.42,4.42,0,0,0,243.3,254a14,14,0,0,0-6,1.63l-1-2.46a15.14,15.14,0,0,1,3.44-1.34,14.92,14.92,0,0,1,3.75-.48q3.8,0,5.63,1.69t1.83,5.41v14.49Zm-7.27-2.27A6.53,6.53,0,0,0,246,269a6.09,6.09,0,0,0,1.71-4.61v-1.92l-3.22.14a11.7,11.7,0,0,0-5.53,1.19,3.59,3.59,0,0,0-1.7,3.28,3.31,3.31,0,0,0,1.06,2.65A4.38,4.38,0,0,0,241.31,270.61Z"/><path class="cls-3" d="M260.8,272.88h-3.22V242.73h3.22Z"/><path class="cls-3" d="M270.83,272.88h-3.22V242.73h3.22Z"/><path class="cls-3" d="M297.65,251.26a12.61,12.61,0,0,1,2.54.23l-.45,3a11,11,0,0,0-2.32-.29,5.66,5.66,0,0,0-4.41,2.09,7.63,7.63,0,0,0-1.83,5.21v11.39H288V251.65h2.65l.37,3.93h.15a9.33,9.33,0,0,1,2.85-3.2A6.41,6.41,0,0,1,297.65,251.26Z"/><path class="cls-3" d="M313.13,273.27a9.76,9.76,0,0,1-7.43-2.87q-2.72-2.87-2.72-8a12.31,12.31,0,0,1,2.53-8.16,8.4,8.4,0,0,1,6.79-3,8,8,0,0,1,6.32,2.63,10.06,10.06,0,0,1,2.33,6.93v2H306.31a8.42,8.42,0,0,0,1.89,5.68,6.53,6.53,0,0,0,5,1.94A17.1,17.1,0,0,0,320,269v2.87a17,17,0,0,1-3.23,1.06A18.15,18.15,0,0,1,313.13,273.27ZM312.26,254a5.25,5.25,0,0,0-4.08,1.67,7.68,7.68,0,0,0-1.79,4.61h11.1a7.07,7.07,0,0,0-1.36-4.66A4.77,4.77,0,0,0,312.26,254Z"/><path class="cls-3" d="M334,273.27a7.75,7.75,0,0,1-6.41-2.89q-2.31-2.89-2.31-8.06t2.33-8.14a8.54,8.54,0,0,1,13.17.37h.17l.47-2.91h2.54v30.77H340.7v-9.09a21.65,21.65,0,0,1,.21-3.29h-.25A7.6,7.6,0,0,1,334,273.27Zm.48-2.69q3.22,0,4.69-1.72T340.7,263v-.72q0-4.46-1.51-6.41a5.67,5.67,0,0,0-4.79-2,4.92,4.92,0,0,0-4.33,2.2,10.94,10.94,0,0,0-1.5,6.21,10.56,10.56,0,0,0,1.48,6.11A5,5,0,0,0,334.44,270.58Z"/><path class="cls-3" d="M353.76,251.65v13.78a5.54,5.54,0,0,0,1.18,3.88,4.81,4.81,0,0,0,3.7,1.28q3.33,0,4.87-1.82t1.54-5.95V251.65h3.22v21.23h-2.65l-.46-2.85H365a6.41,6.41,0,0,1-2.74,2.4,9.22,9.22,0,0,1-4,.83q-3.88,0-5.8-1.84t-1.93-5.89V251.65Z"/><path class="cls-3" d="M374.82,245.89a2.14,2.14,0,0,1,.54-1.62,2,2,0,0,1,2.69,0,2.1,2.1,0,0,1,.56,1.61,2.13,2.13,0,0,1-.56,1.62,1.88,1.88,0,0,1-1.34.53,1.86,1.86,0,0,1-1.36-.53A2.18,2.18,0,0,1,374.82,245.89Zm3.49,27h-3.22V251.65h3.22Z"/><path class="cls-3" d="M394.81,251.26a12.61,12.61,0,0,1,2.54.23l-.45,3a10.94,10.94,0,0,0-2.32-.29,5.66,5.66,0,0,0-4.41,2.09,7.63,7.63,0,0,0-1.83,5.21v11.39h-3.22V251.65h2.65l.37,3.93h.15a9.33,9.33,0,0,1,2.85-3.2A6.41,6.41,0,0,1,394.81,251.26Z"/><path class="cls-3" d="M410.29,273.27a9.76,9.76,0,0,1-7.43-2.87q-2.72-2.87-2.72-8a12.31,12.31,0,0,1,2.53-8.16,8.4,8.4,0,0,1,6.79-3,8,8,0,0,1,6.32,2.63,10.06,10.06,0,0,1,2.33,6.93v2H403.47a8.42,8.42,0,0,0,1.89,5.68,6.53,6.53,0,0,0,5,1.94,17.1,17.1,0,0,0,6.78-1.43v2.87a17,17,0,0,1-3.23,1.06A18.14,18.14,0,0,1,410.29,273.27ZM409.42,254a5.25,5.25,0,0,0-4.08,1.67,7.68,7.68,0,0,0-1.79,4.61h11.1a7.08,7.08,0,0,0-1.36-4.66A4.77,4.77,0,0,0,409.42,254Z"/><path class="cls-3" d="M438,270h-.17a7.56,7.56,0,0,1-6.67,3.24,7.89,7.89,0,0,1-6.48-2.85q-2.31-2.85-2.32-8.1t2.33-8.16a7.82,7.82,0,0,1,6.47-2.91,7.72,7.72,0,0,1,6.63,3.14h.25l-.14-1.53-.08-1.49v-8.64h3.22v30.15h-2.62Zm-6.43.54q3.29,0,4.78-1.79t1.48-5.78v-.68q0-4.51-1.5-6.44a5.7,5.7,0,0,0-4.79-1.93,4.92,4.92,0,0,0-4.33,2.2,10.94,10.94,0,0,0-1.5,6.21q0,4.07,1.49,6.14A5,5,0,0,0,431.61,270.58Z"/><path class="cls-3" d="M451.27,268.27l.29.45q-.5,1.94-1.45,4.5t-2,4.78h-2.42q.52-2,1.15-5t.88-4.75Z"/><path class="cls-3" d="M477.81,273.27a9.18,9.18,0,0,1-3.79-.77,7.11,7.11,0,0,1-2.88-2.35h-.23a28.44,28.44,0,0,1,.23,3.53v8.74h-3.22V251.65h2.62l.45,2.91h.16A7.46,7.46,0,0,1,474,252a8.78,8.78,0,0,1,3.78-.77,7.85,7.85,0,0,1,6.52,2.89q2.3,2.89,2.3,8.1t-2.33,8.13A7.86,7.86,0,0,1,477.81,273.27ZM477.35,254q-3.25,0-4.71,1.8t-1.49,5.74v.72q0,4.48,1.49,6.4t4.79,1.93a5,5,0,0,0,4.31-2.23,10.56,10.56,0,0,0,1.56-6.14,10.17,10.17,0,0,0-1.56-6.09A5.13,5.13,0,0,0,477.35,254Z"/><path class="cls-3" d="M501.22,273.27a9.76,9.76,0,0,1-7.43-2.87q-2.72-2.87-2.72-8a12.31,12.31,0,0,1,2.53-8.16,8.4,8.4,0,0,1,6.79-3,8,8,0,0,1,6.32,2.63,10.06,10.06,0,0,1,2.33,6.93v2H494.4a8.41,8.41,0,0,0,1.89,5.68,6.53,6.53,0,0,0,5,1.94,17.1,17.1,0,0,0,6.78-1.43v2.87a17,17,0,0,1-3.23,1.06A18.15,18.15,0,0,1,501.22,273.27ZM500.35,254a5.25,5.25,0,0,0-4.08,1.67,7.68,7.68,0,0,0-1.79,4.61h11.1a7.07,7.07,0,0,0-1.36-4.66A4.77,4.77,0,0,0,500.35,254Z"/><path class="cls-3" d="M524.2,251.26a12.6,12.6,0,0,1,2.54.23l-.45,3a11,11,0,0,0-2.33-.29,5.66,5.66,0,0,0-4.41,2.09,7.63,7.63,0,0,0-1.83,5.21v11.39h-3.22V251.65h2.65l.37,3.93h.16a9.33,9.33,0,0,1,2.85-3.2A6.42,6.42,0,0,1,524.2,251.26Z"/><path class="cls-3" d="M540.28,254.14h-5.41v18.74h-3.22V254.14h-3.8v-1.45l3.8-1.16v-1.18q0-7.83,6.84-7.83a14.09,14.09,0,0,1,4,.68l-.83,2.58a10.64,10.64,0,0,0-3.18-.6,3.1,3.1,0,0,0-2.69,1.21,6.76,6.76,0,0,0-.87,3.88v1.38h5.41Z"/><path class="cls-3" d="M553.13,273.27a9.76,9.76,0,0,1-7.43-2.87q-2.72-2.87-2.72-8a12.31,12.31,0,0,1,2.53-8.16,8.4,8.4,0,0,1,6.79-3,8,8,0,0,1,6.32,2.63,10.06,10.06,0,0,1,2.33,6.93v2H546.31a8.41,8.41,0,0,0,1.89,5.68,6.53,6.53,0,0,0,5,1.94A17.1,17.1,0,0,0,560,269v2.87a17,17,0,0,1-3.23,1.06A18.15,18.15,0,0,1,553.13,273.27ZM552.25,254a5.25,5.25,0,0,0-4.08,1.67,7.68,7.68,0,0,0-1.79,4.61h11.1a7.07,7.07,0,0,0-1.36-4.66A4.77,4.77,0,0,0,552.25,254Z"/><path class="cls-3" d="M574.9,273.27a9.06,9.06,0,0,1-7.14-2.84q-2.53-2.84-2.53-8t2.57-8.23a9.24,9.24,0,0,1,7.31-2.91,14.51,14.51,0,0,1,3.06.33,10.1,10.1,0,0,1,2.4.77l-1,2.73a15.12,15.12,0,0,0-2.33-.71,10.39,10.39,0,0,0-2.23-.28q-6.47,0-6.47,8.25a9.83,9.83,0,0,0,1.58,6,5.49,5.49,0,0,0,4.68,2.09,14.31,14.31,0,0,0,5.44-1.14v2.85A11.6,11.6,0,0,1,574.9,273.27Z"/><path class="cls-3" d="M592.17,270.61a10.52,10.52,0,0,0,1.65-.13,10.66,10.66,0,0,0,1.26-.26v2.46a5.87,5.87,0,0,1-1.54.42,11.56,11.56,0,0,1-1.83.17q-6.16,0-6.16-6.49V254.14h-3V252.6l3-1.34,1.36-4.53h1.86v4.92h6.16v2.5h-6.16v12.5a4.3,4.3,0,0,0,.91,2.94A3.17,3.17,0,0,0,592.17,270.61Z"/><path class="cls-3" d="M189.48,301.76h-5.41V320.5h-3.22V301.76h-3.8v-1.45l3.8-1.16V298q0-7.83,6.84-7.83a14.09,14.09,0,0,1,4,.68l-.83,2.58a10.64,10.64,0,0,0-3.18-.6,3.1,3.1,0,0,0-2.69,1.21,6.76,6.76,0,0,0-.87,3.88v1.38h5.41Z"/><path class="cls-3" d="M211.68,309.86q0,5.19-2.62,8.11a9.21,9.21,0,0,1-7.23,2.92,9.57,9.57,0,0,1-5.06-1.34,8.82,8.82,0,0,1-3.41-3.84,13.37,13.37,0,0,1-1.2-5.85q0-5.19,2.6-8.09a9.18,9.18,0,0,1,7.21-2.9,9,9,0,0,1,7.08,3A11.66,11.66,0,0,1,211.68,309.86Zm-16.18,0a10.08,10.08,0,0,0,1.63,6.2,6.46,6.46,0,0,0,9.58,0q1.64-2.12,1.64-6.21t-1.64-6.15a5.75,5.75,0,0,0-4.83-2.1,5.66,5.66,0,0,0-4.77,2.07Q195.5,305.75,195.5,309.86Z"/><path class="cls-3" d="M227,298.87a12.61,12.61,0,0,1,2.54.23l-.45,3a11,11,0,0,0-2.32-.29,5.66,5.66,0,0,0-4.41,2.09,7.63,7.63,0,0,0-1.83,5.21V320.5h-3.22V299.26H220l.37,3.93h.15a9.33,9.33,0,0,1,2.85-3.2A6.41,6.41,0,0,1,227,298.87Z"/><path class="cls-3" d="M253.4,301.76H248V320.5h-3.22V301.76H241v-1.45l3.8-1.16V298q0-7.83,6.84-7.83a14.09,14.09,0,0,1,4,.68l-.83,2.58a10.64,10.64,0,0,0-3.18-.6,3.1,3.1,0,0,0-2.69,1.21,6.76,6.76,0,0,0-.87,3.88v1.38h5.41Zm3.6-8.25a2.14,2.14,0,0,1,.54-1.62,2,2,0,0,1,2.69,0,2.1,2.1,0,0,1,.56,1.61,2.13,2.13,0,0,1-.56,1.62,1.88,1.88,0,0,1-1.34.53,1.86,1.86,0,0,1-1.36-.53A2.17,2.17,0,0,1,257,293.51Zm3.49,27h-3.22V299.26h3.22Z"/><path class="cls-3" d="M277,298.87a12.61,12.61,0,0,1,2.54.23l-.45,3a11,11,0,0,0-2.32-.29,5.66,5.66,0,0,0-4.41,2.09,7.63,7.63,0,0,0-1.83,5.21V320.5h-3.22V299.26H270l.37,3.93h.15a9.33,9.33,0,0,1,2.85-3.2A6.41,6.41,0,0,1,277,298.87Z"/><path class="cls-3" d="M297.2,314.7a5.32,5.32,0,0,1-2.21,4.57,10.38,10.38,0,0,1-6.2,1.61,13.48,13.48,0,0,1-6.59-1.34v-3a15.92,15.92,0,0,0,3.28,1.22,13.7,13.7,0,0,0,3.38.45,7.67,7.67,0,0,0,3.88-.8,2.77,2.77,0,0,0,.28-4.57,16.93,16.93,0,0,0-4.19-2.08,22.73,22.73,0,0,1-4.21-1.93,5.75,5.75,0,0,1-1.86-1.87,4.88,4.88,0,0,1-.61-2.5,4.77,4.77,0,0,1,2.11-4.1,9.84,9.84,0,0,1,5.79-1.5,17,17,0,0,1,6.7,1.4l-1.14,2.62a15.39,15.39,0,0,0-5.79-1.32,6.67,6.67,0,0,0-3.45.72,2.22,2.22,0,0,0-1.16,2,2.41,2.41,0,0,0,.44,1.45,4.3,4.3,0,0,0,1.4,1.14,31.28,31.28,0,0,0,3.72,1.57,13.9,13.9,0,0,1,5.1,2.77A4.89,4.89,0,0,1,297.2,314.7Z"/><path class="cls-3" d="M309.29,318.23a10.51,10.51,0,0,0,1.65-.13,10.65,10.65,0,0,0,1.26-.26v2.46a5.88,5.88,0,0,1-1.54.42,11.56,11.56,0,0,1-1.83.17q-6.16,0-6.16-6.49V301.76h-3v-1.55l3-1.34,1.36-4.53h1.86v4.92H312v2.5h-6.16v12.5a4.3,4.3,0,0,0,.91,2.94A3.17,3.17,0,0,0,309.29,318.23Z"/><path class="cls-3" d="M314.66,311.33v-2.94h9.51v2.94Z"/><path class="cls-3" d="M336.07,318.23a10.51,10.51,0,0,0,1.65-.13,10.65,10.65,0,0,0,1.26-.26v2.46a5.88,5.88,0,0,1-1.54.42,11.56,11.56,0,0,1-1.83.17q-6.16,0-6.16-6.49V301.76h-3v-1.55l3-1.34,1.36-4.53h1.86v4.92h6.16v2.5h-6.16v12.5a4.3,4.3,0,0,0,.91,2.94A3.17,3.17,0,0,0,336.07,318.23Z"/><path class="cls-3" d="M342.95,293.51a2.14,2.14,0,0,1,.54-1.62,2,2,0,0,1,2.69,0,2.1,2.1,0,0,1,.56,1.61,2.13,2.13,0,0,1-.56,1.62,1.88,1.88,0,0,1-1.34.53,1.86,1.86,0,0,1-1.36-.53A2.17,2.17,0,0,1,342.95,293.51Zm3.49,27h-3.22V299.26h3.22Z"/><path class="cls-3" d="M380.32,320.5V306.68a5.73,5.73,0,0,0-1.08-3.81,4.2,4.2,0,0,0-3.37-1.27,5.44,5.44,0,0,0-4.44,1.72q-1.43,1.72-1.43,5.31V320.5h-3.22V306.68a5.74,5.74,0,0,0-1.08-3.81,4.22,4.22,0,0,0-3.39-1.27,5.25,5.25,0,0,0-4.43,1.81q-1.4,1.81-1.4,5.94V320.5h-3.22V299.26h2.62l.52,2.91h.15a6.32,6.32,0,0,1,2.57-2.42,7.84,7.84,0,0,1,3.71-.87q5,0,6.51,3.6h.16a6.77,6.77,0,0,1,2.75-2.64,8.54,8.54,0,0,1,4.11-1,7.19,7.19,0,0,1,5.4,1.85q1.79,1.85,1.79,5.92V320.5Z"/><path class="cls-3" d="M399.13,320.88A9.76,9.76,0,0,1,391.7,318q-2.72-2.87-2.72-8a12.31,12.31,0,0,1,2.53-8.16,8.4,8.4,0,0,1,6.79-3,8,8,0,0,1,6.32,2.63,10.06,10.06,0,0,1,2.33,6.93v2H392.31a8.42,8.42,0,0,0,1.89,5.68,6.53,6.53,0,0,0,5,1.94,17.1,17.1,0,0,0,6.78-1.43v2.87a17,17,0,0,1-3.23,1.06A18.14,18.14,0,0,1,399.13,320.88Zm-.87-19.32a5.25,5.25,0,0,0-4.08,1.67,7.68,7.68,0,0,0-1.79,4.61h11.1a7.08,7.08,0,0,0-1.36-4.66A4.77,4.77,0,0,0,398.26,301.57Z"/><path class="cls-3" d="M425.76,299.26V313a5.54,5.54,0,0,0,1.18,3.88,4.81,4.81,0,0,0,3.7,1.28q3.33,0,4.87-1.82t1.54-5.95V299.26h3.22V320.5h-2.65l-.46-2.85H437a6.41,6.41,0,0,1-2.74,2.4,9.22,9.22,0,0,1-4,.83q-3.88,0-5.8-1.84t-1.93-5.89V299.26Z"/><path class="cls-3" d="M460.78,314.7a5.32,5.32,0,0,1-2.21,4.57,10.38,10.38,0,0,1-6.2,1.61,13.48,13.48,0,0,1-6.59-1.34v-3a15.93,15.93,0,0,0,3.28,1.22,13.7,13.7,0,0,0,3.38.45,7.67,7.67,0,0,0,3.88-.8,2.77,2.77,0,0,0,.28-4.57,16.93,16.93,0,0,0-4.19-2.08,22.75,22.75,0,0,1-4.21-1.93,5.75,5.75,0,0,1-1.86-1.87,4.87,4.87,0,0,1-.61-2.5,4.77,4.77,0,0,1,2.11-4.1,9.85,9.85,0,0,1,5.79-1.5,16.94,16.94,0,0,1,6.7,1.4l-1.14,2.62a15.39,15.39,0,0,0-5.79-1.32,6.66,6.66,0,0,0-3.45.72,2.22,2.22,0,0,0-1.16,2,2.4,2.4,0,0,0,.44,1.45,4.3,4.3,0,0,0,1.4,1.14,31.3,31.3,0,0,0,3.72,1.57,13.9,13.9,0,0,1,5.1,2.77A4.89,4.89,0,0,1,460.78,314.7Z"/><path class="cls-3" d="M475,320.88a9.76,9.76,0,0,1-7.43-2.87q-2.72-2.87-2.72-8a12.31,12.31,0,0,1,2.53-8.16,8.4,8.4,0,0,1,6.79-3,8,8,0,0,1,6.32,2.63,10.06,10.06,0,0,1,2.33,6.93v2H468.17a8.41,8.41,0,0,0,1.89,5.68,6.53,6.53,0,0,0,5,1.94,17.1,17.1,0,0,0,6.78-1.43v2.87a17,17,0,0,1-3.23,1.06A18.15,18.15,0,0,1,475,320.88Zm-.87-19.32a5.25,5.25,0,0,0-4.08,1.67,7.68,7.68,0,0,0-1.79,4.61h11.1a7.07,7.07,0,0,0-1.36-4.66A4.77,4.77,0,0,0,474.11,301.57Z"/><path class="cls-3" d="M498,298.87a12.6,12.6,0,0,1,2.54.23l-.45,3a11,11,0,0,0-2.33-.29,5.66,5.66,0,0,0-4.41,2.09,7.63,7.63,0,0,0-1.83,5.21V320.5h-3.22V299.26h2.65l.37,3.93h.16a9.33,9.33,0,0,1,2.85-3.2A6.42,6.42,0,0,1,498,298.87Z"/><path class="cls-3" d="M518.17,314.7a5.32,5.32,0,0,1-2.21,4.57,10.38,10.38,0,0,1-6.2,1.61,13.48,13.48,0,0,1-6.59-1.34v-3a15.9,15.9,0,0,0,3.28,1.22,13.7,13.7,0,0,0,3.38.45,7.67,7.67,0,0,0,3.88-.8,2.77,2.77,0,0,0,.28-4.57,16.93,16.93,0,0,0-4.19-2.08,22.71,22.71,0,0,1-4.21-1.93,5.76,5.76,0,0,1-1.86-1.87,4.88,4.88,0,0,1-.61-2.5,4.77,4.77,0,0,1,2.11-4.1,9.84,9.84,0,0,1,5.79-1.5,17,17,0,0,1,6.7,1.4l-1.14,2.62a15.39,15.39,0,0,0-5.79-1.32,6.67,6.67,0,0,0-3.45.72,2.22,2.22,0,0,0-1.16,2,2.41,2.41,0,0,0,.44,1.45,4.3,4.3,0,0,0,1.41,1.14,31.26,31.26,0,0,0,3.72,1.57,13.9,13.9,0,0,1,5.11,2.77A4.89,4.89,0,0,1,518.17,314.7Z"/><path class="cls-3" d="M159,368.5a9.76,9.76,0,0,1-7.43-2.87q-2.72-2.87-2.72-8a12.31,12.31,0,0,1,2.53-8.16,8.4,8.4,0,0,1,6.79-3,8,8,0,0,1,6.32,2.63,10.06,10.06,0,0,1,2.33,6.93v2H152.18a8.42,8.42,0,0,0,1.89,5.68,6.53,6.53,0,0,0,5,1.94,17.1,17.1,0,0,0,6.78-1.43v2.87a17,17,0,0,1-3.23,1.06A18.15,18.15,0,0,1,159,368.5Zm-.87-19.32a5.25,5.25,0,0,0-4.08,1.67,7.68,7.68,0,0,0-1.79,4.61h11.1A7.07,7.07,0,0,0,162,350.8,4.77,4.77,0,0,0,158.13,349.18Z"/><path class="cls-3" d="M176.94,368.11l-8.06-21.23h3.45l4.57,12.59a59.52,59.52,0,0,1,1.82,5.73h.16a43.29,43.29,0,0,1,1.35-4.25q1.13-3.23,5.09-14.08h3.45l-8.06,21.23Z"/><path class="cls-3" d="M205.23,368.11l-.64-3h-.16a8.93,8.93,0,0,1-3.17,2.7,9.65,9.65,0,0,1-3.94.71,7.09,7.09,0,0,1-5-1.63,5.93,5.93,0,0,1-1.79-4.63q0-6.43,10.29-6.74l3.6-.12v-1.32a5.38,5.38,0,0,0-1.08-3.69,4.42,4.42,0,0,0-3.44-1.19,14,14,0,0,0-6,1.63l-1-2.46A15.14,15.14,0,0,1,196.4,347a14.92,14.92,0,0,1,3.75-.48q3.8,0,5.63,1.69t1.83,5.41v14.49ZM198,365.85a6.53,6.53,0,0,0,4.72-1.65,6.09,6.09,0,0,0,1.71-4.61v-1.92l-3.22.14a11.7,11.7,0,0,0-5.53,1.19,3.59,3.59,0,0,0-1.7,3.28,3.31,3.31,0,0,0,1.06,2.65A4.38,4.38,0,0,0,198,365.85Z"/><path class="cls-3" d="M217.45,368.11h-3.22V338h3.22Z"/><path class="cls-3" d="M227.3,346.88v13.78a5.54,5.54,0,0,0,1.18,3.88,4.81,4.81,0,0,0,3.7,1.28q3.33,0,4.87-1.82t1.54-5.95V346.88h3.22v21.23h-2.65l-.46-2.85h-.17a6.41,6.41,0,0,1-2.74,2.4,9.22,9.22,0,0,1-4,.83q-3.88,0-5.8-1.84T224,360.77V346.88Z"/><path class="cls-3" d="M261.69,368.11l-.64-3h-.16a8.93,8.93,0,0,1-3.17,2.7,9.65,9.65,0,0,1-3.94.71,7.09,7.09,0,0,1-5-1.63,5.93,5.93,0,0,1-1.79-4.63q0-6.43,10.29-6.74l3.6-.12v-1.32a5.38,5.38,0,0,0-1.08-3.69,4.42,4.42,0,0,0-3.44-1.19,14,14,0,0,0-6,1.63l-1-2.46a15.14,15.14,0,0,1,3.44-1.34,14.92,14.92,0,0,1,3.75-.48q3.8,0,5.63,1.69t1.83,5.41v14.49Zm-7.27-2.27a6.53,6.53,0,0,0,4.72-1.65,6.09,6.09,0,0,0,1.71-4.61v-1.92l-3.22.14a11.7,11.7,0,0,0-5.53,1.19,3.59,3.59,0,0,0-1.7,3.28,3.31,3.31,0,0,0,1.06,2.65A4.38,4.38,0,0,0,254.42,365.85Z"/><path class="cls-3" d="M277.56,365.85a10.51,10.51,0,0,0,1.65-.13,10.65,10.65,0,0,0,1.26-.26v2.46a5.88,5.88,0,0,1-1.54.42,11.56,11.56,0,0,1-1.83.17q-6.16,0-6.16-6.49V349.38h-3v-1.55l3-1.34,1.36-4.53h1.86v4.92h6.16v2.5h-6.16v12.5a4.3,4.3,0,0,0,.91,2.94A3.17,3.17,0,0,0,277.56,365.85Z"/><path class="cls-3" d="M284.43,341.12a2.14,2.14,0,0,1,.54-1.62,2,2,0,0,1,2.69,0,2.1,2.1,0,0,1,.56,1.61,2.13,2.13,0,0,1-.56,1.62,1.88,1.88,0,0,1-1.34.53,1.86,1.86,0,0,1-1.36-.53A2.17,2.17,0,0,1,284.43,341.12Zm3.49,27h-3.22V346.88h3.22Z"/><path class="cls-3" d="M309.27,368.11V354.38a5.54,5.54,0,0,0-1.18-3.87,4.81,4.81,0,0,0-3.7-1.28q-3.33,0-4.88,1.8T298,357v11.14h-3.22V346.88h2.62l.52,2.91H298a6.56,6.56,0,0,1,2.77-2.43,9,9,0,0,1,4-.86q3.84,0,5.77,1.85t1.94,5.92v13.85Z"/><path class="cls-3" d="M336.48,346.88v2l-3.93.46a6.91,6.91,0,0,1,1.4,4.24,6.28,6.28,0,0,1-2.13,5,8.6,8.6,0,0,1-5.85,1.86,9.72,9.72,0,0,1-1.78-.15q-2.05,1.09-2.05,2.73a1.39,1.39,0,0,0,.72,1.29,5.23,5.23,0,0,0,2.46.42h3.76a8.42,8.42,0,0,1,5.3,1.45,5,5,0,0,1,1.85,4.22,6,6,0,0,1-2.83,5.38q-2.83,1.85-8.25,1.85a11.28,11.28,0,0,1-6.42-1.55,5,5,0,0,1-2.26-4.38,4.92,4.92,0,0,1,1.24-3.35,6.31,6.31,0,0,1,3.49-1.92,3.36,3.36,0,0,1-1.37-1.14,3,3,0,0,1-.55-1.8,3.42,3.42,0,0,1,.62-2,6.51,6.51,0,0,1,2-1.69,5.74,5.74,0,0,1-2.68-2.31,6.77,6.77,0,0,1-1-3.72,6.87,6.87,0,0,1,2.09-5.38,8.54,8.54,0,0,1,5.93-1.89,10.78,10.78,0,0,1,3,.39Zm-16.93,24.8a2.88,2.88,0,0,0,1.45,2.62,8,8,0,0,0,4.17.89,11.62,11.62,0,0,0,6-1.21,3.71,3.71,0,0,0,1.95-3.28A2.6,2.6,0,0,0,332,368.3a8.27,8.27,0,0,0-4-.67h-3.86a5.08,5.08,0,0,0-3.41,1A3.74,3.74,0,0,0,319.54,371.68Zm1.74-18a4.32,4.32,0,0,0,1.26,3.37,5,5,0,0,0,3.51,1.14q4.71,0,4.71-4.57,0-4.78-4.77-4.79a4.72,4.72,0,0,0-3.49,1.22A4.92,4.92,0,0,0,321.29,353.68Z"/><path class="cls-3" d="M363.76,342.32a9.26,9.26,0,0,0-7.37,3.11q-2.7,3.11-2.7,8.52,0,5.56,2.61,8.59a9.26,9.26,0,0,0,7.43,3,25.37,25.37,0,0,0,6.76-1.07v2.89a20.83,20.83,0,0,1-7.27,1.1q-6.26,0-9.66-3.8t-3.4-10.79a17,17,0,0,1,1.64-7.67,11.75,11.75,0,0,1,4.73-5.08,14.31,14.31,0,0,1,7.28-1.78,17.56,17.56,0,0,1,7.79,1.63l-1.4,2.83A15,15,0,0,0,363.76,342.32Z"/><path class="cls-3" d="M394.5,357.48q0,5.19-2.62,8.11a9.21,9.21,0,0,1-7.23,2.92,9.57,9.57,0,0,1-5.06-1.34,8.82,8.82,0,0,1-3.41-3.84,13.37,13.37,0,0,1-1.2-5.85q0-5.19,2.6-8.09a9.19,9.19,0,0,1,7.21-2.9,9,9,0,0,1,7.08,3A11.66,11.66,0,0,1,394.5,357.48Zm-16.18,0a10.08,10.08,0,0,0,1.63,6.2,6.46,6.46,0,0,0,9.58,0q1.64-2.12,1.64-6.21t-1.64-6.15a5.75,5.75,0,0,0-4.83-2.1,5.66,5.66,0,0,0-4.77,2.07Q378.33,353.37,378.33,357.48Z"/><path class="cls-3" d="M427.21,368.11V354.3a5.74,5.74,0,0,0-1.08-3.81,4.2,4.2,0,0,0-3.37-1.27,5.44,5.44,0,0,0-4.44,1.72q-1.43,1.72-1.43,5.31v11.86h-3.22V354.3a5.73,5.73,0,0,0-1.08-3.81,4.22,4.22,0,0,0-3.39-1.27,5.25,5.25,0,0,0-4.43,1.81q-1.4,1.81-1.4,5.94v11.14h-3.22V346.88h2.62l.52,2.91h.16a6.32,6.32,0,0,1,2.57-2.42,7.84,7.84,0,0,1,3.71-.87q5,0,6.51,3.6h.16a6.77,6.77,0,0,1,2.75-2.64,8.54,8.54,0,0,1,4.11-1,7.19,7.19,0,0,1,5.4,1.85q1.79,1.85,1.79,5.92v13.85Z"/><path class="cls-3" d="M446.93,368.5a9.18,9.18,0,0,1-3.79-.77,7.11,7.11,0,0,1-2.88-2.35H440a28.44,28.44,0,0,1,.23,3.53v8.74h-3.22V346.88h2.62l.45,2.91h.16a7.46,7.46,0,0,1,2.89-2.52,8.78,8.78,0,0,1,3.78-.77,7.85,7.85,0,0,1,6.52,2.89q2.3,2.89,2.3,8.1t-2.33,8.13A7.86,7.86,0,0,1,446.93,368.5Zm-.46-19.28q-3.25,0-4.71,1.8t-1.49,5.74v.72q0,4.48,1.49,6.4t4.79,1.93a5,5,0,0,0,4.31-2.23,10.56,10.56,0,0,0,1.56-6.14,10.17,10.17,0,0,0-1.56-6.09A5.13,5.13,0,0,0,446.47,349.22Z"/><path class="cls-3" d="M479.7,357.48q0,5.19-2.62,8.11a9.21,9.21,0,0,1-7.23,2.92,9.57,9.57,0,0,1-5.06-1.34,8.82,8.82,0,0,1-3.41-3.84,13.37,13.37,0,0,1-1.2-5.85q0-5.19,2.6-8.09a9.19,9.19,0,0,1,7.21-2.9,9,9,0,0,1,7.08,3A11.66,11.66,0,0,1,479.7,357.48Zm-16.18,0a10.08,10.08,0,0,0,1.63,6.2,6.46,6.46,0,0,0,9.58,0q1.64-2.12,1.64-6.21t-1.64-6.15a5.75,5.75,0,0,0-4.83-2.1,5.66,5.66,0,0,0-4.77,2.07Q463.52,353.37,463.52,357.48Z"/><path class="cls-3" d="M499,362.32a5.32,5.32,0,0,1-2.21,4.57,10.38,10.38,0,0,1-6.2,1.61,13.48,13.48,0,0,1-6.59-1.34v-3a15.9,15.9,0,0,0,3.28,1.22,13.7,13.7,0,0,0,3.38.45,7.67,7.67,0,0,0,3.88-.8,2.77,2.77,0,0,0,.28-4.57,16.93,16.93,0,0,0-4.19-2.08,22.71,22.71,0,0,1-4.21-1.93,5.76,5.76,0,0,1-1.86-1.87,4.88,4.88,0,0,1-.61-2.5,4.77,4.77,0,0,1,2.11-4.1,9.84,9.84,0,0,1,5.79-1.5,17,17,0,0,1,6.7,1.4l-1.14,2.62a15.39,15.39,0,0,0-5.79-1.32,6.67,6.67,0,0,0-3.45.72,2.22,2.22,0,0,0-1.16,2,2.41,2.41,0,0,0,.44,1.45,4.3,4.3,0,0,0,1.41,1.14A31.26,31.26,0,0,0,492.6,356a13.9,13.9,0,0,1,5.11,2.77A4.89,4.89,0,0,1,499,362.32Z"/><path class="cls-3" d="M513.23,368.5a9.76,9.76,0,0,1-7.43-2.87q-2.72-2.87-2.72-8a12.31,12.31,0,0,1,2.53-8.16,8.4,8.4,0,0,1,6.79-3,8,8,0,0,1,6.32,2.63A10.06,10.06,0,0,1,521,356v2H506.41a8.42,8.42,0,0,0,1.89,5.68,6.53,6.53,0,0,0,5,1.94,17.1,17.1,0,0,0,6.78-1.43v2.87a17,17,0,0,1-3.23,1.06A18.14,18.14,0,0,1,513.23,368.5Zm-.87-19.32a5.25,5.25,0,0,0-4.08,1.67,7.68,7.68,0,0,0-1.79,4.61h11.1a7.08,7.08,0,0,0-1.36-4.66A4.77,4.77,0,0,0,512.36,349.18Z"/><path class="cls-3" d="M536.21,346.49a12.61,12.61,0,0,1,2.54.23l-.45,3a10.94,10.94,0,0,0-2.32-.29,5.66,5.66,0,0,0-4.41,2.09,7.63,7.63,0,0,0-1.83,5.21v11.39h-3.22V346.88h2.65l.37,3.93h.15a9.33,9.33,0,0,1,2.85-3.2A6.41,6.41,0,0,1,536.21,346.49Z"/><path class="cls-3" d="M542.26,366.06a2.88,2.88,0,0,1,.59-2,2.14,2.14,0,0,1,1.7-.67,2.29,2.29,0,0,1,1.75.67,2.77,2.77,0,0,1,.63,2,2.71,2.71,0,0,1-.64,1.94,2.54,2.54,0,0,1-3.38.07A2.65,2.65,0,0,1,542.26,366.06Z"/><path class="cls-4" d="M220.52,456.63H476a16.56,16.56,0,0,1,16.56,16.56V669.06a0,0,0,0,1,0,0H204a0,0,0,0,1,0,0V473.19A16.56,16.56,0,0,1,220.52,456.63Z"/><rect class="cls-5" x="212.72" y="480.02" width="270.95" height="179.4"/><g id="Layer_2" data-name="Layer 2"><g id="Layer_1-2" data-name="Layer 1-2"><path class="cls-6" d="M313.12,604.13a8.6,8.6,0,0,0-11.23-4.65l-8,3.3-28-67.59a10.75,10.75,0,0,0,3.32-12.57l-5.44-13.12-19.85,8.24,5.44,13.12a10.75,10.75,0,0,0,11.24,6.53l28,67.59-7.94,3.3a8.6,8.6,0,0,0-4.69,11.2l3.38,6.9h41.33Z"/><polygon class="cls-6" points="448.33 629.72 448.33 526.05 452.27 526.05 452.27 513.44 357.34 513.44 357.34 526.05 361.63 526.05 361.74 535.89 350.35 536.09 350.35 629.72 231.96 629.72 231.96 633.3 469.11 633.3 469.11 629.72 448.33 629.72"/><circle class="cls-7" cx="255.18" cy="611.74" r="1.55" transform="translate(-366.27 842.27) rotate(-87.71)"/><line class="cls-8" x1="256.92" y1="600.42" x2="240.54" y2="594.24"/><line class="cls-8" x1="254.4" y1="577.04" x2="260.94" y2="584.65"/><line class="cls-8" x1="264.1" y1="588.32" x2="265.93" y2="590.45"/><circle class="cls-9" cx="301.86" cy="577.96" r="1.58" transform="matrix(0.55, -0.84, 0.84, 0.55, -346.98, 513.51)"/><line class="cls-8" x1="326.69" y1="567.98" x2="312.94" y2="585.01"/><line class="cls-8" x1="333.87" y1="590.13" x2="321.49" y2="594.49"/><line class="cls-10" x1="458.59" y1="626.38" x2="465.52" y2="626.38"/><polyline class="cls-10" points="228.37 626.38 346.77 626.64 346.77 532.5 363.86 532.28 363.86 544.13 380.97 544.13 380.97 532.28 398.06 532.28 398.06 544.13 415.16 544.13 415.16 532.28 432.62 532.5 432.62 626.38 450.71 626.38"/><rect class="cls-10" x="270.89" y="530.56" width="5.73" height="72.14" transform="translate(-196.22 148.14) rotate(-22.53)"/><rect class="cls-10" x="258.47" y="533.04" width="5.73" height="7.32" transform="translate(-185.7 141.1) rotate(-22.53)"/><rect class="cls-10" x="278.84" y="570.48" width="5.73" height="30.64" transform="translate(-202.96 152.65) rotate(-22.53)"/><path class="cls-10" d="M275.85,622.81l-3.42-6.93a8.6,8.6,0,0,1,4.65-11.23l21.21-8.76a8.6,8.6,0,0,1,11.23,4.65l7.64,22.27"/><path class="cls-10" d="M240.34,514.15l19.85-8.24h0L265.64,519a10.75,10.75,0,0,1-5.81,14h0a10.75,10.75,0,0,1-14-5.81l-5.44-13.12Z"/><rect class="cls-10" x="240.46" y="509.84" width="21.49" height="4.88" transform="translate(-177.12 135.35) rotate(-22.53)"/><rect class="cls-5" x="372.38" y="582.43" width="42.27" height="47.29"/><polyline class="cls-10" points="369.16 626.5 369.16 579.21 410.71 579.21 410.71 607.87"/><line class="cls-10" x1="410.71" y1="620.41" x2="410.71" y2="626.5"/><line class="cls-10" x1="410.71" y1="612.53" x2="410.71" y2="615.63"/><polyline class="cls-10" points="444.39 622.82 444.39 522.47 448.69 522.47 448.69 509.86 353.75 509.86 353.75 522.47 358.05 522.47 358.05 527.44"/><line class="cls-10" x1="439.01" y1="522.61" x2="363.78" y2="522.61"/></g></g><circle class="cls-5" cx="219.43" cy="468.55" r="4.3"/><circle class="cls-5" cx="231.95" cy="468.55" r="4.3"/><circle class="cls-5" cx="243.93" cy="468.55" r="4.3"/><path class="cls-3" d="M268.57,816.13a7.32,7.32,0,0,1-2.76,6q-2.76,2.21-7.68,2.21a18,18,0,0,1-8-1.71V817.1a33,33,0,0,0,4.85,1.8,14.37,14.37,0,0,0,3.63.52,5.16,5.16,0,0,0,3-.76,2.59,2.59,0,0,0,1.06-2.25,2.48,2.48,0,0,0-.46-1.48,5.2,5.2,0,0,0-1.37-1.25,35,35,0,0,0-3.67-1.92,17.43,17.43,0,0,1-3.89-2.34,8.8,8.8,0,0,1-2.07-2.62,7.46,7.46,0,0,1-.78-3.49,7.32,7.32,0,0,1,2.55-5.91,10.59,10.59,0,0,1,7-2.15,16.63,16.63,0,0,1,4.21.52,29,29,0,0,1,4.19,1.47l-1.94,4.67a28.27,28.27,0,0,0-3.75-1.3,12.08,12.08,0,0,0-2.92-.37,3.86,3.86,0,0,0-2.62.79,2.62,2.62,0,0,0-.91,2.07,2.57,2.57,0,0,0,.37,1.39,4.05,4.05,0,0,0,1.17,1.14,36.22,36.22,0,0,0,3.81,2,15.15,15.15,0,0,1,5.44,3.81A7.43,7.43,0,0,1,268.57,816.13Z"/><path class="cls-3" d="M282.37,819.68a12.81,12.81,0,0,0,3.72-.68v4.4a13.27,13.27,0,0,1-5.43,1q-3.55,0-5.16-1.79a7.8,7.8,0,0,1-1.62-5.38V806.78h-2.83v-2.5l3.25-2,1.71-4.57h3.78v4.61h6.06v4.44h-6.06v10.44a2.3,2.3,0,0,0,.71,1.86A2.78,2.78,0,0,0,282.37,819.68Z"/><path class="cls-3" d="M304.22,824l-1.14-2.95h-.15a8.73,8.73,0,0,1-3.07,2.61,9.93,9.93,0,0,1-4.12.73,6.66,6.66,0,0,1-4.91-1.78,6.84,6.84,0,0,1-1.79-5.08,5.72,5.72,0,0,1,2.41-5.09q2.41-1.64,7.27-1.81l3.76-.12v-.95q0-3.29-3.37-3.29a15.37,15.37,0,0,0-6.1,1.57l-2-4a17.61,17.61,0,0,1,8.29-2q4.36,0,6.68,1.9t2.32,5.77V824Zm-1.74-10-2.29.08a7.32,7.32,0,0,0-3.84.93,2.92,2.92,0,0,0-1.26,2.6q0,2.5,2.87,2.5a4.54,4.54,0,0,0,3.28-1.18,4.15,4.15,0,0,0,1.23-3.14Z"/><path class="cls-3" d="M326.52,801.93a9.53,9.53,0,0,1,2,.17l-.45,5.54a6.78,6.78,0,0,0-1.74-.19,6.27,6.27,0,0,0-4.41,1.45,5.25,5.25,0,0,0-1.58,4.07v11h-5.91V802.34h4.48l.87,3.64h.29a8.14,8.14,0,0,1,2.72-2.94A6.71,6.71,0,0,1,326.52,801.93Z"/><path class="cls-3" d="M341.58,819.68a12.81,12.81,0,0,0,3.72-.68v4.4a13.27,13.27,0,0,1-5.43,1q-3.55,0-5.16-1.79a7.8,7.8,0,0,1-1.62-5.38V806.78h-2.83v-2.5l3.25-2,1.71-4.57H339v4.61h6.06v4.44H339v10.44a2.3,2.3,0,0,0,.71,1.86A2.78,2.78,0,0,0,341.58,819.68Z"/><path class="cls-3" d="M380,824h-5.91V811.35q0-4.69-3.49-4.69a4,4,0,0,0-3.58,1.69q-1.1,1.69-1.1,5.46V824H360V793.85h5.91V800q0,.72-.14,3.37l-.13,1.74h.31a6.85,6.85,0,0,1,6.28-3.18A7.67,7.67,0,0,1,378,804a8.16,8.16,0,0,1,2,5.89Z"/><path class="cls-3" d="M395.87,824.39q-5.23,0-8.18-2.89t-2.95-8.18q0-5.44,2.72-8.42a9.69,9.69,0,0,1,7.53-3,9.54,9.54,0,0,1,7.15,2.62,9.9,9.9,0,0,1,2.56,7.23v2.87h-14a5.69,5.69,0,0,0,1.49,3.93,5.25,5.25,0,0,0,3.91,1.41,16.23,16.23,0,0,0,3.7-.41,18.54,18.54,0,0,0,3.64-1.3v4.57a13.89,13.89,0,0,1-3.31,1.15A20.89,20.89,0,0,1,395.87,824.39ZM395,806.14a3.75,3.75,0,0,0-2.95,1.19,5.52,5.52,0,0,0-1.22,3.38h8.29a4.93,4.93,0,0,0-1.14-3.38A3.87,3.87,0,0,0,395,806.14Z"/><path class="cls-3" d="M421.6,801.93a9.54,9.54,0,0,1,2,.17l-.45,5.54a6.79,6.79,0,0,0-1.74-.19,6.27,6.27,0,0,0-4.41,1.45,5.25,5.25,0,0,0-1.58,4.07v11h-5.91V802.34H414l.87,3.64h.29a8.14,8.14,0,0,1,2.72-2.94A6.71,6.71,0,0,1,421.6,801.93Z"/><path class="cls-3" d="M437.33,824.39q-5.23,0-8.18-2.89t-2.94-8.18q0-5.44,2.72-8.42a9.69,9.69,0,0,1,7.53-3,9.54,9.54,0,0,1,7.15,2.62,9.9,9.9,0,0,1,2.56,7.23v2.87h-14a5.69,5.69,0,0,0,1.49,3.93A5.25,5.25,0,0,0,437.6,820a16.24,16.24,0,0,0,3.7-.41,18.58,18.58,0,0,0,3.64-1.3v4.57a13.89,13.89,0,0,1-3.31,1.15A20.89,20.89,0,0,1,437.33,824.39Zm-.83-18.25a3.75,3.75,0,0,0-2.95,1.19,5.52,5.52,0,0,0-1.22,3.38h8.29a4.93,4.93,0,0,0-1.14-3.38A3.87,3.87,0,0,0,436.5,806.14Z"/><path class="cls-3" d="M450.14,821.23a3.25,3.25,0,0,1,.87-2.46,3.53,3.53,0,0,1,2.54-.83,3.43,3.43,0,0,1,2.49.85,3.76,3.76,0,0,1,0,4.85,3.38,3.38,0,0,1-2.48.88,3.48,3.48,0,0,1-2.52-.86A3.23,3.23,0,0,1,450.14,821.23Zm5.79-6.63H451.2l-1-18.93h6.7Z"/></svg>