<?xml version="1.0" encoding="utf-8"?>
<!-- Generator: Adobe Illustrator 20.1.0, SVG Export Plug-In . SVG Version: 6.00 Build 0)  -->
<svg version="1.1" xmlns="http://www.w3.org/2000/svg" xmlns:xlink="http://www.w3.org/1999/xlink" x="0px" y="0px"
	 viewBox="0 0 696.7 870.1" style="enable-background:new 0 0 696.7 870.1;" xml:space="preserve">
<style type="text/css">
	.st0{fill:#E7E9F6;}
	.st1{fill:#FFD500;}
	.st2{fill:#1D1D1B;}
	.st3{fill:#8B9FD1;}
	.st4{fill:#FFFFFF;}
	.st5{fill:#F1F3F7;}
	.st6{fill:#FED601;}
	.st7{fill:none;stroke:#FED601;stroke-width:3;stroke-linecap:round;stroke-linejoin:round;}
	.st8{fill:#FED601;stroke:#FED601;stroke-miterlimit:10;}
	.st9{fill:none;stroke:#4256A2;stroke-width:3;stroke-linecap:round;stroke-linejoin:round;}
</style>
<g id="Layer_2_1_">
</g>
<g id="Layer_1">
	<title>Install01</title>
	<path class="st0" d="M34.4-0.3H663c18.8,0,34,15.2,34,34v802.1c0,18.8-15.2,34-34,34H34.4c-18.8,0-34-15.2-34-34V33.7
		C0.3,14.9,15.6-0.3,34.4-0.3z"/>
	<path class="st1" d="M0.3,752.6H697l0,0v84c0,18.8-15.2,34-34,34H34.3c-18.8,0-34-15.2-34-34L0.3,752.6L0.3,752.6L0.3,752.6z"/>
	<path class="st2" d="M74.5,103.8h-5.2V64.1h-14v-4.6h33.2v4.6h-14L74.5,103.8z"/>
	<path class="st2" d="M109.5,70c1.3,0,2.7,0.1,4,0.4l-0.7,4.7c-1.2-0.3-2.4-0.4-3.6-0.4c-2.7,0-5.2,1.2-6.9,3.3
		c-2,2.3-3,5.2-2.9,8.2v17.8h-5V70.6h4.2l0.6,6.2h0.2c1.1-2,2.6-3.7,4.4-5C105.5,70.6,107.5,70,109.5,70z"/>
	<path class="st2" d="M114.4,70.6h5.4l7.3,18.9c1.2,3,2.2,6.2,3,9.3h0.2c0.3-1,0.8-2.8,1.6-5.3s3.6-10.2,8.2-23h5.4l-14.3,37.8
		c-1.4,3.7-3.1,6.4-4.9,7.9c-2,1.6-4.4,2.4-6.9,2.3c-1.5,0-3.1-0.2-4.5-0.5v-4c1.2,0.3,2.5,0.4,3.7,0.4c3.5,0,5.9-1.9,7.4-5.8
		l1.8-4.7L114.4,70.6z"/>
	<path class="st2" d="M186.8,63.5c-4.9,0-8.7,1.6-11.5,4.9c-2.8,3.2-4.2,7.7-4.2,13.3c0,5.8,1.4,10.3,4.1,13.4
		c2.7,3.2,6.6,4.7,11.6,4.7c3.6-0.1,7.1-0.6,10.6-1.7v4.5c-3.7,1.2-7.5,1.8-11.4,1.7c-6.5,0-11.6-2-15.1-5.9
		c-3.5-4-5.3-9.6-5.3-16.9c-0.1-4.1,0.8-8.3,2.6-12c1.6-3.3,4.2-6.1,7.4-7.9c3.5-1.9,7.4-2.9,11.4-2.8c4.2-0.1,8.4,0.8,12.2,2.6
		l-2.2,4.4C193.7,64.4,190.2,63.6,186.8,63.5z"/>
	<path class="st2" d="M234.8,87.2c0,5.4-1.4,9.6-4.1,12.7c-2.7,3-6.5,4.6-11.3,4.6c-2.8,0-5.5-0.7-7.9-2.1c-2.3-1.4-4.2-3.5-5.3-6
		c-1.3-2.9-2-6-1.9-9.1c0-5.4,1.4-9.6,4.1-12.6s6.5-4.5,11.3-4.6c4.7,0,8.4,1.5,11.1,4.6C233.4,77.7,234.8,81.9,234.8,87.2z
		 M209.5,87.2c0,4.2,0.8,7.5,2.5,9.7c1.7,2.2,4.2,3.3,7.5,3.3c3.3,0,5.8-1.1,7.5-3.3s2.6-5.4,2.6-9.7c0-4.2-0.9-7.4-2.6-9.6
		c-1.7-2.2-4.2-3.3-7.6-3.3c-3.3,0-5.8,1.1-7.4,3.2C210.4,79.7,209.5,82.9,209.5,87.2z"/>
	<path class="st2" d="M285.9,103.8V82.2c0-2.7-0.6-4.7-1.7-5.9c-1.1-1.3-2.9-2-5.3-2c-3.1,0-5.4,0.9-6.9,2.7s-2.2,4.6-2.2,8.3v18.5
		h-5V82.2c0-2.7-0.6-4.7-1.7-5.9c-1.1-1.3-2.9-2-5.3-2c-3.1,0-5.5,0.9-6.9,2.8c-1.5,1.9-2.2,5-2.2,9.3v17.4h-5V70.6h4.1l0.8,4.5h0.2
		c0.9-1.6,2.3-2.9,4-3.8c1.8-0.9,3.8-1.4,5.8-1.4c5.2,0,8.6,1.9,10.2,5.6h0.2c1-1.8,2.5-3.2,4.3-4.1c2-1,4.2-1.6,6.4-1.5
		c3.8,0,6.6,1,8.4,2.9s2.8,5,2.8,9.2v21.7L285.9,103.8z"/>
	<path class="st2" d="M316.7,104.4c-2,0-4.1-0.4-5.9-1.2c-1.8-0.8-3.4-2.1-4.5-3.7h-0.4c0.2,1.8,0.4,3.7,0.4,5.5v13.7h-5V70.6h4.1
		l0.7,4.5h0.2c1.1-1.7,2.7-3,4.5-3.9c1.9-0.8,3.9-1.2,5.9-1.2c4.4,0,7.8,1.5,10.2,4.5s3.6,7.2,3.6,12.7c0,5.4-1.2,9.7-3.6,12.7
		C324.4,102.9,320.6,104.6,316.7,104.4z M316,74.3c-3.4,0-5.8,0.9-7.4,2.8c-1.5,1.9-2.3,4.9-2.3,9v1.1c0,4.7,0.8,8,2.3,10
		c1.6,2,4,3,7.5,3c2.7,0.1,5.2-1.2,6.7-3.5c1.6-2.3,2.4-5.5,2.4-9.6s-0.8-7.3-2.4-9.5C321.3,75.4,318.7,74.2,316,74.3z"/>
	<path class="st2" d="M367.9,87.2c0,5.4-1.4,9.6-4.1,12.7s-6.5,4.6-11.3,4.6c-2.8,0-5.5-0.7-7.9-2.1c-2.3-1.4-4.2-3.5-5.3-6
		c-1.3-2.9-2-6-1.9-9.1c0-5.4,1.4-9.6,4.1-12.6s6.5-4.5,11.3-4.6c4.7,0,8.4,1.5,11.1,4.6C366.5,77.7,367.9,81.9,367.9,87.2z
		 M342.6,87.2c0,4.2,0.8,7.5,2.5,9.7c1.7,2.2,4.2,3.3,7.5,3.3s5.8-1.1,7.5-3.3s2.6-5.4,2.6-9.7c0-4.2-0.9-7.4-2.6-9.6
		s-4.2-3.3-7.5-3.3c-3.3,0-5.8,1.1-7.5,3.2C343.5,79.7,342.6,82.9,342.6,87.2z"/>
	<path class="st2" d="M398.1,94.8c0.1,2.8-1.2,5.5-3.5,7.1c-2.3,1.7-5.5,2.5-9.7,2.5c-4.4,0-7.8-0.7-10.3-2.1v-4.7
		c1.6,0.8,3.4,1.5,5.1,1.9c1.7,0.5,3.5,0.7,5.3,0.7c2.1,0.1,4.2-0.3,6.1-1.3c2.1-1.2,2.7-3.9,1.5-5.9c-0.3-0.5-0.6-0.9-1.1-1.2
		c-2-1.4-4.3-2.5-6.6-3.2c-2.3-0.8-4.5-1.8-6.6-3c-1.2-0.7-2.2-1.7-2.9-2.9c-0.7-1.2-1-2.5-1-3.9c-0.1-2.6,1.2-5,3.3-6.4
		c2.3-1.6,5.3-2.4,9.2-2.4c3.6,0,7.2,0.7,10.5,2.2l-1.8,4.1c-2.9-1.3-5.9-2-9-2.1c-1.9-0.1-3.7,0.3-5.4,1.1
		c-1.1,0.6-1.8,1.8-1.8,3.1c0,0.8,0.2,1.6,0.7,2.3c0.6,0.7,1.3,1.4,2.2,1.8c1.9,1,3.8,1.8,5.8,2.5c3.9,1.4,6.6,2.9,8,4.3
		C397.4,90.8,398.2,92.8,398.1,94.8z"/>
	<path class="st2" d="M420.3,104.4c-4.9,0-8.8-1.5-11.6-4.5c-2.8-3-4.2-7.1-4.2-12.4c0-5.3,1.3-9.6,4-12.8c2.6-3.1,6.5-4.9,10.5-4.8
		c3.7-0.2,7.4,1.3,9.9,4.1c2.4,2.7,3.6,6.3,3.6,10.8v3.2h-22.8c0.1,3.9,1.1,6.9,3,8.9c1.9,2,4.5,3,7.9,3c3.6,0,7.3-0.8,10.6-2.2v4.5
		c-1.6,0.7-3.3,1.3-5,1.7C424.2,104.3,422.3,104.4,420.3,104.4z M419,74.3c-2.4-0.1-4.7,0.8-6.4,2.6c-1.7,2-2.7,4.6-2.8,7.2h17.4
		c0-3.2-0.7-5.6-2.1-7.3C423.5,75,421.3,74.1,419,74.3L419,74.3z"/>
	<path class="st2" d="M456.2,70c1.3,0,2.7,0.1,4,0.4l-0.7,4.7c-1.2-0.3-2.4-0.4-3.6-0.4c-2.7,0-5.2,1.2-6.9,3.3
		c-1.9,2.2-3,5.1-2.9,8.1v17.8h-5V70.6h4.1l0.6,6.2h0.2c1.1-2,2.6-3.7,4.5-5C452.1,70.6,454.2,70,456.2,70z"/>
	<path class="st2" d="M482.1,61.7c-0.1-0.9,0.2-1.8,0.9-2.5c1.2-1.1,3-1.1,4.2,0c0.6,0.7,1,1.6,0.9,2.5c0.1,0.9-0.2,1.8-0.9,2.5
		c-1.2,1.1-3,1.1-4.2,0C482.3,63.5,482,62.6,482.1,61.7z M487.5,103.8h-5V70.6h5V103.8z"/>
	<path class="st2" d="M520.9,103.8V82.4c0-2.7-0.6-4.7-1.8-6.1s-3.2-2-5.8-2c-3.5,0-6,0.9-7.6,2.8c-1.6,1.9-2.4,5-2.4,9.3v17.4h-5
		V70.6h4.1l0.8,4.5h0.2c1.1-1.7,2.6-3,4.3-3.8c1.9-0.9,4-1.4,6.2-1.4c4,0,7,1,9,2.9s3,5,3,9.2v21.7L520.9,103.8z"/>
	<path class="st2" d="M563,100.3c1.5,0,3.1-0.2,4.5-0.6v3.8c-0.8,0.3-1.6,0.5-2.4,0.7c-0.9,0.2-1.9,0.2-2.9,0.3
		c-6.4,0-9.6-3.4-9.6-10.1V74.6h-4.8v-2.4l4.8-2.1l2.1-7h2.9v7.7h9.6v3.9h-9.6v19.5c-0.1,1.7,0.4,3.3,1.4,4.6
		C560.1,99.8,561.6,100.3,563,100.3z"/>
	<path class="st2" d="M596.9,103.8V82.4c0-2.7-0.6-4.7-1.8-6.1c-1.2-1.3-3.2-2-5.8-2c-3.5,0-6,1-7.6,2.8c-1.6,1.9-2.4,5-2.4,9.3
		v17.3h-5V56.7h5V71c0,1.4-0.1,2.9-0.2,4.3h0.3c1-1.6,2.5-2.9,4.2-3.8c1.9-0.9,4.1-1.4,6.2-1.4c4.1,0,7.1,1,9.1,2.9s3,5,3,9.2v21.7
		L596.9,103.8z"/>
	<path class="st2" d="M626.3,104.4c-4.9,0-8.8-1.5-11.6-4.5c-2.8-3-4.2-7.1-4.2-12.4c0-5.3,1.3-9.6,4-12.8c2.6-3.1,6.5-4.9,10.6-4.8
		c3.7-0.2,7.4,1.3,9.9,4.1c2.4,2.7,3.6,6.3,3.6,10.8v3.2h-22.9c0.1,3.9,1.1,6.9,3,8.9s4.5,3,7.9,3c3.6,0,7.3-0.8,10.6-2.2v4.5
		c-1.6,0.7-3.3,1.3-5,1.7C630.2,104.3,628.3,104.4,626.3,104.4z M624.9,74.3c-2.4-0.1-4.7,0.8-6.4,2.6c-1.7,2-2.7,4.6-2.8,7.2h17.3
		c0-3.2-0.7-5.6-2.1-7.3C629.5,75,627.2,74.1,624.9,74.3L624.9,74.3z"/>
	<path class="st2" d="M119.5,161.6c0,5.4-1.4,9.6-4.1,12.7c-2.7,3-6.5,4.6-11.3,4.6c-2.8,0-5.5-0.7-7.9-2.1c-2.3-1.4-4.2-3.5-5.3-6
		c-1.3-2.9-2-6-1.9-9.1c0-5.4,1.4-9.6,4.1-12.6c2.7-3,6.5-4.5,11.3-4.5c4.7,0,8.4,1.5,11.1,4.6S119.5,156.3,119.5,161.6z
		 M94.2,161.6c0,4.2,0.8,7.5,2.5,9.7c1.7,2.2,4.2,3.3,7.5,3.3c3.3,0,5.8-1.1,7.5-3.3s2.6-5.4,2.6-9.7c0-4.2-0.9-7.4-2.6-9.6
		c-1.7-2.2-4.2-3.3-7.6-3.3c-3.3,0-5.8,1.1-7.4,3.2C95.1,154.1,94.2,157.3,94.2,161.6z"/>
	<path class="st2" d="M151,178.2v-21.5c0-2.7-0.6-4.7-1.9-6.1s-3.2-2-5.8-2c-3.5,0-6,0.9-7.6,2.8s-2.4,5-2.4,9.3v17.4h-5V145h4.1
		l0.8,4.5h0.2c1.1-1.7,2.6-3,4.3-3.8c1.9-0.9,4.1-1.4,6.2-1.4c4,0,7,1,9,2.9s3,5,3,9.2v21.6L151,178.2z"/>
	<path class="st2" d="M171.4,178.2h-5v-47.1h5V178.2z"/>
	<path class="st2" d="M181.6,136.1c-0.1-0.9,0.2-1.8,0.9-2.5c1.2-1.1,3-1.1,4.2,0c0.6,0.7,1,1.6,0.9,2.5c0.1,0.9-0.2,1.8-0.9,2.5
		c-0.6,0.5-1.3,0.8-2.1,0.8c-0.8,0-1.6-0.3-2.1-0.8C181.9,137.9,181.6,137,181.6,136.1z M187.1,178.2h-5V145h5V178.2z"/>
	<path class="st2" d="M220.5,178.2v-21.5c0-2.7-0.6-4.7-1.9-6.1s-3.2-2-5.8-2c-3.5,0-6,0.9-7.6,2.8c-1.6,1.9-2.4,5-2.4,9.3v17.4h-5
		V145h4.1l0.8,4.5h0.2c1.1-1.7,2.6-3,4.3-3.8c1.9-0.9,4.1-1.4,6.2-1.4c4,0,7,1,9,2.9s3,5,3,9.2v21.6L220.5,178.2z"/>
	<path class="st2" d="M249.8,178.8c-4.9,0-8.8-1.5-11.6-4.5c-2.8-3-4.2-7.1-4.2-12.5c0-5.3,1.3-9.6,4-12.8c2.6-3.1,6.5-4.9,10.6-4.7
		c3.7-0.2,7.4,1.3,9.9,4.1c2.4,2.7,3.6,6.3,3.6,10.8v3.2h-22.9c0.1,3.9,1.1,6.8,3,8.9c1.9,2,4.5,3,7.9,3c3.6,0,7.3-0.8,10.6-2.2v4.5
		c-1.6,0.7-3.3,1.3-5,1.6C253.7,178.7,251.8,178.9,249.8,178.8z M248.5,148.7c-2.4-0.1-4.7,0.8-6.4,2.6c-1.7,2-2.7,4.6-2.8,7.2h17.3
		c0-3.2-0.7-5.6-2.1-7.3C253,149.4,250.8,148.5,248.5,148.7L248.5,148.7z"/>
	<path class="st2" d="M315.5,146.9c0,4.5-1.5,7.9-4.6,10.3s-7.4,3.6-13.1,3.6h-5.2v17.4h-5.1V134h11.5
		C310,134,315.5,138.3,315.5,146.9z M292.6,156.4h4.6c4.6,0,7.9-0.7,9.9-2.2c2-1.5,3.1-3.8,3.1-7.1c0-2.9-1-5.1-2.9-6.5
		c-1.9-1.4-4.9-2.1-9-2.1h-5.7L292.6,156.4z"/>
	<path class="st2" d="M329,178.2h-5v-47.1h5V178.2z"/>
	<path class="st2" d="M360.1,178.2l-1-4.7h-0.2c-1.3,1.8-3,3.2-5,4.2c-2,0.8-4.1,1.2-6.2,1.1c-3.3,0-5.9-0.8-7.7-2.5
		c-1.9-1.9-3-4.5-2.8-7.2c0-6.7,5.4-10.2,16.1-10.5l5.6-0.2v-2.1c0-2.6-0.6-4.5-1.7-5.8s-2.9-1.9-5.4-1.9c-3.3,0.1-6.5,1-9.4,2.5
		l-1.4-3.8c1.7-0.9,3.5-1.6,5.4-2.1c1.9-0.5,3.9-0.8,5.9-0.8c4,0,6.9,0.9,8.8,2.6c1.9,1.8,2.9,4.6,2.9,8.4v22.6L360.1,178.2z
		 M348.8,174.7c2.7,0.2,5.4-0.8,7.4-2.6c1.9-1.9,2.8-4.5,2.7-7.2v-3l-5,0.2c-4,0.1-6.9,0.8-8.6,1.9c-1.8,1.1-2.8,3.1-2.6,5.1
		c-0.1,1.6,0.5,3.1,1.6,4.1C345.5,174.3,347.1,174.8,348.8,174.7L348.8,174.7z"/>
	<path class="st2" d="M368.9,145h5.4l7.3,19c1.2,3,2.2,6.2,3,9.4h0.2c0.3-1,0.8-2.8,1.6-5.3s3.6-10.2,8.2-23h5.3l-14.3,37.8
		c-1.4,3.7-3.1,6.4-5,7.9c-2,1.6-4.4,2.4-7,2.4c-1.5,0-3.1-0.2-4.5-0.5v-4c1.2,0.3,2.5,0.4,3.7,0.4c3.5,0,5.9-1.9,7.4-5.8l1.9-4.7
		L368.9,145z"/>
	<path class="st2" d="M432.6,145v3.2l-6.1,0.7c1.4,1.9,2.2,4.2,2.2,6.6c0.1,3-1.1,5.8-3.3,7.8c-2.2,1.9-5.3,2.9-9.1,2.9
		c-0.9,0-1.9-0.1-2.8-0.2c-2.1,1.1-3.2,2.6-3.2,4.3c0,0.8,0.4,1.6,1.1,2c1.2,0.5,2.5,0.7,3.8,0.6h5.9c3.6,0,6.4,0.8,8.3,2.3
		c2,1.6,3,4.1,2.9,6.6c0.1,3.4-1.5,6.6-4.4,8.4c-2.9,1.9-7.2,2.9-12.9,2.9c-4.3,0-7.7-0.8-10-2.4c-2.3-1.5-3.6-4.1-3.5-6.8
		c0-1.9,0.7-3.8,1.9-5.2c1.4-1.6,3.4-2.6,5.5-3c-0.9-0.4-1.6-1-2.1-1.8c-0.6-0.8-0.9-1.8-0.9-2.8c0-1.1,0.3-2.3,1-3.2
		c0.8-1.1,1.9-2,3.1-2.6c-1.7-0.7-3.2-2-4.2-3.6c-1.1-1.7-1.7-3.8-1.6-5.8c0-3.6,1.1-6.4,3.3-8.4s5.3-3,9.3-3c1.6,0,3.2,0.2,4.7,0.6
		L432.6,145z M406.1,183.8c-0.1,1.7,0.8,3.3,2.3,4.1c2,1,4.3,1.5,6.5,1.4c4.2,0,7.3-0.6,9.4-1.9c1.9-1,3-3,3-5.1
		c0-1.8-0.6-3-1.7-3.7c-1.1-0.7-3.2-1-6.3-1h-6c-1.9-0.1-3.8,0.5-5.3,1.6C406.7,180.3,406,182,406.1,183.8L406.1,183.8z
		 M408.9,155.6c-0.1,2,0.6,3.9,2,5.3c1.5,1.3,3.5,1.9,5.5,1.8c4.9,0,7.4-2.4,7.4-7.1c0-5-2.5-7.5-7.5-7.5c-2-0.1-4,0.6-5.5,1.9
		C409.4,151.5,408.7,153.6,408.9,155.6L408.9,155.6z"/>
	<path class="st2" d="M454.5,144.4c1.3,0,2.7,0.1,4,0.4l-0.7,4.7c-1.2-0.3-2.4-0.4-3.6-0.4c-2.7,0-5.2,1.2-6.9,3.3
		c-1.9,2.3-3,5.2-2.9,8.1v17.8h-5V145h4.1l0.6,6.1h0.2c1.1-2,2.6-3.7,4.5-5C450.6,145,452.5,144.4,454.5,144.4z"/>
	<path class="st2" d="M493.4,161.6c0,5.4-1.4,9.6-4.1,12.7c-2.7,3-6.5,4.6-11.3,4.6c-2.8,0-5.5-0.7-7.9-2.1c-2.3-1.4-4.2-3.5-5.3-6
		c-1.3-2.9-2-6-1.9-9.1c0-5.4,1.4-9.6,4.1-12.6c2.7-3,6.5-4.5,11.3-4.5c4.7,0,8.4,1.5,11.1,4.6S493.3,156.3,493.4,161.6z
		 M468.1,161.6c0,4.2,0.8,7.5,2.5,9.7c1.7,2.2,4.2,3.3,7.5,3.3c3.3,0,5.8-1.1,7.5-3.3c1.7-2.2,2.6-5.4,2.6-9.7
		c0-4.2-0.9-7.4-2.6-9.6c-1.7-2.2-4.2-3.3-7.6-3.3c-3.3,0-5.8,1.1-7.5,3.2C468.9,154.1,468,157.3,468.1,161.6z"/>
	<path class="st2" d="M506.9,145v21.5c0,2.7,0.6,4.7,1.9,6.1s3.2,2,5.8,2c3.5,0,6-1,7.6-2.9c1.6-1.9,2.4-5,2.4-9.3V145h5v33.2h-4.2
		l-0.7-4.4h-0.3c-1,1.6-2.5,2.9-4.3,3.8c-2,0.9-4.1,1.3-6.2,1.3c-4,0-7.1-1-9.1-2.9c-2-1.9-3-5-3-9.2V145H506.9z"/>
	<path class="st2" d="M562.9,178.2v-21.5c0-2.7-0.6-4.7-1.8-6.1c-1.2-1.3-3.2-2-5.8-2c-3.5,0-6,0.9-7.6,2.8c-1.6,1.9-2.4,5-2.4,9.3
		v17.4h-5V145h4.1l0.8,4.5h0.2c1.1-1.7,2.6-3,4.3-3.8c1.9-0.9,4.1-1.4,6.2-1.4c4,0,7,1,9,2.9s3,5,3,9.2v21.6L562.9,178.2z"/>
	<path class="st2" d="M600.8,173.8h-0.3c-2.3,3.4-5.8,5.1-10.4,5.1c-4.3,0-7.7-1.5-10.1-4.4s-3.6-7.2-3.6-12.6s1.2-9.7,3.6-12.8
		c2.5-3,6.2-4.7,10.1-4.5c4.5,0,7.9,1.6,10.3,4.9h0.4l-0.2-2.4l-0.1-2.3v-13.5h5v47.1h-4.1L600.8,173.8z M590.8,174.6
		c3.4,0,5.9-0.9,7.5-2.8c1.5-1.9,2.3-4.9,2.3-9v-1.1c0-4.7-0.8-8.1-2.3-10.1s-4.1-3-7.5-3c-2.7-0.1-5.3,1.2-6.8,3.4
		c-1.6,2.3-2.3,5.5-2.3,9.7c0,4.2,0.8,7.4,2.3,9.6C585.5,173.6,588.1,174.8,590.8,174.6L590.8,174.6z"/>
	<path class="st3" d="M220.5,456.6H476c9.1,0,16.6,7.4,16.6,16.6v195.9l0,0H204l0,0V473.2C204,464.1,211.4,456.7,220.5,456.6z"/>
	<rect x="212.7" y="480" class="st4" width="271" height="179.4"/>
	<g id="Layer_2">
		<g id="Layer_1-2">
			<path class="st5" d="M313.1,604.1c-1.8-4.4-6.8-6.5-11.2-4.7l-8,3.3l-28-67.6c3.8-3,5.2-8.1,3.3-12.6l-5.4-13.1l-19.9,8.2
				l5.4,13.1c1.9,4.5,6.5,7.1,11.2,6.5l28,67.6l-7.9,3.3c-4.4,1.8-6.5,6.8-4.7,11.2l3.4,6.9h41.3L313.1,604.1z"/>
			<polygon class="st5" points="448.3,629.7 448.3,526.1 452.3,526.1 452.3,513.4 357.3,513.4 357.3,526.1 361.6,526.1 361.7,535.9 
				350.4,536.1 350.4,629.7 232,629.7 232,633.3 469.1,633.3 469.1,629.7 			"/>
			
				<ellipse transform="matrix(3.995742e-02 -0.9992 0.9992 3.995742e-02 -366.2674 842.268)" class="st6" cx="255.2" cy="611.7" rx="1.5" ry="1.5"/>
			<line class="st7" x1="256.9" y1="600.4" x2="240.5" y2="594.2"/>
			<line class="st7" x1="254.4" y1="577" x2="260.9" y2="584.7"/>
			<line class="st7" x1="264.1" y1="588.3" x2="265.9" y2="590.5"/>
			
				<ellipse transform="matrix(0.5478 -0.8366 0.8366 0.5478 -345.7073 516.0759)" class="st8" cx="304.5" cy="577.8" rx="1.6" ry="1.6"/>
			<line class="st7" x1="326.7" y1="568" x2="312.9" y2="585"/>
			<line class="st7" x1="333.9" y1="590.1" x2="321.5" y2="594.5"/>
			<line class="st9" x1="458.6" y1="626.4" x2="465.5" y2="626.4"/>
			<polyline class="st9" points="228.4,626.4 346.8,626.6 346.8,532.5 363.9,532.3 363.9,544.1 381,544.1 381,532.3 398.1,532.3 
				398.1,544.1 415.2,544.1 415.2,532.3 432.6,532.5 432.6,626.4 450.7,626.4 			"/>
			
				<rect x="270.9" y="530.6" transform="matrix(0.9237 -0.3832 0.3832 0.9237 -196.2209 148.14)" class="st9" width="5.7" height="72.1"/>
			
				<rect x="258.5" y="533" transform="matrix(0.9237 -0.3832 0.3832 0.9237 -185.7018 141.0969)" class="st9" width="5.7" height="7.3"/>
			
				<rect x="278.8" y="570.5" transform="matrix(0.9237 -0.3832 0.3832 0.9237 -202.9598 152.6488)" class="st9" width="5.7" height="30.6"/>
			<path class="st9" d="M275.9,622.8l-3.4-6.9c-1.8-4.4,0.3-9.4,4.6-11.2l21.2-8.8c4.4-1.8,9.4,0.3,11.2,4.7l7.6,22.3"/>
			<path class="st9" d="M240.3,514.2l19.9-8.2l0,0l5.5,13.1c2.2,5.5-0.4,11.7-5.8,14l0,0c-5.5,2.2-11.7-0.4-14-5.8L240.3,514.2
				L240.3,514.2z"/>
			
				<rect x="240.5" y="509.8" transform="matrix(0.9237 -0.3832 0.3832 0.9237 -177.1165 135.3499)" class="st9" width="21.5" height="4.9"/>
			<rect x="372.4" y="582.4" class="st4" width="42.3" height="47.3"/>
			<polyline class="st9" points="369.2,626.5 369.2,579.2 410.7,579.2 410.7,607.9 			"/>
			<line class="st9" x1="410.7" y1="620.4" x2="410.7" y2="626.5"/>
			<line class="st9" x1="410.7" y1="612.5" x2="410.7" y2="615.6"/>
			<polyline class="st9" points="444.4,622.8 444.4,522.5 448.7,522.5 448.7,509.9 353.8,509.9 353.8,522.5 358,522.5 358,527.4 			
				"/>
			<line class="st9" x1="439" y1="522.6" x2="363.8" y2="522.6"/>
		</g>
	</g>
	<circle class="st4" cx="219.4" cy="468.6" r="4.3"/>
	<circle class="st4" cx="231.9" cy="468.6" r="4.3"/>
	<circle class="st4" cx="243.9" cy="468.6" r="4.3"/>
	<path class="st2" d="M268.6,816.1c0.1,2.3-0.9,4.6-2.8,6c-1.8,1.5-4.4,2.2-7.7,2.2c-2.8,0.1-5.5-0.5-8-1.7v-5.5
		c1.6,0.7,3.2,1.3,4.9,1.8c1.2,0.3,2.4,0.5,3.6,0.5c1.1,0.1,2.1-0.2,3-0.8c0.7-0.5,1.1-1.4,1.1-2.2c0-0.5-0.2-1-0.5-1.5
		c-0.4-0.5-0.8-0.9-1.4-1.2c-1.2-0.7-2.4-1.4-3.7-1.9c-1.4-0.6-2.7-1.4-3.9-2.3c-0.9-0.7-1.6-1.6-2.1-2.6c-0.5-1.1-0.8-2.3-0.8-3.5
		c-0.1-2.3,0.8-4.4,2.6-5.9c2-1.5,4.5-2.3,7-2.2c1.4,0,2.8,0.2,4.2,0.5c1.4,0.4,2.8,0.9,4.2,1.5l-1.9,4.7c-1.2-0.5-2.5-1-3.8-1.3
		c-1-0.2-1.9-0.4-2.9-0.4c-0.9-0.1-1.9,0.2-2.6,0.8c-0.6,0.5-0.9,1.3-0.9,2.1c0,0.5,0.1,1,0.4,1.4c0.3,0.5,0.7,0.8,1.2,1.1
		c1.2,0.7,2.5,1.4,3.8,2c2.1,0.9,3.9,2.2,5.4,3.8C268.1,812.8,268.6,814.4,268.6,816.1z"/>
	<path class="st2" d="M282.4,819.7c1.3,0,2.5-0.3,3.7-0.7v4.4c-1.7,0.7-3.6,1.1-5.4,1c-2.4,0-4.1-0.6-5.2-1.8
		c-1.2-1.5-1.8-3.4-1.6-5.4v-10.5h-2.8v-2.5l3.2-2l1.7-4.6h3.8v4.6h6.1v4.4h-6.1v10.4c-0.1,0.7,0.2,1.4,0.7,1.9
		C281,819.5,281.7,819.7,282.4,819.7z"/>
	<path class="st2" d="M304.2,824l-1.1-3h-0.1c-0.8,1.1-1.9,2-3.1,2.6c-1.3,0.5-2.7,0.8-4.1,0.7c-1.8,0.1-3.6-0.5-4.9-1.8
		c-1.3-1.4-1.9-3.2-1.8-5.1c-0.1-2,0.8-3.9,2.4-5.1c1.6-1.1,4-1.7,7.3-1.8l3.8-0.1v-1c0-2.2-1.1-3.3-3.4-3.3
		c-2.1,0.1-4.2,0.6-6.1,1.6l-2-4c2.6-1.3,5.4-2,8.3-2c2.9,0,5.1,0.6,6.7,1.9c1.5,1.3,2.3,3.2,2.3,5.8V824H304.2z M302.5,814
		l-2.3,0.1c-1.3,0-2.7,0.3-3.8,0.9c-0.8,0.6-1.3,1.6-1.3,2.6c0,1.7,1,2.5,2.9,2.5c1.2,0.1,2.4-0.4,3.3-1.2c0.8-0.8,1.3-2,1.2-3.1
		L302.5,814z"/>
	<path class="st2" d="M326.5,801.9c0.7,0,1.3,0,2,0.2l-0.5,5.5c-0.6-0.1-1.2-0.2-1.7-0.2c-1.6-0.1-3.2,0.4-4.4,1.5
		c-1.1,1.1-1.7,2.5-1.6,4.1v11h-5.9v-21.6h4.5l0.9,3.6h0.3c0.6-1.2,1.6-2.2,2.7-2.9C323.9,802.3,325.2,801.9,326.5,801.9z"/>
	<path class="st2" d="M341.6,819.7c1.3,0,2.5-0.3,3.7-0.7v4.4c-1.7,0.7-3.6,1.1-5.4,1c-2.4,0-4.1-0.6-5.2-1.8
		c-1.2-1.5-1.8-3.4-1.6-5.4v-10.5h-2.8v-2.5l3.2-2l1.7-4.6h3.8v4.6h6.1v4.4H339v10.4c-0.1,0.7,0.2,1.4,0.7,1.9
		C340.2,819.5,340.9,819.7,341.6,819.7z"/>
	<path class="st2" d="M380,824h-5.9v-12.7c0-3.1-1.2-4.7-3.5-4.7c-1.4-0.1-2.8,0.5-3.6,1.7c-0.7,1.1-1.1,2.9-1.1,5.5V824H360v-30.2
		h5.9v6.2c0,0.5,0,1.6-0.1,3.4l-0.1,1.7h0.3c1.3-2.1,3.8-3.4,6.3-3.2c2.1-0.1,4.2,0.6,5.8,2.1c1.4,1.6,2.1,3.7,2,5.9V824z"/>
	<path class="st2" d="M395.9,824.4c-3.5,0-6.2-1-8.2-2.9s-3-4.7-3-8.2c0-3.6,0.9-6.4,2.7-8.4c2-2.1,4.7-3.1,7.5-3
		c2.6-0.2,5.2,0.8,7.1,2.6c1.8,2,2.7,4.6,2.6,7.2v2.9h-14c0,1.5,0.5,2.9,1.5,3.9c1.1,1,2.5,1.5,3.9,1.4c1.2,0,2.5-0.1,3.7-0.4
		c1.3-0.3,2.5-0.7,3.6-1.3v4.6c-1.1,0.5-2.2,0.9-3.3,1.2C398.7,824.3,397.3,824.4,395.9,824.4z M395,806.1c-1.1-0.1-2.2,0.4-3,1.2
		c-0.8,1-1.2,2.1-1.2,3.4h8.3c0.1-1.2-0.4-2.4-1.1-3.4C397.2,806.5,396.1,806.1,395,806.1z"/>
	<path class="st2" d="M421.6,801.9c0.7,0,1.3,0,2,0.2l-0.5,5.5c-0.6-0.1-1.2-0.2-1.7-0.2c-1.6-0.1-3.2,0.4-4.4,1.5
		c-1.1,1.1-1.7,2.5-1.6,4.1v11h-5.9v-21.6h4.5l0.9,3.6h0.3c0.6-1.2,1.6-2.2,2.7-2.9C419,802.3,420.3,801.9,421.6,801.9z"/>
	<path class="st2" d="M437.3,824.4c-3.5,0-6.2-1-8.2-2.9c-2-1.9-2.9-4.7-2.9-8.2c0-3.6,0.9-6.4,2.7-8.4c2-2.1,4.7-3.1,7.5-3
		c2.6-0.2,5.2,0.8,7.1,2.6c1.8,2,2.7,4.6,2.6,7.2v2.9h-14c0,1.5,0.5,2.9,1.5,3.9c1.1,1,2.5,1.5,3.9,1.5c1.2,0,2.5-0.1,3.7-0.4
		c1.3-0.3,2.5-0.7,3.6-1.3v4.6c-1.1,0.5-2.2,0.9-3.3,1.2C440.2,824.3,438.8,824.4,437.3,824.4z M436.5,806.1c-1.1-0.1-2.2,0.4-3,1.2
		c-0.8,1-1.2,2.1-1.2,3.4h8.3c0.1-1.2-0.4-2.4-1.1-3.4C438.7,806.5,437.6,806.1,436.5,806.1z"/>
	<path class="st2" d="M450.1,821.2c-0.1-0.9,0.2-1.8,0.9-2.5c0.7-0.6,1.6-0.9,2.5-0.8c0.9-0.1,1.8,0.2,2.5,0.8
		c1.2,1.4,1.2,3.4,0,4.8c-0.7,0.6-1.6,0.9-2.5,0.9c-0.9,0.1-1.8-0.3-2.5-0.9C450.4,823,450.1,822.1,450.1,821.2z M455.9,814.6h-4.7
		l-1-18.9h6.7L455.9,814.6z"/>
	<g>
		<path d="M151.2,271.4h-3.3v-25.8h-9.1v-3h21.6v3h-9.1V271.4z"/>
		<path d="M174,249.4c1,0,1.8,0.1,2.6,0.2l-0.5,3c-0.9-0.2-1.7-0.3-2.4-0.3c-1.7,0-3.2,0.7-4.5,2.1c-1.2,1.4-1.9,3.2-1.9,5.3v11.6
			h-3.3v-21.6h2.7l0.4,4h0.2c0.8-1.4,1.8-2.5,2.9-3.2S172.7,249.4,174,249.4z"/>
		<path d="M177.2,249.8h3.5l4.7,12.3c1,2.8,1.7,4.8,1.9,6.1h0.2c0.2-0.7,0.5-1.8,1.1-3.4c0.5-1.6,2.3-6.6,5.3-15h3.5l-9.3,24.6
			c-0.9,2.4-2,4.2-3.2,5.2s-2.7,1.5-4.5,1.5c-1,0-2-0.1-3-0.3v-2.6c0.7,0.2,1.5,0.2,2.4,0.2c2.2,0,3.8-1.3,4.8-3.8l1.2-3.1
			L177.2,249.8z"/>
		<path d="M221.5,249.4c2.8,0,5,1,6.6,2.9c1.6,1.9,2.4,4.7,2.4,8.2c0,3.5-0.8,6.3-2.4,8.3c-1.6,2-3.8,2.9-6.6,2.9
			c-1.4,0-2.7-0.3-3.8-0.8c-1.2-0.5-2.1-1.3-2.9-2.4h-0.2l-0.7,2.8h-2.3v-30.6h3.3v7.4c0,1.7-0.1,3.2-0.2,4.5h0.2
			C216.2,250.5,218.5,249.4,221.5,249.4z M221,252.2c-2.2,0-3.8,0.6-4.8,1.9c-1,1.3-1.5,3.4-1.5,6.5c0,3,0.5,5.2,1.5,6.5
			c1,1.3,2.6,2,4.9,2c2,0,3.5-0.7,4.5-2.2s1.5-3.6,1.5-6.3c0-2.8-0.5-4.9-1.5-6.3C224.6,252.9,223.1,252.2,221,252.2z"/>
		<path d="M245.3,271.8c-3.2,0-5.7-1-7.5-2.9c-1.8-1.9-2.8-4.6-2.8-8.1c0-3.5,0.9-6.2,2.6-8.3c1.7-2,4-3.1,6.9-3.1
			c2.7,0,4.8,0.9,6.4,2.7c1.6,1.8,2.4,4.1,2.4,7v2.1h-14.9c0.1,2.5,0.7,4.5,1.9,5.8c1.2,1.3,2.9,2,5.1,2c2.3,0,4.6-0.5,6.9-1.5v2.9
			c-1.2,0.5-2.2,0.9-3.3,1.1S246.7,271.8,245.3,271.8z M244.4,252.1c-1.7,0-3.1,0.6-4.1,1.7s-1.6,2.7-1.8,4.7h11.3
			c0-2.1-0.5-3.6-1.4-4.7C247.4,252.7,246.1,252.1,244.4,252.1z"/>
		<path d="M268.5,252.3H263v19h-3.3v-19h-3.9v-1.5l3.9-1.2v-1.2c0-5.3,2.3-8,6.9-8c1.1,0,2.5,0.2,4,0.7l-0.8,2.6
			c-1.3-0.4-2.3-0.6-3.2-0.6c-1.2,0-2.1,0.4-2.7,1.2s-0.9,2.1-0.9,3.9v1.4h5.5V252.3z"/>
		<path d="M291,260.6c0,3.5-0.9,6.3-2.7,8.2c-1.8,2-4.2,3-7.3,3c-1.9,0-3.6-0.5-5.1-1.4s-2.7-2.2-3.5-3.9s-1.2-3.7-1.2-5.9
			c0-3.5,0.9-6.3,2.6-8.2c1.8-2,4.2-2.9,7.3-2.9c3,0,5.4,1,7.2,3C290.2,254.4,291,257.1,291,260.6z M274.6,260.6
			c0,2.8,0.6,4.9,1.7,6.3c1.1,1.4,2.7,2.2,4.9,2.2c2.1,0,3.8-0.7,4.9-2.2c1.1-1.4,1.7-3.5,1.7-6.3c0-2.7-0.6-4.8-1.7-6.3
			c-1.1-1.4-2.7-2.1-4.9-2.1c-2.1,0-3.8,0.7-4.8,2.1C275.2,255.7,274.6,257.8,274.6,260.6z"/>
		<path d="M306.6,249.4c1,0,1.8,0.1,2.6,0.2l-0.5,3c-0.9-0.2-1.7-0.3-2.4-0.3c-1.7,0-3.2,0.7-4.5,2.1c-1.2,1.4-1.9,3.2-1.9,5.3v11.6
			h-3.3v-21.6h2.7l0.4,4h0.2c0.8-1.4,1.8-2.5,2.9-3.2C304,249.8,305.3,249.4,306.6,249.4z"/>
		<path d="M322.3,271.8c-3.2,0-5.7-1-7.5-2.9c-1.8-1.9-2.8-4.6-2.8-8.1c0-3.5,0.9-6.2,2.6-8.3c1.7-2,4-3.1,6.9-3.1
			c2.7,0,4.8,0.9,6.4,2.7c1.6,1.8,2.4,4.1,2.4,7v2.1h-14.9c0.1,2.5,0.7,4.5,1.9,5.8c1.2,1.3,2.9,2,5.1,2c2.3,0,4.6-0.5,6.9-1.5v2.9
			c-1.2,0.5-2.2,0.9-3.3,1.1S323.8,271.8,322.3,271.8z M321.5,252.1c-1.7,0-3.1,0.6-4.1,1.7s-1.6,2.7-1.8,4.7h11.3
			c0-2.1-0.5-3.6-1.4-4.7C324.5,252.7,323.2,252.1,321.5,252.1z"/>
		<path d="M342.9,249.8h3.5l4.7,12.3c1,2.8,1.7,4.8,1.9,6.1h0.2c0.2-0.7,0.5-1.8,1.1-3.4c0.5-1.6,2.3-6.6,5.3-15h3.5l-9.3,24.6
			c-0.9,2.4-2,4.2-3.2,5.2c-1.2,1-2.7,1.5-4.5,1.5c-1,0-2-0.1-3-0.3v-2.6c0.7,0.2,1.5,0.2,2.4,0.2c2.2,0,3.8-1.3,4.8-3.8l1.2-3.1
			L342.9,249.8z"/>
		<path d="M385.3,260.6c0,3.5-0.9,6.3-2.7,8.2c-1.8,2-4.2,3-7.3,3c-1.9,0-3.6-0.5-5.1-1.4s-2.7-2.2-3.5-3.9s-1.2-3.7-1.2-5.9
			c0-3.5,0.9-6.3,2.6-8.2c1.8-2,4.2-2.9,7.3-2.9c3,0,5.4,1,7.2,3C384.4,254.4,385.3,257.1,385.3,260.6z M368.8,260.6
			c0,2.8,0.6,4.9,1.7,6.3c1.1,1.4,2.7,2.2,4.9,2.2s3.8-0.7,4.9-2.2c1.1-1.4,1.7-3.5,1.7-6.3c0-2.7-0.6-4.8-1.7-6.3
			c-1.1-1.4-2.7-2.1-4.9-2.1c-2.1,0-3.8,0.7-4.8,2.1C369.4,255.7,368.8,257.8,368.8,260.6z"/>
		<path d="M394.1,249.8v14c0,1.8,0.4,3.1,1.2,3.9s2.1,1.3,3.8,1.3c2.3,0,3.9-0.6,5-1.9c1-1.2,1.6-3.2,1.6-6v-11.3h3.3v21.6h-2.7
			l-0.5-2.9h-0.2c-0.7,1.1-1.6,1.9-2.8,2.4c-1.2,0.6-2.5,0.8-4.1,0.8c-2.6,0-4.6-0.6-5.9-1.9c-1.3-1.2-2-3.2-2-6v-14.1H394.1z"/>
		<path d="M425.9,243.9c0-0.7,0.2-1.3,0.6-1.6c0.4-0.3,0.8-0.5,1.4-0.5c0.5,0,1,0.2,1.4,0.5c0.4,0.4,0.6,0.9,0.6,1.6
			s-0.2,1.3-0.6,1.6c-0.4,0.4-0.8,0.5-1.4,0.5c-0.6,0-1-0.2-1.4-0.5C426.1,245.2,425.9,244.7,425.9,243.9z M429.5,271.4h-3.3v-21.6
			h3.3V271.4z"/>
		<path d="M451.2,271.4v-14c0-1.8-0.4-3.1-1.2-3.9c-0.8-0.9-2.1-1.3-3.8-1.3c-2.3,0-3.9,0.6-5,1.8c-1,1.2-1.6,3.2-1.6,6v11.3h-3.3
			v-21.6h2.7l0.5,3h0.2c0.7-1.1,1.6-1.9,2.8-2.5c1.2-0.6,2.6-0.9,4-0.9c2.6,0,4.6,0.6,5.9,1.9s2,3.3,2,6v14.1H451.2z"/>
		<path d="M475.1,265.5c0,2-0.7,3.6-2.2,4.6c-1.5,1.1-3.6,1.6-6.3,1.6c-2.9,0-5.1-0.5-6.7-1.4v-3c1,0.5,2.1,0.9,3.3,1.2
			c1.2,0.3,2.3,0.5,3.4,0.5c1.7,0,3-0.3,3.9-0.8c0.9-0.5,1.4-1.4,1.4-2.5c0-0.8-0.4-1.6-1.1-2.2c-0.7-0.6-2.1-1.3-4.3-2.1
			c-2-0.7-3.4-1.4-4.3-2c-0.8-0.6-1.5-1.2-1.9-1.9c-0.4-0.7-0.6-1.6-0.6-2.5c0-1.8,0.7-3.1,2.1-4.2s3.4-1.5,5.9-1.5
			c2.3,0,4.6,0.5,6.8,1.4l-1.2,2.7c-2.2-0.9-4.1-1.3-5.9-1.3c-1.5,0-2.7,0.2-3.5,0.7c-0.8,0.5-1.2,1.2-1.2,2c0,0.6,0.1,1.1,0.4,1.5
			c0.3,0.4,0.8,0.8,1.4,1.2c0.7,0.4,1.9,0.9,3.8,1.6c2.6,0.9,4.3,1.9,5.2,2.8S475.1,264.1,475.1,265.5z"/>
		<path d="M487.4,269.1c0.6,0,1.1,0,1.7-0.1c0.5-0.1,1-0.2,1.3-0.3v2.5c-0.4,0.2-0.9,0.3-1.6,0.4c-0.7,0.1-1.3,0.2-1.9,0.2
			c-4.2,0-6.3-2.2-6.3-6.6v-12.8h-3.1v-1.6l3.1-1.4l1.4-4.6h1.9v5h6.3v2.5h-6.3V265c0,1.3,0.3,2.3,0.9,3
			C485.4,268.7,486.3,269.1,487.4,269.1z"/>
		<path d="M507.9,271.4l-0.6-3.1h-0.2c-1.1,1.4-2.1,2.3-3.2,2.7c-1.1,0.5-2.4,0.7-4,0.7c-2.1,0-3.8-0.6-5-1.7
			c-1.2-1.1-1.8-2.7-1.8-4.7c0-4.4,3.5-6.6,10.5-6.9l3.7-0.1v-1.3c0-1.7-0.4-2.9-1.1-3.8c-0.7-0.8-1.9-1.2-3.5-1.2
			c-1.8,0-3.8,0.6-6.1,1.7l-1-2.5c1.1-0.6,2.2-1,3.5-1.4s2.5-0.5,3.8-0.5c2.6,0,4.5,0.6,5.7,1.7c1.2,1.1,1.9,3,1.9,5.5v14.7H507.9z
			 M500.5,269.1c2,0,3.6-0.6,4.8-1.7c1.2-1.1,1.7-2.7,1.7-4.7v-1.9l-3.3,0.1c-2.6,0.1-4.5,0.5-5.6,1.2c-1.1,0.7-1.7,1.8-1.7,3.3
			c0,1.2,0.4,2.1,1.1,2.7C498.2,268.8,499.2,269.1,500.5,269.1z"/>
		<path d="M520.3,271.4h-3.3v-30.6h3.3V271.4z"/>
		<path d="M530.5,271.4h-3.3v-30.6h3.3V271.4z"/>
		<path d="M546.1,262.1v-3h9.7v3H546.1z"/>
		<path d="M87.4,297.8c1,0,1.8,0.1,2.6,0.2l-0.5,3c-0.9-0.2-1.7-0.3-2.4-0.3c-1.7,0-3.2,0.7-4.5,2.1s-1.9,3.2-1.9,5.3v11.6h-3.3
			v-21.6h2.7l0.4,4h0.2c0.8-1.4,1.8-2.5,2.9-3.2C84.9,298.2,86.1,297.8,87.4,297.8z"/>
		<path d="M103.2,320.1c-3.2,0-5.7-1-7.5-2.9c-1.8-1.9-2.8-4.6-2.8-8.1c0-3.5,0.9-6.2,2.6-8.3s4-3.1,6.9-3.1c2.7,0,4.8,0.9,6.4,2.7
			c1.6,1.8,2.4,4.1,2.4,7v2.1H96.2c0.1,2.5,0.7,4.5,1.9,5.8c1.2,1.3,2.9,2,5.1,2c2.3,0,4.6-0.5,6.9-1.5v2.9
			c-1.2,0.5-2.2,0.9-3.3,1.1C105.9,320,104.6,320.1,103.2,320.1z M102.3,300.5c-1.7,0-3.1,0.6-4.1,1.7c-1,1.1-1.6,2.7-1.8,4.7h11.3
			c0-2.1-0.5-3.6-1.4-4.7S104,300.5,102.3,300.5z"/>
		<path d="M124.3,320.1c-2.8,0-5-1-6.5-2.9c-1.6-2-2.3-4.7-2.3-8.2c0-3.5,0.8-6.3,2.4-8.3c1.6-2,3.8-3,6.6-3c3,0,5.2,1.1,6.8,3.3
			h0.2l0.5-3h2.6v31.3h-3.3v-9.2c0-1.3,0.1-2.4,0.2-3.3h-0.3C129.6,319,127.4,320.1,124.3,320.1z M124.8,317.4
			c2.2,0,3.8-0.6,4.8-1.8c1-1.2,1.5-3.1,1.6-5.9V309c0-3-0.5-5.2-1.5-6.5c-1-1.3-2.6-2-4.9-2c-1.9,0-3.4,0.7-4.4,2.2
			s-1.5,3.6-1.5,6.3s0.5,4.8,1.5,6.2C121.4,316.7,122.9,317.4,124.8,317.4z"/>
		<path d="M144.5,298.2v14c0,1.8,0.4,3.1,1.2,3.9s2.1,1.3,3.8,1.3c2.3,0,3.9-0.6,5-1.9s1.6-3.2,1.6-6v-11.3h3.3v21.6h-2.7l-0.5-2.9
			h-0.2c-0.7,1.1-1.6,1.9-2.8,2.4c-1.2,0.6-2.5,0.8-4.1,0.8c-2.6,0-4.6-0.6-5.9-1.9c-1.3-1.2-2-3.2-2-6v-14.1H144.5z"/>
		<path d="M165.9,292.3c0-0.7,0.2-1.3,0.6-1.6c0.4-0.3,0.8-0.5,1.4-0.5c0.5,0,1,0.2,1.4,0.5s0.6,0.9,0.6,1.6s-0.2,1.3-0.6,1.6
			c-0.4,0.4-0.8,0.5-1.4,0.5c-0.6,0-1-0.2-1.4-0.5C166,293.6,165.9,293.1,165.9,292.3z M169.4,319.8h-3.3v-21.6h3.3V319.8z"/>
		<path d="M186.2,297.8c1,0,1.8,0.1,2.6,0.2l-0.5,3c-0.9-0.2-1.7-0.3-2.4-0.3c-1.7,0-3.2,0.7-4.5,2.1s-1.9,3.2-1.9,5.3v11.6h-3.3
			v-21.6h2.7l0.4,4h0.2c0.8-1.4,1.8-2.5,2.9-3.2S184.8,297.8,186.2,297.8z"/>
		<path d="M201.9,320.1c-3.2,0-5.7-1-7.5-2.9c-1.8-1.9-2.8-4.6-2.8-8.1c0-3.5,0.9-6.2,2.6-8.3c1.7-2,4-3.1,6.9-3.1
			c2.7,0,4.8,0.9,6.4,2.7c1.6,1.8,2.4,4.1,2.4,7v2.1H195c0.1,2.5,0.7,4.5,1.9,5.8c1.2,1.3,2.9,2,5.1,2c2.3,0,4.6-0.5,6.9-1.5v2.9
			c-1.2,0.5-2.2,0.9-3.3,1.1C204.6,320,203.4,320.1,201.9,320.1z M201,300.5c-1.7,0-3.1,0.6-4.1,1.7c-1,1.1-1.6,2.7-1.8,4.7h11.3
			c0-2.1-0.5-3.6-1.4-4.7S202.7,300.5,201,300.5z"/>
		<path d="M229.3,313.9c0,2-0.7,3.6-2.2,4.6c-1.5,1.1-3.6,1.6-6.3,1.6c-2.9,0-5.1-0.5-6.7-1.4v-3c1,0.5,2.1,0.9,3.3,1.2
			c1.2,0.3,2.3,0.5,3.4,0.5c1.7,0,3-0.3,3.9-0.8c0.9-0.5,1.4-1.4,1.4-2.5c0-0.8-0.4-1.6-1.1-2.2s-2.1-1.3-4.3-2.1
			c-2-0.7-3.4-1.4-4.3-2s-1.5-1.2-1.9-1.9c-0.4-0.7-0.6-1.6-0.6-2.5c0-1.8,0.7-3.1,2.1-4.2s3.4-1.5,5.9-1.5c2.3,0,4.6,0.5,6.8,1.4
			l-1.2,2.7c-2.2-0.9-4.1-1.3-5.9-1.3c-1.5,0-2.7,0.2-3.5,0.7c-0.8,0.5-1.2,1.2-1.2,2c0,0.6,0.1,1.1,0.4,1.5s0.8,0.8,1.4,1.2
			c0.7,0.4,1.9,0.9,3.8,1.6c2.6,0.9,4.3,1.9,5.2,2.8C228.9,311.2,229.3,312.4,229.3,313.9z"/>
		<path d="M258.4,319.8l-0.6-3.1h-0.2c-1.1,1.4-2.1,2.3-3.2,2.7c-1.1,0.5-2.4,0.7-4,0.7c-2.1,0-3.8-0.6-5-1.7
			c-1.2-1.1-1.8-2.7-1.8-4.7c0-4.4,3.5-6.6,10.5-6.9l3.7-0.1v-1.3c0-1.7-0.4-2.9-1.1-3.8c-0.7-0.8-1.9-1.2-3.5-1.2
			c-1.8,0-3.8,0.6-6.1,1.7l-1-2.5c1.1-0.6,2.2-1,3.5-1.4s2.5-0.5,3.8-0.5c2.6,0,4.5,0.6,5.7,1.7c1.2,1.1,1.9,3,1.9,5.5v14.7H258.4z
			 M251,317.4c2,0,3.6-0.6,4.8-1.7c1.2-1.1,1.7-2.7,1.7-4.7v-1.9l-3.3,0.1c-2.6,0.1-4.5,0.5-5.6,1.2c-1.1,0.7-1.7,1.8-1.7,3.3
			c0,1.2,0.4,2.1,1.1,2.7S249.7,317.4,251,317.4z"/>
		<path d="M305.5,319.8v-14c0-1.7-0.4-3-1.1-3.9c-0.7-0.9-1.9-1.3-3.4-1.3c-2,0-3.5,0.6-4.5,1.8c-1,1.2-1.5,3-1.5,5.4v12h-3.3v-14
			c0-1.7-0.4-3-1.1-3.9c-0.7-0.9-1.9-1.3-3.4-1.3c-2,0-3.5,0.6-4.5,1.8c-1,1.2-1.4,3.2-1.4,6v11.3H278v-21.6h2.7l0.5,3h0.2
			c0.6-1,1.5-1.9,2.6-2.5c1.1-0.6,2.4-0.9,3.8-0.9c3.4,0,5.6,1.2,6.6,3.7h0.2c0.6-1.1,1.6-2,2.8-2.7c1.2-0.7,2.6-1,4.2-1
			c2.4,0,4.3,0.6,5.5,1.9s1.8,3.3,1.8,6v14.1H305.5z"/>
		<path d="M334.1,308.9c0,3.5-0.9,6.3-2.7,8.2c-1.8,2-4.2,3-7.3,3c-1.9,0-3.6-0.5-5.1-1.4c-1.5-0.9-2.7-2.2-3.5-3.9
			s-1.2-3.7-1.2-5.9c0-3.5,0.9-6.3,2.6-8.2c1.8-2,4.2-2.9,7.3-2.9c3,0,5.4,1,7.2,3C333.3,302.8,334.1,305.5,334.1,308.9z
			 M317.7,308.9c0,2.8,0.6,4.9,1.7,6.3c1.1,1.4,2.7,2.2,4.9,2.2c2.1,0,3.8-0.7,4.9-2.2c1.1-1.4,1.7-3.5,1.7-6.3
			c0-2.7-0.6-4.8-1.7-6.3c-1.1-1.4-2.7-2.1-4.9-2.1c-2.1,0-3.8,0.7-4.8,2.1S317.7,306.2,317.7,308.9z"/>
		<path d="M354.6,316.9h-0.2c-1.5,2.2-3.8,3.3-6.8,3.3c-2.8,0-5-1-6.6-2.9c-1.6-1.9-2.4-4.7-2.4-8.2s0.8-6.3,2.4-8.3
			c1.6-2,3.8-3,6.6-3c2.9,0,5.2,1.1,6.7,3.2h0.3l-0.1-1.6l-0.1-1.5v-8.8h3.3v30.6H355L354.6,316.9z M348,317.4
			c2.2,0,3.8-0.6,4.9-1.8c1-1.2,1.5-3.2,1.5-5.9V309c0-3.1-0.5-5.2-1.5-6.5c-1-1.3-2.6-2-4.9-2c-1.9,0-3.4,0.7-4.4,2.2
			s-1.5,3.6-1.5,6.3c0,2.8,0.5,4.8,1.5,6.2S346.1,317.4,348,317.4z"/>
		<path d="M373.7,320.1c-3.2,0-5.7-1-7.5-2.9c-1.8-1.9-2.8-4.6-2.8-8.1c0-3.5,0.9-6.2,2.6-8.3c1.7-2,4-3.1,6.9-3.1
			c2.7,0,4.8,0.9,6.4,2.7c1.6,1.8,2.4,4.1,2.4,7v2.1h-14.9c0.1,2.5,0.7,4.5,1.9,5.8c1.2,1.3,2.9,2,5.1,2c2.3,0,4.6-0.5,6.9-1.5v2.9
			c-1.2,0.5-2.2,0.9-3.3,1.1C376.4,320,375.1,320.1,373.7,320.1z M372.8,300.5c-1.7,0-3.1,0.6-4.1,1.7c-1,1.1-1.6,2.7-1.8,4.7h11.3
			c0-2.1-0.5-3.6-1.4-4.7C375.8,301.1,374.5,300.5,372.8,300.5z"/>
		<path d="M397,297.8c1,0,1.8,0.1,2.6,0.2l-0.5,3c-0.9-0.2-1.7-0.3-2.4-0.3c-1.7,0-3.2,0.7-4.5,2.1c-1.2,1.4-1.9,3.2-1.9,5.3v11.6
			h-3.3v-21.6h2.7l0.4,4h0.2c0.8-1.4,1.8-2.5,2.9-3.2C394.4,298.2,395.7,297.8,397,297.8z"/>
		<path d="M418.4,319.8v-14c0-1.8-0.4-3.1-1.2-3.9c-0.8-0.9-2.1-1.3-3.8-1.3c-2.3,0-3.9,0.6-5,1.8s-1.6,3.2-1.6,6v11.3h-3.3v-21.6
			h2.7l0.5,3h0.2c0.7-1.1,1.6-1.9,2.8-2.5s2.6-0.9,4-0.9c2.6,0,4.6,0.6,5.9,1.9c1.3,1.3,2,3.3,2,6v14.1H418.4z"/>
		<path d="M443.6,319.8l-8.2-21.6h3.5l4.6,12.8c1,3,1.7,4.9,1.9,5.8h0.2c0.1-0.7,0.6-2.1,1.4-4.3c0.8-2.2,2.5-7,5.2-14.3h3.5
			l-8.2,21.6H443.6z"/>
		<path d="M468.2,320.1c-3.2,0-5.7-1-7.5-2.9c-1.8-1.9-2.8-4.6-2.8-8.1c0-3.5,0.9-6.2,2.6-8.3c1.7-2,4-3.1,6.9-3.1
			c2.7,0,4.8,0.9,6.4,2.7c1.6,1.8,2.4,4.1,2.4,7v2.1h-14.9c0.1,2.5,0.7,4.5,1.9,5.8c1.2,1.3,2.9,2,5.1,2c2.3,0,4.6-0.5,6.9-1.5v2.9
			c-1.2,0.5-2.2,0.9-3.3,1.1C470.9,320,469.6,320.1,468.2,320.1z M467.3,300.5c-1.7,0-3.1,0.6-4.1,1.7c-1,1.1-1.6,2.7-1.8,4.7h11.3
			c0-2.1-0.5-3.6-1.4-4.7C470.3,301.1,469,300.5,467.3,300.5z"/>
		<path d="M491.5,297.8c1,0,1.8,0.1,2.6,0.2l-0.5,3c-0.9-0.2-1.7-0.3-2.4-0.3c-1.7,0-3.2,0.7-4.5,2.1c-1.2,1.4-1.9,3.2-1.9,5.3v11.6
			h-3.3v-21.6h2.7l0.4,4h0.2c0.8-1.4,1.8-2.5,2.9-3.2S490.2,297.8,491.5,297.8z"/>
		<path d="M512.1,313.9c0,2-0.7,3.6-2.2,4.6c-1.5,1.1-3.6,1.6-6.3,1.6c-2.9,0-5.1-0.5-6.7-1.4v-3c1,0.5,2.1,0.9,3.3,1.2
			c1.2,0.3,2.3,0.5,3.4,0.5c1.7,0,3-0.3,3.9-0.8c0.9-0.5,1.4-1.4,1.4-2.5c0-0.8-0.4-1.6-1.1-2.2c-0.7-0.6-2.1-1.3-4.3-2.1
			c-2-0.7-3.4-1.4-4.3-2c-0.8-0.6-1.5-1.2-1.9-1.9c-0.4-0.7-0.6-1.6-0.6-2.5c0-1.8,0.7-3.1,2.1-4.2s3.4-1.5,5.9-1.5
			c2.3,0,4.6,0.5,6.8,1.4l-1.2,2.7c-2.2-0.9-4.1-1.3-5.9-1.3c-1.5,0-2.7,0.2-3.5,0.7c-0.8,0.5-1.2,1.2-1.2,2c0,0.6,0.1,1.1,0.4,1.5
			c0.3,0.4,0.8,0.8,1.4,1.2c0.7,0.4,1.9,0.9,3.8,1.6c2.6,0.9,4.3,1.9,5.2,2.8S512.1,312.4,512.1,313.9z"/>
		<path d="M517.1,292.3c0-0.7,0.2-1.3,0.6-1.6c0.4-0.3,0.8-0.5,1.4-0.5c0.5,0,1,0.2,1.4,0.5s0.6,0.9,0.6,1.6s-0.2,1.3-0.6,1.6
			c-0.4,0.4-0.8,0.5-1.4,0.5c-0.6,0-1-0.2-1.4-0.5C517.3,293.6,517.1,293.1,517.1,292.3z M520.7,319.8h-3.3v-21.6h3.3V319.8z"/>
		<path d="M546.2,308.9c0,3.5-0.9,6.3-2.7,8.2c-1.8,2-4.2,3-7.3,3c-1.9,0-3.6-0.5-5.1-1.4c-1.5-0.9-2.7-2.2-3.5-3.9
			s-1.2-3.7-1.2-5.9c0-3.5,0.9-6.3,2.6-8.2c1.8-2,4.2-2.9,7.3-2.9c3,0,5.4,1,7.2,3S546.2,305.5,546.2,308.9z M529.8,308.9
			c0,2.8,0.6,4.9,1.7,6.3c1.1,1.4,2.7,2.2,4.9,2.2s3.8-0.7,4.9-2.2c1.1-1.4,1.7-3.5,1.7-6.3c0-2.7-0.6-4.8-1.7-6.3
			c-1.1-1.4-2.7-2.1-4.9-2.1c-2.1,0-3.8,0.7-4.8,2.1S529.8,306.2,529.8,308.9z"/>
		<path d="M566.7,319.8v-14c0-1.8-0.4-3.1-1.2-3.9s-2.1-1.3-3.8-1.3c-2.3,0-3.9,0.6-5,1.8c-1,1.2-1.6,3.2-1.6,6v11.3h-3.3v-21.6h2.7
			l0.5,3h0.2c0.7-1.1,1.6-1.9,2.8-2.5c1.2-0.6,2.6-0.9,4-0.9c2.6,0,4.6,0.6,5.9,1.9s2,3.3,2,6v14.1H566.7z"/>
		<path d="M605.8,308.9c0,3.5-0.9,6.3-2.7,8.2c-1.8,2-4.2,3-7.3,3c-1.9,0-3.6-0.5-5.1-1.4c-1.5-0.9-2.7-2.2-3.5-3.9
			s-1.2-3.7-1.2-5.9c0-3.5,0.9-6.3,2.6-8.2c1.8-2,4.2-2.9,7.3-2.9c3,0,5.4,1,7.2,3S605.8,305.5,605.8,308.9z M589.3,308.9
			c0,2.8,0.6,4.9,1.7,6.3c1.1,1.4,2.7,2.2,4.9,2.2s3.8-0.7,4.9-2.2c1.1-1.4,1.7-3.5,1.7-6.3c0-2.7-0.6-4.8-1.7-6.3
			c-1.1-1.4-2.7-2.1-4.9-2.1c-2.1,0-3.8,0.7-4.8,2.1S589.3,306.2,589.3,308.9z"/>
		<path d="M621.2,300.7h-5.5v19h-3.3v-19h-3.9v-1.5l3.9-1.2v-1.2c0-5.3,2.3-8,6.9-8c1.1,0,2.5,0.2,4,0.7l-0.8,2.6
			c-1.3-0.4-2.3-0.6-3.2-0.6c-1.2,0-2.1,0.4-2.7,1.2c-0.6,0.8-0.9,2.1-0.9,3.9v1.4h5.5V300.7z"/>
		<path d="M124,341.9c-3.2,0-5.7,1.1-7.5,3.2c-1.8,2.1-2.7,5-2.7,8.7c0,3.8,0.9,6.7,2.6,8.7s4.3,3.1,7.5,3.1c2,0,4.3-0.4,6.9-1.1
			v2.9c-2,0.7-4.5,1.1-7.4,1.1c-4.2,0-7.5-1.3-9.8-3.9c-2.3-2.6-3.5-6.2-3.5-11c0-3,0.6-5.6,1.7-7.8c1.1-2.2,2.7-4,4.8-5.2
			c2.1-1.2,4.6-1.8,7.4-1.8c3,0,5.7,0.6,7.9,1.7l-1.4,2.9C128.3,342.4,126.1,341.9,124,341.9z"/>
		<path d="M151.3,368.1v-14c0-1.8-0.4-3.1-1.2-3.9c-0.8-0.9-2.1-1.3-3.8-1.3c-2.3,0-3.9,0.6-5,1.9s-1.6,3.3-1.6,6.1v11.3h-3.3v-30.6
			h3.3v9.3c0,1.1-0.1,2-0.2,2.8h0.2c0.6-1,1.6-1.9,2.7-2.5c1.2-0.6,2.5-0.9,4.1-0.9c2.6,0,4.6,0.6,5.9,1.9c1.3,1.3,2,3.2,2,6v14.1
			H151.3z"/>
		<path d="M171.2,346.2c1,0,1.8,0.1,2.6,0.2l-0.5,3c-0.9-0.2-1.7-0.3-2.4-0.3c-1.7,0-3.2,0.7-4.5,2.1s-1.9,3.2-1.9,5.3v11.6h-3.3
			v-21.6h2.7l0.4,4h0.2c0.8-1.4,1.8-2.5,2.9-3.2S169.8,346.2,171.2,346.2z"/>
		<path d="M196.4,357.3c0,3.5-0.9,6.3-2.7,8.2c-1.8,2-4.2,3-7.3,3c-1.9,0-3.6-0.5-5.1-1.4c-1.5-0.9-2.7-2.2-3.5-3.9
			s-1.2-3.7-1.2-5.9c0-3.5,0.9-6.3,2.6-8.2c1.8-2,4.2-2.9,7.3-2.9c3,0,5.4,1,7.2,3S196.4,353.9,196.4,357.3z M180,357.3
			c0,2.8,0.6,4.9,1.7,6.3s2.7,2.2,4.9,2.2s3.8-0.7,4.9-2.2s1.7-3.5,1.7-6.3c0-2.7-0.6-4.8-1.7-6.3s-2.7-2.1-4.9-2.1
			c-2.1,0-3.8,0.7-4.8,2.1C180.5,352.4,180,354.5,180,357.3z"/>
		<path d="M229.6,368.1v-14c0-1.7-0.4-3-1.1-3.9c-0.7-0.9-1.9-1.3-3.4-1.3c-2,0-3.5,0.6-4.5,1.8c-1,1.2-1.5,3-1.5,5.4v12h-3.3v-14
			c0-1.7-0.4-3-1.1-3.9c-0.7-0.9-1.9-1.3-3.4-1.3c-2,0-3.5,0.6-4.5,1.8s-1.4,3.2-1.4,6v11.3h-3.3v-21.6h2.7l0.5,3h0.2
			c0.6-1,1.5-1.9,2.6-2.5s2.4-0.9,3.8-0.9c3.4,0,5.6,1.2,6.6,3.7h0.2c0.6-1.1,1.6-2,2.8-2.7s2.6-1,4.2-1c2.4,0,4.3,0.6,5.5,1.9
			c1.2,1.3,1.8,3.3,1.8,6v14.1H229.6z"/>
		<path d="M248.8,368.5c-3.2,0-5.7-1-7.5-2.9c-1.8-1.9-2.8-4.6-2.8-8.1c0-3.5,0.9-6.2,2.6-8.3c1.7-2,4-3.1,6.9-3.1
			c2.7,0,4.8,0.9,6.4,2.7c1.6,1.8,2.4,4.1,2.4,7v2.1h-14.9c0.1,2.5,0.7,4.5,1.9,5.8c1.2,1.3,2.9,2,5.1,2c2.3,0,4.6-0.5,6.9-1.5v2.9
			c-1.2,0.5-2.2,0.9-3.3,1.1C251.5,368.4,250.2,368.5,248.8,368.5z M247.9,348.9c-1.7,0-3.1,0.6-4.1,1.7c-1,1.1-1.6,2.7-1.8,4.7
			h11.3c0-2.1-0.5-3.6-1.4-4.7S249.6,348.9,247.9,348.9z"/>
		<path d="M265.7,363.4l0.3,0.5c-0.3,1.3-0.8,2.8-1.5,4.6c-0.6,1.7-1.3,3.4-2,4.9H260c0.4-1.4,0.7-3.1,1.2-5.1
			c0.4-2,0.7-3.6,0.9-4.8H265.7z"/>
		<path d="M286.5,368.1h-3.3v-28.8h16v3h-12.7v10.5h11.9v3h-11.9V368.1z"/>
		<path d="M303.2,340.7c0-0.7,0.2-1.3,0.6-1.6c0.4-0.3,0.8-0.5,1.4-0.5c0.5,0,1,0.2,1.4,0.5s0.6,0.9,0.6,1.6s-0.2,1.3-0.6,1.6
			c-0.4,0.4-0.8,0.5-1.4,0.5c-0.6,0-1-0.2-1.4-0.5C303.3,342,303.2,341.4,303.2,340.7z M306.7,368.1h-3.3v-21.6h3.3V368.1z"/>
		<path d="M323.5,346.2c1,0,1.8,0.1,2.6,0.2l-0.5,3c-0.9-0.2-1.7-0.3-2.4-0.3c-1.7,0-3.2,0.7-4.5,2.1s-1.9,3.2-1.9,5.3v11.6h-3.3
			v-21.6h2.7l0.4,4h0.2c0.8-1.4,1.8-2.5,2.9-3.2C320.9,346.5,322.1,346.2,323.5,346.2z"/>
		<path d="M339.2,368.5c-3.2,0-5.7-1-7.5-2.9c-1.8-1.9-2.8-4.6-2.8-8.1c0-3.5,0.9-6.2,2.6-8.3s4-3.1,6.9-3.1c2.7,0,4.8,0.9,6.4,2.7
			c1.6,1.8,2.4,4.1,2.4,7v2.1h-14.9c0.1,2.5,0.7,4.5,1.9,5.8c1.2,1.3,2.9,2,5.1,2c2.3,0,4.6-0.5,6.9-1.5v2.9
			c-1.2,0.5-2.2,0.9-3.3,1.1C341.9,368.4,340.7,368.5,339.2,368.5z M338.3,348.9c-1.7,0-3.1,0.6-4.1,1.7c-1,1.1-1.6,2.7-1.8,4.7
			h11.3c0-2.1-0.5-3.6-1.4-4.7C341.3,349.4,340,348.9,338.3,348.9z"/>
		<path d="M362.4,349.1h-5.5v19h-3.3v-19h-3.9v-1.5l3.9-1.2v-1.2c0-5.3,2.3-8,6.9-8c1.1,0,2.5,0.2,4,0.7l-0.8,2.6
			c-1.3-0.4-2.3-0.6-3.2-0.6c-1.2,0-2.1,0.4-2.7,1.2s-0.9,2.1-0.9,3.9v1.4h5.5V349.1z"/>
		<path d="M385,357.3c0,3.5-0.9,6.3-2.7,8.2c-1.8,2-4.2,3-7.3,3c-1.9,0-3.6-0.5-5.1-1.4c-1.5-0.9-2.7-2.2-3.5-3.9s-1.2-3.7-1.2-5.9
			c0-3.5,0.9-6.3,2.6-8.2c1.8-2,4.2-2.9,7.3-2.9c3,0,5.4,1,7.2,3S385,353.9,385,357.3z M368.6,357.3c0,2.8,0.6,4.9,1.7,6.3
			s2.7,2.2,4.9,2.2c2.1,0,3.8-0.7,4.9-2.2c1.1-1.4,1.7-3.5,1.7-6.3c0-2.7-0.6-4.8-1.7-6.3c-1.1-1.4-2.7-2.1-4.9-2.1
			c-2.1,0-3.8,0.7-4.8,2.1S368.6,354.5,368.6,357.3z"/>
		<path d="M395.9,357.1l-7.5-10.5h3.7l5.7,8.3l5.7-8.3h3.7l-7.5,10.5l7.9,11h-3.7l-6-8.7l-6.1,8.7H388L395.9,357.1z"/>
		<path d="M440.9,357.3c0,3.5-0.9,6.3-2.7,8.2c-1.8,2-4.2,3-7.3,3c-1.9,0-3.6-0.5-5.1-1.4s-2.7-2.2-3.5-3.9s-1.2-3.7-1.2-5.9
			c0-3.5,0.9-6.3,2.6-8.2c1.8-2,4.2-2.9,7.3-2.9c3,0,5.4,1,7.2,3C440.1,351.2,440.9,353.9,440.9,357.3z M424.5,357.3
			c0,2.8,0.6,4.9,1.7,6.3c1.1,1.4,2.7,2.2,4.9,2.2c2.1,0,3.8-0.7,4.9-2.2c1.1-1.4,1.7-3.5,1.7-6.3c0-2.7-0.6-4.8-1.7-6.3
			c-1.1-1.4-2.7-2.1-4.9-2.1c-2.1,0-3.8,0.7-4.8,2.1C425,352.4,424.5,354.5,424.5,357.3z"/>
		<path d="M456.5,346.2c1,0,1.8,0.1,2.6,0.2l-0.5,3c-0.9-0.2-1.7-0.3-2.4-0.3c-1.7,0-3.2,0.7-4.5,2.1c-1.2,1.4-1.9,3.2-1.9,5.3v11.6
			h-3.3v-21.6h2.7l0.4,4h0.2c0.8-1.4,1.8-2.5,2.9-3.2C453.9,346.5,455.2,346.2,456.5,346.2z"/>
		<path d="M490.3,360.5c0,2.5-0.9,4.5-2.8,5.9s-4.3,2.1-7.5,2.1c-3.4,0-6-0.4-7.9-1.3V364c1.2,0.5,2.5,0.9,3.9,1.2
			c1.4,0.3,2.8,0.4,4.1,0.4c2.2,0,3.9-0.4,5-1.3c1.1-0.8,1.7-2,1.7-3.5c0-1-0.2-1.8-0.6-2.5c-0.4-0.6-1.1-1.2-2-1.8
			c-0.9-0.5-2.4-1.1-4.3-1.8c-2.7-1-4.6-2.1-5.7-3.4c-1.1-1.3-1.7-3-1.7-5.1c0-2.2,0.8-4,2.5-5.3c1.7-1.3,3.9-2,6.6-2
			c2.9,0,5.5,0.5,7.9,1.6l-1,2.9c-2.4-1-4.7-1.5-6.9-1.5c-1.8,0-3.2,0.4-4.2,1.1c-1,0.8-1.5,1.8-1.5,3.2c0,1,0.2,1.8,0.6,2.5
			c0.4,0.6,1,1.2,1.9,1.8c0.9,0.5,2.2,1.1,4,1.8c3,1.1,5.1,2.2,6.2,3.5C489.8,356.9,490.3,358.5,490.3,360.5z"/>
		<path d="M509,368.1l-0.6-3.1h-0.2c-1.1,1.4-2.1,2.3-3.2,2.7c-1.1,0.5-2.4,0.7-4,0.7c-2.1,0-3.8-0.6-5-1.7
			c-1.2-1.1-1.8-2.7-1.8-4.7c0-4.4,3.5-6.6,10.5-6.9l3.7-0.1v-1.3c0-1.7-0.4-2.9-1.1-3.8c-0.7-0.8-1.9-1.2-3.5-1.2
			c-1.8,0-3.8,0.6-6.1,1.7l-1-2.5c1.1-0.6,2.2-1,3.5-1.4s2.5-0.5,3.8-0.5c2.6,0,4.5,0.6,5.7,1.7c1.2,1.1,1.9,3,1.9,5.5v14.7H509z
			 M501.6,365.8c2,0,3.6-0.6,4.8-1.7c1.2-1.1,1.7-2.7,1.7-4.7v-1.9l-3.3,0.1c-2.6,0.1-4.5,0.5-5.6,1.2c-1.1,0.7-1.7,1.8-1.7,3.3
			c0,1.2,0.4,2.1,1.1,2.7C499.3,365.5,500.3,365.8,501.6,365.8z"/>
		<path d="M527.9,349.1h-5.5v19h-3.3v-19h-3.9v-1.5l3.9-1.2v-1.2c0-5.3,2.3-8,6.9-8c1.1,0,2.5,0.2,4,0.7l-0.8,2.6
			c-1.3-0.4-2.3-0.6-3.2-0.6c-1.2,0-2.1,0.4-2.7,1.2c-0.6,0.8-0.9,2.1-0.9,3.9v1.4h5.5V349.1z"/>
		<path d="M545.1,368.1l-0.6-3.1h-0.2c-1.1,1.4-2.1,2.3-3.2,2.7c-1.1,0.5-2.4,0.7-4,0.7c-2.1,0-3.8-0.6-5-1.7
			c-1.2-1.1-1.8-2.7-1.8-4.7c0-4.4,3.5-6.6,10.5-6.9l3.7-0.1v-1.3c0-1.7-0.4-2.9-1.1-3.8c-0.7-0.8-1.9-1.2-3.5-1.2
			c-1.8,0-3.8,0.6-6.1,1.7l-1-2.5c1.1-0.6,2.2-1,3.5-1.4c1.3-0.3,2.5-0.5,3.8-0.5c2.6,0,4.5,0.6,5.7,1.7c1.2,1.1,1.9,3,1.9,5.5v14.7
			H545.1z M537.7,365.8c2,0,3.6-0.6,4.8-1.7c1.2-1.1,1.7-2.7,1.7-4.7v-1.9l-3.3,0.1c-2.6,0.1-4.5,0.5-5.6,1.2
			c-1.1,0.7-1.7,1.8-1.7,3.3c0,1.2,0.4,2.1,1.1,2.7S536.4,365.8,537.7,365.8z"/>
		<path d="M564.1,346.2c1,0,1.8,0.1,2.6,0.2l-0.5,3c-0.9-0.2-1.7-0.3-2.4-0.3c-1.7,0-3.2,0.7-4.5,2.1c-1.2,1.4-1.9,3.2-1.9,5.3v11.6
			h-3.3v-21.6h2.7l0.4,4h0.2c0.8-1.4,1.8-2.5,2.9-3.2C561.5,346.5,562.7,346.2,564.1,346.2z"/>
		<path d="M570.4,340.7c0-0.7,0.2-1.3,0.6-1.6c0.4-0.3,0.8-0.5,1.4-0.5c0.5,0,1,0.2,1.4,0.5s0.6,0.9,0.6,1.6s-0.2,1.3-0.6,1.6
			c-0.4,0.4-0.8,0.5-1.4,0.5c-0.6,0-1-0.2-1.4-0.5C570.6,342,570.4,341.4,570.4,340.7z M574,368.1h-3.3v-21.6h3.3V368.1z"/>
		<path d="M580.4,366c0-0.9,0.2-1.5,0.6-2c0.4-0.5,1-0.7,1.7-0.7c0.8,0,1.4,0.2,1.8,0.7c0.4,0.5,0.6,1.1,0.6,2c0,0.9-0.2,1.5-0.6,2
			s-1,0.7-1.8,0.7c-0.7,0-1.2-0.2-1.7-0.6C580.6,367.7,580.4,367,580.4,366z"/>
	</g>
</g>
</svg>
