<svg id="Layer_1" data-name="Layer 1" xmlns="http://www.w3.org/2000/svg" viewBox="0 0 696.67 870.12"><defs><style>.cls-1{fill:#e7e9f6;}.cls-2{fill:#1d1d1b;}.cls-3{fill:#8b9fd1;}.cls-4{fill:#fff;}.cls-5{fill:#f1f3f7;}.cls-6,.cls-8{fill:#fed601;}.cls-7,.cls-9{fill:none;stroke-linecap:round;stroke-linejoin:round;stroke-width:3px;}.cls-7,.cls-8{stroke:#fed601;}.cls-8{stroke-miterlimit:10;}.cls-9{stroke:#4256a2;}.cls-10{fill:#4365ae;}.cls-11{fill:#b8c1c1;}</style></defs><title>Install02</title><rect class="cls-1" width="696.67" height="870.12" rx="34.02" ry="34.02"/><path class="cls-2" d="M109.95,104.16V59.9h5.15v44.26Z"/><path class="cls-2" d="M149.18,104.16V82.69q0-4.06-1.85-6.05t-5.78-2q-5.21,0-7.63,2.82t-2.42,9.29v17.41h-5V71h4.09l.82,4.54h.24a10.26,10.26,0,0,1,4.33-3.8,14.07,14.07,0,0,1,6.21-1.35q6,0,9,2.89t3,9.25v21.65Z"/><path class="cls-2" d="M185.94,95.1a8.31,8.31,0,0,1-3.45,7.14q-3.45,2.51-9.69,2.51-6.6,0-10.29-2.09V98a24.85,24.85,0,0,0,5.13,1.91,21.42,21.42,0,0,0,5.28.7A12,12,0,0,0,179,99.36a4.33,4.33,0,0,0,.44-7.14A26.45,26.45,0,0,0,172.86,89a35.53,35.53,0,0,1-6.58-3A9,9,0,0,1,163.37,83a7.62,7.62,0,0,1-1-3.91,7.44,7.44,0,0,1,3.3-6.4q3.3-2.35,9.05-2.35a26.49,26.49,0,0,1,10.47,2.18l-1.79,4.09a24.05,24.05,0,0,0-9.05-2.06A10.41,10.41,0,0,0,169,75.7a3.46,3.46,0,0,0-1.82,3.09,3.76,3.76,0,0,0,.68,2.27,6.71,6.71,0,0,0,2.19,1.79,48.89,48.89,0,0,0,5.81,2.45q5.9,2.15,8,4.33A7.64,7.64,0,0,1,185.94,95.1Z"/><path class="cls-2" d="M204.83,100.61a17.88,17.88,0,0,0,4.54-.61v3.84a9.19,9.19,0,0,1-2.41.65,18.09,18.09,0,0,1-2.86.26q-9.63,0-9.63-10.14V74.88h-4.75V72.46l4.75-2.09,2.12-7.08h2.91V71h9.63v3.91H199.5V94.41a6.72,6.72,0,0,0,1.42,4.6A5,5,0,0,0,204.83,100.61Z"/><path class="cls-2" d="M236.4,104.16l-1-4.72h-.24a14,14,0,0,1-4.95,4.22,15.09,15.09,0,0,1-6.16,1.1q-4.94,0-7.73-2.54a9.27,9.27,0,0,1-2.8-7.24q0-10.05,16.08-10.54l5.63-.18V82.21q0-3.91-1.68-5.77t-5.37-1.86a21.89,21.89,0,0,0-9.38,2.54l-1.54-3.84a23.64,23.64,0,0,1,5.37-2.09,23.28,23.28,0,0,1,5.86-.76q5.93,0,8.79,2.63t2.86,8.45v22.64ZM225,100.61A10.2,10.2,0,0,0,232.42,98a9.52,9.52,0,0,0,2.68-7.21v-3l-5,.21q-6,.21-8.64,1.86A5.61,5.61,0,0,0,218.78,95a5.18,5.18,0,0,0,1.65,4.15A6.85,6.85,0,0,0,225,100.61Z"/><path class="cls-2" d="M255.5,104.16h-5V57.05h5Z"/><path class="cls-2" d="M271.19,104.16h-5V57.05h5Z"/><path class="cls-2" d="M317.66,63.86q-7.3,0-11.52,4.86T301.91,82q0,8.69,4.07,13.43t11.61,4.74a39.63,39.63,0,0,0,10.57-1.67V103a32.54,32.54,0,0,1-11.35,1.73q-9.78,0-15.09-5.93T296.4,82A26.61,26.61,0,0,1,299,70,18.37,18.37,0,0,1,306.35,62a22.36,22.36,0,0,1,11.37-2.79,27.43,27.43,0,0,1,12.17,2.54l-2.18,4.42A23.46,23.46,0,0,0,317.66,63.86Z"/><path class="cls-2" d="M365.7,87.54q0,8.11-4.09,12.67t-11.29,4.56a15,15,0,0,1-7.9-2.09,13.78,13.78,0,0,1-5.33-6,20.89,20.89,0,0,1-1.88-9.14q0-8.11,4.06-12.64t11.26-4.53q7,0,11.07,4.63T365.7,87.54Zm-25.28,0q0,6.36,2.54,9.69t7.48,3.33q4.94,0,7.49-3.31t2.56-9.7q0-6.33-2.56-9.61t-7.55-3.28q-4.93,0-7.45,3.24T340.42,87.54Z"/><path class="cls-2" d="M416.8,104.16V82.57q0-4-1.7-5.95t-5.27-2q-4.69,0-6.93,2.69t-2.24,8.29v18.53h-5V82.57q0-4-1.7-5.95t-5.3-2q-4.72,0-6.92,2.83t-2.2,9.28v17.41h-5V71h4.09l.82,4.54h.24a9.88,9.88,0,0,1,4-3.78,12.25,12.25,0,0,1,5.8-1.36q7.78,0,10.17,5.63h.24a10.59,10.59,0,0,1,4.3-4.12,13.34,13.34,0,0,1,6.42-1.51q5.63,0,8.43,2.89t2.8,9.25v21.65Z"/><path class="cls-2" d="M447.62,104.76a14.36,14.36,0,0,1-5.92-1.2,11.13,11.13,0,0,1-4.5-3.68h-.36a44.51,44.51,0,0,1,.36,5.51v13.65h-5V71h4.09l.7,4.54h.24a11.67,11.67,0,0,1,4.51-3.94,13.72,13.72,0,0,1,5.9-1.21q6.6,0,10.19,4.51t3.59,12.65q0,8.17-3.65,12.7A12.29,12.29,0,0,1,447.62,104.76Zm-.73-30.12q-5.09,0-7.36,2.82t-2.33,9v1.12q0,7,2.33,10t7.48,3a7.78,7.78,0,0,0,6.74-3.48q2.44-3.48,2.44-9.6T453.75,78A8,8,0,0,0,446.89,74.64Z"/><path class="cls-2" d="M498.81,87.54q0,8.11-4.09,12.67t-11.29,4.56a15,15,0,0,1-7.9-2.09,13.78,13.78,0,0,1-5.33-6,20.89,20.89,0,0,1-1.88-9.14q0-8.11,4.06-12.64t11.26-4.53q7,0,11.07,4.63T498.81,87.54Zm-25.28,0q0,6.36,2.54,9.69t7.48,3.33q4.94,0,7.49-3.31t2.56-9.7q0-6.33-2.56-9.61t-7.55-3.28q-4.94,0-7.45,3.24T473.53,87.54Z"/><path class="cls-2" d="M529,95.1a8.31,8.31,0,0,1-3.45,7.14q-3.45,2.51-9.69,2.51-6.6,0-10.29-2.09V98a24.85,24.85,0,0,0,5.13,1.91,21.41,21.41,0,0,0,5.28.7,12,12,0,0,0,6.05-1.26,4.33,4.33,0,0,0,.44-7.14A26.46,26.46,0,0,0,515.95,89a35.52,35.52,0,0,1-6.58-3A9,9,0,0,1,506.46,83a7.62,7.62,0,0,1-1-3.91,7.44,7.44,0,0,1,3.3-6.4q3.3-2.35,9.05-2.35a26.49,26.49,0,0,1,10.47,2.18l-1.79,4.09a24.05,24.05,0,0,0-9.05-2.06,10.41,10.41,0,0,0-5.39,1.12,3.46,3.46,0,0,0-1.82,3.09,3.76,3.76,0,0,0,.68,2.27,6.72,6.72,0,0,0,2.19,1.79A48.89,48.89,0,0,0,519,85.3q5.9,2.15,8,4.33A7.64,7.64,0,0,1,529,95.1Z"/><path class="cls-2" d="M551.21,104.76q-7.36,0-11.61-4.48t-4.25-12.44q0-8,4-12.75a13.12,13.12,0,0,1,10.61-4.72,12.51,12.51,0,0,1,9.87,4.1q3.63,4.1,3.63,10.82v3.18H540.56q.15,5.84,3,8.87t7.89,3A26.72,26.72,0,0,0,562,98.13v4.48a26.59,26.59,0,0,1-5,1.65A28.34,28.34,0,0,1,551.21,104.76Zm-1.36-30.18a8.21,8.21,0,0,0-6.37,2.6,12,12,0,0,0-2.8,7.21H558q0-4.75-2.12-7.28A7.46,7.46,0,0,0,549.85,74.58Z"/><path class="cls-2" d="M587.12,70.37a19.66,19.66,0,0,1,4,.36l-.7,4.66a17.11,17.11,0,0,0-3.63-.45,8.84,8.84,0,0,0-6.89,3.27A11.92,11.92,0,0,0,577,86.35v17.8h-5V71h4.15l.58,6.15h.24a14.6,14.6,0,0,1,4.45-5A10,10,0,0,1,587.12,70.37Z"/><path class="cls-2" d="M119.36,147.19q0,6.72-4.59,10.34t-13.12,3.62H96.45v17.41H91.3V134.3h11.47Q119.36,134.3,119.36,147.19Zm-22.92,9.54h4.63q6.84,0,9.9-2.21t3.06-7.08q0-4.39-2.88-6.54t-9-2.15H96.45Z"/><path class="cls-2" d="M132.9,178.56h-5V131.45h5Z"/><path class="cls-2" d="M164,178.56l-1-4.72h-.24a14,14,0,0,1-4.95,4.22,15.09,15.09,0,0,1-6.16,1.1q-4.94,0-7.73-2.54a9.27,9.27,0,0,1-2.8-7.24q0-10.05,16.08-10.54l5.63-.18v-2.06q0-3.91-1.68-5.77T155.72,149a21.89,21.89,0,0,0-9.38,2.54l-1.54-3.84a23.64,23.64,0,0,1,5.37-2.09,23.28,23.28,0,0,1,5.86-.76q5.93,0,8.79,2.63t2.86,8.45v22.64ZM152.6,175a10.2,10.2,0,0,0,7.37-2.57,9.52,9.52,0,0,0,2.68-7.21v-3l-5,.21q-6,.21-8.64,1.86a5.61,5.61,0,0,0-2.65,5.13,5.18,5.18,0,0,0,1.65,4.15A6.85,6.85,0,0,0,152.6,175Z"/><path class="cls-2" d="M172.77,145.38h5.39l7.27,18.92a72.08,72.08,0,0,1,3,9.35h.24q.39-1.54,1.65-5.28t8.22-23h5.39l-14.26,37.78q-2.12,5.6-4.95,7.95a10.53,10.53,0,0,1-6.95,2.35,20.23,20.23,0,0,1-4.54-.51v-4a17.51,17.51,0,0,0,3.72.36q5.18,0,7.39-5.81l1.85-4.72Z"/><path class="cls-2" d="M236.43,145.38v3.18l-6.15.73a10.79,10.79,0,0,1,2.18,6.63,9.81,9.81,0,0,1-3.33,7.78q-3.33,2.91-9.14,2.91a15.21,15.21,0,0,1-2.79-.24q-3.21,1.7-3.21,4.27a2.17,2.17,0,0,0,1.12,2,8.18,8.18,0,0,0,3.84.65h5.87q5.39,0,8.28,2.27a7.89,7.89,0,0,1,2.89,6.6,9.42,9.42,0,0,1-4.42,8.4q-4.42,2.89-12.9,2.89-6.51,0-10-2.42a7.82,7.82,0,0,1-3.53-6.84,7.68,7.68,0,0,1,1.94-5.24,9.87,9.87,0,0,1,5.45-3,5.25,5.25,0,0,1-2.13-1.79,4.73,4.73,0,0,1-.86-2.82,5.34,5.34,0,0,1,1-3.18,10.18,10.18,0,0,1,3.06-2.63,9,9,0,0,1-4.19-3.6,10.58,10.58,0,0,1-1.62-5.81q0-5.45,3.27-8.4t9.26-3a16.86,16.86,0,0,1,4.69.61ZM210,184.13a4.5,4.5,0,0,0,2.27,4.09,12.53,12.53,0,0,0,6.51,1.39q6.33,0,9.37-1.89a5.79,5.79,0,0,0,3-5.13q0-2.69-1.67-3.74t-6.27-1h-6a7.93,7.93,0,0,0-5.33,1.63A5.84,5.84,0,0,0,210,184.13ZM212.7,156a6.75,6.75,0,0,0,2,5.27,7.86,7.86,0,0,0,5.48,1.79q7.36,0,7.36-7.14,0-7.48-7.45-7.48a7.37,7.37,0,0,0-5.45,1.91A7.68,7.68,0,0,0,212.7,156Z"/><path class="cls-2" d="M258.38,144.77a19.67,19.67,0,0,1,4,.36l-.7,4.66a17.12,17.12,0,0,0-3.63-.45,8.84,8.84,0,0,0-6.89,3.27,11.92,11.92,0,0,0-2.86,8.14v17.8h-5V145.38h4.15l.58,6.15h.24a14.59,14.59,0,0,1,4.45-5A10,10,0,0,1,258.38,144.77Z"/><path class="cls-2" d="M297.19,161.94q0,8.11-4.09,12.67t-11.29,4.56a15,15,0,0,1-7.9-2.09,13.78,13.78,0,0,1-5.33-6,20.89,20.89,0,0,1-1.88-9.14q0-8.11,4.06-12.64T282,144.77q7,0,11.06,4.63T297.19,161.94Zm-25.28,0q0,6.36,2.54,9.69t7.48,3.33q4.93,0,7.49-3.31t2.56-9.7q0-6.33-2.56-9.61T281.87,149q-4.94,0-7.45,3.24T271.91,161.94Z"/><path class="cls-2" d="M310.72,145.38V166.9q0,4.06,1.85,6.05t5.78,2q5.21,0,7.61-2.85t2.41-9.29V145.38h5v33.18h-4.15l-.73-4.45h-.27a10,10,0,0,1-4.28,3.75,14.4,14.4,0,0,1-6.25,1.3q-6.05,0-9.07-2.88t-3-9.2V145.38Z"/><path class="cls-2" d="M366.76,178.56V157.09q0-4.06-1.85-6.05t-5.78-2q-5.21,0-7.63,2.82t-2.42,9.29v17.41h-5V145.38h4.09l.82,4.54h.24a10.26,10.26,0,0,1,4.33-3.8,14.07,14.07,0,0,1,6.21-1.35q6,0,9,2.89t3,9.25v21.65Z"/><path class="cls-2" d="M404.69,174.11h-.27q-3.48,5.06-10.41,5.06-6.51,0-10.13-4.45t-3.62-12.65q0-8.2,3.63-12.75A12.22,12.22,0,0,1,394,144.77q6.75,0,10.35,4.9h.39l-.21-2.39-.12-2.33v-13.5h5v47.11h-4.09Zm-10.05.85q5.15,0,7.46-2.8t2.32-9v-1.06q0-7.05-2.35-10.07t-7.49-3a7.69,7.69,0,0,0-6.77,3.44q-2.35,3.44-2.35,9.7t2.33,9.6A7.89,7.89,0,0,0,394.64,175Z"/><path class="cls-2" d="M441.23,178.56h-5V131.45h5Z"/><path class="cls-2" d="M480.53,161.94q0,8.11-4.09,12.67t-11.29,4.56a15,15,0,0,1-7.9-2.09,13.78,13.78,0,0,1-5.33-6,20.89,20.89,0,0,1-1.88-9.14q0-8.11,4.06-12.64t11.26-4.53q7,0,11.07,4.63T480.53,161.94Zm-25.28,0q0,6.36,2.54,9.69t7.48,3.33q4.94,0,7.49-3.31t2.56-9.7q0-6.33-2.56-9.61T465.21,149q-4.94,0-7.45,3.24T455.25,161.94Z"/><path class="cls-2" d="M502.6,179.16q-7.21,0-11.16-4.44t-4-12.55q0-8.32,4-12.87t11.43-4.54a22.7,22.7,0,0,1,4.78.51,15.77,15.77,0,0,1,3.75,1.21l-1.54,4.27a23.71,23.71,0,0,0-3.63-1.1,16.23,16.23,0,0,0-3.48-.44q-10.11,0-10.11,12.9,0,6.12,2.47,9.38t7.31,3.27A22.35,22.35,0,0,0,511,173v4.45A18.13,18.13,0,0,1,502.6,179.16Z"/><path class="cls-2" d="M539.26,178.56l-1-4.72H538a14,14,0,0,1-4.95,4.22,15.1,15.1,0,0,1-6.16,1.1q-4.94,0-7.73-2.54a9.27,9.27,0,0,1-2.8-7.24q0-10.05,16.08-10.54l5.63-.18v-2.06q0-3.91-1.68-5.77T531,149a21.89,21.89,0,0,0-9.38,2.54l-1.54-3.84a23.64,23.64,0,0,1,5.37-2.09,23.27,23.27,0,0,1,5.86-.76q5.93,0,8.79,2.63t2.86,8.45v22.64ZM527.9,175a10.2,10.2,0,0,0,7.37-2.57,9.52,9.52,0,0,0,2.68-7.21v-3l-5,.21q-6,.21-8.64,1.86a5.61,5.61,0,0,0-2.65,5.13,5.18,5.18,0,0,0,1.65,4.15A6.85,6.85,0,0,0,527.9,175Z"/><path class="cls-2" d="M558.36,178.56h-5V131.45h5Z"/><path class="cls-2" d="M574,178.56h-5V131.45h5Z"/><path class="cls-2" d="M579.43,145.38h5.39l7.27,18.92a72,72,0,0,1,3,9.35h.24q.39-1.54,1.65-5.28t8.22-23h5.39l-14.26,37.78q-2.12,5.6-4.95,7.95a10.53,10.53,0,0,1-6.95,2.35,20.23,20.23,0,0,1-4.54-.51v-4a17.52,17.52,0,0,0,3.72.36q5.18,0,7.39-5.81l1.85-4.72Z"/><path class="cls-2" d="M115.71,259q0,6.8-3.44,10.69t-9.56,3.89q-6.26,0-9.66-3.83T89.65,259q0-6.92,3.41-10.72t9.69-3.81q6.1,0,9.53,3.88T115.71,259Zm-22.57,0q0,5.75,2.45,8.73a8.7,8.7,0,0,0,7.12,3q4.71,0,7.11-3t2.4-8.74q0-5.72-2.39-8.67t-7.08-3q-4.71,0-7.16,3T93.14,259Z"/><path class="cls-2" d="M136.08,273.21V259.48a5.54,5.54,0,0,0-1.18-3.87,4.81,4.81,0,0,0-3.7-1.28q-3.33,0-4.88,1.8t-1.55,5.95v11.14h-3.22V252h2.62l.52,2.91h.15a6.56,6.56,0,0,1,2.77-2.43,9,9,0,0,1,4-.86q3.84,0,5.77,1.85t1.94,5.92v13.85Z"/><path class="cls-2" d="M154.87,273.6a9.76,9.76,0,0,1-7.43-2.87q-2.72-2.87-2.72-8a12.31,12.31,0,0,1,2.53-8.16,8.4,8.4,0,0,1,6.79-3,8,8,0,0,1,6.32,2.63,10.06,10.06,0,0,1,2.33,6.93v2H148.05a8.42,8.42,0,0,0,1.89,5.68,6.53,6.53,0,0,0,5,1.94,17.1,17.1,0,0,0,6.78-1.43v2.87a17,17,0,0,1-3.23,1.06A18.15,18.15,0,0,1,154.87,273.6ZM154,254.28a5.25,5.25,0,0,0-4.08,1.67,7.68,7.68,0,0,0-1.79,4.61h11.1a7.07,7.07,0,0,0-1.36-4.66A4.77,4.77,0,0,0,154,254.28Z"/><path class="cls-2" d="M166.38,264V261.1h9.51V264Z"/><path class="cls-2" d="M184.15,273.21h-3.22V243.07h3.22Z"/><path class="cls-2" d="M190.69,246.22a2.14,2.14,0,0,1,.54-1.62,2,2,0,0,1,2.69,0,2.1,2.1,0,0,1,.56,1.61,2.13,2.13,0,0,1-.56,1.62,1.88,1.88,0,0,1-1.34.53,1.86,1.86,0,0,1-1.36-.53A2.17,2.17,0,0,1,190.69,246.22Zm3.49,27H191V252h3.22Z"/><path class="cls-2" d="M215.53,273.21V259.48a5.54,5.54,0,0,0-1.18-3.87,4.81,4.81,0,0,0-3.7-1.28q-3.33,0-4.88,1.8t-1.55,5.95v11.14H201V252h2.62l.52,2.91h.15a6.56,6.56,0,0,1,2.77-2.43,9,9,0,0,1,4-.86q3.84,0,5.77,1.85t1.94,5.92v13.85Z"/><path class="cls-2" d="M234.33,273.6a9.76,9.76,0,0,1-7.43-2.87q-2.72-2.87-2.72-8a12.31,12.31,0,0,1,2.53-8.16,8.4,8.4,0,0,1,6.79-3,8,8,0,0,1,6.32,2.63,10.06,10.06,0,0,1,2.33,6.93v2H227.51a8.42,8.42,0,0,0,1.89,5.68,6.53,6.53,0,0,0,5,1.94,17.1,17.1,0,0,0,6.78-1.43v2.87a17,17,0,0,1-3.23,1.06A18.15,18.15,0,0,1,234.33,273.6Zm-.87-19.32a5.25,5.25,0,0,0-4.08,1.67,7.68,7.68,0,0,0-1.79,4.61h11.1a7.07,7.07,0,0,0-1.36-4.66A4.77,4.77,0,0,0,233.46,254.28Z"/><path class="cls-2" d="M257.65,246.22a2.14,2.14,0,0,1,.54-1.62,2,2,0,0,1,2.69,0,2.1,2.1,0,0,1,.56,1.61,2.13,2.13,0,0,1-.56,1.62,1.88,1.88,0,0,1-1.34.53,1.86,1.86,0,0,1-1.36-.53A2.17,2.17,0,0,1,257.65,246.22Zm3.49,27h-3.22V252h3.22Z"/><path class="cls-2" d="M282.49,273.21V259.48a5.54,5.54,0,0,0-1.18-3.87,4.81,4.81,0,0,0-3.7-1.28q-3.33,0-4.88,1.8t-1.55,5.95v11.14H268V252h2.62l.52,2.91h.15a6.56,6.56,0,0,1,2.77-2.43,9,9,0,0,1,4-.86q3.84,0,5.77,1.85t1.94,5.92v13.85Z"/><path class="cls-2" d="M306,267.42a5.32,5.32,0,0,1-2.21,4.57,10.38,10.38,0,0,1-6.2,1.61,13.48,13.48,0,0,1-6.59-1.34v-3a15.92,15.92,0,0,0,3.28,1.22,13.7,13.7,0,0,0,3.38.45,7.67,7.67,0,0,0,3.88-.8,2.77,2.77,0,0,0,.28-4.57,16.93,16.93,0,0,0-4.19-2.08,22.73,22.73,0,0,1-4.21-1.93,5.75,5.75,0,0,1-1.86-1.87,4.88,4.88,0,0,1-.61-2.5,4.77,4.77,0,0,1,2.11-4.1,9.84,9.84,0,0,1,5.79-1.5,17,17,0,0,1,6.7,1.4l-1.14,2.62a15.39,15.39,0,0,0-5.79-1.32,6.67,6.67,0,0,0-3.45.72,2.22,2.22,0,0,0-1.16,2,2.41,2.41,0,0,0,.44,1.45,4.3,4.3,0,0,0,1.4,1.14,31.28,31.28,0,0,0,3.72,1.57,13.9,13.9,0,0,1,5.1,2.77A4.89,4.89,0,0,1,306,267.42Z"/><path class="cls-2" d="M318.1,270.95a10.51,10.51,0,0,0,1.65-.13,10.65,10.65,0,0,0,1.26-.26V273a5.88,5.88,0,0,1-1.54.42,11.56,11.56,0,0,1-1.83.17q-6.16,0-6.16-6.49V254.48h-3v-1.55l3-1.34,1.36-4.53h1.86V252h6.16v2.5h-6.16V267a4.3,4.3,0,0,0,.91,2.94A3.17,3.17,0,0,0,318.1,270.95Z"/><path class="cls-2" d="M338.31,273.21l-.64-3h-.16a8.93,8.93,0,0,1-3.17,2.7,9.65,9.65,0,0,1-3.94.71,7.09,7.09,0,0,1-5-1.63,5.93,5.93,0,0,1-1.79-4.63q0-6.43,10.29-6.74l3.6-.12v-1.32a5.38,5.38,0,0,0-1.08-3.69,4.42,4.42,0,0,0-3.44-1.19,14,14,0,0,0-6,1.63l-1-2.46a15.14,15.14,0,0,1,3.44-1.34,14.92,14.92,0,0,1,3.75-.48q3.8,0,5.63,1.69t1.83,5.41v14.49ZM331,270.95a6.53,6.53,0,0,0,4.72-1.65,6.09,6.09,0,0,0,1.71-4.61v-1.92l-3.22.14a11.7,11.7,0,0,0-5.53,1.19,3.59,3.59,0,0,0-1.7,3.28,3.31,3.31,0,0,0,1.06,2.65A4.38,4.38,0,0,0,331,270.95Z"/><path class="cls-2" d="M350.54,273.21h-3.22V243.07h3.22Z"/><path class="cls-2" d="M360.57,273.21h-3.22V243.07h3.22Z"/><path class="cls-2" d="M370.77,268.6l.29.45q-.5,1.94-1.45,4.5t-2,4.78h-2.42q.52-2,1.15-5t.88-4.75Z"/><path class="cls-2" d="M400,247.43a9.26,9.26,0,0,0-7.37,3.11q-2.7,3.11-2.7,8.52,0,5.56,2.61,8.59a9.26,9.26,0,0,0,7.43,3,25.36,25.36,0,0,0,6.76-1.07v2.89a20.82,20.82,0,0,1-7.27,1.1q-6.26,0-9.66-3.8T386.44,259a17,17,0,0,1,1.64-7.67,11.75,11.75,0,0,1,4.73-5.08,14.31,14.31,0,0,1,7.28-1.78,17.55,17.55,0,0,1,7.79,1.63l-1.39,2.83A15,15,0,0,0,400,247.43Z"/><path class="cls-2" d="M430.79,262.58q0,5.19-2.62,8.11a9.21,9.21,0,0,1-7.23,2.92,9.57,9.57,0,0,1-5.06-1.34,8.82,8.82,0,0,1-3.41-3.84,13.37,13.37,0,0,1-1.2-5.85q0-5.19,2.6-8.09a9.18,9.18,0,0,1,7.21-2.9,9,9,0,0,1,7.08,3A11.67,11.67,0,0,1,430.79,262.58Zm-16.18,0a10.08,10.08,0,0,0,1.63,6.2,6.46,6.46,0,0,0,9.58,0q1.64-2.12,1.64-6.21t-1.64-6.15a5.75,5.75,0,0,0-4.83-2.1,5.66,5.66,0,0,0-4.77,2.07Q414.61,258.47,414.61,262.58Z"/><path class="cls-2" d="M463.49,273.21V259.4a5.73,5.73,0,0,0-1.08-3.81,4.2,4.2,0,0,0-3.37-1.27A5.44,5.44,0,0,0,454.6,256q-1.43,1.72-1.43,5.31v11.86H450V259.4a5.74,5.74,0,0,0-1.08-3.81,4.22,4.22,0,0,0-3.39-1.27,5.25,5.25,0,0,0-4.43,1.81q-1.4,1.81-1.4,5.94v11.14h-3.22V252H439l.52,2.91h.15a6.32,6.32,0,0,1,2.57-2.42,7.84,7.84,0,0,1,3.71-.87q5,0,6.51,3.6h.16a6.77,6.77,0,0,1,2.75-2.64,8.54,8.54,0,0,1,4.11-1,7.19,7.19,0,0,1,5.4,1.85q1.79,1.85,1.79,5.92v13.85Z"/><path class="cls-2" d="M483.22,273.6a9.19,9.19,0,0,1-3.79-.77,7.13,7.13,0,0,1-2.88-2.35h-.23a28.43,28.43,0,0,1,.23,3.53v8.74h-3.22V252H476l.45,2.91h.16a7.47,7.47,0,0,1,2.89-2.52,8.78,8.78,0,0,1,3.78-.77,7.85,7.85,0,0,1,6.52,2.89q2.3,2.89,2.3,8.1t-2.33,8.13A7.86,7.86,0,0,1,483.22,273.6Zm-.46-19.28q-3.25,0-4.71,1.8t-1.49,5.74v.72q0,4.48,1.49,6.4t4.79,1.93a5,5,0,0,0,4.31-2.23,10.57,10.57,0,0,0,1.56-6.14,10.18,10.18,0,0,0-1.56-6.09A5.13,5.13,0,0,0,482.75,254.32Z"/><path class="cls-2" d="M516,262.58q0,5.19-2.62,8.11a9.21,9.21,0,0,1-7.23,2.92,9.57,9.57,0,0,1-5.06-1.34,8.82,8.82,0,0,1-3.41-3.84,13.37,13.37,0,0,1-1.2-5.85q0-5.19,2.6-8.09a9.18,9.18,0,0,1,7.21-2.9,9,9,0,0,1,7.08,3A11.67,11.67,0,0,1,516,262.58Zm-16.18,0a10.08,10.08,0,0,0,1.63,6.2,6.46,6.46,0,0,0,9.58,0q1.64-2.12,1.64-6.21T511,256.43a5.75,5.75,0,0,0-4.83-2.1,5.66,5.66,0,0,0-4.77,2.07Q499.8,258.47,499.8,262.58Z"/><path class="cls-2" d="M535.32,267.42a5.32,5.32,0,0,1-2.21,4.57,10.38,10.38,0,0,1-6.2,1.61,13.48,13.48,0,0,1-6.59-1.34v-3a15.93,15.93,0,0,0,3.28,1.22,13.7,13.7,0,0,0,3.38.45,7.67,7.67,0,0,0,3.88-.8,2.77,2.77,0,0,0,.28-4.57,16.93,16.93,0,0,0-4.19-2.08,22.75,22.75,0,0,1-4.21-1.93,5.75,5.75,0,0,1-1.86-1.87,4.87,4.87,0,0,1-.61-2.5,4.77,4.77,0,0,1,2.11-4.1,9.85,9.85,0,0,1,5.79-1.5,16.94,16.94,0,0,1,6.7,1.4l-1.14,2.62a15.39,15.39,0,0,0-5.79-1.32,6.66,6.66,0,0,0-3.45.72,2.22,2.22,0,0,0-1.16,2,2.4,2.4,0,0,0,.44,1.45,4.3,4.3,0,0,0,1.4,1.14,31.3,31.3,0,0,0,3.72,1.57,13.9,13.9,0,0,1,5.1,2.77A4.89,4.89,0,0,1,535.32,267.42Z"/><path class="cls-2" d="M549.52,273.6a9.76,9.76,0,0,1-7.43-2.87q-2.72-2.87-2.72-8a12.31,12.31,0,0,1,2.53-8.16,8.4,8.4,0,0,1,6.79-3,8,8,0,0,1,6.32,2.63,10.06,10.06,0,0,1,2.33,6.93v2H542.7a8.41,8.41,0,0,0,1.89,5.68,6.53,6.53,0,0,0,5,1.94,17.1,17.1,0,0,0,6.78-1.43v2.87a17,17,0,0,1-3.23,1.06A18.15,18.15,0,0,1,549.52,273.6Zm-.87-19.32a5.25,5.25,0,0,0-4.08,1.67,7.68,7.68,0,0,0-1.79,4.61h11.1a7.07,7.07,0,0,0-1.36-4.66A4.77,4.77,0,0,0,548.65,254.28Z"/><path class="cls-2" d="M572.5,251.59a12.6,12.6,0,0,1,2.54.23l-.45,3a11,11,0,0,0-2.33-.29,5.66,5.66,0,0,0-4.41,2.09,7.63,7.63,0,0,0-1.83,5.21v11.39h-3.22V252h2.65l.37,3.93H566a9.33,9.33,0,0,1,2.85-3.2A6.42,6.42,0,0,1,572.5,251.59Z"/><path class="cls-2" d="M598.56,257.89h8v2.67h-8v8.25h-2.69v-8.25h-7.94v-2.67h7.94V249.6h2.69Z"/><path class="cls-2" d="M168.42,320.83h-3.29V307.5H150.21v13.33h-3.29V292.5h3.29v12.05h14.92V292.5h3.29Z"/><path class="cls-2" d="M172.34,299.6h3.45l4.65,12.11a46.14,46.14,0,0,1,1.9,6h.16q.25-1,1.06-3.38t5.26-14.72h3.45l-9.13,24.18a12.06,12.06,0,0,1-3.17,5.09,6.74,6.74,0,0,1-4.45,1.5,12.93,12.93,0,0,1-2.91-.33v-2.58a11.22,11.22,0,0,0,2.38.23q3.31,0,4.73-3.72l1.18-3Z"/><path class="cls-2" d="M205.58,321.22a9.19,9.19,0,0,1-3.79-.77,7.12,7.12,0,0,1-2.88-2.35h-.23a28.44,28.44,0,0,1,.23,3.53v8.74H195.7V299.6h2.62l.45,2.91h.16a7.47,7.47,0,0,1,2.89-2.52,8.78,8.78,0,0,1,3.78-.77,7.85,7.85,0,0,1,6.52,2.89q2.3,2.89,2.3,8.1t-2.33,8.13A7.86,7.86,0,0,1,205.58,321.22Zm-.46-19.28q-3.25,0-4.71,1.8t-1.49,5.74v.72q0,4.48,1.49,6.4t4.79,1.93a5,5,0,0,0,4.31-2.23,10.57,10.57,0,0,0,1.56-6.14,10.17,10.17,0,0,0-1.56-6.09A5.13,5.13,0,0,0,205.12,301.94Z"/><path class="cls-2" d="M229,321.22a9.76,9.76,0,0,1-7.43-2.87q-2.72-2.87-2.72-8a12.31,12.31,0,0,1,2.53-8.16,8.4,8.4,0,0,1,6.79-3,8,8,0,0,1,6.32,2.63,10.06,10.06,0,0,1,2.33,6.93v2H222.17a8.42,8.42,0,0,0,1.89,5.68,6.53,6.53,0,0,0,5,1.94,17.1,17.1,0,0,0,6.78-1.43v2.87a17,17,0,0,1-3.23,1.06A18.15,18.15,0,0,1,229,321.22Zm-.87-19.32a5.25,5.25,0,0,0-4.08,1.67,7.68,7.68,0,0,0-1.79,4.61h11.1a7.07,7.07,0,0,0-1.36-4.66A4.77,4.77,0,0,0,228.12,301.9Z"/><path class="cls-2" d="M252,299.21a12.61,12.61,0,0,1,2.54.23l-.45,3a11,11,0,0,0-2.32-.29,5.66,5.66,0,0,0-4.41,2.09,7.63,7.63,0,0,0-1.83,5.21v11.39h-3.22V299.6h2.65l.37,3.93h.15a9.33,9.33,0,0,1,2.85-3.2A6.41,6.41,0,0,1,252,299.21Z"/><path class="cls-2" d="M261.69,320.83h-3.22V290.68h3.22Z"/><path class="cls-2" d="M277.48,321.22a9.76,9.76,0,0,1-7.43-2.87q-2.72-2.87-2.72-8a12.31,12.31,0,0,1,2.53-8.16,8.4,8.4,0,0,1,6.79-3,8,8,0,0,1,6.32,2.63,10.06,10.06,0,0,1,2.33,6.93v2H270.66a8.42,8.42,0,0,0,1.89,5.68,6.53,6.53,0,0,0,5,1.94,17.1,17.1,0,0,0,6.78-1.43v2.87a17,17,0,0,1-3.23,1.06A18.15,18.15,0,0,1,277.48,321.22Zm-.87-19.32a5.25,5.25,0,0,0-4.08,1.67,7.68,7.68,0,0,0-1.79,4.61h11.1a7.07,7.07,0,0,0-1.36-4.66A4.77,4.77,0,0,0,276.61,301.9Z"/><path class="cls-2" d="M305.23,318h-.17a7.56,7.56,0,0,1-6.67,3.24,7.89,7.89,0,0,1-6.48-2.85q-2.32-2.85-2.32-8.1t2.33-8.16a7.82,7.82,0,0,1,6.47-2.91,7.72,7.72,0,0,1,6.63,3.14h.25l-.14-1.53-.08-1.49v-8.64h3.22v30.15h-2.62Zm-6.43.54q3.29,0,4.78-1.79t1.48-5.78v-.68q0-4.51-1.5-6.44a5.7,5.7,0,0,0-4.8-1.93,4.92,4.92,0,0,0-4.33,2.2,10.94,10.94,0,0,0-1.5,6.21q0,4.07,1.49,6.14A5.05,5.05,0,0,0,298.8,318.52Z"/><path class="cls-2" d="M332.47,299.6v2l-3.93.46a6.91,6.91,0,0,1,1.4,4.24,6.28,6.28,0,0,1-2.13,5,8.6,8.6,0,0,1-5.85,1.86,9.72,9.72,0,0,1-1.78-.15q-2.05,1.09-2.05,2.73a1.39,1.39,0,0,0,.72,1.29,5.23,5.23,0,0,0,2.46.42H325a8.42,8.42,0,0,1,5.3,1.45,5,5,0,0,1,1.85,4.22,6,6,0,0,1-2.83,5.38q-2.83,1.85-8.25,1.85a11.28,11.28,0,0,1-6.42-1.55,5,5,0,0,1-2.26-4.38,4.92,4.92,0,0,1,1.24-3.35,6.31,6.31,0,0,1,3.49-1.92A3.36,3.36,0,0,1,315.8,318a3,3,0,0,1-.55-1.8,3.42,3.42,0,0,1,.62-2,6.51,6.51,0,0,1,2-1.69,5.74,5.74,0,0,1-2.68-2.31,6.77,6.77,0,0,1-1-3.72,6.87,6.87,0,0,1,2.09-5.38,8.54,8.54,0,0,1,5.93-1.89,10.78,10.78,0,0,1,3,.39Zm-16.93,24.8A2.88,2.88,0,0,0,317,327a8,8,0,0,0,4.17.89,11.62,11.62,0,0,0,6-1.21,3.71,3.71,0,0,0,1.95-3.28A2.6,2.6,0,0,0,328,321a8.27,8.27,0,0,0-4-.67h-3.86a5.08,5.08,0,0,0-3.41,1A3.74,3.74,0,0,0,315.54,324.39Zm1.74-18a4.32,4.32,0,0,0,1.26,3.37,5,5,0,0,0,3.51,1.14q4.71,0,4.71-4.57,0-4.78-4.77-4.79a4.72,4.72,0,0,0-3.49,1.22A4.92,4.92,0,0,0,317.28,306.4Z"/><path class="cls-2" d="M345.8,321.22a9.76,9.76,0,0,1-7.43-2.87q-2.72-2.87-2.72-8a12.31,12.31,0,0,1,2.53-8.16,8.4,8.4,0,0,1,6.79-3,8,8,0,0,1,6.32,2.63,10.06,10.06,0,0,1,2.33,6.93v2H339a8.42,8.42,0,0,0,1.89,5.68,6.53,6.53,0,0,0,5,1.94A17.1,17.1,0,0,0,352.7,317v2.87a17,17,0,0,1-3.23,1.06A18.15,18.15,0,0,1,345.8,321.22Zm-.87-19.32a5.25,5.25,0,0,0-4.08,1.67,7.68,7.68,0,0,0-1.79,4.61h11.1a7.07,7.07,0,0,0-1.36-4.66A4.77,4.77,0,0,0,344.93,301.9Z"/><path class="cls-2" d="M368.78,299.21a12.6,12.6,0,0,1,2.54.23l-.45,3a11,11,0,0,0-2.33-.29,5.66,5.66,0,0,0-4.41,2.09,7.63,7.63,0,0,0-1.83,5.21v11.39h-3.22V299.6h2.65l.37,3.93h.16a9.33,9.33,0,0,1,2.85-3.2A6.42,6.42,0,0,1,368.78,299.21Z"/><path class="cls-2" d="M389.37,320.83h-3.29V292.5h15.79v2.93h-12.5v10.37h11.74v2.93H389.37Z"/><path class="cls-2" d="M419.13,320.83l-.64-3h-.16a8.93,8.93,0,0,1-3.17,2.7,9.65,9.65,0,0,1-3.94.71,7.09,7.09,0,0,1-5-1.63,5.94,5.94,0,0,1-1.79-4.63q0-6.43,10.29-6.74l3.6-.12v-1.32a5.38,5.38,0,0,0-1.08-3.69,4.42,4.42,0,0,0-3.44-1.19,14,14,0,0,0-6,1.63l-1-2.46a15.15,15.15,0,0,1,3.44-1.34,14.92,14.92,0,0,1,3.75-.48q3.8,0,5.63,1.69t1.83,5.41v14.49Zm-7.27-2.27a6.53,6.53,0,0,0,4.72-1.65,6.09,6.09,0,0,0,1.71-4.61v-1.92l-3.22.14a11.71,11.71,0,0,0-5.53,1.19,3.59,3.59,0,0,0-1.7,3.28,3.31,3.31,0,0,0,1.06,2.65A4.38,4.38,0,0,0,411.87,318.56Z"/><path class="cls-2" d="M438,299.25a7.89,7.89,0,0,1,6.5,2.86q2.32,2.86,2.32,8.09t-2.33,8.13a7.86,7.86,0,0,1-6.48,2.9,9.19,9.19,0,0,1-3.79-.77,7.13,7.13,0,0,1-2.88-2.35h-.23l-.68,2.73h-2.31V290.68h3.22V298q0,2.46-.16,4.42h.16A7.63,7.63,0,0,1,438,299.25Zm-.46,2.69q-3.29,0-4.75,1.89t-1.45,6.36q0,4.48,1.49,6.4t4.79,1.93a5,5,0,0,0,4.42-2.16,11.1,11.1,0,0,0,1.45-6.21q0-4.15-1.45-6.18A5.15,5.15,0,0,0,437.56,301.94Z"/><path class="cls-2" d="M462.15,299.21a12.61,12.61,0,0,1,2.54.23l-.45,3a10.94,10.94,0,0,0-2.32-.29,5.66,5.66,0,0,0-4.41,2.09,7.63,7.63,0,0,0-1.83,5.21v11.39h-3.22V299.6h2.65l.37,3.93h.15a9.33,9.33,0,0,1,2.85-3.2A6.41,6.41,0,0,1,462.15,299.21Z"/><path class="cls-2" d="M468.39,293.84a2.14,2.14,0,0,1,.54-1.62,2,2,0,0,1,2.69,0,2.1,2.1,0,0,1,.56,1.61,2.13,2.13,0,0,1-.56,1.62,1.88,1.88,0,0,1-1.34.53,1.86,1.86,0,0,1-1.36-.53A2.18,2.18,0,0,1,468.39,293.84Zm3.49,27h-3.22V299.6h3.22Z"/><path class="cls-2" d="M487.18,321.22a9.06,9.06,0,0,1-7.14-2.84q-2.53-2.84-2.53-8t2.57-8.23a9.24,9.24,0,0,1,7.31-2.91,14.51,14.51,0,0,1,3.06.33,10.12,10.12,0,0,1,2.4.77l-1,2.73a15.16,15.16,0,0,0-2.33-.71,10.4,10.4,0,0,0-2.23-.28q-6.47,0-6.47,8.25a9.83,9.83,0,0,0,1.58,6,5.49,5.49,0,0,0,4.68,2.09,14.3,14.3,0,0,0,5.44-1.14v2.85A11.6,11.6,0,0,1,487.18,321.22Z"/><path class="cls-2" d="M526.22,310.19q0,5.19-2.62,8.11a9.21,9.21,0,0,1-7.23,2.92,9.57,9.57,0,0,1-5.06-1.34,8.82,8.82,0,0,1-3.41-3.84,13.37,13.37,0,0,1-1.2-5.85q0-5.19,2.6-8.09a9.18,9.18,0,0,1,7.21-2.9,9,9,0,0,1,7.08,3A11.67,11.67,0,0,1,526.22,310.19Zm-16.18,0a10.08,10.08,0,0,0,1.63,6.2,6.46,6.46,0,0,0,9.58,0q1.64-2.12,1.64-6.21T521.25,304a5.75,5.75,0,0,0-4.83-2.1,5.66,5.66,0,0,0-4.77,2.07Q510,306.09,510,310.19Z"/><path class="cls-2" d="M546.39,320.83V307.09a5.54,5.54,0,0,0-1.18-3.87,4.81,4.81,0,0,0-3.7-1.28q-3.33,0-4.88,1.8t-1.55,5.95v11.14h-3.22V299.6h2.62l.52,2.91h.15a6.56,6.56,0,0,1,2.77-2.43,9,9,0,0,1,4-.86q3.84,0,5.77,1.85T549.6,307v13.85Z"/><path class="cls-2" d="M111.49,354q0,7-3.81,10.72t-11,3.71H88.88V340.12h8.68q6.61,0,10.27,3.66T111.49,354Zm-3.49.12q0-5.54-2.78-8.35T97,343H92.17V365.6h4q5.89,0,8.85-2.9T108,354.13Z"/><path class="cls-2" d="M135.65,357.81q0,5.19-2.62,8.11a9.21,9.21,0,0,1-7.23,2.92,9.57,9.57,0,0,1-5.06-1.34,8.82,8.82,0,0,1-3.41-3.84,13.37,13.37,0,0,1-1.2-5.85q0-5.19,2.6-8.09a9.18,9.18,0,0,1,7.21-2.9,9,9,0,0,1,7.08,3A11.66,11.66,0,0,1,135.65,357.81Zm-16.18,0a10.08,10.08,0,0,0,1.63,6.2,6.46,6.46,0,0,0,9.58,0q1.64-2.12,1.64-6.21t-1.64-6.15a5.75,5.75,0,0,0-4.83-2.1,5.66,5.66,0,0,0-4.77,2.07Q119.47,353.7,119.47,357.81Z"/><path class="cls-2" d="M149.77,368.83a9.06,9.06,0,0,1-7.14-2.84q-2.53-2.84-2.53-8t2.57-8.23a9.24,9.24,0,0,1,7.31-2.91,14.51,14.51,0,0,1,3.06.33,10.11,10.11,0,0,1,2.4.77l-1,2.73a15.14,15.14,0,0,0-2.33-.71,10.39,10.39,0,0,0-2.23-.28q-6.47,0-6.47,8.25a9.83,9.83,0,0,0,1.58,6A5.49,5.49,0,0,0,149.7,366a14.3,14.3,0,0,0,5.44-1.14v2.85A11.6,11.6,0,0,1,149.77,368.83Z"/><path class="cls-2" d="M163.36,357.58a37.74,37.74,0,0,1,2.54-3.1l6.86-7.27h3.82l-8.6,9,9.2,12.19h-3.89l-7.5-10-2.42,2.09v7.94h-3.18V338.3h3.18v16q0,1.07-.15,3.29Z"/><path class="cls-2" d="M190,368.83a9.76,9.76,0,0,1-7.43-2.87q-2.72-2.87-2.72-8a12.31,12.31,0,0,1,2.53-8.16,8.4,8.4,0,0,1,6.79-3,8,8,0,0,1,6.32,2.63,10.06,10.06,0,0,1,2.33,6.93v2H183.16a8.42,8.42,0,0,0,1.89,5.68,6.53,6.53,0,0,0,5,1.94,17.1,17.1,0,0,0,6.78-1.43v2.87a17,17,0,0,1-3.23,1.06A18.15,18.15,0,0,1,190,368.83Zm-.87-19.32a5.25,5.25,0,0,0-4.08,1.67,7.68,7.68,0,0,0-1.79,4.61h11.1a7.07,7.07,0,0,0-1.36-4.66A4.77,4.77,0,0,0,189.11,349.52Z"/><path class="cls-2" d="M213,346.82a12.61,12.61,0,0,1,2.54.23l-.45,3a11,11,0,0,0-2.32-.29,5.66,5.66,0,0,0-4.41,2.09,7.63,7.63,0,0,0-1.83,5.21v11.39h-3.22V347.21h2.65l.37,3.93h.15a9.33,9.33,0,0,1,2.85-3.2A6.41,6.41,0,0,1,213,346.82Z"/><path class="cls-2" d="M219,366.39a2.88,2.88,0,0,1,.59-2,2.14,2.14,0,0,1,1.7-.67,2.29,2.29,0,0,1,1.75.67,2.77,2.77,0,0,1,.63,2,2.72,2.72,0,0,1-.64,1.94,2.54,2.54,0,0,1-3.38.07A2.65,2.65,0,0,1,219,366.39Z"/><path class="cls-2" d="M251.13,368.45V340.12h3.29v25.34h12.5v3Z"/><path class="cls-2" d="M289.57,357.81q0,5.19-2.62,8.11a9.21,9.21,0,0,1-7.23,2.92,9.57,9.57,0,0,1-5.06-1.34,8.82,8.82,0,0,1-3.41-3.84,13.37,13.37,0,0,1-1.2-5.85q0-5.19,2.6-8.09a9.18,9.18,0,0,1,7.21-2.9,9,9,0,0,1,7.08,3A11.66,11.66,0,0,1,289.57,357.81Zm-16.18,0A10.08,10.08,0,0,0,275,364a6.46,6.46,0,0,0,9.58,0q1.64-2.12,1.64-6.21t-1.64-6.15a5.75,5.75,0,0,0-4.83-2.1,5.66,5.66,0,0,0-4.77,2.07Q273.39,353.7,273.39,357.81Z"/><path class="cls-2" d="M303.69,368.83a9.06,9.06,0,0,1-7.14-2.84q-2.53-2.84-2.53-8t2.57-8.23a9.24,9.24,0,0,1,7.31-2.91,14.51,14.51,0,0,1,3.06.33,10.11,10.11,0,0,1,2.4.77l-1,2.73a15.14,15.14,0,0,0-2.33-.71,10.39,10.39,0,0,0-2.23-.28q-6.47,0-6.47,8.25a9.83,9.83,0,0,0,1.58,6,5.49,5.49,0,0,0,4.68,2.09,14.3,14.3,0,0,0,5.44-1.14v2.85A11.6,11.6,0,0,1,303.69,368.83Z"/><path class="cls-2" d="M327.15,368.45l-.64-3h-.16a8.93,8.93,0,0,1-3.17,2.7,9.65,9.65,0,0,1-3.94.71,7.09,7.09,0,0,1-5-1.63,5.93,5.93,0,0,1-1.79-4.63q0-6.43,10.29-6.74l3.6-.12V354.4a5.38,5.38,0,0,0-1.08-3.69,4.42,4.42,0,0,0-3.44-1.19,14,14,0,0,0-6,1.63l-1-2.46a15.14,15.14,0,0,1,3.44-1.34,14.92,14.92,0,0,1,3.75-.48q3.8,0,5.63,1.69t1.83,5.41v14.49Zm-7.27-2.27a6.53,6.53,0,0,0,4.72-1.65,6.09,6.09,0,0,0,1.71-4.61V358l-3.22.14a11.7,11.7,0,0,0-5.53,1.19,3.59,3.59,0,0,0-1.7,3.28,3.31,3.31,0,0,0,1.06,2.65A4.38,4.38,0,0,0,319.89,366.18Z"/><path class="cls-2" d="M339.38,368.45h-3.22V338.3h3.22Z"/><path class="cls-2" d="M360.28,368.45H357V340.12h15.79V343h-12.5v10.37H372v2.93H360.28Z"/><path class="cls-2" d="M390,368.45l-.64-3h-.16a8.93,8.93,0,0,1-3.17,2.7,9.65,9.65,0,0,1-3.94.71,7.09,7.09,0,0,1-5-1.63,5.93,5.93,0,0,1-1.79-4.63q0-6.43,10.29-6.74l3.6-.12V354.4a5.38,5.38,0,0,0-1.08-3.69,4.42,4.42,0,0,0-3.44-1.19,14,14,0,0,0-6,1.63l-1-2.46a15.14,15.14,0,0,1,3.44-1.34,14.92,14.92,0,0,1,3.75-.48q3.8,0,5.63,1.69t1.83,5.41v14.49Zm-7.27-2.27a6.53,6.53,0,0,0,4.72-1.65,6.09,6.09,0,0,0,1.71-4.61V358l-3.22.14a11.7,11.7,0,0,0-5.53,1.19,3.59,3.59,0,0,0-1.7,3.28,3.31,3.31,0,0,0,1.06,2.65A4.38,4.38,0,0,0,382.78,366.18Z"/><path class="cls-2" d="M408.94,346.86a7.89,7.89,0,0,1,6.5,2.86q2.32,2.86,2.32,8.09t-2.33,8.13a7.86,7.86,0,0,1-6.48,2.9,9.19,9.19,0,0,1-3.79-.77,7.13,7.13,0,0,1-2.88-2.35H402l-.68,2.73h-2.31V338.3h3.22v7.32q0,2.46-.16,4.42h.16A7.63,7.63,0,0,1,408.94,346.86Zm-.46,2.69q-3.29,0-4.75,1.89t-1.45,6.36q0,4.48,1.49,6.4t4.79,1.93A5,5,0,0,0,413,364a11.1,11.1,0,0,0,1.45-6.21q0-4.15-1.45-6.18A5.15,5.15,0,0,0,408.47,349.56Z"/><path class="cls-2" d="M433.06,346.82a12.61,12.61,0,0,1,2.54.23l-.45,3a10.94,10.94,0,0,0-2.32-.29,5.66,5.66,0,0,0-4.41,2.09,7.63,7.63,0,0,0-1.83,5.21v11.39h-3.22V347.21H426l.37,3.93h.15a9.33,9.33,0,0,1,2.85-3.2A6.41,6.41,0,0,1,433.06,346.82Z"/><path class="cls-2" d="M439.3,341.46a2.14,2.14,0,0,1,.54-1.62,2,2,0,0,1,2.69,0,2.1,2.1,0,0,1,.56,1.61,2.13,2.13,0,0,1-.56,1.62,1.88,1.88,0,0,1-1.34.53,1.86,1.86,0,0,1-1.36-.53A2.18,2.18,0,0,1,439.3,341.46Zm3.49,27h-3.22V347.21h3.22Z"/><path class="cls-2" d="M458.09,368.83a9.06,9.06,0,0,1-7.14-2.84q-2.53-2.84-2.53-8t2.57-8.23a9.24,9.24,0,0,1,7.31-2.91,14.51,14.51,0,0,1,3.06.33,10.12,10.12,0,0,1,2.4.77l-1,2.73a15.16,15.16,0,0,0-2.33-.71,10.4,10.4,0,0,0-2.23-.28q-6.47,0-6.47,8.25a9.83,9.83,0,0,0,1.58,6A5.49,5.49,0,0,0,458,366a14.3,14.3,0,0,0,5.44-1.14v2.85A11.6,11.6,0,0,1,458.09,368.83Z"/><path class="cls-2" d="M493.25,365.6h-.17a7.56,7.56,0,0,1-6.67,3.24,7.89,7.89,0,0,1-6.48-2.85q-2.31-2.85-2.32-8.1t2.33-8.16a7.82,7.82,0,0,1,6.47-2.91A7.72,7.72,0,0,1,493,350h.25l-.14-1.53-.08-1.49V338.3h3.22v30.15h-2.62Zm-6.43.54q3.29,0,4.78-1.79t1.48-5.78v-.68q0-4.51-1.5-6.44a5.7,5.7,0,0,0-4.79-1.93,4.92,4.92,0,0,0-4.33,2.2,10.94,10.94,0,0,0-1.5,6.21q0,4.07,1.49,6.14A5,5,0,0,0,486.82,366.14Z"/><path class="cls-2" d="M512.09,368.83a9.76,9.76,0,0,1-7.43-2.87q-2.72-2.87-2.72-8a12.31,12.31,0,0,1,2.53-8.16,8.4,8.4,0,0,1,6.79-3,8,8,0,0,1,6.32,2.63,10.06,10.06,0,0,1,2.33,6.93v2H505.27a8.42,8.42,0,0,0,1.89,5.68,6.53,6.53,0,0,0,5,1.94,17.1,17.1,0,0,0,6.78-1.43v2.87a17,17,0,0,1-3.23,1.06A18.14,18.14,0,0,1,512.09,368.83Zm-.87-19.32a5.25,5.25,0,0,0-4.08,1.67,7.68,7.68,0,0,0-1.79,4.61h11.1a7.08,7.08,0,0,0-1.36-4.66A4.77,4.77,0,0,0,511.22,349.52Z"/><path class="cls-2" d="M535.26,368.83a9.19,9.19,0,0,1-3.79-.77,7.13,7.13,0,0,1-2.88-2.35h-.23a28.43,28.43,0,0,1,.23,3.53V378h-3.22V347.21H528l.45,2.91h.16a7.47,7.47,0,0,1,2.89-2.52,8.78,8.78,0,0,1,3.78-.77,7.85,7.85,0,0,1,6.52,2.89q2.3,2.89,2.3,8.1t-2.33,8.13A7.86,7.86,0,0,1,535.26,368.83Zm-.46-19.28q-3.25,0-4.71,1.8t-1.49,5.74v.72q0,4.48,1.49,6.4t4.79,1.93a5,5,0,0,0,4.31-2.23,10.57,10.57,0,0,0,1.56-6.14,10.18,10.18,0,0,0-1.56-6.09A5.13,5.13,0,0,0,534.79,349.56Z"/><path class="cls-2" d="M552.91,368.45h-3.22V338.3h3.22Z"/><path class="cls-2" d="M578.06,357.81q0,5.19-2.62,8.11a9.21,9.21,0,0,1-7.23,2.92,9.57,9.57,0,0,1-5.06-1.34,8.82,8.82,0,0,1-3.41-3.84,13.37,13.37,0,0,1-1.2-5.85q0-5.19,2.6-8.09a9.18,9.18,0,0,1,7.21-2.9,9,9,0,0,1,7.08,3A11.67,11.67,0,0,1,578.06,357.81Zm-16.18,0a10.08,10.08,0,0,0,1.63,6.2,6.46,6.46,0,0,0,9.58,0q1.64-2.12,1.64-6.21t-1.64-6.15a5.75,5.75,0,0,0-4.83-2.1,5.66,5.66,0,0,0-4.77,2.07Q561.88,353.7,561.88,357.81Z"/><path class="cls-2" d="M580.32,347.21h3.45l4.65,12.11a46.3,46.3,0,0,1,1.9,6h.16q.25-1,1.06-3.38t5.26-14.72h3.45l-9.13,24.18a12.06,12.06,0,0,1-3.17,5.09,6.73,6.73,0,0,1-4.45,1.5,12.93,12.93,0,0,1-2.91-.33v-2.58a11.22,11.22,0,0,0,2.38.23q3.31,0,4.73-3.72l1.18-3Z"/><path class="cls-2" d="M603.23,366.39a2.88,2.88,0,0,1,.59-2,2.14,2.14,0,0,1,1.7-.67,2.29,2.29,0,0,1,1.75.67,2.77,2.77,0,0,1,.63,2,2.71,2.71,0,0,1-.64,1.94,2.54,2.54,0,0,1-3.38.07A2.65,2.65,0,0,1,603.23,366.39Z"/><path class="cls-3" d="M162.36,479.75h216a16.56,16.56,0,0,1,16.56,16.56V663.13a0,0,0,0,1,0,0H145.8a0,0,0,0,1,0,0V496.31A16.56,16.56,0,0,1,162.36,479.75Z"/><rect class="cls-4" x="153.36" y="499.94" width="233.9" height="154.87"/><g id="Layer_2" data-name="Layer 2"><g id="Layer_1-2" data-name="Layer 1-2"><path class="cls-5" d="M240,607.08a7.42,7.42,0,0,0-9.7-4l-6.87,2.85-24.2-58.35a9.28,9.28,0,0,0,2.86-10.85l-4.69-11.32-17.14,7.11L185,543.82a9.28,9.28,0,0,0,9.7,5.64l24.2,58.35L212,610.65a7.42,7.42,0,0,0-4,9.67l2.92,6H246.6Z"/><polygon class="cls-5" points="356.75 629.17 356.75 539.67 360.15 539.67 360.15 528.79 278.2 528.79 278.2 539.67 281.91 539.67 282 548.16 272.17 548.34 272.17 629.17 169.97 629.17 169.97 632.26 374.69 632.26 374.69 629.17 356.75 629.17"/><circle class="cls-6" cx="190.01" cy="613.65" r="1.34" transform="translate(-430.74 778.98) rotate(-87.71)"/><line class="cls-7" x1="191.51" y1="603.87" x2="177.38" y2="598.54"/><line class="cls-7" x1="189.34" y1="583.69" x2="194.99" y2="590.26"/><line class="cls-7" x1="197.72" y1="593.43" x2="199.3" y2="595.27"/><circle class="cls-8" cx="230.31" cy="584.48" r="1.37" transform="translate(-384.76 456.62) rotate(-56.75)"/><line class="cls-7" x1="251.75" y1="575.87" x2="239.87" y2="590.58"/><line class="cls-7" x1="257.94" y1="594.99" x2="247.26" y2="598.75"/><line class="cls-9" x1="365.61" y1="626.29" x2="371.6" y2="626.29"/><polyline class="cls-9" points="166.87 626.29 269.08 626.51 269.08 545.25 283.84 545.05 283.84 555.28 298.6 555.28 298.6 545.05 313.36 545.05 313.36 555.28 328.12 555.28 328.12 545.05 343.19 545.25 343.19 626.29 358.81 626.29"/><rect class="cls-9" x="203.58" y="543.57" width="4.95" height="62.28" transform="translate(-204.48 122.81) rotate(-22.53)"/><rect class="cls-9" x="192.85" y="545.7" width="4.95" height="6.32" transform="translate(-195.4 116.73) rotate(-22.53)"/><rect class="cls-9" x="210.44" y="578.03" width="4.95" height="26.45" transform="translate(-210.3 126.71) rotate(-22.53)"/><path class="cls-9" d="M207.86,623.21l-3-6a7.42,7.42,0,0,1,4-9.7L227.23,600a7.42,7.42,0,0,1,9.7,4l6.6,19.22"/><path class="cls-9" d="M177.21,529.4l17.14-7.11h0l4.7,11.32a9.28,9.28,0,0,1-5,12.12h0a9.28,9.28,0,0,1-12.12-5l-4.7-11.32Z"/><rect class="cls-9" x="177.31" y="525.68" width="18.55" height="4.21" transform="translate(-187.99 111.77) rotate(-22.53)"/><rect class="cls-4" x="291.19" y="588.35" width="36.49" height="40.82"/><polyline class="cls-9" points="288.41 626.39 288.41 585.57 324.28 585.57 324.28 610.3"/><line class="cls-9" x1="324.28" y1="621.13" x2="324.28" y2="626.39"/><line class="cls-9" x1="324.28" y1="614.33" x2="324.28" y2="617"/><polyline class="cls-9" points="353.35 623.21 353.35 536.58 357.06 536.58 357.06 525.7 275.11 525.7 275.11 536.58 278.82 536.58 278.82 540.87"/><line class="cls-9" x1="348.71" y1="536.7" x2="283.77" y2="536.7"/></g></g><circle class="cls-4" cx="159.16" cy="490.04" r="3.71"/><circle class="cls-4" cx="169.97" cy="490.04" r="3.71"/><circle class="cls-4" cx="180.3" cy="490.04" r="3.71"/><circle class="cls-10" cx="393.15" cy="499.29" r="60.33"/><path class="cls-4" d="M435.74,490.86c.57-4.19-7.24-10.87-7.24-10.87s-7.05,7.63-1.53,17c-1.72,2.48-3.62,2.29-7.43,2.67H351.93s-4.45,32.57,35.58,32.57c37.17-1.88,45.94-31.52,45.94-31.52,11.21,1.3,14.49-7.92,14.49-7.92A16.65,16.65,0,0,0,435.74,490.86Zm-57.66,26.55a2.81,2.81,0,1,1,2.81-2.82h0A2.81,2.81,0,0,1,378.08,517.41Z"/><rect class="cls-4" x="363.99" y="482.97" width="15.25" height="15.25"/><rect class="cls-4" x="380.89" y="482.97" width="15.25" height="15.25"/><rect class="cls-4" x="397.8" y="482.97" width="15.25" height="15.25"/><rect class="cls-4" x="380.89" y="466.38" width="15.25" height="15.25"/><circle class="cls-11" cx="403.94" cy="583.16" r="3.91"/><circle class="cls-11" cx="416.52" cy="583.16" r="3.91"/><circle class="cls-11" cx="429.45" cy="583.16" r="3.91"/><circle class="cls-11" cx="442.23" cy="583.16" r="3.91"/><path class="cls-11" d="M452.85,569.84h16.42v5h-11v5h10.19v5H458.24v9.54h-5.39Z"/><path class="cls-11" d="M483,592.2h-.07a4.88,4.88,0,0,1-2.3,1.93,7.91,7.91,0,0,1-3,.59,7.81,7.81,0,0,1-2.26-.33,5.72,5.72,0,0,1-1.92-1,4.74,4.74,0,0,1-1.31-1.62,5,5,0,0,1-.48-2.25,5.15,5.15,0,0,1,.54-2.45,4.79,4.79,0,0,1,1.45-1.66,7.2,7.2,0,0,1,2.09-1,15.32,15.32,0,0,1,2.44-.54,23.36,23.36,0,0,1,2.52-.21q1.26,0,2.33,0a2.69,2.69,0,0,0-1-2.19,3.55,3.55,0,0,0-2.33-.81,5.08,5.08,0,0,0-2.33.54,6.37,6.37,0,0,0-1.88,1.47l-2.76-2.83a9.52,9.52,0,0,1,3.39-2,12.11,12.11,0,0,1,4-.67,10.49,10.49,0,0,1,3.75.57,5.45,5.45,0,0,1,2.35,1.68,6.46,6.46,0,0,1,1.23,2.71,17.8,17.8,0,0,1,.35,3.72v8.54H483Zm-1.28-5.25q-.59,0-1.47.05a7.48,7.48,0,0,0-1.69.29,3.79,3.79,0,0,0-1.38.73,1.67,1.67,0,0,0-.57,1.35,1.48,1.48,0,0,0,.79,1.38,3.32,3.32,0,0,0,1.66.45,5.23,5.23,0,0,0,1.47-.21,4.38,4.38,0,0,0,1.26-.59,2.84,2.84,0,0,0,.88-1A2.78,2.78,0,0,0,483,588v-1.11Z"/><path class="cls-11" d="M491.52,568.18h5.18v11.13h.07a4.84,4.84,0,0,1,2.3-1.71,8.91,8.91,0,0,1,3-.5,6.82,6.82,0,0,1,3.21.74,7.45,7.45,0,0,1,2.4,2,9.3,9.3,0,0,1,1.52,2.85,10.57,10.57,0,0,1,.54,3.37,10,10,0,0,1-.59,3.49,8,8,0,0,1-1.68,2.75,7.55,7.55,0,0,1-2.61,1.8,8.66,8.66,0,0,1-3.39.64,5.78,5.78,0,0,1-1.69-.24,7.27,7.27,0,0,1-1.47-.62,6.14,6.14,0,0,1-1.17-.85,5.78,5.78,0,0,1-.81-.92h-.07v2.21h-4.77Zm4.77,17.73a4.35,4.35,0,0,0,1.09,3.08,4.57,4.57,0,0,0,6.12,0,4.89,4.89,0,0,0,0-6.15,4.57,4.57,0,0,0-6.12,0A4.35,4.35,0,0,0,496.28,585.91Z"/><path class="cls-11" d="M512.8,577.51H518v2.7h.07a6.38,6.38,0,0,1,2-2.33,5,5,0,0,1,2.87-.78q.45,0,.9,0a4.48,4.48,0,0,1,.83.14V582a8,8,0,0,0-1.09-.26,7.17,7.17,0,0,0-1.12-.09,5.51,5.51,0,0,0-2.35.42,3.11,3.11,0,0,0-1.33,1.16,4.39,4.39,0,0,0-.61,1.78,17.41,17.41,0,0,0-.14,2.28v7H512.8Z"/><path class="cls-11" d="M526.52,572.22a3,3,0,1,1,.88,2.13A2.89,2.89,0,0,1,526.52,572.22Zm.41,5.29h5.18V594.3h-5.18Z"/><path class="cls-11" d="M547.22,582.93a2.91,2.91,0,0,0-1.07-.92,3.15,3.15,0,0,0-1.49-.36,4,4,0,0,0-3.06,1.18,4.89,4.89,0,0,0,0,6.15,4,4,0,0,0,3.06,1.18,2.79,2.79,0,0,0,1.49-.38,4.52,4.52,0,0,0,1.07-.9l3.42,3.59a6.61,6.61,0,0,1-2.85,1.75,10.75,10.75,0,0,1-3.13.5,10.6,10.6,0,0,1-3.65-.62,8.77,8.77,0,0,1-3-1.78,8.32,8.32,0,0,1-2-2.78,9.44,9.44,0,0,1,0-7.26,8.34,8.34,0,0,1,2-2.78,8.76,8.76,0,0,1,3-1.78,10.6,10.6,0,0,1,3.65-.62,10.72,10.72,0,0,1,3.13.5,6.62,6.62,0,0,1,2.85,1.75Z"/></svg>