<?xml version="1.0" ?>
<svg
  xmlns="http://www.w3.org/2000/svg"
  viewBox="0 0 1184 1000"
  preserveAspectRatio="xMinYMin meet"
  width="100%"
  height="100%">
  <path
    d="M0 818q0-87 89-155t215-68l54 0q-42-40-42-86 0-29 16-58-10 1-29 1-104 0-170-65t-66-160q0-91 82-159t187-68l310 0l-69 50l-98 0q47 18 73.5 68t26.5 111q0 93-88 162-37 29-48 46t-11 42q0 19 27 48t54 49q61 43 84.5 88t23.5 113q0 90-82 156.5t-222 66.5q-133 0-225-50t-92-132zm112-33q0 69 58.5 117.5t145.5 48.5q119 0 172.5-44t53.5-117q0-19-4-32-3-11-7-20.5t-12-19-14-16-19.5-16.5-20.5-15-25-17.5-26-17.5q-39-12-77-12-90-1-157.5 47t-67.5 114zm66-559q11 79 60.5 136t109.5 58q59 2 94-52t25-133-59.5-134-109.5-57-95 51-25 131zm555 24l0-50l200 0l0-200l50 0l0 200l201 0l0 50l-201 0l0 201l-50 0l0-201l-200 0z" fill="#fff"></path>
</svg>
