<?xml version="1.0" encoding="UTF-8" standalone="no"?><svg xmlns="http://www.w3.org/2000/svg" xmlns:xlink="http://www.w3.org/1999/xlink" contentScriptType="application/ecmascript" contentStyleType="text/css" height="415px" preserveAspectRatio="none" style="width:436px;height:415px;" version="1.1" viewBox="0 0 436 415" width="436px" zoomAndPan="magnify"><defs/><g><!--class AdminConnection--><rect fill="#F8FAFA" height="406.0313" rx="1" ry="1" style="stroke: #E3ECEC; stroke-width: 1.5;" width="429" x="6" y="8"/><ellipse cx="146.25" cy="24" fill="#FFFFFF" rx="11" ry="11" style="stroke: #E3ECEC; stroke-width: 1.0;"/><path d="M148.6953,29.6641 Q148.1484,29.9453 147.5469,30.0859 Q146.9453,30.2266 146.2813,30.2266 Q143.9219,30.2266 142.6797,28.6719 Q141.4375,27.1172 141.4375,24.1797 Q141.4375,21.2344 142.6797,19.6797 Q143.9219,18.125 146.2813,18.125 Q146.9453,18.125 147.5547,18.2656 Q148.1641,18.4063 148.6953,18.6875 L148.6953,21.25 Q148.1016,20.7031 147.543,20.4492 Q146.9844,20.1953 146.3906,20.1953 Q145.125,20.1953 144.4805,21.1992 Q143.8359,22.2031 143.8359,24.1797 Q143.8359,26.1484 144.4805,27.1523 Q145.125,28.1563 146.3906,28.1563 Q146.9844,28.1563 147.543,27.9023 Q148.1016,27.6484 148.6953,27.1016 Z "/><text fill="#19273C" font-family="sans-serif" font-size="16" lengthAdjust="spacingAndGlyphs" textLength="140" x="166.75" y="30.0469">AdminConnection</text><line style="stroke: #E3ECEC; stroke-width: 1.5;" x1="7" x2="434" y1="40" y2="40"/><line style="stroke: #E3ECEC; stroke-width: 1.5;" x1="7" x2="434" y1="48" y2="48"/><ellipse cx="17" cy="62.4219" fill="#84BE84" rx="3" ry="3" style="stroke: #038048; stroke-width: 1.0;"/><text fill="#19273C" font-family="sans-serif" font-size="16" lengthAdjust="spacingAndGlyphs" textLength="403" x="26" y="67.4688">void constructor(Object,BusinessNetworkCardStore)</text><ellipse cx="17" cy="81.2656" fill="#84BE84" rx="3" ry="3" style="stroke: #038048; stroke-width: 1.0;"/><text fill="#19273C" font-family="sans-serif" font-size="16" lengthAdjust="spacingAndGlyphs" textLength="272" x="26" y="86.3125">Promise importCard(String,IdCard)</text><ellipse cx="17" cy="100.1094" fill="#84BE84" rx="3" ry="3" style="stroke: #038048; stroke-width: 1.0;"/><text fill="#19273C" font-family="sans-serif" font-size="16" lengthAdjust="spacingAndGlyphs" textLength="214" x="26" y="105.1563">Promise exportCard(String)</text><ellipse cx="17" cy="118.9531" fill="#84BE84" rx="3" ry="3" style="stroke: #038048; stroke-width: 1.0;"/><text fill="#19273C" font-family="sans-serif" font-size="16" lengthAdjust="spacingAndGlyphs" textLength="169" x="26" y="124">Promise getAllCards()</text><ellipse cx="17" cy="137.7969" fill="#84BE84" rx="3" ry="3" style="stroke: #038048; stroke-width: 1.0;"/><text fill="#19273C" font-family="sans-serif" font-size="16" lengthAdjust="spacingAndGlyphs" textLength="210" x="26" y="142.8438">Promise deleteCard(String)</text><ellipse cx="17" cy="156.6406" fill="#84BE84" rx="3" ry="3" style="stroke: #038048; stroke-width: 1.0;"/><text fill="#19273C" font-family="sans-serif" font-size="16" lengthAdjust="spacingAndGlyphs" textLength="189" x="26" y="161.6875">Promise hasCard(String)</text><ellipse cx="17" cy="175.4844" fill="#84BE84" rx="3" ry="3" style="stroke: #038048; stroke-width: 1.0;"/><text fill="#19273C" font-family="sans-serif" font-size="16" lengthAdjust="spacingAndGlyphs" textLength="186" x="26" y="180.5313">Promise connect(String)</text><ellipse cx="17" cy="194.3281" fill="#84BE84" rx="3" ry="3" style="stroke: #038048; stroke-width: 1.0;"/><text fill="#19273C" font-family="sans-serif" font-size="16" lengthAdjust="spacingAndGlyphs" textLength="162" x="26" y="199.375">Promise disconnect()</text><ellipse cx="17" cy="213.1719" fill="#84BE84" rx="3" ry="3" style="stroke: #038048; stroke-width: 1.0;"/><text fill="#19273C" font-family="sans-serif" font-size="16" lengthAdjust="spacingAndGlyphs" textLength="228" x="26" y="218.2188">Promise install(String,Object)</text><ellipse cx="17" cy="232.0156" fill="#84BE84" rx="3" ry="3" style="stroke: #038048; stroke-width: 1.0;"/><text fill="#19273C" font-family="sans-serif" font-size="16" lengthAdjust="spacingAndGlyphs" textLength="379" x="26" y="237.0625">Promise start(BusinessNetworkDefinition,Object)</text><ellipse cx="17" cy="250.8594" fill="#84BE84" rx="3" ry="3" style="stroke: #038048; stroke-width: 1.0;"/><text fill="#19273C" font-family="sans-serif" font-size="16" lengthAdjust="spacingAndGlyphs" textLength="395" x="26" y="255.9063">Promise deploy(BusinessNetworkDefinition,Object)</text><ellipse cx="17" cy="269.7031" fill="#84BE84" rx="3" ry="3" style="stroke: #038048; stroke-width: 1.0;"/><text fill="#19273C" font-family="sans-serif" font-size="16" lengthAdjust="spacingAndGlyphs" textLength="197" x="26" y="274.75">Promise undeploy(String)</text><ellipse cx="17" cy="288.5469" fill="#84BE84" rx="3" ry="3" style="stroke: #038048; stroke-width: 1.0;"/><text fill="#19273C" font-family="sans-serif" font-size="16" lengthAdjust="spacingAndGlyphs" textLength="342" x="26" y="293.5938">Promise update(BusinessNetworkDefinition)</text><ellipse cx="17" cy="307.3906" fill="#84BE84" rx="3" ry="3" style="stroke: #038048; stroke-width: 1.0;"/><text fill="#19273C" font-family="sans-serif" font-size="16" lengthAdjust="spacingAndGlyphs" textLength="164" x="26" y="312.4375">Promise reset(String)</text><ellipse cx="17" cy="326.2344" fill="#84BE84" rx="3" ry="3" style="stroke: #038048; stroke-width: 1.0;"/><text fill="#19273C" font-family="sans-serif" font-size="16" lengthAdjust="spacingAndGlyphs" textLength="242" x="26" y="331.2813">Promise upgrade(string,object)</text><ellipse cx="17" cy="345.0781" fill="#84BE84" rx="3" ry="3" style="stroke: #038048; stroke-width: 1.0;"/><text fill="#19273C" font-family="sans-serif" font-size="16" lengthAdjust="spacingAndGlyphs" textLength="113" x="26" y="350.125">Promise ping()</text><ellipse cx="17" cy="363.9219" fill="#84BE84" rx="3" ry="3" style="stroke: #038048; stroke-width: 1.0;"/><text fill="#19273C" font-family="sans-serif" font-size="16" lengthAdjust="spacingAndGlyphs" textLength="197" x="26" y="368.9688">Promise setLogLevel(any)</text><ellipse cx="17" cy="382.7656" fill="#84BE84" rx="3" ry="3" style="stroke: #038048; stroke-width: 1.0;"/><text fill="#19273C" font-family="sans-serif" font-size="16" lengthAdjust="spacingAndGlyphs" textLength="172" x="26" y="387.8125">Promise getLogLevel()</text><ellipse cx="17" cy="401.6094" fill="#84BE84" rx="3" ry="3" style="stroke: #038048; stroke-width: 1.0;"/><text fill="#19273C" font-family="sans-serif" font-size="16" lengthAdjust="spacingAndGlyphs" textLength="102" x="26" y="406.6563">Promise list()</text></g></svg>