<?xml version="1.0" encoding="UTF-8" standalone="no"?><svg xmlns="http://www.w3.org/2000/svg" xmlns:xlink="http://www.w3.org/1999/xlink" contentScriptType="application/ecmascript" contentStyleType="text/css" height="170px" preserveAspectRatio="none" style="width:243px;height:170px;" version="1.1" viewBox="0 0 243 170" width="243px" zoomAndPan="magnify"><defs/><g><!--class BusinessNetworkMetadata--><rect fill="#F8FAFA" height="161.0625" rx="1" ry="1" style="stroke: #E3ECEC; stroke-width: 1.5;" width="236" x="6" y="8"/><ellipse cx="21" cy="24" fill="#FFFFFF" rx="11" ry="11" style="stroke: #E3ECEC; stroke-width: 1.0;"/><path d="M23.4453,29.6641 Q22.8984,29.9453 22.2969,30.0859 Q21.6953,30.2266 21.0313,30.2266 Q18.6719,30.2266 17.4297,28.6719 Q16.1875,27.1172 16.1875,24.1797 Q16.1875,21.2344 17.4297,19.6797 Q18.6719,18.125 21.0313,18.125 Q21.6953,18.125 22.3047,18.2656 Q22.9141,18.4063 23.4453,18.6875 L23.4453,21.25 Q22.8516,20.7031 22.293,20.4492 Q21.7344,20.1953 21.1406,20.1953 Q19.875,20.1953 19.2305,21.1992 Q18.5859,22.2031 18.5859,24.1797 Q18.5859,26.1484 19.2305,27.1523 Q19.875,28.1563 21.1406,28.1563 Q21.7344,28.1563 22.293,27.9023 Q22.8516,27.6484 23.4453,27.1016 Z "/><text fill="#19273C" font-family="sans-serif" font-size="16" lengthAdjust="spacingAndGlyphs" textLength="204" x="35" y="30.0469">BusinessNetworkMetadata</text><line style="stroke: #E3ECEC; stroke-width: 1.5;" x1="7" x2="241" y1="40" y2="40"/><line style="stroke: #E3ECEC; stroke-width: 1.5;" x1="7" x2="241" y1="48" y2="48"/><ellipse cx="17" cy="62.4219" fill="#84BE84" rx="3" ry="3" style="stroke: #038048; stroke-width: 1.0;"/><text fill="#19273C" font-family="sans-serif" font-size="16" lengthAdjust="spacingAndGlyphs" textLength="152" x="26" y="67.4688">String getREADME()</text><ellipse cx="17" cy="81.2656" fill="#84BE84" rx="3" ry="3" style="stroke: #038048; stroke-width: 1.0;"/><text fill="#19273C" font-family="sans-serif" font-size="16" lengthAdjust="spacingAndGlyphs" textLength="184" x="26" y="86.3125">object getPackageJson()</text><ellipse cx="17" cy="100.1094" fill="#84BE84" rx="3" ry="3" style="stroke: #038048; stroke-width: 1.0;"/><text fill="#19273C" font-family="sans-serif" font-size="16" lengthAdjust="spacingAndGlyphs" textLength="132" x="26" y="105.1563">String getName()</text><ellipse cx="17" cy="118.9531" fill="#84BE84" rx="3" ry="3" style="stroke: #038048; stroke-width: 1.0;"/><text fill="#19273C" font-family="sans-serif" font-size="16" lengthAdjust="spacingAndGlyphs" textLength="177" x="26" y="124">String getDescription()</text><ellipse cx="17" cy="137.7969" fill="#84BE84" rx="3" ry="3" style="stroke: #038048; stroke-width: 1.0;"/><text fill="#19273C" font-family="sans-serif" font-size="16" lengthAdjust="spacingAndGlyphs" textLength="146" x="26" y="142.8438">String getVersion()</text><ellipse cx="17" cy="156.6406" fill="#84BE84" rx="3" ry="3" style="stroke: #038048; stroke-width: 1.0;"/><text fill="#19273C" font-family="sans-serif" font-size="16" lengthAdjust="spacingAndGlyphs" textLength="159" x="26" y="161.6875">String getIdentifier()</text></g></svg>