<?xml version="1.0" encoding="UTF-8" standalone="no"?><svg xmlns="http://www.w3.org/2000/svg" xmlns:xlink="http://www.w3.org/1999/xlink" contentScriptType="application/ecmascript" contentStyleType="text/css" height="649px" preserveAspectRatio="none" style="width:435px;height:649px;" version="1.1" viewBox="0 0 435 649" width="435px" zoomAndPan="magnify"><defs/><g><!--class ClassDeclaration--><rect fill="#F8FAFA" height="532.25" rx="1" ry="1" style="stroke: #E3ECEC; stroke-width: 1.5;" width="428" x="6" y="8"/><ellipse cx="151.75" cy="24" fill="#FFFFFF" rx="11" ry="11" style="stroke: #E3ECEC; stroke-width: 1.0;"/><path d="M154.2031,29.6563 Q153.6563,29.9375 153.0547,30.0859 Q152.4531,30.2344 151.7813,30.2344 Q149.4219,30.2344 148.1797,28.6719 Q146.9375,27.1094 146.9375,24.1719 Q146.9375,21.2344 148.1797,19.6797 Q149.4219,18.125 151.7813,18.125 Q152.4531,18.125 153.0625,18.2656 Q153.6719,18.4063 154.2031,18.6875 L154.2031,21.25 Q153.6094,20.7031 153.0469,20.4453 Q152.4844,20.1875 151.8906,20.1875 Q150.625,20.1875 149.9844,21.1953 Q149.3438,22.2031 149.3438,24.1719 Q149.3438,26.1406 149.9844,27.1484 Q150.625,28.1563 151.8906,28.1563 Q152.4844,28.1563 153.0469,27.8984 Q153.6094,27.6406 154.2031,27.0938 L154.2031,29.6563 Z "/><text fill="#19273C" font-family="sans-serif" font-size="16" lengthAdjust="spacingAndGlyphs" textLength="128" x="172.25" y="29.5391">ClassDeclaration</text><line style="stroke: #E3ECEC; stroke-width: 1.5;" x1="7" x2="433" y1="40" y2="40"/><line style="stroke: #E3ECEC; stroke-width: 1.5;" x1="7" x2="433" y1="48" y2="48"/><ellipse cx="17" cy="62.3125" fill="#84BE84" rx="3" ry="3" style="stroke: #038048; stroke-width: 1.0;"/><text fill="#19273C" font-family="sans-serif" font-size="16" lengthAdjust="spacingAndGlyphs" textLength="261" x="26" y="66.8516">void constructor(ModelFile,string)</text><ellipse cx="17" cy="80.9375" fill="#84BE84" rx="3" ry="3" style="stroke: #038048; stroke-width: 1.0;"/><text fill="#19273C" font-family="sans-serif" font-size="16" lengthAdjust="spacingAndGlyphs" textLength="180" x="26" y="85.4766">ModelFile getModelFile()</text><ellipse cx="17" cy="99.5625" fill="#84BE84" rx="3" ry="3" style="stroke: #038048; stroke-width: 1.0;"/><text fill="#19273C" font-family="sans-serif" font-size="16" lengthAdjust="spacingAndGlyphs" textLength="292" x="26" y="104.1016">ClassDeclaration _resolveSuperType()</text><ellipse cx="17" cy="118.1875" fill="#84BE84" rx="3" ry="3" style="stroke: #038048; stroke-width: 1.0;"/><text fill="#19273C" font-family="sans-serif" font-size="16" lengthAdjust="spacingAndGlyphs" textLength="182" x="26" y="122.7266">string getSystemType()</text><ellipse cx="17" cy="136.8125" fill="#84BE84" rx="3" ry="3" style="stroke: #038048; stroke-width: 1.0;"/><text fill="#19273C" font-family="sans-serif" font-size="16" lengthAdjust="spacingAndGlyphs" textLength="157" x="26" y="141.3516">boolean isAbstract()</text><ellipse cx="17" cy="155.4375" fill="#84BE84" rx="3" ry="3" style="stroke: #038048; stroke-width: 1.0;"/><text fill="#19273C" font-family="sans-serif" font-size="16" lengthAdjust="spacingAndGlyphs" textLength="135" x="26" y="159.9766">boolean isEnum()</text><ellipse cx="17" cy="174.0625" fill="#84BE84" rx="3" ry="3" style="stroke: #038048; stroke-width: 1.0;"/><text fill="#19273C" font-family="sans-serif" font-size="16" lengthAdjust="spacingAndGlyphs" textLength="155" x="26" y="178.6016">boolean isConcept()</text><ellipse cx="17" cy="192.6875" fill="#84BE84" rx="3" ry="3" style="stroke: #038048; stroke-width: 1.0;"/><text fill="#19273C" font-family="sans-serif" font-size="16" lengthAdjust="spacingAndGlyphs" textLength="134" x="26" y="197.2266">boolean isEvent()</text><ellipse cx="17" cy="211.3125" fill="#84BE84" rx="3" ry="3" style="stroke: #038048; stroke-width: 1.0;"/><text fill="#19273C" font-family="sans-serif" font-size="16" lengthAdjust="spacingAndGlyphs" textLength="233" x="26" y="215.8516">boolean isRelationshipTarget()</text><ellipse cx="17" cy="229.9375" fill="#84BE84" rx="3" ry="3" style="stroke: #038048; stroke-width: 1.0;"/><text fill="#19273C" font-family="sans-serif" font-size="16" lengthAdjust="spacingAndGlyphs" textLength="291" x="26" y="234.4766">boolean isSystemRelationshipTarget()</text><ellipse cx="17" cy="248.5625" fill="#84BE84" rx="3" ry="3" style="stroke: #038048; stroke-width: 1.0;"/><text fill="#19273C" font-family="sans-serif" font-size="16" lengthAdjust="spacingAndGlyphs" textLength="185" x="26" y="253.1016">boolean isSystemType()</text><ellipse cx="17" cy="267.1875" fill="#84BE84" rx="3" ry="3" style="stroke: #038048; stroke-width: 1.0;"/><text fill="#19273C" font-family="sans-serif" font-size="16" lengthAdjust="spacingAndGlyphs" textLength="222" x="26" y="271.7266">boolean isSystemCoreType()</text><ellipse cx="17" cy="285.8125" fill="#84BE84" rx="3" ry="3" style="stroke: #038048; stroke-width: 1.0;"/><text fill="#19273C" font-family="sans-serif" font-size="16" lengthAdjust="spacingAndGlyphs" textLength="132" x="26" y="290.3516">string getName()</text><ellipse cx="17" cy="304.4375" fill="#84BE84" rx="3" ry="3" style="stroke: #038048; stroke-width: 1.0;"/><text fill="#19273C" font-family="sans-serif" font-size="16" lengthAdjust="spacingAndGlyphs" textLength="179" x="26" y="308.9766">String getNamespace()</text><ellipse cx="17" cy="323.0625" fill="#84BE84" rx="3" ry="3" style="stroke: #038048; stroke-width: 1.0;"/><text fill="#19273C" font-family="sans-serif" font-size="16" lengthAdjust="spacingAndGlyphs" textLength="232" x="26" y="327.6016">string getFullyQualifiedName()</text><ellipse cx="17" cy="341.6875" fill="#84BE84" rx="3" ry="3" style="stroke: #038048; stroke-width: 1.0;"/><text fill="#19273C" font-family="sans-serif" font-size="16" lengthAdjust="spacingAndGlyphs" textLength="234" x="26" y="346.2266">string getIdentifierFieldName()</text><ellipse cx="17" cy="360.3125" fill="#84BE84" rx="3" ry="3" style="stroke: #038048; stroke-width: 1.0;"/><text fill="#19273C" font-family="sans-serif" font-size="16" lengthAdjust="spacingAndGlyphs" textLength="259" x="26" y="364.8516">Property getOwnProperty(string)</text><ellipse cx="17" cy="378.9375" fill="#84BE84" rx="3" ry="3" style="stroke: #038048; stroke-width: 1.0;"/><text fill="#19273C" font-family="sans-serif" font-size="16" lengthAdjust="spacingAndGlyphs" textLength="238" x="26" y="383.4766">Property[] getOwnProperties()</text><ellipse cx="17" cy="397.5625" fill="#84BE84" rx="3" ry="3" style="stroke: #038048; stroke-width: 1.0;"/><text fill="#19273C" font-family="sans-serif" font-size="16" lengthAdjust="spacingAndGlyphs" textLength="170" x="26" y="402.1016">string getSuperType()</text><ellipse cx="17" cy="416.1875" fill="#84BE84" rx="3" ry="3" style="stroke: #038048; stroke-width: 1.0;"/><text fill="#19273C" font-family="sans-serif" font-size="16" lengthAdjust="spacingAndGlyphs" textLength="340" x="26" y="420.7266">ClassDeclaration getSuperTypeDeclaration()</text><ellipse cx="17" cy="434.8125" fill="#84BE84" rx="3" ry="3" style="stroke: #038048; stroke-width: 1.0;"/><text fill="#19273C" font-family="sans-serif" font-size="16" lengthAdjust="spacingAndGlyphs" textLength="402" x="26" y="439.3516">ClassDeclaration[] getAssignableClassDeclarations()</text><ellipse cx="17" cy="453.4375" fill="#84BE84" rx="3" ry="3" style="stroke: #038048; stroke-width: 1.0;"/><text fill="#19273C" font-family="sans-serif" font-size="16" lengthAdjust="spacingAndGlyphs" textLength="378" x="26" y="457.9766">ClassDeclaration[] getAllSuperTypeDeclarations()</text><ellipse cx="17" cy="472.0625" fill="#84BE84" rx="3" ry="3" style="stroke: #038048; stroke-width: 1.0;"/><text fill="#19273C" font-family="sans-serif" font-size="16" lengthAdjust="spacingAndGlyphs" textLength="223" x="26" y="476.6016">Property getProperty(string)</text><ellipse cx="17" cy="490.6875" fill="#84BE84" rx="3" ry="3" style="stroke: #038048; stroke-width: 1.0;"/><text fill="#19273C" font-family="sans-serif" font-size="16" lengthAdjust="spacingAndGlyphs" textLength="202" x="26" y="495.2266">Property[] getProperties()</text><ellipse cx="17" cy="509.3125" fill="#84BE84" rx="3" ry="3" style="stroke: #038048; stroke-width: 1.0;"/><text fill="#19273C" font-family="sans-serif" font-size="16" lengthAdjust="spacingAndGlyphs" textLength="278" x="26" y="513.8516">Property getNestedProperty(string)</text><ellipse cx="17" cy="527.9375" fill="#84BE84" rx="3" ry="3" style="stroke: #038048; stroke-width: 1.0;"/><text fill="#19273C" font-family="sans-serif" font-size="16" lengthAdjust="spacingAndGlyphs" textLength="125" x="26" y="532.4766">String toString()</text><!--class Decorated--><rect fill="#F8FAFA" height="48" rx="1" ry="1" style="stroke: #E3ECEC; stroke-width: 1.5;" width="113" x="163.25" y="600"/><ellipse cx="178.25" cy="616" fill="#FFFFFF" rx="11" ry="11" style="stroke: #E3ECEC; stroke-width: 1.0;"/><path d="M180.7031,621.6563 Q180.1563,621.9375 179.5547,622.0859 Q178.9531,622.2344 178.2813,622.2344 Q175.9219,622.2344 174.6797,620.6719 Q173.4375,619.1094 173.4375,616.1719 Q173.4375,613.2344 174.6797,611.6797 Q175.9219,610.125 178.2813,610.125 Q178.9531,610.125 179.5625,610.2656 Q180.1719,610.4063 180.7031,610.6875 L180.7031,613.25 Q180.1094,612.7031 179.5469,612.4453 Q178.9844,612.1875 178.3906,612.1875 Q177.125,612.1875 176.4844,613.1953 Q175.8438,614.2031 175.8438,616.1719 Q175.8438,618.1406 176.4844,619.1484 Q177.125,620.1563 178.3906,620.1563 Q178.9844,620.1563 179.5469,619.8984 Q180.1094,619.6406 180.7031,619.0938 L180.7031,621.6563 Z "/><text fill="#19273C" font-family="sans-serif" font-size="16" lengthAdjust="spacingAndGlyphs" textLength="81" x="192.25" y="621.5391">Decorated</text><line style="stroke: #E3ECEC; stroke-width: 1.5;" x1="164.25" x2="275.25" y1="632" y2="632"/><line style="stroke: #E3ECEC; stroke-width: 1.5;" x1="164.25" x2="275.25" y1="640" y2="640"/><path d="M219.5,540.087 C219.5,554.5947 219.5,567.9254 219.5,579.4599 " fill="none" style="stroke: #3C6DF0; stroke-width: 1.0;"/><polygon fill="none" points="226.5,579.835,219.5,599.8349,212.5,579.8349,226.5,579.835" style="stroke: #3C6DF0; stroke-width: 1.0;"/></g></svg>