<?xml version="1.0" encoding="UTF-8" standalone="no"?><svg xmlns="http://www.w3.org/2000/svg" xmlns:xlink="http://www.w3.org/1999/xlink" contentScriptType="application/ecmascript" contentStyleType="text/css" height="184px" preserveAspectRatio="none" style="width:188px;height:184px;" version="1.1" viewBox="0 0 188 184" width="188px" zoomAndPan="magnify"><defs/><g><!--class Concept--><rect fill="#F8FAFA" height="66.8438" rx="1" ry="1" style="stroke: #E3ECEC; stroke-width: 1.5;" width="181" x="6" y="8"/><ellipse cx="60.25" cy="24" fill="#FFFFFF" rx="11" ry="11" style="stroke: #E3ECEC; stroke-width: 1.0;"/><path d="M62.6953,29.6641 Q62.1484,29.9453 61.5469,30.0859 Q60.9453,30.2266 60.2813,30.2266 Q57.9219,30.2266 56.6797,28.6719 Q55.4375,27.1172 55.4375,24.1797 Q55.4375,21.2344 56.6797,19.6797 Q57.9219,18.125 60.2813,18.125 Q60.9453,18.125 61.5547,18.2656 Q62.1641,18.4063 62.6953,18.6875 L62.6953,21.25 Q62.1016,20.7031 61.543,20.4492 Q60.9844,20.1953 60.3906,20.1953 Q59.125,20.1953 58.4805,21.1992 Q57.8359,22.2031 57.8359,24.1797 Q57.8359,26.1484 58.4805,27.1523 Q59.125,28.1563 60.3906,28.1563 Q60.9844,28.1563 61.543,27.9023 Q62.1016,27.6484 62.6953,27.1016 Z "/><text fill="#19273C" font-family="sans-serif" font-size="16" lengthAdjust="spacingAndGlyphs" textLength="64" x="80.75" y="30.0469">Concept</text><line style="stroke: #E3ECEC; stroke-width: 1.5;" x1="7" x2="186" y1="40" y2="40"/><line style="stroke: #E3ECEC; stroke-width: 1.5;" x1="7" x2="186" y1="48" y2="48"/><ellipse cx="17" cy="62.4219" fill="#84BE84" rx="3" ry="3" style="stroke: #038048; stroke-width: 1.0;"/><text fill="#19273C" font-family="sans-serif" font-size="16" lengthAdjust="spacingAndGlyphs" textLength="155" x="26" y="67.4688">boolean isConcept()</text><!--class Typed--><rect fill="#F8FAFA" height="48" rx="1" ry="1" style="stroke: #E3ECEC; stroke-width: 1.5;" width="79" x="57" y="135"/><ellipse cx="72" cy="151" fill="#FFFFFF" rx="11" ry="11" style="stroke: #E3ECEC; stroke-width: 1.0;"/><path d="M74.4453,156.6641 Q73.8984,156.9453 73.2969,157.0859 Q72.6953,157.2266 72.0313,157.2266 Q69.6719,157.2266 68.4297,155.6719 Q67.1875,154.1172 67.1875,151.1797 Q67.1875,148.2344 68.4297,146.6797 Q69.6719,145.125 72.0313,145.125 Q72.6953,145.125 73.3047,145.2656 Q73.9141,145.4063 74.4453,145.6875 L74.4453,148.25 Q73.8516,147.7031 73.293,147.4492 Q72.7344,147.1953 72.1406,147.1953 Q70.875,147.1953 70.2305,148.1992 Q69.5859,149.2031 69.5859,151.1797 Q69.5859,153.1484 70.2305,154.1523 Q70.875,155.1563 72.1406,155.1563 Q72.7344,155.1563 73.293,154.9023 Q73.8516,154.6484 74.4453,154.1016 Z "/><text fill="#19273C" font-family="sans-serif" font-size="16" lengthAdjust="spacingAndGlyphs" textLength="47" x="86" y="157.0469">Typed</text><line style="stroke: #E3ECEC; stroke-width: 1.5;" x1="58" x2="135" y1="167" y2="167"/><line style="stroke: #E3ECEC; stroke-width: 1.5;" x1="58" x2="135" y1="175" y2="175"/><path d="M96.5,75.1708 C96.5,87.335 96.5,101.2651 96.5,114.2307 " fill="none" style="stroke: #3C6DF0; stroke-width: 1.0;"/><polygon fill="none" points="103.5001,114.6584,96.5,134.6584,89.5001,114.6583,103.5001,114.6584" style="stroke: #3C6DF0; stroke-width: 1.0;"/></g></svg>