<?xml version="1.0" encoding="UTF-8" standalone="no"?><svg xmlns="http://www.w3.org/2000/svg" xmlns:xlink="http://www.w3.org/1999/xlink" contentScriptType="application/ecmascript" contentStyleType="text/css" height="185px" preserveAspectRatio="none" style="width:188px;height:185px;" version="1.1" viewBox="0 0 188 185" width="188px" zoomAndPan="magnify"><defs/><g><!--class Concept--><rect fill="#F8FAFA" height="66.625" rx="1" ry="1" style="stroke: #E3ECEC; stroke-width: 1.5;" width="181" x="6" y="8.5"/><ellipse cx="59.75" cy="24.5" fill="#FFFFFF" rx="11" ry="11" style="stroke: #E3ECEC; stroke-width: 1.0;"/><path d="M62.2031,30.1563 Q61.6563,30.4375 61.0547,30.5859 Q60.4531,30.7344 59.7813,30.7344 Q57.4219,30.7344 56.1797,29.1719 Q54.9375,27.6094 54.9375,24.6719 Q54.9375,21.7344 56.1797,20.1797 Q57.4219,18.625 59.7813,18.625 Q60.4531,18.625 61.0625,18.7656 Q61.6719,18.9063 62.2031,19.1875 L62.2031,21.75 Q61.6094,21.2031 61.0469,20.9453 Q60.4844,20.6875 59.8906,20.6875 Q58.625,20.6875 57.9844,21.6953 Q57.3438,22.7031 57.3438,24.6719 Q57.3438,26.6406 57.9844,27.6484 Q58.625,28.6563 59.8906,28.6563 Q60.4844,28.6563 61.0469,28.3984 Q61.6094,28.1406 62.2031,27.5938 L62.2031,30.1563 Z "/><text fill="#19273C" font-family="sans-serif" font-size="16" lengthAdjust="spacingAndGlyphs" textLength="65" x="80.25" y="30.0391">Concept</text><line style="stroke: #E3ECEC; stroke-width: 1.5;" x1="7" x2="186" y1="40.5" y2="40.5"/><line style="stroke: #E3ECEC; stroke-width: 1.5;" x1="7" x2="186" y1="48.5" y2="48.5"/><ellipse cx="17" cy="62.8125" fill="#84BE84" rx="3" ry="3" style="stroke: #038048; stroke-width: 1.0;"/><text fill="#19273C" font-family="sans-serif" font-size="16" lengthAdjust="spacingAndGlyphs" textLength="155" x="26" y="67.3516">boolean isConcept()</text><!--class Typed--><rect fill="#F8FAFA" height="48" rx="1" ry="1" style="stroke: #E3ECEC; stroke-width: 1.5;" width="79" x="57" y="136"/><ellipse cx="72" cy="152" fill="#FFFFFF" rx="11" ry="11" style="stroke: #E3ECEC; stroke-width: 1.0;"/><path d="M74.4531,157.6563 Q73.9063,157.9375 73.3047,158.0859 Q72.7031,158.2344 72.0313,158.2344 Q69.6719,158.2344 68.4297,156.6719 Q67.1875,155.1094 67.1875,152.1719 Q67.1875,149.2344 68.4297,147.6797 Q69.6719,146.125 72.0313,146.125 Q72.7031,146.125 73.3125,146.2656 Q73.9219,146.4063 74.4531,146.6875 L74.4531,149.25 Q73.8594,148.7031 73.2969,148.4453 Q72.7344,148.1875 72.1406,148.1875 Q70.875,148.1875 70.2344,149.1953 Q69.5938,150.2031 69.5938,152.1719 Q69.5938,154.1406 70.2344,155.1484 Q70.875,156.1563 72.1406,156.1563 Q72.7344,156.1563 73.2969,155.8984 Q73.8594,155.6406 74.4531,155.0938 L74.4531,157.6563 Z "/><text fill="#19273C" font-family="sans-serif" font-size="16" lengthAdjust="spacingAndGlyphs" textLength="47" x="86" y="157.5391">Typed</text><line style="stroke: #E3ECEC; stroke-width: 1.5;" x1="58" x2="135" y1="168" y2="168"/><line style="stroke: #E3ECEC; stroke-width: 1.5;" x1="58" x2="135" y1="176" y2="176"/><path d="M96.25,75.621 C96.25,88.0487 96.25,102.4125 96.25,115.6795 " fill="none" style="stroke: #3C6DF0; stroke-width: 1.0;"/><polygon fill="none" points="103.2501,115.8078,96.25,135.8077,89.2501,115.8077,103.2501,115.8078" style="stroke: #3C6DF0; stroke-width: 1.0;"/></g></svg>