<?xml version="1.0" encoding="UTF-8" standalone="no"?><svg xmlns="http://www.w3.org/2000/svg" xmlns:xlink="http://www.w3.org/1999/xlink" contentScriptType="application/ecmascript" contentStyleType="text/css" height="277px" preserveAspectRatio="none" style="width:358px;height:277px;" version="1.1" viewBox="0 0 358 277" width="358px" zoomAndPan="magnify"><defs/><g><!--class FileSystemCardStore--><rect fill="#F8FAFA" height="159.75" rx="1" ry="1" style="stroke: #E3ECEC; stroke-width: 1.5;" width="351" x="6" y="8"/><ellipse cx="96.75" cy="24" fill="#FFFFFF" rx="11" ry="11" style="stroke: #E3ECEC; stroke-width: 1.0;"/><path d="M99.2031,29.6563 Q98.6563,29.9375 98.0547,30.0859 Q97.4531,30.2344 96.7813,30.2344 Q94.4219,30.2344 93.1797,28.6719 Q91.9375,27.1094 91.9375,24.1719 Q91.9375,21.2344 93.1797,19.6797 Q94.4219,18.125 96.7813,18.125 Q97.4531,18.125 98.0625,18.2656 Q98.6719,18.4063 99.2031,18.6875 L99.2031,21.25 Q98.6094,20.7031 98.0469,20.4453 Q97.4844,20.1875 96.8906,20.1875 Q95.625,20.1875 94.9844,21.1953 Q94.3438,22.2031 94.3438,24.1719 Q94.3438,26.1406 94.9844,27.1484 Q95.625,28.1563 96.8906,28.1563 Q97.4844,28.1563 98.0469,27.8984 Q98.6094,27.6406 99.2031,27.0938 L99.2031,29.6563 Z "/><text fill="#19273C" font-family="sans-serif" font-size="16" lengthAdjust="spacingAndGlyphs" textLength="161" x="117.25" y="29.5391">FileSystemCardStore</text><line style="stroke: #E3ECEC; stroke-width: 1.5;" x1="7" x2="356" y1="40" y2="40"/><line style="stroke: #E3ECEC; stroke-width: 1.5;" x1="7" x2="356" y1="48" y2="48"/><ellipse cx="17" cy="62.3125" fill="#84BE84" rx="3" ry="3" style="stroke: #038048; stroke-width: 1.0;"/><text fill="#19273C" font-family="sans-serif" font-size="16" lengthAdjust="spacingAndGlyphs" textLength="325" x="26" y="66.8516">void constructor(Object,undefined,String)</text><ellipse cx="17" cy="80.9375" fill="#84BE84" rx="3" ry="3" style="stroke: #038048; stroke-width: 1.0;"/><text fill="#19273C" font-family="sans-serif" font-size="16" lengthAdjust="spacingAndGlyphs" textLength="74" x="26" y="85.4766">void get()</text><ellipse cx="17" cy="99.5625" fill="#84BE84" rx="3" ry="3" style="stroke: #038048; stroke-width: 1.0;"/><text fill="#19273C" font-family="sans-serif" font-size="16" lengthAdjust="spacingAndGlyphs" textLength="75" x="26" y="104.1016">void put()</text><ellipse cx="17" cy="118.1875" fill="#84BE84" rx="3" ry="3" style="stroke: #038048; stroke-width: 1.0;"/><text fill="#19273C" font-family="sans-serif" font-size="16" lengthAdjust="spacingAndGlyphs" textLength="77" x="26" y="122.7266">void has()</text><ellipse cx="17" cy="136.8125" fill="#84BE84" rx="3" ry="3" style="stroke: #038048; stroke-width: 1.0;"/><text fill="#19273C" font-family="sans-serif" font-size="16" lengthAdjust="spacingAndGlyphs" textLength="91" x="26" y="141.3516">void getAll()</text><ellipse cx="17" cy="155.4375" fill="#84BE84" rx="3" ry="3" style="stroke: #038048; stroke-width: 1.0;"/><text fill="#19273C" font-family="sans-serif" font-size="16" lengthAdjust="spacingAndGlyphs" textLength="95" x="26" y="159.9766">void delete()</text><!--class BusinessNetworkCardStore--><rect fill="#F8FAFA" height="48" rx="1" ry="1" style="stroke: #E3ECEC; stroke-width: 1.5;" width="247" x="58" y="228"/><ellipse cx="73" cy="244" fill="#FFFFFF" rx="11" ry="11" style="stroke: #E3ECEC; stroke-width: 1.0;"/><path d="M75.4531,249.6563 Q74.9063,249.9375 74.3047,250.0859 Q73.7031,250.2344 73.0313,250.2344 Q70.6719,250.2344 69.4297,248.6719 Q68.1875,247.1094 68.1875,244.1719 Q68.1875,241.2344 69.4297,239.6797 Q70.6719,238.125 73.0313,238.125 Q73.7031,238.125 74.3125,238.2656 Q74.9219,238.4063 75.4531,238.6875 L75.4531,241.25 Q74.8594,240.7031 74.2969,240.4453 Q73.7344,240.1875 73.1406,240.1875 Q71.875,240.1875 71.2344,241.1953 Q70.5938,242.2031 70.5938,244.1719 Q70.5938,246.1406 71.2344,247.1484 Q71.875,248.1563 73.1406,248.1563 Q73.7344,248.1563 74.2969,247.8984 Q74.8594,247.6406 75.4531,247.0938 L75.4531,249.6563 Z "/><text fill="#19273C" font-family="sans-serif" font-size="16" lengthAdjust="spacingAndGlyphs" textLength="215" x="87" y="249.5391">BusinessNetworkCardStore</text><line style="stroke: #E3ECEC; stroke-width: 1.5;" x1="59" x2="304" y1="260" y2="260"/><line style="stroke: #E3ECEC; stroke-width: 1.5;" x1="59" x2="304" y1="268" y2="268"/><path d="M181.25,168.102 C181.25,181.7558 181.25,195.4818 181.25,207.7267 " fill="none" style="stroke: #3C6DF0; stroke-width: 1.0;"/><polygon fill="none" points="188.25,207.8324,181.25,227.8324,174.25,207.8324,188.25,207.8324" style="stroke: #3C6DF0; stroke-width: 1.0;"/></g></svg>