<?xml version="1.0" encoding="UTF-8" standalone="no"?><svg xmlns="http://www.w3.org/2000/svg" xmlns:xlink="http://www.w3.org/1999/xlink" contentScriptType="application/ecmascript" contentStyleType="text/css" height="297px" preserveAspectRatio="none" style="width:644px;height:297px;" version="1.1" viewBox="0 0 644 297" width="644px" zoomAndPan="magnify"><defs/><g><!--class IdentityRegistry--><rect fill="#F8FAFA" height="179.9063" rx="1" ry="1" style="stroke: #E3ECEC; stroke-width: 1.5;" width="637" x="6" y="8"/><ellipse cx="259.25" cy="24" fill="#FFFFFF" rx="11" ry="11" style="stroke: #E3ECEC; stroke-width: 1.0;"/><path d="M261.6953,29.6641 Q261.1484,29.9453 260.5469,30.0859 Q259.9453,30.2266 259.2813,30.2266 Q256.9219,30.2266 255.6797,28.6719 Q254.4375,27.1172 254.4375,24.1797 Q254.4375,21.2344 255.6797,19.6797 Q256.9219,18.125 259.2813,18.125 Q259.9453,18.125 260.5547,18.2656 Q261.1641,18.4063 261.6953,18.6875 L261.6953,21.25 Q261.1016,20.7031 260.543,20.4492 Q259.9844,20.1953 259.3906,20.1953 Q258.125,20.1953 257.4805,21.1992 Q256.8359,22.2031 256.8359,24.1797 Q256.8359,26.1484 257.4805,27.1523 Q258.125,28.1563 259.3906,28.1563 Q259.9844,28.1563 260.543,27.9023 Q261.1016,27.6484 261.6953,27.1016 Z "/><text fill="#19273C" font-family="sans-serif" font-size="16" lengthAdjust="spacingAndGlyphs" textLength="122" x="279.75" y="30.0469">IdentityRegistry</text><line style="stroke: #E3ECEC; stroke-width: 1.5;" x1="7" x2="642" y1="40" y2="40"/><line style="stroke: #E3ECEC; stroke-width: 1.5;" x1="7" x2="642" y1="48" y2="48"/><ellipse cx="17" cy="62.4219" fill="#84BE84" rx="3" ry="3" style="stroke: #038048; stroke-width: 1.0;"/><text fill="#19273C" font-family="sans-serif" font-size="16" lengthAdjust="spacingAndGlyphs" textLength="611" x="26" y="67.4688">Promise getIdentityRegistry(SecurityContext,ModelManager,Factory,Serializer)</text><ellipse cx="17" cy="81.2656" fill="#84BE84" rx="3" ry="3" style="stroke: #038048; stroke-width: 1.0;"/><text fill="#19273C" font-family="sans-serif" font-size="16" lengthAdjust="spacingAndGlyphs" textLength="199" x="26" y="86.3125">void add(Resource,string)</text><ellipse cx="17" cy="100.1094" fill="#84BE84" rx="3" ry="3" style="stroke: #038048; stroke-width: 1.0;"/><text fill="#19273C" font-family="sans-serif" font-size="16" lengthAdjust="spacingAndGlyphs" textLength="179" x="26" y="105.1563">void addAll(Resource[])</text><ellipse cx="17" cy="118.9531" fill="#84BE84" rx="3" ry="3" style="stroke: #038048; stroke-width: 1.0;"/><text fill="#19273C" font-family="sans-serif" font-size="16" lengthAdjust="spacingAndGlyphs" textLength="173" x="26" y="124">void update(Resource)</text><ellipse cx="17" cy="137.7969" fill="#84BE84" rx="3" ry="3" style="stroke: #038048; stroke-width: 1.0;"/><text fill="#19273C" font-family="sans-serif" font-size="16" lengthAdjust="spacingAndGlyphs" textLength="204" x="26" y="142.8438">void updateAll(Resource[])</text><ellipse cx="17" cy="156.6406" fill="#84BE84" rx="3" ry="3" style="stroke: #038048; stroke-width: 1.0;"/><text fill="#19273C" font-family="sans-serif" font-size="16" lengthAdjust="spacingAndGlyphs" textLength="106" x="26" y="161.6875">void remove()</text><ellipse cx="17" cy="175.4844" fill="#84BE84" rx="3" ry="3" style="stroke: #038048; stroke-width: 1.0;"/><text fill="#19273C" font-family="sans-serif" font-size="16" lengthAdjust="spacingAndGlyphs" textLength="127" x="26" y="180.5313">void removeAll()</text><!--class Registry--><rect fill="#F8FAFA" height="48" rx="1" ry="1" style="stroke: #E3ECEC; stroke-width: 1.5;" width="95" x="277" y="248"/><ellipse cx="292" cy="264" fill="#FFFFFF" rx="11" ry="11" style="stroke: #E3ECEC; stroke-width: 1.0;"/><path d="M294.4453,269.6641 Q293.8984,269.9453 293.2969,270.0859 Q292.6953,270.2266 292.0313,270.2266 Q289.6719,270.2266 288.4297,268.6719 Q287.1875,267.1172 287.1875,264.1797 Q287.1875,261.2344 288.4297,259.6797 Q289.6719,258.125 292.0313,258.125 Q292.6953,258.125 293.3047,258.2656 Q293.9141,258.4063 294.4453,258.6875 L294.4453,261.25 Q293.8516,260.7031 293.293,260.4492 Q292.7344,260.1953 292.1406,260.1953 Q290.875,260.1953 290.2305,261.1992 Q289.5859,262.2031 289.5859,264.1797 Q289.5859,266.1484 290.2305,267.1523 Q290.875,268.1563 292.1406,268.1563 Q292.7344,268.1563 293.293,267.9023 Q293.8516,267.6484 294.4453,267.1016 Z "/><text fill="#19273C" font-family="sans-serif" font-size="16" lengthAdjust="spacingAndGlyphs" textLength="63" x="306" y="270.0469">Registry</text><line style="stroke: #E3ECEC; stroke-width: 1.5;" x1="278" x2="371" y1="280" y2="280"/><line style="stroke: #E3ECEC; stroke-width: 1.5;" x1="278" x2="371" y1="288" y2="288"/><path d="M324.5,188.058 C324.5,201.8442 324.5,215.5278 324.5,227.7219 " fill="none" style="stroke: #3C6DF0; stroke-width: 1.0;"/><polygon fill="none" points="331.5001,227.7632,324.5,247.7632,317.5001,227.7631,331.5001,227.7632" style="stroke: #3C6DF0; stroke-width: 1.0;"/></g></svg>