<?xml version="1.0" encoding="UTF-8" standalone="no"?><svg xmlns="http://www.w3.org/2000/svg" xmlns:xlink="http://www.w3.org/1999/xlink" contentScriptType="application/ecmascript" contentStyleType="text/css" height="278px" preserveAspectRatio="none" style="width:249px;height:278px;" version="1.1" viewBox="0 0 249 278" width="249px" zoomAndPan="magnify"><defs/><g><!--class MemoryCardStore--><rect fill="#F8FAFA" height="161.0625" rx="1" ry="1" style="stroke: #E3ECEC; stroke-width: 1.5;" width="173" x="40.5" y="8"/><ellipse cx="55.5" cy="24" fill="#FFFFFF" rx="11" ry="11" style="stroke: #E3ECEC; stroke-width: 1.0;"/><path d="M57.9453,29.6641 Q57.3984,29.9453 56.7969,30.0859 Q56.1953,30.2266 55.5313,30.2266 Q53.1719,30.2266 51.9297,28.6719 Q50.6875,27.1172 50.6875,24.1797 Q50.6875,21.2344 51.9297,19.6797 Q53.1719,18.125 55.5313,18.125 Q56.1953,18.125 56.8047,18.2656 Q57.4141,18.4063 57.9453,18.6875 L57.9453,21.25 Q57.3516,20.7031 56.793,20.4492 Q56.2344,20.1953 55.6406,20.1953 Q54.375,20.1953 53.7305,21.1992 Q53.0859,22.2031 53.0859,24.1797 Q53.0859,26.1484 53.7305,27.1523 Q54.375,28.1563 55.6406,28.1563 Q56.2344,28.1563 56.793,27.9023 Q57.3516,27.6484 57.9453,27.1016 Z "/><text fill="#19273C" font-family="sans-serif" font-size="16" lengthAdjust="spacingAndGlyphs" textLength="141" x="69.5" y="30.0469">MemoryCardStore</text><line style="stroke: #E3ECEC; stroke-width: 1.5;" x1="41.5" x2="212.5" y1="40" y2="40"/><line style="stroke: #E3ECEC; stroke-width: 1.5;" x1="41.5" x2="212.5" y1="48" y2="48"/><ellipse cx="51.5" cy="62.4219" fill="#84BE84" rx="3" ry="3" style="stroke: #038048; stroke-width: 1.0;"/><text fill="#19273C" font-family="sans-serif" font-size="16" lengthAdjust="spacingAndGlyphs" textLength="138" x="60.5" y="67.4688">void constructor()</text><ellipse cx="51.5" cy="81.2656" fill="#84BE84" rx="3" ry="3" style="stroke: #038048; stroke-width: 1.0;"/><text fill="#19273C" font-family="sans-serif" font-size="16" lengthAdjust="spacingAndGlyphs" textLength="73" x="60.5" y="86.3125">void get()</text><ellipse cx="51.5" cy="100.1094" fill="#84BE84" rx="3" ry="3" style="stroke: #038048; stroke-width: 1.0;"/><text fill="#19273C" font-family="sans-serif" font-size="16" lengthAdjust="spacingAndGlyphs" textLength="74" x="60.5" y="105.1563">void put()</text><ellipse cx="51.5" cy="118.9531" fill="#84BE84" rx="3" ry="3" style="stroke: #038048; stroke-width: 1.0;"/><text fill="#19273C" font-family="sans-serif" font-size="16" lengthAdjust="spacingAndGlyphs" textLength="75" x="60.5" y="124">void has()</text><ellipse cx="51.5" cy="137.7969" fill="#84BE84" rx="3" ry="3" style="stroke: #038048; stroke-width: 1.0;"/><text fill="#19273C" font-family="sans-serif" font-size="16" lengthAdjust="spacingAndGlyphs" textLength="94" x="60.5" y="142.8438">void getAll()</text><ellipse cx="51.5" cy="156.6406" fill="#84BE84" rx="3" ry="3" style="stroke: #038048; stroke-width: 1.0;"/><text fill="#19273C" font-family="sans-serif" font-size="16" lengthAdjust="spacingAndGlyphs" textLength="96" x="60.5" y="161.6875">void delete()</text><!--class BusinessNetworkCardStore--><rect fill="#F8FAFA" height="48" rx="1" ry="1" style="stroke: #E3ECEC; stroke-width: 1.5;" width="242" x="6" y="229"/><ellipse cx="21" cy="245" fill="#FFFFFF" rx="11" ry="11" style="stroke: #E3ECEC; stroke-width: 1.0;"/><path d="M23.4453,250.6641 Q22.8984,250.9453 22.2969,251.0859 Q21.6953,251.2266 21.0313,251.2266 Q18.6719,251.2266 17.4297,249.6719 Q16.1875,248.1172 16.1875,245.1797 Q16.1875,242.2344 17.4297,240.6797 Q18.6719,239.125 21.0313,239.125 Q21.6953,239.125 22.3047,239.2656 Q22.9141,239.4063 23.4453,239.6875 L23.4453,242.25 Q22.8516,241.7031 22.293,241.4492 Q21.7344,241.1953 21.1406,241.1953 Q19.875,241.1953 19.2305,242.1992 Q18.5859,243.2031 18.5859,245.1797 Q18.5859,247.1484 19.2305,248.1523 Q19.875,249.1563 21.1406,249.1563 Q21.7344,249.1563 22.293,248.9023 Q22.8516,248.6484 23.4453,248.1016 Z "/><text fill="#19273C" font-family="sans-serif" font-size="16" lengthAdjust="spacingAndGlyphs" textLength="210" x="35" y="251.0469">BusinessNetworkCardStore</text><line style="stroke: #E3ECEC; stroke-width: 1.5;" x1="7" x2="247" y1="261" y2="261"/><line style="stroke: #E3ECEC; stroke-width: 1.5;" x1="7" x2="247" y1="269" y2="269"/><path d="M127,169.3043 C127,182.914 127,196.5766 127,208.8008 " fill="none" style="stroke: #3C6DF0; stroke-width: 1.0;"/><polygon fill="none" points="134.0001,208.929,127,228.9289,120.0001,208.9289,134.0001,208.929" style="stroke: #3C6DF0; stroke-width: 1.0;"/></g></svg>