<?xml version="1.0" encoding="UTF-8" standalone="no"?><svg xmlns="http://www.w3.org/2000/svg" xmlns:xlink="http://www.w3.org/1999/xlink" contentScriptType="application/ecmascript" contentStyleType="text/css" height="320px" preserveAspectRatio="none" style="width:517px;height:320px;" version="1.1" viewBox="0 0 517 320" width="517px" zoomAndPan="magnify"><defs/><g><!--class ModelManager--><rect fill="#F8FAFA" height="311.8125" rx="1" ry="1" style="stroke: #E3ECEC; stroke-width: 1.5;" width="510" x="6" y="8"/><ellipse cx="198.75" cy="24" fill="#FFFFFF" rx="11" ry="11" style="stroke: #E3ECEC; stroke-width: 1.0;"/><path d="M201.1953,29.6641 Q200.6484,29.9453 200.0469,30.0859 Q199.4453,30.2266 198.7813,30.2266 Q196.4219,30.2266 195.1797,28.6719 Q193.9375,27.1172 193.9375,24.1797 Q193.9375,21.2344 195.1797,19.6797 Q196.4219,18.125 198.7813,18.125 Q199.4453,18.125 200.0547,18.2656 Q200.6641,18.4063 201.1953,18.6875 L201.1953,21.25 Q200.6016,20.7031 200.043,20.4492 Q199.4844,20.1953 198.8906,20.1953 Q197.625,20.1953 196.9805,21.1992 Q196.3359,22.2031 196.3359,24.1797 Q196.3359,26.1484 196.9805,27.1523 Q197.625,28.1563 198.8906,28.1563 Q199.4844,28.1563 200.043,27.9023 Q200.6016,27.6484 201.1953,27.1016 Z "/><text fill="#19273C" font-family="sans-serif" font-size="16" lengthAdjust="spacingAndGlyphs" textLength="116" x="219.25" y="30.0469">ModelManager</text><line style="stroke: #E3ECEC; stroke-width: 1.5;" x1="7" x2="515" y1="40" y2="40"/><line style="stroke: #E3ECEC; stroke-width: 1.5;" x1="7" x2="515" y1="48" y2="48"/><ellipse cx="17" cy="62.4219" fill="#84BE84" rx="3" ry="3" style="stroke: #038048; stroke-width: 1.0;"/><text fill="#19273C" font-family="sans-serif" font-size="16" lengthAdjust="spacingAndGlyphs" textLength="282" x="26" y="67.4688">void validateModelFile(string,string)</text><ellipse cx="17" cy="81.2656" fill="#84BE84" rx="3" ry="3" style="stroke: #038048; stroke-width: 1.0;"/><text fill="#19273C" font-family="sans-serif" font-size="16" lengthAdjust="spacingAndGlyphs" textLength="267" x="26" y="86.3125">Object addModelFile(string,string)</text><ellipse cx="17" cy="100.1094" fill="#84BE84" rx="3" ry="3" style="stroke: #038048; stroke-width: 1.0;"/><text fill="#19273C" font-family="sans-serif" font-size="16" lengthAdjust="spacingAndGlyphs" textLength="292" x="26" y="105.1563">Object updateModelFile(string,string)</text><ellipse cx="17" cy="118.9531" fill="#84BE84" rx="3" ry="3" style="stroke: #038048; stroke-width: 1.0;"/><text fill="#19273C" font-family="sans-serif" font-size="16" lengthAdjust="spacingAndGlyphs" textLength="218" x="26" y="124">void deleteModelFile(string)</text><ellipse cx="17" cy="137.7969" fill="#84BE84" rx="3" ry="3" style="stroke: #038048; stroke-width: 1.0;"/><text fill="#19273C" font-family="sans-serif" font-size="16" lengthAdjust="spacingAndGlyphs" textLength="305" x="26" y="142.8438">Object[] addModelFiles(string[],string[])</text><ellipse cx="17" cy="156.6406" fill="#84BE84" rx="3" ry="3" style="stroke: #038048; stroke-width: 1.0;"/><text fill="#19273C" font-family="sans-serif" font-size="16" lengthAdjust="spacingAndGlyphs" textLength="170" x="26" y="161.6875">void clearModelFiles()</text><ellipse cx="17" cy="175.4844" fill="#84BE84" rx="3" ry="3" style="stroke: #038048; stroke-width: 1.0;"/><text fill="#19273C" font-family="sans-serif" font-size="16" lengthAdjust="spacingAndGlyphs" textLength="193" x="26" y="180.5313">string[] getNamespaces()</text><ellipse cx="17" cy="194.3281" fill="#84BE84" rx="3" ry="3" style="stroke: #038048; stroke-width: 1.0;"/><text fill="#19273C" font-family="sans-serif" font-size="16" lengthAdjust="spacingAndGlyphs" textLength="281" x="26" y="199.375">ClassDeclaration[] getSystemTypes()</text><ellipse cx="17" cy="213.1719" fill="#84BE84" rx="3" ry="3" style="stroke: #038048; stroke-width: 1.0;"/><text fill="#19273C" font-family="sans-serif" font-size="16" lengthAdjust="spacingAndGlyphs" textLength="384" x="26" y="218.2188">AssetDeclaration[] getAssetDeclarations(Boolean)</text><ellipse cx="17" cy="232.0156" fill="#84BE84" rx="3" ry="3" style="stroke: #038048; stroke-width: 1.0;"/><text fill="#19273C" font-family="sans-serif" font-size="16" lengthAdjust="spacingAndGlyphs" textLength="484" x="26" y="237.0625">TransactionDeclaration[] getTransactionDeclarations(Boolean)</text><ellipse cx="17" cy="250.8594" fill="#84BE84" rx="3" ry="3" style="stroke: #038048; stroke-width: 1.0;"/><text fill="#19273C" font-family="sans-serif" font-size="16" lengthAdjust="spacingAndGlyphs" textLength="384" x="26" y="255.9063">EventDeclaration[] getEventDeclarations(Boolean)</text><ellipse cx="17" cy="269.7031" fill="#84BE84" rx="3" ry="3" style="stroke: #038048; stroke-width: 1.0;"/><text fill="#19273C" font-family="sans-serif" font-size="16" lengthAdjust="spacingAndGlyphs" textLength="468" x="26" y="274.75">ParticipantDeclaration[] getParticipantDeclarations(Boolean)</text><ellipse cx="17" cy="288.5469" fill="#84BE84" rx="3" ry="3" style="stroke: #038048; stroke-width: 1.0;"/><text fill="#19273C" font-family="sans-serif" font-size="16" lengthAdjust="spacingAndGlyphs" textLength="388" x="26" y="293.5938">EnumDeclaration[] getEnumDeclarations(Boolean)</text><ellipse cx="17" cy="307.3906" fill="#84BE84" rx="3" ry="3" style="stroke: #038048; stroke-width: 1.0;"/><text fill="#19273C" font-family="sans-serif" font-size="16" lengthAdjust="spacingAndGlyphs" textLength="428" x="26" y="312.4375">ConceptDeclaration[] getConceptDeclarations(Boolean)</text></g></svg>