<?xml version="1.0" encoding="UTF-8" standalone="no"?><svg xmlns="http://www.w3.org/2000/svg" xmlns:xlink="http://www.w3.org/1999/xlink" contentScriptType="application/ecmascript" contentStyleType="text/css" height="430px" preserveAspectRatio="none" style="width:514px;height:430px;" version="1.1" viewBox="0 0 514 430" width="514px" zoomAndPan="magnify"><defs/><g><!--class ModelFile--><rect fill="#F8FAFA" height="420.5" rx="1" ry="1" style="stroke: #E3ECEC; stroke-width: 1.5;" width="507" x="6" y="8.5"/><ellipse cx="220.75" cy="24.5" fill="#FFFFFF" rx="11" ry="11" style="stroke: #E3ECEC; stroke-width: 1.0;"/><path d="M223.2031,30.1563 Q222.6563,30.4375 222.0547,30.5859 Q221.4531,30.7344 220.7813,30.7344 Q218.4219,30.7344 217.1797,29.1719 Q215.9375,27.6094 215.9375,24.6719 Q215.9375,21.7344 217.1797,20.1797 Q218.4219,18.625 220.7813,18.625 Q221.4531,18.625 222.0625,18.7656 Q222.6719,18.9063 223.2031,19.1875 L223.2031,21.75 Q222.6094,21.2031 222.0469,20.9453 Q221.4844,20.6875 220.8906,20.6875 Q219.625,20.6875 218.9844,21.6953 Q218.3438,22.7031 218.3438,24.6719 Q218.3438,26.6406 218.9844,27.6484 Q219.625,28.6563 220.8906,28.6563 Q221.4844,28.6563 222.0469,28.3984 Q222.6094,28.1406 223.2031,27.5938 L223.2031,30.1563 Z "/><text fill="#19273C" font-family="sans-serif" font-size="16" lengthAdjust="spacingAndGlyphs" textLength="69" x="241.25" y="30.0391">ModelFile</text><line style="stroke: #E3ECEC; stroke-width: 1.5;" x1="7" x2="512" y1="40.5" y2="40.5"/><line style="stroke: #E3ECEC; stroke-width: 1.5;" x1="7" x2="512" y1="48.5" y2="48.5"/><ellipse cx="17" cy="62.8125" fill="#84BE84" rx="3" ry="3" style="stroke: #038048; stroke-width: 1.0;"/><text fill="#19273C" font-family="sans-serif" font-size="16" lengthAdjust="spacingAndGlyphs" textLength="266" x="26" y="67.3516">ModelManager getModelManager()</text><ellipse cx="17" cy="81.4375" fill="#84BE84" rx="3" ry="3" style="stroke: #038048; stroke-width: 1.0;"/><text fill="#19273C" font-family="sans-serif" font-size="16" lengthAdjust="spacingAndGlyphs" textLength="161" x="26" y="85.9766">string[] getImports()</text><ellipse cx="17" cy="100.0625" fill="#84BE84" rx="3" ry="3" style="stroke: #038048; stroke-width: 1.0;"/><text fill="#19273C" font-family="sans-serif" font-size="16" lengthAdjust="spacingAndGlyphs" textLength="194" x="26" y="104.6016">boolean isDefined(string)</text><ellipse cx="17" cy="118.6875" fill="#84BE84" rx="3" ry="3" style="stroke: #038048; stroke-width: 1.0;"/><text fill="#19273C" font-family="sans-serif" font-size="16" lengthAdjust="spacingAndGlyphs" textLength="292" x="26" y="123.2266">ClassDeclaration getLocalType(string)</text><ellipse cx="17" cy="137.3125" fill="#84BE84" rx="3" ry="3" style="stroke: #038048; stroke-width: 1.0;"/><text fill="#19273C" font-family="sans-serif" font-size="16" lengthAdjust="spacingAndGlyphs" textLength="349" x="26" y="141.8516">AssetDeclaration getAssetDeclaration(string)</text><ellipse cx="17" cy="155.9375" fill="#84BE84" rx="3" ry="3" style="stroke: #038048; stroke-width: 1.0;"/><text fill="#19273C" font-family="sans-serif" font-size="16" lengthAdjust="spacingAndGlyphs" textLength="443" x="26" y="160.4766">TransactionDeclaration getTransactionDeclaration(string)</text><ellipse cx="17" cy="174.5625" fill="#84BE84" rx="3" ry="3" style="stroke: #038048; stroke-width: 1.0;"/><text fill="#19273C" font-family="sans-serif" font-size="16" lengthAdjust="spacingAndGlyphs" textLength="349" x="26" y="179.1016">EventDeclaration getEventDeclaration(string)</text><ellipse cx="17" cy="193.1875" fill="#84BE84" rx="3" ry="3" style="stroke: #038048; stroke-width: 1.0;"/><text fill="#19273C" font-family="sans-serif" font-size="16" lengthAdjust="spacingAndGlyphs" textLength="425" x="26" y="197.7266">ParticipantDeclaration getParticipantDeclaration(string)</text><ellipse cx="17" cy="211.8125" fill="#84BE84" rx="3" ry="3" style="stroke: #038048; stroke-width: 1.0;"/><text fill="#19273C" font-family="sans-serif" font-size="16" lengthAdjust="spacingAndGlyphs" textLength="178" x="26" y="216.3516">string getNamespace()</text><ellipse cx="17" cy="230.4375" fill="#84BE84" rx="3" ry="3" style="stroke: #038048; stroke-width: 1.0;"/><text fill="#19273C" font-family="sans-serif" font-size="16" lengthAdjust="spacingAndGlyphs" textLength="132" x="26" y="234.9766">string getName()</text><ellipse cx="17" cy="249.0625" fill="#84BE84" rx="3" ry="3" style="stroke: #038048; stroke-width: 1.0;"/><text fill="#19273C" font-family="sans-serif" font-size="16" lengthAdjust="spacingAndGlyphs" textLength="387" x="26" y="253.6016">AssetDeclaration[] getAssetDeclarations(Boolean)</text><ellipse cx="17" cy="267.6875" fill="#84BE84" rx="3" ry="3" style="stroke: #038048; stroke-width: 1.0;"/><text fill="#19273C" font-family="sans-serif" font-size="16" lengthAdjust="spacingAndGlyphs" textLength="481" x="26" y="272.2266">TransactionDeclaration[] getTransactionDeclarations(Boolean)</text><ellipse cx="17" cy="286.3125" fill="#84BE84" rx="3" ry="3" style="stroke: #038048; stroke-width: 1.0;"/><text fill="#19273C" font-family="sans-serif" font-size="16" lengthAdjust="spacingAndGlyphs" textLength="387" x="26" y="290.8516">EventDeclaration[] getEventDeclarations(Boolean)</text><ellipse cx="17" cy="304.9375" fill="#84BE84" rx="3" ry="3" style="stroke: #038048; stroke-width: 1.0;"/><text fill="#19273C" font-family="sans-serif" font-size="16" lengthAdjust="spacingAndGlyphs" textLength="463" x="26" y="309.4766">ParticipantDeclaration[] getParticipantDeclarations(Boolean)</text><ellipse cx="17" cy="323.5625" fill="#84BE84" rx="3" ry="3" style="stroke: #038048; stroke-width: 1.0;"/><text fill="#19273C" font-family="sans-serif" font-size="16" lengthAdjust="spacingAndGlyphs" textLength="429" x="26" y="328.1016">ConceptDeclaration[] getConceptDeclarations(Boolean)</text><ellipse cx="17" cy="342.1875" fill="#84BE84" rx="3" ry="3" style="stroke: #038048; stroke-width: 1.0;"/><text fill="#19273C" font-family="sans-serif" font-size="16" lengthAdjust="spacingAndGlyphs" textLength="389" x="26" y="346.7266">EnumDeclaration[] getEnumDeclarations(Boolean)</text><ellipse cx="17" cy="360.8125" fill="#84BE84" rx="3" ry="3" style="stroke: #038048; stroke-width: 1.0;"/><text fill="#19273C" font-family="sans-serif" font-size="16" lengthAdjust="spacingAndGlyphs" textLength="412" x="26" y="365.3516">ClassDeclaration[] getDeclarations(Function,Boolean)</text><ellipse cx="17" cy="379.4375" fill="#84BE84" rx="3" ry="3" style="stroke: #038048; stroke-width: 1.0;"/><text fill="#19273C" font-family="sans-serif" font-size="16" lengthAdjust="spacingAndGlyphs" textLength="295" x="26" y="383.9766">ClassDeclaration[] getAllDeclarations()</text><ellipse cx="17" cy="398.0625" fill="#84BE84" rx="3" ry="3" style="stroke: #038048; stroke-width: 1.0;"/><text fill="#19273C" font-family="sans-serif" font-size="16" lengthAdjust="spacingAndGlyphs" textLength="168" x="26" y="402.6016">string getDefinitions()</text><ellipse cx="17" cy="416.6875" fill="#84BE84" rx="3" ry="3" style="stroke: #038048; stroke-width: 1.0;"/><text fill="#19273C" font-family="sans-serif" font-size="16" lengthAdjust="spacingAndGlyphs" textLength="217" x="26" y="421.2266">boolean isSystemModelFile()</text></g></svg>