<?xml version="1.0" encoding="UTF-8" standalone="no"?><svg xmlns="http://www.w3.org/2000/svg" xmlns:xlink="http://www.w3.org/1999/xlink" contentScriptType="application/ecmascript" contentStyleType="text/css" height="185px" preserveAspectRatio="none" style="width:270px;height:185px;" version="1.1" viewBox="0 0 270 185" width="270px" zoomAndPan="magnify"><defs/><g><!--class ParseException--><rect fill="#F8FAFA" height="66.625" rx="1" ry="1" style="stroke: #E3ECEC; stroke-width: 1.5;" width="263" x="6" y="8.5"/><ellipse cx="72.75" cy="24.5" fill="#FFFFFF" rx="11" ry="11" style="stroke: #E3ECEC; stroke-width: 1.0;"/><path d="M75.2031,30.1563 Q74.6563,30.4375 74.0547,30.5859 Q73.4531,30.7344 72.7813,30.7344 Q70.4219,30.7344 69.1797,29.1719 Q67.9375,27.6094 67.9375,24.6719 Q67.9375,21.7344 69.1797,20.1797 Q70.4219,18.625 72.7813,18.625 Q73.4531,18.625 74.0625,18.7656 Q74.6719,18.9063 75.2031,19.1875 L75.2031,21.75 Q74.6094,21.2031 74.0469,20.9453 Q73.4844,20.6875 72.8906,20.6875 Q71.625,20.6875 70.9844,21.6953 Q70.3438,22.7031 70.3438,24.6719 Q70.3438,26.6406 70.9844,27.6484 Q71.625,28.6563 72.8906,28.6563 Q73.4844,28.6563 74.0469,28.3984 Q74.6094,28.1406 75.2031,27.5938 L75.2031,30.1563 Z "/><text fill="#19273C" font-family="sans-serif" font-size="16" lengthAdjust="spacingAndGlyphs" textLength="121" x="93.25" y="30.0391">ParseException</text><line style="stroke: #E3ECEC; stroke-width: 1.5;" x1="7" x2="268" y1="40.5" y2="40.5"/><line style="stroke: #E3ECEC; stroke-width: 1.5;" x1="7" x2="268" y1="48.5" y2="48.5"/><ellipse cx="17" cy="62.8125" fill="#84BE84" rx="3" ry="3" style="stroke: #038048; stroke-width: 1.0;"/><text fill="#19273C" font-family="sans-serif" font-size="16" lengthAdjust="spacingAndGlyphs" textLength="237" x="26" y="67.3516">void constructor(string,string)</text><!--class BaseFileException--><rect fill="#F8FAFA" height="48" rx="1" ry="1" style="stroke: #E3ECEC; stroke-width: 1.5;" width="171" x="52" y="136"/><ellipse cx="67" cy="152" fill="#FFFFFF" rx="11" ry="11" style="stroke: #E3ECEC; stroke-width: 1.0;"/><path d="M69.4531,157.6563 Q68.9063,157.9375 68.3047,158.0859 Q67.7031,158.2344 67.0313,158.2344 Q64.6719,158.2344 63.4297,156.6719 Q62.1875,155.1094 62.1875,152.1719 Q62.1875,149.2344 63.4297,147.6797 Q64.6719,146.125 67.0313,146.125 Q67.7031,146.125 68.3125,146.2656 Q68.9219,146.4063 69.4531,146.6875 L69.4531,149.25 Q68.8594,148.7031 68.2969,148.4453 Q67.7344,148.1875 67.1406,148.1875 Q65.875,148.1875 65.2344,149.1953 Q64.5938,150.2031 64.5938,152.1719 Q64.5938,154.1406 65.2344,155.1484 Q65.875,156.1563 67.1406,156.1563 Q67.7344,156.1563 68.2969,155.8984 Q68.8594,155.6406 69.4531,155.0938 L69.4531,157.6563 Z "/><text fill="#19273C" font-family="sans-serif" font-size="16" lengthAdjust="spacingAndGlyphs" textLength="139" x="81" y="157.5391">BaseFileException</text><line style="stroke: #E3ECEC; stroke-width: 1.5;" x1="53" x2="222" y1="168" y2="168"/><line style="stroke: #E3ECEC; stroke-width: 1.5;" x1="53" x2="222" y1="176" y2="176"/><path d="M137.25,75.621 C137.25,88.0487 137.25,102.4125 137.25,115.6795 " fill="none" style="stroke: #3C6DF0; stroke-width: 1.0;"/><polygon fill="none" points="144.25,115.8078,137.25,135.8077,130.25,115.8077,144.25,115.8078" style="stroke: #3C6DF0; stroke-width: 1.0;"/></g></svg>