<?xml version="1.0" encoding="UTF-8" standalone="no"?><svg xmlns="http://www.w3.org/2000/svg" xmlns:xlink="http://www.w3.org/1999/xlink" contentScriptType="application/ecmascript" contentStyleType="text/css" height="372px" preserveAspectRatio="none" style="width:357px;height:372px;" version="1.1" viewBox="0 0 357 372" width="357px" zoomAndPan="magnify"><defs/><g><!--class Property--><rect fill="#F8FAFA" height="255.2813" rx="1" ry="1" style="stroke: #E3ECEC; stroke-width: 1.5;" width="350" x="6" y="8"/><ellipse cx="143.75" cy="24" fill="#FFFFFF" rx="11" ry="11" style="stroke: #E3ECEC; stroke-width: 1.0;"/><path d="M146.1953,29.6641 Q145.6484,29.9453 145.0469,30.0859 Q144.4453,30.2266 143.7813,30.2266 Q141.4219,30.2266 140.1797,28.6719 Q138.9375,27.1172 138.9375,24.1797 Q138.9375,21.2344 140.1797,19.6797 Q141.4219,18.125 143.7813,18.125 Q144.4453,18.125 145.0547,18.2656 Q145.6641,18.4063 146.1953,18.6875 L146.1953,21.25 Q145.6016,20.7031 145.043,20.4492 Q144.4844,20.1953 143.8906,20.1953 Q142.625,20.1953 141.9805,21.1992 Q141.3359,22.2031 141.3359,24.1797 Q141.3359,26.1484 141.9805,27.1523 Q142.625,28.1563 143.8906,28.1563 Q144.4844,28.1563 145.043,27.9023 Q145.6016,27.6484 146.1953,27.1016 Z "/><text fill="#19273C" font-family="sans-serif" font-size="16" lengthAdjust="spacingAndGlyphs" textLength="66" x="164.25" y="30.0469">Property</text><line style="stroke: #E3ECEC; stroke-width: 1.5;" x1="7" x2="355" y1="40" y2="40"/><line style="stroke: #E3ECEC; stroke-width: 1.5;" x1="7" x2="355" y1="48" y2="48"/><ellipse cx="17" cy="62.4219" fill="#84BE84" rx="3" ry="3" style="stroke: #038048; stroke-width: 1.0;"/><text fill="#19273C" font-family="sans-serif" font-size="16" lengthAdjust="spacingAndGlyphs" textLength="324" x="26" y="67.4688">void constructor(ClassDeclaration,Object)</text><ellipse cx="17" cy="81.2656" fill="#84BE84" rx="3" ry="3" style="stroke: #038048; stroke-width: 1.0;"/><text fill="#19273C" font-family="sans-serif" font-size="16" lengthAdjust="spacingAndGlyphs" textLength="221" x="26" y="86.3125">ClassDeclaration getParent()</text><ellipse cx="17" cy="100.1094" fill="#84BE84" rx="3" ry="3" style="stroke: #038048; stroke-width: 1.0;"/><text fill="#19273C" font-family="sans-serif" font-size="16" lengthAdjust="spacingAndGlyphs" textLength="131" x="26" y="105.1563">string getName()</text><ellipse cx="17" cy="118.9531" fill="#84BE84" rx="3" ry="3" style="stroke: #038048; stroke-width: 1.0;"/><text fill="#19273C" font-family="sans-serif" font-size="16" lengthAdjust="spacingAndGlyphs" textLength="123" x="26" y="124">string getType()</text><ellipse cx="17" cy="137.7969" fill="#84BE84" rx="3" ry="3" style="stroke: #038048; stroke-width: 1.0;"/><text fill="#19273C" font-family="sans-serif" font-size="16" lengthAdjust="spacingAndGlyphs" textLength="158" x="26" y="142.8438">boolean isOptional()</text><ellipse cx="17" cy="156.6406" fill="#84BE84" rx="3" ry="3" style="stroke: #038048; stroke-width: 1.0;"/><text fill="#19273C" font-family="sans-serif" font-size="16" lengthAdjust="spacingAndGlyphs" textLength="276" x="26" y="161.6875">string getFullyQualifiedTypeName()</text><ellipse cx="17" cy="175.4844" fill="#84BE84" rx="3" ry="3" style="stroke: #038048; stroke-width: 1.0;"/><text fill="#19273C" font-family="sans-serif" font-size="16" lengthAdjust="spacingAndGlyphs" textLength="239" x="26" y="180.5313">string getFullyQualifiedName()</text><ellipse cx="17" cy="194.3281" fill="#84BE84" rx="3" ry="3" style="stroke: #038048; stroke-width: 1.0;"/><text fill="#19273C" font-family="sans-serif" font-size="16" lengthAdjust="spacingAndGlyphs" textLength="175" x="26" y="199.375">string getNamespace()</text><ellipse cx="17" cy="213.1719" fill="#84BE84" rx="3" ry="3" style="stroke: #038048; stroke-width: 1.0;"/><text fill="#19273C" font-family="sans-serif" font-size="16" lengthAdjust="spacingAndGlyphs" textLength="133" x="26" y="218.2188">boolean isArray()</text><ellipse cx="17" cy="232.0156" fill="#84BE84" rx="3" ry="3" style="stroke: #038048; stroke-width: 1.0;"/><text fill="#19273C" font-family="sans-serif" font-size="16" lengthAdjust="spacingAndGlyphs" textLength="172" x="26" y="237.0625">boolean isTypeEnum()</text><ellipse cx="17" cy="250.8594" fill="#84BE84" rx="3" ry="3" style="stroke: #038048; stroke-width: 1.0;"/><text fill="#19273C" font-family="sans-serif" font-size="16" lengthAdjust="spacingAndGlyphs" textLength="160" x="26" y="255.9063">boolean isPrimitive()</text><!--class Decorated--><rect fill="#F8FAFA" height="48" rx="1" ry="1" style="stroke: #E3ECEC; stroke-width: 1.5;" width="112" x="125" y="323"/><ellipse cx="140" cy="339" fill="#FFFFFF" rx="11" ry="11" style="stroke: #E3ECEC; stroke-width: 1.0;"/><path d="M142.4453,344.6641 Q141.8984,344.9453 141.2969,345.0859 Q140.6953,345.2266 140.0313,345.2266 Q137.6719,345.2266 136.4297,343.6719 Q135.1875,342.1172 135.1875,339.1797 Q135.1875,336.2344 136.4297,334.6797 Q137.6719,333.125 140.0313,333.125 Q140.6953,333.125 141.3047,333.2656 Q141.9141,333.4063 142.4453,333.6875 L142.4453,336.25 Q141.8516,335.7031 141.293,335.4492 Q140.7344,335.1953 140.1406,335.1953 Q138.875,335.1953 138.2305,336.1992 Q137.5859,337.2031 137.5859,339.1797 Q137.5859,341.1484 138.2305,342.1523 Q138.875,343.1563 140.1406,343.1563 Q140.7344,343.1563 141.293,342.9023 Q141.8516,342.6484 142.4453,342.1016 Z "/><text fill="#19273C" font-family="sans-serif" font-size="16" lengthAdjust="spacingAndGlyphs" textLength="80" x="154" y="345.0469">Decorated</text><line style="stroke: #E3ECEC; stroke-width: 1.5;" x1="126" x2="236" y1="355" y2="355"/><line style="stroke: #E3ECEC; stroke-width: 1.5;" x1="126" x2="236" y1="363" y2="363"/><path d="M181,263.1058 C181,277.2128 181,290.7772 181,302.7347 " fill="none" style="stroke: #3C6DF0; stroke-width: 1.0;"/><polygon fill="none" points="188.0001,302.8759,181,322.8759,174.0001,302.8758,188.0001,302.8759" style="stroke: #3C6DF0; stroke-width: 1.0;"/></g></svg>