<?xml version="1.0" encoding="UTF-8" standalone="no"?><svg xmlns="http://www.w3.org/2000/svg" xmlns:xlink="http://www.w3.org/1999/xlink" contentScriptType="application/ecmascript" contentStyleType="text/css" height="355px" preserveAspectRatio="none" style="width:934px;height:355px;" version="1.1" viewBox="0 0 934 355" width="934px" zoomAndPan="magnify"><defs/><g><!--class Registry--><rect fill="#F8FAFA" height="346" rx="1" ry="1" style="stroke: #E3ECEC; stroke-width: 1.5;" width="927" x="6" y="8"/><ellipse cx="433.25" cy="24" fill="#FFFFFF" rx="11" ry="11" style="stroke: #E3ECEC; stroke-width: 1.0;"/><path d="M435.7031,29.6563 Q435.1563,29.9375 434.5547,30.0859 Q433.9531,30.2344 433.2813,30.2344 Q430.9219,30.2344 429.6797,28.6719 Q428.4375,27.1094 428.4375,24.1719 Q428.4375,21.2344 429.6797,19.6797 Q430.9219,18.125 433.2813,18.125 Q433.9531,18.125 434.5625,18.2656 Q435.1719,18.4063 435.7031,18.6875 L435.7031,21.25 Q435.1094,20.7031 434.5469,20.4453 Q433.9844,20.1875 433.3906,20.1875 Q432.125,20.1875 431.4844,21.1953 Q430.8438,22.2031 430.8438,24.1719 Q430.8438,26.1406 431.4844,27.1484 Q432.125,28.1563 433.3906,28.1563 Q433.9844,28.1563 434.5469,27.8984 Q435.1094,27.6406 435.7031,27.0938 L435.7031,29.6563 Z "/><text fill="#19273C" font-family="sans-serif" font-size="16" lengthAdjust="spacingAndGlyphs" textLength="64" x="453.75" y="29.5391">Registry</text><line style="stroke: #E3ECEC; stroke-width: 1.5;" x1="7" x2="932" y1="40" y2="40"/><line style="stroke: #E3ECEC; stroke-width: 1.5;" x1="7" x2="932" y1="48" y2="48"/><polygon fill="#4177AF" points="17,58.3125,13,64.3125,21,64.3125" style="stroke: #1963A0; stroke-width: 1.0;"/><text fill="#19273C" font-family="sans-serif" font-size="16" lengthAdjust="spacingAndGlyphs" textLength="439" x="26" y="66.8516">Promise getAllRegistries(SecurityContext,string,boolean)</text><polygon fill="#4177AF" points="17,76.9375,13,82.9375,21,82.9375" style="stroke: #1963A0; stroke-width: 1.0;"/><text fill="#19273C" font-family="sans-serif" font-size="16" lengthAdjust="spacingAndGlyphs" textLength="394" x="26" y="85.4766">Promise getRegistry(SecurityContext,string,string)</text><polygon fill="#4177AF" points="17,95.5625,13,101.5625,21,101.5625" style="stroke: #1963A0; stroke-width: 1.0;"/><text fill="#19273C" font-family="sans-serif" font-size="16" lengthAdjust="spacingAndGlyphs" textLength="415" x="26" y="104.1016">Promise existsRegistry(SecurityContext,string,string)</text><polygon fill="#4177AF" points="17,114.1875,13,120.1875,21,120.1875" style="stroke: #1963A0; stroke-width: 1.0;"/><text fill="#19273C" font-family="sans-serif" font-size="16" lengthAdjust="spacingAndGlyphs" textLength="448" x="26" y="122.7266">Promise addRegistry(SecurityContext,string,string,string)</text><polygon fill="#4177AF" points="17,132.8125,13,138.8125,21,138.8125" style="stroke: #1963A0; stroke-width: 1.0;"/><text fill="#19273C" font-family="sans-serif" font-size="16" lengthAdjust="spacingAndGlyphs" textLength="901" x="26" y="141.3516">void constructor(string,string,string,SecurityContext,ModelManager,Factory,Serializer,BusinessNetworkConnection)</text><ellipse cx="17" cy="155.4375" fill="#84BE84" rx="3" ry="3" style="stroke: #038048; stroke-width: 1.0;"/><text fill="#19273C" font-family="sans-serif" font-size="16" lengthAdjust="spacingAndGlyphs" textLength="212" x="26" y="159.9766">Promise addAll(Resource[])</text><ellipse cx="17" cy="174.0625" fill="#84BE84" rx="3" ry="3" style="stroke: #038048; stroke-width: 1.0;"/><text fill="#19273C" font-family="sans-serif" font-size="16" lengthAdjust="spacingAndGlyphs" textLength="183" x="26" y="178.6016">Promise add(Resource)</text><ellipse cx="17" cy="192.6875" fill="#84BE84" rx="3" ry="3" style="stroke: #038048; stroke-width: 1.0;"/><text fill="#19273C" font-family="sans-serif" font-size="16" lengthAdjust="spacingAndGlyphs" textLength="237" x="26" y="197.2266">Promise updateAll(Resource[])</text><ellipse cx="17" cy="211.3125" fill="#84BE84" rx="3" ry="3" style="stroke: #038048; stroke-width: 1.0;"/><text fill="#19273C" font-family="sans-serif" font-size="16" lengthAdjust="spacingAndGlyphs" textLength="208" x="26" y="215.8516">Promise update(Resource)</text><ellipse cx="17" cy="229.9375" fill="#84BE84" rx="3" ry="3" style="stroke: #038048; stroke-width: 1.0;"/><text fill="#19273C" font-family="sans-serif" font-size="16" lengthAdjust="spacingAndGlyphs" textLength="156" x="26" y="234.4766">Promise removeAll()</text><ellipse cx="17" cy="248.5625" fill="#84BE84" rx="3" ry="3" style="stroke: #038048; stroke-width: 1.0;"/><text fill="#19273C" font-family="sans-serif" font-size="16" lengthAdjust="spacingAndGlyphs" textLength="139" x="26" y="253.1016">Promise remove()</text><ellipse cx="17" cy="267.1875" fill="#84BE84" rx="3" ry="3" style="stroke: #038048; stroke-width: 1.0;"/><text fill="#19273C" font-family="sans-serif" font-size="16" lengthAdjust="spacingAndGlyphs" textLength="122" x="26" y="271.7266">Promise getAll()</text><ellipse cx="17" cy="285.8125" fill="#84BE84" rx="3" ry="3" style="stroke: #038048; stroke-width: 1.0;"/><text fill="#19273C" font-family="sans-serif" font-size="16" lengthAdjust="spacingAndGlyphs" textLength="150" x="26" y="290.3516">Promise get(string)</text><ellipse cx="17" cy="304.4375" fill="#84BE84" rx="3" ry="3" style="stroke: #038048; stroke-width: 1.0;"/><text fill="#19273C" font-family="sans-serif" font-size="16" lengthAdjust="spacingAndGlyphs" textLength="171" x="26" y="308.9766">Promise exists(string)</text><ellipse cx="17" cy="323.0625" fill="#84BE84" rx="3" ry="3" style="stroke: #038048; stroke-width: 1.0;"/><text fill="#19273C" font-family="sans-serif" font-size="16" lengthAdjust="spacingAndGlyphs" textLength="153" x="26" y="327.6016">Promise resolveAll()</text><ellipse cx="17" cy="341.6875" fill="#84BE84" rx="3" ry="3" style="stroke: #038048; stroke-width: 1.0;"/><text fill="#19273C" font-family="sans-serif" font-size="16" lengthAdjust="spacingAndGlyphs" textLength="181" x="26" y="346.2266">Promise resolve(string)</text></g></svg>