<?xml version="1.0" encoding="UTF-8" standalone="no"?><svg xmlns="http://www.w3.org/2000/svg" xmlns:xlink="http://www.w3.org/1999/xlink" contentScriptType="application/ecmascript" contentStyleType="text/css" height="112px" preserveAspectRatio="none" style="width:549px;height:112px;" version="1.1" viewBox="0 0 549 112" width="549px" zoomAndPan="magnify"><defs/><g><!--class Serializer--><rect fill="#F8FAFA" height="103.875" rx="1" ry="1" style="stroke: #E3ECEC; stroke-width: 1.5;" width="542" x="6" y="8"/><ellipse cx="238.25" cy="24" fill="#FFFFFF" rx="11" ry="11" style="stroke: #E3ECEC; stroke-width: 1.0;"/><path d="M240.7031,29.6563 Q240.1563,29.9375 239.5547,30.0859 Q238.9531,30.2344 238.2813,30.2344 Q235.9219,30.2344 234.6797,28.6719 Q233.4375,27.1094 233.4375,24.1719 Q233.4375,21.2344 234.6797,19.6797 Q235.9219,18.125 238.2813,18.125 Q238.9531,18.125 239.5625,18.2656 Q240.1719,18.4063 240.7031,18.6875 L240.7031,21.25 Q240.1094,20.7031 239.5469,20.4453 Q238.9844,20.1875 238.3906,20.1875 Q237.125,20.1875 236.4844,21.1953 Q235.8438,22.2031 235.8438,24.1719 Q235.8438,26.1406 236.4844,27.1484 Q237.125,28.1563 238.3906,28.1563 Q238.9844,28.1563 239.5469,27.8984 Q240.1094,27.6406 240.7031,27.0938 L240.7031,29.6563 Z "/><text fill="#19273C" font-family="sans-serif" font-size="16" lengthAdjust="spacingAndGlyphs" textLength="69" x="258.75" y="29.5391">Serializer</text><line style="stroke: #E3ECEC; stroke-width: 1.5;" x1="7" x2="547" y1="40" y2="40"/><line style="stroke: #E3ECEC; stroke-width: 1.5;" x1="7" x2="547" y1="48" y2="48"/><ellipse cx="17" cy="62.3125" fill="#84BE84" rx="3" ry="3" style="stroke: #038048; stroke-width: 1.0;"/><text fill="#19273C" font-family="sans-serif" font-size="16" lengthAdjust="spacingAndGlyphs" textLength="318" x="26" y="66.8516">void constructor(Factory,ModelManager)</text><ellipse cx="17" cy="80.9375" fill="#84BE84" rx="3" ry="3" style="stroke: #038048; stroke-width: 1.0;"/><text fill="#19273C" font-family="sans-serif" font-size="16" lengthAdjust="spacingAndGlyphs" textLength="516" x="26" y="85.4766">Object toJSON(Resource,Object,boolean,boolean,boolean,boolean)</text><ellipse cx="17" cy="99.5625" fill="#84BE84" rx="3" ry="3" style="stroke: #038048; stroke-width: 1.0;"/><text fill="#19273C" font-family="sans-serif" font-size="16" lengthAdjust="spacingAndGlyphs" textLength="406" x="26" y="104.1016">Resource fromJSON(Object,Object,boolean,boolean)</text></g></svg>