<?xml version="1.0" encoding="UTF-8" standalone="no"?><svg xmlns="http://www.w3.org/2000/svg" xmlns:xlink="http://www.w3.org/1999/xlink" contentScriptType="application/ecmascript" contentStyleType="text/css" height="203px" preserveAspectRatio="none" style="width:272px;height:203px;" version="1.1" viewBox="0 0 272 203" width="272px" zoomAndPan="magnify"><defs/><g><!--class TypeNotFoundException--><rect fill="#F8FAFA" height="85.25" rx="1" ry="1" style="stroke: #E3ECEC; stroke-width: 1.5;" width="265" x="6" y="8.5"/><ellipse cx="39.9" cy="24.5" fill="#FFFFFF" rx="11" ry="11" style="stroke: #E3ECEC; stroke-width: 1.0;"/><path d="M42.3531,30.1563 Q41.8063,30.4375 41.2047,30.5859 Q40.6031,30.7344 39.9313,30.7344 Q37.5719,30.7344 36.3297,29.1719 Q35.0875,27.6094 35.0875,24.6719 Q35.0875,21.7344 36.3297,20.1797 Q37.5719,18.625 39.9313,18.625 Q40.6031,18.625 41.2125,18.7656 Q41.8219,18.9063 42.3531,19.1875 L42.3531,21.75 Q41.7594,21.2031 41.1969,20.9453 Q40.6344,20.6875 40.0406,20.6875 Q38.775,20.6875 38.1344,21.6953 Q37.4938,22.7031 37.4938,24.6719 Q37.4938,26.6406 38.1344,27.6484 Q38.775,28.6563 40.0406,28.6563 Q40.6344,28.6563 41.1969,28.3984 Q41.7594,28.1406 42.3531,27.5938 L42.3531,30.1563 Z "/><text fill="#19273C" font-family="sans-serif" font-size="16" lengthAdjust="spacingAndGlyphs" textLength="191" x="58.1" y="30.0391">TypeNotFoundException</text><line style="stroke: #E3ECEC; stroke-width: 1.5;" x1="7" x2="270" y1="40.5" y2="40.5"/><line style="stroke: #E3ECEC; stroke-width: 1.5;" x1="7" x2="270" y1="48.5" y2="48.5"/><ellipse cx="17" cy="62.8125" fill="#84BE84" rx="3" ry="3" style="stroke: #038048; stroke-width: 1.0;"/><text fill="#19273C" font-family="sans-serif" font-size="16" lengthAdjust="spacingAndGlyphs" textLength="239" x="26" y="67.3516">void constructor(String,String)</text><ellipse cx="17" cy="81.4375" fill="#84BE84" rx="3" ry="3" style="stroke: #038048; stroke-width: 1.0;"/><text fill="#19273C" font-family="sans-serif" font-size="16" lengthAdjust="spacingAndGlyphs" textLength="169" x="26" y="85.9766">string getTypeName()</text><!--class BaseException--><rect fill="#F8FAFA" height="48" rx="1" ry="1" style="stroke: #E3ECEC; stroke-width: 1.5;" width="147" x="65" y="154"/><ellipse cx="80" cy="170" fill="#FFFFFF" rx="11" ry="11" style="stroke: #E3ECEC; stroke-width: 1.0;"/><path d="M82.4531,175.6563 Q81.9063,175.9375 81.3047,176.0859 Q80.7031,176.2344 80.0313,176.2344 Q77.6719,176.2344 76.4297,174.6719 Q75.1875,173.1094 75.1875,170.1719 Q75.1875,167.2344 76.4297,165.6797 Q77.6719,164.125 80.0313,164.125 Q80.7031,164.125 81.3125,164.2656 Q81.9219,164.4063 82.4531,164.6875 L82.4531,167.25 Q81.8594,166.7031 81.2969,166.4453 Q80.7344,166.1875 80.1406,166.1875 Q78.875,166.1875 78.2344,167.1953 Q77.5938,168.2031 77.5938,170.1719 Q77.5938,172.1406 78.2344,173.1484 Q78.875,174.1563 80.1406,174.1563 Q80.7344,174.1563 81.2969,173.8984 Q81.8594,173.6406 82.4531,173.0938 L82.4531,175.6563 Z "/><text fill="#19273C" font-family="sans-serif" font-size="16" lengthAdjust="spacingAndGlyphs" textLength="115" x="94" y="175.5391">BaseException</text><line style="stroke: #E3ECEC; stroke-width: 1.5;" x1="66" x2="211" y1="186" y2="186"/><line style="stroke: #E3ECEC; stroke-width: 1.5;" x1="66" x2="211" y1="194" y2="194"/><path d="M138.25,93.623 C138.25,106.4535 138.25,120.61 138.25,133.5593 " fill="none" style="stroke: #3C6DF0; stroke-width: 1.0;"/><polygon fill="none" points="145.25,133.7655,138.25,153.7654,131.25,133.7654,145.25,133.7655" style="stroke: #3C6DF0; stroke-width: 1.0;"/></g></svg>