<?xml version="1.0" encoding="UTF-8" standalone="no"?><svg xmlns="http://www.w3.org/2000/svg" xmlns:xlink="http://www.w3.org/1999/xlink" contentScriptType="application/ecmascript" contentStyleType="text/css" height="170px" preserveAspectRatio="none" style="width:310px;height:170px;" version="1.1" viewBox="0 0 310 170" width="310px" zoomAndPan="magnify"><defs/><g><!--class Typed--><rect fill="#F8FAFA" height="161.0625" rx="1" ry="1" style="stroke: #E3ECEC; stroke-width: 1.5;" width="303" x="6" y="8"/><ellipse cx="129.75" cy="24" fill="#FFFFFF" rx="11" ry="11" style="stroke: #E3ECEC; stroke-width: 1.0;"/><path d="M132.1953,29.6641 Q131.6484,29.9453 131.0469,30.0859 Q130.4453,30.2266 129.7813,30.2266 Q127.4219,30.2266 126.1797,28.6719 Q124.9375,27.1172 124.9375,24.1797 Q124.9375,21.2344 126.1797,19.6797 Q127.4219,18.125 129.7813,18.125 Q130.4453,18.125 131.0547,18.2656 Q131.6641,18.4063 132.1953,18.6875 L132.1953,21.25 Q131.6016,20.7031 131.043,20.4492 Q130.4844,20.1953 129.8906,20.1953 Q128.625,20.1953 127.9805,21.1992 Q127.3359,22.2031 127.3359,24.1797 Q127.3359,26.1484 127.9805,27.1523 Q128.625,28.1563 129.8906,28.1563 Q130.4844,28.1563 131.043,27.9023 Q131.6016,27.6484 132.1953,27.1016 Z "/><text fill="#19273C" font-family="sans-serif" font-size="16" lengthAdjust="spacingAndGlyphs" textLength="47" x="150.25" y="30.0469">Typed</text><line style="stroke: #E3ECEC; stroke-width: 1.5;" x1="7" x2="308" y1="40" y2="40"/><line style="stroke: #E3ECEC; stroke-width: 1.5;" x1="7" x2="308" y1="48" y2="48"/><ellipse cx="17" cy="62.4219" fill="#84BE84" rx="3" ry="3" style="stroke: #038048; stroke-width: 1.0;"/><text fill="#19273C" font-family="sans-serif" font-size="16" lengthAdjust="spacingAndGlyphs" textLength="123" x="26" y="67.4688">string getType()</text><ellipse cx="17" cy="81.2656" fill="#84BE84" rx="3" ry="3" style="stroke: #038048; stroke-width: 1.0;"/><text fill="#19273C" font-family="sans-serif" font-size="16" lengthAdjust="spacingAndGlyphs" textLength="231" x="26" y="86.3125">string getFullyQualifiedType()</text><ellipse cx="17" cy="100.1094" fill="#84BE84" rx="3" ry="3" style="stroke: #038048; stroke-width: 1.0;"/><text fill="#19273C" font-family="sans-serif" font-size="16" lengthAdjust="spacingAndGlyphs" textLength="175" x="26" y="105.1563">string getNamespace()</text><ellipse cx="17" cy="118.9531" fill="#84BE84" rx="3" ry="3" style="stroke: #038048; stroke-width: 1.0;"/><text fill="#19273C" font-family="sans-serif" font-size="16" lengthAdjust="spacingAndGlyphs" textLength="277" x="26" y="124">void setPropertyValue(string,string)</text><ellipse cx="17" cy="137.7969" fill="#84BE84" rx="3" ry="3" style="stroke: #038048; stroke-width: 1.0;"/><text fill="#19273C" font-family="sans-serif" font-size="16" lengthAdjust="spacingAndGlyphs" textLength="259" x="26" y="142.8438">void addArrayValue(string,string)</text><ellipse cx="17" cy="156.6406" fill="#84BE84" rx="3" ry="3" style="stroke: #038048; stroke-width: 1.0;"/><text fill="#19273C" font-family="sans-serif" font-size="16" lengthAdjust="spacingAndGlyphs" textLength="208" x="26" y="161.6875">boolean instanceOf(String)</text></g></svg>