<?xml version="1.0" encoding="UTF-8" standalone="no"?><svg xmlns="http://www.w3.org/2000/svg" xmlns:xlink="http://www.w3.org/1999/xlink" contentScriptType="application/ecmascript" contentStyleType="text/css" height="170px" preserveAspectRatio="none" style="width:311px;height:170px;" version="1.1" viewBox="0 0 311 170" width="311px" zoomAndPan="magnify"><defs/><g><!--class BusinessNetworkCardStore--><rect fill="#F8FAFA" height="161.0625" rx="1" ry="1" style="stroke: #E3ECEC; stroke-width: 1.5;" width="304" x="6" y="8"/><ellipse cx="48.9" cy="24" fill="#FFFFFF" rx="11" ry="11" style="stroke: #E3ECEC; stroke-width: 1.0;"/><path d="M51.3453,29.6641 Q50.7984,29.9453 50.1969,30.0859 Q49.5953,30.2266 48.9313,30.2266 Q46.5719,30.2266 45.3297,28.6719 Q44.0875,27.1172 44.0875,24.1797 Q44.0875,21.2344 45.3297,19.6797 Q46.5719,18.125 48.9313,18.125 Q49.5953,18.125 50.2047,18.2656 Q50.8141,18.4063 51.3453,18.6875 L51.3453,21.25 Q50.7516,20.7031 50.193,20.4492 Q49.6344,20.1953 49.0406,20.1953 Q47.775,20.1953 47.1305,21.1992 Q46.4859,22.2031 46.4859,24.1797 Q46.4859,26.1484 47.1305,27.1523 Q47.775,28.1563 49.0406,28.1563 Q49.6344,28.1563 50.193,27.9023 Q50.7516,27.6484 51.3453,27.1016 Z "/><text fill="#19273C" font-family="sans-serif" font-size="16" lengthAdjust="spacingAndGlyphs" textLength="210" x="69.1" y="30.0469">BusinessNetworkCardStore</text><line style="stroke: #E3ECEC; stroke-width: 1.5;" x1="7" x2="309" y1="40" y2="40"/><line style="stroke: #E3ECEC; stroke-width: 1.5;" x1="7" x2="309" y1="48" y2="48"/><ellipse cx="17" cy="62.4219" fill="#84BE84" rx="3" ry="3" style="stroke: #038048; stroke-width: 1.0;"/><text fill="#19273C" font-family="sans-serif" font-size="16" lengthAdjust="spacingAndGlyphs" textLength="278" x="26" y="67.4688">String getDefaultCardName(IdCard)</text><ellipse cx="17" cy="81.2656" fill="#84BE84" rx="3" ry="3" style="stroke: #038048; stroke-width: 1.0;"/><text fill="#19273C" font-family="sans-serif" font-size="16" lengthAdjust="spacingAndGlyphs" textLength="150" x="26" y="86.3125">Promise get(String)</text><ellipse cx="17" cy="100.1094" fill="#84BE84" rx="3" ry="3" style="stroke: #038048; stroke-width: 1.0;"/><text fill="#19273C" font-family="sans-serif" font-size="16" lengthAdjust="spacingAndGlyphs" textLength="208" x="26" y="105.1563">Promise put(String,IdCard)</text><ellipse cx="17" cy="118.9531" fill="#84BE84" rx="3" ry="3" style="stroke: #038048; stroke-width: 1.0;"/><text fill="#19273C" font-family="sans-serif" font-size="16" lengthAdjust="spacingAndGlyphs" textLength="152" x="26" y="124">Promise has(String)</text><ellipse cx="17" cy="137.7969" fill="#84BE84" rx="3" ry="3" style="stroke: #038048; stroke-width: 1.0;"/><text fill="#19273C" font-family="sans-serif" font-size="16" lengthAdjust="spacingAndGlyphs" textLength="124" x="26" y="142.8438">Promise getAll()</text><ellipse cx="17" cy="156.6406" fill="#84BE84" rx="3" ry="3" style="stroke: #038048; stroke-width: 1.0;"/><text fill="#19273C" font-family="sans-serif" font-size="16" lengthAdjust="spacingAndGlyphs" textLength="173" x="26" y="161.6875">Promise delete(String)</text></g></svg>