<?xml version="1.0" encoding="UTF-8" standalone="no"?><svg xmlns="http://www.w3.org/2000/svg" xmlns:xlink="http://www.w3.org/1999/xlink" contentScriptType="application/ecmascript" contentStyleType="text/css" height="283px" preserveAspectRatio="none" style="width:703px;height:283px;" version="1.1" viewBox="0 0 703 283" width="703px" zoomAndPan="magnify"><defs/><g><!--class BusinessNetworkDefinition--><rect fill="#F8FAFA" height="274.125" rx="1" ry="1" style="stroke: #E3ECEC; stroke-width: 1.5;" width="696" x="6" y="8"/><ellipse cx="244.75" cy="24" fill="#FFFFFF" rx="11" ry="11" style="stroke: #E3ECEC; stroke-width: 1.0;"/><path d="M247.1953,29.6641 Q246.6484,29.9453 246.0469,30.0859 Q245.4453,30.2266 244.7813,30.2266 Q242.4219,30.2266 241.1797,28.6719 Q239.9375,27.1172 239.9375,24.1797 Q239.9375,21.2344 241.1797,19.6797 Q242.4219,18.125 244.7813,18.125 Q245.4453,18.125 246.0547,18.2656 Q246.6641,18.4063 247.1953,18.6875 L247.1953,21.25 Q246.6016,20.7031 246.043,20.4492 Q245.4844,20.1953 244.8906,20.1953 Q243.625,20.1953 242.9805,21.1992 Q242.3359,22.2031 242.3359,24.1797 Q242.3359,26.1484 242.9805,27.1523 Q243.625,28.1563 244.8906,28.1563 Q245.4844,28.1563 246.043,27.9023 Q246.6016,27.6484 247.1953,27.1016 Z "/><text fill="#19273C" font-family="sans-serif" font-size="16" lengthAdjust="spacingAndGlyphs" textLength="210" x="265.25" y="30.0469">BusinessNetworkDefinition</text><line style="stroke: #E3ECEC; stroke-width: 1.5;" x1="7" x2="701" y1="40" y2="40"/><line style="stroke: #E3ECEC; stroke-width: 1.5;" x1="7" x2="701" y1="48" y2="48"/><ellipse cx="17" cy="62.4219" fill="#84BE84" rx="3" ry="3" style="stroke: #038048; stroke-width: 1.0;"/><text fill="#19273C" font-family="sans-serif" font-size="16" lengthAdjust="spacingAndGlyphs" textLength="159" x="26" y="67.4688">String getIdentifier()</text><ellipse cx="17" cy="81.2656" fill="#84BE84" rx="3" ry="3" style="stroke: #038048; stroke-width: 1.0;"/><text fill="#19273C" font-family="sans-serif" font-size="16" lengthAdjust="spacingAndGlyphs" textLength="316" x="26" y="86.3125">BusinessNetworkMetadata getMetadata()</text><ellipse cx="17" cy="100.1094" fill="#84BE84" rx="3" ry="3" style="stroke: #038048; stroke-width: 1.0;"/><text fill="#19273C" font-family="sans-serif" font-size="16" lengthAdjust="spacingAndGlyphs" textLength="132" x="26" y="105.1563">String getName()</text><ellipse cx="17" cy="118.9531" fill="#84BE84" rx="3" ry="3" style="stroke: #038048; stroke-width: 1.0;"/><text fill="#19273C" font-family="sans-serif" font-size="16" lengthAdjust="spacingAndGlyphs" textLength="146" x="26" y="124">String getVersion()</text><ellipse cx="17" cy="137.7969" fill="#84BE84" rx="3" ry="3" style="stroke: #038048; stroke-width: 1.0;"/><text fill="#19273C" font-family="sans-serif" font-size="16" lengthAdjust="spacingAndGlyphs" textLength="177" x="26" y="142.8438">String getDescription()</text><ellipse cx="17" cy="156.6406" fill="#84BE84" rx="3" ry="3" style="stroke: #038048; stroke-width: 1.0;"/><text fill="#19273C" font-family="sans-serif" font-size="16" lengthAdjust="spacingAndGlyphs" textLength="221" x="26" y="161.6875">Promise fromArchive(Buffer)</text><ellipse cx="17" cy="175.4844" fill="#84BE84" rx="3" ry="3" style="stroke: #038048; stroke-width: 1.0;"/><text fill="#19273C" font-family="sans-serif" font-size="16" lengthAdjust="spacingAndGlyphs" textLength="202" x="26" y="180.5313">Promise toArchive(Object)</text><ellipse cx="17" cy="194.3281" fill="#84BE84" rx="3" ry="3" style="stroke: #038048; stroke-width: 1.0;"/><text fill="#19273C" font-family="sans-serif" font-size="16" lengthAdjust="spacingAndGlyphs" textLength="670" x="26" y="199.375">Promise fromDirectory(String,Object,Object,boolean,boolean,boolean,object,boolean)</text><ellipse cx="17" cy="213.1719" fill="#84BE84" rx="3" ry="3" style="stroke: #038048; stroke-width: 1.0;"/><text fill="#19273C" font-family="sans-serif" font-size="16" lengthAdjust="spacingAndGlyphs" textLength="213" x="26" y="218.2188">Promise toDirectory(String)</text><ellipse cx="17" cy="232.0156" fill="#84BE84" rx="3" ry="3" style="stroke: #038048; stroke-width: 1.0;"/><text fill="#19273C" font-family="sans-serif" font-size="16" lengthAdjust="spacingAndGlyphs" textLength="232" x="26" y="237.0625">Introspector getIntrospector()</text><ellipse cx="17" cy="250.8594" fill="#84BE84" rx="3" ry="3" style="stroke: #038048; stroke-width: 1.0;"/><text fill="#19273C" font-family="sans-serif" font-size="16" lengthAdjust="spacingAndGlyphs" textLength="154" x="26" y="255.9063">Factory getFactory()</text><ellipse cx="17" cy="269.7031" fill="#84BE84" rx="3" ry="3" style="stroke: #038048; stroke-width: 1.0;"/><text fill="#19273C" font-family="sans-serif" font-size="16" lengthAdjust="spacingAndGlyphs" textLength="188" x="26" y="274.75">Serializer getSerializer()</text></g></svg>