<?xml version="1.0" encoding="UTF-8" standalone="no"?><svg xmlns="http://www.w3.org/2000/svg" xmlns:xlink="http://www.w3.org/1999/xlink" contentScriptType="application/ecmascript" contentStyleType="text/css" height="168px" preserveAspectRatio="none" style="width:246px;height:168px;" version="1.1" viewBox="0 0 246 168" width="246px" zoomAndPan="magnify"><defs/><g><!--class BusinessNetworkMetadata--><rect fill="#F8FAFA" height="159.75" rx="1" ry="1" style="stroke: #E3ECEC; stroke-width: 1.5;" width="239" x="6" y="8"/><ellipse cx="21" cy="24" fill="#FFFFFF" rx="11" ry="11" style="stroke: #E3ECEC; stroke-width: 1.0;"/><path d="M23.4531,29.6563 Q22.9063,29.9375 22.3047,30.0859 Q21.7031,30.2344 21.0313,30.2344 Q18.6719,30.2344 17.4297,28.6719 Q16.1875,27.1094 16.1875,24.1719 Q16.1875,21.2344 17.4297,19.6797 Q18.6719,18.125 21.0313,18.125 Q21.7031,18.125 22.3125,18.2656 Q22.9219,18.4063 23.4531,18.6875 L23.4531,21.25 Q22.8594,20.7031 22.2969,20.4453 Q21.7344,20.1875 21.1406,20.1875 Q19.875,20.1875 19.2344,21.1953 Q18.5938,22.2031 18.5938,24.1719 Q18.5938,26.1406 19.2344,27.1484 Q19.875,28.1563 21.1406,28.1563 Q21.7344,28.1563 22.2969,27.8984 Q22.8594,27.6406 23.4531,27.0938 L23.4531,29.6563 Z "/><text fill="#19273C" font-family="sans-serif" font-size="16" lengthAdjust="spacingAndGlyphs" textLength="207" x="35" y="29.5391">BusinessNetworkMetadata</text><line style="stroke: #E3ECEC; stroke-width: 1.5;" x1="7" x2="244" y1="40" y2="40"/><line style="stroke: #E3ECEC; stroke-width: 1.5;" x1="7" x2="244" y1="48" y2="48"/><ellipse cx="17" cy="62.3125" fill="#84BE84" rx="3" ry="3" style="stroke: #038048; stroke-width: 1.0;"/><text fill="#19273C" font-family="sans-serif" font-size="16" lengthAdjust="spacingAndGlyphs" textLength="155" x="26" y="66.8516">String getREADME()</text><ellipse cx="17" cy="80.9375" fill="#84BE84" rx="3" ry="3" style="stroke: #038048; stroke-width: 1.0;"/><text fill="#19273C" font-family="sans-serif" font-size="16" lengthAdjust="spacingAndGlyphs" textLength="188" x="26" y="85.4766">object getPackageJson()</text><ellipse cx="17" cy="99.5625" fill="#84BE84" rx="3" ry="3" style="stroke: #038048; stroke-width: 1.0;"/><text fill="#19273C" font-family="sans-serif" font-size="16" lengthAdjust="spacingAndGlyphs" textLength="133" x="26" y="104.1016">String getName()</text><ellipse cx="17" cy="118.1875" fill="#84BE84" rx="3" ry="3" style="stroke: #038048; stroke-width: 1.0;"/><text fill="#19273C" font-family="sans-serif" font-size="16" lengthAdjust="spacingAndGlyphs" textLength="176" x="26" y="122.7266">String getDescription()</text><ellipse cx="17" cy="136.8125" fill="#84BE84" rx="3" ry="3" style="stroke: #038048; stroke-width: 1.0;"/><text fill="#19273C" font-family="sans-serif" font-size="16" lengthAdjust="spacingAndGlyphs" textLength="147" x="26" y="141.3516">String getVersion()</text><ellipse cx="17" cy="155.4375" fill="#84BE84" rx="3" ry="3" style="stroke: #038048; stroke-width: 1.0;"/><text fill="#19273C" font-family="sans-serif" font-size="16" lengthAdjust="spacingAndGlyphs" textLength="156" x="26" y="159.9766">String getIdentifier()</text></g></svg>