<?xml version="1.0" encoding="UTF-8" standalone="no"?><svg xmlns="http://www.w3.org/2000/svg" xmlns:xlink="http://www.w3.org/1999/xlink" contentScriptType="application/ecmascript" contentStyleType="text/css" height="76px" preserveAspectRatio="none" style="width:401px;height:76px;" version="1.1" viewBox="0 0 401 76" width="401px" zoomAndPan="magnify"><defs/><g><!--class CertificateUtil--><rect fill="#F8FAFA" height="66.625" rx="1" ry="1" style="stroke: #E3ECEC; stroke-width: 1.5;" width="394" x="6" y="8.5"/><ellipse cx="147.75" cy="24.5" fill="#FFFFFF" rx="11" ry="11" style="stroke: #E3ECEC; stroke-width: 1.0;"/><path d="M150.2031,30.1563 Q149.6563,30.4375 149.0547,30.5859 Q148.4531,30.7344 147.7813,30.7344 Q145.4219,30.7344 144.1797,29.1719 Q142.9375,27.6094 142.9375,24.6719 Q142.9375,21.7344 144.1797,20.1797 Q145.4219,18.625 147.7813,18.625 Q148.4531,18.625 149.0625,18.7656 Q149.6719,18.9063 150.2031,19.1875 L150.2031,21.75 Q149.6094,21.2031 149.0469,20.9453 Q148.4844,20.6875 147.8906,20.6875 Q146.625,20.6875 145.9844,21.6953 Q145.3438,22.7031 145.3438,24.6719 Q145.3438,26.6406 145.9844,27.6484 Q146.625,28.6563 147.8906,28.6563 Q148.4844,28.6563 149.0469,28.3984 Q149.6094,28.1406 150.2031,27.5938 L150.2031,30.1563 Z "/><text fill="#19273C" font-family="sans-serif" font-size="16" lengthAdjust="spacingAndGlyphs" textLength="102" x="168.25" y="30.0391">CertificateUtil</text><line style="stroke: #E3ECEC; stroke-width: 1.5;" x1="7" x2="399" y1="40.5" y2="40.5"/><line style="stroke: #E3ECEC; stroke-width: 1.5;" x1="7" x2="399" y1="48.5" y2="48.5"/><ellipse cx="17" cy="62.8125" fill="#84BE84" rx="3" ry="3" style="stroke: #038048; stroke-width: 1.0;"/><text fill="#19273C" font-family="sans-serif" font-size="16" lengthAdjust="spacingAndGlyphs" textLength="368" x="26" y="67.3516">void generate(Object,string,string,string,string)</text></g></svg>