<?xml version="1.0" encoding="UTF-8" standalone="no"?><svg xmlns="http://www.w3.org/2000/svg" xmlns:xlink="http://www.w3.org/1999/xlink" contentScriptType="application/ecmascript" contentStyleType="text/css" height="75px" preserveAspectRatio="none" style="width:404px;height:75px;" version="1.1" viewBox="0 0 404 75" width="404px" zoomAndPan="magnify"><defs/><g><!--class CertificateUtil--><rect fill="#F8FAFA" height="66.8438" rx="1" ry="1" style="stroke: #E3ECEC; stroke-width: 1.5;" width="397" x="6" y="8"/><ellipse cx="146.25" cy="24" fill="#FFFFFF" rx="11" ry="11" style="stroke: #E3ECEC; stroke-width: 1.0;"/><path d="M148.6953,29.6641 Q148.1484,29.9453 147.5469,30.0859 Q146.9453,30.2266 146.2813,30.2266 Q143.9219,30.2266 142.6797,28.6719 Q141.4375,27.1172 141.4375,24.1797 Q141.4375,21.2344 142.6797,19.6797 Q143.9219,18.125 146.2813,18.125 Q146.9453,18.125 147.5547,18.2656 Q148.1641,18.4063 148.6953,18.6875 L148.6953,21.25 Q148.1016,20.7031 147.543,20.4492 Q146.9844,20.1953 146.3906,20.1953 Q145.125,20.1953 144.4805,21.1992 Q143.8359,22.2031 143.8359,24.1797 Q143.8359,26.1484 144.4805,27.1523 Q145.125,28.1563 146.3906,28.1563 Q146.9844,28.1563 147.543,27.9023 Q148.1016,27.6484 148.6953,27.1016 Z "/><text fill="#19273C" font-family="sans-serif" font-size="16" lengthAdjust="spacingAndGlyphs" textLength="108" x="166.75" y="30.0469">CertificateUtil</text><line style="stroke: #E3ECEC; stroke-width: 1.5;" x1="7" x2="402" y1="40" y2="40"/><line style="stroke: #E3ECEC; stroke-width: 1.5;" x1="7" x2="402" y1="48" y2="48"/><ellipse cx="17" cy="62.4219" fill="#84BE84" rx="3" ry="3" style="stroke: #038048; stroke-width: 1.0;"/><text fill="#19273C" font-family="sans-serif" font-size="16" lengthAdjust="spacingAndGlyphs" textLength="371" x="26" y="67.4688">void generate(Object,string,string,string,string)</text></g></svg>