<?xml version="1.0" encoding="UTF-8" standalone="no"?><svg xmlns="http://www.w3.org/2000/svg" xmlns:xlink="http://www.w3.org/1999/xlink" contentScriptType="application/ecmascript" contentStyleType="text/css" height="170px" preserveAspectRatio="none" style="width:217px;height:170px;" version="1.1" viewBox="0 0 217 170" width="217px" zoomAndPan="magnify"><defs/><g><!--class Certificate--><rect fill="#F8FAFA" height="161.0625" rx="1" ry="1" style="stroke: #E3ECEC; stroke-width: 1.5;" width="210" x="6" y="8"/><ellipse cx="66.25" cy="24" fill="#FFFFFF" rx="11" ry="11" style="stroke: #E3ECEC; stroke-width: 1.0;"/><path d="M68.6953,29.6641 Q68.1484,29.9453 67.5469,30.0859 Q66.9453,30.2266 66.2813,30.2266 Q63.9219,30.2266 62.6797,28.6719 Q61.4375,27.1172 61.4375,24.1797 Q61.4375,21.2344 62.6797,19.6797 Q63.9219,18.125 66.2813,18.125 Q66.9453,18.125 67.5547,18.2656 Q68.1641,18.4063 68.6953,18.6875 L68.6953,21.25 Q68.1016,20.7031 67.543,20.4492 Q66.9844,20.1953 66.3906,20.1953 Q65.125,20.1953 64.4805,21.1992 Q63.8359,22.2031 63.8359,24.1797 Q63.8359,26.1484 64.4805,27.1523 Q65.125,28.1563 66.3906,28.1563 Q66.9844,28.1563 67.543,27.9023 Q68.1016,27.6484 68.6953,27.1016 Z "/><text fill="#19273C" font-family="sans-serif" font-size="16" lengthAdjust="spacingAndGlyphs" textLength="81" x="86.75" y="30.0469">Certificate</text><line style="stroke: #E3ECEC; stroke-width: 1.5;" x1="7" x2="215" y1="40" y2="40"/><line style="stroke: #E3ECEC; stroke-width: 1.5;" x1="7" x2="215" y1="48" y2="48"/><ellipse cx="17" cy="62.4219" fill="#84BE84" rx="3" ry="3" style="stroke: #038048; stroke-width: 1.0;"/><text fill="#19273C" font-family="sans-serif" font-size="16" lengthAdjust="spacingAndGlyphs" textLength="184" x="26" y="67.4688">void constructor(string)</text><ellipse cx="17" cy="81.2656" fill="#84BE84" rx="3" ry="3" style="stroke: #038048; stroke-width: 1.0;"/><text fill="#19273C" font-family="sans-serif" font-size="16" lengthAdjust="spacingAndGlyphs" textLength="167" x="26" y="86.3125">string getCertificate()</text><ellipse cx="17" cy="100.1094" fill="#84BE84" rx="3" ry="3" style="stroke: #038048; stroke-width: 1.0;"/><text fill="#19273C" font-family="sans-serif" font-size="16" lengthAdjust="spacingAndGlyphs" textLength="160" x="26" y="105.1563">string getPublicKey()</text><ellipse cx="17" cy="118.9531" fill="#84BE84" rx="3" ry="3" style="stroke: #038048; stroke-width: 1.0;"/><text fill="#19273C" font-family="sans-serif" font-size="16" lengthAdjust="spacingAndGlyphs" textLength="158" x="26" y="124">string getIdentifier()</text><ellipse cx="17" cy="137.7969" fill="#84BE84" rx="3" ry="3" style="stroke: #038048; stroke-width: 1.0;"/><text fill="#19273C" font-family="sans-serif" font-size="16" lengthAdjust="spacingAndGlyphs" textLength="133" x="26" y="142.8438">string getIssuer()</text><ellipse cx="17" cy="156.6406" fill="#84BE84" rx="3" ry="3" style="stroke: #038048; stroke-width: 1.0;"/><text fill="#19273C" font-family="sans-serif" font-size="16" lengthAdjust="spacingAndGlyphs" textLength="131" x="26" y="161.6875">string getName()</text></g></svg>