<?xml version="1.0" encoding="UTF-8" standalone="no"?><svg xmlns="http://www.w3.org/2000/svg" xmlns:xlink="http://www.w3.org/1999/xlink" contentScriptType="application/ecmascript" contentStyleType="text/css" height="168px" preserveAspectRatio="none" style="width:220px;height:168px;" version="1.1" viewBox="0 0 220 168" width="220px" zoomAndPan="magnify"><defs/><g><!--class Certificate--><rect fill="#F8FAFA" height="159.75" rx="1" ry="1" style="stroke: #E3ECEC; stroke-width: 1.5;" width="213" x="6" y="8"/><ellipse cx="69.25" cy="24" fill="#FFFFFF" rx="11" ry="11" style="stroke: #E3ECEC; stroke-width: 1.0;"/><path d="M71.7031,29.6563 Q71.1563,29.9375 70.5547,30.0859 Q69.9531,30.2344 69.2813,30.2344 Q66.9219,30.2344 65.6797,28.6719 Q64.4375,27.1094 64.4375,24.1719 Q64.4375,21.2344 65.6797,19.6797 Q66.9219,18.125 69.2813,18.125 Q69.9531,18.125 70.5625,18.2656 Q71.1719,18.4063 71.7031,18.6875 L71.7031,21.25 Q71.1094,20.7031 70.5469,20.4453 Q69.9844,20.1875 69.3906,20.1875 Q68.125,20.1875 67.4844,21.1953 Q66.8438,22.2031 66.8438,24.1719 Q66.8438,26.1406 67.4844,27.1484 Q68.125,28.1563 69.3906,28.1563 Q69.9844,28.1563 70.5469,27.8984 Q71.1094,27.6406 71.7031,27.0938 L71.7031,29.6563 Z "/><text fill="#19273C" font-family="sans-serif" font-size="16" lengthAdjust="spacingAndGlyphs" textLength="78" x="89.75" y="29.5391">Certificate</text><line style="stroke: #E3ECEC; stroke-width: 1.5;" x1="7" x2="218" y1="40" y2="40"/><line style="stroke: #E3ECEC; stroke-width: 1.5;" x1="7" x2="218" y1="48" y2="48"/><ellipse cx="17" cy="62.3125" fill="#84BE84" rx="3" ry="3" style="stroke: #038048; stroke-width: 1.0;"/><text fill="#19273C" font-family="sans-serif" font-size="16" lengthAdjust="spacingAndGlyphs" textLength="187" x="26" y="66.8516">void constructor(string)</text><ellipse cx="17" cy="80.9375" fill="#84BE84" rx="3" ry="3" style="stroke: #038048; stroke-width: 1.0;"/><text fill="#19273C" font-family="sans-serif" font-size="16" lengthAdjust="spacingAndGlyphs" textLength="165" x="26" y="85.4766">string getCertificate()</text><ellipse cx="17" cy="99.5625" fill="#84BE84" rx="3" ry="3" style="stroke: #038048; stroke-width: 1.0;"/><text fill="#19273C" font-family="sans-serif" font-size="16" lengthAdjust="spacingAndGlyphs" textLength="160" x="26" y="104.1016">string getPublicKey()</text><ellipse cx="17" cy="118.1875" fill="#84BE84" rx="3" ry="3" style="stroke: #038048; stroke-width: 1.0;"/><text fill="#19273C" font-family="sans-serif" font-size="16" lengthAdjust="spacingAndGlyphs" textLength="155" x="26" y="122.7266">string getIdentifier()</text><ellipse cx="17" cy="136.8125" fill="#84BE84" rx="3" ry="3" style="stroke: #038048; stroke-width: 1.0;"/><text fill="#19273C" font-family="sans-serif" font-size="16" lengthAdjust="spacingAndGlyphs" textLength="136" x="26" y="141.3516">string getIssuer()</text><ellipse cx="17" cy="155.4375" fill="#84BE84" rx="3" ry="3" style="stroke: #038048; stroke-width: 1.0;"/><text fill="#19273C" font-family="sans-serif" font-size="16" lengthAdjust="spacingAndGlyphs" textLength="132" x="26" y="159.9766">string getName()</text></g></svg>