<?xml version="1.0" encoding="UTF-8" standalone="no"?><svg xmlns="http://www.w3.org/2000/svg" xmlns:xlink="http://www.w3.org/1999/xlink" contentScriptType="application/ecmascript" contentStyleType="text/css" height="655px" preserveAspectRatio="none" style="width:438px;height:655px;" version="1.1" viewBox="0 0 438 655" width="438px" zoomAndPan="magnify"><defs/><g><!--class ClassDeclaration--><rect fill="#F8FAFA" height="537.9375" rx="1" ry="1" style="stroke: #E3ECEC; stroke-width: 1.5;" width="431" x="6" y="8"/><ellipse cx="151.75" cy="24" fill="#FFFFFF" rx="11" ry="11" style="stroke: #E3ECEC; stroke-width: 1.0;"/><path d="M154.1953,29.6641 Q153.6484,29.9453 153.0469,30.0859 Q152.4453,30.2266 151.7813,30.2266 Q149.4219,30.2266 148.1797,28.6719 Q146.9375,27.1172 146.9375,24.1797 Q146.9375,21.2344 148.1797,19.6797 Q149.4219,18.125 151.7813,18.125 Q152.4453,18.125 153.0547,18.2656 Q153.6641,18.4063 154.1953,18.6875 L154.1953,21.25 Q153.6016,20.7031 153.043,20.4492 Q152.4844,20.1953 151.8906,20.1953 Q150.625,20.1953 149.9805,21.1992 Q149.3359,22.2031 149.3359,24.1797 Q149.3359,26.1484 149.9805,27.1523 Q150.625,28.1563 151.8906,28.1563 Q152.4844,28.1563 153.043,27.9023 Q153.6016,27.6484 154.1953,27.1016 Z "/><text fill="#19273C" font-family="sans-serif" font-size="16" lengthAdjust="spacingAndGlyphs" textLength="131" x="172.25" y="30.0469">ClassDeclaration</text><line style="stroke: #E3ECEC; stroke-width: 1.5;" x1="7" x2="436" y1="40" y2="40"/><line style="stroke: #E3ECEC; stroke-width: 1.5;" x1="7" x2="436" y1="48" y2="48"/><ellipse cx="17" cy="62.4219" fill="#84BE84" rx="3" ry="3" style="stroke: #038048; stroke-width: 1.0;"/><text fill="#19273C" font-family="sans-serif" font-size="16" lengthAdjust="spacingAndGlyphs" textLength="265" x="26" y="67.4688">void constructor(ModelFile,string)</text><ellipse cx="17" cy="81.2656" fill="#84BE84" rx="3" ry="3" style="stroke: #038048; stroke-width: 1.0;"/><text fill="#19273C" font-family="sans-serif" font-size="16" lengthAdjust="spacingAndGlyphs" textLength="192" x="26" y="86.3125">ModelFile getModelFile()</text><ellipse cx="17" cy="100.1094" fill="#84BE84" rx="3" ry="3" style="stroke: #038048; stroke-width: 1.0;"/><text fill="#19273C" font-family="sans-serif" font-size="16" lengthAdjust="spacingAndGlyphs" textLength="292" x="26" y="105.1563">ClassDeclaration _resolveSuperType()</text><ellipse cx="17" cy="118.9531" fill="#84BE84" rx="3" ry="3" style="stroke: #038048; stroke-width: 1.0;"/><text fill="#19273C" font-family="sans-serif" font-size="16" lengthAdjust="spacingAndGlyphs" textLength="178" x="26" y="124">string getSystemType()</text><ellipse cx="17" cy="137.7969" fill="#84BE84" rx="3" ry="3" style="stroke: #038048; stroke-width: 1.0;"/><text fill="#19273C" font-family="sans-serif" font-size="16" lengthAdjust="spacingAndGlyphs" textLength="156" x="26" y="142.8438">boolean isAbstract()</text><ellipse cx="17" cy="156.6406" fill="#84BE84" rx="3" ry="3" style="stroke: #038048; stroke-width: 1.0;"/><text fill="#19273C" font-family="sans-serif" font-size="16" lengthAdjust="spacingAndGlyphs" textLength="135" x="26" y="161.6875">boolean isEnum()</text><ellipse cx="17" cy="175.4844" fill="#84BE84" rx="3" ry="3" style="stroke: #038048; stroke-width: 1.0;"/><text fill="#19273C" font-family="sans-serif" font-size="16" lengthAdjust="spacingAndGlyphs" textLength="155" x="26" y="180.5313">boolean isConcept()</text><ellipse cx="17" cy="194.3281" fill="#84BE84" rx="3" ry="3" style="stroke: #038048; stroke-width: 1.0;"/><text fill="#19273C" font-family="sans-serif" font-size="16" lengthAdjust="spacingAndGlyphs" textLength="133" x="26" y="199.375">boolean isEvent()</text><ellipse cx="17" cy="213.1719" fill="#84BE84" rx="3" ry="3" style="stroke: #038048; stroke-width: 1.0;"/><text fill="#19273C" font-family="sans-serif" font-size="16" lengthAdjust="spacingAndGlyphs" textLength="239" x="26" y="218.2188">boolean isRelationshipTarget()</text><ellipse cx="17" cy="232.0156" fill="#84BE84" rx="3" ry="3" style="stroke: #038048; stroke-width: 1.0;"/><text fill="#19273C" font-family="sans-serif" font-size="16" lengthAdjust="spacingAndGlyphs" textLength="294" x="26" y="237.0625">boolean isSystemRelationshipTarget()</text><ellipse cx="17" cy="250.8594" fill="#84BE84" rx="3" ry="3" style="stroke: #038048; stroke-width: 1.0;"/><text fill="#19273C" font-family="sans-serif" font-size="16" lengthAdjust="spacingAndGlyphs" textLength="183" x="26" y="255.9063">boolean isSystemType()</text><ellipse cx="17" cy="269.7031" fill="#84BE84" rx="3" ry="3" style="stroke: #038048; stroke-width: 1.0;"/><text fill="#19273C" font-family="sans-serif" font-size="16" lengthAdjust="spacingAndGlyphs" textLength="220" x="26" y="274.75">boolean isSystemCoreType()</text><ellipse cx="17" cy="288.5469" fill="#84BE84" rx="3" ry="3" style="stroke: #038048; stroke-width: 1.0;"/><text fill="#19273C" font-family="sans-serif" font-size="16" lengthAdjust="spacingAndGlyphs" textLength="131" x="26" y="293.5938">string getName()</text><ellipse cx="17" cy="307.3906" fill="#84BE84" rx="3" ry="3" style="stroke: #038048; stroke-width: 1.0;"/><text fill="#19273C" font-family="sans-serif" font-size="16" lengthAdjust="spacingAndGlyphs" textLength="176" x="26" y="312.4375">String getNamespace()</text><ellipse cx="17" cy="326.2344" fill="#84BE84" rx="3" ry="3" style="stroke: #038048; stroke-width: 1.0;"/><text fill="#19273C" font-family="sans-serif" font-size="16" lengthAdjust="spacingAndGlyphs" textLength="239" x="26" y="331.2813">string getFullyQualifiedName()</text><ellipse cx="17" cy="345.0781" fill="#84BE84" rx="3" ry="3" style="stroke: #038048; stroke-width: 1.0;"/><text fill="#19273C" font-family="sans-serif" font-size="16" lengthAdjust="spacingAndGlyphs" textLength="241" x="26" y="350.125">string getIdentifierFieldName()</text><ellipse cx="17" cy="363.9219" fill="#84BE84" rx="3" ry="3" style="stroke: #038048; stroke-width: 1.0;"/><text fill="#19273C" font-family="sans-serif" font-size="16" lengthAdjust="spacingAndGlyphs" textLength="252" x="26" y="368.9688">Property getOwnProperty(string)</text><ellipse cx="17" cy="382.7656" fill="#84BE84" rx="3" ry="3" style="stroke: #038048; stroke-width: 1.0;"/><text fill="#19273C" font-family="sans-serif" font-size="16" lengthAdjust="spacingAndGlyphs" textLength="230" x="26" y="387.8125">Property[] getOwnProperties()</text><ellipse cx="17" cy="401.6094" fill="#84BE84" rx="3" ry="3" style="stroke: #038048; stroke-width: 1.0;"/><text fill="#19273C" font-family="sans-serif" font-size="16" lengthAdjust="spacingAndGlyphs" textLength="168" x="26" y="406.6563">string getSuperType()</text><ellipse cx="17" cy="420.4531" fill="#84BE84" rx="3" ry="3" style="stroke: #038048; stroke-width: 1.0;"/><text fill="#19273C" font-family="sans-serif" font-size="16" lengthAdjust="spacingAndGlyphs" textLength="343" x="26" y="425.5">ClassDeclaration getSuperTypeDeclaration()</text><ellipse cx="17" cy="439.2969" fill="#84BE84" rx="3" ry="3" style="stroke: #038048; stroke-width: 1.0;"/><text fill="#19273C" font-family="sans-serif" font-size="16" lengthAdjust="spacingAndGlyphs" textLength="405" x="26" y="444.3438">ClassDeclaration[] getAssignableClassDeclarations()</text><ellipse cx="17" cy="458.1406" fill="#84BE84" rx="3" ry="3" style="stroke: #038048; stroke-width: 1.0;"/><text fill="#19273C" font-family="sans-serif" font-size="16" lengthAdjust="spacingAndGlyphs" textLength="382" x="26" y="463.1875">ClassDeclaration[] getAllSuperTypeDeclarations()</text><ellipse cx="17" cy="476.9844" fill="#84BE84" rx="3" ry="3" style="stroke: #038048; stroke-width: 1.0;"/><text fill="#19273C" font-family="sans-serif" font-size="16" lengthAdjust="spacingAndGlyphs" textLength="218" x="26" y="482.0313">Property getProperty(string)</text><ellipse cx="17" cy="495.8281" fill="#84BE84" rx="3" ry="3" style="stroke: #038048; stroke-width: 1.0;"/><text fill="#19273C" font-family="sans-serif" font-size="16" lengthAdjust="spacingAndGlyphs" textLength="196" x="26" y="500.875">Property[] getProperties()</text><ellipse cx="17" cy="514.6719" fill="#84BE84" rx="3" ry="3" style="stroke: #038048; stroke-width: 1.0;"/><text fill="#19273C" font-family="sans-serif" font-size="16" lengthAdjust="spacingAndGlyphs" textLength="272" x="26" y="519.7188">Property getNestedProperty(string)</text><ellipse cx="17" cy="533.5156" fill="#84BE84" rx="3" ry="3" style="stroke: #038048; stroke-width: 1.0;"/><text fill="#19273C" font-family="sans-serif" font-size="16" lengthAdjust="spacingAndGlyphs" textLength="125" x="26" y="538.5625">String toString()</text><!--class Decorated--><rect fill="#F8FAFA" height="48" rx="1" ry="1" style="stroke: #E3ECEC; stroke-width: 1.5;" width="112" x="165.5" y="606"/><ellipse cx="180.5" cy="622" fill="#FFFFFF" rx="11" ry="11" style="stroke: #E3ECEC; stroke-width: 1.0;"/><path d="M182.9453,627.6641 Q182.3984,627.9453 181.7969,628.0859 Q181.1953,628.2266 180.5313,628.2266 Q178.1719,628.2266 176.9297,626.6719 Q175.6875,625.1172 175.6875,622.1797 Q175.6875,619.2344 176.9297,617.6797 Q178.1719,616.125 180.5313,616.125 Q181.1953,616.125 181.8047,616.2656 Q182.4141,616.4063 182.9453,616.6875 L182.9453,619.25 Q182.3516,618.7031 181.793,618.4492 Q181.2344,618.1953 180.6406,618.1953 Q179.375,618.1953 178.7305,619.1992 Q178.0859,620.2031 178.0859,622.1797 Q178.0859,624.1484 178.7305,625.1523 Q179.375,626.1563 180.6406,626.1563 Q181.2344,626.1563 181.793,625.9023 Q182.3516,625.6484 182.9453,625.1016 Z "/><text fill="#19273C" font-family="sans-serif" font-size="16" lengthAdjust="spacingAndGlyphs" textLength="80" x="194.5" y="628.0469">Decorated</text><line style="stroke: #E3ECEC; stroke-width: 1.5;" x1="166.5" x2="276.5" y1="638" y2="638"/><line style="stroke: #E3ECEC; stroke-width: 1.5;" x1="166.5" x2="276.5" y1="646" y2="646"/><path d="M221.5,546.3439 C221.5,560.763 221.5,574.0264 221.5,585.5397 " fill="none" style="stroke: #3C6DF0; stroke-width: 1.0;"/><polygon fill="none" points="228.5001,585.9409,221.5,605.9408,214.5001,585.9408,228.5001,585.9409" style="stroke: #3C6DF0; stroke-width: 1.0;"/></g></svg>