<?xml version="1.0" encoding="UTF-8" standalone="no"?><svg xmlns="http://www.w3.org/2000/svg" xmlns:xlink="http://www.w3.org/1999/xlink" contentScriptType="application/ecmascript" contentStyleType="text/css" height="151px" preserveAspectRatio="none" style="width:683px;height:151px;" version="1.1" viewBox="0 0 683 151" width="683px" zoomAndPan="magnify"><defs/><g><!--class Factory--><rect fill="#F8FAFA" height="142.2188" rx="1" ry="1" style="stroke: #E3ECEC; stroke-width: 1.5;" width="676" x="6" y="8"/><ellipse cx="311.25" cy="24" fill="#FFFFFF" rx="11" ry="11" style="stroke: #E3ECEC; stroke-width: 1.0;"/><path d="M313.6953,29.6641 Q313.1484,29.9453 312.5469,30.0859 Q311.9453,30.2266 311.2813,30.2266 Q308.9219,30.2266 307.6797,28.6719 Q306.4375,27.1172 306.4375,24.1797 Q306.4375,21.2344 307.6797,19.6797 Q308.9219,18.125 311.2813,18.125 Q311.9453,18.125 312.5547,18.2656 Q313.1641,18.4063 313.6953,18.6875 L313.6953,21.25 Q313.1016,20.7031 312.543,20.4492 Q311.9844,20.1953 311.3906,20.1953 Q310.125,20.1953 309.4805,21.1992 Q308.8359,22.2031 308.8359,24.1797 Q308.8359,26.1484 309.4805,27.1523 Q310.125,28.1563 311.3906,28.1563 Q311.9844,28.1563 312.543,27.9023 Q313.1016,27.6484 313.6953,27.1016 Z "/><text fill="#19273C" font-family="sans-serif" font-size="16" lengthAdjust="spacingAndGlyphs" textLength="57" x="331.75" y="30.0469">Factory</text><line style="stroke: #E3ECEC; stroke-width: 1.5;" x1="7" x2="681" y1="40" y2="40"/><line style="stroke: #E3ECEC; stroke-width: 1.5;" x1="7" x2="681" y1="48" y2="48"/><ellipse cx="17" cy="62.4219" fill="#84BE84" rx="3" ry="3" style="stroke: #038048; stroke-width: 1.0;"/><text fill="#19273C" font-family="sans-serif" font-size="16" lengthAdjust="spacingAndGlyphs" textLength="650" x="26" y="67.4688">Resource newResource(String,String,String,Object,boolean,String,boolean,boolean)</text><ellipse cx="17" cy="81.2656" fill="#84BE84" rx="3" ry="3" style="stroke: #038048; stroke-width: 1.0;"/><text fill="#19273C" font-family="sans-serif" font-size="16" lengthAdjust="spacingAndGlyphs" textLength="523" x="26" y="86.3125">Resource newConcept(String,String,Object,boolean,String,boolean)</text><ellipse cx="17" cy="100.1094" fill="#84BE84" rx="3" ry="3" style="stroke: #038048; stroke-width: 1.0;"/><text fill="#19273C" font-family="sans-serif" font-size="16" lengthAdjust="spacingAndGlyphs" textLength="391" x="26" y="105.1563">Relationship newRelationship(String,String,String)</text><ellipse cx="17" cy="118.9531" fill="#84BE84" rx="3" ry="3" style="stroke: #038048; stroke-width: 1.0;"/><text fill="#19273C" font-family="sans-serif" font-size="16" lengthAdjust="spacingAndGlyphs" textLength="603" x="26" y="124">Resource newTransaction(String,String,String,Object,String,boolean,boolean)</text><ellipse cx="17" cy="137.7969" fill="#84BE84" rx="3" ry="3" style="stroke: #038048; stroke-width: 1.0;"/><text fill="#19273C" font-family="sans-serif" font-size="16" lengthAdjust="spacingAndGlyphs" textLength="553" x="26" y="142.8438">Resource newEvent(String,String,String,Object,String,boolean,boolean)</text></g></svg>