<?xml version="1.0" encoding="UTF-8" standalone="no"?><svg xmlns="http://www.w3.org/2000/svg" xmlns:xlink="http://www.w3.org/1999/xlink" contentScriptType="application/ecmascript" contentStyleType="text/css" height="262px" preserveAspectRatio="none" style="width:773px;height:262px;" version="1.1" viewBox="0 0 773 262" width="773px" zoomAndPan="magnify"><defs/><g><!--class FunctionDeclaration--><rect fill="#F8FAFA" height="252.875" rx="1" ry="1" style="stroke: #E3ECEC; stroke-width: 1.5;" width="766" x="6" y="8.5"/><ellipse cx="307.75" cy="24.5" fill="#FFFFFF" rx="11" ry="11" style="stroke: #E3ECEC; stroke-width: 1.0;"/><path d="M310.2031,30.1563 Q309.6563,30.4375 309.0547,30.5859 Q308.4531,30.7344 307.7813,30.7344 Q305.4219,30.7344 304.1797,29.1719 Q302.9375,27.6094 302.9375,24.6719 Q302.9375,21.7344 304.1797,20.1797 Q305.4219,18.625 307.7813,18.625 Q308.4531,18.625 309.0625,18.7656 Q309.6719,18.9063 310.2031,19.1875 L310.2031,21.75 Q309.6094,21.2031 309.0469,20.9453 Q308.4844,20.6875 307.8906,20.6875 Q306.625,20.6875 305.9844,21.6953 Q305.3438,22.7031 305.3438,24.6719 Q305.3438,26.6406 305.9844,27.6484 Q306.625,28.6563 307.8906,28.6563 Q308.4844,28.6563 309.0469,28.3984 Q309.6094,28.1406 310.2031,27.5938 L310.2031,30.1563 Z "/><text fill="#19273C" font-family="sans-serif" font-size="16" lengthAdjust="spacingAndGlyphs" textLength="154" x="328.25" y="30.0391">FunctionDeclaration</text><line style="stroke: #E3ECEC; stroke-width: 1.5;" x1="7" x2="771" y1="40.5" y2="40.5"/><line style="stroke: #E3ECEC; stroke-width: 1.5;" x1="7" x2="771" y1="48.5" y2="48.5"/><ellipse cx="17" cy="62.8125" fill="#84BE84" rx="3" ry="3" style="stroke: #038048; stroke-width: 1.0;"/><text fill="#19273C" font-family="sans-serif" font-size="16" lengthAdjust="spacingAndGlyphs" textLength="740" x="26" y="67.3516">void constructor(ModelManager,string,string,string,string,string,string[],string[],string[],string)</text><ellipse cx="17" cy="81.4375" fill="#84BE84" rx="3" ry="3" style="stroke: #038048; stroke-width: 1.0;"/><text fill="#19273C" font-family="sans-serif" font-size="16" lengthAdjust="spacingAndGlyphs" textLength="188" x="26" y="85.9766">string getFunctionText()</text><ellipse cx="17" cy="100.0625" fill="#84BE84" rx="3" ry="3" style="stroke: #038048; stroke-width: 1.0;"/><text fill="#19273C" font-family="sans-serif" font-size="16" lengthAdjust="spacingAndGlyphs" textLength="145" x="26" y="104.6016">string getThrows()</text><ellipse cx="17" cy="118.6875" fill="#84BE84" rx="3" ry="3" style="stroke: #038048; stroke-width: 1.0;"/><text fill="#19273C" font-family="sans-serif" font-size="16" lengthAdjust="spacingAndGlyphs" textLength="163" x="26" y="123.2266">string getLanguage()</text><ellipse cx="17" cy="137.3125" fill="#84BE84" rx="3" ry="3" style="stroke: #038048; stroke-width: 1.0;"/><text fill="#19273C" font-family="sans-serif" font-size="16" lengthAdjust="spacingAndGlyphs" textLength="187" x="26" y="141.8516">string[] getDecorators()</text><ellipse cx="17" cy="155.9375" fill="#84BE84" rx="3" ry="3" style="stroke: #038048; stroke-width: 1.0;"/><text fill="#19273C" font-family="sans-serif" font-size="16" lengthAdjust="spacingAndGlyphs" textLength="147" x="26" y="160.4766">string getVisibility()</text><ellipse cx="17" cy="174.5625" fill="#84BE84" rx="3" ry="3" style="stroke: #038048; stroke-width: 1.0;"/><text fill="#19273C" font-family="sans-serif" font-size="16" lengthAdjust="spacingAndGlyphs" textLength="177" x="26" y="179.1016">string getReturnType()</text><ellipse cx="17" cy="193.1875" fill="#84BE84" rx="3" ry="3" style="stroke: #038048; stroke-width: 1.0;"/><text fill="#19273C" font-family="sans-serif" font-size="16" lengthAdjust="spacingAndGlyphs" textLength="132" x="26" y="197.7266">string getName()</text><ellipse cx="17" cy="211.8125" fill="#84BE84" rx="3" ry="3" style="stroke: #038048; stroke-width: 1.0;"/><text fill="#19273C" font-family="sans-serif" font-size="16" lengthAdjust="spacingAndGlyphs" textLength="310" x="26" y="216.3516">string getTransactionDeclarationName()</text><ellipse cx="17" cy="230.4375" fill="#84BE84" rx="3" ry="3" style="stroke: #038048; stroke-width: 1.0;"/><text fill="#19273C" font-family="sans-serif" font-size="16" lengthAdjust="spacingAndGlyphs" textLength="234" x="26" y="234.9766">string[] getParameterNames()</text><ellipse cx="17" cy="249.0625" fill="#84BE84" rx="3" ry="3" style="stroke: #038048; stroke-width: 1.0;"/><text fill="#19273C" font-family="sans-serif" font-size="16" lengthAdjust="spacingAndGlyphs" textLength="226" x="26" y="253.6016">string[] getParameterTypes()</text></g></svg>