<?xml version="1.0" encoding="UTF-8" standalone="no"?><svg xmlns="http://www.w3.org/2000/svg" xmlns:xlink="http://www.w3.org/1999/xlink" contentScriptType="application/ecmascript" contentStyleType="text/css" height="295px" preserveAspectRatio="none" style="width:640px;height:295px;" version="1.1" viewBox="0 0 640 295" width="640px" zoomAndPan="magnify"><defs/><g><!--class IdentityRegistry--><rect fill="#F8FAFA" height="178.375" rx="1" ry="1" style="stroke: #E3ECEC; stroke-width: 1.5;" width="633" x="6" y="8"/><ellipse cx="257.25" cy="24" fill="#FFFFFF" rx="11" ry="11" style="stroke: #E3ECEC; stroke-width: 1.0;"/><path d="M259.7031,29.6563 Q259.1563,29.9375 258.5547,30.0859 Q257.9531,30.2344 257.2813,30.2344 Q254.9219,30.2344 253.6797,28.6719 Q252.4375,27.1094 252.4375,24.1719 Q252.4375,21.2344 253.6797,19.6797 Q254.9219,18.125 257.2813,18.125 Q257.9531,18.125 258.5625,18.2656 Q259.1719,18.4063 259.7031,18.6875 L259.7031,21.25 Q259.1094,20.7031 258.5469,20.4453 Q257.9844,20.1875 257.3906,20.1875 Q256.125,20.1875 255.4844,21.1953 Q254.8438,22.2031 254.8438,24.1719 Q254.8438,26.1406 255.4844,27.1484 Q256.125,28.1563 257.3906,28.1563 Q257.9844,28.1563 258.5469,27.8984 Q259.1094,27.6406 259.7031,27.0938 L259.7031,29.6563 Z "/><text fill="#19273C" font-family="sans-serif" font-size="16" lengthAdjust="spacingAndGlyphs" textLength="122" x="277.75" y="29.5391">IdentityRegistry</text><line style="stroke: #E3ECEC; stroke-width: 1.5;" x1="7" x2="638" y1="40" y2="40"/><line style="stroke: #E3ECEC; stroke-width: 1.5;" x1="7" x2="638" y1="48" y2="48"/><ellipse cx="17" cy="62.3125" fill="#84BE84" rx="3" ry="3" style="stroke: #038048; stroke-width: 1.0;"/><text fill="#19273C" font-family="sans-serif" font-size="16" lengthAdjust="spacingAndGlyphs" textLength="607" x="26" y="66.8516">Promise getIdentityRegistry(SecurityContext,ModelManager,Factory,Serializer)</text><ellipse cx="17" cy="80.9375" fill="#84BE84" rx="3" ry="3" style="stroke: #038048; stroke-width: 1.0;"/><text fill="#19273C" font-family="sans-serif" font-size="16" lengthAdjust="spacingAndGlyphs" textLength="202" x="26" y="85.4766">void add(Resource,string)</text><ellipse cx="17" cy="99.5625" fill="#84BE84" rx="3" ry="3" style="stroke: #038048; stroke-width: 1.0;"/><text fill="#19273C" font-family="sans-serif" font-size="16" lengthAdjust="spacingAndGlyphs" textLength="181" x="26" y="104.1016">void addAll(Resource[])</text><ellipse cx="17" cy="118.1875" fill="#84BE84" rx="3" ry="3" style="stroke: #038048; stroke-width: 1.0;"/><text fill="#19273C" font-family="sans-serif" font-size="16" lengthAdjust="spacingAndGlyphs" textLength="177" x="26" y="122.7266">void update(Resource)</text><ellipse cx="17" cy="136.8125" fill="#84BE84" rx="3" ry="3" style="stroke: #038048; stroke-width: 1.0;"/><text fill="#19273C" font-family="sans-serif" font-size="16" lengthAdjust="spacingAndGlyphs" textLength="206" x="26" y="141.3516">void updateAll(Resource[])</text><ellipse cx="17" cy="155.4375" fill="#84BE84" rx="3" ry="3" style="stroke: #038048; stroke-width: 1.0;"/><text fill="#19273C" font-family="sans-serif" font-size="16" lengthAdjust="spacingAndGlyphs" textLength="108" x="26" y="159.9766">void remove()</text><ellipse cx="17" cy="174.0625" fill="#84BE84" rx="3" ry="3" style="stroke: #038048; stroke-width: 1.0;"/><text fill="#19273C" font-family="sans-serif" font-size="16" lengthAdjust="spacingAndGlyphs" textLength="125" x="26" y="178.6016">void removeAll()</text><!--class Registry--><rect fill="#F8FAFA" height="48" rx="1" ry="1" style="stroke: #E3ECEC; stroke-width: 1.5;" width="96" x="274.25" y="246"/><ellipse cx="289.25" cy="262" fill="#FFFFFF" rx="11" ry="11" style="stroke: #E3ECEC; stroke-width: 1.0;"/><path d="M291.7031,267.6563 Q291.1563,267.9375 290.5547,268.0859 Q289.9531,268.2344 289.2813,268.2344 Q286.9219,268.2344 285.6797,266.6719 Q284.4375,265.1094 284.4375,262.1719 Q284.4375,259.2344 285.6797,257.6797 Q286.9219,256.125 289.2813,256.125 Q289.9531,256.125 290.5625,256.2656 Q291.1719,256.4063 291.7031,256.6875 L291.7031,259.25 Q291.1094,258.7031 290.5469,258.4453 Q289.9844,258.1875 289.3906,258.1875 Q288.125,258.1875 287.4844,259.1953 Q286.8438,260.2031 286.8438,262.1719 Q286.8438,264.1406 287.4844,265.1484 Q288.125,266.1563 289.3906,266.1563 Q289.9844,266.1563 290.5469,265.8984 Q291.1094,265.6406 291.7031,265.0938 L291.7031,267.6563 Z "/><text fill="#19273C" font-family="sans-serif" font-size="16" lengthAdjust="spacingAndGlyphs" textLength="64" x="303.25" y="267.5391">Registry</text><line style="stroke: #E3ECEC; stroke-width: 1.5;" x1="275.25" x2="369.25" y1="278" y2="278"/><line style="stroke: #E3ECEC; stroke-width: 1.5;" x1="275.25" x2="369.25" y1="286" y2="286"/><path d="M322.25,186.005 C322.25,199.6414 322.25,213.1933 322.25,225.2709 " fill="none" style="stroke: #3C6DF0; stroke-width: 1.0;"/><polygon fill="none" points="329.25,225.7115,322.25,245.7115,315.25,225.7114,329.25,225.7115" style="stroke: #3C6DF0; stroke-width: 1.0;"/></g></svg>