<?xml version="1.0" encoding="UTF-8" standalone="no"?><svg xmlns="http://www.w3.org/2000/svg" xmlns:xlink="http://www.w3.org/1999/xlink" contentScriptType="application/ecmascript" contentStyleType="text/css" height="297px" preserveAspectRatio="none" style="width:299px;height:297px;" version="1.1" viewBox="0 0 299 297" width="299px" zoomAndPan="magnify"><defs/><g><!--class Identifiable--><rect fill="#F8FAFA" height="179.9063" rx="1" ry="1" style="stroke: #E3ECEC; stroke-width: 1.5;" width="292" x="6" y="8"/><ellipse cx="103.25" cy="24" fill="#FFFFFF" rx="11" ry="11" style="stroke: #E3ECEC; stroke-width: 1.0;"/><path d="M105.6953,29.6641 Q105.1484,29.9453 104.5469,30.0859 Q103.9453,30.2266 103.2813,30.2266 Q100.9219,30.2266 99.6797,28.6719 Q98.4375,27.1172 98.4375,24.1797 Q98.4375,21.2344 99.6797,19.6797 Q100.9219,18.125 103.2813,18.125 Q103.9453,18.125 104.5547,18.2656 Q105.1641,18.4063 105.6953,18.6875 L105.6953,21.25 Q105.1016,20.7031 104.543,20.4492 Q103.9844,20.1953 103.3906,20.1953 Q102.125,20.1953 101.4805,21.1992 Q100.8359,22.2031 100.8359,24.1797 Q100.8359,26.1484 101.4805,27.1523 Q102.125,28.1563 103.3906,28.1563 Q103.9844,28.1563 104.543,27.9023 Q105.1016,27.6484 105.6953,27.1016 Z "/><text fill="#19273C" font-family="sans-serif" font-size="16" lengthAdjust="spacingAndGlyphs" textLength="89" x="123.75" y="30.0469">Identifiable</text><line style="stroke: #E3ECEC; stroke-width: 1.5;" x1="7" x2="297" y1="40" y2="40"/><line style="stroke: #E3ECEC; stroke-width: 1.5;" x1="7" x2="297" y1="48" y2="48"/><ellipse cx="17" cy="62.4219" fill="#84BE84" rx="3" ry="3" style="stroke: #038048; stroke-width: 1.0;"/><text fill="#19273C" font-family="sans-serif" font-size="16" lengthAdjust="spacingAndGlyphs" textLength="158" x="26" y="67.4688">string getIdentifier()</text><ellipse cx="17" cy="81.2656" fill="#84BE84" rx="3" ry="3" style="stroke: #038048; stroke-width: 1.0;"/><text fill="#19273C" font-family="sans-serif" font-size="16" lengthAdjust="spacingAndGlyphs" textLength="189" x="26" y="86.3125">void setIdentifier(string)</text><ellipse cx="17" cy="100.1094" fill="#84BE84" rx="3" ry="3" style="stroke: #038048; stroke-width: 1.0;"/><text fill="#19273C" font-family="sans-serif" font-size="16" lengthAdjust="spacingAndGlyphs" textLength="266" x="26" y="105.1563">string getFullyQualifiedIdentifier()</text><ellipse cx="17" cy="118.9531" fill="#84BE84" rx="3" ry="3" style="stroke: #038048; stroke-width: 1.0;"/><text fill="#19273C" font-family="sans-serif" font-size="16" lengthAdjust="spacingAndGlyphs" textLength="125" x="26" y="124">String toString()</text><ellipse cx="17" cy="137.7969" fill="#84BE84" rx="3" ry="3" style="stroke: #038048; stroke-width: 1.0;"/><text fill="#19273C" font-family="sans-serif" font-size="16" lengthAdjust="spacingAndGlyphs" textLength="188" x="26" y="142.8438">boolean isRelationship()</text><ellipse cx="17" cy="156.6406" fill="#84BE84" rx="3" ry="3" style="stroke: #038048; stroke-width: 1.0;"/><text fill="#19273C" font-family="sans-serif" font-size="16" lengthAdjust="spacingAndGlyphs" textLength="162" x="26" y="161.6875">boolean isResource()</text><ellipse cx="17" cy="175.4844" fill="#84BE84" rx="3" ry="3" style="stroke: #038048; stroke-width: 1.0;"/><text fill="#19273C" font-family="sans-serif" font-size="16" lengthAdjust="spacingAndGlyphs" textLength="104" x="26" y="180.5313">String toURI()</text><!--class Typed--><rect fill="#F8FAFA" height="48" rx="1" ry="1" style="stroke: #E3ECEC; stroke-width: 1.5;" width="79" x="112.5" y="248"/><ellipse cx="127.5" cy="264" fill="#FFFFFF" rx="11" ry="11" style="stroke: #E3ECEC; stroke-width: 1.0;"/><path d="M129.9453,269.6641 Q129.3984,269.9453 128.7969,270.0859 Q128.1953,270.2266 127.5313,270.2266 Q125.1719,270.2266 123.9297,268.6719 Q122.6875,267.1172 122.6875,264.1797 Q122.6875,261.2344 123.9297,259.6797 Q125.1719,258.125 127.5313,258.125 Q128.1953,258.125 128.8047,258.2656 Q129.4141,258.4063 129.9453,258.6875 L129.9453,261.25 Q129.3516,260.7031 128.793,260.4492 Q128.2344,260.1953 127.6406,260.1953 Q126.375,260.1953 125.7305,261.1992 Q125.0859,262.2031 125.0859,264.1797 Q125.0859,266.1484 125.7305,267.1523 Q126.375,268.1563 127.6406,268.1563 Q128.2344,268.1563 128.793,267.9023 Q129.3516,267.6484 129.9453,267.1016 Z "/><text fill="#19273C" font-family="sans-serif" font-size="16" lengthAdjust="spacingAndGlyphs" textLength="47" x="141.5" y="270.0469">Typed</text><line style="stroke: #E3ECEC; stroke-width: 1.5;" x1="113.5" x2="190.5" y1="280" y2="280"/><line style="stroke: #E3ECEC; stroke-width: 1.5;" x1="113.5" x2="190.5" y1="288" y2="288"/><path d="M152,188.058 C152,201.8442 152,215.5278 152,227.7219 " fill="none" style="stroke: #3C6DF0; stroke-width: 1.0;"/><polygon fill="none" points="159.0001,227.7632,152,247.7632,145.0001,227.7631,159.0001,227.7632" style="stroke: #3C6DF0; stroke-width: 1.0;"/></g></svg>