<?xml version="1.0" encoding="UTF-8" standalone="no"?><svg xmlns="http://www.w3.org/2000/svg" xmlns:xlink="http://www.w3.org/1999/xlink" contentScriptType="application/ecmascript" contentStyleType="text/css" height="76px" preserveAspectRatio="none" style="width:270px;height:76px;" version="1.1" viewBox="0 0 270 76" width="270px" zoomAndPan="magnify"><defs/><g><!--class IndexCompiler--><rect fill="#F8FAFA" height="66.625" rx="1" ry="1" style="stroke: #E3ECEC; stroke-width: 1.5;" width="263" x="6" y="8.5"/><ellipse cx="77.25" cy="24.5" fill="#FFFFFF" rx="11" ry="11" style="stroke: #E3ECEC; stroke-width: 1.0;"/><path d="M79.7031,30.1563 Q79.1563,30.4375 78.5547,30.5859 Q77.9531,30.7344 77.2813,30.7344 Q74.9219,30.7344 73.6797,29.1719 Q72.4375,27.6094 72.4375,24.6719 Q72.4375,21.7344 73.6797,20.1797 Q74.9219,18.625 77.2813,18.625 Q77.9531,18.625 78.5625,18.7656 Q79.1719,18.9063 79.7031,19.1875 L79.7031,21.75 Q79.1094,21.2031 78.5469,20.9453 Q77.9844,20.6875 77.3906,20.6875 Q76.125,20.6875 75.4844,21.6953 Q74.8438,22.7031 74.8438,24.6719 Q74.8438,26.6406 75.4844,27.6484 Q76.125,28.6563 77.3906,28.6563 Q77.9844,28.6563 78.5469,28.3984 Q79.1094,28.1406 79.7031,27.5938 L79.7031,30.1563 Z "/><text fill="#19273C" font-family="sans-serif" font-size="16" lengthAdjust="spacingAndGlyphs" textLength="112" x="97.75" y="30.0391">IndexCompiler</text><line style="stroke: #E3ECEC; stroke-width: 1.5;" x1="7" x2="268" y1="40.5" y2="40.5"/><line style="stroke: #E3ECEC; stroke-width: 1.5;" x1="7" x2="268" y1="48.5" y2="48.5"/><ellipse cx="17" cy="62.8125" fill="#84BE84" rx="3" ry="3" style="stroke: #038048; stroke-width: 1.0;"/><text fill="#19273C" font-family="sans-serif" font-size="16" lengthAdjust="spacingAndGlyphs" textLength="237" x="26" y="67.3516">String compile(QueryManager)</text></g></svg>