<?xml version="1.0" encoding="UTF-8" standalone="no"?><svg xmlns="http://www.w3.org/2000/svg" xmlns:xlink="http://www.w3.org/1999/xlink" contentScriptType="application/ecmascript" contentStyleType="text/css" height="75px" preserveAspectRatio="none" style="width:271px;height:75px;" version="1.1" viewBox="0 0 271 75" width="271px" zoomAndPan="magnify"><defs/><g><!--class IndexCompiler--><rect fill="#F8FAFA" height="66.8438" rx="1" ry="1" style="stroke: #E3ECEC; stroke-width: 1.5;" width="264" x="6" y="8"/><ellipse cx="75.75" cy="24" fill="#FFFFFF" rx="11" ry="11" style="stroke: #E3ECEC; stroke-width: 1.0;"/><path d="M78.1953,29.6641 Q77.6484,29.9453 77.0469,30.0859 Q76.4453,30.2266 75.7813,30.2266 Q73.4219,30.2266 72.1797,28.6719 Q70.9375,27.1172 70.9375,24.1797 Q70.9375,21.2344 72.1797,19.6797 Q73.4219,18.125 75.7813,18.125 Q76.4453,18.125 77.0547,18.2656 Q77.6641,18.4063 78.1953,18.6875 L78.1953,21.25 Q77.6016,20.7031 77.043,20.4492 Q76.4844,20.1953 75.8906,20.1953 Q74.625,20.1953 73.9805,21.1992 Q73.3359,22.2031 73.3359,24.1797 Q73.3359,26.1484 73.9805,27.1523 Q74.625,28.1563 75.8906,28.1563 Q76.4844,28.1563 77.043,27.9023 Q77.6016,27.6484 78.1953,27.1016 Z "/><text fill="#19273C" font-family="sans-serif" font-size="16" lengthAdjust="spacingAndGlyphs" textLength="116" x="96.25" y="30.0469">IndexCompiler</text><line style="stroke: #E3ECEC; stroke-width: 1.5;" x1="7" x2="269" y1="40" y2="40"/><line style="stroke: #E3ECEC; stroke-width: 1.5;" x1="7" x2="269" y1="48" y2="48"/><ellipse cx="17" cy="62.4219" fill="#84BE84" rx="3" ry="3" style="stroke: #038048; stroke-width: 1.0;"/><text fill="#19273C" font-family="sans-serif" font-size="16" lengthAdjust="spacingAndGlyphs" textLength="238" x="26" y="67.4688">String compile(QueryManager)</text></g></svg>