<?xml version="1.0" encoding="UTF-8" standalone="no"?><svg xmlns="http://www.w3.org/2000/svg" xmlns:xlink="http://www.w3.org/1999/xlink" contentScriptType="application/ecmascript" contentStyleType="text/css" height="318px" preserveAspectRatio="none" style="width:514px;height:318px;" version="1.1" viewBox="0 0 514 318" width="514px" zoomAndPan="magnify"><defs/><g><!--class ModelManager--><rect fill="#F8FAFA" height="308.75" rx="1" ry="1" style="stroke: #E3ECEC; stroke-width: 1.5;" width="507" x="6" y="8.5"/><ellipse cx="199.25" cy="24.5" fill="#FFFFFF" rx="11" ry="11" style="stroke: #E3ECEC; stroke-width: 1.0;"/><path d="M201.7031,30.1563 Q201.1563,30.4375 200.5547,30.5859 Q199.9531,30.7344 199.2813,30.7344 Q196.9219,30.7344 195.6797,29.1719 Q194.4375,27.6094 194.4375,24.6719 Q194.4375,21.7344 195.6797,20.1797 Q196.9219,18.625 199.2813,18.625 Q199.9531,18.625 200.5625,18.7656 Q201.1719,18.9063 201.7031,19.1875 L201.7031,21.75 Q201.1094,21.2031 200.5469,20.9453 Q199.9844,20.6875 199.3906,20.6875 Q198.125,20.6875 197.4844,21.6953 Q196.8438,22.7031 196.8438,24.6719 Q196.8438,26.6406 197.4844,27.6484 Q198.125,28.6563 199.3906,28.6563 Q199.9844,28.6563 200.5469,28.3984 Q201.1094,28.1406 201.7031,27.5938 L201.7031,30.1563 Z "/><text fill="#19273C" font-family="sans-serif" font-size="16" lengthAdjust="spacingAndGlyphs" textLength="112" x="219.75" y="30.0391">ModelManager</text><line style="stroke: #E3ECEC; stroke-width: 1.5;" x1="7" x2="512" y1="40.5" y2="40.5"/><line style="stroke: #E3ECEC; stroke-width: 1.5;" x1="7" x2="512" y1="48.5" y2="48.5"/><ellipse cx="17" cy="62.8125" fill="#84BE84" rx="3" ry="3" style="stroke: #038048; stroke-width: 1.0;"/><text fill="#19273C" font-family="sans-serif" font-size="16" lengthAdjust="spacingAndGlyphs" textLength="271" x="26" y="67.3516">void validateModelFile(string,string)</text><ellipse cx="17" cy="81.4375" fill="#84BE84" rx="3" ry="3" style="stroke: #038048; stroke-width: 1.0;"/><text fill="#19273C" font-family="sans-serif" font-size="16" lengthAdjust="spacingAndGlyphs" textLength="260" x="26" y="85.9766">Object addModelFile(string,string)</text><ellipse cx="17" cy="100.0625" fill="#84BE84" rx="3" ry="3" style="stroke: #038048; stroke-width: 1.0;"/><text fill="#19273C" font-family="sans-serif" font-size="16" lengthAdjust="spacingAndGlyphs" textLength="285" x="26" y="104.6016">Object updateModelFile(string,string)</text><ellipse cx="17" cy="118.6875" fill="#84BE84" rx="3" ry="3" style="stroke: #038048; stroke-width: 1.0;"/><text fill="#19273C" font-family="sans-serif" font-size="16" lengthAdjust="spacingAndGlyphs" textLength="209" x="26" y="123.2266">void deleteModelFile(string)</text><ellipse cx="17" cy="137.3125" fill="#84BE84" rx="3" ry="3" style="stroke: #038048; stroke-width: 1.0;"/><text fill="#19273C" font-family="sans-serif" font-size="16" lengthAdjust="spacingAndGlyphs" textLength="305" x="26" y="141.8516">Object[] addModelFiles(string[],string[])</text><ellipse cx="17" cy="155.9375" fill="#84BE84" rx="3" ry="3" style="stroke: #038048; stroke-width: 1.0;"/><text fill="#19273C" font-family="sans-serif" font-size="16" lengthAdjust="spacingAndGlyphs" textLength="164" x="26" y="160.4766">void clearModelFiles()</text><ellipse cx="17" cy="174.5625" fill="#84BE84" rx="3" ry="3" style="stroke: #038048; stroke-width: 1.0;"/><text fill="#19273C" font-family="sans-serif" font-size="16" lengthAdjust="spacingAndGlyphs" textLength="199" x="26" y="179.1016">string[] getNamespaces()</text><ellipse cx="17" cy="193.1875" fill="#84BE84" rx="3" ry="3" style="stroke: #038048; stroke-width: 1.0;"/><text fill="#19273C" font-family="sans-serif" font-size="16" lengthAdjust="spacingAndGlyphs" textLength="286" x="26" y="197.7266">ClassDeclaration[] getSystemTypes()</text><ellipse cx="17" cy="211.8125" fill="#84BE84" rx="3" ry="3" style="stroke: #038048; stroke-width: 1.0;"/><text fill="#19273C" font-family="sans-serif" font-size="16" lengthAdjust="spacingAndGlyphs" textLength="387" x="26" y="216.3516">AssetDeclaration[] getAssetDeclarations(Boolean)</text><ellipse cx="17" cy="230.4375" fill="#84BE84" rx="3" ry="3" style="stroke: #038048; stroke-width: 1.0;"/><text fill="#19273C" font-family="sans-serif" font-size="16" lengthAdjust="spacingAndGlyphs" textLength="481" x="26" y="234.9766">TransactionDeclaration[] getTransactionDeclarations(Boolean)</text><ellipse cx="17" cy="249.0625" fill="#84BE84" rx="3" ry="3" style="stroke: #038048; stroke-width: 1.0;"/><text fill="#19273C" font-family="sans-serif" font-size="16" lengthAdjust="spacingAndGlyphs" textLength="387" x="26" y="253.6016">EventDeclaration[] getEventDeclarations(Boolean)</text><ellipse cx="17" cy="267.6875" fill="#84BE84" rx="3" ry="3" style="stroke: #038048; stroke-width: 1.0;"/><text fill="#19273C" font-family="sans-serif" font-size="16" lengthAdjust="spacingAndGlyphs" textLength="463" x="26" y="272.2266">ParticipantDeclaration[] getParticipantDeclarations(Boolean)</text><ellipse cx="17" cy="286.3125" fill="#84BE84" rx="3" ry="3" style="stroke: #038048; stroke-width: 1.0;"/><text fill="#19273C" font-family="sans-serif" font-size="16" lengthAdjust="spacingAndGlyphs" textLength="389" x="26" y="290.8516">EnumDeclaration[] getEnumDeclarations(Boolean)</text><ellipse cx="17" cy="304.9375" fill="#84BE84" rx="3" ry="3" style="stroke: #038048; stroke-width: 1.0;"/><text fill="#19273C" font-family="sans-serif" font-size="16" lengthAdjust="spacingAndGlyphs" textLength="429" x="26" y="309.4766">ConceptDeclaration[] getConceptDeclarations(Boolean)</text></g></svg>