<?xml version="1.0" encoding="UTF-8" standalone="no"?><svg xmlns="http://www.w3.org/2000/svg" xmlns:xlink="http://www.w3.org/1999/xlink" contentScriptType="application/ecmascript" contentStyleType="text/css" height="203px" preserveAspectRatio="none" style="width:358px;height:203px;" version="1.1" viewBox="0 0 358 203" width="358px" zoomAndPan="magnify"><defs/><g><!--class RelationshipDeclaration--><rect fill="#F8FAFA" height="85.25" rx="1" ry="1" style="stroke: #E3ECEC; stroke-width: 1.5;" width="351" x="6" y="8.5"/><ellipse cx="87.25" cy="24.5" fill="#FFFFFF" rx="11" ry="11" style="stroke: #E3ECEC; stroke-width: 1.0;"/><path d="M89.7031,30.1563 Q89.1563,30.4375 88.5547,30.5859 Q87.9531,30.7344 87.2813,30.7344 Q84.9219,30.7344 83.6797,29.1719 Q82.4375,27.6094 82.4375,24.6719 Q82.4375,21.7344 83.6797,20.1797 Q84.9219,18.625 87.2813,18.625 Q87.9531,18.625 88.5625,18.7656 Q89.1719,18.9063 89.7031,19.1875 L89.7031,21.75 Q89.1094,21.2031 88.5469,20.9453 Q87.9844,20.6875 87.3906,20.6875 Q86.125,20.6875 85.4844,21.6953 Q84.8438,22.7031 84.8438,24.6719 Q84.8438,26.6406 85.4844,27.6484 Q86.125,28.6563 87.3906,28.6563 Q87.9844,28.6563 88.5469,28.3984 Q89.1094,28.1406 89.7031,27.5938 L89.7031,30.1563 Z "/><text fill="#19273C" font-family="sans-serif" font-size="16" lengthAdjust="spacingAndGlyphs" textLength="180" x="107.75" y="30.0391">RelationshipDeclaration</text><line style="stroke: #E3ECEC; stroke-width: 1.5;" x1="7" x2="356" y1="40.5" y2="40.5"/><line style="stroke: #E3ECEC; stroke-width: 1.5;" x1="7" x2="356" y1="48.5" y2="48.5"/><ellipse cx="17" cy="62.8125" fill="#84BE84" rx="3" ry="3" style="stroke: #038048; stroke-width: 1.0;"/><text fill="#19273C" font-family="sans-serif" font-size="16" lengthAdjust="spacingAndGlyphs" textLength="325" x="26" y="67.3516">void constructor(ClassDeclaration,Object)</text><ellipse cx="17" cy="81.4375" fill="#84BE84" rx="3" ry="3" style="stroke: #038048; stroke-width: 1.0;"/><text fill="#19273C" font-family="sans-serif" font-size="16" lengthAdjust="spacingAndGlyphs" textLength="125" x="26" y="85.9766">String toString()</text><!--class Property--><rect fill="#F8FAFA" height="48" rx="1" ry="1" style="stroke: #E3ECEC; stroke-width: 1.5;" width="100" x="131.25" y="154"/><ellipse cx="146.25" cy="170" fill="#FFFFFF" rx="11" ry="11" style="stroke: #E3ECEC; stroke-width: 1.0;"/><path d="M148.7031,175.6563 Q148.1563,175.9375 147.5547,176.0859 Q146.9531,176.2344 146.2813,176.2344 Q143.9219,176.2344 142.6797,174.6719 Q141.4375,173.1094 141.4375,170.1719 Q141.4375,167.2344 142.6797,165.6797 Q143.9219,164.125 146.2813,164.125 Q146.9531,164.125 147.5625,164.2656 Q148.1719,164.4063 148.7031,164.6875 L148.7031,167.25 Q148.1094,166.7031 147.5469,166.4453 Q146.9844,166.1875 146.3906,166.1875 Q145.125,166.1875 144.4844,167.1953 Q143.8438,168.2031 143.8438,170.1719 Q143.8438,172.1406 144.4844,173.1484 Q145.125,174.1563 146.3906,174.1563 Q146.9844,174.1563 147.5469,173.8984 Q148.1094,173.6406 148.7031,173.0938 L148.7031,175.6563 Z "/><text fill="#19273C" font-family="sans-serif" font-size="16" lengthAdjust="spacingAndGlyphs" textLength="68" x="160.25" y="175.5391">Property</text><line style="stroke: #E3ECEC; stroke-width: 1.5;" x1="132.25" x2="230.25" y1="186" y2="186"/><line style="stroke: #E3ECEC; stroke-width: 1.5;" x1="132.25" x2="230.25" y1="194" y2="194"/><path d="M181.25,93.623 C181.25,106.4535 181.25,120.61 181.25,133.5593 " fill="none" style="stroke: #3C6DF0; stroke-width: 1.0;"/><polygon fill="none" points="188.25,133.7655,181.25,153.7654,174.25,133.7654,188.25,133.7655" style="stroke: #3C6DF0; stroke-width: 1.0;"/></g></svg>