<?xml version="1.0" encoding="UTF-8" standalone="no"?><svg xmlns="http://www.w3.org/2000/svg" xmlns:xlink="http://www.w3.org/1999/xlink" contentScriptType="application/ecmascript" contentStyleType="text/css" height="203px" preserveAspectRatio="none" style="width:357px;height:203px;" version="1.1" viewBox="0 0 357 203" width="357px" zoomAndPan="magnify"><defs/><g><!--class RelationshipDeclaration--><rect fill="#F8FAFA" height="85.6875" rx="1" ry="1" style="stroke: #E3ECEC; stroke-width: 1.5;" width="350" x="6" y="8"/><ellipse cx="83.25" cy="24" fill="#FFFFFF" rx="11" ry="11" style="stroke: #E3ECEC; stroke-width: 1.0;"/><path d="M85.6953,29.6641 Q85.1484,29.9453 84.5469,30.0859 Q83.9453,30.2266 83.2813,30.2266 Q80.9219,30.2266 79.6797,28.6719 Q78.4375,27.1172 78.4375,24.1797 Q78.4375,21.2344 79.6797,19.6797 Q80.9219,18.125 83.2813,18.125 Q83.9453,18.125 84.5547,18.2656 Q85.1641,18.4063 85.6953,18.6875 L85.6953,21.25 Q85.1016,20.7031 84.543,20.4492 Q83.9844,20.1953 83.3906,20.1953 Q82.125,20.1953 81.4805,21.1992 Q80.8359,22.2031 80.8359,24.1797 Q80.8359,26.1484 81.4805,27.1523 Q82.125,28.1563 83.3906,28.1563 Q83.9844,28.1563 84.543,27.9023 Q85.1016,27.6484 85.6953,27.1016 Z "/><text fill="#19273C" font-family="sans-serif" font-size="16" lengthAdjust="spacingAndGlyphs" textLength="187" x="103.75" y="30.0469">RelationshipDeclaration</text><line style="stroke: #E3ECEC; stroke-width: 1.5;" x1="7" x2="355" y1="40" y2="40"/><line style="stroke: #E3ECEC; stroke-width: 1.5;" x1="7" x2="355" y1="48" y2="48"/><ellipse cx="17" cy="62.4219" fill="#84BE84" rx="3" ry="3" style="stroke: #038048; stroke-width: 1.0;"/><text fill="#19273C" font-family="sans-serif" font-size="16" lengthAdjust="spacingAndGlyphs" textLength="324" x="26" y="67.4688">void constructor(ClassDeclaration,Object)</text><ellipse cx="17" cy="81.2656" fill="#84BE84" rx="3" ry="3" style="stroke: #038048; stroke-width: 1.0;"/><text fill="#19273C" font-family="sans-serif" font-size="16" lengthAdjust="spacingAndGlyphs" textLength="125" x="26" y="86.3125">String toString()</text><!--class Property--><rect fill="#F8FAFA" height="48" rx="1" ry="1" style="stroke: #E3ECEC; stroke-width: 1.5;" width="98" x="132" y="154"/><ellipse cx="147" cy="170" fill="#FFFFFF" rx="11" ry="11" style="stroke: #E3ECEC; stroke-width: 1.0;"/><path d="M149.4453,175.6641 Q148.8984,175.9453 148.2969,176.0859 Q147.6953,176.2266 147.0313,176.2266 Q144.6719,176.2266 143.4297,174.6719 Q142.1875,173.1172 142.1875,170.1797 Q142.1875,167.2344 143.4297,165.6797 Q144.6719,164.125 147.0313,164.125 Q147.6953,164.125 148.3047,164.2656 Q148.9141,164.4063 149.4453,164.6875 L149.4453,167.25 Q148.8516,166.7031 148.293,166.4492 Q147.7344,166.1953 147.1406,166.1953 Q145.875,166.1953 145.2305,167.1992 Q144.5859,168.2031 144.5859,170.1797 Q144.5859,172.1484 145.2305,173.1523 Q145.875,174.1563 147.1406,174.1563 Q147.7344,174.1563 148.293,173.9023 Q148.8516,173.6484 149.4453,173.1016 Z "/><text fill="#19273C" font-family="sans-serif" font-size="16" lengthAdjust="spacingAndGlyphs" textLength="66" x="161" y="176.0469">Property</text><line style="stroke: #E3ECEC; stroke-width: 1.5;" x1="133" x2="229" y1="186" y2="186"/><line style="stroke: #E3ECEC; stroke-width: 1.5;" x1="133" x2="229" y1="194" y2="194"/><path d="M181,94.351 C181,106.9013 181,120.6231 181,133.2567 " fill="none" style="stroke: #3C6DF0; stroke-width: 1.0;"/><polygon fill="none" points="188.0001,133.708,181,153.7079,174.0001,133.7079,188.0001,133.708" style="stroke: #3C6DF0; stroke-width: 1.0;"/></g></svg>