<?xml version="1.0" encoding="UTF-8" standalone="no"?><svg xmlns="http://www.w3.org/2000/svg" xmlns:xlink="http://www.w3.org/1999/xlink" contentScriptType="application/ecmascript" contentStyleType="text/css" height="221px" preserveAspectRatio="none" style="width:197px;height:221px;" version="1.1" viewBox="0 0 197 221" width="197px" zoomAndPan="magnify"><defs/><g><!--class Resource--><rect fill="#F8FAFA" height="103.875" rx="1" ry="1" style="stroke: #E3ECEC; stroke-width: 1.5;" width="190" x="6" y="8"/><ellipse cx="59.75" cy="24" fill="#FFFFFF" rx="11" ry="11" style="stroke: #E3ECEC; stroke-width: 1.0;"/><path d="M62.2031,29.6563 Q61.6563,29.9375 61.0547,30.0859 Q60.4531,30.2344 59.7813,30.2344 Q57.4219,30.2344 56.1797,28.6719 Q54.9375,27.1094 54.9375,24.1719 Q54.9375,21.2344 56.1797,19.6797 Q57.4219,18.125 59.7813,18.125 Q60.4531,18.125 61.0625,18.2656 Q61.6719,18.4063 62.2031,18.6875 L62.2031,21.25 Q61.6094,20.7031 61.0469,20.4453 Q60.4844,20.1875 59.8906,20.1875 Q58.625,20.1875 57.9844,21.1953 Q57.3438,22.2031 57.3438,24.1719 Q57.3438,26.1406 57.9844,27.1484 Q58.625,28.1563 59.8906,28.1563 Q60.4844,28.1563 61.0469,27.8984 Q61.6094,27.6406 62.2031,27.0938 L62.2031,29.6563 Z "/><text fill="#19273C" font-family="sans-serif" font-size="16" lengthAdjust="spacingAndGlyphs" textLength="74" x="80.25" y="29.5391">Resource</text><line style="stroke: #E3ECEC; stroke-width: 1.5;" x1="7" x2="195" y1="40" y2="40"/><line style="stroke: #E3ECEC; stroke-width: 1.5;" x1="7" x2="195" y1="48" y2="48"/><ellipse cx="17" cy="62.3125" fill="#84BE84" rx="3" ry="3" style="stroke: #038048; stroke-width: 1.0;"/><text fill="#19273C" font-family="sans-serif" font-size="16" lengthAdjust="spacingAndGlyphs" textLength="125" x="26" y="66.8516">String toString()</text><ellipse cx="17" cy="80.9375" fill="#84BE84" rx="3" ry="3" style="stroke: #038048; stroke-width: 1.0;"/><text fill="#19273C" font-family="sans-serif" font-size="16" lengthAdjust="spacingAndGlyphs" textLength="164" x="26" y="85.4766">boolean isResource()</text><ellipse cx="17" cy="99.5625" fill="#84BE84" rx="3" ry="3" style="stroke: #038048; stroke-width: 1.0;"/><text fill="#19273C" font-family="sans-serif" font-size="16" lengthAdjust="spacingAndGlyphs" textLength="123" x="26" y="104.1016">Object toJSON()</text><!--class Identifiable--><rect fill="#F8FAFA" height="48" rx="1" ry="1" style="stroke: #E3ECEC; stroke-width: 1.5;" width="115" x="43.75" y="172"/><ellipse cx="58.75" cy="188" fill="#FFFFFF" rx="11" ry="11" style="stroke: #E3ECEC; stroke-width: 1.0;"/><path d="M61.2031,193.6563 Q60.6563,193.9375 60.0547,194.0859 Q59.4531,194.2344 58.7813,194.2344 Q56.4219,194.2344 55.1797,192.6719 Q53.9375,191.1094 53.9375,188.1719 Q53.9375,185.2344 55.1797,183.6797 Q56.4219,182.125 58.7813,182.125 Q59.4531,182.125 60.0625,182.2656 Q60.6719,182.4063 61.2031,182.6875 L61.2031,185.25 Q60.6094,184.7031 60.0469,184.4453 Q59.4844,184.1875 58.8906,184.1875 Q57.625,184.1875 56.9844,185.1953 Q56.3438,186.2031 56.3438,188.1719 Q56.3438,190.1406 56.9844,191.1484 Q57.625,192.1563 58.8906,192.1563 Q59.4844,192.1563 60.0469,191.8984 Q60.6094,191.6406 61.2031,191.0938 L61.2031,193.6563 Z "/><text fill="#19273C" font-family="sans-serif" font-size="16" lengthAdjust="spacingAndGlyphs" textLength="83" x="72.75" y="193.5391">Identifiable</text><line style="stroke: #E3ECEC; stroke-width: 1.5;" x1="44.75" x2="157.75" y1="204" y2="204"/><line style="stroke: #E3ECEC; stroke-width: 1.5;" x1="44.75" x2="157.75" y1="212" y2="212"/><path d="M101,112.042 C101,125.0534 101,138.9174 101,151.512 " fill="none" style="stroke: #3C6DF0; stroke-width: 1.0;"/><polygon fill="none" points="108,151.7391,101,171.7391,94.0001,151.7391,108,151.7391" style="stroke: #3C6DF0; stroke-width: 1.0;"/></g></svg>