<?xml version="1.0" encoding="UTF-8" standalone="no"?><svg xmlns="http://www.w3.org/2000/svg" xmlns:xlink="http://www.w3.org/1999/xlink" contentScriptType="application/ecmascript" contentStyleType="text/css" height="113px" preserveAspectRatio="none" style="width:550px;height:113px;" version="1.1" viewBox="0 0 550 113" width="550px" zoomAndPan="magnify"><defs/><g><!--class Serializer--><rect fill="#F8FAFA" height="104.5313" rx="1" ry="1" style="stroke: #E3ECEC; stroke-width: 1.5;" width="543" x="6" y="8"/><ellipse cx="236.25" cy="24" fill="#FFFFFF" rx="11" ry="11" style="stroke: #E3ECEC; stroke-width: 1.0;"/><path d="M238.6953,29.6641 Q238.1484,29.9453 237.5469,30.0859 Q236.9453,30.2266 236.2813,30.2266 Q233.9219,30.2266 232.6797,28.6719 Q231.4375,27.1172 231.4375,24.1797 Q231.4375,21.2344 232.6797,19.6797 Q233.9219,18.125 236.2813,18.125 Q236.9453,18.125 237.5547,18.2656 Q238.1641,18.4063 238.6953,18.6875 L238.6953,21.25 Q238.1016,20.7031 237.543,20.4492 Q236.9844,20.1953 236.3906,20.1953 Q235.125,20.1953 234.4805,21.1992 Q233.8359,22.2031 233.8359,24.1797 Q233.8359,26.1484 234.4805,27.1523 Q235.125,28.1563 236.3906,28.1563 Q236.9844,28.1563 237.543,27.9023 Q238.1016,27.6484 238.6953,27.1016 Z "/><text fill="#19273C" font-family="sans-serif" font-size="16" lengthAdjust="spacingAndGlyphs" textLength="74" x="256.75" y="30.0469">Serializer</text><line style="stroke: #E3ECEC; stroke-width: 1.5;" x1="7" x2="548" y1="40" y2="40"/><line style="stroke: #E3ECEC; stroke-width: 1.5;" x1="7" x2="548" y1="48" y2="48"/><ellipse cx="17" cy="62.4219" fill="#84BE84" rx="3" ry="3" style="stroke: #038048; stroke-width: 1.0;"/><text fill="#19273C" font-family="sans-serif" font-size="16" lengthAdjust="spacingAndGlyphs" textLength="316" x="26" y="67.4688">void constructor(Factory,ModelManager)</text><ellipse cx="17" cy="81.2656" fill="#84BE84" rx="3" ry="3" style="stroke: #038048; stroke-width: 1.0;"/><text fill="#19273C" font-family="sans-serif" font-size="16" lengthAdjust="spacingAndGlyphs" textLength="517" x="26" y="86.3125">Object toJSON(Resource,Object,boolean,boolean,boolean,boolean)</text><ellipse cx="17" cy="100.1094" fill="#84BE84" rx="3" ry="3" style="stroke: #038048; stroke-width: 1.0;"/><text fill="#19273C" font-family="sans-serif" font-size="16" lengthAdjust="spacingAndGlyphs" textLength="403" x="26" y="105.1563">Resource fromJSON(Object,Object,boolean,boolean)</text></g></svg>