<?xml version="1.0" encoding="UTF-8" standalone="no"?><svg xmlns="http://www.w3.org/2000/svg" xmlns:xlink="http://www.w3.org/1999/xlink" contentScriptType="application/ecmascript" contentStyleType="text/css" height="132px" preserveAspectRatio="none" style="width:549px;height:132px;" version="1.1" viewBox="0 0 549 132" width="549px" zoomAndPan="magnify"><defs/><g><!--class Serializer--><rect fill="#F8FAFA" height="122.5" rx="1" ry="1" style="stroke: #E3ECEC; stroke-width: 1.5;" width="542" x="6" y="8.5"/><ellipse cx="238.25" cy="24.5" fill="#FFFFFF" rx="11" ry="11" style="stroke: #E3ECEC; stroke-width: 1.0;"/><path d="M240.7031,30.1563 Q240.1563,30.4375 239.5547,30.5859 Q238.9531,30.7344 238.2813,30.7344 Q235.9219,30.7344 234.6797,29.1719 Q233.4375,27.6094 233.4375,24.6719 Q233.4375,21.7344 234.6797,20.1797 Q235.9219,18.625 238.2813,18.625 Q238.9531,18.625 239.5625,18.7656 Q240.1719,18.9063 240.7031,19.1875 L240.7031,21.75 Q240.1094,21.2031 239.5469,20.9453 Q238.9844,20.6875 238.3906,20.6875 Q237.125,20.6875 236.4844,21.6953 Q235.8438,22.7031 235.8438,24.6719 Q235.8438,26.6406 236.4844,27.6484 Q237.125,28.6563 238.3906,28.6563 Q238.9844,28.6563 239.5469,28.3984 Q240.1094,28.1406 240.7031,27.5938 L240.7031,30.1563 Z "/><text fill="#19273C" font-family="sans-serif" font-size="16" lengthAdjust="spacingAndGlyphs" textLength="69" x="258.75" y="30.0391">Serializer</text><line style="stroke: #E3ECEC; stroke-width: 1.5;" x1="7" x2="547" y1="40.5" y2="40.5"/><line style="stroke: #E3ECEC; stroke-width: 1.5;" x1="7" x2="547" y1="48.5" y2="48.5"/><ellipse cx="17" cy="62.8125" fill="#84BE84" rx="3" ry="3" style="stroke: #038048; stroke-width: 1.0;"/><text fill="#19273C" font-family="sans-serif" font-size="16" lengthAdjust="spacingAndGlyphs" textLength="318" x="26" y="67.3516">void constructor(Factory,ModelManager)</text><ellipse cx="17" cy="81.4375" fill="#84BE84" rx="3" ry="3" style="stroke: #038048; stroke-width: 1.0;"/><text fill="#19273C" font-family="sans-serif" font-size="16" lengthAdjust="spacingAndGlyphs" textLength="239" x="26" y="85.9766">void setDefaultOptions(Object)</text><ellipse cx="17" cy="100.0625" fill="#84BE84" rx="3" ry="3" style="stroke: #038048; stroke-width: 1.0;"/><text fill="#19273C" font-family="sans-serif" font-size="16" lengthAdjust="spacingAndGlyphs" textLength="516" x="26" y="104.6016">Object toJSON(Resource,Object,boolean,boolean,boolean,boolean)</text><ellipse cx="17" cy="118.6875" fill="#84BE84" rx="3" ry="3" style="stroke: #038048; stroke-width: 1.0;"/><text fill="#19273C" font-family="sans-serif" font-size="16" lengthAdjust="spacingAndGlyphs" textLength="406" x="26" y="123.2266">Resource fromJSON(Object,Object,boolean,boolean)</text></g></svg>