<?xml version="1.0" encoding="UTF-8" standalone="no"?><svg xmlns="http://www.w3.org/2000/svg" xmlns:xlink="http://www.w3.org/1999/xlink" contentScriptType="application/ecmascript" contentStyleType="text/css" height="222px" preserveAspectRatio="none" style="width:310px;height:222px;" version="1.1" viewBox="0 0 310 222" width="310px" zoomAndPan="magnify"><defs/><g><!--class ValidatedConcept--><rect fill="#F8FAFA" height="104.5313" rx="1" ry="1" style="stroke: #E3ECEC; stroke-width: 1.5;" width="303" x="6" y="8"/><ellipse cx="84.75" cy="24" fill="#FFFFFF" rx="11" ry="11" style="stroke: #E3ECEC; stroke-width: 1.0;"/><path d="M87.1953,29.6641 Q86.6484,29.9453 86.0469,30.0859 Q85.4453,30.2266 84.7813,30.2266 Q82.4219,30.2266 81.1797,28.6719 Q79.9375,27.1172 79.9375,24.1797 Q79.9375,21.2344 81.1797,19.6797 Q82.4219,18.125 84.7813,18.125 Q85.4453,18.125 86.0547,18.2656 Q86.6641,18.4063 87.1953,18.6875 L87.1953,21.25 Q86.6016,20.7031 86.043,20.4492 Q85.4844,20.1953 84.8906,20.1953 Q83.625,20.1953 82.9805,21.1992 Q82.3359,22.2031 82.3359,24.1797 Q82.3359,26.1484 82.9805,27.1523 Q83.625,28.1563 84.8906,28.1563 Q85.4844,28.1563 86.043,27.9023 Q86.6016,27.6484 87.1953,27.1016 Z "/><text fill="#19273C" font-family="sans-serif" font-size="16" lengthAdjust="spacingAndGlyphs" textLength="137" x="105.25" y="30.0469">ValidatedConcept</text><line style="stroke: #E3ECEC; stroke-width: 1.5;" x1="7" x2="308" y1="40" y2="40"/><line style="stroke: #E3ECEC; stroke-width: 1.5;" x1="7" x2="308" y1="48" y2="48"/><ellipse cx="17" cy="62.4219" fill="#84BE84" rx="3" ry="3" style="stroke: #038048; stroke-width: 1.0;"/><text fill="#19273C" font-family="sans-serif" font-size="16" lengthAdjust="spacingAndGlyphs" textLength="277" x="26" y="67.4688">void setPropertyValue(string,string)</text><ellipse cx="17" cy="81.2656" fill="#84BE84" rx="3" ry="3" style="stroke: #038048; stroke-width: 1.0;"/><text fill="#19273C" font-family="sans-serif" font-size="16" lengthAdjust="spacingAndGlyphs" textLength="259" x="26" y="86.3125">void addArrayValue(string,string)</text><ellipse cx="17" cy="100.1094" fill="#84BE84" rx="3" ry="3" style="stroke: #038048; stroke-width: 1.0;"/><text fill="#19273C" font-family="sans-serif" font-size="16" lengthAdjust="spacingAndGlyphs" textLength="109" x="26" y="105.1563">void validate()</text><!--class Concept--><rect fill="#F8FAFA" height="48" rx="1" ry="1" style="stroke: #E3ECEC; stroke-width: 1.5;" width="96" x="109.5" y="173"/><ellipse cx="124.5" cy="189" fill="#FFFFFF" rx="11" ry="11" style="stroke: #E3ECEC; stroke-width: 1.0;"/><path d="M126.9453,194.6641 Q126.3984,194.9453 125.7969,195.0859 Q125.1953,195.2266 124.5313,195.2266 Q122.1719,195.2266 120.9297,193.6719 Q119.6875,192.1172 119.6875,189.1797 Q119.6875,186.2344 120.9297,184.6797 Q122.1719,183.125 124.5313,183.125 Q125.1953,183.125 125.8047,183.2656 Q126.4141,183.4063 126.9453,183.6875 L126.9453,186.25 Q126.3516,185.7031 125.793,185.4492 Q125.2344,185.1953 124.6406,185.1953 Q123.375,185.1953 122.7305,186.1992 Q122.0859,187.2031 122.0859,189.1797 Q122.0859,191.1484 122.7305,192.1523 Q123.375,193.1563 124.6406,193.1563 Q125.2344,193.1563 125.793,192.9023 Q126.3516,192.6484 126.9453,192.1016 Z "/><text fill="#19273C" font-family="sans-serif" font-size="16" lengthAdjust="spacingAndGlyphs" textLength="64" x="138.5" y="195.0469">Concept</text><line style="stroke: #E3ECEC; stroke-width: 1.5;" x1="110.5" x2="204.5" y1="205" y2="205"/><line style="stroke: #E3ECEC; stroke-width: 1.5;" x1="110.5" x2="204.5" y1="213" y2="213"/><path d="M157.5,113.2745 C157.5,126.2825 157.5,140.0823 157.5,152.6457 " fill="none" style="stroke: #3C6DF0; stroke-width: 1.0;"/><polygon fill="none" points="164.5001,152.8704,157.5,172.8703,150.5001,152.8703,164.5001,152.8704" style="stroke: #3C6DF0; stroke-width: 1.0;"/></g></svg>