<?xml version="1.0" encoding="UTF-8" standalone="no"?><svg xmlns="http://www.w3.org/2000/svg" xmlns:xlink="http://www.w3.org/1999/xlink" contentScriptType="application/ecmascript" contentStyleType="text/css" height="216px" preserveAspectRatio="none" style="width:243px;height:216px;" version="1.1" viewBox="0 0 243 216" width="243px" zoomAndPan="magnify"><defs/><g><!--class AdminConnection--><rect fill="#F8FAFA" height="207.418" rx="1" ry="1" style="stroke: #E3ECEC; stroke-width: 1.5;" width="236" x="6" y="8.5"/><ellipse cx="78.25" cy="22.5" fill="#FFFFFF" rx="9" ry="9" style="stroke: #E3ECEC; stroke-width: 1.0;"/><path d="M79.5283,25.79 Q79.1865,25.9658 78.8105,26.0537 Q78.4346,26.1416 78.0195,26.1416 Q76.5449,26.1416 75.7686,25.1699 Q74.9922,24.1982 74.9922,22.3623 Q74.9922,20.5215 75.7686,19.5498 Q76.5449,18.5781 78.0195,18.5781 Q78.4346,18.5781 78.8154,18.666 Q79.1963,18.7539 79.5283,18.9297 L79.5283,20.5313 Q79.1572,20.1895 78.8081,20.0308 Q78.459,19.8721 78.0879,19.8721 Q77.2969,19.8721 76.894,20.4995 Q76.4912,21.127 76.4912,22.3623 Q76.4912,23.5928 76.894,24.2202 Q77.2969,24.8477 78.0879,24.8477 Q78.459,24.8477 78.8081,24.689 Q79.1572,24.5303 79.5283,24.1885 Z "/><text fill="#19273C" font-family="Open Sans" font-size="10" lengthAdjust="spacingAndGlyphs" textLength="84" x="95.75" y="26.3794">AdminConnection</text><line style="stroke: #E3ECEC; stroke-width: 1.5;" x1="7" x2="241" y1="36.5" y2="36.5"/><line style="stroke: #E3ECEC; stroke-width: 1.5;" x1="7" x2="241" y1="44.5" y2="44.5"/><ellipse cx="16" cy="56.8091" fill="#84BE84" rx="2" ry="2" style="stroke: #038048; stroke-width: 1.0;"/><text fill="#19273C" font-family="Open Sans" font-size="10" lengthAdjust="spacingAndGlyphs" textLength="150" x="24" y="59.1885">void constructor(Object,Object)</text><ellipse cx="16" cy="70.4272" fill="#84BE84" rx="2" ry="2" style="stroke: #038048; stroke-width: 1.0;"/><text fill="#19273C" font-family="Open Sans" font-size="10" lengthAdjust="spacingAndGlyphs" textLength="200" x="24" y="72.8066">Promise connect(string,string,string,string)</text><ellipse cx="16" cy="84.0454" fill="#84BE84" rx="2" ry="2" style="stroke: #038048; stroke-width: 1.0;"/><text fill="#19273C" font-family="Open Sans" font-size="10" lengthAdjust="spacingAndGlyphs" textLength="171" x="24" y="86.4248">Promise createProfile(string,Object)</text><ellipse cx="16" cy="97.6636" fill="#84BE84" rx="2" ry="2" style="stroke: #038048; stroke-width: 1.0;"/><text fill="#19273C" font-family="Open Sans" font-size="10" lengthAdjust="spacingAndGlyphs" textLength="137" x="24" y="100.043">Promise deleteProfile(string)</text><ellipse cx="16" cy="111.2817" fill="#84BE84" rx="2" ry="2" style="stroke: #038048; stroke-width: 1.0;"/><text fill="#19273C" font-family="Open Sans" font-size="10" lengthAdjust="spacingAndGlyphs" textLength="121" x="24" y="113.6611">Promise getProfile(string)</text><ellipse cx="16" cy="124.8999" fill="#84BE84" rx="2" ry="2" style="stroke: #038048; stroke-width: 1.0;"/><text fill="#19273C" font-family="Open Sans" font-size="10" lengthAdjust="spacingAndGlyphs" textLength="111" x="24" y="127.2793">Promise getAllProfiles()</text><ellipse cx="16" cy="138.5181" fill="#84BE84" rx="2" ry="2" style="stroke: #038048; stroke-width: 1.0;"/><text fill="#19273C" font-family="Open Sans" font-size="10" lengthAdjust="spacingAndGlyphs" textLength="100" x="24" y="140.8975">Promise disconnect()</text><ellipse cx="16" cy="152.1362" fill="#84BE84" rx="2" ry="2" style="stroke: #038048; stroke-width: 1.0;"/><text fill="#19273C" font-family="Open Sans" font-size="10" lengthAdjust="spacingAndGlyphs" textLength="210" x="24" y="154.5156">Promise deploy(BusinessNetworkDefinition)</text><ellipse cx="16" cy="165.7544" fill="#84BE84" rx="2" ry="2" style="stroke: #038048; stroke-width: 1.0;"/><text fill="#19273C" font-family="Open Sans" font-size="10" lengthAdjust="spacingAndGlyphs" textLength="119" x="24" y="168.1338">Promise undeploy(string)</text><ellipse cx="16" cy="179.3726" fill="#84BE84" rx="2" ry="2" style="stroke: #038048; stroke-width: 1.0;"/><text fill="#19273C" font-family="Open Sans" font-size="10" lengthAdjust="spacingAndGlyphs" textLength="212" x="24" y="181.752">Promise update(BusinessNetworkDefinition)</text><ellipse cx="16" cy="192.9907" fill="#84BE84" rx="2" ry="2" style="stroke: #038048; stroke-width: 1.0;"/><text fill="#19273C" font-family="Open Sans" font-size="10" lengthAdjust="spacingAndGlyphs" textLength="68" x="24" y="195.3701">Promise ping()</text><ellipse cx="16" cy="206.6089" fill="#84BE84" rx="2" ry="2" style="stroke: #038048; stroke-width: 1.0;"/><text fill="#19273C" font-family="Open Sans" font-size="10" lengthAdjust="spacingAndGlyphs" textLength="63" x="24" y="208.9883">Promise list()</text></g></svg>