<?xml version="1.0" encoding="UTF-8" standalone="no"?><svg xmlns="http://www.w3.org/2000/svg" xmlns:xlink="http://www.w3.org/1999/xlink" contentScriptType="application/ecmascript" contentStyleType="text/css" height="192px" preserveAspectRatio="none" style="width:245px;height:192px;" version="1.1" viewBox="0 0 245 192" width="245px" zoomAndPan="magnify"><defs/><g><!--class AdminConnection--><rect fill="#F8FAFA" height="183.6875" rx="1" ry="1" style="stroke: #E3ECEC; stroke-width: 1.5;" width="238" x="6" y="8"/><ellipse cx="78.25" cy="22" fill="#FFFFFF" rx="9" ry="9" style="stroke: #E3ECEC; stroke-width: 1.0;"/><path d="M79.5313,25.2969 Q79.1875,25.4688 78.8125,25.5547 Q78.4375,25.6406 78.0156,25.6406 Q76.5469,25.6406 75.7734,24.6719 Q75,23.7031 75,21.8594 Q75,20.0156 75.7734,19.0469 Q76.5469,18.0781 78.0156,18.0781 Q78.4375,18.0781 78.8203,18.1641 Q79.2031,18.25 79.5313,18.4219 L79.5313,20.0313 Q79.1563,19.6875 78.8047,19.5313 Q78.4531,19.375 78.0938,19.375 Q77.2969,19.375 76.8906,20 Q76.4844,20.625 76.4844,21.8594 Q76.4844,23.0938 76.8906,23.7188 Q77.2969,24.3438 78.0938,24.3438 Q78.4531,24.3438 78.8047,24.1875 Q79.1563,24.0313 79.5313,23.6875 L79.5313,25.2969 Z "/><text fill="#19273C" font-family="Open Sans" font-size="10" lengthAdjust="spacingAndGlyphs" textLength="86" x="95.75" y="25.4619">AdminConnection</text><line style="stroke: #E3ECEC; stroke-width: 1.5;" x1="7" x2="243" y1="36" y2="36"/><line style="stroke: #E3ECEC; stroke-width: 1.5;" x1="7" x2="243" y1="44" y2="44"/><ellipse cx="16" cy="55.3203" fill="#84BE84" rx="2" ry="2" style="stroke: #038048; stroke-width: 1.0;"/><text fill="#19273C" font-family="Open Sans" font-size="10" lengthAdjust="spacingAndGlyphs" textLength="151" x="24" y="57.2822">void constructor(Object,Object)</text><ellipse cx="16" cy="66.9609" fill="#84BE84" rx="2" ry="2" style="stroke: #038048; stroke-width: 1.0;"/><text fill="#19273C" font-family="Open Sans" font-size="10" lengthAdjust="spacingAndGlyphs" textLength="206" x="24" y="68.9229">Promise connect(string,string,string,string)</text><ellipse cx="16" cy="78.6016" fill="#84BE84" rx="2" ry="2" style="stroke: #038048; stroke-width: 1.0;"/><text fill="#19273C" font-family="Open Sans" font-size="10" lengthAdjust="spacingAndGlyphs" textLength="174" x="24" y="80.5635">Promise createProfile(string,Object)</text><ellipse cx="16" cy="90.2422" fill="#84BE84" rx="2" ry="2" style="stroke: #038048; stroke-width: 1.0;"/><text fill="#19273C" font-family="Open Sans" font-size="10" lengthAdjust="spacingAndGlyphs" textLength="139" x="24" y="92.2041">Promise deleteProfile(string)</text><ellipse cx="16" cy="101.8828" fill="#84BE84" rx="2" ry="2" style="stroke: #038048; stroke-width: 1.0;"/><text fill="#19273C" font-family="Open Sans" font-size="10" lengthAdjust="spacingAndGlyphs" textLength="125" x="24" y="103.8447">Promise getProfile(string)</text><ellipse cx="16" cy="113.5234" fill="#84BE84" rx="2" ry="2" style="stroke: #038048; stroke-width: 1.0;"/><text fill="#19273C" font-family="Open Sans" font-size="10" lengthAdjust="spacingAndGlyphs" textLength="114" x="24" y="115.4854">Promise getAllProfiles()</text><ellipse cx="16" cy="125.1641" fill="#84BE84" rx="2" ry="2" style="stroke: #038048; stroke-width: 1.0;"/><text fill="#19273C" font-family="Open Sans" font-size="10" lengthAdjust="spacingAndGlyphs" textLength="102" x="24" y="127.126">Promise disconnect()</text><ellipse cx="16" cy="136.8047" fill="#84BE84" rx="2" ry="2" style="stroke: #038048; stroke-width: 1.0;"/><text fill="#19273C" font-family="Open Sans" font-size="10" lengthAdjust="spacingAndGlyphs" textLength="212" x="24" y="138.7666">Promise deploy(BusinessNetworkDefinition)</text><ellipse cx="16" cy="148.4453" fill="#84BE84" rx="2" ry="2" style="stroke: #038048; stroke-width: 1.0;"/><text fill="#19273C" font-family="Open Sans" font-size="10" lengthAdjust="spacingAndGlyphs" textLength="122" x="24" y="150.4072">Promise undeploy(string)</text><ellipse cx="16" cy="160.0859" fill="#84BE84" rx="2" ry="2" style="stroke: #038048; stroke-width: 1.0;"/><text fill="#19273C" font-family="Open Sans" font-size="10" lengthAdjust="spacingAndGlyphs" textLength="214" x="24" y="162.0479">Promise update(BusinessNetworkDefinition)</text><ellipse cx="16" cy="171.7266" fill="#84BE84" rx="2" ry="2" style="stroke: #038048; stroke-width: 1.0;"/><text fill="#19273C" font-family="Open Sans" font-size="10" lengthAdjust="spacingAndGlyphs" textLength="71" x="24" y="173.6885">Promise ping()</text><ellipse cx="16" cy="183.3672" fill="#84BE84" rx="2" ry="2" style="stroke: #038048; stroke-width: 1.0;"/><text fill="#19273C" font-family="Open Sans" font-size="10" lengthAdjust="spacingAndGlyphs" textLength="64" x="24" y="185.3291">Promise list()</text></g></svg>