<?xml version="1.0" encoding="UTF-8" standalone="no"?><svg xmlns="http://www.w3.org/2000/svg" xmlns:xlink="http://www.w3.org/1999/xlink" contentScriptType="application/ecmascript" contentStyleType="text/css" height="211px" preserveAspectRatio="none" style="width:243px;height:211px;" version="1.1" viewBox="0 0 243 211" width="243px" zoomAndPan="magnify"><defs><filter height="300%" id="fylyjnr" width="300%" x="-1" y="-1"><feGaussianBlur result="blurOut" stdDeviation="2.0"/><feColorMatrix in="blurOut" result="blurOut2" type="matrix" values="0 0 0 0 0 0 0 0 0 0 0 0 0 0 0 0 0 0 .4 0"/><feOffset dx="4.0" dy="4.0" in="blurOut2" result="blurOut3"/><feBlend in="SourceGraphic" in2="blurOut3" mode="normal"/></filter></defs><g><!--class ValidatedResource--><rect fill="#FEFECE" filter="url(#fylyjnr)" height="86.4141" style="stroke: #A80036; stroke-width: 1.5;" width="228" x="6" y="8"/><ellipse cx="56.75" cy="24" fill="#ADD1B2" rx="11" ry="11" style="stroke: #A80036; stroke-width: 1.0;"/><path d="M59.7188,29.6406 Q59.1406,29.9375 58.5,30.0859 Q57.8594,30.2344 57.1563,30.2344 Q54.6563,30.2344 53.3359,28.5859 Q52.0156,26.9375 52.0156,23.8125 Q52.0156,20.6875 53.3359,19.0313 Q54.6563,17.375 57.1563,17.375 Q57.8594,17.375 58.5078,17.5313 Q59.1563,17.6875 59.7188,17.9844 L59.7188,20.7031 Q59.0938,20.125 58.5,19.8516 Q57.9063,19.5781 57.2813,19.5781 Q55.9375,19.5781 55.25,20.6484 Q54.5625,21.7188 54.5625,23.8125 Q54.5625,25.9063 55.25,26.9766 Q55.9375,28.0469 57.2813,28.0469 Q57.9063,28.0469 58.5,27.7734 Q59.0938,27.5 59.7188,26.9219 L59.7188,29.6406 Z "/><text fill="#000000" font-family="sans-serif" font-size="12" lengthAdjust="spacingAndGlyphs" textLength="118" x="77.25" y="28.1543">ValidatedResource</text><line style="stroke: #A80036; stroke-width: 1.5;" x1="7" x2="233" y1="40" y2="40"/><line style="stroke: #A80036; stroke-width: 1.5;" x1="7" x2="233" y1="48" y2="48"/><ellipse cx="17" cy="59.9023" fill="#84BE84" rx="3" ry="3" style="stroke: #038048; stroke-width: 1.0;"/><text fill="#000000" font-family="sans-serif" font-size="11" lengthAdjust="spacingAndGlyphs" textLength="202" x="26" y="62.2104">void setPropertyValue(string,string)</text><ellipse cx="17" cy="72.707" fill="#84BE84" rx="3" ry="3" style="stroke: #038048; stroke-width: 1.0;"/><text fill="#000000" font-family="sans-serif" font-size="11" lengthAdjust="spacingAndGlyphs" textLength="187" x="26" y="75.0151">void addArrayValue(string,string)</text><ellipse cx="17" cy="85.5117" fill="#84BE84" rx="3" ry="3" style="stroke: #038048; stroke-width: 1.0;"/><text fill="#000000" font-family="sans-serif" font-size="11" lengthAdjust="spacingAndGlyphs" textLength="79" x="26" y="87.8198">void validate()</text><!--class Resource--><rect fill="#FEFECE" filter="url(#fylyjnr)" height="48" style="stroke: #A80036; stroke-width: 1.5;" width="91" x="74.5" y="154"/><ellipse cx="89.5" cy="170" fill="#ADD1B2" rx="11" ry="11" style="stroke: #A80036; stroke-width: 1.0;"/><path d="M92.4688,175.6406 Q91.8906,175.9375 91.25,176.0859 Q90.6094,176.2344 89.9063,176.2344 Q87.4063,176.2344 86.0859,174.5859 Q84.7656,172.9375 84.7656,169.8125 Q84.7656,166.6875 86.0859,165.0313 Q87.4063,163.375 89.9063,163.375 Q90.6094,163.375 91.2578,163.5313 Q91.9063,163.6875 92.4688,163.9844 L92.4688,166.7031 Q91.8438,166.125 91.25,165.8516 Q90.6563,165.5781 90.0313,165.5781 Q88.6875,165.5781 88,166.6484 Q87.3125,167.7188 87.3125,169.8125 Q87.3125,171.9063 88,172.9766 Q88.6875,174.0469 90.0313,174.0469 Q90.6563,174.0469 91.25,173.7734 Q91.8438,173.5 92.4688,172.9219 L92.4688,175.6406 Z "/><text fill="#000000" font-family="sans-serif" font-size="12" lengthAdjust="spacingAndGlyphs" textLength="59" x="103.5" y="174.1543">Resource</text><line style="stroke: #A80036; stroke-width: 1.5;" x1="75.5" x2="164.5" y1="186" y2="186"/><line style="stroke: #A80036; stroke-width: 1.5;" x1="75.5" x2="164.5" y1="194" y2="194"/><path d="M120,94.319 C120,106.869 120,120.6347 120,133.2718 " fill="none" style="stroke: #A80036; stroke-width: 1.0;"/><polygon fill="none" points="127,133.6717,120,153.6717,113,133.6717,127,133.6717" style="stroke: #A80036; stroke-width: 1.0;"/></g></svg>