<?xml version="1.0" encoding="UTF-8" standalone="no"?><svg xmlns="http://www.w3.org/2000/svg" xmlns:xlink="http://www.w3.org/1999/xlink" contentScriptType="application/ecmascript" contentStyleType="text/css" height="470px" preserveAspectRatio="none" style="width:452px;height:470px;" version="1.1" viewBox="0 0 452 470" width="452px" zoomAndPan="magnify"><defs/><g><!--class Registry--><rect fill="#F8FAFA" height="289.127" rx="1" ry="1" style="stroke: #E3ECEC; stroke-width: 1.5;" width="428" x="14.25" y="180.5"/><ellipse cx="205.5" cy="194.5" fill="#FFFFFF" rx="9" ry="9" style="stroke: #E3ECEC; stroke-width: 1.0;"/><path d="M206.7783,197.79 Q206.4365,197.9658 206.0605,198.0537 Q205.6846,198.1416 205.2695,198.1416 Q203.7949,198.1416 203.0186,197.1699 Q202.2422,196.1982 202.2422,194.3623 Q202.2422,192.5215 203.0186,191.5498 Q203.7949,190.5781 205.2695,190.5781 Q205.6846,190.5781 206.0654,190.666 Q206.4463,190.7539 206.7783,190.9297 L206.7783,192.5313 Q206.4072,192.1895 206.0581,192.0308 Q205.709,191.8721 205.3379,191.8721 Q204.5469,191.8721 204.144,192.4995 Q203.7412,193.127 203.7412,194.3623 Q203.7412,195.5928 204.144,196.2202 Q204.5469,196.8477 205.3379,196.8477 Q205.709,196.8477 206.0581,196.689 Q206.4072,196.5303 206.7783,196.1885 Z "/><text fill="#19273C" font-family="Open Sans" font-size="10" lengthAdjust="spacingAndGlyphs" textLength="38" x="223" y="198.3794">Registry</text><line style="stroke: #E3ECEC; stroke-width: 1.5;" x1="15.25" x2="441.25" y1="208.5" y2="208.5"/><line style="stroke: #E3ECEC; stroke-width: 1.5;" x1="15.25" x2="441.25" y1="216.5" y2="216.5"/><ellipse cx="24.25" cy="228.8091" fill="#84BE84" rx="2" ry="2" style="stroke: #038048; stroke-width: 1.0;"/><text fill="#19273C" font-family="Open Sans" font-size="10" lengthAdjust="spacingAndGlyphs" textLength="226" x="32.25" y="231.1885">Promise getAllRegistries(SecurityContext,string)</text><ellipse cx="24.25" cy="242.4272" fill="#84BE84" rx="2" ry="2" style="stroke: #038048; stroke-width: 1.0;"/><text fill="#19273C" font-family="Open Sans" font-size="10" lengthAdjust="spacingAndGlyphs" textLength="234" x="32.25" y="244.8066">Promise getRegistry(SecurityContext,string,string)</text><ellipse cx="24.25" cy="256.0454" fill="#84BE84" rx="2" ry="2" style="stroke: #038048; stroke-width: 1.0;"/><text fill="#19273C" font-family="Open Sans" font-size="10" lengthAdjust="spacingAndGlyphs" textLength="247" x="32.25" y="258.4248">Promise existsRegistry(SecurityContext,string,string)</text><ellipse cx="24.25" cy="269.6636" fill="#84BE84" rx="2" ry="2" style="stroke: #038048; stroke-width: 1.0;"/><text fill="#19273C" font-family="Open Sans" font-size="10" lengthAdjust="spacingAndGlyphs" textLength="266" x="32.25" y="272.043">Promise addRegistry(SecurityContext,string,string,string)</text><ellipse cx="24.25" cy="283.2817" fill="#84BE84" rx="2" ry="2" style="stroke: #038048; stroke-width: 1.0;"/><text fill="#19273C" font-family="Open Sans" font-size="10" lengthAdjust="spacingAndGlyphs" textLength="404" x="32.25" y="285.6611">void constructor(string,string,string,SecurityContext,ModelManager,Factory,Serializer)</text><ellipse cx="24.25" cy="296.8999" fill="#84BE84" rx="2" ry="2" style="stroke: #038048; stroke-width: 1.0;"/><text fill="#19273C" font-family="Open Sans" font-size="10" lengthAdjust="spacingAndGlyphs" textLength="128" x="32.25" y="299.2793">Promise addAll(Resource[])</text><ellipse cx="24.25" cy="310.5181" fill="#84BE84" rx="2" ry="2" style="stroke: #038048; stroke-width: 1.0;"/><text fill="#19273C" font-family="Open Sans" font-size="10" lengthAdjust="spacingAndGlyphs" textLength="110" x="32.25" y="312.8975">Promise add(Resource)</text><ellipse cx="24.25" cy="324.1362" fill="#84BE84" rx="2" ry="2" style="stroke: #038048; stroke-width: 1.0;"/><text fill="#19273C" font-family="Open Sans" font-size="10" lengthAdjust="spacingAndGlyphs" textLength="144" x="32.25" y="326.5156">Promise updateAll(Resource[])</text><ellipse cx="24.25" cy="337.7544" fill="#84BE84" rx="2" ry="2" style="stroke: #038048; stroke-width: 1.0;"/><text fill="#19273C" font-family="Open Sans" font-size="10" lengthAdjust="spacingAndGlyphs" textLength="126" x="32.25" y="340.1338">Promise update(Resource)</text><ellipse cx="24.25" cy="351.3726" fill="#84BE84" rx="2" ry="2" style="stroke: #038048; stroke-width: 1.0;"/><text fill="#19273C" font-family="Open Sans" font-size="10" lengthAdjust="spacingAndGlyphs" textLength="96" x="32.25" y="353.752">Promise removeAll()</text><ellipse cx="24.25" cy="364.9907" fill="#84BE84" rx="2" ry="2" style="stroke: #038048; stroke-width: 1.0;"/><text fill="#19273C" font-family="Open Sans" font-size="10" lengthAdjust="spacingAndGlyphs" textLength="84" x="32.25" y="367.3701">Promise remove()</text><ellipse cx="24.25" cy="378.6089" fill="#84BE84" rx="2" ry="2" style="stroke: #038048; stroke-width: 1.0;"/><text fill="#19273C" font-family="Open Sans" font-size="10" lengthAdjust="spacingAndGlyphs" textLength="75" x="32.25" y="380.9883">Promise getAll()</text><ellipse cx="24.25" cy="392.2271" fill="#84BE84" rx="2" ry="2" style="stroke: #038048; stroke-width: 1.0;"/><text fill="#19273C" font-family="Open Sans" font-size="10" lengthAdjust="spacingAndGlyphs" textLength="90" x="32.25" y="394.6064">Promise get(string)</text><ellipse cx="24.25" cy="405.8452" fill="#84BE84" rx="2" ry="2" style="stroke: #038048; stroke-width: 1.0;"/><text fill="#19273C" font-family="Open Sans" font-size="10" lengthAdjust="spacingAndGlyphs" textLength="103" x="32.25" y="408.2246">Promise exists(string)</text><ellipse cx="24.25" cy="419.4634" fill="#84BE84" rx="2" ry="2" style="stroke: #038048; stroke-width: 1.0;"/><text fill="#19273C" font-family="Open Sans" font-size="10" lengthAdjust="spacingAndGlyphs" textLength="93" x="32.25" y="421.8428">Promise find(string)</text><ellipse cx="24.25" cy="433.0815" fill="#84BE84" rx="2" ry="2" style="stroke: #038048; stroke-width: 1.0;"/><text fill="#19273C" font-family="Open Sans" font-size="10" lengthAdjust="spacingAndGlyphs" textLength="102" x="32.25" y="435.4609">Promise query(string)</text><ellipse cx="24.25" cy="446.6997" fill="#84BE84" rx="2" ry="2" style="stroke: #038048; stroke-width: 1.0;"/><text fill="#19273C" font-family="Open Sans" font-size="10" lengthAdjust="spacingAndGlyphs" textLength="95" x="32.25" y="449.0791">Promise resolveAll()</text><ellipse cx="24.25" cy="460.3179" fill="#84BE84" rx="2" ry="2" style="stroke: #038048; stroke-width: 1.0;"/><text fill="#19273C" font-family="Open Sans" font-size="10" lengthAdjust="spacingAndGlyphs" textLength="110" x="32.25" y="462.6973">Promise resolve(string)</text><!--class AssetRegistry--><rect fill="#F8FAFA" height="112.0908" rx="1" ry="1" style="stroke: #E3ECEC; stroke-width: 1.5;" width="445" x="6" y="8"/><ellipse cx="192.75" cy="22" fill="#FFFFFF" rx="9" ry="9" style="stroke: #E3ECEC; stroke-width: 1.0;"/><path d="M194.0283,25.29 Q193.6865,25.4658 193.3105,25.5537 Q192.9346,25.6416 192.5195,25.6416 Q191.0449,25.6416 190.2686,24.6699 Q189.4922,23.6982 189.4922,21.8623 Q189.4922,20.0215 190.2686,19.0498 Q191.0449,18.0781 192.5195,18.0781 Q192.9346,18.0781 193.3154,18.166 Q193.6963,18.2539 194.0283,18.4297 L194.0283,20.0313 Q193.6572,19.6895 193.3081,19.5308 Q192.959,19.3721 192.5879,19.3721 Q191.7969,19.3721 191.394,19.9995 Q190.9912,20.627 190.9912,21.8623 Q190.9912,23.0928 191.394,23.7202 Q191.7969,24.3477 192.5879,24.3477 Q192.959,24.3477 193.3081,24.189 Q193.6572,24.0303 194.0283,23.6885 Z "/><text fill="#19273C" font-family="Open Sans" font-size="10" lengthAdjust="spacingAndGlyphs" textLength="64" x="210.25" y="25.8794">AssetRegistry</text><line style="stroke: #E3ECEC; stroke-width: 1.5;" x1="7" x2="450" y1="36" y2="36"/><line style="stroke: #E3ECEC; stroke-width: 1.5;" x1="7" x2="450" y1="44" y2="44"/><ellipse cx="16" cy="56.3091" fill="#84BE84" rx="2" ry="2" style="stroke: #038048; stroke-width: 1.0;"/><text fill="#19273C" font-family="Open Sans" font-size="10" lengthAdjust="spacingAndGlyphs" textLength="381" x="24" y="58.6885">Promise getAllAssetRegistries(SecurityContext,ModelManager,Factory,Serializer)</text><ellipse cx="16" cy="69.9272" fill="#84BE84" rx="2" ry="2" style="stroke: #038048; stroke-width: 1.0;"/><text fill="#19273C" font-family="Open Sans" font-size="10" lengthAdjust="spacingAndGlyphs" textLength="389" x="24" y="72.3066">Promise getAssetRegistry(SecurityContext,string,ModelManager,Factory,Serializer)</text><ellipse cx="16" cy="83.5454" fill="#84BE84" rx="2" ry="2" style="stroke: #038048; stroke-width: 1.0;"/><text fill="#19273C" font-family="Open Sans" font-size="10" lengthAdjust="spacingAndGlyphs" textLength="402" x="24" y="85.9248">Promise existsAssetRegistry(SecurityContext,string,ModelManager,Factory,Serializer)</text><ellipse cx="16" cy="97.1636" fill="#84BE84" rx="2" ry="2" style="stroke: #038048; stroke-width: 1.0;"/><text fill="#19273C" font-family="Open Sans" font-size="10" lengthAdjust="spacingAndGlyphs" textLength="421" x="24" y="99.543">Promise addAssetRegistry(SecurityContext,string,string,ModelManager,Factory,Serializer)</text><ellipse cx="16" cy="110.7817" fill="#84BE84" rx="2" ry="2" style="stroke: #038048; stroke-width: 1.0;"/><text fill="#19273C" font-family="Open Sans" font-size="10" lengthAdjust="spacingAndGlyphs" textLength="375" x="24" y="113.1611">void constructor(string,string,SecurityContext,ModelManager,Factory,Serializer)</text><path d="M228.25,120.244 C228.25,132.463 228.25,146.013 228.25,160.152 " fill="none" style="stroke: #3C6DF0; stroke-width: 1.0;"/><polygon fill="none" points="235.25,160.457,228.25,180.457,221.25,160.457,235.25,160.457" style="stroke: #3C6DF0; stroke-width: 1.0;"/></g></svg>