<?xml version="1.0" encoding="UTF-8" standalone="no"?><svg xmlns="http://www.w3.org/2000/svg" xmlns:xlink="http://www.w3.org/1999/xlink" contentScriptType="application/ecmascript" contentStyleType="text/css" height="424px" preserveAspectRatio="none" style="width:469px;height:424px;" version="1.1" viewBox="0 0 469 424" width="469px" zoomAndPan="magnify"><defs/><g><!--class Registry--><rect fill="#F8FAFA" height="253.5313" rx="1" ry="1" style="stroke: #E3ECEC; stroke-width: 1.5;" width="442" x="16" y="170"/><ellipse cx="213.25" cy="184" fill="#FFFFFF" rx="9" ry="9" style="stroke: #E3ECEC; stroke-width: 1.0;"/><path d="M214.5313,187.2969 Q214.1875,187.4688 213.8125,187.5547 Q213.4375,187.6406 213.0156,187.6406 Q211.5469,187.6406 210.7734,186.6719 Q210,185.7031 210,183.8594 Q210,182.0156 210.7734,181.0469 Q211.5469,180.0781 213.0156,180.0781 Q213.4375,180.0781 213.8203,180.1641 Q214.2031,180.25 214.5313,180.4219 L214.5313,182.0313 Q214.1563,181.6875 213.8047,181.5313 Q213.4531,181.375 213.0938,181.375 Q212.2969,181.375 211.8906,182 Q211.4844,182.625 211.4844,183.8594 Q211.4844,185.0938 211.8906,185.7188 Q212.2969,186.3438 213.0938,186.3438 Q213.4531,186.3438 213.8047,186.1875 Q214.1563,186.0313 214.5313,185.6875 L214.5313,187.2969 Z "/><text fill="#19273C" font-family="Open Sans" font-size="10" lengthAdjust="spacingAndGlyphs" textLength="40" x="230.75" y="187.4619">Registry</text><line style="stroke: #E3ECEC; stroke-width: 1.5;" x1="17" x2="457" y1="198" y2="198"/><line style="stroke: #E3ECEC; stroke-width: 1.5;" x1="17" x2="457" y1="206" y2="206"/><ellipse cx="26" cy="217.3203" fill="#84BE84" rx="2" ry="2" style="stroke: #038048; stroke-width: 1.0;"/><text fill="#19273C" font-family="Open Sans" font-size="10" lengthAdjust="spacingAndGlyphs" textLength="235" x="34" y="219.2822">Promise getAllRegistries(SecurityContext,string)</text><ellipse cx="26" cy="228.9609" fill="#84BE84" rx="2" ry="2" style="stroke: #038048; stroke-width: 1.0;"/><text fill="#19273C" font-family="Open Sans" font-size="10" lengthAdjust="spacingAndGlyphs" textLength="247" x="34" y="230.9229">Promise getRegistry(SecurityContext,string,string)</text><ellipse cx="26" cy="240.6016" fill="#84BE84" rx="2" ry="2" style="stroke: #038048; stroke-width: 1.0;"/><text fill="#19273C" font-family="Open Sans" font-size="10" lengthAdjust="spacingAndGlyphs" textLength="259" x="34" y="242.5635">Promise existsRegistry(SecurityContext,string,string)</text><ellipse cx="26" cy="252.2422" fill="#84BE84" rx="2" ry="2" style="stroke: #038048; stroke-width: 1.0;"/><text fill="#19273C" font-family="Open Sans" font-size="10" lengthAdjust="spacingAndGlyphs" textLength="279" x="34" y="254.2041">Promise addRegistry(SecurityContext,string,string,string)</text><ellipse cx="26" cy="263.8828" fill="#84BE84" rx="2" ry="2" style="stroke: #038048; stroke-width: 1.0;"/><text fill="#19273C" font-family="Open Sans" font-size="10" lengthAdjust="spacingAndGlyphs" textLength="418" x="34" y="265.8447">void constructor(string,string,string,SecurityContext,ModelManager,Factory,Serializer)</text><ellipse cx="26" cy="275.5234" fill="#84BE84" rx="2" ry="2" style="stroke: #038048; stroke-width: 1.0;"/><text fill="#19273C" font-family="Open Sans" font-size="10" lengthAdjust="spacingAndGlyphs" textLength="133" x="34" y="277.4854">Promise addAll(Resource[])</text><ellipse cx="26" cy="287.1641" fill="#84BE84" rx="2" ry="2" style="stroke: #038048; stroke-width: 1.0;"/><text fill="#19273C" font-family="Open Sans" font-size="10" lengthAdjust="spacingAndGlyphs" textLength="114" x="34" y="289.126">Promise add(Resource)</text><ellipse cx="26" cy="298.8047" fill="#84BE84" rx="2" ry="2" style="stroke: #038048; stroke-width: 1.0;"/><text fill="#19273C" font-family="Open Sans" font-size="10" lengthAdjust="spacingAndGlyphs" textLength="149" x="34" y="300.7666">Promise updateAll(Resource[])</text><ellipse cx="26" cy="310.4453" fill="#84BE84" rx="2" ry="2" style="stroke: #038048; stroke-width: 1.0;"/><text fill="#19273C" font-family="Open Sans" font-size="10" lengthAdjust="spacingAndGlyphs" textLength="130" x="34" y="312.4072">Promise update(Resource)</text><ellipse cx="26" cy="322.0859" fill="#84BE84" rx="2" ry="2" style="stroke: #038048; stroke-width: 1.0;"/><text fill="#19273C" font-family="Open Sans" font-size="10" lengthAdjust="spacingAndGlyphs" textLength="100" x="34" y="324.0479">Promise removeAll()</text><ellipse cx="26" cy="333.7266" fill="#84BE84" rx="2" ry="2" style="stroke: #038048; stroke-width: 1.0;"/><text fill="#19273C" font-family="Open Sans" font-size="10" lengthAdjust="spacingAndGlyphs" textLength="89" x="34" y="335.6885">Promise remove()</text><ellipse cx="26" cy="345.3672" fill="#84BE84" rx="2" ry="2" style="stroke: #038048; stroke-width: 1.0;"/><text fill="#19273C" font-family="Open Sans" font-size="10" lengthAdjust="spacingAndGlyphs" textLength="78" x="34" y="347.3291">Promise getAll()</text><ellipse cx="26" cy="357.0078" fill="#84BE84" rx="2" ry="2" style="stroke: #038048; stroke-width: 1.0;"/><text fill="#19273C" font-family="Open Sans" font-size="10" lengthAdjust="spacingAndGlyphs" textLength="94" x="34" y="358.9697">Promise get(string)</text><ellipse cx="26" cy="368.6484" fill="#84BE84" rx="2" ry="2" style="stroke: #038048; stroke-width: 1.0;"/><text fill="#19273C" font-family="Open Sans" font-size="10" lengthAdjust="spacingAndGlyphs" textLength="106" x="34" y="370.6104">Promise exists(string)</text><ellipse cx="26" cy="380.2891" fill="#84BE84" rx="2" ry="2" style="stroke: #038048; stroke-width: 1.0;"/><text fill="#19273C" font-family="Open Sans" font-size="10" lengthAdjust="spacingAndGlyphs" textLength="96" x="34" y="382.251">Promise find(string)</text><ellipse cx="26" cy="391.9297" fill="#84BE84" rx="2" ry="2" style="stroke: #038048; stroke-width: 1.0;"/><text fill="#19273C" font-family="Open Sans" font-size="10" lengthAdjust="spacingAndGlyphs" textLength="106" x="34" y="393.8916">Promise query(string)</text><ellipse cx="26" cy="403.5703" fill="#84BE84" rx="2" ry="2" style="stroke: #038048; stroke-width: 1.0;"/><text fill="#19273C" font-family="Open Sans" font-size="10" lengthAdjust="spacingAndGlyphs" textLength="97" x="34" y="405.5322">Promise resolveAll()</text><ellipse cx="26" cy="415.2109" fill="#84BE84" rx="2" ry="2" style="stroke: #038048; stroke-width: 1.0;"/><text fill="#19273C" font-family="Open Sans" font-size="10" lengthAdjust="spacingAndGlyphs" textLength="113" x="34" y="417.1729">Promise resolve(string)</text><!--class AssetRegistry--><rect fill="#F8FAFA" height="102.2031" rx="1" ry="1" style="stroke: #E3ECEC; stroke-width: 1.5;" width="462" x="6" y="8"/><ellipse cx="199.75" cy="22" fill="#FFFFFF" rx="9" ry="9" style="stroke: #E3ECEC; stroke-width: 1.0;"/><path d="M201.0313,25.2969 Q200.6875,25.4688 200.3125,25.5547 Q199.9375,25.6406 199.5156,25.6406 Q198.0469,25.6406 197.2734,24.6719 Q196.5,23.7031 196.5,21.8594 Q196.5,20.0156 197.2734,19.0469 Q198.0469,18.0781 199.5156,18.0781 Q199.9375,18.0781 200.3203,18.1641 Q200.7031,18.25 201.0313,18.4219 L201.0313,20.0313 Q200.6563,19.6875 200.3047,19.5313 Q199.9531,19.375 199.5938,19.375 Q198.7969,19.375 198.3906,20 Q197.9844,20.625 197.9844,21.8594 Q197.9844,23.0938 198.3906,23.7188 Q198.7969,24.3438 199.5938,24.3438 Q199.9531,24.3438 200.3047,24.1875 Q200.6563,24.0313 201.0313,23.6875 L201.0313,25.2969 Z "/><text fill="#19273C" font-family="Open Sans" font-size="10" lengthAdjust="spacingAndGlyphs" textLength="67" x="217.25" y="25.4619">AssetRegistry</text><line style="stroke: #E3ECEC; stroke-width: 1.5;" x1="7" x2="467" y1="36" y2="36"/><line style="stroke: #E3ECEC; stroke-width: 1.5;" x1="7" x2="467" y1="44" y2="44"/><ellipse cx="16" cy="55.3203" fill="#84BE84" rx="2" ry="2" style="stroke: #038048; stroke-width: 1.0;"/><text fill="#19273C" font-family="Open Sans" font-size="10" lengthAdjust="spacingAndGlyphs" textLength="394" x="24" y="57.2822">Promise getAllAssetRegistries(SecurityContext,ModelManager,Factory,Serializer)</text><ellipse cx="16" cy="66.9609" fill="#84BE84" rx="2" ry="2" style="stroke: #038048; stroke-width: 1.0;"/><text fill="#19273C" font-family="Open Sans" font-size="10" lengthAdjust="spacingAndGlyphs" textLength="406" x="24" y="68.9229">Promise getAssetRegistry(SecurityContext,string,ModelManager,Factory,Serializer)</text><ellipse cx="16" cy="78.6016" fill="#84BE84" rx="2" ry="2" style="stroke: #038048; stroke-width: 1.0;"/><text fill="#19273C" font-family="Open Sans" font-size="10" lengthAdjust="spacingAndGlyphs" textLength="418" x="24" y="80.5635">Promise existsAssetRegistry(SecurityContext,string,ModelManager,Factory,Serializer)</text><ellipse cx="16" cy="90.2422" fill="#84BE84" rx="2" ry="2" style="stroke: #038048; stroke-width: 1.0;"/><text fill="#19273C" font-family="Open Sans" font-size="10" lengthAdjust="spacingAndGlyphs" textLength="438" x="24" y="92.2041">Promise addAssetRegistry(SecurityContext,string,string,ModelManager,Factory,Serializer)</text><ellipse cx="16" cy="101.8828" fill="#84BE84" rx="2" ry="2" style="stroke: #038048; stroke-width: 1.0;"/><text fill="#19273C" font-family="Open Sans" font-size="10" lengthAdjust="spacingAndGlyphs" textLength="388" x="24" y="103.8447">void constructor(string,string,SecurityContext,ModelManager,Factory,Serializer)</text><path d="M237,110.05 C237,122.097 237,135.578 237,149.629 " fill="none" style="stroke: #3C6DF0; stroke-width: 1.0;"/><polygon fill="none" points="244,149.785,237,169.785,230,149.785,244,149.785" style="stroke: #3C6DF0; stroke-width: 1.0;"/></g></svg>