<?xml version="1.0" encoding="UTF-8" standalone="no"?><svg xmlns="http://www.w3.org/2000/svg" xmlns:xlink="http://www.w3.org/1999/xlink" contentScriptType="application/ecmascript" contentStyleType="text/css" height="171px" preserveAspectRatio="none" style="width:142px;height:171px;" version="1.1" viewBox="0 0 142 171" width="142px" zoomAndPan="magnify"><defs/><g><!--class BaseException--><rect fill="#F8FAFA" height="57.6182" rx="1" ry="1" style="stroke: #E3ECEC; stroke-width: 1.5;" width="135" x="6" y="8"/><ellipse cx="35.65" cy="22" fill="#FFFFFF" rx="9" ry="9" style="stroke: #E3ECEC; stroke-width: 1.0;"/><path d="M36.9283,25.29 Q36.5865,25.4658 36.2105,25.5537 Q35.8346,25.6416 35.4195,25.6416 Q33.9449,25.6416 33.1686,24.6699 Q32.3922,23.6982 32.3922,21.8623 Q32.3922,20.0215 33.1686,19.0498 Q33.9449,18.0781 35.4195,18.0781 Q35.8346,18.0781 36.2154,18.166 Q36.5963,18.2539 36.9283,18.4297 L36.9283,20.0313 Q36.5572,19.6895 36.2081,19.5308 Q35.859,19.3721 35.4879,19.3721 Q34.6969,19.3721 34.294,19.9995 Q33.8912,20.627 33.8912,21.8623 Q33.8912,23.0928 34.294,23.7202 Q34.6969,24.3477 35.4879,24.3477 Q35.859,24.3477 36.2081,24.189 Q36.5572,24.0303 36.9283,23.6885 Z "/><text fill="#19273C" font-family="Open Sans" font-size="10" lengthAdjust="spacingAndGlyphs" textLength="70" x="51.35" y="25.8794">BaseException</text><line style="stroke: #E3ECEC; stroke-width: 1.5;" x1="7" x2="140" y1="36" y2="36"/><line style="stroke: #E3ECEC; stroke-width: 1.5;" x1="7" x2="140" y1="44" y2="44"/><ellipse cx="16" cy="56.3091" fill="#84BE84" rx="2" ry="2" style="stroke: #038048; stroke-width: 1.0;"/><text fill="#19273C" font-family="Open Sans" font-size="10" lengthAdjust="spacingAndGlyphs" textLength="111" x="24" y="58.6885">void constructor(string)</text><!--class Error--><rect fill="#F8FAFA" height="44" rx="1" ry="1" style="stroke: #E3ECEC; stroke-width: 1.5;" width="52" x="47.25" y="126"/><ellipse cx="60.25" cy="140" fill="#FFFFFF" rx="9" ry="9" style="stroke: #E3ECEC; stroke-width: 1.0;"/><path d="M61.5283,143.29 Q61.1865,143.4658 60.8105,143.5537 Q60.4346,143.6416 60.0195,143.6416 Q58.5449,143.6416 57.7686,142.6699 Q56.9922,141.6982 56.9922,139.8623 Q56.9922,138.0215 57.7686,137.0498 Q58.5449,136.0781 60.0195,136.0781 Q60.4346,136.0781 60.8154,136.166 Q61.1963,136.2539 61.5283,136.4297 L61.5283,138.0313 Q61.1572,137.6895 60.8081,137.5308 Q60.459,137.3721 60.0879,137.3721 Q59.2969,137.3721 58.894,137.9995 Q58.4912,138.627 58.4912,139.8623 Q58.4912,141.0928 58.894,141.7202 Q59.2969,142.3477 60.0879,142.3477 Q60.459,142.3477 60.8081,142.189 Q61.1572,142.0303 61.5283,141.6885 Z "/><text fill="#19273C" font-family="Open Sans" font-size="10" lengthAdjust="spacingAndGlyphs" textLength="24" x="72.25" y="143.8794">Error</text><line style="stroke: #E3ECEC; stroke-width: 1.5;" x1="48.25" x2="98.25" y1="154" y2="154"/><line style="stroke: #E3ECEC; stroke-width: 1.5;" x1="48.25" x2="98.25" y1="162" y2="162"/><path d="M73.25,66.07 C73.25,78.1772 73.25,92.5803 73.25,105.8565 " fill="none" style="stroke: #3C6DF0; stroke-width: 1.0;"/><polygon fill="none" points="80.2501,105.9111,73.25,125.911,66.2501,105.911,80.2501,105.9111" style="stroke: #3C6DF0; stroke-width: 1.0;"/></g></svg>