<?xml version="1.0" encoding="UTF-8" standalone="no"?><svg xmlns="http://www.w3.org/2000/svg" xmlns:xlink="http://www.w3.org/1999/xlink" contentScriptType="application/ecmascript" contentStyleType="text/css" height="620px" preserveAspectRatio="none" style="width:1779px;height:620px;" version="1.1" viewBox="0 0 1779 620" width="1779px" zoomAndPan="magnify"><defs/><g><!--class Registry--><rect fill="#F8FAFA" height="289.127" rx="1" ry="1" style="stroke: #E3ECEC; stroke-width: 1.5;" width="428" x="508.25" y="330.5"/><ellipse cx="699.5" cy="344.5" fill="#FFFFFF" rx="9" ry="9" style="stroke: #E3ECEC; stroke-width: 1.0;"/><path d="M700.7783,347.79 Q700.4365,347.9658 700.0605,348.0537 Q699.6846,348.1416 699.2695,348.1416 Q697.7949,348.1416 697.0186,347.1699 Q696.2422,346.1982 696.2422,344.3623 Q696.2422,342.5215 697.0186,341.5498 Q697.7949,340.5781 699.2695,340.5781 Q699.6846,340.5781 700.0654,340.666 Q700.4463,340.7539 700.7783,340.9297 L700.7783,342.5313 Q700.4072,342.1895 700.0581,342.0308 Q699.709,341.8721 699.3379,341.8721 Q698.5469,341.8721 698.144,342.4995 Q697.7412,343.127 697.7412,344.3623 Q697.7412,345.5928 698.144,346.2202 Q698.5469,346.8477 699.3379,346.8477 Q699.709,346.8477 700.0581,346.689 Q700.4072,346.5303 700.7783,346.1885 Z "/><text fill="#19273C" font-family="Open Sans" font-size="10" lengthAdjust="spacingAndGlyphs" textLength="38" x="717" y="348.3794">Registry</text><line style="stroke: #E3ECEC; stroke-width: 1.5;" x1="509.25" x2="935.25" y1="358.5" y2="358.5"/><line style="stroke: #E3ECEC; stroke-width: 1.5;" x1="509.25" x2="935.25" y1="366.5" y2="366.5"/><ellipse cx="518.25" cy="378.8091" fill="#84BE84" rx="2" ry="2" style="stroke: #038048; stroke-width: 1.0;"/><text fill="#19273C" font-family="Open Sans" font-size="10" lengthAdjust="spacingAndGlyphs" textLength="226" x="526.25" y="381.1885">Promise getAllRegistries(SecurityContext,string)</text><ellipse cx="518.25" cy="392.4272" fill="#84BE84" rx="2" ry="2" style="stroke: #038048; stroke-width: 1.0;"/><text fill="#19273C" font-family="Open Sans" font-size="10" lengthAdjust="spacingAndGlyphs" textLength="234" x="526.25" y="394.8066">Promise getRegistry(SecurityContext,string,string)</text><ellipse cx="518.25" cy="406.0454" fill="#84BE84" rx="2" ry="2" style="stroke: #038048; stroke-width: 1.0;"/><text fill="#19273C" font-family="Open Sans" font-size="10" lengthAdjust="spacingAndGlyphs" textLength="247" x="526.25" y="408.4248">Promise existsRegistry(SecurityContext,string,string)</text><ellipse cx="518.25" cy="419.6636" fill="#84BE84" rx="2" ry="2" style="stroke: #038048; stroke-width: 1.0;"/><text fill="#19273C" font-family="Open Sans" font-size="10" lengthAdjust="spacingAndGlyphs" textLength="266" x="526.25" y="422.043">Promise addRegistry(SecurityContext,string,string,string)</text><ellipse cx="518.25" cy="433.2817" fill="#84BE84" rx="2" ry="2" style="stroke: #038048; stroke-width: 1.0;"/><text fill="#19273C" font-family="Open Sans" font-size="10" lengthAdjust="spacingAndGlyphs" textLength="404" x="526.25" y="435.6611">void constructor(string,string,string,SecurityContext,ModelManager,Factory,Serializer)</text><ellipse cx="518.25" cy="446.8999" fill="#84BE84" rx="2" ry="2" style="stroke: #038048; stroke-width: 1.0;"/><text fill="#19273C" font-family="Open Sans" font-size="10" lengthAdjust="spacingAndGlyphs" textLength="128" x="526.25" y="449.2793">Promise addAll(Resource[])</text><ellipse cx="518.25" cy="460.5181" fill="#84BE84" rx="2" ry="2" style="stroke: #038048; stroke-width: 1.0;"/><text fill="#19273C" font-family="Open Sans" font-size="10" lengthAdjust="spacingAndGlyphs" textLength="110" x="526.25" y="462.8975">Promise add(Resource)</text><ellipse cx="518.25" cy="474.1362" fill="#84BE84" rx="2" ry="2" style="stroke: #038048; stroke-width: 1.0;"/><text fill="#19273C" font-family="Open Sans" font-size="10" lengthAdjust="spacingAndGlyphs" textLength="144" x="526.25" y="476.5156">Promise updateAll(Resource[])</text><ellipse cx="518.25" cy="487.7544" fill="#84BE84" rx="2" ry="2" style="stroke: #038048; stroke-width: 1.0;"/><text fill="#19273C" font-family="Open Sans" font-size="10" lengthAdjust="spacingAndGlyphs" textLength="126" x="526.25" y="490.1338">Promise update(Resource)</text><ellipse cx="518.25" cy="501.3726" fill="#84BE84" rx="2" ry="2" style="stroke: #038048; stroke-width: 1.0;"/><text fill="#19273C" font-family="Open Sans" font-size="10" lengthAdjust="spacingAndGlyphs" textLength="96" x="526.25" y="503.752">Promise removeAll()</text><ellipse cx="518.25" cy="514.9907" fill="#84BE84" rx="2" ry="2" style="stroke: #038048; stroke-width: 1.0;"/><text fill="#19273C" font-family="Open Sans" font-size="10" lengthAdjust="spacingAndGlyphs" textLength="84" x="526.25" y="517.3701">Promise remove()</text><ellipse cx="518.25" cy="528.6089" fill="#84BE84" rx="2" ry="2" style="stroke: #038048; stroke-width: 1.0;"/><text fill="#19273C" font-family="Open Sans" font-size="10" lengthAdjust="spacingAndGlyphs" textLength="75" x="526.25" y="530.9883">Promise getAll()</text><ellipse cx="518.25" cy="542.2271" fill="#84BE84" rx="2" ry="2" style="stroke: #038048; stroke-width: 1.0;"/><text fill="#19273C" font-family="Open Sans" font-size="10" lengthAdjust="spacingAndGlyphs" textLength="90" x="526.25" y="544.6064">Promise get(string)</text><ellipse cx="518.25" cy="555.8452" fill="#84BE84" rx="2" ry="2" style="stroke: #038048; stroke-width: 1.0;"/><text fill="#19273C" font-family="Open Sans" font-size="10" lengthAdjust="spacingAndGlyphs" textLength="103" x="526.25" y="558.2246">Promise exists(string)</text><ellipse cx="518.25" cy="569.4634" fill="#84BE84" rx="2" ry="2" style="stroke: #038048; stroke-width: 1.0;"/><text fill="#19273C" font-family="Open Sans" font-size="10" lengthAdjust="spacingAndGlyphs" textLength="93" x="526.25" y="571.8428">Promise find(string)</text><ellipse cx="518.25" cy="583.0815" fill="#84BE84" rx="2" ry="2" style="stroke: #038048; stroke-width: 1.0;"/><text fill="#19273C" font-family="Open Sans" font-size="10" lengthAdjust="spacingAndGlyphs" textLength="102" x="526.25" y="585.4609">Promise query(string)</text><ellipse cx="518.25" cy="596.6997" fill="#84BE84" rx="2" ry="2" style="stroke: #038048; stroke-width: 1.0;"/><text fill="#19273C" font-family="Open Sans" font-size="10" lengthAdjust="spacingAndGlyphs" textLength="95" x="526.25" y="599.0791">Promise resolveAll()</text><ellipse cx="518.25" cy="610.3179" fill="#84BE84" rx="2" ry="2" style="stroke: #038048; stroke-width: 1.0;"/><text fill="#19273C" font-family="Open Sans" font-size="10" lengthAdjust="spacingAndGlyphs" textLength="110" x="526.25" y="612.6973">Promise resolve(string)</text><!--class AssetRegistry--><rect fill="#F8FAFA" height="112.0908" rx="1" ry="1" style="stroke: #E3ECEC; stroke-width: 1.5;" width="445" x="6" y="83"/><ellipse cx="192.75" cy="97" fill="#FFFFFF" rx="9" ry="9" style="stroke: #E3ECEC; stroke-width: 1.0;"/><path d="M194.0283,100.29 Q193.6865,100.4658 193.3105,100.5537 Q192.9346,100.6416 192.5195,100.6416 Q191.0449,100.6416 190.2686,99.6699 Q189.4922,98.6982 189.4922,96.8623 Q189.4922,95.0215 190.2686,94.0498 Q191.0449,93.0781 192.5195,93.0781 Q192.9346,93.0781 193.3154,93.166 Q193.6963,93.2539 194.0283,93.4297 L194.0283,95.0313 Q193.6572,94.6895 193.3081,94.5308 Q192.959,94.3721 192.5879,94.3721 Q191.7969,94.3721 191.394,94.9995 Q190.9912,95.627 190.9912,96.8623 Q190.9912,98.0928 191.394,98.7202 Q191.7969,99.3477 192.5879,99.3477 Q192.959,99.3477 193.3081,99.189 Q193.6572,99.0303 194.0283,98.6885 Z "/><text fill="#19273C" font-family="Open Sans" font-size="10" lengthAdjust="spacingAndGlyphs" textLength="64" x="210.25" y="100.8794">AssetRegistry</text><line style="stroke: #E3ECEC; stroke-width: 1.5;" x1="7" x2="450" y1="111" y2="111"/><line style="stroke: #E3ECEC; stroke-width: 1.5;" x1="7" x2="450" y1="119" y2="119"/><ellipse cx="16" cy="131.3091" fill="#84BE84" rx="2" ry="2" style="stroke: #038048; stroke-width: 1.0;"/><text fill="#19273C" font-family="Open Sans" font-size="10" lengthAdjust="spacingAndGlyphs" textLength="381" x="24" y="133.6885">Promise getAllAssetRegistries(SecurityContext,ModelManager,Factory,Serializer)</text><ellipse cx="16" cy="144.9272" fill="#84BE84" rx="2" ry="2" style="stroke: #038048; stroke-width: 1.0;"/><text fill="#19273C" font-family="Open Sans" font-size="10" lengthAdjust="spacingAndGlyphs" textLength="389" x="24" y="147.3066">Promise getAssetRegistry(SecurityContext,string,ModelManager,Factory,Serializer)</text><ellipse cx="16" cy="158.5454" fill="#84BE84" rx="2" ry="2" style="stroke: #038048; stroke-width: 1.0;"/><text fill="#19273C" font-family="Open Sans" font-size="10" lengthAdjust="spacingAndGlyphs" textLength="402" x="24" y="160.9248">Promise existsAssetRegistry(SecurityContext,string,ModelManager,Factory,Serializer)</text><ellipse cx="16" cy="172.1636" fill="#84BE84" rx="2" ry="2" style="stroke: #038048; stroke-width: 1.0;"/><text fill="#19273C" font-family="Open Sans" font-size="10" lengthAdjust="spacingAndGlyphs" textLength="421" x="24" y="174.543">Promise addAssetRegistry(SecurityContext,string,string,ModelManager,Factory,Serializer)</text><ellipse cx="16" cy="185.7817" fill="#84BE84" rx="2" ry="2" style="stroke: #038048; stroke-width: 1.0;"/><text fill="#19273C" font-family="Open Sans" font-size="10" lengthAdjust="spacingAndGlyphs" textLength="375" x="24" y="188.1611">void constructor(string,string,SecurityContext,ModelManager,Factory,Serializer)</text><!--class ParticipantRegistry--><rect fill="#F8FAFA" height="98.4727" rx="1" ry="1" style="stroke: #E3ECEC; stroke-width: 1.5;" width="472" x="486.25" y="90"/><ellipse cx="673" cy="104" fill="#FFFFFF" rx="9" ry="9" style="stroke: #E3ECEC; stroke-width: 1.0;"/><path d="M674.2783,107.29 Q673.9365,107.4658 673.5605,107.5537 Q673.1846,107.6416 672.7695,107.6416 Q671.2949,107.6416 670.5186,106.6699 Q669.7422,105.6982 669.7422,103.8623 Q669.7422,102.0215 670.5186,101.0498 Q671.2949,100.0781 672.7695,100.0781 Q673.1846,100.0781 673.5654,100.166 Q673.9463,100.2539 674.2783,100.4297 L674.2783,102.0313 Q673.9072,101.6895 673.5581,101.5308 Q673.209,101.3721 672.8379,101.3721 Q672.0469,101.3721 671.644,101.9995 Q671.2412,102.627 671.2412,103.8623 Q671.2412,105.0928 671.644,105.7202 Q672.0469,106.3477 672.8379,106.3477 Q673.209,106.3477 673.5581,106.189 Q673.9072,106.0303 674.2783,105.6885 Z "/><text fill="#19273C" font-family="Open Sans" font-size="10" lengthAdjust="spacingAndGlyphs" textLength="91" x="690.5" y="107.8794">ParticipantRegistry</text><line style="stroke: #E3ECEC; stroke-width: 1.5;" x1="487.25" x2="957.25" y1="118" y2="118"/><line style="stroke: #E3ECEC; stroke-width: 1.5;" x1="487.25" x2="957.25" y1="126" y2="126"/><ellipse cx="496.25" cy="138.3091" fill="#84BE84" rx="2" ry="2" style="stroke: #038048; stroke-width: 1.0;"/><text fill="#19273C" font-family="Open Sans" font-size="10" lengthAdjust="spacingAndGlyphs" textLength="408" x="504.25" y="140.6885">Promise getAllParticipantRegistries(SecurityContext,ModelManager,Factory,Serializer)</text><ellipse cx="496.25" cy="151.9272" fill="#84BE84" rx="2" ry="2" style="stroke: #038048; stroke-width: 1.0;"/><text fill="#19273C" font-family="Open Sans" font-size="10" lengthAdjust="spacingAndGlyphs" textLength="416" x="504.25" y="154.3066">Promise getParticipantRegistry(SecurityContext,string,ModelManager,Factory,Serializer)</text><ellipse cx="496.25" cy="165.5454" fill="#84BE84" rx="2" ry="2" style="stroke: #038048; stroke-width: 1.0;"/><text fill="#19273C" font-family="Open Sans" font-size="10" lengthAdjust="spacingAndGlyphs" textLength="448" x="504.25" y="167.9248">Promise addParticipantRegistry(SecurityContext,string,string,ModelManager,Factory,Serializer)</text><ellipse cx="496.25" cy="179.1636" fill="#84BE84" rx="2" ry="2" style="stroke: #038048; stroke-width: 1.0;"/><text fill="#19273C" font-family="Open Sans" font-size="10" lengthAdjust="spacingAndGlyphs" textLength="375" x="504.25" y="181.543">void constructor(string,string,SecurityContext,ModelManager,Factory,Serializer)</text><!--class TransactionRegistry--><rect fill="#F8FAFA" height="84.8545" rx="1" ry="1" style="stroke: #E3ECEC; stroke-width: 1.5;" width="476" x="993.25" y="96.5"/><ellipse cx="1180" cy="110.5" fill="#FFFFFF" rx="9" ry="9" style="stroke: #E3ECEC; stroke-width: 1.0;"/><path d="M1181.2783,113.79 Q1180.9365,113.9658 1180.5605,114.0537 Q1180.1846,114.1416 1179.7695,114.1416 Q1178.2949,114.1416 1177.5186,113.1699 Q1176.7422,112.1982 1176.7422,110.3623 Q1176.7422,108.5215 1177.5186,107.5498 Q1178.2949,106.5781 1179.7695,106.5781 Q1180.1846,106.5781 1180.5654,106.666 Q1180.9463,106.7539 1181.2783,106.9297 L1181.2783,108.5313 Q1180.9072,108.1895 1180.5581,108.0308 Q1180.209,107.8721 1179.8379,107.8721 Q1179.0469,107.8721 1178.644,108.4995 Q1178.2412,109.127 1178.2412,110.3623 Q1178.2412,111.5928 1178.644,112.2202 Q1179.0469,112.8477 1179.8379,112.8477 Q1180.209,112.8477 1180.5581,112.689 Q1180.9072,112.5303 1181.2783,112.1885 Z "/><text fill="#19273C" font-family="Open Sans" font-size="10" lengthAdjust="spacingAndGlyphs" textLength="95" x="1197.5" y="114.3794">TransactionRegistry</text><line style="stroke: #E3ECEC; stroke-width: 1.5;" x1="994.25" x2="1468.25" y1="124.5" y2="124.5"/><line style="stroke: #E3ECEC; stroke-width: 1.5;" x1="994.25" x2="1468.25" y1="132.5" y2="132.5"/><ellipse cx="1003.25" cy="144.8091" fill="#84BE84" rx="2" ry="2" style="stroke: #038048; stroke-width: 1.0;"/><text fill="#19273C" font-family="Open Sans" font-size="10" lengthAdjust="spacingAndGlyphs" textLength="412" x="1011.25" y="147.1885">Promise getAllTransactionRegistries(SecurityContext,ModelManager,Factory,Serializer)</text><ellipse cx="1003.25" cy="158.4272" fill="#84BE84" rx="2" ry="2" style="stroke: #038048; stroke-width: 1.0;"/><text fill="#19273C" font-family="Open Sans" font-size="10" lengthAdjust="spacingAndGlyphs" textLength="420" x="1011.25" y="160.8066">Promise getTransactionRegistry(SecurityContext,string,ModelManager,Factory,Serializer)</text><ellipse cx="1003.25" cy="172.0454" fill="#84BE84" rx="2" ry="2" style="stroke: #038048; stroke-width: 1.0;"/><text fill="#19273C" font-family="Open Sans" font-size="10" lengthAdjust="spacingAndGlyphs" textLength="452" x="1011.25" y="174.4248">Promise addTransactionRegistry(SecurityContext,string,string,ModelManager,Factory,Serializer)</text><!--class BusinessNetworkConnection--><rect fill="#F8FAFA" height="261.8906" rx="1" ry="1" style="stroke: #E3ECEC; stroke-width: 1.5;" width="274" x="1504.25" y="8"/><ellipse cx="1569" cy="22" fill="#FFFFFF" rx="9" ry="9" style="stroke: #E3ECEC; stroke-width: 1.0;"/><path d="M1570.2783,25.29 Q1569.9365,25.4658 1569.5605,25.5537 Q1569.1846,25.6416 1568.7695,25.6416 Q1567.2949,25.6416 1566.5186,24.6699 Q1565.7422,23.6982 1565.7422,21.8623 Q1565.7422,20.0215 1566.5186,19.0498 Q1567.2949,18.0781 1568.7695,18.0781 Q1569.1846,18.0781 1569.5654,18.166 Q1569.9463,18.2539 1570.2783,18.4297 L1570.2783,20.0313 Q1569.9072,19.6895 1569.5581,19.5308 Q1569.209,19.3721 1568.8379,19.3721 Q1568.0469,19.3721 1567.644,19.9995 Q1567.2412,20.627 1567.2412,21.8623 Q1567.2412,23.0928 1567.644,23.7202 Q1568.0469,24.3477 1568.8379,24.3477 Q1569.209,24.3477 1569.5581,24.189 Q1569.9072,24.0303 1570.2783,23.6885 Z "/><text fill="#19273C" font-family="Open Sans" font-size="10" lengthAdjust="spacingAndGlyphs" textLength="137" x="1586.5" y="25.8794">BusinessNetworkConnection</text><line style="stroke: #E3ECEC; stroke-width: 1.5;" x1="1505.25" x2="1777.25" y1="36" y2="36"/><line style="stroke: #E3ECEC; stroke-width: 1.5;" x1="1505.25" x2="1777.25" y1="44" y2="44"/><ellipse cx="1514.25" cy="56.3091" fill="#84BE84" rx="2" ry="2" style="stroke: #038048; stroke-width: 1.0;"/><text fill="#19273C" font-family="Open Sans" font-size="10" lengthAdjust="spacingAndGlyphs" textLength="191" x="1522.25" y="58.6885">void constructor(Object,Object,boolean)</text><ellipse cx="1514.25" cy="69.9272" fill="#84BE84" rx="2" ry="2" style="stroke: #038048; stroke-width: 1.0;"/><text fill="#19273C" font-family="Open Sans" font-size="10" lengthAdjust="spacingAndGlyphs" textLength="237" x="1522.25" y="72.3066">BusinessNetworkDefinition getBusinessNetwork()</text><ellipse cx="1514.25" cy="83.5454" fill="#84BE84" rx="2" ry="2" style="stroke: #038048; stroke-width: 1.0;"/><text fill="#19273C" font-family="Open Sans" font-size="10" lengthAdjust="spacingAndGlyphs" textLength="223" x="1522.25" y="85.9248">Promise getAllAssetRegistries(SecurityContext)</text><ellipse cx="1514.25" cy="97.1636" fill="#84BE84" rx="2" ry="2" style="stroke: #038048; stroke-width: 1.0;"/><text fill="#19273C" font-family="Open Sans" font-size="10" lengthAdjust="spacingAndGlyphs" textLength="154" x="1522.25" y="99.543">Promise getAssetRegistry(string)</text><ellipse cx="1514.25" cy="110.7817" fill="#84BE84" rx="2" ry="2" style="stroke: #038048; stroke-width: 1.0;"/><text fill="#19273C" font-family="Open Sans" font-size="10" lengthAdjust="spacingAndGlyphs" textLength="167" x="1522.25" y="113.1611">Promise existsAssetRegistry(string)</text><ellipse cx="1514.25" cy="124.3999" fill="#84BE84" rx="2" ry="2" style="stroke: #038048; stroke-width: 1.0;"/><text fill="#19273C" font-family="Open Sans" font-size="10" lengthAdjust="spacingAndGlyphs" textLength="186" x="1522.25" y="126.7793">Promise addAssetRegistry(string,string)</text><ellipse cx="1514.25" cy="138.0181" fill="#84BE84" rx="2" ry="2" style="stroke: #038048; stroke-width: 1.0;"/><text fill="#19273C" font-family="Open Sans" font-size="10" lengthAdjust="spacingAndGlyphs" textLength="250" x="1522.25" y="140.3975">Promise getAllParticipantRegistries(SecurityContext)</text><ellipse cx="1514.25" cy="151.6362" fill="#84BE84" rx="2" ry="2" style="stroke: #038048; stroke-width: 1.0;"/><text fill="#19273C" font-family="Open Sans" font-size="10" lengthAdjust="spacingAndGlyphs" textLength="181" x="1522.25" y="154.0156">Promise getParticipantRegistry(string)</text><ellipse cx="1514.25" cy="165.2544" fill="#84BE84" rx="2" ry="2" style="stroke: #038048; stroke-width: 1.0;"/><text fill="#19273C" font-family="Open Sans" font-size="10" lengthAdjust="spacingAndGlyphs" textLength="213" x="1522.25" y="167.6338">Promise addParticipantRegistry(string,string)</text><ellipse cx="1514.25" cy="178.8726" fill="#84BE84" rx="2" ry="2" style="stroke: #038048; stroke-width: 1.0;"/><text fill="#19273C" font-family="Open Sans" font-size="10" lengthAdjust="spacingAndGlyphs" textLength="158" x="1522.25" y="181.252">Promise getTransactionRegistry()</text><ellipse cx="1514.25" cy="192.4907" fill="#84BE84" rx="2" ry="2" style="stroke: #038048; stroke-width: 1.0;"/><text fill="#19273C" font-family="Open Sans" font-size="10" lengthAdjust="spacingAndGlyphs" textLength="200" x="1522.25" y="194.8701">Promise connect(string,string,string,string)</text><ellipse cx="1514.25" cy="206.1089" fill="#84BE84" rx="2" ry="2" style="stroke: #038048; stroke-width: 1.0;"/><text fill="#19273C" font-family="Open Sans" font-size="10" lengthAdjust="spacingAndGlyphs" textLength="100" x="1522.25" y="208.4883">Promise disconnect()</text><ellipse cx="1514.25" cy="219.7271" fill="#84BE84" rx="2" ry="2" style="stroke: #038048; stroke-width: 1.0;"/><text fill="#19273C" font-family="Open Sans" font-size="10" lengthAdjust="spacingAndGlyphs" textLength="182" x="1522.25" y="222.1064">Promise submitTransaction(Resource)</text><ellipse cx="1514.25" cy="233.3452" fill="#84BE84" rx="2" ry="2" style="stroke: #038048; stroke-width: 1.0;"/><text fill="#19273C" font-family="Open Sans" font-size="10" lengthAdjust="spacingAndGlyphs" textLength="68" x="1522.25" y="235.7246">Promise ping()</text><ellipse cx="1514.25" cy="246.9634" fill="#84BE84" rx="2" ry="2" style="stroke: #038048; stroke-width: 1.0;"/><text fill="#19273C" font-family="Open Sans" font-size="10" lengthAdjust="spacingAndGlyphs" textLength="210" x="1522.25" y="249.3428">Promise issueIdentity(string,object,boolean)</text><ellipse cx="1514.25" cy="260.5815" fill="#84BE84" rx="2" ry="2" style="stroke: #038048; stroke-width: 1.0;"/><text fill="#19273C" font-family="Open Sans" font-size="10" lengthAdjust="spacingAndGlyphs" textLength="144" x="1522.25" y="262.9609">Promise revokeIdentity(string)</text><!--class EventEmitter--><rect fill="#F8FAFA" height="44" rx="1" ry="1" style="stroke: #E3ECEC; stroke-width: 1.5;" width="91" x="1596" y="453"/><ellipse cx="1609" cy="467" fill="#FFFFFF" rx="9" ry="9" style="stroke: #E3ECEC; stroke-width: 1.0;"/><path d="M1610.2783,470.29 Q1609.9365,470.4658 1609.5605,470.5537 Q1609.1846,470.6416 1608.7695,470.6416 Q1607.2949,470.6416 1606.5186,469.6699 Q1605.7422,468.6982 1605.7422,466.8623 Q1605.7422,465.0215 1606.5186,464.0498 Q1607.2949,463.0781 1608.7695,463.0781 Q1609.1846,463.0781 1609.5654,463.166 Q1609.9463,463.2539 1610.2783,463.4297 L1610.2783,465.0313 Q1609.9072,464.6895 1609.5581,464.5308 Q1609.209,464.3721 1608.8379,464.3721 Q1608.0469,464.3721 1607.644,464.9995 Q1607.2412,465.627 1607.2412,466.8623 Q1607.2412,468.0928 1607.644,468.7202 Q1608.0469,469.3477 1608.8379,469.3477 Q1609.209,469.3477 1609.5581,469.189 Q1609.9072,469.0303 1610.2783,468.6885 Z "/><text fill="#19273C" font-family="Open Sans" font-size="10" lengthAdjust="spacingAndGlyphs" textLength="63" x="1621" y="470.8794">EventEmitter</text><line style="stroke: #E3ECEC; stroke-width: 1.5;" x1="1597" x2="1686" y1="481" y2="481"/><line style="stroke: #E3ECEC; stroke-width: 1.5;" x1="1597" x2="1686" y1="489" y2="489"/><path d="M309.824,195.153 C360.224,229.23 427.632,274.805 493.325,319.22 " fill="none" style="stroke: #3C6DF0; stroke-width: 1.0;"/><polygon fill="none" points="497.33,313.479,509.978,330.48,489.489,325.077,497.33,313.479" style="stroke: #3C6DF0; stroke-width: 1.0;"/><path d="M722.25,188.21 C722.25,220.712 722.25,265.66 722.25,310.294 " fill="none" style="stroke: #3C6DF0; stroke-width: 1.0;"/><polygon fill="none" points="729.25,310.39,722.25,330.39,715.25,310.39,729.25,310.39" style="stroke: #3C6DF0; stroke-width: 1.0;"/><path d="M1167.81,181.626 C1113.51,217.257 1031.87,270.833 953.238,322.428 " fill="none" style="stroke: #3C6DF0; stroke-width: 1.0;"/><polygon fill="none" points="957.078,328.281,936.516,333.401,949.397,316.576,957.078,328.281" style="stroke: #3C6DF0; stroke-width: 1.0;"/><path d="M1641.25,270.09 C1641.25,327.911 1641.25,391.946 1641.25,432.553 " fill="none" style="stroke: #3C6DF0; stroke-width: 1.0;"/><polygon fill="none" points="1648.25,432.768,1641.25,452.768,1634.25,432.768,1648.25,432.768" style="stroke: #3C6DF0; stroke-width: 1.0;"/></g></svg>