<?xml version="1.0" encoding="UTF-8" standalone="no"?><svg xmlns="http://www.w3.org/2000/svg" xmlns:xlink="http://www.w3.org/1999/xlink" contentScriptType="application/ecmascript" contentStyleType="text/css" height="552px" preserveAspectRatio="none" style="width:1832px;height:552px;" version="1.1" viewBox="0 0 1832 552" width="1832px" zoomAndPan="magnify"><defs/><g><!--class Registry--><rect fill="#F8FAFA" height="253.5313" rx="1" ry="1" style="stroke: #E3ECEC; stroke-width: 1.5;" width="442" x="525" y="298"/><ellipse cx="722.25" cy="312" fill="#FFFFFF" rx="9" ry="9" style="stroke: #E3ECEC; stroke-width: 1.0;"/><path d="M723.5313,315.2969 Q723.1875,315.4688 722.8125,315.5547 Q722.4375,315.6406 722.0156,315.6406 Q720.5469,315.6406 719.7734,314.6719 Q719,313.7031 719,311.8594 Q719,310.0156 719.7734,309.0469 Q720.5469,308.0781 722.0156,308.0781 Q722.4375,308.0781 722.8203,308.1641 Q723.2031,308.25 723.5313,308.4219 L723.5313,310.0313 Q723.1563,309.6875 722.8047,309.5313 Q722.4531,309.375 722.0938,309.375 Q721.2969,309.375 720.8906,310 Q720.4844,310.625 720.4844,311.8594 Q720.4844,313.0938 720.8906,313.7188 Q721.2969,314.3438 722.0938,314.3438 Q722.4531,314.3438 722.8047,314.1875 Q723.1563,314.0313 723.5313,313.6875 L723.5313,315.2969 Z "/><text fill="#19273C" font-family="Open Sans" font-size="10" lengthAdjust="spacingAndGlyphs" textLength="40" x="739.75" y="315.4619">Registry</text><line style="stroke: #E3ECEC; stroke-width: 1.5;" x1="526" x2="966" y1="326" y2="326"/><line style="stroke: #E3ECEC; stroke-width: 1.5;" x1="526" x2="966" y1="334" y2="334"/><ellipse cx="535" cy="345.3203" fill="#84BE84" rx="2" ry="2" style="stroke: #038048; stroke-width: 1.0;"/><text fill="#19273C" font-family="Open Sans" font-size="10" lengthAdjust="spacingAndGlyphs" textLength="235" x="543" y="347.2822">Promise getAllRegistries(SecurityContext,string)</text><ellipse cx="535" cy="356.9609" fill="#84BE84" rx="2" ry="2" style="stroke: #038048; stroke-width: 1.0;"/><text fill="#19273C" font-family="Open Sans" font-size="10" lengthAdjust="spacingAndGlyphs" textLength="247" x="543" y="358.9229">Promise getRegistry(SecurityContext,string,string)</text><ellipse cx="535" cy="368.6016" fill="#84BE84" rx="2" ry="2" style="stroke: #038048; stroke-width: 1.0;"/><text fill="#19273C" font-family="Open Sans" font-size="10" lengthAdjust="spacingAndGlyphs" textLength="259" x="543" y="370.5635">Promise existsRegistry(SecurityContext,string,string)</text><ellipse cx="535" cy="380.2422" fill="#84BE84" rx="2" ry="2" style="stroke: #038048; stroke-width: 1.0;"/><text fill="#19273C" font-family="Open Sans" font-size="10" lengthAdjust="spacingAndGlyphs" textLength="279" x="543" y="382.2041">Promise addRegistry(SecurityContext,string,string,string)</text><ellipse cx="535" cy="391.8828" fill="#84BE84" rx="2" ry="2" style="stroke: #038048; stroke-width: 1.0;"/><text fill="#19273C" font-family="Open Sans" font-size="10" lengthAdjust="spacingAndGlyphs" textLength="418" x="543" y="393.8447">void constructor(string,string,string,SecurityContext,ModelManager,Factory,Serializer)</text><ellipse cx="535" cy="403.5234" fill="#84BE84" rx="2" ry="2" style="stroke: #038048; stroke-width: 1.0;"/><text fill="#19273C" font-family="Open Sans" font-size="10" lengthAdjust="spacingAndGlyphs" textLength="133" x="543" y="405.4854">Promise addAll(Resource[])</text><ellipse cx="535" cy="415.1641" fill="#84BE84" rx="2" ry="2" style="stroke: #038048; stroke-width: 1.0;"/><text fill="#19273C" font-family="Open Sans" font-size="10" lengthAdjust="spacingAndGlyphs" textLength="114" x="543" y="417.126">Promise add(Resource)</text><ellipse cx="535" cy="426.8047" fill="#84BE84" rx="2" ry="2" style="stroke: #038048; stroke-width: 1.0;"/><text fill="#19273C" font-family="Open Sans" font-size="10" lengthAdjust="spacingAndGlyphs" textLength="149" x="543" y="428.7666">Promise updateAll(Resource[])</text><ellipse cx="535" cy="438.4453" fill="#84BE84" rx="2" ry="2" style="stroke: #038048; stroke-width: 1.0;"/><text fill="#19273C" font-family="Open Sans" font-size="10" lengthAdjust="spacingAndGlyphs" textLength="130" x="543" y="440.4072">Promise update(Resource)</text><ellipse cx="535" cy="450.0859" fill="#84BE84" rx="2" ry="2" style="stroke: #038048; stroke-width: 1.0;"/><text fill="#19273C" font-family="Open Sans" font-size="10" lengthAdjust="spacingAndGlyphs" textLength="100" x="543" y="452.0479">Promise removeAll()</text><ellipse cx="535" cy="461.7266" fill="#84BE84" rx="2" ry="2" style="stroke: #038048; stroke-width: 1.0;"/><text fill="#19273C" font-family="Open Sans" font-size="10" lengthAdjust="spacingAndGlyphs" textLength="89" x="543" y="463.6885">Promise remove()</text><ellipse cx="535" cy="473.3672" fill="#84BE84" rx="2" ry="2" style="stroke: #038048; stroke-width: 1.0;"/><text fill="#19273C" font-family="Open Sans" font-size="10" lengthAdjust="spacingAndGlyphs" textLength="78" x="543" y="475.3291">Promise getAll()</text><ellipse cx="535" cy="485.0078" fill="#84BE84" rx="2" ry="2" style="stroke: #038048; stroke-width: 1.0;"/><text fill="#19273C" font-family="Open Sans" font-size="10" lengthAdjust="spacingAndGlyphs" textLength="94" x="543" y="486.9697">Promise get(string)</text><ellipse cx="535" cy="496.6484" fill="#84BE84" rx="2" ry="2" style="stroke: #038048; stroke-width: 1.0;"/><text fill="#19273C" font-family="Open Sans" font-size="10" lengthAdjust="spacingAndGlyphs" textLength="106" x="543" y="498.6104">Promise exists(string)</text><ellipse cx="535" cy="508.2891" fill="#84BE84" rx="2" ry="2" style="stroke: #038048; stroke-width: 1.0;"/><text fill="#19273C" font-family="Open Sans" font-size="10" lengthAdjust="spacingAndGlyphs" textLength="96" x="543" y="510.251">Promise find(string)</text><ellipse cx="535" cy="519.9297" fill="#84BE84" rx="2" ry="2" style="stroke: #038048; stroke-width: 1.0;"/><text fill="#19273C" font-family="Open Sans" font-size="10" lengthAdjust="spacingAndGlyphs" textLength="106" x="543" y="521.8916">Promise query(string)</text><ellipse cx="535" cy="531.5703" fill="#84BE84" rx="2" ry="2" style="stroke: #038048; stroke-width: 1.0;"/><text fill="#19273C" font-family="Open Sans" font-size="10" lengthAdjust="spacingAndGlyphs" textLength="97" x="543" y="533.5322">Promise resolveAll()</text><ellipse cx="535" cy="543.2109" fill="#84BE84" rx="2" ry="2" style="stroke: #038048; stroke-width: 1.0;"/><text fill="#19273C" font-family="Open Sans" font-size="10" lengthAdjust="spacingAndGlyphs" textLength="113" x="543" y="545.1729">Promise resolve(string)</text><!--class AssetRegistry--><rect fill="#F8FAFA" height="102.2031" rx="1" ry="1" style="stroke: #E3ECEC; stroke-width: 1.5;" width="462" x="6" y="72"/><ellipse cx="199.75" cy="86" fill="#FFFFFF" rx="9" ry="9" style="stroke: #E3ECEC; stroke-width: 1.0;"/><path d="M201.0313,89.2969 Q200.6875,89.4688 200.3125,89.5547 Q199.9375,89.6406 199.5156,89.6406 Q198.0469,89.6406 197.2734,88.6719 Q196.5,87.7031 196.5,85.8594 Q196.5,84.0156 197.2734,83.0469 Q198.0469,82.0781 199.5156,82.0781 Q199.9375,82.0781 200.3203,82.1641 Q200.7031,82.25 201.0313,82.4219 L201.0313,84.0313 Q200.6563,83.6875 200.3047,83.5313 Q199.9531,83.375 199.5938,83.375 Q198.7969,83.375 198.3906,84 Q197.9844,84.625 197.9844,85.8594 Q197.9844,87.0938 198.3906,87.7188 Q198.7969,88.3438 199.5938,88.3438 Q199.9531,88.3438 200.3047,88.1875 Q200.6563,88.0313 201.0313,87.6875 L201.0313,89.2969 Z "/><text fill="#19273C" font-family="Open Sans" font-size="10" lengthAdjust="spacingAndGlyphs" textLength="67" x="217.25" y="89.4619">AssetRegistry</text><line style="stroke: #E3ECEC; stroke-width: 1.5;" x1="7" x2="467" y1="100" y2="100"/><line style="stroke: #E3ECEC; stroke-width: 1.5;" x1="7" x2="467" y1="108" y2="108"/><ellipse cx="16" cy="119.3203" fill="#84BE84" rx="2" ry="2" style="stroke: #038048; stroke-width: 1.0;"/><text fill="#19273C" font-family="Open Sans" font-size="10" lengthAdjust="spacingAndGlyphs" textLength="394" x="24" y="121.2822">Promise getAllAssetRegistries(SecurityContext,ModelManager,Factory,Serializer)</text><ellipse cx="16" cy="130.9609" fill="#84BE84" rx="2" ry="2" style="stroke: #038048; stroke-width: 1.0;"/><text fill="#19273C" font-family="Open Sans" font-size="10" lengthAdjust="spacingAndGlyphs" textLength="406" x="24" y="132.9229">Promise getAssetRegistry(SecurityContext,string,ModelManager,Factory,Serializer)</text><ellipse cx="16" cy="142.6016" fill="#84BE84" rx="2" ry="2" style="stroke: #038048; stroke-width: 1.0;"/><text fill="#19273C" font-family="Open Sans" font-size="10" lengthAdjust="spacingAndGlyphs" textLength="418" x="24" y="144.5635">Promise existsAssetRegistry(SecurityContext,string,ModelManager,Factory,Serializer)</text><ellipse cx="16" cy="154.2422" fill="#84BE84" rx="2" ry="2" style="stroke: #038048; stroke-width: 1.0;"/><text fill="#19273C" font-family="Open Sans" font-size="10" lengthAdjust="spacingAndGlyphs" textLength="438" x="24" y="156.2041">Promise addAssetRegistry(SecurityContext,string,string,ModelManager,Factory,Serializer)</text><ellipse cx="16" cy="165.8828" fill="#84BE84" rx="2" ry="2" style="stroke: #038048; stroke-width: 1.0;"/><text fill="#19273C" font-family="Open Sans" font-size="10" lengthAdjust="spacingAndGlyphs" textLength="388" x="24" y="167.8447">void constructor(string,string,SecurityContext,ModelManager,Factory,Serializer)</text><!--class ParticipantRegistry--><rect fill="#F8FAFA" height="90.5625" rx="1" ry="1" style="stroke: #E3ECEC; stroke-width: 1.5;" width="487" x="502.5" y="77.5"/><ellipse cx="696.25" cy="91.5" fill="#FFFFFF" rx="9" ry="9" style="stroke: #E3ECEC; stroke-width: 1.0;"/><path d="M697.5313,94.7969 Q697.1875,94.9688 696.8125,95.0547 Q696.4375,95.1406 696.0156,95.1406 Q694.5469,95.1406 693.7734,94.1719 Q693,93.2031 693,91.3594 Q693,89.5156 693.7734,88.5469 Q694.5469,87.5781 696.0156,87.5781 Q696.4375,87.5781 696.8203,87.6641 Q697.2031,87.75 697.5313,87.9219 L697.5313,89.5313 Q697.1563,89.1875 696.8047,89.0313 Q696.4531,88.875 696.0938,88.875 Q695.2969,88.875 694.8906,89.5 Q694.4844,90.125 694.4844,91.3594 Q694.4844,92.5938 694.8906,93.2188 Q695.2969,93.8438 696.0938,93.8438 Q696.4531,93.8438 696.8047,93.6875 Q697.1563,93.5313 697.5313,93.1875 L697.5313,94.7969 Z "/><text fill="#19273C" font-family="Open Sans" font-size="10" lengthAdjust="spacingAndGlyphs" textLength="92" x="713.75" y="94.9619">ParticipantRegistry</text><line style="stroke: #E3ECEC; stroke-width: 1.5;" x1="503.5" x2="988.5" y1="105.5" y2="105.5"/><line style="stroke: #E3ECEC; stroke-width: 1.5;" x1="503.5" x2="988.5" y1="113.5" y2="113.5"/><ellipse cx="512.5" cy="124.8203" fill="#84BE84" rx="2" ry="2" style="stroke: #038048; stroke-width: 1.0;"/><text fill="#19273C" font-family="Open Sans" font-size="10" lengthAdjust="spacingAndGlyphs" textLength="419" x="520.5" y="126.7822">Promise getAllParticipantRegistries(SecurityContext,ModelManager,Factory,Serializer)</text><ellipse cx="512.5" cy="136.4609" fill="#84BE84" rx="2" ry="2" style="stroke: #038048; stroke-width: 1.0;"/><text fill="#19273C" font-family="Open Sans" font-size="10" lengthAdjust="spacingAndGlyphs" textLength="431" x="520.5" y="138.4229">Promise getParticipantRegistry(SecurityContext,string,ModelManager,Factory,Serializer)</text><ellipse cx="512.5" cy="148.1016" fill="#84BE84" rx="2" ry="2" style="stroke: #038048; stroke-width: 1.0;"/><text fill="#19273C" font-family="Open Sans" font-size="10" lengthAdjust="spacingAndGlyphs" textLength="463" x="520.5" y="150.0635">Promise addParticipantRegistry(SecurityContext,string,string,ModelManager,Factory,Serializer)</text><ellipse cx="512.5" cy="159.7422" fill="#84BE84" rx="2" ry="2" style="stroke: #038048; stroke-width: 1.0;"/><text fill="#19273C" font-family="Open Sans" font-size="10" lengthAdjust="spacingAndGlyphs" textLength="388" x="520.5" y="161.7041">void constructor(string,string,SecurityContext,ModelManager,Factory,Serializer)</text><!--class TransactionRegistry--><rect fill="#F8FAFA" height="78.9219" rx="1" ry="1" style="stroke: #E3ECEC; stroke-width: 1.5;" width="490" x="1025" y="83.5"/><ellipse cx="1218.75" cy="97.5" fill="#FFFFFF" rx="9" ry="9" style="stroke: #E3ECEC; stroke-width: 1.0;"/><path d="M1220.0313,100.7969 Q1219.6875,100.9688 1219.3125,101.0547 Q1218.9375,101.1406 1218.5156,101.1406 Q1217.0469,101.1406 1216.2734,100.1719 Q1215.5,99.2031 1215.5,97.3594 Q1215.5,95.5156 1216.2734,94.5469 Q1217.0469,93.5781 1218.5156,93.5781 Q1218.9375,93.5781 1219.3203,93.6641 Q1219.7031,93.75 1220.0313,93.9219 L1220.0313,95.5313 Q1219.6563,95.1875 1219.3047,95.0313 Q1218.9531,94.875 1218.5938,94.875 Q1217.7969,94.875 1217.3906,95.5 Q1216.9844,96.125 1216.9844,97.3594 Q1216.9844,98.5938 1217.3906,99.2188 Q1217.7969,99.8438 1218.5938,99.8438 Q1218.9531,99.8438 1219.3047,99.6875 Q1219.6563,99.5313 1220.0313,99.1875 L1220.0313,100.7969 Z "/><text fill="#19273C" font-family="Open Sans" font-size="10" lengthAdjust="spacingAndGlyphs" textLength="95" x="1236.25" y="100.9619">TransactionRegistry</text><line style="stroke: #E3ECEC; stroke-width: 1.5;" x1="1026" x2="1514" y1="111.5" y2="111.5"/><line style="stroke: #E3ECEC; stroke-width: 1.5;" x1="1026" x2="1514" y1="119.5" y2="119.5"/><ellipse cx="1035" cy="130.8203" fill="#84BE84" rx="2" ry="2" style="stroke: #038048; stroke-width: 1.0;"/><text fill="#19273C" font-family="Open Sans" font-size="10" lengthAdjust="spacingAndGlyphs" textLength="422" x="1043" y="132.7822">Promise getAllTransactionRegistries(SecurityContext,ModelManager,Factory,Serializer)</text><ellipse cx="1035" cy="142.4609" fill="#84BE84" rx="2" ry="2" style="stroke: #038048; stroke-width: 1.0;"/><text fill="#19273C" font-family="Open Sans" font-size="10" lengthAdjust="spacingAndGlyphs" textLength="434" x="1043" y="144.4229">Promise getTransactionRegistry(SecurityContext,string,ModelManager,Factory,Serializer)</text><ellipse cx="1035" cy="154.1016" fill="#84BE84" rx="2" ry="2" style="stroke: #038048; stroke-width: 1.0;"/><text fill="#19273C" font-family="Open Sans" font-size="10" lengthAdjust="spacingAndGlyphs" textLength="466" x="1043" y="156.0635">Promise addTransactionRegistry(SecurityContext,string,string,ModelManager,Factory,Serializer)</text><!--class BusinessNetworkConnection--><rect fill="#F8FAFA" height="230.25" rx="1" ry="1" style="stroke: #E3ECEC; stroke-width: 1.5;" width="281" x="1550.5" y="8"/><ellipse cx="1618.25" cy="22" fill="#FFFFFF" rx="9" ry="9" style="stroke: #E3ECEC; stroke-width: 1.0;"/><path d="M1619.5313,25.2969 Q1619.1875,25.4688 1618.8125,25.5547 Q1618.4375,25.6406 1618.0156,25.6406 Q1616.5469,25.6406 1615.7734,24.6719 Q1615,23.7031 1615,21.8594 Q1615,20.0156 1615.7734,19.0469 Q1616.5469,18.0781 1618.0156,18.0781 Q1618.4375,18.0781 1618.8203,18.1641 Q1619.2031,18.25 1619.5313,18.4219 L1619.5313,20.0313 Q1619.1563,19.6875 1618.8047,19.5313 Q1618.4531,19.375 1618.0938,19.375 Q1617.2969,19.375 1616.8906,20 Q1616.4844,20.625 1616.4844,21.8594 Q1616.4844,23.0938 1616.8906,23.7188 Q1617.2969,24.3438 1618.0938,24.3438 Q1618.4531,24.3438 1618.8047,24.1875 Q1619.1563,24.0313 1619.5313,23.6875 L1619.5313,25.2969 Z "/><text fill="#19273C" font-family="Open Sans" font-size="10" lengthAdjust="spacingAndGlyphs" textLength="138" x="1635.75" y="25.4619">BusinessNetworkConnection</text><line style="stroke: #E3ECEC; stroke-width: 1.5;" x1="1551.5" x2="1830.5" y1="36" y2="36"/><line style="stroke: #E3ECEC; stroke-width: 1.5;" x1="1551.5" x2="1830.5" y1="44" y2="44"/><ellipse cx="1560.5" cy="55.3203" fill="#84BE84" rx="2" ry="2" style="stroke: #038048; stroke-width: 1.0;"/><text fill="#19273C" font-family="Open Sans" font-size="10" lengthAdjust="spacingAndGlyphs" textLength="192" x="1568.5" y="57.2822">void constructor(Object,Object,boolean)</text><ellipse cx="1560.5" cy="66.9609" fill="#84BE84" rx="2" ry="2" style="stroke: #038048; stroke-width: 1.0;"/><text fill="#19273C" font-family="Open Sans" font-size="10" lengthAdjust="spacingAndGlyphs" textLength="239" x="1568.5" y="68.9229">BusinessNetworkDefinition getBusinessNetwork()</text><ellipse cx="1560.5" cy="78.6016" fill="#84BE84" rx="2" ry="2" style="stroke: #038048; stroke-width: 1.0;"/><text fill="#19273C" font-family="Open Sans" font-size="10" lengthAdjust="spacingAndGlyphs" textLength="232" x="1568.5" y="80.5635">Promise getAllAssetRegistries(SecurityContext)</text><ellipse cx="1560.5" cy="90.2422" fill="#84BE84" rx="2" ry="2" style="stroke: #038048; stroke-width: 1.0;"/><text fill="#19273C" font-family="Open Sans" font-size="10" lengthAdjust="spacingAndGlyphs" textLength="161" x="1568.5" y="92.2041">Promise getAssetRegistry(string)</text><ellipse cx="1560.5" cy="101.8828" fill="#84BE84" rx="2" ry="2" style="stroke: #038048; stroke-width: 1.0;"/><text fill="#19273C" font-family="Open Sans" font-size="10" lengthAdjust="spacingAndGlyphs" textLength="173" x="1568.5" y="103.8447">Promise existsAssetRegistry(string)</text><ellipse cx="1560.5" cy="113.5234" fill="#84BE84" rx="2" ry="2" style="stroke: #038048; stroke-width: 1.0;"/><text fill="#19273C" font-family="Open Sans" font-size="10" lengthAdjust="spacingAndGlyphs" textLength="193" x="1568.5" y="115.4854">Promise addAssetRegistry(string,string)</text><ellipse cx="1560.5" cy="125.1641" fill="#84BE84" rx="2" ry="2" style="stroke: #038048; stroke-width: 1.0;"/><text fill="#19273C" font-family="Open Sans" font-size="10" lengthAdjust="spacingAndGlyphs" textLength="257" x="1568.5" y="127.126">Promise getAllParticipantRegistries(SecurityContext)</text><ellipse cx="1560.5" cy="136.8047" fill="#84BE84" rx="2" ry="2" style="stroke: #038048; stroke-width: 1.0;"/><text fill="#19273C" font-family="Open Sans" font-size="10" lengthAdjust="spacingAndGlyphs" textLength="186" x="1568.5" y="138.7666">Promise getParticipantRegistry(string)</text><ellipse cx="1560.5" cy="148.4453" fill="#84BE84" rx="2" ry="2" style="stroke: #038048; stroke-width: 1.0;"/><text fill="#19273C" font-family="Open Sans" font-size="10" lengthAdjust="spacingAndGlyphs" textLength="218" x="1568.5" y="150.4072">Promise addParticipantRegistry(string,string)</text><ellipse cx="1560.5" cy="160.0859" fill="#84BE84" rx="2" ry="2" style="stroke: #038048; stroke-width: 1.0;"/><text fill="#19273C" font-family="Open Sans" font-size="10" lengthAdjust="spacingAndGlyphs" textLength="162" x="1568.5" y="162.0479">Promise getTransactionRegistry()</text><ellipse cx="1560.5" cy="171.7266" fill="#84BE84" rx="2" ry="2" style="stroke: #038048; stroke-width: 1.0;"/><text fill="#19273C" font-family="Open Sans" font-size="10" lengthAdjust="spacingAndGlyphs" textLength="206" x="1568.5" y="173.6885">Promise connect(string,string,string,string)</text><ellipse cx="1560.5" cy="183.3672" fill="#84BE84" rx="2" ry="2" style="stroke: #038048; stroke-width: 1.0;"/><text fill="#19273C" font-family="Open Sans" font-size="10" lengthAdjust="spacingAndGlyphs" textLength="102" x="1568.5" y="185.3291">Promise disconnect()</text><ellipse cx="1560.5" cy="195.0078" fill="#84BE84" rx="2" ry="2" style="stroke: #038048; stroke-width: 1.0;"/><text fill="#19273C" font-family="Open Sans" font-size="10" lengthAdjust="spacingAndGlyphs" textLength="184" x="1568.5" y="196.9697">Promise submitTransaction(Resource)</text><ellipse cx="1560.5" cy="206.6484" fill="#84BE84" rx="2" ry="2" style="stroke: #038048; stroke-width: 1.0;"/><text fill="#19273C" font-family="Open Sans" font-size="10" lengthAdjust="spacingAndGlyphs" textLength="71" x="1568.5" y="208.6104">Promise ping()</text><ellipse cx="1560.5" cy="218.2891" fill="#84BE84" rx="2" ry="2" style="stroke: #038048; stroke-width: 1.0;"/><text fill="#19273C" font-family="Open Sans" font-size="10" lengthAdjust="spacingAndGlyphs" textLength="212" x="1568.5" y="220.251">Promise issueIdentity(string,object,boolean)</text><ellipse cx="1560.5" cy="229.9297" fill="#84BE84" rx="2" ry="2" style="stroke: #038048; stroke-width: 1.0;"/><text fill="#19273C" font-family="Open Sans" font-size="10" lengthAdjust="spacingAndGlyphs" textLength="148" x="1568.5" y="231.8916">Promise revokeIdentity(string)</text><!--class EventEmitter--><rect fill="#F8FAFA" height="44" rx="1" ry="1" style="stroke: #E3ECEC; stroke-width: 1.5;" width="94" x="1644" y="403"/><ellipse cx="1657" cy="417" fill="#FFFFFF" rx="9" ry="9" style="stroke: #E3ECEC; stroke-width: 1.0;"/><path d="M1658.2813,420.2969 Q1657.9375,420.4688 1657.5625,420.5547 Q1657.1875,420.6406 1656.7656,420.6406 Q1655.2969,420.6406 1654.5234,419.6719 Q1653.75,418.7031 1653.75,416.8594 Q1653.75,415.0156 1654.5234,414.0469 Q1655.2969,413.0781 1656.7656,413.0781 Q1657.1875,413.0781 1657.5703,413.1641 Q1657.9531,413.25 1658.2813,413.4219 L1658.2813,415.0313 Q1657.9063,414.6875 1657.5547,414.5313 Q1657.2031,414.375 1656.8438,414.375 Q1656.0469,414.375 1655.6406,415 Q1655.2344,415.625 1655.2344,416.8594 Q1655.2344,418.0938 1655.6406,418.7188 Q1656.0469,419.3438 1656.8438,419.3438 Q1657.2031,419.3438 1657.5547,419.1875 Q1657.9063,419.0313 1658.2813,418.6875 L1658.2813,420.2969 Z "/><text fill="#19273C" font-family="Open Sans" font-size="10" lengthAdjust="spacingAndGlyphs" textLength="66" x="1669" y="420.4619">EventEmitter</text><line style="stroke: #E3ECEC; stroke-width: 1.5;" x1="1645" x2="1737" y1="431" y2="431"/><line style="stroke: #E3ECEC; stroke-width: 1.5;" x1="1645" x2="1737" y1="439" y2="439"/><path d="M321.909,174.044 C374.906,205.281 445.911,247.13 514.645,287.641 " fill="none" style="stroke: #3C6DF0; stroke-width: 1.0;"/><polygon fill="none" points="518.383,281.719,532.059,297.905,511.274,293.78,518.383,281.719" style="stroke: #3C6DF0; stroke-width: 1.0;"/><path d="M746,168.589 C746,197.842 746,237.911 746,277.639 " fill="none" style="stroke: #3C6DF0; stroke-width: 1.0;"/><polygon fill="none" points="753,277.692,746,297.692,739,277.692,753,277.692" style="stroke: #3C6DF0; stroke-width: 1.0;"/><path d="M1202.57,162.606 C1146.69,194.599 1063.75,242.081 983.84,287.832 " fill="none" style="stroke: #3C6DF0; stroke-width: 1.0;"/><polygon fill="none" points="987.145,294.006,966.31,297.868,980.189,281.856,987.145,294.006" style="stroke: #3C6DF0; stroke-width: 1.0;"/><path d="M1691,238.273 C1691,288.992 1691,345.496 1691,382.713 " fill="none" style="stroke: #3C6DF0; stroke-width: 1.0;"/><polygon fill="none" points="1698,382.928,1691,402.928,1684,382.928,1698,382.928" style="stroke: #3C6DF0; stroke-width: 1.0;"/></g></svg>