<?xml version="1.0" encoding="UTF-8" standalone="no"?><svg xmlns="http://www.w3.org/2000/svg" xmlns:xlink="http://www.w3.org/1999/xlink" contentScriptType="application/ecmascript" contentStyleType="text/css" height="507px" preserveAspectRatio="none" style="width:1253px;height:507px;" version="1.1" viewBox="0 0 1253 507" width="1253px" zoomAndPan="magnify"><defs/><g><!--class Introspector--><rect fill="#F8FAFA" height="84.8545" rx="1" ry="1" style="stroke: #E3ECEC; stroke-width: 1.5;" width="237" x="37.75" y="35.5"/><ellipse cx="123" cy="49.5" fill="#FFFFFF" rx="9" ry="9" style="stroke: #E3ECEC; stroke-width: 1.0;"/><path d="M124.2783,52.79 Q123.9365,52.9658 123.5605,53.0537 Q123.1846,53.1416 122.7695,53.1416 Q121.2949,53.1416 120.5186,52.1699 Q119.7422,51.1982 119.7422,49.3623 Q119.7422,47.5215 120.5186,46.5498 Q121.2949,45.5781 122.7695,45.5781 Q123.1846,45.5781 123.5654,45.666 Q123.9463,45.7539 124.2783,45.9297 L124.2783,47.5313 Q123.9072,47.1895 123.5581,47.0308 Q123.209,46.8721 122.8379,46.8721 Q122.0469,46.8721 121.644,47.4995 Q121.2412,48.127 121.2412,49.3623 Q121.2412,50.5928 121.644,51.2202 Q122.0469,51.8477 122.8379,51.8477 Q123.209,51.8477 123.5581,51.689 Q123.9072,51.5303 124.2783,51.1885 Z "/><text fill="#19273C" font-family="Open Sans" font-size="10" lengthAdjust="spacingAndGlyphs" textLength="59" x="140.5" y="53.3794">Introspector</text><line style="stroke: #E3ECEC; stroke-width: 1.5;" x1="38.75" x2="273.75" y1="63.5" y2="63.5"/><line style="stroke: #E3ECEC; stroke-width: 1.5;" x1="38.75" x2="273.75" y1="71.5" y2="71.5"/><ellipse cx="47.75" cy="83.8091" fill="#84BE84" rx="2" ry="2" style="stroke: #038048; stroke-width: 1.0;"/><text fill="#19273C" font-family="Open Sans" font-size="10" lengthAdjust="spacingAndGlyphs" textLength="156" x="55.75" y="86.1885">void constructor(ModelManager)</text><ellipse cx="47.75" cy="97.4272" fill="#84BE84" rx="2" ry="2" style="stroke: #038048; stroke-width: 1.0;"/><text fill="#19273C" font-family="Open Sans" font-size="10" lengthAdjust="spacingAndGlyphs" textLength="197" x="55.75" y="99.8066">ClassDeclaration[] getClassDeclarations()</text><ellipse cx="47.75" cy="111.0454" fill="#84BE84" rx="2" ry="2" style="stroke: #038048; stroke-width: 1.0;"/><text fill="#19273C" font-family="Open Sans" font-size="10" lengthAdjust="spacingAndGlyphs" textLength="213" x="55.75" y="113.4248">ClassDeclaration getClassDeclaration(String)</text><!--class Relationship--><rect fill="#F8FAFA" height="71.2363" rx="1" ry="1" style="stroke: #E3ECEC; stroke-width: 1.5;" width="140" x="692" y="269.5"/><ellipse cx="728.4" cy="283.5" fill="#FFFFFF" rx="9" ry="9" style="stroke: #E3ECEC; stroke-width: 1.0;"/><path d="M729.6783,286.79 Q729.3365,286.9658 728.9605,287.0537 Q728.5846,287.1416 728.1695,287.1416 Q726.6949,287.1416 725.9186,286.1699 Q725.1422,285.1982 725.1422,283.3623 Q725.1422,281.5215 725.9186,280.5498 Q726.6949,279.5781 728.1695,279.5781 Q728.5846,279.5781 728.9654,279.666 Q729.3463,279.7539 729.6783,279.9297 L729.6783,281.5313 Q729.3072,281.1895 728.9581,281.0308 Q728.609,280.8721 728.2379,280.8721 Q727.4469,280.8721 727.044,281.4995 Q726.6412,282.127 726.6412,283.3623 Q726.6412,284.5928 727.044,285.2202 Q727.4469,285.8477 728.2379,285.8477 Q728.609,285.8477 728.9581,285.689 Q729.3072,285.5303 729.6783,285.1885 Z "/><text fill="#19273C" font-family="Open Sans" font-size="10" lengthAdjust="spacingAndGlyphs" textLength="60" x="745.6" y="287.3794">Relationship</text><line style="stroke: #E3ECEC; stroke-width: 1.5;" x1="693" x2="831" y1="297.5" y2="297.5"/><line style="stroke: #E3ECEC; stroke-width: 1.5;" x1="693" x2="831" y1="305.5" y2="305.5"/><ellipse cx="702" cy="317.8091" fill="#84BE84" rx="2" ry="2" style="stroke: #038048; stroke-width: 1.0;"/><text fill="#19273C" font-family="Open Sans" font-size="10" lengthAdjust="spacingAndGlyphs" textLength="73" x="710" y="320.1885">String toString()</text><ellipse cx="702" cy="331.4272" fill="#84BE84" rx="2" ry="2" style="stroke: #038048; stroke-width: 1.0;"/><text fill="#19273C" font-family="Open Sans" font-size="10" lengthAdjust="spacingAndGlyphs" textLength="116" x="710" y="333.8066">boolean isRelationship()</text><!--class Identifiable--><rect fill="#F8FAFA" height="44" rx="1" ry="1" style="stroke: #E3ECEC; stroke-width: 1.5;" width="83" x="804.75" y="462"/><ellipse cx="817.75" cy="476" fill="#FFFFFF" rx="9" ry="9" style="stroke: #E3ECEC; stroke-width: 1.0;"/><path d="M819.0283,479.29 Q818.6865,479.4658 818.3105,479.5537 Q817.9346,479.6416 817.5195,479.6416 Q816.0449,479.6416 815.2686,478.6699 Q814.4922,477.6982 814.4922,475.8623 Q814.4922,474.0215 815.2686,473.0498 Q816.0449,472.0781 817.5195,472.0781 Q817.9346,472.0781 818.3154,472.166 Q818.6963,472.2539 819.0283,472.4297 L819.0283,474.0313 Q818.6572,473.6895 818.3081,473.5308 Q817.959,473.3721 817.5879,473.3721 Q816.7969,473.3721 816.394,473.9995 Q815.9912,474.627 815.9912,475.8623 Q815.9912,477.0928 816.394,477.7202 Q816.7969,478.3477 817.5879,478.3477 Q817.959,478.3477 818.3081,478.189 Q818.6572,478.0303 819.0283,477.6885 Z "/><text fill="#19273C" font-family="Open Sans" font-size="10" lengthAdjust="spacingAndGlyphs" textLength="55" x="829.75" y="479.8794">Identifiable</text><line style="stroke: #E3ECEC; stroke-width: 1.5;" x1="805.75" x2="886.75" y1="490" y2="490"/><line style="stroke: #E3ECEC; stroke-width: 1.5;" x1="805.75" x2="886.75" y1="498" y2="498"/><!--class Resource--><rect fill="#F8FAFA" height="71.2363" rx="1" ry="1" style="stroke: #E3ECEC; stroke-width: 1.5;" width="124" x="867" y="269.5"/><ellipse cx="903.4" cy="283.5" fill="#FFFFFF" rx="9" ry="9" style="stroke: #E3ECEC; stroke-width: 1.0;"/><path d="M904.6783,286.79 Q904.3365,286.9658 903.9605,287.0537 Q903.5846,287.1416 903.1695,287.1416 Q901.6949,287.1416 900.9186,286.1699 Q900.1422,285.1982 900.1422,283.3623 Q900.1422,281.5215 900.9186,280.5498 Q901.6949,279.5781 903.1695,279.5781 Q903.5846,279.5781 903.9654,279.666 Q904.3463,279.7539 904.6783,279.9297 L904.6783,281.5313 Q904.3072,281.1895 903.9581,281.0308 Q903.609,280.8721 903.2379,280.8721 Q902.4469,280.8721 902.044,281.4995 Q901.6412,282.127 901.6412,283.3623 Q901.6412,284.5928 902.044,285.2202 Q902.4469,285.8477 903.2379,285.8477 Q903.609,285.8477 903.9581,285.689 Q904.3072,285.5303 904.6783,285.1885 Z "/><text fill="#19273C" font-family="Open Sans" font-size="10" lengthAdjust="spacingAndGlyphs" textLength="44" x="920.6" y="287.3794">Resource</text><line style="stroke: #E3ECEC; stroke-width: 1.5;" x1="868" x2="990" y1="297.5" y2="297.5"/><line style="stroke: #E3ECEC; stroke-width: 1.5;" x1="868" x2="990" y1="305.5" y2="305.5"/><ellipse cx="877" cy="317.8091" fill="#84BE84" rx="2" ry="2" style="stroke: #038048; stroke-width: 1.0;"/><text fill="#19273C" font-family="Open Sans" font-size="10" lengthAdjust="spacingAndGlyphs" textLength="73" x="885" y="320.1885">String toString()</text><ellipse cx="877" cy="331.4272" fill="#84BE84" rx="2" ry="2" style="stroke: #038048; stroke-width: 1.0;"/><text fill="#19273C" font-family="Open Sans" font-size="10" lengthAdjust="spacingAndGlyphs" textLength="100" x="885" y="333.8066">boolean isResource()</text><!--class ValidatedResource--><rect fill="#F8FAFA" height="84.8545" rx="1" ry="1" style="stroke: #E3ECEC; stroke-width: 1.5;" width="192" x="833" y="35.5"/><ellipse cx="880.25" cy="49.5" fill="#FFFFFF" rx="9" ry="9" style="stroke: #E3ECEC; stroke-width: 1.0;"/><path d="M881.5283,52.79 Q881.1865,52.9658 880.8105,53.0537 Q880.4346,53.1416 880.0195,53.1416 Q878.5449,53.1416 877.7686,52.1699 Q876.9922,51.1982 876.9922,49.3623 Q876.9922,47.5215 877.7686,46.5498 Q878.5449,45.5781 880.0195,45.5781 Q880.4346,45.5781 880.8154,45.666 Q881.1963,45.7539 881.5283,45.9297 L881.5283,47.5313 Q881.1572,47.1895 880.8081,47.0308 Q880.459,46.8721 880.0879,46.8721 Q879.2969,46.8721 878.894,47.4995 Q878.4912,48.127 878.4912,49.3623 Q878.4912,50.5928 878.894,51.2202 Q879.2969,51.8477 880.0879,51.8477 Q880.459,51.8477 880.8081,51.689 Q881.1572,51.5303 881.5283,51.1885 Z "/><text fill="#19273C" font-family="Open Sans" font-size="10" lengthAdjust="spacingAndGlyphs" textLength="90" x="897.75" y="53.3794">ValidatedResource</text><line style="stroke: #E3ECEC; stroke-width: 1.5;" x1="834" x2="1024" y1="63.5" y2="63.5"/><line style="stroke: #E3ECEC; stroke-width: 1.5;" x1="834" x2="1024" y1="71.5" y2="71.5"/><ellipse cx="843" cy="83.8091" fill="#84BE84" rx="2" ry="2" style="stroke: #038048; stroke-width: 1.0;"/><text fill="#19273C" font-family="Open Sans" font-size="10" lengthAdjust="spacingAndGlyphs" textLength="168" x="851" y="86.1885">void setPropertyValue(string,string)</text><ellipse cx="843" cy="97.4272" fill="#84BE84" rx="2" ry="2" style="stroke: #038048; stroke-width: 1.0;"/><text fill="#19273C" font-family="Open Sans" font-size="10" lengthAdjust="spacingAndGlyphs" textLength="155" x="851" y="99.8066">void addArrayValue(string,string)</text><ellipse cx="843" cy="111.0454" fill="#84BE84" rx="2" ry="2" style="stroke: #038048; stroke-width: 1.0;"/><text fill="#19273C" font-family="Open Sans" font-size="10" lengthAdjust="spacingAndGlyphs" textLength="68" x="851" y="113.4248">void validate()</text><!--class Concept--><rect fill="#F8FAFA" height="57.6182" rx="1" ry="1" style="stroke: #E3ECEC; stroke-width: 1.5;" width="119" x="1096.75" y="276"/><ellipse cx="1133.15" cy="290" fill="#FFFFFF" rx="9" ry="9" style="stroke: #E3ECEC; stroke-width: 1.0;"/><path d="M1134.4283,293.29 Q1134.0865,293.4658 1133.7105,293.5537 Q1133.3346,293.6416 1132.9195,293.6416 Q1131.4449,293.6416 1130.6686,292.6699 Q1129.8922,291.6982 1129.8922,289.8623 Q1129.8922,288.0215 1130.6686,287.0498 Q1131.4449,286.0781 1132.9195,286.0781 Q1133.3346,286.0781 1133.7154,286.166 Q1134.0963,286.2539 1134.4283,286.4297 L1134.4283,288.0313 Q1134.0572,287.6895 1133.7081,287.5308 Q1133.359,287.3721 1132.9879,287.3721 Q1132.1969,287.3721 1131.794,287.9995 Q1131.3912,288.627 1131.3912,289.8623 Q1131.3912,291.0928 1131.794,291.7202 Q1132.1969,292.3477 1132.9879,292.3477 Q1133.359,292.3477 1133.7081,292.189 Q1134.0572,292.0303 1134.4283,291.6885 Z "/><text fill="#19273C" font-family="Open Sans" font-size="10" lengthAdjust="spacingAndGlyphs" textLength="39" x="1150.35" y="293.8794">Concept</text><line style="stroke: #E3ECEC; stroke-width: 1.5;" x1="1097.75" x2="1214.75" y1="304" y2="304"/><line style="stroke: #E3ECEC; stroke-width: 1.5;" x1="1097.75" x2="1214.75" y1="312" y2="312"/><ellipse cx="1106.75" cy="324.3091" fill="#84BE84" rx="2" ry="2" style="stroke: #038048; stroke-width: 1.0;"/><text fill="#19273C" font-family="Open Sans" font-size="10" lengthAdjust="spacingAndGlyphs" textLength="95" x="1114.75" y="326.6885">boolean isConcept()</text><!--class Typed--><rect fill="#F8FAFA" height="44" rx="1" ry="1" style="stroke: #E3ECEC; stroke-width: 1.5;" width="57" x="1127.75" y="462"/><ellipse cx="1140.75" cy="476" fill="#FFFFFF" rx="9" ry="9" style="stroke: #E3ECEC; stroke-width: 1.0;"/><path d="M1142.0283,479.29 Q1141.6865,479.4658 1141.3105,479.5537 Q1140.9346,479.6416 1140.5195,479.6416 Q1139.0449,479.6416 1138.2686,478.6699 Q1137.4922,477.6982 1137.4922,475.8623 Q1137.4922,474.0215 1138.2686,473.0498 Q1139.0449,472.0781 1140.5195,472.0781 Q1140.9346,472.0781 1141.3154,472.166 Q1141.6963,472.2539 1142.0283,472.4297 L1142.0283,474.0313 Q1141.6572,473.6895 1141.3081,473.5308 Q1140.959,473.3721 1140.5879,473.3721 Q1139.7969,473.3721 1139.394,473.9995 Q1138.9912,474.627 1138.9912,475.8623 Q1138.9912,477.0928 1139.394,477.7202 Q1139.7969,478.3477 1140.5879,478.3477 Q1140.959,478.3477 1141.3081,478.189 Q1141.6572,478.0303 1142.0283,477.6885 Z "/><text fill="#19273C" font-family="Open Sans" font-size="10" lengthAdjust="spacingAndGlyphs" textLength="29" x="1152.75" y="479.8794">Typed</text><line style="stroke: #E3ECEC; stroke-width: 1.5;" x1="1128.75" x2="1183.75" y1="490" y2="490"/><line style="stroke: #E3ECEC; stroke-width: 1.5;" x1="1128.75" x2="1183.75" y1="498" y2="498"/><!--class ValidatedConcept--><rect fill="#F8FAFA" height="84.8545" rx="1" ry="1" style="stroke: #E3ECEC; stroke-width: 1.5;" width="192" x="1060" y="35.5"/><ellipse cx="1109.75" cy="49.5" fill="#FFFFFF" rx="9" ry="9" style="stroke: #E3ECEC; stroke-width: 1.0;"/><path d="M1111.0283,52.79 Q1110.6865,52.9658 1110.3105,53.0537 Q1109.9346,53.1416 1109.5195,53.1416 Q1108.0449,53.1416 1107.2686,52.1699 Q1106.4922,51.1982 1106.4922,49.3623 Q1106.4922,47.5215 1107.2686,46.5498 Q1108.0449,45.5781 1109.5195,45.5781 Q1109.9346,45.5781 1110.3154,45.666 Q1110.6963,45.7539 1111.0283,45.9297 L1111.0283,47.5313 Q1110.6572,47.1895 1110.3081,47.0308 Q1109.959,46.8721 1109.5879,46.8721 Q1108.7969,46.8721 1108.394,47.4995 Q1107.9912,48.127 1107.9912,49.3623 Q1107.9912,50.5928 1108.394,51.2202 Q1108.7969,51.8477 1109.5879,51.8477 Q1109.959,51.8477 1110.3081,51.689 Q1110.6572,51.5303 1111.0283,51.1885 Z "/><text fill="#19273C" font-family="Open Sans" font-size="10" lengthAdjust="spacingAndGlyphs" textLength="85" x="1127.25" y="53.3794">ValidatedConcept</text><line style="stroke: #E3ECEC; stroke-width: 1.5;" x1="1061" x2="1251" y1="63.5" y2="63.5"/><line style="stroke: #E3ECEC; stroke-width: 1.5;" x1="1061" x2="1251" y1="71.5" y2="71.5"/><ellipse cx="1070" cy="83.8091" fill="#84BE84" rx="2" ry="2" style="stroke: #038048; stroke-width: 1.0;"/><text fill="#19273C" font-family="Open Sans" font-size="10" lengthAdjust="spacingAndGlyphs" textLength="168" x="1078" y="86.1885">void setPropertyValue(string,string)</text><ellipse cx="1070" cy="97.4272" fill="#84BE84" rx="2" ry="2" style="stroke: #038048; stroke-width: 1.0;"/><text fill="#19273C" font-family="Open Sans" font-size="10" lengthAdjust="spacingAndGlyphs" textLength="155" x="1078" y="99.8066">void addArrayValue(string,string)</text><ellipse cx="1070" cy="111.0454" fill="#84BE84" rx="2" ry="2" style="stroke: #038048; stroke-width: 1.0;"/><text fill="#19273C" font-family="Open Sans" font-size="10" lengthAdjust="spacingAndGlyphs" textLength="68" x="1078" y="113.4248">void validate()</text><!--class Factory--><rect fill="#F8FAFA" height="139.3271" rx="1" ry="1" style="stroke: #E3ECEC; stroke-width: 1.5;" width="342" x="383" y="8.5"/><ellipse cx="532.75" cy="22.5" fill="#FFFFFF" rx="9" ry="9" style="stroke: #E3ECEC; stroke-width: 1.0;"/><path d="M534.0283,25.79 Q533.6865,25.9658 533.3105,26.0537 Q532.9346,26.1416 532.5195,26.1416 Q531.0449,26.1416 530.2686,25.1699 Q529.4922,24.1982 529.4922,22.3623 Q529.4922,20.5215 530.2686,19.5498 Q531.0449,18.5781 532.5195,18.5781 Q532.9346,18.5781 533.3154,18.666 Q533.6963,18.7539 534.0283,18.9297 L534.0283,20.5313 Q533.6572,20.1895 533.3081,20.0308 Q532.959,19.8721 532.5879,19.8721 Q531.7969,19.8721 531.394,20.4995 Q530.9912,21.127 530.9912,22.3623 Q530.9912,23.5928 531.394,24.2202 Q531.7969,24.8477 532.5879,24.8477 Q532.959,24.8477 533.3081,24.689 Q533.6572,24.5303 534.0283,24.1885 Z "/><text fill="#19273C" font-family="Open Sans" font-size="10" lengthAdjust="spacingAndGlyphs" textLength="35" x="550.25" y="26.3794">Factory</text><line style="stroke: #E3ECEC; stroke-width: 1.5;" x1="384" x2="724" y1="36.5" y2="36.5"/><line style="stroke: #E3ECEC; stroke-width: 1.5;" x1="384" x2="724" y1="44.5" y2="44.5"/><ellipse cx="393" cy="56.8091" fill="#84BE84" rx="2" ry="2" style="stroke: #038048; stroke-width: 1.0;"/><text fill="#19273C" font-family="Open Sans" font-size="10" lengthAdjust="spacingAndGlyphs" textLength="156" x="401" y="59.1885">void constructor(ModelManager)</text><ellipse cx="393" cy="70.4272" fill="#84BE84" rx="2" ry="2" style="stroke: #038048; stroke-width: 1.0;"/><text fill="#19273C" font-family="Open Sans" font-size="10" lengthAdjust="spacingAndGlyphs" textLength="315" x="401" y="72.8066">Resource newInstance(string,string,string,Object,boolean,boolean)</text><ellipse cx="393" cy="84.0454" fill="#84BE84" rx="2" ry="2" style="stroke: #038048; stroke-width: 1.0;"/><text fill="#19273C" font-family="Open Sans" font-size="10" lengthAdjust="spacingAndGlyphs" textLength="318" x="401" y="86.4248">Resource newResource(string,string,string,Object,boolean,boolean)</text><ellipse cx="393" cy="97.6636" fill="#84BE84" rx="2" ry="2" style="stroke: #038048; stroke-width: 1.0;"/><text fill="#19273C" font-family="Open Sans" font-size="10" lengthAdjust="spacingAndGlyphs" textLength="284" x="401" y="100.043">Resource newConcept(string,string,Object,boolean,boolean)</text><ellipse cx="393" cy="111.2817" fill="#84BE84" rx="2" ry="2" style="stroke: #038048; stroke-width: 1.0;"/><text fill="#19273C" font-family="Open Sans" font-size="10" lengthAdjust="spacingAndGlyphs" textLength="234" x="401" y="113.6611">Relationship newRelationship(string,string,string)</text><ellipse cx="393" cy="124.8999" fill="#84BE84" rx="2" ry="2" style="stroke: #038048; stroke-width: 1.0;"/><text fill="#19273C" font-family="Open Sans" font-size="10" lengthAdjust="spacingAndGlyphs" textLength="290" x="401" y="127.2793">Resource newTransaction(string,string,string,Object,boolean)</text><ellipse cx="393" cy="138.5181" fill="#84BE84" rx="2" ry="2" style="stroke: #038048; stroke-width: 1.0;"/><text fill="#19273C" font-family="Open Sans" font-size="10" lengthAdjust="spacingAndGlyphs" textLength="75" x="401" y="140.8975">Object toJSON()</text><!--class Serializer--><rect fill="#F8FAFA" height="84.8545" rx="1" ry="1" style="stroke: #E3ECEC; stroke-width: 1.5;" width="300" x="6" y="262.5"/><ellipse cx="129.75" cy="276.5" fill="#FFFFFF" rx="9" ry="9" style="stroke: #E3ECEC; stroke-width: 1.0;"/><path d="M131.0283,279.79 Q130.6865,279.9658 130.3105,280.0537 Q129.9346,280.1416 129.5195,280.1416 Q128.0449,280.1416 127.2686,279.1699 Q126.4922,278.1982 126.4922,276.3623 Q126.4922,274.5215 127.2686,273.5498 Q128.0449,272.5781 129.5195,272.5781 Q129.9346,272.5781 130.3154,272.666 Q130.6963,272.7539 131.0283,272.9297 L131.0283,274.5313 Q130.6572,274.1895 130.3081,274.0308 Q129.959,273.8721 129.5879,273.8721 Q128.7969,273.8721 128.394,274.4995 Q127.9912,275.127 127.9912,276.3623 Q127.9912,277.5928 128.394,278.2202 Q128.7969,278.8477 129.5879,278.8477 Q129.959,278.8477 130.3081,278.689 Q130.6572,278.5303 131.0283,278.1885 Z "/><text fill="#19273C" font-family="Open Sans" font-size="10" lengthAdjust="spacingAndGlyphs" textLength="45" x="147.25" y="280.3794">Serializer</text><line style="stroke: #E3ECEC; stroke-width: 1.5;" x1="7" x2="305" y1="290.5" y2="290.5"/><line style="stroke: #E3ECEC; stroke-width: 1.5;" x1="7" x2="305" y1="298.5" y2="298.5"/><ellipse cx="16" cy="310.8091" fill="#84BE84" rx="2" ry="2" style="stroke: #038048; stroke-width: 1.0;"/><text fill="#19273C" font-family="Open Sans" font-size="10" lengthAdjust="spacingAndGlyphs" textLength="193" x="24" y="313.1885">void constructor(Factory,ModelManager)</text><ellipse cx="16" cy="324.4272" fill="#84BE84" rx="2" ry="2" style="stroke: #038048; stroke-width: 1.0;"/><text fill="#19273C" font-family="Open Sans" font-size="10" lengthAdjust="spacingAndGlyphs" textLength="276" x="24" y="326.8066">Object toJSON(Resource,Object,boolean,boolean,boolean)</text><ellipse cx="16" cy="338.0454" fill="#84BE84" rx="2" ry="2" style="stroke: #038048; stroke-width: 1.0;"/><text fill="#19273C" font-family="Open Sans" font-size="10" lengthAdjust="spacingAndGlyphs" textLength="206" x="24" y="340.4248">Resource fromJSON(Object,Object,boolean)</text><!--class BusinessNetworkDefinition--><rect fill="#F8FAFA" height="193.7998" rx="1" ry="1" style="stroke: #E3ECEC; stroke-width: 1.5;" width="315" x="341.75" y="208"/><ellipse cx="430.5" cy="222" fill="#FFFFFF" rx="9" ry="9" style="stroke: #E3ECEC; stroke-width: 1.0;"/><path d="M431.7783,225.29 Q431.4365,225.4658 431.0605,225.5537 Q430.6846,225.6416 430.2695,225.6416 Q428.7949,225.6416 428.0186,224.6699 Q427.2422,223.6982 427.2422,221.8623 Q427.2422,220.0215 428.0186,219.0498 Q428.7949,218.0781 430.2695,218.0781 Q430.6846,218.0781 431.0654,218.166 Q431.4463,218.2539 431.7783,218.4297 L431.7783,220.0313 Q431.4072,219.6895 431.0581,219.5308 Q430.709,219.3721 430.3379,219.3721 Q429.5469,219.3721 429.144,219.9995 Q428.7412,220.627 428.7412,221.8623 Q428.7412,223.0928 429.144,223.7202 Q429.5469,224.3477 430.3379,224.3477 Q430.709,224.3477 431.0581,224.189 Q431.4072,224.0303 431.7783,223.6885 Z "/><text fill="#19273C" font-family="Open Sans" font-size="10" lengthAdjust="spacingAndGlyphs" textLength="130" x="448" y="225.8794">BusinessNetworkDefinition</text><line style="stroke: #E3ECEC; stroke-width: 1.5;" x1="342.75" x2="655.75" y1="236" y2="236"/><line style="stroke: #E3ECEC; stroke-width: 1.5;" x1="342.75" x2="655.75" y1="244" y2="244"/><ellipse cx="351.75" cy="256.3091" fill="#84BE84" rx="2" ry="2" style="stroke: #038048; stroke-width: 1.0;"/><text fill="#19273C" font-family="Open Sans" font-size="10" lengthAdjust="spacingAndGlyphs" textLength="140" x="359.75" y="258.6885">void constructor(String,String)</text><ellipse cx="351.75" cy="269.9272" fill="#84BE84" rx="2" ry="2" style="stroke: #038048; stroke-width: 1.0;"/><text fill="#19273C" font-family="Open Sans" font-size="10" lengthAdjust="spacingAndGlyphs" textLength="95" x="359.75" y="272.3066">String getIdentifier()</text><ellipse cx="351.75" cy="283.5454" fill="#84BE84" rx="2" ry="2" style="stroke: #038048; stroke-width: 1.0;"/><text fill="#19273C" font-family="Open Sans" font-size="10" lengthAdjust="spacingAndGlyphs" textLength="80" x="359.75" y="285.9248">String getName()</text><ellipse cx="351.75" cy="297.1636" fill="#84BE84" rx="2" ry="2" style="stroke: #038048; stroke-width: 1.0;"/><text fill="#19273C" font-family="Open Sans" font-size="10" lengthAdjust="spacingAndGlyphs" textLength="87" x="359.75" y="299.543">String getVersion()</text><ellipse cx="351.75" cy="310.7817" fill="#84BE84" rx="2" ry="2" style="stroke: #038048; stroke-width: 1.0;"/><text fill="#19273C" font-family="Open Sans" font-size="10" lengthAdjust="spacingAndGlyphs" textLength="106" x="359.75" y="313.1611">String getDescription()</text><ellipse cx="351.75" cy="324.3999" fill="#84BE84" rx="2" ry="2" style="stroke: #038048; stroke-width: 1.0;"/><text fill="#19273C" font-family="Open Sans" font-size="10" lengthAdjust="spacingAndGlyphs" textLength="133" x="359.75" y="326.7793">Promise fromArchive(Buffer)</text><ellipse cx="351.75" cy="338.0181" fill="#84BE84" rx="2" ry="2" style="stroke: #038048; stroke-width: 1.0;"/><text fill="#19273C" font-family="Open Sans" font-size="10" lengthAdjust="spacingAndGlyphs" textLength="82" x="359.75" y="340.3975">Buffer toArchive()</text><ellipse cx="351.75" cy="351.6362" fill="#84BE84" rx="2" ry="2" style="stroke: #038048; stroke-width: 1.0;"/><text fill="#19273C" font-family="Open Sans" font-size="10" lengthAdjust="spacingAndGlyphs" textLength="291" x="359.75" y="354.0156">Promise fromDirectory(String,Object,Object,boolean,boolean)</text><ellipse cx="351.75" cy="365.2544" fill="#84BE84" rx="2" ry="2" style="stroke: #038048; stroke-width: 1.0;"/><text fill="#19273C" font-family="Open Sans" font-size="10" lengthAdjust="spacingAndGlyphs" textLength="142" x="359.75" y="367.6338">Introspector getIntrospector()</text><ellipse cx="351.75" cy="378.8726" fill="#84BE84" rx="2" ry="2" style="stroke: #038048; stroke-width: 1.0;"/><text fill="#19273C" font-family="Open Sans" font-size="10" lengthAdjust="spacingAndGlyphs" textLength="94" x="359.75" y="381.252">Factory getFactory()</text><ellipse cx="351.75" cy="392.4907" fill="#84BE84" rx="2" ry="2" style="stroke: #038048; stroke-width: 1.0;"/><text fill="#19273C" font-family="Open Sans" font-size="10" lengthAdjust="spacingAndGlyphs" textLength="114" x="359.75" y="394.8701">Serializer getSerializer()</text><path d="M778.395,340.548 C792.417,370.093 812.595,412.6106 827.254,443.4994 " fill="none" style="stroke: #3C6DF0; stroke-width: 1.0;"/><polygon fill="none" points="833.719,440.7955,835.97,461.8652,821.071,446.7979,833.719,440.7955" style="stroke: #3C6DF0; stroke-width: 1.0;"/><path d="M912.8,340.548 C898.945,370.093 879.007,412.6106 864.523,443.4994 " fill="none" style="stroke: #3C6DF0; stroke-width: 1.0;"/><polygon fill="none" points="870.74,446.7292,855.911,461.8652,858.064,440.7853,870.74,446.7292" style="stroke: #3C6DF0; stroke-width: 1.0;"/><path d="M929,120.531 C929,156.72 929,209.468 929,249.128 " fill="none" style="stroke: #3C6DF0; stroke-width: 1.0;"/><polygon fill="none" points="936,249.348,929,269.348,922,249.348,936,249.348" style="stroke: #3C6DF0; stroke-width: 1.0;"/><path d="M1156,334.046 C1156,363.014 1156,408.5349 1156,441.6348 " fill="none" style="stroke: #3C6DF0; stroke-width: 1.0;"/><polygon fill="none" points="1163,441.7514,1156,461.7514,1149,441.7513,1163,441.7514" style="stroke: #3C6DF0; stroke-width: 1.0;"/><path d="M1156,120.531 C1156,158.76 1156,215.469 1156,255.706 " fill="none" style="stroke: #3C6DF0; stroke-width: 1.0;"/><polygon fill="none" points="1163,255.872,1156,275.872,1149,255.872,1163,255.872" style="stroke: #3C6DF0; stroke-width: 1.0;"/></g></svg>