<?xml version="1.0" encoding="UTF-8" standalone="no"?><svg xmlns="http://www.w3.org/2000/svg" xmlns:xlink="http://www.w3.org/1999/xlink" contentScriptType="application/ecmascript" contentStyleType="text/css" height="171px" preserveAspectRatio="none" style="width:126px;height:171px;" version="1.1" viewBox="0 0 126 171" width="126px" zoomAndPan="magnify"><defs/><g><!--class Concept--><rect fill="#F8FAFA" height="57.6182" rx="1" ry="1" style="stroke: #E3ECEC; stroke-width: 1.5;" width="119" x="6" y="8"/><ellipse cx="42.4" cy="22" fill="#FFFFFF" rx="9" ry="9" style="stroke: #E3ECEC; stroke-width: 1.0;"/><path d="M43.6783,25.29 Q43.3365,25.4658 42.9605,25.5537 Q42.5846,25.6416 42.1695,25.6416 Q40.6949,25.6416 39.9186,24.6699 Q39.1422,23.6982 39.1422,21.8623 Q39.1422,20.0215 39.9186,19.0498 Q40.6949,18.0781 42.1695,18.0781 Q42.5846,18.0781 42.9654,18.166 Q43.3463,18.2539 43.6783,18.4297 L43.6783,20.0313 Q43.3072,19.6895 42.9581,19.5308 Q42.609,19.3721 42.2379,19.3721 Q41.4469,19.3721 41.044,19.9995 Q40.6412,20.627 40.6412,21.8623 Q40.6412,23.0928 41.044,23.7202 Q41.4469,24.3477 42.2379,24.3477 Q42.609,24.3477 42.9581,24.189 Q43.3072,24.0303 43.6783,23.6885 Z "/><text fill="#19273C" font-family="Open Sans" font-size="10" lengthAdjust="spacingAndGlyphs" textLength="39" x="59.6" y="25.8794">Concept</text><line style="stroke: #E3ECEC; stroke-width: 1.5;" x1="7" x2="124" y1="36" y2="36"/><line style="stroke: #E3ECEC; stroke-width: 1.5;" x1="7" x2="124" y1="44" y2="44"/><ellipse cx="16" cy="56.3091" fill="#84BE84" rx="2" ry="2" style="stroke: #038048; stroke-width: 1.0;"/><text fill="#19273C" font-family="Open Sans" font-size="10" lengthAdjust="spacingAndGlyphs" textLength="95" x="24" y="58.6885">boolean isConcept()</text><!--class Typed--><rect fill="#F8FAFA" height="44" rx="1" ry="1" style="stroke: #E3ECEC; stroke-width: 1.5;" width="57" x="37" y="126"/><ellipse cx="50" cy="140" fill="#FFFFFF" rx="9" ry="9" style="stroke: #E3ECEC; stroke-width: 1.0;"/><path d="M51.2783,143.29 Q50.9365,143.4658 50.5605,143.5537 Q50.1846,143.6416 49.7695,143.6416 Q48.2949,143.6416 47.5186,142.6699 Q46.7422,141.6982 46.7422,139.8623 Q46.7422,138.0215 47.5186,137.0498 Q48.2949,136.0781 49.7695,136.0781 Q50.1846,136.0781 50.5654,136.166 Q50.9463,136.2539 51.2783,136.4297 L51.2783,138.0313 Q50.9072,137.6895 50.5581,137.5308 Q50.209,137.3721 49.8379,137.3721 Q49.0469,137.3721 48.644,137.9995 Q48.2412,138.627 48.2412,139.8623 Q48.2412,141.0928 48.644,141.7202 Q49.0469,142.3477 49.8379,142.3477 Q50.209,142.3477 50.5581,142.189 Q50.9072,142.0303 51.2783,141.6885 Z "/><text fill="#19273C" font-family="Open Sans" font-size="10" lengthAdjust="spacingAndGlyphs" textLength="29" x="62" y="143.8794">Typed</text><line style="stroke: #E3ECEC; stroke-width: 1.5;" x1="38" x2="93" y1="154" y2="154"/><line style="stroke: #E3ECEC; stroke-width: 1.5;" x1="38" x2="93" y1="162" y2="162"/><path d="M65.25,66.07 C65.25,78.1772 65.25,92.5803 65.25,105.8565 " fill="none" style="stroke: #3C6DF0; stroke-width: 1.0;"/><polygon fill="none" points="72.2501,105.9111,65.25,125.911,58.2501,105.911,72.2501,105.9111" style="stroke: #3C6DF0; stroke-width: 1.0;"/></g></svg>