<?xml version="1.0" encoding="UTF-8" standalone="no"?><svg xmlns="http://www.w3.org/2000/svg" xmlns:xlink="http://www.w3.org/1999/xlink" contentScriptType="application/ecmascript" contentStyleType="text/css" height="169px" preserveAspectRatio="none" style="width:128px;height:169px;" version="1.1" viewBox="0 0 128 169" width="128px" zoomAndPan="magnify"><defs/><g><!--class Concept--><rect fill="#F8FAFA" height="55.6406" rx="1" ry="1" style="stroke: #E3ECEC; stroke-width: 1.5;" width="121" x="6" y="8"/><ellipse cx="42.4" cy="22" fill="#FFFFFF" rx="9" ry="9" style="stroke: #E3ECEC; stroke-width: 1.0;"/><path d="M43.6813,25.2969 Q43.3375,25.4688 42.9625,25.5547 Q42.5875,25.6406 42.1656,25.6406 Q40.6969,25.6406 39.9234,24.6719 Q39.15,23.7031 39.15,21.8594 Q39.15,20.0156 39.9234,19.0469 Q40.6969,18.0781 42.1656,18.0781 Q42.5875,18.0781 42.9703,18.1641 Q43.3531,18.25 43.6813,18.4219 L43.6813,20.0313 Q43.3063,19.6875 42.9547,19.5313 Q42.6031,19.375 42.2438,19.375 Q41.4469,19.375 41.0406,20 Q40.6344,20.625 40.6344,21.8594 Q40.6344,23.0938 41.0406,23.7188 Q41.4469,24.3438 42.2438,24.3438 Q42.6031,24.3438 42.9547,24.1875 Q43.3063,24.0313 43.6813,23.6875 L43.6813,25.2969 Z "/><text fill="#19273C" font-family="Open Sans" font-size="10" lengthAdjust="spacingAndGlyphs" textLength="41" x="59.6" y="25.4619">Concept</text><line style="stroke: #E3ECEC; stroke-width: 1.5;" x1="7" x2="126" y1="36" y2="36"/><line style="stroke: #E3ECEC; stroke-width: 1.5;" x1="7" x2="126" y1="44" y2="44"/><ellipse cx="16" cy="55.3203" fill="#84BE84" rx="2" ry="2" style="stroke: #038048; stroke-width: 1.0;"/><text fill="#19273C" font-family="Open Sans" font-size="10" lengthAdjust="spacingAndGlyphs" textLength="97" x="24" y="57.2822">boolean isConcept()</text><!--class Typed--><rect fill="#F8FAFA" height="44" rx="1" ry="1" style="stroke: #E3ECEC; stroke-width: 1.5;" width="57" x="38" y="124"/><ellipse cx="51" cy="138" fill="#FFFFFF" rx="9" ry="9" style="stroke: #E3ECEC; stroke-width: 1.0;"/><path d="M52.2813,141.2969 Q51.9375,141.4688 51.5625,141.5547 Q51.1875,141.6406 50.7656,141.6406 Q49.2969,141.6406 48.5234,140.6719 Q47.75,139.7031 47.75,137.8594 Q47.75,136.0156 48.5234,135.0469 Q49.2969,134.0781 50.7656,134.0781 Q51.1875,134.0781 51.5703,134.1641 Q51.9531,134.25 52.2813,134.4219 L52.2813,136.0313 Q51.9063,135.6875 51.5547,135.5313 Q51.2031,135.375 50.8438,135.375 Q50.0469,135.375 49.6406,136 Q49.2344,136.625 49.2344,137.8594 Q49.2344,139.0938 49.6406,139.7188 Q50.0469,140.3438 50.8438,140.3438 Q51.2031,140.3438 51.5547,140.1875 Q51.9063,140.0313 52.2813,139.6875 L52.2813,141.2969 Z "/><text fill="#19273C" font-family="Open Sans" font-size="10" lengthAdjust="spacingAndGlyphs" textLength="29" x="63" y="141.4619">Typed</text><line style="stroke: #E3ECEC; stroke-width: 1.5;" x1="39" x2="94" y1="152" y2="152"/><line style="stroke: #E3ECEC; stroke-width: 1.5;" x1="39" x2="94" y1="160" y2="160"/><path d="M66.5,64.253 C66.5,76.2468 66.5,90.5959 66.5,103.8488 " fill="none" style="stroke: #3C6DF0; stroke-width: 1.0;"/><polygon fill="none" points="73.5001,103.888,66.5,123.888,59.5001,103.888,73.5001,103.888" style="stroke: #3C6DF0; stroke-width: 1.0;"/></g></svg>