<?xml version="1.0" encoding="UTF-8" standalone="no"?><svg xmlns="http://www.w3.org/2000/svg" xmlns:xlink="http://www.w3.org/1999/xlink" contentScriptType="application/ecmascript" contentStyleType="text/css" height="365px" preserveAspectRatio="none" style="width:957px;height:365px;" version="1.1" viewBox="0 0 957 365" width="957px" zoomAndPan="magnify"><defs/><g><!--class Relationship--><rect fill="#F8FAFA" height="67.2813" rx="1" ry="1" style="stroke: #E3ECEC; stroke-width: 1.5;" width="138" x="6" y="193"/><ellipse cx="42.4" cy="207" fill="#FFFFFF" rx="9" ry="9" style="stroke: #E3ECEC; stroke-width: 1.0;"/><path d="M43.6813,210.2969 Q43.3375,210.4688 42.9625,210.5547 Q42.5875,210.6406 42.1656,210.6406 Q40.6969,210.6406 39.9234,209.6719 Q39.15,208.7031 39.15,206.8594 Q39.15,205.0156 39.9234,204.0469 Q40.6969,203.0781 42.1656,203.0781 Q42.5875,203.0781 42.9703,203.1641 Q43.3531,203.25 43.6813,203.4219 L43.6813,205.0313 Q43.3063,204.6875 42.9547,204.5313 Q42.6031,204.375 42.2438,204.375 Q41.4469,204.375 41.0406,205 Q40.6344,205.625 40.6344,206.8594 Q40.6344,208.0938 41.0406,208.7188 Q41.4469,209.3438 42.2438,209.3438 Q42.6031,209.3438 42.9547,209.1875 Q43.3063,209.0313 43.6813,208.6875 L43.6813,210.2969 Z "/><text fill="#19273C" font-family="Open Sans" font-size="10" lengthAdjust="spacingAndGlyphs" textLength="58" x="59.6" y="210.4619">Relationship</text><line style="stroke: #E3ECEC; stroke-width: 1.5;" x1="7" x2="143" y1="221" y2="221"/><line style="stroke: #E3ECEC; stroke-width: 1.5;" x1="7" x2="143" y1="229" y2="229"/><ellipse cx="16" cy="240.3203" fill="#84BE84" rx="2" ry="2" style="stroke: #038048; stroke-width: 1.0;"/><text fill="#19273C" font-family="Open Sans" font-size="10" lengthAdjust="spacingAndGlyphs" textLength="79" x="24" y="242.2822">String toString()</text><ellipse cx="16" cy="251.9609" fill="#84BE84" rx="2" ry="2" style="stroke: #038048; stroke-width: 1.0;"/><text fill="#19273C" font-family="Open Sans" font-size="10" lengthAdjust="spacingAndGlyphs" textLength="114" x="24" y="253.9229">boolean isRelationship()</text><!--class Identifiable--><rect fill="#F8FAFA" height="44" rx="1" ry="1" style="stroke: #E3ECEC; stroke-width: 1.5;" width="81" x="118.5" y="320"/><ellipse cx="131.5" cy="334" fill="#FFFFFF" rx="9" ry="9" style="stroke: #E3ECEC; stroke-width: 1.0;"/><path d="M132.7813,337.2969 Q132.4375,337.4688 132.0625,337.5547 Q131.6875,337.6406 131.2656,337.6406 Q129.7969,337.6406 129.0234,336.6719 Q128.25,335.7031 128.25,333.8594 Q128.25,332.0156 129.0234,331.0469 Q129.7969,330.0781 131.2656,330.0781 Q131.6875,330.0781 132.0703,330.1641 Q132.4531,330.25 132.7813,330.4219 L132.7813,332.0313 Q132.4063,331.6875 132.0547,331.5313 Q131.7031,331.375 131.3438,331.375 Q130.5469,331.375 130.1406,332 Q129.7344,332.625 129.7344,333.8594 Q129.7344,335.0938 130.1406,335.7188 Q130.5469,336.3438 131.3438,336.3438 Q131.7031,336.3438 132.0547,336.1875 Q132.4063,336.0313 132.7813,335.6875 L132.7813,337.2969 Z "/><text fill="#19273C" font-family="Open Sans" font-size="10" lengthAdjust="spacingAndGlyphs" textLength="53" x="143.5" y="337.4619">Identifiable</text><line style="stroke: #E3ECEC; stroke-width: 1.5;" x1="119.5" x2="198.5" y1="348" y2="348"/><line style="stroke: #E3ECEC; stroke-width: 1.5;" x1="119.5" x2="198.5" y1="356" y2="356"/><!--class Resource--><rect fill="#F8FAFA" height="67.2813" rx="1" ry="1" style="stroke: #E3ECEC; stroke-width: 1.5;" width="125" x="179.5" y="193"/><ellipse cx="215.9" cy="207" fill="#FFFFFF" rx="9" ry="9" style="stroke: #E3ECEC; stroke-width: 1.0;"/><path d="M217.1813,210.2969 Q216.8375,210.4688 216.4625,210.5547 Q216.0875,210.6406 215.6656,210.6406 Q214.1969,210.6406 213.4234,209.6719 Q212.65,208.7031 212.65,206.8594 Q212.65,205.0156 213.4234,204.0469 Q214.1969,203.0781 215.6656,203.0781 Q216.0875,203.0781 216.4703,203.1641 Q216.8531,203.25 217.1813,203.4219 L217.1813,205.0313 Q216.8063,204.6875 216.4547,204.5313 Q216.1031,204.375 215.7438,204.375 Q214.9469,204.375 214.5406,205 Q214.1344,205.625 214.1344,206.8594 Q214.1344,208.0938 214.5406,208.7188 Q214.9469,209.3438 215.7438,209.3438 Q216.1031,209.3438 216.4547,209.1875 Q216.8063,209.0313 217.1813,208.6875 L217.1813,210.2969 Z "/><text fill="#19273C" font-family="Open Sans" font-size="10" lengthAdjust="spacingAndGlyphs" textLength="45" x="233.1" y="210.4619">Resource</text><line style="stroke: #E3ECEC; stroke-width: 1.5;" x1="180.5" x2="303.5" y1="221" y2="221"/><line style="stroke: #E3ECEC; stroke-width: 1.5;" x1="180.5" x2="303.5" y1="229" y2="229"/><ellipse cx="189.5" cy="240.3203" fill="#84BE84" rx="2" ry="2" style="stroke: #038048; stroke-width: 1.0;"/><text fill="#19273C" font-family="Open Sans" font-size="10" lengthAdjust="spacingAndGlyphs" textLength="79" x="197.5" y="242.2822">String toString()</text><ellipse cx="189.5" cy="251.9609" fill="#84BE84" rx="2" ry="2" style="stroke: #038048; stroke-width: 1.0;"/><text fill="#19273C" font-family="Open Sans" font-size="10" lengthAdjust="spacingAndGlyphs" textLength="101" x="197.5" y="253.9229">boolean isResource()</text><!--class ValidatedResource--><rect fill="#F8FAFA" height="78.9219" rx="1" ry="1" style="stroke: #E3ECEC; stroke-width: 1.5;" width="197" x="143.5" y="31"/><ellipse cx="193.25" cy="45" fill="#FFFFFF" rx="9" ry="9" style="stroke: #E3ECEC; stroke-width: 1.0;"/><path d="M194.5313,48.2969 Q194.1875,48.4688 193.8125,48.5547 Q193.4375,48.6406 193.0156,48.6406 Q191.5469,48.6406 190.7734,47.6719 Q190,46.7031 190,44.8594 Q190,43.0156 190.7734,42.0469 Q191.5469,41.0781 193.0156,41.0781 Q193.4375,41.0781 193.8203,41.1641 Q194.2031,41.25 194.5313,41.4219 L194.5313,43.0313 Q194.1563,42.6875 193.8047,42.5313 Q193.4531,42.375 193.0938,42.375 Q192.2969,42.375 191.8906,43 Q191.4844,43.625 191.4844,44.8594 Q191.4844,46.0938 191.8906,46.7188 Q192.2969,47.3438 193.0938,47.3438 Q193.4531,47.3438 193.8047,47.1875 Q194.1563,47.0313 194.5313,46.6875 L194.5313,48.2969 Z "/><text fill="#19273C" font-family="Open Sans" font-size="10" lengthAdjust="spacingAndGlyphs" textLength="90" x="210.75" y="48.4619">ValidatedResource</text><line style="stroke: #E3ECEC; stroke-width: 1.5;" x1="144.5" x2="339.5" y1="59" y2="59"/><line style="stroke: #E3ECEC; stroke-width: 1.5;" x1="144.5" x2="339.5" y1="67" y2="67"/><ellipse cx="153.5" cy="78.3203" fill="#84BE84" rx="2" ry="2" style="stroke: #038048; stroke-width: 1.0;"/><text fill="#19273C" font-family="Open Sans" font-size="10" lengthAdjust="spacingAndGlyphs" textLength="173" x="161.5" y="80.2822">void setPropertyValue(string,string)</text><ellipse cx="153.5" cy="89.9609" fill="#84BE84" rx="2" ry="2" style="stroke: #038048; stroke-width: 1.0;"/><text fill="#19273C" font-family="Open Sans" font-size="10" lengthAdjust="spacingAndGlyphs" textLength="160" x="161.5" y="91.9229">void addArrayValue(string,string)</text><ellipse cx="153.5" cy="101.6016" fill="#84BE84" rx="2" ry="2" style="stroke: #038048; stroke-width: 1.0;"/><text fill="#19273C" font-family="Open Sans" font-size="10" lengthAdjust="spacingAndGlyphs" textLength="69" x="161.5" y="103.5635">void validate()</text><!--class Concept--><rect fill="#F8FAFA" height="55.6406" rx="1" ry="1" style="stroke: #E3ECEC; stroke-width: 1.5;" width="121" x="413.5" y="198.5"/><ellipse cx="449.9" cy="212.5" fill="#FFFFFF" rx="9" ry="9" style="stroke: #E3ECEC; stroke-width: 1.0;"/><path d="M451.1813,215.7969 Q450.8375,215.9688 450.4625,216.0547 Q450.0875,216.1406 449.6656,216.1406 Q448.1969,216.1406 447.4234,215.1719 Q446.65,214.2031 446.65,212.3594 Q446.65,210.5156 447.4234,209.5469 Q448.1969,208.5781 449.6656,208.5781 Q450.0875,208.5781 450.4703,208.6641 Q450.8531,208.75 451.1813,208.9219 L451.1813,210.5313 Q450.8063,210.1875 450.4547,210.0313 Q450.1031,209.875 449.7438,209.875 Q448.9469,209.875 448.5406,210.5 Q448.1344,211.125 448.1344,212.3594 Q448.1344,213.5938 448.5406,214.2188 Q448.9469,214.8438 449.7438,214.8438 Q450.1031,214.8438 450.4547,214.6875 Q450.8063,214.5313 451.1813,214.1875 L451.1813,215.7969 Z "/><text fill="#19273C" font-family="Open Sans" font-size="10" lengthAdjust="spacingAndGlyphs" textLength="41" x="467.1" y="215.9619">Concept</text><line style="stroke: #E3ECEC; stroke-width: 1.5;" x1="414.5" x2="533.5" y1="226.5" y2="226.5"/><line style="stroke: #E3ECEC; stroke-width: 1.5;" x1="414.5" x2="533.5" y1="234.5" y2="234.5"/><ellipse cx="423.5" cy="245.8203" fill="#84BE84" rx="2" ry="2" style="stroke: #038048; stroke-width: 1.0;"/><text fill="#19273C" font-family="Open Sans" font-size="10" lengthAdjust="spacingAndGlyphs" textLength="97" x="431.5" y="247.7822">boolean isConcept()</text><!--class Typed--><rect fill="#F8FAFA" height="44" rx="1" ry="1" style="stroke: #E3ECEC; stroke-width: 1.5;" width="57" x="445.5" y="320"/><ellipse cx="458.5" cy="334" fill="#FFFFFF" rx="9" ry="9" style="stroke: #E3ECEC; stroke-width: 1.0;"/><path d="M459.7813,337.2969 Q459.4375,337.4688 459.0625,337.5547 Q458.6875,337.6406 458.2656,337.6406 Q456.7969,337.6406 456.0234,336.6719 Q455.25,335.7031 455.25,333.8594 Q455.25,332.0156 456.0234,331.0469 Q456.7969,330.0781 458.2656,330.0781 Q458.6875,330.0781 459.0703,330.1641 Q459.4531,330.25 459.7813,330.4219 L459.7813,332.0313 Q459.4063,331.6875 459.0547,331.5313 Q458.7031,331.375 458.3438,331.375 Q457.5469,331.375 457.1406,332 Q456.7344,332.625 456.7344,333.8594 Q456.7344,335.0938 457.1406,335.7188 Q457.5469,336.3438 458.3438,336.3438 Q458.7031,336.3438 459.0547,336.1875 Q459.4063,336.0313 459.7813,335.6875 L459.7813,337.2969 Z "/><text fill="#19273C" font-family="Open Sans" font-size="10" lengthAdjust="spacingAndGlyphs" textLength="29" x="470.5" y="337.4619">Typed</text><line style="stroke: #E3ECEC; stroke-width: 1.5;" x1="446.5" x2="501.5" y1="348" y2="348"/><line style="stroke: #E3ECEC; stroke-width: 1.5;" x1="446.5" x2="501.5" y1="356" y2="356"/><!--class ValidatedConcept--><rect fill="#F8FAFA" height="78.9219" rx="1" ry="1" style="stroke: #E3ECEC; stroke-width: 1.5;" width="197" x="375.5" y="31"/><ellipse cx="427.25" cy="45" fill="#FFFFFF" rx="9" ry="9" style="stroke: #E3ECEC; stroke-width: 1.0;"/><path d="M428.5313,48.2969 Q428.1875,48.4688 427.8125,48.5547 Q427.4375,48.6406 427.0156,48.6406 Q425.5469,48.6406 424.7734,47.6719 Q424,46.7031 424,44.8594 Q424,43.0156 424.7734,42.0469 Q425.5469,41.0781 427.0156,41.0781 Q427.4375,41.0781 427.8203,41.1641 Q428.2031,41.25 428.5313,41.4219 L428.5313,43.0313 Q428.1563,42.6875 427.8047,42.5313 Q427.4531,42.375 427.0938,42.375 Q426.2969,42.375 425.8906,43 Q425.4844,43.625 425.4844,44.8594 Q425.4844,46.0938 425.8906,46.7188 Q426.2969,47.3438 427.0938,47.3438 Q427.4531,47.3438 427.8047,47.1875 Q428.1563,47.0313 428.5313,46.6875 L428.5313,48.2969 Z "/><text fill="#19273C" font-family="Open Sans" font-size="10" lengthAdjust="spacingAndGlyphs" textLength="86" x="444.75" y="48.4619">ValidatedConcept</text><line style="stroke: #E3ECEC; stroke-width: 1.5;" x1="376.5" x2="571.5" y1="59" y2="59"/><line style="stroke: #E3ECEC; stroke-width: 1.5;" x1="376.5" x2="571.5" y1="67" y2="67"/><ellipse cx="385.5" cy="78.3203" fill="#84BE84" rx="2" ry="2" style="stroke: #038048; stroke-width: 1.0;"/><text fill="#19273C" font-family="Open Sans" font-size="10" lengthAdjust="spacingAndGlyphs" textLength="173" x="393.5" y="80.2822">void setPropertyValue(string,string)</text><ellipse cx="385.5" cy="89.9609" fill="#84BE84" rx="2" ry="2" style="stroke: #038048; stroke-width: 1.0;"/><text fill="#19273C" font-family="Open Sans" font-size="10" lengthAdjust="spacingAndGlyphs" textLength="160" x="393.5" y="91.9229">void addArrayValue(string,string)</text><ellipse cx="385.5" cy="101.6016" fill="#84BE84" rx="2" ry="2" style="stroke: #038048; stroke-width: 1.0;"/><text fill="#19273C" font-family="Open Sans" font-size="10" lengthAdjust="spacingAndGlyphs" textLength="69" x="393.5" y="103.5635">void validate()</text><!--class Factory--><rect fill="#F8FAFA" height="125.4844" rx="1" ry="1" style="stroke: #E3ECEC; stroke-width: 1.5;" width="348" x="608" y="8"/><ellipse cx="759.75" cy="22" fill="#FFFFFF" rx="9" ry="9" style="stroke: #E3ECEC; stroke-width: 1.0;"/><path d="M761.0313,25.2969 Q760.6875,25.4688 760.3125,25.5547 Q759.9375,25.6406 759.5156,25.6406 Q758.0469,25.6406 757.2734,24.6719 Q756.5,23.7031 756.5,21.8594 Q756.5,20.0156 757.2734,19.0469 Q758.0469,18.0781 759.5156,18.0781 Q759.9375,18.0781 760.3203,18.1641 Q760.7031,18.25 761.0313,18.4219 L761.0313,20.0313 Q760.6563,19.6875 760.3047,19.5313 Q759.9531,19.375 759.5938,19.375 Q758.7969,19.375 758.3906,20 Q757.9844,20.625 757.9844,21.8594 Q757.9844,23.0938 758.3906,23.7188 Q758.7969,24.3438 759.5938,24.3438 Q759.9531,24.3438 760.3047,24.1875 Q760.6563,24.0313 761.0313,23.6875 L761.0313,25.2969 Z "/><text fill="#19273C" font-family="Open Sans" font-size="10" lengthAdjust="spacingAndGlyphs" textLength="37" x="777.25" y="25.4619">Factory</text><line style="stroke: #E3ECEC; stroke-width: 1.5;" x1="609" x2="955" y1="36" y2="36"/><line style="stroke: #E3ECEC; stroke-width: 1.5;" x1="609" x2="955" y1="44" y2="44"/><ellipse cx="618" cy="55.3203" fill="#84BE84" rx="2" ry="2" style="stroke: #038048; stroke-width: 1.0;"/><text fill="#19273C" font-family="Open Sans" font-size="10" lengthAdjust="spacingAndGlyphs" textLength="158" x="626" y="57.2822">void constructor(ModelManager)</text><ellipse cx="618" cy="66.9609" fill="#84BE84" rx="2" ry="2" style="stroke: #038048; stroke-width: 1.0;"/><text fill="#19273C" font-family="Open Sans" font-size="10" lengthAdjust="spacingAndGlyphs" textLength="320" x="626" y="68.9229">Resource newInstance(string,string,string,Object,boolean,boolean)</text><ellipse cx="618" cy="78.6016" fill="#84BE84" rx="2" ry="2" style="stroke: #038048; stroke-width: 1.0;"/><text fill="#19273C" font-family="Open Sans" font-size="10" lengthAdjust="spacingAndGlyphs" textLength="324" x="626" y="80.5635">Resource newResource(string,string,string,Object,boolean,boolean)</text><ellipse cx="618" cy="90.2422" fill="#84BE84" rx="2" ry="2" style="stroke: #038048; stroke-width: 1.0;"/><text fill="#19273C" font-family="Open Sans" font-size="10" lengthAdjust="spacingAndGlyphs" textLength="290" x="626" y="92.2041">Resource newConcept(string,string,Object,boolean,boolean)</text><ellipse cx="618" cy="101.8828" fill="#84BE84" rx="2" ry="2" style="stroke: #038048; stroke-width: 1.0;"/><text fill="#19273C" font-family="Open Sans" font-size="10" lengthAdjust="spacingAndGlyphs" textLength="234" x="626" y="103.8447">Relationship newRelationship(string,string,string)</text><ellipse cx="618" cy="113.5234" fill="#84BE84" rx="2" ry="2" style="stroke: #038048; stroke-width: 1.0;"/><text fill="#19273C" font-family="Open Sans" font-size="10" lengthAdjust="spacingAndGlyphs" textLength="293" x="626" y="115.4854">Resource newTransaction(string,string,string,Object,boolean)</text><ellipse cx="618" cy="125.1641" fill="#84BE84" rx="2" ry="2" style="stroke: #038048; stroke-width: 1.0;"/><text fill="#19273C" font-family="Open Sans" font-size="10" lengthAdjust="spacingAndGlyphs" textLength="78" x="626" y="127.126">Object toJSON()</text><path d="M99.071,260.025 C109.093,273.5658 120.791,289.3726 131.179,303.4081 " fill="none" style="stroke: #3C6DF0; stroke-width: 1.0;"/><polygon fill="none" points="137.139,299.6947,143.41,319.9351,125.886,308.0232,137.139,299.6947" style="stroke: #3C6DF0; stroke-width: 1.0;"/><path d="M218.216,260.025 C208.313,273.5658 196.754,289.3726 186.49,303.4081 " fill="none" style="stroke: #3C6DF0; stroke-width: 1.0;"/><polygon fill="none" points="191.86,307.9232,174.404,319.9351,180.56,299.6592,191.86,307.9232" style="stroke: #3C6DF0; stroke-width: 1.0;"/><path d="M242,110.361 C242,129.274 242,152.295 242,172.767 " fill="none" style="stroke: #3C6DF0; stroke-width: 1.0;"/><polygon fill="none" points="249,172.899,242,192.899,235,172.899,249,172.899" style="stroke: #3C6DF0; stroke-width: 1.0;"/><path d="M474,254.686 C474,268.0812 474,284.5251 474,299.4537 " fill="none" style="stroke: #3C6DF0; stroke-width: 1.0;"/><polygon fill="none" points="481,299.7098,474,319.7098,467,299.7098,481,299.7098" style="stroke: #3C6DF0; stroke-width: 1.0;"/><path d="M474,110.361 C474,130.944 474,156.391 474,178.124 " fill="none" style="stroke: #3C6DF0; stroke-width: 1.0;"/><polygon fill="none" points="481,178.3,474,198.3,467,178.3,481,178.3" style="stroke: #3C6DF0; stroke-width: 1.0;"/></g></svg>