<?xml version="1.0" encoding="UTF-8" standalone="no"?><svg xmlns="http://www.w3.org/2000/svg" xmlns:xlink="http://www.w3.org/1999/xlink" contentScriptType="application/ecmascript" contentStyleType="text/css" height="385px" preserveAspectRatio="none" style="width:944px;height:385px;" version="1.1" viewBox="0 0 944 385" width="944px" zoomAndPan="magnify"><defs/><g><!--class Relationship--><rect fill="#F8FAFA" height="71.2363" rx="1" ry="1" style="stroke: #E3ECEC; stroke-width: 1.5;" width="140" x="6" y="208.5"/><ellipse cx="42.4" cy="222.5" fill="#FFFFFF" rx="9" ry="9" style="stroke: #E3ECEC; stroke-width: 1.0;"/><path d="M43.6783,225.79 Q43.3365,225.9658 42.9605,226.0537 Q42.5846,226.1416 42.1695,226.1416 Q40.6949,226.1416 39.9186,225.1699 Q39.1422,224.1982 39.1422,222.3623 Q39.1422,220.5215 39.9186,219.5498 Q40.6949,218.5781 42.1695,218.5781 Q42.5846,218.5781 42.9654,218.666 Q43.3463,218.7539 43.6783,218.9297 L43.6783,220.5313 Q43.3072,220.1895 42.9581,220.0308 Q42.609,219.8721 42.2379,219.8721 Q41.4469,219.8721 41.044,220.4995 Q40.6412,221.127 40.6412,222.3623 Q40.6412,223.5928 41.044,224.2202 Q41.4469,224.8477 42.2379,224.8477 Q42.609,224.8477 42.9581,224.689 Q43.3072,224.5303 43.6783,224.1885 Z "/><text fill="#19273C" font-family="Open Sans" font-size="10" lengthAdjust="spacingAndGlyphs" textLength="60" x="59.6" y="226.3794">Relationship</text><line style="stroke: #E3ECEC; stroke-width: 1.5;" x1="7" x2="145" y1="236.5" y2="236.5"/><line style="stroke: #E3ECEC; stroke-width: 1.5;" x1="7" x2="145" y1="244.5" y2="244.5"/><ellipse cx="16" cy="256.8091" fill="#84BE84" rx="2" ry="2" style="stroke: #038048; stroke-width: 1.0;"/><text fill="#19273C" font-family="Open Sans" font-size="10" lengthAdjust="spacingAndGlyphs" textLength="73" x="24" y="259.1885">String toString()</text><ellipse cx="16" cy="270.4272" fill="#84BE84" rx="2" ry="2" style="stroke: #038048; stroke-width: 1.0;"/><text fill="#19273C" font-family="Open Sans" font-size="10" lengthAdjust="spacingAndGlyphs" textLength="116" x="24" y="272.8066">boolean isRelationship()</text><!--class Identifiable--><rect fill="#F8FAFA" height="44" rx="1" ry="1" style="stroke: #E3ECEC; stroke-width: 1.5;" width="83" x="118.75" y="340"/><ellipse cx="131.75" cy="354" fill="#FFFFFF" rx="9" ry="9" style="stroke: #E3ECEC; stroke-width: 1.0;"/><path d="M133.0283,357.29 Q132.6865,357.4658 132.3105,357.5537 Q131.9346,357.6416 131.5195,357.6416 Q130.0449,357.6416 129.2686,356.6699 Q128.4922,355.6982 128.4922,353.8623 Q128.4922,352.0215 129.2686,351.0498 Q130.0449,350.0781 131.5195,350.0781 Q131.9346,350.0781 132.3154,350.166 Q132.6963,350.2539 133.0283,350.4297 L133.0283,352.0313 Q132.6572,351.6895 132.3081,351.5308 Q131.959,351.3721 131.5879,351.3721 Q130.7969,351.3721 130.394,351.9995 Q129.9912,352.627 129.9912,353.8623 Q129.9912,355.0928 130.394,355.7202 Q130.7969,356.3477 131.5879,356.3477 Q131.959,356.3477 132.3081,356.189 Q132.6572,356.0303 133.0283,355.6885 Z "/><text fill="#19273C" font-family="Open Sans" font-size="10" lengthAdjust="spacingAndGlyphs" textLength="55" x="143.75" y="357.8794">Identifiable</text><line style="stroke: #E3ECEC; stroke-width: 1.5;" x1="119.75" x2="200.75" y1="368" y2="368"/><line style="stroke: #E3ECEC; stroke-width: 1.5;" x1="119.75" x2="200.75" y1="376" y2="376"/><!--class Resource--><rect fill="#F8FAFA" height="71.2363" rx="1" ry="1" style="stroke: #E3ECEC; stroke-width: 1.5;" width="124" x="181" y="208.5"/><ellipse cx="217.4" cy="222.5" fill="#FFFFFF" rx="9" ry="9" style="stroke: #E3ECEC; stroke-width: 1.0;"/><path d="M218.6783,225.79 Q218.3365,225.9658 217.9605,226.0537 Q217.5846,226.1416 217.1695,226.1416 Q215.6949,226.1416 214.9186,225.1699 Q214.1422,224.1982 214.1422,222.3623 Q214.1422,220.5215 214.9186,219.5498 Q215.6949,218.5781 217.1695,218.5781 Q217.5846,218.5781 217.9654,218.666 Q218.3463,218.7539 218.6783,218.9297 L218.6783,220.5313 Q218.3072,220.1895 217.9581,220.0308 Q217.609,219.8721 217.2379,219.8721 Q216.4469,219.8721 216.044,220.4995 Q215.6412,221.127 215.6412,222.3623 Q215.6412,223.5928 216.044,224.2202 Q216.4469,224.8477 217.2379,224.8477 Q217.609,224.8477 217.9581,224.689 Q218.3072,224.5303 218.6783,224.1885 Z "/><text fill="#19273C" font-family="Open Sans" font-size="10" lengthAdjust="spacingAndGlyphs" textLength="44" x="234.6" y="226.3794">Resource</text><line style="stroke: #E3ECEC; stroke-width: 1.5;" x1="182" x2="304" y1="236.5" y2="236.5"/><line style="stroke: #E3ECEC; stroke-width: 1.5;" x1="182" x2="304" y1="244.5" y2="244.5"/><ellipse cx="191" cy="256.8091" fill="#84BE84" rx="2" ry="2" style="stroke: #038048; stroke-width: 1.0;"/><text fill="#19273C" font-family="Open Sans" font-size="10" lengthAdjust="spacingAndGlyphs" textLength="73" x="199" y="259.1885">String toString()</text><ellipse cx="191" cy="270.4272" fill="#84BE84" rx="2" ry="2" style="stroke: #038048; stroke-width: 1.0;"/><text fill="#19273C" font-family="Open Sans" font-size="10" lengthAdjust="spacingAndGlyphs" textLength="100" x="199" y="272.8066">boolean isResource()</text><!--class ValidatedResource--><rect fill="#F8FAFA" height="84.8545" rx="1" ry="1" style="stroke: #E3ECEC; stroke-width: 1.5;" width="192" x="147" y="35.5"/><ellipse cx="194.25" cy="49.5" fill="#FFFFFF" rx="9" ry="9" style="stroke: #E3ECEC; stroke-width: 1.0;"/><path d="M195.5283,52.79 Q195.1865,52.9658 194.8105,53.0537 Q194.4346,53.1416 194.0195,53.1416 Q192.5449,53.1416 191.7686,52.1699 Q190.9922,51.1982 190.9922,49.3623 Q190.9922,47.5215 191.7686,46.5498 Q192.5449,45.5781 194.0195,45.5781 Q194.4346,45.5781 194.8154,45.666 Q195.1963,45.7539 195.5283,45.9297 L195.5283,47.5313 Q195.1572,47.1895 194.8081,47.0308 Q194.459,46.8721 194.0879,46.8721 Q193.2969,46.8721 192.894,47.4995 Q192.4912,48.127 192.4912,49.3623 Q192.4912,50.5928 192.894,51.2202 Q193.2969,51.8477 194.0879,51.8477 Q194.459,51.8477 194.8081,51.689 Q195.1572,51.5303 195.5283,51.1885 Z "/><text fill="#19273C" font-family="Open Sans" font-size="10" lengthAdjust="spacingAndGlyphs" textLength="90" x="211.75" y="53.3794">ValidatedResource</text><line style="stroke: #E3ECEC; stroke-width: 1.5;" x1="148" x2="338" y1="63.5" y2="63.5"/><line style="stroke: #E3ECEC; stroke-width: 1.5;" x1="148" x2="338" y1="71.5" y2="71.5"/><ellipse cx="157" cy="83.8091" fill="#84BE84" rx="2" ry="2" style="stroke: #038048; stroke-width: 1.0;"/><text fill="#19273C" font-family="Open Sans" font-size="10" lengthAdjust="spacingAndGlyphs" textLength="168" x="165" y="86.1885">void setPropertyValue(string,string)</text><ellipse cx="157" cy="97.4272" fill="#84BE84" rx="2" ry="2" style="stroke: #038048; stroke-width: 1.0;"/><text fill="#19273C" font-family="Open Sans" font-size="10" lengthAdjust="spacingAndGlyphs" textLength="155" x="165" y="99.8066">void addArrayValue(string,string)</text><ellipse cx="157" cy="111.0454" fill="#84BE84" rx="2" ry="2" style="stroke: #038048; stroke-width: 1.0;"/><text fill="#19273C" font-family="Open Sans" font-size="10" lengthAdjust="spacingAndGlyphs" textLength="68" x="165" y="113.4248">void validate()</text><!--class Concept--><rect fill="#F8FAFA" height="57.6182" rx="1" ry="1" style="stroke: #E3ECEC; stroke-width: 1.5;" width="119" x="410.75" y="215"/><ellipse cx="447.15" cy="229" fill="#FFFFFF" rx="9" ry="9" style="stroke: #E3ECEC; stroke-width: 1.0;"/><path d="M448.4283,232.29 Q448.0865,232.4658 447.7105,232.5537 Q447.3346,232.6416 446.9195,232.6416 Q445.4449,232.6416 444.6686,231.6699 Q443.8922,230.6982 443.8922,228.8623 Q443.8922,227.0215 444.6686,226.0498 Q445.4449,225.0781 446.9195,225.0781 Q447.3346,225.0781 447.7154,225.166 Q448.0963,225.2539 448.4283,225.4297 L448.4283,227.0313 Q448.0572,226.6895 447.7081,226.5308 Q447.359,226.3721 446.9879,226.3721 Q446.1969,226.3721 445.794,226.9995 Q445.3912,227.627 445.3912,228.8623 Q445.3912,230.0928 445.794,230.7202 Q446.1969,231.3477 446.9879,231.3477 Q447.359,231.3477 447.7081,231.189 Q448.0572,231.0303 448.4283,230.6885 Z "/><text fill="#19273C" font-family="Open Sans" font-size="10" lengthAdjust="spacingAndGlyphs" textLength="39" x="464.35" y="232.8794">Concept</text><line style="stroke: #E3ECEC; stroke-width: 1.5;" x1="411.75" x2="528.75" y1="243" y2="243"/><line style="stroke: #E3ECEC; stroke-width: 1.5;" x1="411.75" x2="528.75" y1="251" y2="251"/><ellipse cx="420.75" cy="263.3091" fill="#84BE84" rx="2" ry="2" style="stroke: #038048; stroke-width: 1.0;"/><text fill="#19273C" font-family="Open Sans" font-size="10" lengthAdjust="spacingAndGlyphs" textLength="95" x="428.75" y="265.6885">boolean isConcept()</text><!--class Typed--><rect fill="#F8FAFA" height="44" rx="1" ry="1" style="stroke: #E3ECEC; stroke-width: 1.5;" width="57" x="441.75" y="340"/><ellipse cx="454.75" cy="354" fill="#FFFFFF" rx="9" ry="9" style="stroke: #E3ECEC; stroke-width: 1.0;"/><path d="M456.0283,357.29 Q455.6865,357.4658 455.3105,357.5537 Q454.9346,357.6416 454.5195,357.6416 Q453.0449,357.6416 452.2686,356.6699 Q451.4922,355.6982 451.4922,353.8623 Q451.4922,352.0215 452.2686,351.0498 Q453.0449,350.0781 454.5195,350.0781 Q454.9346,350.0781 455.3154,350.166 Q455.6963,350.2539 456.0283,350.4297 L456.0283,352.0313 Q455.6572,351.6895 455.3081,351.5308 Q454.959,351.3721 454.5879,351.3721 Q453.7969,351.3721 453.394,351.9995 Q452.9912,352.627 452.9912,353.8623 Q452.9912,355.0928 453.394,355.7202 Q453.7969,356.3477 454.5879,356.3477 Q454.959,356.3477 455.3081,356.189 Q455.6572,356.0303 456.0283,355.6885 Z "/><text fill="#19273C" font-family="Open Sans" font-size="10" lengthAdjust="spacingAndGlyphs" textLength="29" x="466.75" y="357.8794">Typed</text><line style="stroke: #E3ECEC; stroke-width: 1.5;" x1="442.75" x2="497.75" y1="368" y2="368"/><line style="stroke: #E3ECEC; stroke-width: 1.5;" x1="442.75" x2="497.75" y1="376" y2="376"/><!--class ValidatedConcept--><rect fill="#F8FAFA" height="84.8545" rx="1" ry="1" style="stroke: #E3ECEC; stroke-width: 1.5;" width="192" x="374" y="35.5"/><ellipse cx="423.75" cy="49.5" fill="#FFFFFF" rx="9" ry="9" style="stroke: #E3ECEC; stroke-width: 1.0;"/><path d="M425.0283,52.79 Q424.6865,52.9658 424.3105,53.0537 Q423.9346,53.1416 423.5195,53.1416 Q422.0449,53.1416 421.2686,52.1699 Q420.4922,51.1982 420.4922,49.3623 Q420.4922,47.5215 421.2686,46.5498 Q422.0449,45.5781 423.5195,45.5781 Q423.9346,45.5781 424.3154,45.666 Q424.6963,45.7539 425.0283,45.9297 L425.0283,47.5313 Q424.6572,47.1895 424.3081,47.0308 Q423.959,46.8721 423.5879,46.8721 Q422.7969,46.8721 422.394,47.4995 Q421.9912,48.127 421.9912,49.3623 Q421.9912,50.5928 422.394,51.2202 Q422.7969,51.8477 423.5879,51.8477 Q423.959,51.8477 424.3081,51.689 Q424.6572,51.5303 425.0283,51.1885 Z "/><text fill="#19273C" font-family="Open Sans" font-size="10" lengthAdjust="spacingAndGlyphs" textLength="85" x="441.25" y="53.3794">ValidatedConcept</text><line style="stroke: #E3ECEC; stroke-width: 1.5;" x1="375" x2="565" y1="63.5" y2="63.5"/><line style="stroke: #E3ECEC; stroke-width: 1.5;" x1="375" x2="565" y1="71.5" y2="71.5"/><ellipse cx="384" cy="83.8091" fill="#84BE84" rx="2" ry="2" style="stroke: #038048; stroke-width: 1.0;"/><text fill="#19273C" font-family="Open Sans" font-size="10" lengthAdjust="spacingAndGlyphs" textLength="168" x="392" y="86.1885">void setPropertyValue(string,string)</text><ellipse cx="384" cy="97.4272" fill="#84BE84" rx="2" ry="2" style="stroke: #038048; stroke-width: 1.0;"/><text fill="#19273C" font-family="Open Sans" font-size="10" lengthAdjust="spacingAndGlyphs" textLength="155" x="392" y="99.8066">void addArrayValue(string,string)</text><ellipse cx="384" cy="111.0454" fill="#84BE84" rx="2" ry="2" style="stroke: #038048; stroke-width: 1.0;"/><text fill="#19273C" font-family="Open Sans" font-size="10" lengthAdjust="spacingAndGlyphs" textLength="68" x="392" y="113.4248">void validate()</text><!--class Factory--><rect fill="#F8FAFA" height="139.3271" rx="1" ry="1" style="stroke: #E3ECEC; stroke-width: 1.5;" width="342" x="601" y="8.5"/><ellipse cx="750.75" cy="22.5" fill="#FFFFFF" rx="9" ry="9" style="stroke: #E3ECEC; stroke-width: 1.0;"/><path d="M752.0283,25.79 Q751.6865,25.9658 751.3105,26.0537 Q750.9346,26.1416 750.5195,26.1416 Q749.0449,26.1416 748.2686,25.1699 Q747.4922,24.1982 747.4922,22.3623 Q747.4922,20.5215 748.2686,19.5498 Q749.0449,18.5781 750.5195,18.5781 Q750.9346,18.5781 751.3154,18.666 Q751.6963,18.7539 752.0283,18.9297 L752.0283,20.5313 Q751.6572,20.1895 751.3081,20.0308 Q750.959,19.8721 750.5879,19.8721 Q749.7969,19.8721 749.394,20.4995 Q748.9912,21.127 748.9912,22.3623 Q748.9912,23.5928 749.394,24.2202 Q749.7969,24.8477 750.5879,24.8477 Q750.959,24.8477 751.3081,24.689 Q751.6572,24.5303 752.0283,24.1885 Z "/><text fill="#19273C" font-family="Open Sans" font-size="10" lengthAdjust="spacingAndGlyphs" textLength="35" x="768.25" y="26.3794">Factory</text><line style="stroke: #E3ECEC; stroke-width: 1.5;" x1="602" x2="942" y1="36.5" y2="36.5"/><line style="stroke: #E3ECEC; stroke-width: 1.5;" x1="602" x2="942" y1="44.5" y2="44.5"/><ellipse cx="611" cy="56.8091" fill="#84BE84" rx="2" ry="2" style="stroke: #038048; stroke-width: 1.0;"/><text fill="#19273C" font-family="Open Sans" font-size="10" lengthAdjust="spacingAndGlyphs" textLength="156" x="619" y="59.1885">void constructor(ModelManager)</text><ellipse cx="611" cy="70.4272" fill="#84BE84" rx="2" ry="2" style="stroke: #038048; stroke-width: 1.0;"/><text fill="#19273C" font-family="Open Sans" font-size="10" lengthAdjust="spacingAndGlyphs" textLength="315" x="619" y="72.8066">Resource newInstance(string,string,string,Object,boolean,boolean)</text><ellipse cx="611" cy="84.0454" fill="#84BE84" rx="2" ry="2" style="stroke: #038048; stroke-width: 1.0;"/><text fill="#19273C" font-family="Open Sans" font-size="10" lengthAdjust="spacingAndGlyphs" textLength="318" x="619" y="86.4248">Resource newResource(string,string,string,Object,boolean,boolean)</text><ellipse cx="611" cy="97.6636" fill="#84BE84" rx="2" ry="2" style="stroke: #038048; stroke-width: 1.0;"/><text fill="#19273C" font-family="Open Sans" font-size="10" lengthAdjust="spacingAndGlyphs" textLength="284" x="619" y="100.043">Resource newConcept(string,string,Object,boolean,boolean)</text><ellipse cx="611" cy="111.2817" fill="#84BE84" rx="2" ry="2" style="stroke: #038048; stroke-width: 1.0;"/><text fill="#19273C" font-family="Open Sans" font-size="10" lengthAdjust="spacingAndGlyphs" textLength="234" x="619" y="113.6611">Relationship newRelationship(string,string,string)</text><ellipse cx="611" cy="124.8999" fill="#84BE84" rx="2" ry="2" style="stroke: #038048; stroke-width: 1.0;"/><text fill="#19273C" font-family="Open Sans" font-size="10" lengthAdjust="spacingAndGlyphs" textLength="290" x="619" y="127.2793">Resource newTransaction(string,string,string,Object,boolean)</text><ellipse cx="611" cy="138.5181" fill="#84BE84" rx="2" ry="2" style="stroke: #038048; stroke-width: 1.0;"/><text fill="#19273C" font-family="Open Sans" font-size="10" lengthAdjust="spacingAndGlyphs" textLength="75" x="619" y="140.8975">Object toJSON()</text><path d="M101.2028,279.804 C111.125,293.5054 122.544,309.2748 132.664,323.2504 " fill="none" style="stroke: #3C6DF0; stroke-width: 1.0;"/><polygon fill="none" points="138.517,319.3983,144.578,339.7027,127.178,327.6094,138.517,319.3983" style="stroke: #3C6DF0; stroke-width: 1.0;"/><path d="M218.097,279.804 C208.294,293.5054 197.01,309.2748 187.011,323.2504 " fill="none" style="stroke: #3C6DF0; stroke-width: 1.0;"/><polygon fill="none" points="192.569,327.5108,175.239,339.7027,181.184,319.3642,192.569,327.5108" style="stroke: #3C6DF0; stroke-width: 1.0;"/><path d="M243,120.808 C243,141.271 243,166.169 243,188.138 " fill="none" style="stroke: #3C6DF0; stroke-width: 1.0;"/><polygon fill="none" points="250,188.459,243,208.459,236,188.459,250,188.459" style="stroke: #3C6DF0; stroke-width: 1.0;"/><path d="M470,273.08 C470,287.0261 470,304.1498 470,319.5682 " fill="none" style="stroke: #3C6DF0; stroke-width: 1.0;"/><polygon fill="none" points="477,319.7196,470,339.7196,463,319.7196,477,319.7196" style="stroke: #3C6DF0; stroke-width: 1.0;"/><path d="M470,120.808 C470,143.405 470,171.412 470,194.909 " fill="none" style="stroke: #3C6DF0; stroke-width: 1.0;"/><polygon fill="none" points="477,194.936,470,214.936,463,194.936,477,194.936" style="stroke: #3C6DF0; stroke-width: 1.0;"/></g></svg>