<?xml version="1.0" encoding="UTF-8" standalone="no"?><svg xmlns="http://www.w3.org/2000/svg" xmlns:xlink="http://www.w3.org/1999/xlink" contentScriptType="application/ecmascript" contentStyleType="text/css" height="376px" preserveAspectRatio="none" style="width:210px;height:376px;" version="1.1" viewBox="0 0 210 376" width="210px" zoomAndPan="magnify"><defs/><g><!--class Wallet--><rect fill="#F8FAFA" height="152.9453" rx="1" ry="1" style="stroke: #E3ECEC; stroke-width: 1.5;" width="162" x="26.25" y="222.5"/><ellipse cx="88" cy="236.5" fill="#FFFFFF" rx="9" ry="9" style="stroke: #E3ECEC; stroke-width: 1.0;"/><path d="M89.2783,239.79 Q88.9365,239.9658 88.5605,240.0537 Q88.1846,240.1416 87.7695,240.1416 Q86.2949,240.1416 85.5186,239.1699 Q84.7422,238.1982 84.7422,236.3623 Q84.7422,234.5215 85.5186,233.5498 Q86.2949,232.5781 87.7695,232.5781 Q88.1846,232.5781 88.5654,232.666 Q88.9463,232.7539 89.2783,232.9297 L89.2783,234.5313 Q88.9072,234.1895 88.5581,234.0308 Q88.209,233.8721 87.8379,233.8721 Q87.0469,233.8721 86.644,234.4995 Q86.2412,235.127 86.2412,236.3623 Q86.2412,237.5928 86.644,238.2202 Q87.0469,238.8477 87.8379,238.8477 Q88.209,238.8477 88.5581,238.689 Q88.9072,238.5303 89.2783,238.1885 Z "/><text fill="#19273C" font-family="Open Sans" font-size="10" lengthAdjust="spacingAndGlyphs" textLength="31" x="105.5" y="240.3794">Wallet</text><line style="stroke: #E3ECEC; stroke-width: 1.5;" x1="27.25" x2="187.25" y1="250.5" y2="250.5"/><line style="stroke: #E3ECEC; stroke-width: 1.5;" x1="27.25" x2="187.25" y1="258.5" y2="258.5"/><ellipse cx="36.25" cy="270.8091" fill="#84BE84" rx="2" ry="2" style="stroke: #038048; stroke-width: 1.0;"/><text fill="#19273C" font-family="Open Sans" font-size="10" lengthAdjust="spacingAndGlyphs" textLength="86" x="44.25" y="273.1885">Wallet getWallet()</text><ellipse cx="36.25" cy="284.4272" fill="#84BE84" rx="2" ry="2" style="stroke: #038048; stroke-width: 1.0;"/><text fill="#19273C" font-family="Open Sans" font-size="10" lengthAdjust="spacingAndGlyphs" textLength="106" x="44.25" y="286.8066">void setWallet(Wallet)</text><ellipse cx="36.25" cy="298.0454" fill="#84BE84" rx="2" ry="2" style="stroke: #038048; stroke-width: 1.0;"/><text fill="#19273C" font-family="Open Sans" font-size="10" lengthAdjust="spacingAndGlyphs" textLength="63" x="44.25" y="300.4248">Promise list()</text><ellipse cx="36.25" cy="311.6636" fill="#84BE84" rx="2" ry="2" style="stroke: #038048; stroke-width: 1.0;"/><text fill="#19273C" font-family="Open Sans" font-size="10" lengthAdjust="spacingAndGlyphs" textLength="116" x="44.25" y="314.043">Promise contains(string)</text><ellipse cx="36.25" cy="325.2817" fill="#84BE84" rx="2" ry="2" style="stroke: #038048; stroke-width: 1.0;"/><text fill="#19273C" font-family="Open Sans" font-size="10" lengthAdjust="spacingAndGlyphs" textLength="90" x="44.25" y="327.6611">Promise get(string)</text><ellipse cx="36.25" cy="338.8999" fill="#84BE84" rx="2" ry="2" style="stroke: #038048; stroke-width: 1.0;"/><text fill="#19273C" font-family="Open Sans" font-size="10" lengthAdjust="spacingAndGlyphs" textLength="122" x="44.25" y="341.2793">Promise add(string,string)</text><ellipse cx="36.25" cy="352.5181" fill="#84BE84" rx="2" ry="2" style="stroke: #038048; stroke-width: 1.0;"/><text fill="#19273C" font-family="Open Sans" font-size="10" lengthAdjust="spacingAndGlyphs" textLength="138" x="44.25" y="354.8975">Promise update(string,string)</text><ellipse cx="36.25" cy="366.1362" fill="#84BE84" rx="2" ry="2" style="stroke: #038048; stroke-width: 1.0;"/><text fill="#19273C" font-family="Open Sans" font-size="10" lengthAdjust="spacingAndGlyphs" textLength="111" x="44.25" y="368.5156">Promise remove(string)</text><!--class FileWallet--><rect fill="#F8FAFA" height="152.9453" rx="1" ry="1" style="stroke: #E3ECEC; stroke-width: 1.5;" width="203" x="6" y="8.5"/><ellipse cx="79.75" cy="22.5" fill="#FFFFFF" rx="9" ry="9" style="stroke: #E3ECEC; stroke-width: 1.0;"/><path d="M81.0283,25.79 Q80.6865,25.9658 80.3105,26.0537 Q79.9346,26.1416 79.5195,26.1416 Q78.0449,26.1416 77.2686,25.1699 Q76.4922,24.1982 76.4922,22.3623 Q76.4922,20.5215 77.2686,19.5498 Q78.0449,18.5781 79.5195,18.5781 Q79.9346,18.5781 80.3154,18.666 Q80.6963,18.7539 81.0283,18.9297 L81.0283,20.5313 Q80.6572,20.1895 80.3081,20.0308 Q79.959,19.8721 79.5879,19.8721 Q78.7969,19.8721 78.394,20.4995 Q77.9912,21.127 77.9912,22.3623 Q77.9912,23.5928 78.394,24.2202 Q78.7969,24.8477 79.5879,24.8477 Q79.959,24.8477 80.3081,24.689 Q80.6572,24.5303 81.0283,24.1885 Z "/><text fill="#19273C" font-family="Open Sans" font-size="10" lengthAdjust="spacingAndGlyphs" textLength="48" x="97.25" y="26.3794">FileWallet</text><line style="stroke: #E3ECEC; stroke-width: 1.5;" x1="7" x2="208" y1="36.5" y2="36.5"/><line style="stroke: #E3ECEC; stroke-width: 1.5;" x1="7" x2="208" y1="44.5" y2="44.5"/><ellipse cx="16" cy="56.8091" fill="#84BE84" rx="2" ry="2" style="stroke: #038048; stroke-width: 1.0;"/><text fill="#19273C" font-family="Open Sans" font-size="10" lengthAdjust="spacingAndGlyphs" textLength="123" x="24" y="59.1885">string getHomeDirectory()</text><ellipse cx="16" cy="70.4272" fill="#84BE84" rx="2" ry="2" style="stroke: #038048; stroke-width: 1.0;"/><text fill="#19273C" font-family="Open Sans" font-size="10" lengthAdjust="spacingAndGlyphs" textLength="179" x="24" y="72.8066">void constructor(Object,string,Object)</text><ellipse cx="16" cy="84.0454" fill="#84BE84" rx="2" ry="2" style="stroke: #038048; stroke-width: 1.0;"/><text fill="#19273C" font-family="Open Sans" font-size="10" lengthAdjust="spacingAndGlyphs" textLength="63" x="24" y="86.4248">Promise list()</text><ellipse cx="16" cy="97.6636" fill="#84BE84" rx="2" ry="2" style="stroke: #038048; stroke-width: 1.0;"/><text fill="#19273C" font-family="Open Sans" font-size="10" lengthAdjust="spacingAndGlyphs" textLength="116" x="24" y="100.043">Promise contains(string)</text><ellipse cx="16" cy="111.2817" fill="#84BE84" rx="2" ry="2" style="stroke: #038048; stroke-width: 1.0;"/><text fill="#19273C" font-family="Open Sans" font-size="10" lengthAdjust="spacingAndGlyphs" textLength="90" x="24" y="113.6611">Promise get(string)</text><ellipse cx="16" cy="124.8999" fill="#84BE84" rx="2" ry="2" style="stroke: #038048; stroke-width: 1.0;"/><text fill="#19273C" font-family="Open Sans" font-size="10" lengthAdjust="spacingAndGlyphs" textLength="122" x="24" y="127.2793">Promise add(string,string)</text><ellipse cx="16" cy="138.5181" fill="#84BE84" rx="2" ry="2" style="stroke: #038048; stroke-width: 1.0;"/><text fill="#19273C" font-family="Open Sans" font-size="10" lengthAdjust="spacingAndGlyphs" textLength="138" x="24" y="140.8975">Promise update(string,string)</text><ellipse cx="16" cy="152.1362" fill="#84BE84" rx="2" ry="2" style="stroke: #038048; stroke-width: 1.0;"/><text fill="#19273C" font-family="Open Sans" font-size="10" lengthAdjust="spacingAndGlyphs" textLength="111" x="24" y="154.5156">Promise remove(string)</text><path d="M107.25,161.639 C107.25,174.747 107.25,188.532 107.25,202.094 " fill="none" style="stroke: #3C6DF0; stroke-width: 1.0;"/><polygon fill="none" points="114.25,202.39,107.25,222.39,100.2501,202.39,114.25,202.39" style="stroke: #3C6DF0; stroke-width: 1.0;"/></g></svg>