<?xml version="1.0" encoding="UTF-8" standalone="no"?><svg xmlns="http://www.w3.org/2000/svg" xmlns:xlink="http://www.w3.org/1999/xlink" contentScriptType="application/ecmascript" contentStyleType="text/css" height="343px" preserveAspectRatio="none" style="width:212px;height:343px;" version="1.1" viewBox="0 0 212 343" width="212px" zoomAndPan="magnify"><defs/><g><!--class Wallet--><rect fill="#F8FAFA" height="137.125" rx="1" ry="1" style="stroke: #E3ECEC; stroke-width: 1.5;" width="166" x="25.5" y="205"/><ellipse cx="90.25" cy="219" fill="#FFFFFF" rx="9" ry="9" style="stroke: #E3ECEC; stroke-width: 1.0;"/><path d="M91.5313,222.2969 Q91.1875,222.4688 90.8125,222.5547 Q90.4375,222.6406 90.0156,222.6406 Q88.5469,222.6406 87.7734,221.6719 Q87,220.7031 87,218.8594 Q87,217.0156 87.7734,216.0469 Q88.5469,215.0781 90.0156,215.0781 Q90.4375,215.0781 90.8203,215.1641 Q91.2031,215.25 91.5313,215.4219 L91.5313,217.0313 Q91.1563,216.6875 90.8047,216.5313 Q90.4531,216.375 90.0938,216.375 Q89.2969,216.375 88.8906,217 Q88.4844,217.625 88.4844,218.8594 Q88.4844,220.0938 88.8906,220.7188 Q89.2969,221.3438 90.0938,221.3438 Q90.4531,221.3438 90.8047,221.1875 Q91.1563,221.0313 91.5313,220.6875 L91.5313,222.2969 Z "/><text fill="#19273C" font-family="Open Sans" font-size="10" lengthAdjust="spacingAndGlyphs" textLength="29" x="107.75" y="222.4619">Wallet</text><line style="stroke: #E3ECEC; stroke-width: 1.5;" x1="26.5" x2="190.5" y1="233" y2="233"/><line style="stroke: #E3ECEC; stroke-width: 1.5;" x1="26.5" x2="190.5" y1="241" y2="241"/><ellipse cx="35.5" cy="252.3203" fill="#84BE84" rx="2" ry="2" style="stroke: #038048; stroke-width: 1.0;"/><text fill="#19273C" font-family="Open Sans" font-size="10" lengthAdjust="spacingAndGlyphs" textLength="85" x="43.5" y="254.2822">Wallet getWallet()</text><ellipse cx="35.5" cy="263.9609" fill="#84BE84" rx="2" ry="2" style="stroke: #038048; stroke-width: 1.0;"/><text fill="#19273C" font-family="Open Sans" font-size="10" lengthAdjust="spacingAndGlyphs" textLength="104" x="43.5" y="265.9229">void setWallet(Wallet)</text><ellipse cx="35.5" cy="275.6016" fill="#84BE84" rx="2" ry="2" style="stroke: #038048; stroke-width: 1.0;"/><text fill="#19273C" font-family="Open Sans" font-size="10" lengthAdjust="spacingAndGlyphs" textLength="64" x="43.5" y="277.5635">Promise list()</text><ellipse cx="35.5" cy="287.2422" fill="#84BE84" rx="2" ry="2" style="stroke: #038048; stroke-width: 1.0;"/><text fill="#19273C" font-family="Open Sans" font-size="10" lengthAdjust="spacingAndGlyphs" textLength="118" x="43.5" y="289.2041">Promise contains(string)</text><ellipse cx="35.5" cy="298.8828" fill="#84BE84" rx="2" ry="2" style="stroke: #038048; stroke-width: 1.0;"/><text fill="#19273C" font-family="Open Sans" font-size="10" lengthAdjust="spacingAndGlyphs" textLength="94" x="43.5" y="300.8447">Promise get(string)</text><ellipse cx="35.5" cy="310.5234" fill="#84BE84" rx="2" ry="2" style="stroke: #038048; stroke-width: 1.0;"/><text fill="#19273C" font-family="Open Sans" font-size="10" lengthAdjust="spacingAndGlyphs" textLength="126" x="43.5" y="312.4854">Promise add(string,string)</text><ellipse cx="35.5" cy="322.1641" fill="#84BE84" rx="2" ry="2" style="stroke: #038048; stroke-width: 1.0;"/><text fill="#19273C" font-family="Open Sans" font-size="10" lengthAdjust="spacingAndGlyphs" textLength="142" x="43.5" y="324.126">Promise update(string,string)</text><ellipse cx="35.5" cy="333.8047" fill="#84BE84" rx="2" ry="2" style="stroke: #038048; stroke-width: 1.0;"/><text fill="#19273C" font-family="Open Sans" font-size="10" lengthAdjust="spacingAndGlyphs" textLength="116" x="43.5" y="335.7666">Promise remove(string)</text><!--class FileWallet--><rect fill="#F8FAFA" height="137.125" rx="1" ry="1" style="stroke: #E3ECEC; stroke-width: 1.5;" width="205" x="6" y="8"/><ellipse cx="82.25" cy="22" fill="#FFFFFF" rx="9" ry="9" style="stroke: #E3ECEC; stroke-width: 1.0;"/><path d="M83.5313,25.2969 Q83.1875,25.4688 82.8125,25.5547 Q82.4375,25.6406 82.0156,25.6406 Q80.5469,25.6406 79.7734,24.6719 Q79,23.7031 79,21.8594 Q79,20.0156 79.7734,19.0469 Q80.5469,18.0781 82.0156,18.0781 Q82.4375,18.0781 82.8203,18.1641 Q83.2031,18.25 83.5313,18.4219 L83.5313,20.0313 Q83.1563,19.6875 82.8047,19.5313 Q82.4531,19.375 82.0938,19.375 Q81.2969,19.375 80.8906,20 Q80.4844,20.625 80.4844,21.8594 Q80.4844,23.0938 80.8906,23.7188 Q81.2969,24.3438 82.0938,24.3438 Q82.4531,24.3438 82.8047,24.1875 Q83.1563,24.0313 83.5313,23.6875 L83.5313,25.2969 Z "/><text fill="#19273C" font-family="Open Sans" font-size="10" lengthAdjust="spacingAndGlyphs" textLength="45" x="99.75" y="25.4619">FileWallet</text><line style="stroke: #E3ECEC; stroke-width: 1.5;" x1="7" x2="210" y1="36" y2="36"/><line style="stroke: #E3ECEC; stroke-width: 1.5;" x1="7" x2="210" y1="44" y2="44"/><ellipse cx="16" cy="55.3203" fill="#84BE84" rx="2" ry="2" style="stroke: #038048; stroke-width: 1.0;"/><text fill="#19273C" font-family="Open Sans" font-size="10" lengthAdjust="spacingAndGlyphs" textLength="129" x="24" y="57.2822">string getHomeDirectory()</text><ellipse cx="16" cy="66.9609" fill="#84BE84" rx="2" ry="2" style="stroke: #038048; stroke-width: 1.0;"/><text fill="#19273C" font-family="Open Sans" font-size="10" lengthAdjust="spacingAndGlyphs" textLength="181" x="24" y="68.9229">void constructor(Object,string,Object)</text><ellipse cx="16" cy="78.6016" fill="#84BE84" rx="2" ry="2" style="stroke: #038048; stroke-width: 1.0;"/><text fill="#19273C" font-family="Open Sans" font-size="10" lengthAdjust="spacingAndGlyphs" textLength="64" x="24" y="80.5635">Promise list()</text><ellipse cx="16" cy="90.2422" fill="#84BE84" rx="2" ry="2" style="stroke: #038048; stroke-width: 1.0;"/><text fill="#19273C" font-family="Open Sans" font-size="10" lengthAdjust="spacingAndGlyphs" textLength="118" x="24" y="92.2041">Promise contains(string)</text><ellipse cx="16" cy="101.8828" fill="#84BE84" rx="2" ry="2" style="stroke: #038048; stroke-width: 1.0;"/><text fill="#19273C" font-family="Open Sans" font-size="10" lengthAdjust="spacingAndGlyphs" textLength="94" x="24" y="103.8447">Promise get(string)</text><ellipse cx="16" cy="113.5234" fill="#84BE84" rx="2" ry="2" style="stroke: #038048; stroke-width: 1.0;"/><text fill="#19273C" font-family="Open Sans" font-size="10" lengthAdjust="spacingAndGlyphs" textLength="126" x="24" y="115.4854">Promise add(string,string)</text><ellipse cx="16" cy="125.1641" fill="#84BE84" rx="2" ry="2" style="stroke: #038048; stroke-width: 1.0;"/><text fill="#19273C" font-family="Open Sans" font-size="10" lengthAdjust="spacingAndGlyphs" textLength="142" x="24" y="127.126">Promise update(string,string)</text><ellipse cx="16" cy="136.8047" fill="#84BE84" rx="2" ry="2" style="stroke: #038048; stroke-width: 1.0;"/><text fill="#19273C" font-family="Open Sans" font-size="10" lengthAdjust="spacingAndGlyphs" textLength="116" x="24" y="138.7666">Promise remove(string)</text><path d="M108.5,145.154 C108.5,157.859 108.5,171.313 108.5,184.53 " fill="none" style="stroke: #3C6DF0; stroke-width: 1.0;"/><polygon fill="none" points="115.5,184.965,108.5,204.965,101.5001,184.965,115.5,184.965" style="stroke: #3C6DF0; stroke-width: 1.0;"/></g></svg>