<?xml version="1.0" encoding="UTF-8" standalone="no"?><svg xmlns="http://www.w3.org/2000/svg" xmlns:xlink="http://www.w3.org/1999/xlink" contentScriptType="application/ecmascript" contentStyleType="text/css" height="239px" preserveAspectRatio="none" style="width:192px;height:239px;" version="1.1" viewBox="0 0 192 239" width="192px" zoomAndPan="magnify"><defs/><g><!--class Identifiable--><rect fill="#F8FAFA" height="125.709" rx="1" ry="1" style="stroke: #E3ECEC; stroke-width: 1.5;" width="185" x="6" y="8"/><ellipse cx="67.25" cy="22" fill="#FFFFFF" rx="9" ry="9" style="stroke: #E3ECEC; stroke-width: 1.0;"/><path d="M68.5283,25.29 Q68.1865,25.4658 67.8105,25.5537 Q67.4346,25.6416 67.0195,25.6416 Q65.5449,25.6416 64.7686,24.6699 Q63.9922,23.6982 63.9922,21.8623 Q63.9922,20.0215 64.7686,19.0498 Q65.5449,18.0781 67.0195,18.0781 Q67.4346,18.0781 67.8154,18.166 Q68.1963,18.2539 68.5283,18.4297 L68.5283,20.0313 Q68.1572,19.6895 67.8081,19.5308 Q67.459,19.3721 67.0879,19.3721 Q66.2969,19.3721 65.894,19.9995 Q65.4912,20.627 65.4912,21.8623 Q65.4912,23.0928 65.894,23.7202 Q66.2969,24.3477 67.0879,24.3477 Q67.459,24.3477 67.8081,24.189 Q68.1572,24.0303 68.5283,23.6885 Z "/><text fill="#19273C" font-family="Open Sans" font-size="10" lengthAdjust="spacingAndGlyphs" textLength="55" x="84.75" y="25.8794">Identifiable</text><line style="stroke: #E3ECEC; stroke-width: 1.5;" x1="7" x2="190" y1="36" y2="36"/><line style="stroke: #E3ECEC; stroke-width: 1.5;" x1="7" x2="190" y1="44" y2="44"/><ellipse cx="16" cy="56.3091" fill="#84BE84" rx="2" ry="2" style="stroke: #038048; stroke-width: 1.0;"/><text fill="#19273C" font-family="Open Sans" font-size="10" lengthAdjust="spacingAndGlyphs" textLength="95" x="24" y="58.6885">string getIdentifier()</text><ellipse cx="16" cy="69.9272" fill="#84BE84" rx="2" ry="2" style="stroke: #038048; stroke-width: 1.0;"/><text fill="#19273C" font-family="Open Sans" font-size="10" lengthAdjust="spacingAndGlyphs" textLength="115" x="24" y="72.3066">void setIdentifier(string)</text><ellipse cx="16" cy="83.5454" fill="#84BE84" rx="2" ry="2" style="stroke: #038048; stroke-width: 1.0;"/><text fill="#19273C" font-family="Open Sans" font-size="10" lengthAdjust="spacingAndGlyphs" textLength="161" x="24" y="85.9248">string getFullyQualifiedIdentifier()</text><ellipse cx="16" cy="97.1636" fill="#84BE84" rx="2" ry="2" style="stroke: #038048; stroke-width: 1.0;"/><text fill="#19273C" font-family="Open Sans" font-size="10" lengthAdjust="spacingAndGlyphs" textLength="73" x="24" y="99.543">String toString()</text><ellipse cx="16" cy="110.7817" fill="#84BE84" rx="2" ry="2" style="stroke: #038048; stroke-width: 1.0;"/><text fill="#19273C" font-family="Open Sans" font-size="10" lengthAdjust="spacingAndGlyphs" textLength="116" x="24" y="113.1611">boolean isRelationship()</text><ellipse cx="16" cy="124.3999" fill="#84BE84" rx="2" ry="2" style="stroke: #038048; stroke-width: 1.0;"/><text fill="#19273C" font-family="Open Sans" font-size="10" lengthAdjust="spacingAndGlyphs" textLength="100" x="24" y="126.7793">boolean isResource()</text><!--class Typed--><rect fill="#F8FAFA" height="44" rx="1" ry="1" style="stroke: #E3ECEC; stroke-width: 1.5;" width="57" x="70" y="194"/><ellipse cx="83" cy="208" fill="#FFFFFF" rx="9" ry="9" style="stroke: #E3ECEC; stroke-width: 1.0;"/><path d="M84.2783,211.29 Q83.9365,211.4658 83.5605,211.5537 Q83.1846,211.6416 82.7695,211.6416 Q81.2949,211.6416 80.5186,210.6699 Q79.7422,209.6982 79.7422,207.8623 Q79.7422,206.0215 80.5186,205.0498 Q81.2949,204.0781 82.7695,204.0781 Q83.1846,204.0781 83.5654,204.166 Q83.9463,204.2539 84.2783,204.4297 L84.2783,206.0313 Q83.9072,205.6895 83.5581,205.5308 Q83.209,205.3721 82.8379,205.3721 Q82.0469,205.3721 81.644,205.9995 Q81.2412,206.627 81.2412,207.8623 Q81.2412,209.0928 81.644,209.7202 Q82.0469,210.3477 82.8379,210.3477 Q83.209,210.3477 83.5581,210.189 Q83.9072,210.0303 84.2783,209.6885 Z "/><text fill="#19273C" font-family="Open Sans" font-size="10" lengthAdjust="spacingAndGlyphs" textLength="29" x="95" y="211.8794">Typed</text><line style="stroke: #E3ECEC; stroke-width: 1.5;" x1="71" x2="126" y1="222" y2="222"/><line style="stroke: #E3ECEC; stroke-width: 1.5;" x1="71" x2="126" y1="230" y2="230"/><path d="M98.25,134.306 C98.25,147.6654 98.25,161.4603 98.25,173.7831 " fill="none" style="stroke: #3C6DF0; stroke-width: 1.0;"/><polygon fill="none" points="105.2501,173.9623,98.25,193.9623,91.2501,173.9623,105.2501,173.9623" style="stroke: #3C6DF0; stroke-width: 1.0;"/></g></svg>