<?xml version="1.0" encoding="UTF-8" standalone="no"?><svg xmlns="http://www.w3.org/2000/svg" xmlns:xlink="http://www.w3.org/1999/xlink" contentScriptType="application/ecmascript" contentStyleType="text/css" height="199px" preserveAspectRatio="none" style="width:200px;height:199px;" version="1.1" viewBox="0 0 200 199" width="200px" zoomAndPan="magnify"><defs/><g><!--class IllegalModelException--><rect fill="#F8FAFA" height="84.8545" rx="1" ry="1" style="stroke: #E3ECEC; stroke-width: 1.5;" width="193" x="6" y="8.5"/><ellipse cx="45.75" cy="22.5" fill="#FFFFFF" rx="9" ry="9" style="stroke: #E3ECEC; stroke-width: 1.0;"/><path d="M47.0283,25.79 Q46.6865,25.9658 46.3105,26.0537 Q45.9346,26.1416 45.5195,26.1416 Q44.0449,26.1416 43.2686,25.1699 Q42.4922,24.1982 42.4922,22.3623 Q42.4922,20.5215 43.2686,19.5498 Q44.0449,18.5781 45.5195,18.5781 Q45.9346,18.5781 46.3154,18.666 Q46.6963,18.7539 47.0283,18.9297 L47.0283,20.5313 Q46.6572,20.1895 46.3081,20.0308 Q45.959,19.8721 45.5879,19.8721 Q44.7969,19.8721 44.394,20.4995 Q43.9912,21.127 43.9912,22.3623 Q43.9912,23.5928 44.394,24.2202 Q44.7969,24.8477 45.5879,24.8477 Q45.959,24.8477 46.3081,24.689 Q46.6572,24.5303 47.0283,24.1885 Z "/><text fill="#19273C" font-family="Open Sans" font-size="10" lengthAdjust="spacingAndGlyphs" textLength="106" x="63.25" y="26.3794">IllegalModelException</text><line style="stroke: #E3ECEC; stroke-width: 1.5;" x1="7" x2="198" y1="36.5" y2="36.5"/><line style="stroke: #E3ECEC; stroke-width: 1.5;" x1="7" x2="198" y1="44.5" y2="44.5"/><ellipse cx="16" cy="56.8091" fill="#84BE84" rx="2" ry="2" style="stroke: #038048; stroke-width: 1.0;"/><text fill="#19273C" font-family="Open Sans" font-size="10" lengthAdjust="spacingAndGlyphs" textLength="169" x="24" y="59.1885">void constructor(string,string,string)</text><ellipse cx="16" cy="70.4272" fill="#84BE84" rx="2" ry="2" style="stroke: #038048; stroke-width: 1.0;"/><text fill="#19273C" font-family="Open Sans" font-size="10" lengthAdjust="spacingAndGlyphs" textLength="98" x="24" y="72.8066">string getModelFile()</text><ellipse cx="16" cy="84.0454" fill="#84BE84" rx="2" ry="2" style="stroke: #038048; stroke-width: 1.0;"/><text fill="#19273C" font-family="Open Sans" font-size="10" lengthAdjust="spacingAndGlyphs" textLength="109" x="24" y="86.4248">string getFileLocation()</text><!--class BaseException--><rect fill="#F8FAFA" height="44" rx="1" ry="1" style="stroke: #E3ECEC; stroke-width: 1.5;" width="98" x="53.25" y="154"/><ellipse cx="66.25" cy="168" fill="#FFFFFF" rx="9" ry="9" style="stroke: #E3ECEC; stroke-width: 1.0;"/><path d="M67.5283,171.29 Q67.1865,171.4658 66.8105,171.5537 Q66.4346,171.6416 66.0195,171.6416 Q64.5449,171.6416 63.7686,170.6699 Q62.9922,169.6982 62.9922,167.8623 Q62.9922,166.0215 63.7686,165.0498 Q64.5449,164.0781 66.0195,164.0781 Q66.4346,164.0781 66.8154,164.166 Q67.1963,164.2539 67.5283,164.4297 L67.5283,166.0313 Q67.1572,165.6895 66.8081,165.5308 Q66.459,165.3721 66.0879,165.3721 Q65.2969,165.3721 64.894,165.9995 Q64.4912,166.627 64.4912,167.8623 Q64.4912,169.0928 64.894,169.7202 Q65.2969,170.3477 66.0879,170.3477 Q66.459,170.3477 66.8081,170.189 Q67.1572,170.0303 67.5283,169.6885 Z "/><text fill="#19273C" font-family="Open Sans" font-size="10" lengthAdjust="spacingAndGlyphs" textLength="70" x="78.25" y="171.8794">BaseException</text><line style="stroke: #E3ECEC; stroke-width: 1.5;" x1="54.25" x2="150.25" y1="182" y2="182"/><line style="stroke: #E3ECEC; stroke-width: 1.5;" x1="54.25" x2="150.25" y1="190" y2="190"/><path d="M102.25,93.642 C102.25,106.59 102.25,120.8533 102.25,133.7727 " fill="none" style="stroke: #3C6DF0; stroke-width: 1.0;"/><polygon fill="none" points="109.25,133.7768,102.25,153.7768,95.2501,133.7768,109.25,133.7768" style="stroke: #3C6DF0; stroke-width: 1.0;"/></g></svg>