<?xml version="1.0" encoding="UTF-8" standalone="no"?><svg xmlns="http://www.w3.org/2000/svg" xmlns:xlink="http://www.w3.org/1999/xlink" contentScriptType="application/ecmascript" contentStyleType="text/css" height="192px" preserveAspectRatio="none" style="width:204px;height:192px;" version="1.1" viewBox="0 0 204 192" width="204px" zoomAndPan="magnify"><defs/><g><!--class IllegalModelException--><rect fill="#F8FAFA" height="78.9219" rx="1" ry="1" style="stroke: #E3ECEC; stroke-width: 1.5;" width="197" x="6" y="8"/><ellipse cx="48.75" cy="22" fill="#FFFFFF" rx="9" ry="9" style="stroke: #E3ECEC; stroke-width: 1.0;"/><path d="M50.0313,25.2969 Q49.6875,25.4688 49.3125,25.5547 Q48.9375,25.6406 48.5156,25.6406 Q47.0469,25.6406 46.2734,24.6719 Q45.5,23.7031 45.5,21.8594 Q45.5,20.0156 46.2734,19.0469 Q47.0469,18.0781 48.5156,18.0781 Q48.9375,18.0781 49.3203,18.1641 Q49.7031,18.25 50.0313,18.4219 L50.0313,20.0313 Q49.6563,19.6875 49.3047,19.5313 Q48.9531,19.375 48.5938,19.375 Q47.7969,19.375 47.3906,20 Q46.9844,20.625 46.9844,21.8594 Q46.9844,23.0938 47.3906,23.7188 Q47.7969,24.3438 48.5938,24.3438 Q48.9531,24.3438 49.3047,24.1875 Q49.6563,24.0313 50.0313,23.6875 L50.0313,25.2969 Z "/><text fill="#19273C" font-family="Open Sans" font-size="10" lengthAdjust="spacingAndGlyphs" textLength="104" x="66.25" y="25.4619">IllegalModelException</text><line style="stroke: #E3ECEC; stroke-width: 1.5;" x1="7" x2="202" y1="36" y2="36"/><line style="stroke: #E3ECEC; stroke-width: 1.5;" x1="7" x2="202" y1="44" y2="44"/><ellipse cx="16" cy="55.3203" fill="#84BE84" rx="2" ry="2" style="stroke: #038048; stroke-width: 1.0;"/><text fill="#19273C" font-family="Open Sans" font-size="10" lengthAdjust="spacingAndGlyphs" textLength="173" x="24" y="57.2822">void constructor(string,string,string)</text><ellipse cx="16" cy="66.9609" fill="#84BE84" rx="2" ry="2" style="stroke: #038048; stroke-width: 1.0;"/><text fill="#19273C" font-family="Open Sans" font-size="10" lengthAdjust="spacingAndGlyphs" textLength="99" x="24" y="68.9229">string getModelFile()</text><ellipse cx="16" cy="78.6016" fill="#84BE84" rx="2" ry="2" style="stroke: #038048; stroke-width: 1.0;"/><text fill="#19273C" font-family="Open Sans" font-size="10" lengthAdjust="spacingAndGlyphs" textLength="111" x="24" y="80.5635">string getFileLocation()</text><!--class BaseException--><rect fill="#F8FAFA" height="44" rx="1" ry="1" style="stroke: #E3ECEC; stroke-width: 1.5;" width="100" x="54.5" y="147"/><ellipse cx="67.5" cy="161" fill="#FFFFFF" rx="9" ry="9" style="stroke: #E3ECEC; stroke-width: 1.0;"/><path d="M68.7813,164.2969 Q68.4375,164.4688 68.0625,164.5547 Q67.6875,164.6406 67.2656,164.6406 Q65.7969,164.6406 65.0234,163.6719 Q64.25,162.7031 64.25,160.8594 Q64.25,159.0156 65.0234,158.0469 Q65.7969,157.0781 67.2656,157.0781 Q67.6875,157.0781 68.0703,157.1641 Q68.4531,157.25 68.7813,157.4219 L68.7813,159.0313 Q68.4063,158.6875 68.0547,158.5313 Q67.7031,158.375 67.3438,158.375 Q66.5469,158.375 66.1406,159 Q65.7344,159.625 65.7344,160.8594 Q65.7344,162.0938 66.1406,162.7188 Q66.5469,163.3438 67.3438,163.3438 Q67.7031,163.3438 68.0547,163.1875 Q68.4063,163.0313 68.7813,162.6875 L68.7813,164.2969 Z "/><text fill="#19273C" font-family="Open Sans" font-size="10" lengthAdjust="spacingAndGlyphs" textLength="72" x="79.5" y="164.4619">BaseException</text><line style="stroke: #E3ECEC; stroke-width: 1.5;" x1="55.5" x2="153.5" y1="175" y2="175"/><line style="stroke: #E3ECEC; stroke-width: 1.5;" x1="55.5" x2="153.5" y1="183" y2="183"/><path d="M104.5,87.298 C104.5,99.805 104.5,113.714 104.5,126.4134 " fill="none" style="stroke: #3C6DF0; stroke-width: 1.0;"/><polygon fill="none" points="111.5,126.7875,104.5,146.7875,97.5001,126.7874,111.5,126.7875" style="stroke: #3C6DF0; stroke-width: 1.0;"/></g></svg>