<?xml version="1.0" encoding="UTF-8" standalone="no"?><svg xmlns="http://www.w3.org/2000/svg" xmlns:xlink="http://www.w3.org/1999/xlink" contentScriptType="application/ecmascript" contentStyleType="text/css" height="87px" preserveAspectRatio="none" style="width:249px;height:87px;" version="1.1" viewBox="0 0 249 87" width="249px" zoomAndPan="magnify"><defs/><g><!--class Introspector--><rect fill="#F8FAFA" height="78.9219" rx="1" ry="1" style="stroke: #E3ECEC; stroke-width: 1.5;" width="242" x="6" y="8"/><ellipse cx="93.75" cy="22" fill="#FFFFFF" rx="9" ry="9" style="stroke: #E3ECEC; stroke-width: 1.0;"/><path d="M95.0313,25.2969 Q94.6875,25.4688 94.3125,25.5547 Q93.9375,25.6406 93.5156,25.6406 Q92.0469,25.6406 91.2734,24.6719 Q90.5,23.7031 90.5,21.8594 Q90.5,20.0156 91.2734,19.0469 Q92.0469,18.0781 93.5156,18.0781 Q93.9375,18.0781 94.3203,18.1641 Q94.7031,18.25 95.0313,18.4219 L95.0313,20.0313 Q94.6563,19.6875 94.3047,19.5313 Q93.9531,19.375 93.5938,19.375 Q92.7969,19.375 92.3906,20 Q91.9844,20.625 91.9844,21.8594 Q91.9844,23.0938 92.3906,23.7188 Q92.7969,24.3438 93.5938,24.3438 Q93.9531,24.3438 94.3047,24.1875 Q94.6563,24.0313 95.0313,23.6875 L95.0313,25.2969 Z "/><text fill="#19273C" font-family="Open Sans" font-size="10" lengthAdjust="spacingAndGlyphs" textLength="59" x="111.25" y="25.4619">Introspector</text><line style="stroke: #E3ECEC; stroke-width: 1.5;" x1="7" x2="247" y1="36" y2="36"/><line style="stroke: #E3ECEC; stroke-width: 1.5;" x1="7" x2="247" y1="44" y2="44"/><ellipse cx="16" cy="55.3203" fill="#84BE84" rx="2" ry="2" style="stroke: #038048; stroke-width: 1.0;"/><text fill="#19273C" font-family="Open Sans" font-size="10" lengthAdjust="spacingAndGlyphs" textLength="158" x="24" y="57.2822">void constructor(ModelManager)</text><ellipse cx="16" cy="66.9609" fill="#84BE84" rx="2" ry="2" style="stroke: #038048; stroke-width: 1.0;"/><text fill="#19273C" font-family="Open Sans" font-size="10" lengthAdjust="spacingAndGlyphs" textLength="202" x="24" y="68.9229">ClassDeclaration[] getClassDeclarations()</text><ellipse cx="16" cy="78.6016" fill="#84BE84" rx="2" ry="2" style="stroke: #038048; stroke-width: 1.0;"/><text fill="#19273C" font-family="Open Sans" font-size="10" lengthAdjust="spacingAndGlyphs" textLength="218" x="24" y="80.5635">ClassDeclaration getClassDeclaration(String)</text></g></svg>