<?xml version="1.0" encoding="UTF-8" standalone="no"?><svg xmlns="http://www.w3.org/2000/svg" xmlns:xlink="http://www.w3.org/1999/xlink" contentScriptType="application/ecmascript" contentStyleType="text/css" height="94px" preserveAspectRatio="none" style="width:244px;height:94px;" version="1.1" viewBox="0 0 244 94" width="244px" zoomAndPan="magnify"><defs/><g><!--class Introspector--><rect fill="#F8FAFA" height="84.8545" rx="1" ry="1" style="stroke: #E3ECEC; stroke-width: 1.5;" width="237" x="6" y="8.5"/><ellipse cx="91.25" cy="22.5" fill="#FFFFFF" rx="9" ry="9" style="stroke: #E3ECEC; stroke-width: 1.0;"/><path d="M92.5283,25.79 Q92.1865,25.9658 91.8105,26.0537 Q91.4346,26.1416 91.0195,26.1416 Q89.5449,26.1416 88.7686,25.1699 Q87.9922,24.1982 87.9922,22.3623 Q87.9922,20.5215 88.7686,19.5498 Q89.5449,18.5781 91.0195,18.5781 Q91.4346,18.5781 91.8154,18.666 Q92.1963,18.7539 92.5283,18.9297 L92.5283,20.5313 Q92.1572,20.1895 91.8081,20.0308 Q91.459,19.8721 91.0879,19.8721 Q90.2969,19.8721 89.894,20.4995 Q89.4912,21.127 89.4912,22.3623 Q89.4912,23.5928 89.894,24.2202 Q90.2969,24.8477 91.0879,24.8477 Q91.459,24.8477 91.8081,24.689 Q92.1572,24.5303 92.5283,24.1885 Z "/><text fill="#19273C" font-family="Open Sans" font-size="10" lengthAdjust="spacingAndGlyphs" textLength="59" x="108.75" y="26.3794">Introspector</text><line style="stroke: #E3ECEC; stroke-width: 1.5;" x1="7" x2="242" y1="36.5" y2="36.5"/><line style="stroke: #E3ECEC; stroke-width: 1.5;" x1="7" x2="242" y1="44.5" y2="44.5"/><ellipse cx="16" cy="56.8091" fill="#84BE84" rx="2" ry="2" style="stroke: #038048; stroke-width: 1.0;"/><text fill="#19273C" font-family="Open Sans" font-size="10" lengthAdjust="spacingAndGlyphs" textLength="156" x="24" y="59.1885">void constructor(ModelManager)</text><ellipse cx="16" cy="70.4272" fill="#84BE84" rx="2" ry="2" style="stroke: #038048; stroke-width: 1.0;"/><text fill="#19273C" font-family="Open Sans" font-size="10" lengthAdjust="spacingAndGlyphs" textLength="197" x="24" y="72.8066">ClassDeclaration[] getClassDeclarations()</text><ellipse cx="16" cy="84.0454" fill="#84BE84" rx="2" ry="2" style="stroke: #038048; stroke-width: 1.0;"/><text fill="#19273C" font-family="Open Sans" font-size="10" lengthAdjust="spacingAndGlyphs" textLength="213" x="24" y="86.4248">ClassDeclaration getClassDeclaration(String)</text></g></svg>