<?xml version="1.0" encoding="UTF-8" standalone="no"?><svg xmlns="http://www.w3.org/2000/svg" xmlns:xlink="http://www.w3.org/1999/xlink" contentScriptType="application/ecmascript" contentStyleType="text/css" height="186px" preserveAspectRatio="none" style="width:154px;height:186px;" version="1.1" viewBox="0 0 154 186" width="154px" zoomAndPan="magnify"><defs><filter height="300%" id="fisui3d" width="300%" x="-1" y="-1"><feGaussianBlur result="blurOut" stdDeviation="2.0"/><feColorMatrix in="blurOut" result="blurOut2" type="matrix" values="0 0 0 0 0 0 0 0 0 0 0 0 0 0 0 0 0 0 .4 0"/><feOffset dx="4.0" dy="4.0" in="blurOut2" result="blurOut3"/><feBlend in="SourceGraphic" in2="blurOut3" mode="normal"/></filter></defs><g><!--class Concept--><rect fill="#FEFECE" filter="url(#fisui3d)" height="60.8047" style="stroke: #A80036; stroke-width: 1.5;" width="139" x="6" y="8"/><ellipse cx="45.75" cy="24" fill="#ADD1B2" rx="11" ry="11" style="stroke: #A80036; stroke-width: 1.0;"/><path d="M48.7188,29.6406 Q48.1406,29.9375 47.5,30.0859 Q46.8594,30.2344 46.1563,30.2344 Q43.6563,30.2344 42.3359,28.5859 Q41.0156,26.9375 41.0156,23.8125 Q41.0156,20.6875 42.3359,19.0313 Q43.6563,17.375 46.1563,17.375 Q46.8594,17.375 47.5078,17.5313 Q48.1563,17.6875 48.7188,17.9844 L48.7188,20.7031 Q48.0938,20.125 47.5,19.8516 Q46.9063,19.5781 46.2813,19.5781 Q44.9375,19.5781 44.25,20.6484 Q43.5625,21.7188 43.5625,23.8125 Q43.5625,25.9063 44.25,26.9766 Q44.9375,28.0469 46.2813,28.0469 Q46.9063,28.0469 47.5,27.7734 Q48.0938,27.5 48.7188,26.9219 L48.7188,29.6406 Z "/><text fill="#000000" font-family="sans-serif" font-size="12" lengthAdjust="spacingAndGlyphs" textLength="52" x="65.25" y="28.1543">Concept</text><line style="stroke: #A80036; stroke-width: 1.5;" x1="7" x2="144" y1="40" y2="40"/><line style="stroke: #A80036; stroke-width: 1.5;" x1="7" x2="144" y1="48" y2="48"/><ellipse cx="17" cy="59.9023" fill="#84BE84" rx="3" ry="3" style="stroke: #038048; stroke-width: 1.0;"/><text fill="#000000" font-family="sans-serif" font-size="11" lengthAdjust="spacingAndGlyphs" textLength="113" x="26" y="62.2104">boolean isConcept()</text><!--class Typed--><rect fill="#FEFECE" filter="url(#fisui3d)" height="48" style="stroke: #A80036; stroke-width: 1.5;" width="69" x="41" y="129"/><ellipse cx="56" cy="145" fill="#ADD1B2" rx="11" ry="11" style="stroke: #A80036; stroke-width: 1.0;"/><path d="M58.9688,150.6406 Q58.3906,150.9375 57.75,151.0859 Q57.1094,151.2344 56.4063,151.2344 Q53.9063,151.2344 52.5859,149.5859 Q51.2656,147.9375 51.2656,144.8125 Q51.2656,141.6875 52.5859,140.0313 Q53.9063,138.375 56.4063,138.375 Q57.1094,138.375 57.7578,138.5313 Q58.4063,138.6875 58.9688,138.9844 L58.9688,141.7031 Q58.3438,141.125 57.75,140.8516 Q57.1563,140.5781 56.5313,140.5781 Q55.1875,140.5781 54.5,141.6484 Q53.8125,142.7188 53.8125,144.8125 Q53.8125,146.9063 54.5,147.9766 Q55.1875,149.0469 56.5313,149.0469 Q57.1563,149.0469 57.75,148.7734 Q58.3438,148.5 58.9688,147.9219 L58.9688,150.6406 Z "/><text fill="#000000" font-family="sans-serif" font-size="12" lengthAdjust="spacingAndGlyphs" textLength="37" x="70" y="149.1543">Typed</text><line style="stroke: #A80036; stroke-width: 1.5;" x1="42" x2="109" y1="161" y2="161"/><line style="stroke: #A80036; stroke-width: 1.5;" x1="42" x2="109" y1="169" y2="169"/><path d="M75.5,69.058 C75.5,81.1313 75.5,95.3402 75.5,108.5536 " fill="none" style="stroke: #A80036; stroke-width: 1.0;"/><polygon fill="none" points="82.5001,108.6686,75.5,128.6686,68.5001,108.6686,82.5001,108.6686" style="stroke: #A80036; stroke-width: 1.0;"/></g></svg>