<?xml version="1.0" encoding="UTF-8" standalone="no"?><svg xmlns="http://www.w3.org/2000/svg" xmlns:xlink="http://www.w3.org/1999/xlink" contentScriptType="application/ecmascript" contentStyleType="text/css" height="456px" preserveAspectRatio="none" style="width:479px;height:456px;" version="1.1" viewBox="0 0 479 456" width="479px" zoomAndPan="magnify"><defs/><g><!--class Registry--><rect fill="#F8FAFA" height="289.127" rx="1" ry="1" style="stroke: #E3ECEC; stroke-width: 1.5;" width="428" x="28" y="166.5"/><ellipse cx="219.25" cy="180.5" fill="#FFFFFF" rx="9" ry="9" style="stroke: #E3ECEC; stroke-width: 1.0;"/><path d="M220.5283,183.79 Q220.1865,183.9658 219.8105,184.0537 Q219.4346,184.1416 219.0195,184.1416 Q217.5449,184.1416 216.7686,183.1699 Q215.9922,182.1982 215.9922,180.3623 Q215.9922,178.5215 216.7686,177.5498 Q217.5449,176.5781 219.0195,176.5781 Q219.4346,176.5781 219.8154,176.666 Q220.1963,176.7539 220.5283,176.9297 L220.5283,178.5313 Q220.1572,178.1895 219.8081,178.0308 Q219.459,177.8721 219.0879,177.8721 Q218.2969,177.8721 217.894,178.4995 Q217.4912,179.127 217.4912,180.3623 Q217.4912,181.5928 217.894,182.2202 Q218.2969,182.8477 219.0879,182.8477 Q219.459,182.8477 219.8081,182.689 Q220.1572,182.5303 220.5283,182.1885 Z "/><text fill="#19273C" font-family="Open Sans" font-size="10" lengthAdjust="spacingAndGlyphs" textLength="38" x="236.75" y="184.3794">Registry</text><line style="stroke: #E3ECEC; stroke-width: 1.5;" x1="29" x2="455" y1="194.5" y2="194.5"/><line style="stroke: #E3ECEC; stroke-width: 1.5;" x1="29" x2="455" y1="202.5" y2="202.5"/><ellipse cx="38" cy="214.8091" fill="#84BE84" rx="2" ry="2" style="stroke: #038048; stroke-width: 1.0;"/><text fill="#19273C" font-family="Open Sans" font-size="10" lengthAdjust="spacingAndGlyphs" textLength="226" x="46" y="217.1885">Promise getAllRegistries(SecurityContext,string)</text><ellipse cx="38" cy="228.4272" fill="#84BE84" rx="2" ry="2" style="stroke: #038048; stroke-width: 1.0;"/><text fill="#19273C" font-family="Open Sans" font-size="10" lengthAdjust="spacingAndGlyphs" textLength="234" x="46" y="230.8066">Promise getRegistry(SecurityContext,string,string)</text><ellipse cx="38" cy="242.0454" fill="#84BE84" rx="2" ry="2" style="stroke: #038048; stroke-width: 1.0;"/><text fill="#19273C" font-family="Open Sans" font-size="10" lengthAdjust="spacingAndGlyphs" textLength="247" x="46" y="244.4248">Promise existsRegistry(SecurityContext,string,string)</text><ellipse cx="38" cy="255.6636" fill="#84BE84" rx="2" ry="2" style="stroke: #038048; stroke-width: 1.0;"/><text fill="#19273C" font-family="Open Sans" font-size="10" lengthAdjust="spacingAndGlyphs" textLength="266" x="46" y="258.043">Promise addRegistry(SecurityContext,string,string,string)</text><ellipse cx="38" cy="269.2817" fill="#84BE84" rx="2" ry="2" style="stroke: #038048; stroke-width: 1.0;"/><text fill="#19273C" font-family="Open Sans" font-size="10" lengthAdjust="spacingAndGlyphs" textLength="404" x="46" y="271.6611">void constructor(string,string,string,SecurityContext,ModelManager,Factory,Serializer)</text><ellipse cx="38" cy="282.8999" fill="#84BE84" rx="2" ry="2" style="stroke: #038048; stroke-width: 1.0;"/><text fill="#19273C" font-family="Open Sans" font-size="10" lengthAdjust="spacingAndGlyphs" textLength="128" x="46" y="285.2793">Promise addAll(Resource[])</text><ellipse cx="38" cy="296.5181" fill="#84BE84" rx="2" ry="2" style="stroke: #038048; stroke-width: 1.0;"/><text fill="#19273C" font-family="Open Sans" font-size="10" lengthAdjust="spacingAndGlyphs" textLength="110" x="46" y="298.8975">Promise add(Resource)</text><ellipse cx="38" cy="310.1362" fill="#84BE84" rx="2" ry="2" style="stroke: #038048; stroke-width: 1.0;"/><text fill="#19273C" font-family="Open Sans" font-size="10" lengthAdjust="spacingAndGlyphs" textLength="144" x="46" y="312.5156">Promise updateAll(Resource[])</text><ellipse cx="38" cy="323.7544" fill="#84BE84" rx="2" ry="2" style="stroke: #038048; stroke-width: 1.0;"/><text fill="#19273C" font-family="Open Sans" font-size="10" lengthAdjust="spacingAndGlyphs" textLength="126" x="46" y="326.1338">Promise update(Resource)</text><ellipse cx="38" cy="337.3726" fill="#84BE84" rx="2" ry="2" style="stroke: #038048; stroke-width: 1.0;"/><text fill="#19273C" font-family="Open Sans" font-size="10" lengthAdjust="spacingAndGlyphs" textLength="96" x="46" y="339.752">Promise removeAll()</text><ellipse cx="38" cy="350.9907" fill="#84BE84" rx="2" ry="2" style="stroke: #038048; stroke-width: 1.0;"/><text fill="#19273C" font-family="Open Sans" font-size="10" lengthAdjust="spacingAndGlyphs" textLength="84" x="46" y="353.3701">Promise remove()</text><ellipse cx="38" cy="364.6089" fill="#84BE84" rx="2" ry="2" style="stroke: #038048; stroke-width: 1.0;"/><text fill="#19273C" font-family="Open Sans" font-size="10" lengthAdjust="spacingAndGlyphs" textLength="75" x="46" y="366.9883">Promise getAll()</text><ellipse cx="38" cy="378.2271" fill="#84BE84" rx="2" ry="2" style="stroke: #038048; stroke-width: 1.0;"/><text fill="#19273C" font-family="Open Sans" font-size="10" lengthAdjust="spacingAndGlyphs" textLength="90" x="46" y="380.6064">Promise get(string)</text><ellipse cx="38" cy="391.8452" fill="#84BE84" rx="2" ry="2" style="stroke: #038048; stroke-width: 1.0;"/><text fill="#19273C" font-family="Open Sans" font-size="10" lengthAdjust="spacingAndGlyphs" textLength="103" x="46" y="394.2246">Promise exists(string)</text><ellipse cx="38" cy="405.4634" fill="#84BE84" rx="2" ry="2" style="stroke: #038048; stroke-width: 1.0;"/><text fill="#19273C" font-family="Open Sans" font-size="10" lengthAdjust="spacingAndGlyphs" textLength="93" x="46" y="407.8428">Promise find(string)</text><ellipse cx="38" cy="419.0815" fill="#84BE84" rx="2" ry="2" style="stroke: #038048; stroke-width: 1.0;"/><text fill="#19273C" font-family="Open Sans" font-size="10" lengthAdjust="spacingAndGlyphs" textLength="102" x="46" y="421.4609">Promise query(string)</text><ellipse cx="38" cy="432.6997" fill="#84BE84" rx="2" ry="2" style="stroke: #038048; stroke-width: 1.0;"/><text fill="#19273C" font-family="Open Sans" font-size="10" lengthAdjust="spacingAndGlyphs" textLength="95" x="46" y="435.0791">Promise resolveAll()</text><ellipse cx="38" cy="446.3179" fill="#84BE84" rx="2" ry="2" style="stroke: #038048; stroke-width: 1.0;"/><text fill="#19273C" font-family="Open Sans" font-size="10" lengthAdjust="spacingAndGlyphs" textLength="110" x="46" y="448.6973">Promise resolve(string)</text><!--class ParticipantRegistry--><rect fill="#F8FAFA" height="98.4727" rx="1" ry="1" style="stroke: #E3ECEC; stroke-width: 1.5;" width="472" x="6" y="8"/><ellipse cx="192.75" cy="22" fill="#FFFFFF" rx="9" ry="9" style="stroke: #E3ECEC; stroke-width: 1.0;"/><path d="M194.0283,25.29 Q193.6865,25.4658 193.3105,25.5537 Q192.9346,25.6416 192.5195,25.6416 Q191.0449,25.6416 190.2686,24.6699 Q189.4922,23.6982 189.4922,21.8623 Q189.4922,20.0215 190.2686,19.0498 Q191.0449,18.0781 192.5195,18.0781 Q192.9346,18.0781 193.3154,18.166 Q193.6963,18.2539 194.0283,18.4297 L194.0283,20.0313 Q193.6572,19.6895 193.3081,19.5308 Q192.959,19.3721 192.5879,19.3721 Q191.7969,19.3721 191.394,19.9995 Q190.9912,20.627 190.9912,21.8623 Q190.9912,23.0928 191.394,23.7202 Q191.7969,24.3477 192.5879,24.3477 Q192.959,24.3477 193.3081,24.189 Q193.6572,24.0303 194.0283,23.6885 Z "/><text fill="#19273C" font-family="Open Sans" font-size="10" lengthAdjust="spacingAndGlyphs" textLength="91" x="210.25" y="25.8794">ParticipantRegistry</text><line style="stroke: #E3ECEC; stroke-width: 1.5;" x1="7" x2="477" y1="36" y2="36"/><line style="stroke: #E3ECEC; stroke-width: 1.5;" x1="7" x2="477" y1="44" y2="44"/><ellipse cx="16" cy="56.3091" fill="#84BE84" rx="2" ry="2" style="stroke: #038048; stroke-width: 1.0;"/><text fill="#19273C" font-family="Open Sans" font-size="10" lengthAdjust="spacingAndGlyphs" textLength="408" x="24" y="58.6885">Promise getAllParticipantRegistries(SecurityContext,ModelManager,Factory,Serializer)</text><ellipse cx="16" cy="69.9272" fill="#84BE84" rx="2" ry="2" style="stroke: #038048; stroke-width: 1.0;"/><text fill="#19273C" font-family="Open Sans" font-size="10" lengthAdjust="spacingAndGlyphs" textLength="416" x="24" y="72.3066">Promise getParticipantRegistry(SecurityContext,string,ModelManager,Factory,Serializer)</text><ellipse cx="16" cy="83.5454" fill="#84BE84" rx="2" ry="2" style="stroke: #038048; stroke-width: 1.0;"/><text fill="#19273C" font-family="Open Sans" font-size="10" lengthAdjust="spacingAndGlyphs" textLength="448" x="24" y="85.9248">Promise addParticipantRegistry(SecurityContext,string,string,ModelManager,Factory,Serializer)</text><ellipse cx="16" cy="97.1636" fill="#84BE84" rx="2" ry="2" style="stroke: #038048; stroke-width: 1.0;"/><text fill="#19273C" font-family="Open Sans" font-size="10" lengthAdjust="spacingAndGlyphs" textLength="375" x="24" y="99.543">void constructor(string,string,SecurityContext,ModelManager,Factory,Serializer)</text><path d="M242,106.29 C242,118.238 242,131.715 242,145.904 " fill="none" style="stroke: #3C6DF0; stroke-width: 1.0;"/><polygon fill="none" points="249,146.352,242,166.352,235,146.352,249,146.352" style="stroke: #3C6DF0; stroke-width: 1.0;"/></g></svg>