<?xml version="1.0" encoding="UTF-8" standalone="no"?><svg xmlns="http://www.w3.org/2000/svg" xmlns:xlink="http://www.w3.org/1999/xlink" contentScriptType="application/ecmascript" contentStyleType="text/css" height="262px" preserveAspectRatio="none" style="width:449px;height:262px;" version="1.1" viewBox="0 0 449 262" width="449px" zoomAndPan="magnify"><defs/><g><!--class Registry--><rect fill="#F8FAFA" height="253.5313" rx="1" ry="1" style="stroke: #E3ECEC; stroke-width: 1.5;" width="442" x="6" y="8"/><ellipse cx="203.25" cy="22" fill="#FFFFFF" rx="9" ry="9" style="stroke: #E3ECEC; stroke-width: 1.0;"/><path d="M204.5313,25.2969 Q204.1875,25.4688 203.8125,25.5547 Q203.4375,25.6406 203.0156,25.6406 Q201.5469,25.6406 200.7734,24.6719 Q200,23.7031 200,21.8594 Q200,20.0156 200.7734,19.0469 Q201.5469,18.0781 203.0156,18.0781 Q203.4375,18.0781 203.8203,18.1641 Q204.2031,18.25 204.5313,18.4219 L204.5313,20.0313 Q204.1563,19.6875 203.8047,19.5313 Q203.4531,19.375 203.0938,19.375 Q202.2969,19.375 201.8906,20 Q201.4844,20.625 201.4844,21.8594 Q201.4844,23.0938 201.8906,23.7188 Q202.2969,24.3438 203.0938,24.3438 Q203.4531,24.3438 203.8047,24.1875 Q204.1563,24.0313 204.5313,23.6875 L204.5313,25.2969 Z "/><text fill="#19273C" font-family="Open Sans" font-size="10" lengthAdjust="spacingAndGlyphs" textLength="40" x="220.75" y="25.4619">Registry</text><line style="stroke: #E3ECEC; stroke-width: 1.5;" x1="7" x2="447" y1="36" y2="36"/><line style="stroke: #E3ECEC; stroke-width: 1.5;" x1="7" x2="447" y1="44" y2="44"/><ellipse cx="16" cy="55.3203" fill="#84BE84" rx="2" ry="2" style="stroke: #038048; stroke-width: 1.0;"/><text fill="#19273C" font-family="Open Sans" font-size="10" lengthAdjust="spacingAndGlyphs" textLength="235" x="24" y="57.2822">Promise getAllRegistries(SecurityContext,string)</text><ellipse cx="16" cy="66.9609" fill="#84BE84" rx="2" ry="2" style="stroke: #038048; stroke-width: 1.0;"/><text fill="#19273C" font-family="Open Sans" font-size="10" lengthAdjust="spacingAndGlyphs" textLength="247" x="24" y="68.9229">Promise getRegistry(SecurityContext,string,string)</text><ellipse cx="16" cy="78.6016" fill="#84BE84" rx="2" ry="2" style="stroke: #038048; stroke-width: 1.0;"/><text fill="#19273C" font-family="Open Sans" font-size="10" lengthAdjust="spacingAndGlyphs" textLength="259" x="24" y="80.5635">Promise existsRegistry(SecurityContext,string,string)</text><ellipse cx="16" cy="90.2422" fill="#84BE84" rx="2" ry="2" style="stroke: #038048; stroke-width: 1.0;"/><text fill="#19273C" font-family="Open Sans" font-size="10" lengthAdjust="spacingAndGlyphs" textLength="279" x="24" y="92.2041">Promise addRegistry(SecurityContext,string,string,string)</text><ellipse cx="16" cy="101.8828" fill="#84BE84" rx="2" ry="2" style="stroke: #038048; stroke-width: 1.0;"/><text fill="#19273C" font-family="Open Sans" font-size="10" lengthAdjust="spacingAndGlyphs" textLength="418" x="24" y="103.8447">void constructor(string,string,string,SecurityContext,ModelManager,Factory,Serializer)</text><ellipse cx="16" cy="113.5234" fill="#84BE84" rx="2" ry="2" style="stroke: #038048; stroke-width: 1.0;"/><text fill="#19273C" font-family="Open Sans" font-size="10" lengthAdjust="spacingAndGlyphs" textLength="133" x="24" y="115.4854">Promise addAll(Resource[])</text><ellipse cx="16" cy="125.1641" fill="#84BE84" rx="2" ry="2" style="stroke: #038048; stroke-width: 1.0;"/><text fill="#19273C" font-family="Open Sans" font-size="10" lengthAdjust="spacingAndGlyphs" textLength="114" x="24" y="127.126">Promise add(Resource)</text><ellipse cx="16" cy="136.8047" fill="#84BE84" rx="2" ry="2" style="stroke: #038048; stroke-width: 1.0;"/><text fill="#19273C" font-family="Open Sans" font-size="10" lengthAdjust="spacingAndGlyphs" textLength="149" x="24" y="138.7666">Promise updateAll(Resource[])</text><ellipse cx="16" cy="148.4453" fill="#84BE84" rx="2" ry="2" style="stroke: #038048; stroke-width: 1.0;"/><text fill="#19273C" font-family="Open Sans" font-size="10" lengthAdjust="spacingAndGlyphs" textLength="130" x="24" y="150.4072">Promise update(Resource)</text><ellipse cx="16" cy="160.0859" fill="#84BE84" rx="2" ry="2" style="stroke: #038048; stroke-width: 1.0;"/><text fill="#19273C" font-family="Open Sans" font-size="10" lengthAdjust="spacingAndGlyphs" textLength="100" x="24" y="162.0479">Promise removeAll()</text><ellipse cx="16" cy="171.7266" fill="#84BE84" rx="2" ry="2" style="stroke: #038048; stroke-width: 1.0;"/><text fill="#19273C" font-family="Open Sans" font-size="10" lengthAdjust="spacingAndGlyphs" textLength="89" x="24" y="173.6885">Promise remove()</text><ellipse cx="16" cy="183.3672" fill="#84BE84" rx="2" ry="2" style="stroke: #038048; stroke-width: 1.0;"/><text fill="#19273C" font-family="Open Sans" font-size="10" lengthAdjust="spacingAndGlyphs" textLength="78" x="24" y="185.3291">Promise getAll()</text><ellipse cx="16" cy="195.0078" fill="#84BE84" rx="2" ry="2" style="stroke: #038048; stroke-width: 1.0;"/><text fill="#19273C" font-family="Open Sans" font-size="10" lengthAdjust="spacingAndGlyphs" textLength="94" x="24" y="196.9697">Promise get(string)</text><ellipse cx="16" cy="206.6484" fill="#84BE84" rx="2" ry="2" style="stroke: #038048; stroke-width: 1.0;"/><text fill="#19273C" font-family="Open Sans" font-size="10" lengthAdjust="spacingAndGlyphs" textLength="106" x="24" y="208.6104">Promise exists(string)</text><ellipse cx="16" cy="218.2891" fill="#84BE84" rx="2" ry="2" style="stroke: #038048; stroke-width: 1.0;"/><text fill="#19273C" font-family="Open Sans" font-size="10" lengthAdjust="spacingAndGlyphs" textLength="96" x="24" y="220.251">Promise find(string)</text><ellipse cx="16" cy="229.9297" fill="#84BE84" rx="2" ry="2" style="stroke: #038048; stroke-width: 1.0;"/><text fill="#19273C" font-family="Open Sans" font-size="10" lengthAdjust="spacingAndGlyphs" textLength="106" x="24" y="231.8916">Promise query(string)</text><ellipse cx="16" cy="241.5703" fill="#84BE84" rx="2" ry="2" style="stroke: #038048; stroke-width: 1.0;"/><text fill="#19273C" font-family="Open Sans" font-size="10" lengthAdjust="spacingAndGlyphs" textLength="97" x="24" y="243.5322">Promise resolveAll()</text><ellipse cx="16" cy="253.2109" fill="#84BE84" rx="2" ry="2" style="stroke: #038048; stroke-width: 1.0;"/><text fill="#19273C" font-family="Open Sans" font-size="10" lengthAdjust="spacingAndGlyphs" textLength="113" x="24" y="255.1729">Promise resolve(string)</text></g></svg>