<?xml version="1.0" encoding="UTF-8" standalone="no"?><svg xmlns="http://www.w3.org/2000/svg" xmlns:xlink="http://www.w3.org/1999/xlink" contentScriptType="application/ecmascript" contentStyleType="text/css" height="298px" preserveAspectRatio="none" style="width:435px;height:298px;" version="1.1" viewBox="0 0 435 298" width="435px" zoomAndPan="magnify"><defs/><g><!--class Registry--><rect fill="#F8FAFA" height="289.127" rx="1" ry="1" style="stroke: #E3ECEC; stroke-width: 1.5;" width="428" x="6" y="8.5"/><ellipse cx="197.25" cy="22.5" fill="#FFFFFF" rx="9" ry="9" style="stroke: #E3ECEC; stroke-width: 1.0;"/><path d="M198.5283,25.79 Q198.1865,25.9658 197.8105,26.0537 Q197.4346,26.1416 197.0195,26.1416 Q195.5449,26.1416 194.7686,25.1699 Q193.9922,24.1982 193.9922,22.3623 Q193.9922,20.5215 194.7686,19.5498 Q195.5449,18.5781 197.0195,18.5781 Q197.4346,18.5781 197.8154,18.666 Q198.1963,18.7539 198.5283,18.9297 L198.5283,20.5313 Q198.1572,20.1895 197.8081,20.0308 Q197.459,19.8721 197.0879,19.8721 Q196.2969,19.8721 195.894,20.4995 Q195.4912,21.127 195.4912,22.3623 Q195.4912,23.5928 195.894,24.2202 Q196.2969,24.8477 197.0879,24.8477 Q197.459,24.8477 197.8081,24.689 Q198.1572,24.5303 198.5283,24.1885 Z "/><text fill="#19273C" font-family="Open Sans" font-size="10" lengthAdjust="spacingAndGlyphs" textLength="38" x="214.75" y="26.3794">Registry</text><line style="stroke: #E3ECEC; stroke-width: 1.5;" x1="7" x2="433" y1="36.5" y2="36.5"/><line style="stroke: #E3ECEC; stroke-width: 1.5;" x1="7" x2="433" y1="44.5" y2="44.5"/><ellipse cx="16" cy="56.8091" fill="#84BE84" rx="2" ry="2" style="stroke: #038048; stroke-width: 1.0;"/><text fill="#19273C" font-family="Open Sans" font-size="10" lengthAdjust="spacingAndGlyphs" textLength="226" x="24" y="59.1885">Promise getAllRegistries(SecurityContext,string)</text><ellipse cx="16" cy="70.4272" fill="#84BE84" rx="2" ry="2" style="stroke: #038048; stroke-width: 1.0;"/><text fill="#19273C" font-family="Open Sans" font-size="10" lengthAdjust="spacingAndGlyphs" textLength="234" x="24" y="72.8066">Promise getRegistry(SecurityContext,string,string)</text><ellipse cx="16" cy="84.0454" fill="#84BE84" rx="2" ry="2" style="stroke: #038048; stroke-width: 1.0;"/><text fill="#19273C" font-family="Open Sans" font-size="10" lengthAdjust="spacingAndGlyphs" textLength="247" x="24" y="86.4248">Promise existsRegistry(SecurityContext,string,string)</text><ellipse cx="16" cy="97.6636" fill="#84BE84" rx="2" ry="2" style="stroke: #038048; stroke-width: 1.0;"/><text fill="#19273C" font-family="Open Sans" font-size="10" lengthAdjust="spacingAndGlyphs" textLength="266" x="24" y="100.043">Promise addRegistry(SecurityContext,string,string,string)</text><ellipse cx="16" cy="111.2817" fill="#84BE84" rx="2" ry="2" style="stroke: #038048; stroke-width: 1.0;"/><text fill="#19273C" font-family="Open Sans" font-size="10" lengthAdjust="spacingAndGlyphs" textLength="404" x="24" y="113.6611">void constructor(string,string,string,SecurityContext,ModelManager,Factory,Serializer)</text><ellipse cx="16" cy="124.8999" fill="#84BE84" rx="2" ry="2" style="stroke: #038048; stroke-width: 1.0;"/><text fill="#19273C" font-family="Open Sans" font-size="10" lengthAdjust="spacingAndGlyphs" textLength="128" x="24" y="127.2793">Promise addAll(Resource[])</text><ellipse cx="16" cy="138.5181" fill="#84BE84" rx="2" ry="2" style="stroke: #038048; stroke-width: 1.0;"/><text fill="#19273C" font-family="Open Sans" font-size="10" lengthAdjust="spacingAndGlyphs" textLength="110" x="24" y="140.8975">Promise add(Resource)</text><ellipse cx="16" cy="152.1362" fill="#84BE84" rx="2" ry="2" style="stroke: #038048; stroke-width: 1.0;"/><text fill="#19273C" font-family="Open Sans" font-size="10" lengthAdjust="spacingAndGlyphs" textLength="144" x="24" y="154.5156">Promise updateAll(Resource[])</text><ellipse cx="16" cy="165.7544" fill="#84BE84" rx="2" ry="2" style="stroke: #038048; stroke-width: 1.0;"/><text fill="#19273C" font-family="Open Sans" font-size="10" lengthAdjust="spacingAndGlyphs" textLength="126" x="24" y="168.1338">Promise update(Resource)</text><ellipse cx="16" cy="179.3726" fill="#84BE84" rx="2" ry="2" style="stroke: #038048; stroke-width: 1.0;"/><text fill="#19273C" font-family="Open Sans" font-size="10" lengthAdjust="spacingAndGlyphs" textLength="96" x="24" y="181.752">Promise removeAll()</text><ellipse cx="16" cy="192.9907" fill="#84BE84" rx="2" ry="2" style="stroke: #038048; stroke-width: 1.0;"/><text fill="#19273C" font-family="Open Sans" font-size="10" lengthAdjust="spacingAndGlyphs" textLength="84" x="24" y="195.3701">Promise remove()</text><ellipse cx="16" cy="206.6089" fill="#84BE84" rx="2" ry="2" style="stroke: #038048; stroke-width: 1.0;"/><text fill="#19273C" font-family="Open Sans" font-size="10" lengthAdjust="spacingAndGlyphs" textLength="75" x="24" y="208.9883">Promise getAll()</text><ellipse cx="16" cy="220.2271" fill="#84BE84" rx="2" ry="2" style="stroke: #038048; stroke-width: 1.0;"/><text fill="#19273C" font-family="Open Sans" font-size="10" lengthAdjust="spacingAndGlyphs" textLength="90" x="24" y="222.6064">Promise get(string)</text><ellipse cx="16" cy="233.8452" fill="#84BE84" rx="2" ry="2" style="stroke: #038048; stroke-width: 1.0;"/><text fill="#19273C" font-family="Open Sans" font-size="10" lengthAdjust="spacingAndGlyphs" textLength="103" x="24" y="236.2246">Promise exists(string)</text><ellipse cx="16" cy="247.4634" fill="#84BE84" rx="2" ry="2" style="stroke: #038048; stroke-width: 1.0;"/><text fill="#19273C" font-family="Open Sans" font-size="10" lengthAdjust="spacingAndGlyphs" textLength="93" x="24" y="249.8428">Promise find(string)</text><ellipse cx="16" cy="261.0815" fill="#84BE84" rx="2" ry="2" style="stroke: #038048; stroke-width: 1.0;"/><text fill="#19273C" font-family="Open Sans" font-size="10" lengthAdjust="spacingAndGlyphs" textLength="102" x="24" y="263.4609">Promise query(string)</text><ellipse cx="16" cy="274.6997" fill="#84BE84" rx="2" ry="2" style="stroke: #038048; stroke-width: 1.0;"/><text fill="#19273C" font-family="Open Sans" font-size="10" lengthAdjust="spacingAndGlyphs" textLength="95" x="24" y="277.0791">Promise resolveAll()</text><ellipse cx="16" cy="288.3179" fill="#84BE84" rx="2" ry="2" style="stroke: #038048; stroke-width: 1.0;"/><text fill="#19273C" font-family="Open Sans" font-size="10" lengthAdjust="spacingAndGlyphs" textLength="110" x="24" y="290.6973">Promise resolve(string)</text></g></svg>