<?xml version="1.0" encoding="UTF-8" standalone="no"?><svg xmlns="http://www.w3.org/2000/svg" xmlns:xlink="http://www.w3.org/1999/xlink" contentScriptType="application/ecmascript" contentStyleType="text/css" height="180px" preserveAspectRatio="none" style="width:145px;height:180px;" version="1.1" viewBox="0 0 145 180" width="145px" zoomAndPan="magnify"><defs/><g><!--class Relationship--><rect fill="#F8FAFA" height="67.2813" rx="1" ry="1" style="stroke: #E3ECEC; stroke-width: 1.5;" width="138" x="6" y="8"/><ellipse cx="42.4" cy="22" fill="#FFFFFF" rx="9" ry="9" style="stroke: #E3ECEC; stroke-width: 1.0;"/><path d="M43.6813,25.2969 Q43.3375,25.4688 42.9625,25.5547 Q42.5875,25.6406 42.1656,25.6406 Q40.6969,25.6406 39.9234,24.6719 Q39.15,23.7031 39.15,21.8594 Q39.15,20.0156 39.9234,19.0469 Q40.6969,18.0781 42.1656,18.0781 Q42.5875,18.0781 42.9703,18.1641 Q43.3531,18.25 43.6813,18.4219 L43.6813,20.0313 Q43.3063,19.6875 42.9547,19.5313 Q42.6031,19.375 42.2438,19.375 Q41.4469,19.375 41.0406,20 Q40.6344,20.625 40.6344,21.8594 Q40.6344,23.0938 41.0406,23.7188 Q41.4469,24.3438 42.2438,24.3438 Q42.6031,24.3438 42.9547,24.1875 Q43.3063,24.0313 43.6813,23.6875 L43.6813,25.2969 Z "/><text fill="#19273C" font-family="Open Sans" font-size="10" lengthAdjust="spacingAndGlyphs" textLength="58" x="59.6" y="25.4619">Relationship</text><line style="stroke: #E3ECEC; stroke-width: 1.5;" x1="7" x2="143" y1="36" y2="36"/><line style="stroke: #E3ECEC; stroke-width: 1.5;" x1="7" x2="143" y1="44" y2="44"/><ellipse cx="16" cy="55.3203" fill="#84BE84" rx="2" ry="2" style="stroke: #038048; stroke-width: 1.0;"/><text fill="#19273C" font-family="Open Sans" font-size="10" lengthAdjust="spacingAndGlyphs" textLength="79" x="24" y="57.2822">String toString()</text><ellipse cx="16" cy="66.9609" fill="#84BE84" rx="2" ry="2" style="stroke: #038048; stroke-width: 1.0;"/><text fill="#19273C" font-family="Open Sans" font-size="10" lengthAdjust="spacingAndGlyphs" textLength="114" x="24" y="68.9229">boolean isRelationship()</text><!--class Identifiable--><rect fill="#F8FAFA" height="44" rx="1" ry="1" style="stroke: #E3ECEC; stroke-width: 1.5;" width="81" x="34.5" y="135"/><ellipse cx="47.5" cy="149" fill="#FFFFFF" rx="9" ry="9" style="stroke: #E3ECEC; stroke-width: 1.0;"/><path d="M48.7813,152.2969 Q48.4375,152.4688 48.0625,152.5547 Q47.6875,152.6406 47.2656,152.6406 Q45.7969,152.6406 45.0234,151.6719 Q44.25,150.7031 44.25,148.8594 Q44.25,147.0156 45.0234,146.0469 Q45.7969,145.0781 47.2656,145.0781 Q47.6875,145.0781 48.0703,145.1641 Q48.4531,145.25 48.7813,145.4219 L48.7813,147.0313 Q48.4063,146.6875 48.0547,146.5313 Q47.7031,146.375 47.3438,146.375 Q46.5469,146.375 46.1406,147 Q45.7344,147.625 45.7344,148.8594 Q45.7344,150.0938 46.1406,150.7188 Q46.5469,151.3438 47.3438,151.3438 Q47.7031,151.3438 48.0547,151.1875 Q48.4063,151.0313 48.7813,150.6875 L48.7813,152.2969 Z "/><text fill="#19273C" font-family="Open Sans" font-size="10" lengthAdjust="spacingAndGlyphs" textLength="53" x="59.5" y="152.4619">Identifiable</text><line style="stroke: #E3ECEC; stroke-width: 1.5;" x1="35.5" x2="114.5" y1="163" y2="163"/><line style="stroke: #E3ECEC; stroke-width: 1.5;" x1="35.5" x2="114.5" y1="171" y2="171"/><path d="M75,75.025 C75,87.3622 75,101.5804 75,114.6261 " fill="none" style="stroke: #3C6DF0; stroke-width: 1.0;"/><polygon fill="none" points="82.0001,114.9352,75,134.9351,68.0001,114.9351,82.0001,114.9352" style="stroke: #3C6DF0; stroke-width: 1.0;"/></g></svg>