<?xml version="1.0" encoding="UTF-8" standalone="no"?><svg xmlns="http://www.w3.org/2000/svg" xmlns:xlink="http://www.w3.org/1999/xlink" contentScriptType="application/ecmascript" contentStyleType="text/css" height="185px" preserveAspectRatio="none" style="width:147px;height:185px;" version="1.1" viewBox="0 0 147 185" width="147px" zoomAndPan="magnify"><defs/><g><!--class Relationship--><rect fill="#F8FAFA" height="71.2363" rx="1" ry="1" style="stroke: #E3ECEC; stroke-width: 1.5;" width="140" x="6" y="8.5"/><ellipse cx="42.4" cy="22.5" fill="#FFFFFF" rx="9" ry="9" style="stroke: #E3ECEC; stroke-width: 1.0;"/><path d="M43.6783,25.79 Q43.3365,25.9658 42.9605,26.0537 Q42.5846,26.1416 42.1695,26.1416 Q40.6949,26.1416 39.9186,25.1699 Q39.1422,24.1982 39.1422,22.3623 Q39.1422,20.5215 39.9186,19.5498 Q40.6949,18.5781 42.1695,18.5781 Q42.5846,18.5781 42.9654,18.666 Q43.3463,18.7539 43.6783,18.9297 L43.6783,20.5313 Q43.3072,20.1895 42.9581,20.0308 Q42.609,19.8721 42.2379,19.8721 Q41.4469,19.8721 41.044,20.4995 Q40.6412,21.127 40.6412,22.3623 Q40.6412,23.5928 41.044,24.2202 Q41.4469,24.8477 42.2379,24.8477 Q42.609,24.8477 42.9581,24.689 Q43.3072,24.5303 43.6783,24.1885 Z "/><text fill="#19273C" font-family="Open Sans" font-size="10" lengthAdjust="spacingAndGlyphs" textLength="60" x="59.6" y="26.3794">Relationship</text><line style="stroke: #E3ECEC; stroke-width: 1.5;" x1="7" x2="145" y1="36.5" y2="36.5"/><line style="stroke: #E3ECEC; stroke-width: 1.5;" x1="7" x2="145" y1="44.5" y2="44.5"/><ellipse cx="16" cy="56.8091" fill="#84BE84" rx="2" ry="2" style="stroke: #038048; stroke-width: 1.0;"/><text fill="#19273C" font-family="Open Sans" font-size="10" lengthAdjust="spacingAndGlyphs" textLength="73" x="24" y="59.1885">String toString()</text><ellipse cx="16" cy="70.4272" fill="#84BE84" rx="2" ry="2" style="stroke: #038048; stroke-width: 1.0;"/><text fill="#19273C" font-family="Open Sans" font-size="10" lengthAdjust="spacingAndGlyphs" textLength="116" x="24" y="72.8066">boolean isRelationship()</text><!--class Identifiable--><rect fill="#F8FAFA" height="44" rx="1" ry="1" style="stroke: #E3ECEC; stroke-width: 1.5;" width="83" x="34.75" y="140"/><ellipse cx="47.75" cy="154" fill="#FFFFFF" rx="9" ry="9" style="stroke: #E3ECEC; stroke-width: 1.0;"/><path d="M49.0283,157.29 Q48.6865,157.4658 48.3105,157.5537 Q47.9346,157.6416 47.5195,157.6416 Q46.0449,157.6416 45.2686,156.6699 Q44.4922,155.6982 44.4922,153.8623 Q44.4922,152.0215 45.2686,151.0498 Q46.0449,150.0781 47.5195,150.0781 Q47.9346,150.0781 48.3154,150.166 Q48.6963,150.2539 49.0283,150.4297 L49.0283,152.0313 Q48.6572,151.6895 48.3081,151.5308 Q47.959,151.3721 47.5879,151.3721 Q46.7969,151.3721 46.394,151.9995 Q45.9912,152.627 45.9912,153.8623 Q45.9912,155.0928 46.394,155.7202 Q46.7969,156.3477 47.5879,156.3477 Q47.959,156.3477 48.3081,156.189 Q48.6572,156.0303 49.0283,155.6885 Z "/><text fill="#19273C" font-family="Open Sans" font-size="10" lengthAdjust="spacingAndGlyphs" textLength="55" x="59.75" y="157.8794">Identifiable</text><line style="stroke: #E3ECEC; stroke-width: 1.5;" x1="35.75" x2="116.75" y1="168" y2="168"/><line style="stroke: #E3ECEC; stroke-width: 1.5;" x1="35.75" x2="116.75" y1="176" y2="176"/><path d="M76,79.804 C76,92.2875 76,106.4877 76,119.4838 " fill="none" style="stroke: #3C6DF0; stroke-width: 1.0;"/><polygon fill="none" points="83.0001,119.7027,76,139.7027,69.0001,119.7027,83.0001,119.7027" style="stroke: #3C6DF0; stroke-width: 1.0;"/></g></svg>