<?xml version="1.0" encoding="UTF-8" standalone="no"?><svg xmlns="http://www.w3.org/2000/svg" xmlns:xlink="http://www.w3.org/1999/xlink" contentScriptType="application/ecmascript" contentStyleType="text/css" height="180px" preserveAspectRatio="none" style="width:132px;height:180px;" version="1.1" viewBox="0 0 132 180" width="132px" zoomAndPan="magnify"><defs/><g><!--class Resource--><rect fill="#F8FAFA" height="67.2813" rx="1" ry="1" style="stroke: #E3ECEC; stroke-width: 1.5;" width="125" x="6" y="8"/><ellipse cx="42.4" cy="22" fill="#FFFFFF" rx="9" ry="9" style="stroke: #E3ECEC; stroke-width: 1.0;"/><path d="M43.6813,25.2969 Q43.3375,25.4688 42.9625,25.5547 Q42.5875,25.6406 42.1656,25.6406 Q40.6969,25.6406 39.9234,24.6719 Q39.15,23.7031 39.15,21.8594 Q39.15,20.0156 39.9234,19.0469 Q40.6969,18.0781 42.1656,18.0781 Q42.5875,18.0781 42.9703,18.1641 Q43.3531,18.25 43.6813,18.4219 L43.6813,20.0313 Q43.3063,19.6875 42.9547,19.5313 Q42.6031,19.375 42.2438,19.375 Q41.4469,19.375 41.0406,20 Q40.6344,20.625 40.6344,21.8594 Q40.6344,23.0938 41.0406,23.7188 Q41.4469,24.3438 42.2438,24.3438 Q42.6031,24.3438 42.9547,24.1875 Q43.3063,24.0313 43.6813,23.6875 L43.6813,25.2969 Z "/><text fill="#19273C" font-family="Open Sans" font-size="10" lengthAdjust="spacingAndGlyphs" textLength="45" x="59.6" y="25.4619">Resource</text><line style="stroke: #E3ECEC; stroke-width: 1.5;" x1="7" x2="130" y1="36" y2="36"/><line style="stroke: #E3ECEC; stroke-width: 1.5;" x1="7" x2="130" y1="44" y2="44"/><ellipse cx="16" cy="55.3203" fill="#84BE84" rx="2" ry="2" style="stroke: #038048; stroke-width: 1.0;"/><text fill="#19273C" font-family="Open Sans" font-size="10" lengthAdjust="spacingAndGlyphs" textLength="79" x="24" y="57.2822">String toString()</text><ellipse cx="16" cy="66.9609" fill="#84BE84" rx="2" ry="2" style="stroke: #038048; stroke-width: 1.0;"/><text fill="#19273C" font-family="Open Sans" font-size="10" lengthAdjust="spacingAndGlyphs" textLength="101" x="24" y="68.9229">boolean isResource()</text><!--class Identifiable--><rect fill="#F8FAFA" height="44" rx="1" ry="1" style="stroke: #E3ECEC; stroke-width: 1.5;" width="81" x="28" y="135"/><ellipse cx="41" cy="149" fill="#FFFFFF" rx="9" ry="9" style="stroke: #E3ECEC; stroke-width: 1.0;"/><path d="M42.2813,152.2969 Q41.9375,152.4688 41.5625,152.5547 Q41.1875,152.6406 40.7656,152.6406 Q39.2969,152.6406 38.5234,151.6719 Q37.75,150.7031 37.75,148.8594 Q37.75,147.0156 38.5234,146.0469 Q39.2969,145.0781 40.7656,145.0781 Q41.1875,145.0781 41.5703,145.1641 Q41.9531,145.25 42.2813,145.4219 L42.2813,147.0313 Q41.9063,146.6875 41.5547,146.5313 Q41.2031,146.375 40.8438,146.375 Q40.0469,146.375 39.6406,147 Q39.2344,147.625 39.2344,148.8594 Q39.2344,150.0938 39.6406,150.7188 Q40.0469,151.3438 40.8438,151.3438 Q41.2031,151.3438 41.5547,151.1875 Q41.9063,151.0313 42.2813,150.6875 L42.2813,152.2969 Z "/><text fill="#19273C" font-family="Open Sans" font-size="10" lengthAdjust="spacingAndGlyphs" textLength="53" x="53" y="152.4619">Identifiable</text><line style="stroke: #E3ECEC; stroke-width: 1.5;" x1="29" x2="108" y1="163" y2="163"/><line style="stroke: #E3ECEC; stroke-width: 1.5;" x1="29" x2="108" y1="171" y2="171"/><path d="M68.5,75.025 C68.5,87.3622 68.5,101.5804 68.5,114.6261 " fill="none" style="stroke: #3C6DF0; stroke-width: 1.0;"/><polygon fill="none" points="75.5001,114.9352,68.5,134.9351,61.5001,114.9351,75.5001,114.9352" style="stroke: #3C6DF0; stroke-width: 1.0;"/></g></svg>