<?xml version="1.0" encoding="UTF-8" standalone="no"?><svg xmlns="http://www.w3.org/2000/svg" xmlns:xlink="http://www.w3.org/1999/xlink" contentScriptType="application/ecmascript" contentStyleType="text/css" height="285px" preserveAspectRatio="none" style="width:144px;height:285px;" version="1.1" viewBox="0 0 144 285" width="144px" zoomAndPan="magnify"><defs/><g><!--class BaseException--><rect fill="#F8FAFA" height="55.6406" rx="1" ry="1" style="stroke: #E3ECEC; stroke-width: 1.5;" width="137" x="6" y="124"/><ellipse cx="35.65" cy="138" fill="#FFFFFF" rx="9" ry="9" style="stroke: #E3ECEC; stroke-width: 1.0;"/><path d="M36.9313,141.2969 Q36.5875,141.4688 36.2125,141.5547 Q35.8375,141.6406 35.4156,141.6406 Q33.9469,141.6406 33.1734,140.6719 Q32.4,139.7031 32.4,137.8594 Q32.4,136.0156 33.1734,135.0469 Q33.9469,134.0781 35.4156,134.0781 Q35.8375,134.0781 36.2203,134.1641 Q36.6031,134.25 36.9313,134.4219 L36.9313,136.0313 Q36.5563,135.6875 36.2047,135.5313 Q35.8531,135.375 35.4938,135.375 Q34.6969,135.375 34.2906,136 Q33.8844,136.625 33.8844,137.8594 Q33.8844,139.0938 34.2906,139.7188 Q34.6969,140.3438 35.4938,140.3438 Q35.8531,140.3438 36.2047,140.1875 Q36.5563,140.0313 36.9313,139.6875 L36.9313,141.2969 Z "/><text fill="#19273C" font-family="Open Sans" font-size="10" lengthAdjust="spacingAndGlyphs" textLength="72" x="51.35" y="141.4619">BaseException</text><line style="stroke: #E3ECEC; stroke-width: 1.5;" x1="7" x2="142" y1="152" y2="152"/><line style="stroke: #E3ECEC; stroke-width: 1.5;" x1="7" x2="142" y1="160" y2="160"/><ellipse cx="16" cy="171.3203" fill="#84BE84" rx="2" ry="2" style="stroke: #038048; stroke-width: 1.0;"/><text fill="#19273C" font-family="Open Sans" font-size="10" lengthAdjust="spacingAndGlyphs" textLength="113" x="24" y="173.2822">void constructor(string)</text><!--class Error--><rect fill="#F8FAFA" height="44" rx="1" ry="1" style="stroke: #E3ECEC; stroke-width: 1.5;" width="53" x="48" y="240"/><ellipse cx="61" cy="254" fill="#FFFFFF" rx="9" ry="9" style="stroke: #E3ECEC; stroke-width: 1.0;"/><path d="M62.2813,257.2969 Q61.9375,257.4688 61.5625,257.5547 Q61.1875,257.6406 60.7656,257.6406 Q59.2969,257.6406 58.5234,256.6719 Q57.75,255.7031 57.75,253.8594 Q57.75,252.0156 58.5234,251.0469 Q59.2969,250.0781 60.7656,250.0781 Q61.1875,250.0781 61.5703,250.1641 Q61.9531,250.25 62.2813,250.4219 L62.2813,252.0313 Q61.9063,251.6875 61.5547,251.5313 Q61.2031,251.375 60.8438,251.375 Q60.0469,251.375 59.6406,252 Q59.2344,252.625 59.2344,253.8594 Q59.2344,255.0938 59.6406,255.7188 Q60.0469,256.3438 60.8438,256.3438 Q61.2031,256.3438 61.5547,256.1875 Q61.9063,256.0313 62.2813,255.6875 L62.2813,257.2969 Z "/><text fill="#19273C" font-family="Open Sans" font-size="10" lengthAdjust="spacingAndGlyphs" textLength="25" x="73" y="257.4619">Error</text><line style="stroke: #E3ECEC; stroke-width: 1.5;" x1="49" x2="100" y1="268" y2="268"/><line style="stroke: #E3ECEC; stroke-width: 1.5;" x1="49" x2="100" y1="276" y2="276"/><!--class SecurityException--><rect fill="#F8FAFA" height="55.6406" rx="1" ry="1" style="stroke: #E3ECEC; stroke-width: 1.5;" width="137" x="6" y="8"/><ellipse cx="28.45" cy="22" fill="#FFFFFF" rx="9" ry="9" style="stroke: #E3ECEC; stroke-width: 1.0;"/><path d="M29.7313,25.2969 Q29.3875,25.4688 29.0125,25.5547 Q28.6375,25.6406 28.2156,25.6406 Q26.7469,25.6406 25.9734,24.6719 Q25.2,23.7031 25.2,21.8594 Q25.2,20.0156 25.9734,19.0469 Q26.7469,18.0781 28.2156,18.0781 Q28.6375,18.0781 29.0203,18.1641 Q29.4031,18.25 29.7313,18.4219 L29.7313,20.0313 Q29.3563,19.6875 29.0047,19.5313 Q28.6531,19.375 28.2938,19.375 Q27.4969,19.375 27.0906,20 Q26.6844,20.625 26.6844,21.8594 Q26.6844,23.0938 27.0906,23.7188 Q27.4969,24.3438 28.2938,24.3438 Q28.6531,24.3438 29.0047,24.1875 Q29.3563,24.0313 29.7313,23.6875 L29.7313,25.2969 Z "/><text fill="#19273C" font-family="Open Sans" font-size="10" lengthAdjust="spacingAndGlyphs" textLength="88" x="42.55" y="25.4619">SecurityException</text><line style="stroke: #E3ECEC; stroke-width: 1.5;" x1="7" x2="142" y1="36" y2="36"/><line style="stroke: #E3ECEC; stroke-width: 1.5;" x1="7" x2="142" y1="44" y2="44"/><ellipse cx="16" cy="55.3203" fill="#84BE84" rx="2" ry="2" style="stroke: #038048; stroke-width: 1.0;"/><text fill="#19273C" font-family="Open Sans" font-size="10" lengthAdjust="spacingAndGlyphs" textLength="113" x="24" y="57.2822">void constructor(string)</text><path d="M74.5,180.253 C74.5,192.2468 74.5,206.5959 74.5,219.8488 " fill="none" style="stroke: #3C6DF0; stroke-width: 1.0;"/><polygon fill="none" points="81.5001,219.888,74.5,239.888,67.5001,219.888,81.5001,219.888" style="stroke: #3C6DF0; stroke-width: 1.0;"/><path d="M74.5,64.016 C74.5,75.856 74.5,90.108 74.5,103.617 " fill="none" style="stroke: #3C6DF0; stroke-width: 1.0;"/><polygon fill="none" points="81.5001,103.782,74.5,123.782,67.5001,103.782,81.5001,103.782" style="stroke: #3C6DF0; stroke-width: 1.0;"/></g></svg>