<?xml version="1.0" encoding="UTF-8" standalone="no"?><svg xmlns="http://www.w3.org/2000/svg" xmlns:xlink="http://www.w3.org/1999/xlink" contentScriptType="application/ecmascript" contentStyleType="text/css" height="107px" preserveAspectRatio="none" style="width:198px;height:107px;" version="1.1" viewBox="0 0 198 107" width="198px" zoomAndPan="magnify"><defs/><g><!--class SecurityContext--><rect fill="#F8FAFA" height="98.4727" rx="1" ry="1" style="stroke: #E3ECEC; stroke-width: 1.5;" width="191" x="6" y="8"/><ellipse cx="60.25" cy="22" fill="#FFFFFF" rx="9" ry="9" style="stroke: #E3ECEC; stroke-width: 1.0;"/><path d="M61.5283,25.29 Q61.1865,25.4658 60.8105,25.5537 Q60.4346,25.6416 60.0195,25.6416 Q58.5449,25.6416 57.7686,24.6699 Q56.9922,23.6982 56.9922,21.8623 Q56.9922,20.0215 57.7686,19.0498 Q58.5449,18.0781 60.0195,18.0781 Q60.4346,18.0781 60.8154,18.166 Q61.1963,18.2539 61.5283,18.4297 L61.5283,20.0313 Q61.1572,19.6895 60.8081,19.5308 Q60.459,19.3721 60.0879,19.3721 Q59.2969,19.3721 58.894,19.9995 Q58.4912,20.627 58.4912,21.8623 Q58.4912,23.0928 58.894,23.7202 Q59.2969,24.3477 60.0879,24.3477 Q60.459,24.3477 60.8081,24.189 Q61.1572,24.0303 61.5283,23.6885 Z "/><text fill="#19273C" font-family="Open Sans" font-size="10" lengthAdjust="spacingAndGlyphs" textLength="75" x="77.75" y="25.8794">SecurityContext</text><line style="stroke: #E3ECEC; stroke-width: 1.5;" x1="7" x2="196" y1="36" y2="36"/><line style="stroke: #E3ECEC; stroke-width: 1.5;" x1="7" x2="196" y1="44" y2="44"/><ellipse cx="16" cy="56.3091" fill="#84BE84" rx="2" ry="2" style="stroke: #038048; stroke-width: 1.0;"/><text fill="#19273C" font-family="Open Sans" font-size="10" lengthAdjust="spacingAndGlyphs" textLength="167" x="24" y="58.6885">void constructor(Connection,string)</text><ellipse cx="16" cy="69.9272" fill="#84BE84" rx="2" ry="2" style="stroke: #038048; stroke-width: 1.0;"/><text fill="#19273C" font-family="Open Sans" font-size="10" lengthAdjust="spacingAndGlyphs" textLength="132" x="24" y="72.3066">Connection getConnection()</text><ellipse cx="16" cy="83.5454" fill="#84BE84" rx="2" ry="2" style="stroke: #038048; stroke-width: 1.0;"/><text fill="#19273C" font-family="Open Sans" font-size="10" lengthAdjust="spacingAndGlyphs" textLength="73" x="24" y="85.9248">string getUser()</text><ellipse cx="16" cy="97.1636" fill="#84BE84" rx="2" ry="2" style="stroke: #038048; stroke-width: 1.0;"/><text fill="#19273C" font-family="Open Sans" font-size="10" lengthAdjust="spacingAndGlyphs" textLength="75" x="24" y="99.543">Object toJSON()</text></g></svg>