<?xml version="1.0" encoding="UTF-8" standalone="no"?><svg xmlns="http://www.w3.org/2000/svg" xmlns:xlink="http://www.w3.org/1999/xlink" contentScriptType="application/ecmascript" contentStyleType="text/css" height="289px" preserveAspectRatio="none" style="width:142px;height:289px;" version="1.1" viewBox="0 0 142 289" width="142px" zoomAndPan="magnify"><defs/><g><!--class BaseException--><rect fill="#F8FAFA" height="57.6182" rx="1" ry="1" style="stroke: #E3ECEC; stroke-width: 1.5;" width="135" x="6" y="126"/><ellipse cx="35.65" cy="140" fill="#FFFFFF" rx="9" ry="9" style="stroke: #E3ECEC; stroke-width: 1.0;"/><path d="M36.9283,143.29 Q36.5865,143.4658 36.2105,143.5537 Q35.8346,143.6416 35.4195,143.6416 Q33.9449,143.6416 33.1686,142.6699 Q32.3922,141.6982 32.3922,139.8623 Q32.3922,138.0215 33.1686,137.0498 Q33.9449,136.0781 35.4195,136.0781 Q35.8346,136.0781 36.2154,136.166 Q36.5963,136.2539 36.9283,136.4297 L36.9283,138.0313 Q36.5572,137.6895 36.2081,137.5308 Q35.859,137.3721 35.4879,137.3721 Q34.6969,137.3721 34.294,137.9995 Q33.8912,138.627 33.8912,139.8623 Q33.8912,141.0928 34.294,141.7202 Q34.6969,142.3477 35.4879,142.3477 Q35.859,142.3477 36.2081,142.189 Q36.5572,142.0303 36.9283,141.6885 Z "/><text fill="#19273C" font-family="Open Sans" font-size="10" lengthAdjust="spacingAndGlyphs" textLength="70" x="51.35" y="143.8794">BaseException</text><line style="stroke: #E3ECEC; stroke-width: 1.5;" x1="7" x2="140" y1="154" y2="154"/><line style="stroke: #E3ECEC; stroke-width: 1.5;" x1="7" x2="140" y1="162" y2="162"/><ellipse cx="16" cy="174.3091" fill="#84BE84" rx="2" ry="2" style="stroke: #038048; stroke-width: 1.0;"/><text fill="#19273C" font-family="Open Sans" font-size="10" lengthAdjust="spacingAndGlyphs" textLength="111" x="24" y="176.6885">void constructor(string)</text><!--class Error--><rect fill="#F8FAFA" height="44" rx="1" ry="1" style="stroke: #E3ECEC; stroke-width: 1.5;" width="52" x="47.25" y="244"/><ellipse cx="60.25" cy="258" fill="#FFFFFF" rx="9" ry="9" style="stroke: #E3ECEC; stroke-width: 1.0;"/><path d="M61.5283,261.29 Q61.1865,261.4658 60.8105,261.5537 Q60.4346,261.6416 60.0195,261.6416 Q58.5449,261.6416 57.7686,260.6699 Q56.9922,259.6982 56.9922,257.8623 Q56.9922,256.0215 57.7686,255.0498 Q58.5449,254.0781 60.0195,254.0781 Q60.4346,254.0781 60.8154,254.166 Q61.1963,254.2539 61.5283,254.4297 L61.5283,256.0313 Q61.1572,255.6895 60.8081,255.5308 Q60.459,255.3721 60.0879,255.3721 Q59.2969,255.3721 58.894,255.9995 Q58.4912,256.627 58.4912,257.8623 Q58.4912,259.0928 58.894,259.7202 Q59.2969,260.3477 60.0879,260.3477 Q60.459,260.3477 60.8081,260.189 Q61.1572,260.0303 61.5283,259.6885 Z "/><text fill="#19273C" font-family="Open Sans" font-size="10" lengthAdjust="spacingAndGlyphs" textLength="24" x="72.25" y="261.8794">Error</text><line style="stroke: #E3ECEC; stroke-width: 1.5;" x1="48.25" x2="98.25" y1="272" y2="272"/><line style="stroke: #E3ECEC; stroke-width: 1.5;" x1="48.25" x2="98.25" y1="280" y2="280"/><!--class SecurityException--><rect fill="#F8FAFA" height="57.6182" rx="1" ry="1" style="stroke: #E3ECEC; stroke-width: 1.5;" width="135" x="6" y="8"/><ellipse cx="28.9" cy="22" fill="#FFFFFF" rx="9" ry="9" style="stroke: #E3ECEC; stroke-width: 1.0;"/><path d="M30.1783,25.29 Q29.8365,25.4658 29.4605,25.5537 Q29.0846,25.6416 28.6695,25.6416 Q27.1949,25.6416 26.4186,24.6699 Q25.6422,23.6982 25.6422,21.8623 Q25.6422,20.0215 26.4186,19.0498 Q27.1949,18.0781 28.6695,18.0781 Q29.0846,18.0781 29.4654,18.166 Q29.8463,18.2539 30.1783,18.4297 L30.1783,20.0313 Q29.8072,19.6895 29.4581,19.5308 Q29.109,19.3721 28.7379,19.3721 Q27.9469,19.3721 27.544,19.9995 Q27.1412,20.627 27.1412,21.8623 Q27.1412,23.0928 27.544,23.7202 Q27.9469,24.3477 28.7379,24.3477 Q29.109,24.3477 29.4581,24.189 Q29.8072,24.0303 30.1783,23.6885 Z "/><text fill="#19273C" font-family="Open Sans" font-size="10" lengthAdjust="spacingAndGlyphs" textLength="85" x="43.1" y="25.8794">SecurityException</text><line style="stroke: #E3ECEC; stroke-width: 1.5;" x1="7" x2="140" y1="36" y2="36"/><line style="stroke: #E3ECEC; stroke-width: 1.5;" x1="7" x2="140" y1="44" y2="44"/><ellipse cx="16" cy="56.3091" fill="#84BE84" rx="2" ry="2" style="stroke: #038048; stroke-width: 1.0;"/><text fill="#19273C" font-family="Open Sans" font-size="10" lengthAdjust="spacingAndGlyphs" textLength="111" x="24" y="58.6885">void constructor(string)</text><path d="M73.25,184.07 C73.25,196.1772 73.25,210.5803 73.25,223.8565 " fill="none" style="stroke: #3C6DF0; stroke-width: 1.0;"/><polygon fill="none" points="80.2501,223.9111,73.25,243.911,66.2501,223.911,80.2501,223.9111" style="stroke: #3C6DF0; stroke-width: 1.0;"/><path d="M73.25,66.08 C73.25,77.961 73.25,92.148 73.25,105.623 " fill="none" style="stroke: #3C6DF0; stroke-width: 1.0;"/><polygon fill="none" points="80.2501,105.776,73.25,125.776,66.2501,105.776,80.2501,105.776" style="stroke: #3C6DF0; stroke-width: 1.0;"/></g></svg>