<?xml version="1.0" encoding="UTF-8" standalone="no"?><svg xmlns="http://www.w3.org/2000/svg" xmlns:xlink="http://www.w3.org/1999/xlink" contentScriptType="application/ecmascript" contentStyleType="text/css" height="192px" preserveAspectRatio="none" style="width:471px;height:192px;" version="1.1" viewBox="0 0 471 192" width="471px" zoomAndPan="magnify"><defs/><g><!--class Resource--><rect fill="#F8FAFA" height="67.2813" rx="1" ry="1" style="stroke: #E3ECEC; stroke-width: 1.5;" width="125" x="6" y="14"/><ellipse cx="42.4" cy="28" fill="#FFFFFF" rx="9" ry="9" style="stroke: #E3ECEC; stroke-width: 1.0;"/><path d="M43.6813,31.2969 Q43.3375,31.4688 42.9625,31.5547 Q42.5875,31.6406 42.1656,31.6406 Q40.6969,31.6406 39.9234,30.6719 Q39.15,29.7031 39.15,27.8594 Q39.15,26.0156 39.9234,25.0469 Q40.6969,24.0781 42.1656,24.0781 Q42.5875,24.0781 42.9703,24.1641 Q43.3531,24.25 43.6813,24.4219 L43.6813,26.0313 Q43.3063,25.6875 42.9547,25.5313 Q42.6031,25.375 42.2438,25.375 Q41.4469,25.375 41.0406,26 Q40.6344,26.625 40.6344,27.8594 Q40.6344,29.0938 41.0406,29.7188 Q41.4469,30.3438 42.2438,30.3438 Q42.6031,30.3438 42.9547,30.1875 Q43.3063,30.0313 43.6813,29.6875 L43.6813,31.2969 Z "/><text fill="#19273C" font-family="Open Sans" font-size="10" lengthAdjust="spacingAndGlyphs" textLength="45" x="59.6" y="31.4619">Resource</text><line style="stroke: #E3ECEC; stroke-width: 1.5;" x1="7" x2="130" y1="42" y2="42"/><line style="stroke: #E3ECEC; stroke-width: 1.5;" x1="7" x2="130" y1="50" y2="50"/><ellipse cx="16" cy="61.3203" fill="#84BE84" rx="2" ry="2" style="stroke: #038048; stroke-width: 1.0;"/><text fill="#19273C" font-family="Open Sans" font-size="10" lengthAdjust="spacingAndGlyphs" textLength="79" x="24" y="63.2822">String toString()</text><ellipse cx="16" cy="72.9609" fill="#84BE84" rx="2" ry="2" style="stroke: #038048; stroke-width: 1.0;"/><text fill="#19273C" font-family="Open Sans" font-size="10" lengthAdjust="spacingAndGlyphs" textLength="101" x="24" y="74.9229">boolean isResource()</text><!--class Identifiable--><rect fill="#F8FAFA" height="44" rx="1" ry="1" style="stroke: #E3ECEC; stroke-width: 1.5;" width="81" x="28" y="147"/><ellipse cx="41" cy="161" fill="#FFFFFF" rx="9" ry="9" style="stroke: #E3ECEC; stroke-width: 1.0;"/><path d="M42.2813,164.2969 Q41.9375,164.4688 41.5625,164.5547 Q41.1875,164.6406 40.7656,164.6406 Q39.2969,164.6406 38.5234,163.6719 Q37.75,162.7031 37.75,160.8594 Q37.75,159.0156 38.5234,158.0469 Q39.2969,157.0781 40.7656,157.0781 Q41.1875,157.0781 41.5703,157.1641 Q41.9531,157.25 42.2813,157.4219 L42.2813,159.0313 Q41.9063,158.6875 41.5547,158.5313 Q41.2031,158.375 40.8438,158.375 Q40.0469,158.375 39.6406,159 Q39.2344,159.625 39.2344,160.8594 Q39.2344,162.0938 39.6406,162.7188 Q40.0469,163.3438 40.8438,163.3438 Q41.2031,163.3438 41.5547,163.1875 Q41.9063,163.0313 42.2813,162.6875 L42.2813,164.2969 Z "/><text fill="#19273C" font-family="Open Sans" font-size="10" lengthAdjust="spacingAndGlyphs" textLength="53" x="53" y="164.4619">Identifiable</text><line style="stroke: #E3ECEC; stroke-width: 1.5;" x1="29" x2="108" y1="175" y2="175"/><line style="stroke: #E3ECEC; stroke-width: 1.5;" x1="29" x2="108" y1="183" y2="183"/><!--class Serializer--><rect fill="#F8FAFA" height="78.9219" rx="1" ry="1" style="stroke: #E3ECEC; stroke-width: 1.5;" width="304" x="166.5" y="8"/><ellipse cx="292.75" cy="22" fill="#FFFFFF" rx="9" ry="9" style="stroke: #E3ECEC; stroke-width: 1.0;"/><path d="M294.0313,25.2969 Q293.6875,25.4688 293.3125,25.5547 Q292.9375,25.6406 292.5156,25.6406 Q291.0469,25.6406 290.2734,24.6719 Q289.5,23.7031 289.5,21.8594 Q289.5,20.0156 290.2734,19.0469 Q291.0469,18.0781 292.5156,18.0781 Q292.9375,18.0781 293.3203,18.1641 Q293.7031,18.25 294.0313,18.4219 L294.0313,20.0313 Q293.6563,19.6875 293.3047,19.5313 Q292.9531,19.375 292.5938,19.375 Q291.7969,19.375 291.3906,20 Q290.9844,20.625 290.9844,21.8594 Q290.9844,23.0938 291.3906,23.7188 Q291.7969,24.3438 292.5938,24.3438 Q292.9531,24.3438 293.3047,24.1875 Q293.6563,24.0313 294.0313,23.6875 L294.0313,25.2969 Z "/><text fill="#19273C" font-family="Open Sans" font-size="10" lengthAdjust="spacingAndGlyphs" textLength="44" x="310.25" y="25.4619">Serializer</text><line style="stroke: #E3ECEC; stroke-width: 1.5;" x1="167.5" x2="469.5" y1="36" y2="36"/><line style="stroke: #E3ECEC; stroke-width: 1.5;" x1="167.5" x2="469.5" y1="44" y2="44"/><ellipse cx="176.5" cy="55.3203" fill="#84BE84" rx="2" ry="2" style="stroke: #038048; stroke-width: 1.0;"/><text fill="#19273C" font-family="Open Sans" font-size="10" lengthAdjust="spacingAndGlyphs" textLength="198" x="184.5" y="57.2822">void constructor(Factory,ModelManager)</text><ellipse cx="176.5" cy="66.9609" fill="#84BE84" rx="2" ry="2" style="stroke: #038048; stroke-width: 1.0;"/><text fill="#19273C" font-family="Open Sans" font-size="10" lengthAdjust="spacingAndGlyphs" textLength="280" x="184.5" y="68.9229">Object toJSON(Resource,Object,boolean,boolean,boolean)</text><ellipse cx="176.5" cy="78.6016" fill="#84BE84" rx="2" ry="2" style="stroke: #038048; stroke-width: 1.0;"/><text fill="#19273C" font-family="Open Sans" font-size="10" lengthAdjust="spacingAndGlyphs" textLength="212" x="184.5" y="80.5635">Resource fromJSON(Object,Object,boolean)</text><path d="M68.5,81.154 C68.5,95.1757 68.5,111.7234 68.5,126.5928 " fill="none" style="stroke: #3C6DF0; stroke-width: 1.0;"/><polygon fill="none" points="75.5001,126.6875,68.5,146.6875,61.5001,126.6874,75.5001,126.6875" style="stroke: #3C6DF0; stroke-width: 1.0;"/></g></svg>