<?xml version="1.0" encoding="UTF-8" standalone="no"?><svg xmlns="http://www.w3.org/2000/svg" xmlns:xlink="http://www.w3.org/1999/xlink" contentScriptType="application/ecmascript" contentStyleType="text/css" height="199px" preserveAspectRatio="none" style="width:466px;height:199px;" version="1.1" viewBox="0 0 466 199" width="466px" zoomAndPan="magnify"><defs/><g><!--class Resource--><rect fill="#F8FAFA" height="71.2363" rx="1" ry="1" style="stroke: #E3ECEC; stroke-width: 1.5;" width="124" x="6" y="15.5"/><ellipse cx="42.4" cy="29.5" fill="#FFFFFF" rx="9" ry="9" style="stroke: #E3ECEC; stroke-width: 1.0;"/><path d="M43.6783,32.79 Q43.3365,32.9658 42.9605,33.0537 Q42.5846,33.1416 42.1695,33.1416 Q40.6949,33.1416 39.9186,32.1699 Q39.1422,31.1982 39.1422,29.3623 Q39.1422,27.5215 39.9186,26.5498 Q40.6949,25.5781 42.1695,25.5781 Q42.5846,25.5781 42.9654,25.666 Q43.3463,25.7539 43.6783,25.9297 L43.6783,27.5313 Q43.3072,27.1895 42.9581,27.0308 Q42.609,26.8721 42.2379,26.8721 Q41.4469,26.8721 41.044,27.4995 Q40.6412,28.127 40.6412,29.3623 Q40.6412,30.5928 41.044,31.2202 Q41.4469,31.8477 42.2379,31.8477 Q42.609,31.8477 42.9581,31.689 Q43.3072,31.5303 43.6783,31.1885 Z "/><text fill="#19273C" font-family="Open Sans" font-size="10" lengthAdjust="spacingAndGlyphs" textLength="44" x="59.6" y="33.3794">Resource</text><line style="stroke: #E3ECEC; stroke-width: 1.5;" x1="7" x2="129" y1="43.5" y2="43.5"/><line style="stroke: #E3ECEC; stroke-width: 1.5;" x1="7" x2="129" y1="51.5" y2="51.5"/><ellipse cx="16" cy="63.8091" fill="#84BE84" rx="2" ry="2" style="stroke: #038048; stroke-width: 1.0;"/><text fill="#19273C" font-family="Open Sans" font-size="10" lengthAdjust="spacingAndGlyphs" textLength="73" x="24" y="66.1885">String toString()</text><ellipse cx="16" cy="77.4272" fill="#84BE84" rx="2" ry="2" style="stroke: #038048; stroke-width: 1.0;"/><text fill="#19273C" font-family="Open Sans" font-size="10" lengthAdjust="spacingAndGlyphs" textLength="100" x="24" y="79.8066">boolean isResource()</text><!--class Identifiable--><rect fill="#F8FAFA" height="44" rx="1" ry="1" style="stroke: #E3ECEC; stroke-width: 1.5;" width="83" x="26.75" y="154"/><ellipse cx="39.75" cy="168" fill="#FFFFFF" rx="9" ry="9" style="stroke: #E3ECEC; stroke-width: 1.0;"/><path d="M41.0283,171.29 Q40.6865,171.4658 40.3105,171.5537 Q39.9346,171.6416 39.5195,171.6416 Q38.0449,171.6416 37.2686,170.6699 Q36.4922,169.6982 36.4922,167.8623 Q36.4922,166.0215 37.2686,165.0498 Q38.0449,164.0781 39.5195,164.0781 Q39.9346,164.0781 40.3154,164.166 Q40.6963,164.2539 41.0283,164.4297 L41.0283,166.0313 Q40.6572,165.6895 40.3081,165.5308 Q39.959,165.3721 39.5879,165.3721 Q38.7969,165.3721 38.394,165.9995 Q37.9912,166.627 37.9912,167.8623 Q37.9912,169.0928 38.394,169.7202 Q38.7969,170.3477 39.5879,170.3477 Q39.959,170.3477 40.3081,170.189 Q40.6572,170.0303 41.0283,169.6885 Z "/><text fill="#19273C" font-family="Open Sans" font-size="10" lengthAdjust="spacingAndGlyphs" textLength="55" x="51.75" y="171.8794">Identifiable</text><line style="stroke: #E3ECEC; stroke-width: 1.5;" x1="27.75" x2="108.75" y1="182" y2="182"/><line style="stroke: #E3ECEC; stroke-width: 1.5;" x1="27.75" x2="108.75" y1="190" y2="190"/><!--class Serializer--><rect fill="#F8FAFA" height="84.8545" rx="1" ry="1" style="stroke: #E3ECEC; stroke-width: 1.5;" width="300" x="165" y="8.5"/><ellipse cx="288.75" cy="22.5" fill="#FFFFFF" rx="9" ry="9" style="stroke: #E3ECEC; stroke-width: 1.0;"/><path d="M290.0283,25.79 Q289.6865,25.9658 289.3105,26.0537 Q288.9346,26.1416 288.5195,26.1416 Q287.0449,26.1416 286.2686,25.1699 Q285.4922,24.1982 285.4922,22.3623 Q285.4922,20.5215 286.2686,19.5498 Q287.0449,18.5781 288.5195,18.5781 Q288.9346,18.5781 289.3154,18.666 Q289.6963,18.7539 290.0283,18.9297 L290.0283,20.5313 Q289.6572,20.1895 289.3081,20.0308 Q288.959,19.8721 288.5879,19.8721 Q287.7969,19.8721 287.394,20.4995 Q286.9912,21.127 286.9912,22.3623 Q286.9912,23.5928 287.394,24.2202 Q287.7969,24.8477 288.5879,24.8477 Q288.959,24.8477 289.3081,24.689 Q289.6572,24.5303 290.0283,24.1885 Z "/><text fill="#19273C" font-family="Open Sans" font-size="10" lengthAdjust="spacingAndGlyphs" textLength="45" x="306.25" y="26.3794">Serializer</text><line style="stroke: #E3ECEC; stroke-width: 1.5;" x1="166" x2="464" y1="36.5" y2="36.5"/><line style="stroke: #E3ECEC; stroke-width: 1.5;" x1="166" x2="464" y1="44.5" y2="44.5"/><ellipse cx="175" cy="56.8091" fill="#84BE84" rx="2" ry="2" style="stroke: #038048; stroke-width: 1.0;"/><text fill="#19273C" font-family="Open Sans" font-size="10" lengthAdjust="spacingAndGlyphs" textLength="193" x="183" y="59.1885">void constructor(Factory,ModelManager)</text><ellipse cx="175" cy="70.4272" fill="#84BE84" rx="2" ry="2" style="stroke: #038048; stroke-width: 1.0;"/><text fill="#19273C" font-family="Open Sans" font-size="10" lengthAdjust="spacingAndGlyphs" textLength="276" x="183" y="72.8066">Object toJSON(Resource,Object,boolean,boolean,boolean)</text><ellipse cx="175" cy="84.0454" fill="#84BE84" rx="2" ry="2" style="stroke: #038048; stroke-width: 1.0;"/><text fill="#19273C" font-family="Open Sans" font-size="10" lengthAdjust="spacingAndGlyphs" textLength="206" x="183" y="86.4248">Resource fromJSON(Object,Object,boolean)</text><path d="M68,86.59 C68,101.1871 68,118.3041 68,133.5686 " fill="none" style="stroke: #3C6DF0; stroke-width: 1.0;"/><polygon fill="none" points="75.0001,133.7768,68,153.7768,61.0001,133.7768,75.0001,133.7768" style="stroke: #3C6DF0; stroke-width: 1.0;"/></g></svg>