<?xml version="1.0" encoding="UTF-8" standalone="no"?><svg xmlns="http://www.w3.org/2000/svg" xmlns:xlink="http://www.w3.org/1999/xlink" contentScriptType="application/ecmascript" contentStyleType="text/css" height="512px" preserveAspectRatio="none" style="width:1460px;height:512px;" version="1.1" viewBox="0 0 1460 512" width="1460px" zoomAndPan="magnify"><defs><filter height="300%" id="fsd7j6u" width="300%" x="-1" y="-1"><feGaussianBlur result="blurOut" stdDeviation="2.0"/><feColorMatrix in="blurOut" result="blurOut2" type="matrix" values="0 0 0 0 0 0 0 0 0 0 0 0 0 0 0 0 0 0 .4 0"/><feOffset dx="4.0" dy="4.0" in="blurOut2" result="blurOut3"/><feBlend in="SourceGraphic" in2="blurOut3" mode="normal"/></filter></defs><g><!--class Introspector--><rect fill="#F8F8F8" filter="url(#fsd7j6u)" height="86.4141" style="stroke: #383838; stroke-width: 1.5;" width="282" x="41.5" y="34"/><ellipse cx="139.75" cy="50" fill="#C2C2C2" rx="11" ry="11" style="stroke: #383838; stroke-width: 1.0;"/><path d="M142.7188,55.6406 Q142.1406,55.9375 141.5,56.0859 Q140.8594,56.2344 140.1563,56.2344 Q137.6563,56.2344 136.3359,54.5859 Q135.0156,52.9375 135.0156,49.8125 Q135.0156,46.6875 136.3359,45.0313 Q137.6563,43.375 140.1563,43.375 Q140.8594,43.375 141.5078,43.5313 Q142.1563,43.6875 142.7188,43.9844 L142.7188,46.7031 Q142.0938,46.125 141.5,45.8516 Q140.9063,45.5781 140.2813,45.5781 Q138.9375,45.5781 138.25,46.6484 Q137.5625,47.7188 137.5625,49.8125 Q137.5625,51.9063 138.25,52.9766 Q138.9375,54.0469 140.2813,54.0469 Q140.9063,54.0469 141.5,53.7734 Q142.0938,53.5 142.7188,52.9219 L142.7188,55.6406 Z "/><text fill="#000000" font-family="sans-serif" font-size="12" lengthAdjust="spacingAndGlyphs" textLength="77" x="160.25" y="54.1543">Introspector</text><line style="stroke: #383838; stroke-width: 1.5;" x1="42.5" x2="322.5" y1="66" y2="66"/><line style="stroke: #383838; stroke-width: 1.5;" x1="42.5" x2="322.5" y1="74" y2="74"/><ellipse cx="52.5" cy="85.9023" fill="#A6A6A6" rx="3" ry="3" style="stroke: #545454; stroke-width: 1.0;"/><text fill="#000000" font-family="sans-serif" font-size="11" lengthAdjust="spacingAndGlyphs" textLength="182" x="61.5" y="88.2104">void constructor(ModelManager)</text><ellipse cx="52.5" cy="98.707" fill="#A6A6A6" rx="3" ry="3" style="stroke: #545454; stroke-width: 1.0;"/><text fill="#000000" font-family="sans-serif" font-size="11" lengthAdjust="spacingAndGlyphs" textLength="237" x="61.5" y="101.0151">ClassDeclaration[] getClassDeclarations()</text><ellipse cx="52.5" cy="111.5117" fill="#A6A6A6" rx="3" ry="3" style="stroke: #545454; stroke-width: 1.0;"/><text fill="#000000" font-family="sans-serif" font-size="11" lengthAdjust="spacingAndGlyphs" textLength="256" x="61.5" y="113.8198">ClassDeclaration getClassDeclaration(String)</text><!--class Relationship--><rect fill="#F8F8F8" filter="url(#fsd7j6u)" height="73.6094" style="stroke: #383838; stroke-width: 1.5;" width="162" x="804.5" y="263.5"/><ellipse cx="843.35" cy="279.5" fill="#C2C2C2" rx="11" ry="11" style="stroke: #383838; stroke-width: 1.0;"/><path d="M846.3188,285.1406 Q845.7406,285.4375 845.1,285.5859 Q844.4594,285.7344 843.7563,285.7344 Q841.2563,285.7344 839.9359,284.0859 Q838.6156,282.4375 838.6156,279.3125 Q838.6156,276.1875 839.9359,274.5313 Q841.2563,272.875 843.7563,272.875 Q844.4594,272.875 845.1078,273.0313 Q845.7563,273.1875 846.3188,273.4844 L846.3188,276.2031 Q845.6938,275.625 845.1,275.3516 Q844.5063,275.0781 843.8813,275.0781 Q842.5375,275.0781 841.85,276.1484 Q841.1625,277.2188 841.1625,279.3125 Q841.1625,281.4063 841.85,282.4766 Q842.5375,283.5469 843.8813,283.5469 Q844.5063,283.5469 845.1,283.2734 Q845.6938,283 846.3188,282.4219 L846.3188,285.1406 Z "/><text fill="#000000" font-family="sans-serif" font-size="12" lengthAdjust="spacingAndGlyphs" textLength="77" x="862.65" y="283.6543">Relationship</text><line style="stroke: #383838; stroke-width: 1.5;" x1="805.5" x2="965.5" y1="295.5" y2="295.5"/><line style="stroke: #383838; stroke-width: 1.5;" x1="805.5" x2="965.5" y1="303.5" y2="303.5"/><ellipse cx="815.5" cy="315.4023" fill="#A6A6A6" rx="3" ry="3" style="stroke: #545454; stroke-width: 1.0;"/><text fill="#000000" font-family="sans-serif" font-size="11" lengthAdjust="spacingAndGlyphs" textLength="91" x="824.5" y="317.7104">String toString()</text><ellipse cx="815.5" cy="328.207" fill="#A6A6A6" rx="3" ry="3" style="stroke: #545454; stroke-width: 1.0;"/><text fill="#000000" font-family="sans-serif" font-size="11" lengthAdjust="spacingAndGlyphs" textLength="136" x="824.5" y="330.5151">boolean isRelationship()</text><!--class Identifiable--><rect fill="#F8F8F8" filter="url(#fsd7j6u)" height="48" style="stroke: #383838; stroke-width: 1.5;" width="101" x="930" y="455"/><ellipse cx="945" cy="471" fill="#C2C2C2" rx="11" ry="11" style="stroke: #383838; stroke-width: 1.0;"/><path d="M947.9688,476.6406 Q947.3906,476.9375 946.75,477.0859 Q946.1094,477.2344 945.4063,477.2344 Q942.9063,477.2344 941.5859,475.5859 Q940.2656,473.9375 940.2656,470.8125 Q940.2656,467.6875 941.5859,466.0313 Q942.9063,464.375 945.4063,464.375 Q946.1094,464.375 946.7578,464.5313 Q947.4063,464.6875 947.9688,464.9844 L947.9688,467.7031 Q947.3438,467.125 946.75,466.8516 Q946.1563,466.5781 945.5313,466.5781 Q944.1875,466.5781 943.5,467.6484 Q942.8125,468.7188 942.8125,470.8125 Q942.8125,472.9063 943.5,473.9766 Q944.1875,475.0469 945.5313,475.0469 Q946.1563,475.0469 946.75,474.7734 Q947.3438,474.5 947.9688,473.9219 L947.9688,476.6406 Z "/><text fill="#000000" font-family="sans-serif" font-size="12" lengthAdjust="spacingAndGlyphs" textLength="69" x="959" y="475.1543">Identifiable</text><line style="stroke: #383838; stroke-width: 1.5;" x1="931" x2="1030" y1="487" y2="487"/><line style="stroke: #383838; stroke-width: 1.5;" x1="931" x2="1030" y1="495" y2="495"/><!--class Resource--><rect fill="#F8F8F8" filter="url(#fsd7j6u)" height="73.6094" style="stroke: #383838; stroke-width: 1.5;" width="146" x="1001.5" y="263.5"/><ellipse cx="1041.25" cy="279.5" fill="#C2C2C2" rx="11" ry="11" style="stroke: #383838; stroke-width: 1.0;"/><path d="M1044.2188,285.1406 Q1043.6406,285.4375 1043,285.5859 Q1042.3594,285.7344 1041.6563,285.7344 Q1039.1563,285.7344 1037.8359,284.0859 Q1036.5156,282.4375 1036.5156,279.3125 Q1036.5156,276.1875 1037.8359,274.5313 Q1039.1563,272.875 1041.6563,272.875 Q1042.3594,272.875 1043.0078,273.0313 Q1043.6563,273.1875 1044.2188,273.4844 L1044.2188,276.2031 Q1043.5938,275.625 1043,275.3516 Q1042.4063,275.0781 1041.7813,275.0781 Q1040.4375,275.0781 1039.75,276.1484 Q1039.0625,277.2188 1039.0625,279.3125 Q1039.0625,281.4063 1039.75,282.4766 Q1040.4375,283.5469 1041.7813,283.5469 Q1042.4063,283.5469 1043,283.2734 Q1043.5938,283 1044.2188,282.4219 L1044.2188,285.1406 Z "/><text fill="#000000" font-family="sans-serif" font-size="12" lengthAdjust="spacingAndGlyphs" textLength="59" x="1060.75" y="283.6543">Resource</text><line style="stroke: #383838; stroke-width: 1.5;" x1="1002.5" x2="1146.5" y1="295.5" y2="295.5"/><line style="stroke: #383838; stroke-width: 1.5;" x1="1002.5" x2="1146.5" y1="303.5" y2="303.5"/><ellipse cx="1012.5" cy="315.4023" fill="#A6A6A6" rx="3" ry="3" style="stroke: #545454; stroke-width: 1.0;"/><text fill="#000000" font-family="sans-serif" font-size="11" lengthAdjust="spacingAndGlyphs" textLength="91" x="1021.5" y="317.7104">String toString()</text><ellipse cx="1012.5" cy="328.207" fill="#A6A6A6" rx="3" ry="3" style="stroke: #545454; stroke-width: 1.0;"/><text fill="#000000" font-family="sans-serif" font-size="11" lengthAdjust="spacingAndGlyphs" textLength="120" x="1021.5" y="330.5151">boolean isResource()</text><!--class ValidatedResource--><rect fill="#F8F8F8" filter="url(#fsd7j6u)" height="86.4141" style="stroke: #383838; stroke-width: 1.5;" width="228" x="960.5" y="34"/><ellipse cx="1011.25" cy="50" fill="#C2C2C2" rx="11" ry="11" style="stroke: #383838; stroke-width: 1.0;"/><path d="M1014.2188,55.6406 Q1013.6406,55.9375 1013,56.0859 Q1012.3594,56.2344 1011.6563,56.2344 Q1009.1563,56.2344 1007.8359,54.5859 Q1006.5156,52.9375 1006.5156,49.8125 Q1006.5156,46.6875 1007.8359,45.0313 Q1009.1563,43.375 1011.6563,43.375 Q1012.3594,43.375 1013.0078,43.5313 Q1013.6563,43.6875 1014.2188,43.9844 L1014.2188,46.7031 Q1013.5938,46.125 1013,45.8516 Q1012.4063,45.5781 1011.7813,45.5781 Q1010.4375,45.5781 1009.75,46.6484 Q1009.0625,47.7188 1009.0625,49.8125 Q1009.0625,51.9063 1009.75,52.9766 Q1010.4375,54.0469 1011.7813,54.0469 Q1012.4063,54.0469 1013,53.7734 Q1013.5938,53.5 1014.2188,52.9219 L1014.2188,55.6406 Z "/><text fill="#000000" font-family="sans-serif" font-size="12" lengthAdjust="spacingAndGlyphs" textLength="118" x="1031.75" y="54.1543">ValidatedResource</text><line style="stroke: #383838; stroke-width: 1.5;" x1="961.5" x2="1187.5" y1="66" y2="66"/><line style="stroke: #383838; stroke-width: 1.5;" x1="961.5" x2="1187.5" y1="74" y2="74"/><ellipse cx="971.5" cy="85.9023" fill="#A6A6A6" rx="3" ry="3" style="stroke: #545454; stroke-width: 1.0;"/><text fill="#000000" font-family="sans-serif" font-size="11" lengthAdjust="spacingAndGlyphs" textLength="202" x="980.5" y="88.2104">void setPropertyValue(string,string)</text><ellipse cx="971.5" cy="98.707" fill="#A6A6A6" rx="3" ry="3" style="stroke: #545454; stroke-width: 1.0;"/><text fill="#000000" font-family="sans-serif" font-size="11" lengthAdjust="spacingAndGlyphs" textLength="187" x="980.5" y="101.0151">void addArrayValue(string,string)</text><ellipse cx="971.5" cy="111.5117" fill="#A6A6A6" rx="3" ry="3" style="stroke: #545454; stroke-width: 1.0;"/><text fill="#000000" font-family="sans-serif" font-size="11" lengthAdjust="spacingAndGlyphs" textLength="79" x="980.5" y="113.8198">void validate()</text><!--class Concept--><rect fill="#F8F8F8" filter="url(#fsd7j6u)" height="60.8047" style="stroke: #383838; stroke-width: 1.5;" width="139" x="1268" y="270"/><ellipse cx="1307.75" cy="286" fill="#C2C2C2" rx="11" ry="11" style="stroke: #383838; stroke-width: 1.0;"/><path d="M1310.7188,291.6406 Q1310.1406,291.9375 1309.5,292.0859 Q1308.8594,292.2344 1308.1563,292.2344 Q1305.6563,292.2344 1304.3359,290.5859 Q1303.0156,288.9375 1303.0156,285.8125 Q1303.0156,282.6875 1304.3359,281.0313 Q1305.6563,279.375 1308.1563,279.375 Q1308.8594,279.375 1309.5078,279.5313 Q1310.1563,279.6875 1310.7188,279.9844 L1310.7188,282.7031 Q1310.0938,282.125 1309.5,281.8516 Q1308.9063,281.5781 1308.2813,281.5781 Q1306.9375,281.5781 1306.25,282.6484 Q1305.5625,283.7188 1305.5625,285.8125 Q1305.5625,287.9063 1306.25,288.9766 Q1306.9375,290.0469 1308.2813,290.0469 Q1308.9063,290.0469 1309.5,289.7734 Q1310.0938,289.5 1310.7188,288.9219 L1310.7188,291.6406 Z "/><text fill="#000000" font-family="sans-serif" font-size="12" lengthAdjust="spacingAndGlyphs" textLength="52" x="1327.25" y="290.1543">Concept</text><line style="stroke: #383838; stroke-width: 1.5;" x1="1269" x2="1406" y1="302" y2="302"/><line style="stroke: #383838; stroke-width: 1.5;" x1="1269" x2="1406" y1="310" y2="310"/><ellipse cx="1279" cy="321.9023" fill="#A6A6A6" rx="3" ry="3" style="stroke: #545454; stroke-width: 1.0;"/><text fill="#000000" font-family="sans-serif" font-size="11" lengthAdjust="spacingAndGlyphs" textLength="113" x="1288" y="324.2104">boolean isConcept()</text><!--class Typed--><rect fill="#F8F8F8" filter="url(#fsd7j6u)" height="48" style="stroke: #383838; stroke-width: 1.5;" width="69" x="1303" y="455"/><ellipse cx="1318" cy="471" fill="#C2C2C2" rx="11" ry="11" style="stroke: #383838; stroke-width: 1.0;"/><path d="M1320.9688,476.6406 Q1320.3906,476.9375 1319.75,477.0859 Q1319.1094,477.2344 1318.4063,477.2344 Q1315.9063,477.2344 1314.5859,475.5859 Q1313.2656,473.9375 1313.2656,470.8125 Q1313.2656,467.6875 1314.5859,466.0313 Q1315.9063,464.375 1318.4063,464.375 Q1319.1094,464.375 1319.7578,464.5313 Q1320.4063,464.6875 1320.9688,464.9844 L1320.9688,467.7031 Q1320.3438,467.125 1319.75,466.8516 Q1319.1563,466.5781 1318.5313,466.5781 Q1317.1875,466.5781 1316.5,467.6484 Q1315.8125,468.7188 1315.8125,470.8125 Q1315.8125,472.9063 1316.5,473.9766 Q1317.1875,475.0469 1318.5313,475.0469 Q1319.1563,475.0469 1319.75,474.7734 Q1320.3438,474.5 1320.9688,473.9219 L1320.9688,476.6406 Z "/><text fill="#000000" font-family="sans-serif" font-size="12" lengthAdjust="spacingAndGlyphs" textLength="37" x="1332" y="475.1543">Typed</text><line style="stroke: #383838; stroke-width: 1.5;" x1="1304" x2="1371" y1="487" y2="487"/><line style="stroke: #383838; stroke-width: 1.5;" x1="1304" x2="1371" y1="495" y2="495"/><!--class ValidatedConcept--><rect fill="#F8F8F8" filter="url(#fsd7j6u)" height="86.4141" style="stroke: #383838; stroke-width: 1.5;" width="228" x="1223.5" y="34"/><ellipse cx="1277.75" cy="50" fill="#C2C2C2" rx="11" ry="11" style="stroke: #383838; stroke-width: 1.0;"/><path d="M1280.7188,55.6406 Q1280.1406,55.9375 1279.5,56.0859 Q1278.8594,56.2344 1278.1563,56.2344 Q1275.6563,56.2344 1274.3359,54.5859 Q1273.0156,52.9375 1273.0156,49.8125 Q1273.0156,46.6875 1274.3359,45.0313 Q1275.6563,43.375 1278.1563,43.375 Q1278.8594,43.375 1279.5078,43.5313 Q1280.1563,43.6875 1280.7188,43.9844 L1280.7188,46.7031 Q1280.0938,46.125 1279.5,45.8516 Q1278.9063,45.5781 1278.2813,45.5781 Q1276.9375,45.5781 1276.25,46.6484 Q1275.5625,47.7188 1275.5625,49.8125 Q1275.5625,51.9063 1276.25,52.9766 Q1276.9375,54.0469 1278.2813,54.0469 Q1278.9063,54.0469 1279.5,53.7734 Q1280.0938,53.5 1280.7188,52.9219 L1280.7188,55.6406 Z "/><text fill="#000000" font-family="sans-serif" font-size="12" lengthAdjust="spacingAndGlyphs" textLength="111" x="1298.25" y="54.1543">ValidatedConcept</text><line style="stroke: #383838; stroke-width: 1.5;" x1="1224.5" x2="1450.5" y1="66" y2="66"/><line style="stroke: #383838; stroke-width: 1.5;" x1="1224.5" x2="1450.5" y1="74" y2="74"/><ellipse cx="1234.5" cy="85.9023" fill="#A6A6A6" rx="3" ry="3" style="stroke: #545454; stroke-width: 1.0;"/><text fill="#000000" font-family="sans-serif" font-size="11" lengthAdjust="spacingAndGlyphs" textLength="202" x="1243.5" y="88.2104">void setPropertyValue(string,string)</text><ellipse cx="1234.5" cy="98.707" fill="#A6A6A6" rx="3" ry="3" style="stroke: #545454; stroke-width: 1.0;"/><text fill="#000000" font-family="sans-serif" font-size="11" lengthAdjust="spacingAndGlyphs" textLength="187" x="1243.5" y="101.0151">void addArrayValue(string,string)</text><ellipse cx="1234.5" cy="111.5117" fill="#A6A6A6" rx="3" ry="3" style="stroke: #545454; stroke-width: 1.0;"/><text fill="#000000" font-family="sans-serif" font-size="11" lengthAdjust="spacingAndGlyphs" textLength="79" x="1243.5" y="113.8198">void validate()</text><!--class Factory--><rect fill="#F8F8F8" filter="url(#fsd7j6u)" height="137.6328" style="stroke: #383838; stroke-width: 1.5;" width="412" x="358.5" y="8"/><ellipse cx="537.25" cy="24" fill="#C2C2C2" rx="11" ry="11" style="stroke: #383838; stroke-width: 1.0;"/><path d="M540.2188,29.6406 Q539.6406,29.9375 539,30.0859 Q538.3594,30.2344 537.6563,30.2344 Q535.1563,30.2344 533.8359,28.5859 Q532.5156,26.9375 532.5156,23.8125 Q532.5156,20.6875 533.8359,19.0313 Q535.1563,17.375 537.6563,17.375 Q538.3594,17.375 539.0078,17.5313 Q539.6563,17.6875 540.2188,17.9844 L540.2188,20.7031 Q539.5938,20.125 539,19.8516 Q538.4063,19.5781 537.7813,19.5781 Q536.4375,19.5781 535.75,20.6484 Q535.0625,21.7188 535.0625,23.8125 Q535.0625,25.9063 535.75,26.9766 Q536.4375,28.0469 537.7813,28.0469 Q538.4063,28.0469 539,27.7734 Q539.5938,27.5 540.2188,26.9219 L540.2188,29.6406 Z "/><text fill="#000000" font-family="sans-serif" font-size="12" lengthAdjust="spacingAndGlyphs" textLength="46" x="557.75" y="28.1543">Factory</text><line style="stroke: #383838; stroke-width: 1.5;" x1="359.5" x2="769.5" y1="40" y2="40"/><line style="stroke: #383838; stroke-width: 1.5;" x1="359.5" x2="769.5" y1="48" y2="48"/><ellipse cx="369.5" cy="59.9023" fill="#A6A6A6" rx="3" ry="3" style="stroke: #545454; stroke-width: 1.0;"/><text fill="#000000" font-family="sans-serif" font-size="11" lengthAdjust="spacingAndGlyphs" textLength="182" x="378.5" y="62.2104">void constructor(ModelManager)</text><ellipse cx="369.5" cy="72.707" fill="#A6A6A6" rx="3" ry="3" style="stroke: #545454; stroke-width: 1.0;"/><text fill="#000000" font-family="sans-serif" font-size="11" lengthAdjust="spacingAndGlyphs" textLength="381" x="378.5" y="75.0151">Resource newInstance(string,string,string,Object,boolean,boolean)</text><ellipse cx="369.5" cy="85.5117" fill="#A6A6A6" rx="3" ry="3" style="stroke: #545454; stroke-width: 1.0;"/><text fill="#000000" font-family="sans-serif" font-size="11" lengthAdjust="spacingAndGlyphs" textLength="386" x="378.5" y="87.8198">Resource newResource(string,string,string,Object,boolean,boolean)</text><ellipse cx="369.5" cy="98.3164" fill="#A6A6A6" rx="3" ry="3" style="stroke: #545454; stroke-width: 1.0;"/><text fill="#000000" font-family="sans-serif" font-size="11" lengthAdjust="spacingAndGlyphs" textLength="342" x="378.5" y="100.6245">Resource newConcept(string,string,Object,boolean,boolean)</text><ellipse cx="369.5" cy="111.1211" fill="#A6A6A6" rx="3" ry="3" style="stroke: #545454; stroke-width: 1.0;"/><text fill="#000000" font-family="sans-serif" font-size="11" lengthAdjust="spacingAndGlyphs" textLength="280" x="378.5" y="113.4292">Relationship newRelationship(string,string,string)</text><ellipse cx="369.5" cy="123.9258" fill="#A6A6A6" rx="3" ry="3" style="stroke: #545454; stroke-width: 1.0;"/><text fill="#000000" font-family="sans-serif" font-size="11" lengthAdjust="spacingAndGlyphs" textLength="351" x="378.5" y="126.2339">Resource newTransaction(string,string,string,Object,boolean)</text><ellipse cx="369.5" cy="136.7305" fill="#A6A6A6" rx="3" ry="3" style="stroke: #545454; stroke-width: 1.0;"/><text fill="#000000" font-family="sans-serif" font-size="11" lengthAdjust="spacingAndGlyphs" textLength="87" x="378.5" y="139.0386">Object toJSON()</text><!--class Serializer--><rect fill="#F8F8F8" filter="url(#fsd7j6u)" height="86.4141" style="stroke: #383838; stroke-width: 1.5;" width="353" x="6" y="257.5"/><ellipse cx="150.25" cy="273.5" fill="#C2C2C2" rx="11" ry="11" style="stroke: #383838; stroke-width: 1.0;"/><path d="M153.2188,279.1406 Q152.6406,279.4375 152,279.5859 Q151.3594,279.7344 150.6563,279.7344 Q148.1563,279.7344 146.8359,278.0859 Q145.5156,276.4375 145.5156,273.3125 Q145.5156,270.1875 146.8359,268.5313 Q148.1563,266.875 150.6563,266.875 Q151.3594,266.875 152.0078,267.0313 Q152.6563,267.1875 153.2188,267.4844 L153.2188,270.2031 Q152.5938,269.625 152,269.3516 Q151.4063,269.0781 150.7813,269.0781 Q149.4375,269.0781 148.75,270.1484 Q148.0625,271.2188 148.0625,273.3125 Q148.0625,275.4063 148.75,276.4766 Q149.4375,277.5469 150.7813,277.5469 Q151.4063,277.5469 152,277.2734 Q152.5938,277 153.2188,276.4219 L153.2188,279.1406 Z "/><text fill="#000000" font-family="sans-serif" font-size="12" lengthAdjust="spacingAndGlyphs" textLength="56" x="170.75" y="277.6543">Serializer</text><line style="stroke: #383838; stroke-width: 1.5;" x1="7" x2="358" y1="289.5" y2="289.5"/><line style="stroke: #383838; stroke-width: 1.5;" x1="7" x2="358" y1="297.5" y2="297.5"/><ellipse cx="17" cy="309.4023" fill="#A6A6A6" rx="3" ry="3" style="stroke: #545454; stroke-width: 1.0;"/><text fill="#000000" font-family="sans-serif" font-size="11" lengthAdjust="spacingAndGlyphs" textLength="227" x="26" y="311.7104">void constructor(Factory,ModelManager)</text><ellipse cx="17" cy="322.207" fill="#A6A6A6" rx="3" ry="3" style="stroke: #545454; stroke-width: 1.0;"/><text fill="#000000" font-family="sans-serif" font-size="11" lengthAdjust="spacingAndGlyphs" textLength="327" x="26" y="324.5151">Object toJSON(Resource,Object,boolean,boolean,boolean)</text><ellipse cx="17" cy="335.0117" fill="#A6A6A6" rx="3" ry="3" style="stroke: #545454; stroke-width: 1.0;"/><text fill="#000000" font-family="sans-serif" font-size="11" lengthAdjust="spacingAndGlyphs" textLength="245" x="26" y="337.3198">Resource fromJSON(Object,Object,boolean)</text><!--class BusinessNetworkDefinition--><rect fill="#F8F8F8" filter="url(#fsd7j6u)" height="188.8516" style="stroke: #383838; stroke-width: 1.5;" width="375" x="394" y="206"/><ellipse cx="494.25" cy="222" fill="#C2C2C2" rx="11" ry="11" style="stroke: #383838; stroke-width: 1.0;"/><path d="M497.2188,227.6406 Q496.6406,227.9375 496,228.0859 Q495.3594,228.2344 494.6563,228.2344 Q492.1563,228.2344 490.8359,226.5859 Q489.5156,224.9375 489.5156,221.8125 Q489.5156,218.6875 490.8359,217.0313 Q492.1563,215.375 494.6563,215.375 Q495.3594,215.375 496.0078,215.5313 Q496.6563,215.6875 497.2188,215.9844 L497.2188,218.7031 Q496.5938,218.125 496,217.8516 Q495.4063,217.5781 494.7813,217.5781 Q493.4375,217.5781 492.75,218.6484 Q492.0625,219.7188 492.0625,221.8125 Q492.0625,223.9063 492.75,224.9766 Q493.4375,226.0469 494.7813,226.0469 Q495.4063,226.0469 496,225.7734 Q496.5938,225.5 497.2188,224.9219 L497.2188,227.6406 Z "/><text fill="#000000" font-family="sans-serif" font-size="12" lengthAdjust="spacingAndGlyphs" textLength="166" x="514.75" y="226.1543">BusinessNetworkDefinition</text><line style="stroke: #383838; stroke-width: 1.5;" x1="395" x2="768" y1="238" y2="238"/><line style="stroke: #383838; stroke-width: 1.5;" x1="395" x2="768" y1="246" y2="246"/><ellipse cx="405" cy="257.9023" fill="#A6A6A6" rx="3" ry="3" style="stroke: #545454; stroke-width: 1.0;"/><text fill="#000000" font-family="sans-serif" font-size="11" lengthAdjust="spacingAndGlyphs" textLength="172" x="414" y="260.2104">void constructor(String,String)</text><ellipse cx="405" cy="270.707" fill="#A6A6A6" rx="3" ry="3" style="stroke: #545454; stroke-width: 1.0;"/><text fill="#000000" font-family="sans-serif" font-size="11" lengthAdjust="spacingAndGlyphs" textLength="114" x="414" y="273.0151">String getIdentifier()</text><ellipse cx="405" cy="283.5117" fill="#A6A6A6" rx="3" ry="3" style="stroke: #545454; stroke-width: 1.0;"/><text fill="#000000" font-family="sans-serif" font-size="11" lengthAdjust="spacingAndGlyphs" textLength="97" x="414" y="285.8198">String getName()</text><ellipse cx="405" cy="296.3164" fill="#A6A6A6" rx="3" ry="3" style="stroke: #545454; stroke-width: 1.0;"/><text fill="#000000" font-family="sans-serif" font-size="11" lengthAdjust="spacingAndGlyphs" textLength="107" x="414" y="298.6245">String getVersion()</text><ellipse cx="405" cy="309.1211" fill="#A6A6A6" rx="3" ry="3" style="stroke: #545454; stroke-width: 1.0;"/><text fill="#000000" font-family="sans-serif" font-size="11" lengthAdjust="spacingAndGlyphs" textLength="128" x="414" y="311.4292">String getDescription()</text><ellipse cx="405" cy="321.9258" fill="#A6A6A6" rx="3" ry="3" style="stroke: #545454; stroke-width: 1.0;"/><text fill="#000000" font-family="sans-serif" font-size="11" lengthAdjust="spacingAndGlyphs" textLength="162" x="414" y="324.2339">Promise fromArchive(Buffer)</text><ellipse cx="405" cy="334.7305" fill="#A6A6A6" rx="3" ry="3" style="stroke: #545454; stroke-width: 1.0;"/><text fill="#000000" font-family="sans-serif" font-size="11" lengthAdjust="spacingAndGlyphs" textLength="99" x="414" y="337.0386">Buffer toArchive()</text><ellipse cx="405" cy="347.5352" fill="#A6A6A6" rx="3" ry="3" style="stroke: #545454; stroke-width: 1.0;"/><text fill="#000000" font-family="sans-serif" font-size="11" lengthAdjust="spacingAndGlyphs" textLength="349" x="414" y="349.8433">Promise fromDirectory(String,Object,Object,boolean,boolean)</text><ellipse cx="405" cy="360.3398" fill="#A6A6A6" rx="3" ry="3" style="stroke: #545454; stroke-width: 1.0;"/><text fill="#000000" font-family="sans-serif" font-size="11" lengthAdjust="spacingAndGlyphs" textLength="168" x="414" y="362.6479">Introspector getIntrospector()</text><ellipse cx="405" cy="373.1445" fill="#A6A6A6" rx="3" ry="3" style="stroke: #545454; stroke-width: 1.0;"/><text fill="#000000" font-family="sans-serif" font-size="11" lengthAdjust="spacingAndGlyphs" textLength="112" x="414" y="375.4526">Factory getFactory()</text><ellipse cx="405" cy="385.9492" fill="#A6A6A6" rx="3" ry="3" style="stroke: #545454; stroke-width: 1.0;"/><text fill="#000000" font-family="sans-serif" font-size="11" lengthAdjust="spacingAndGlyphs" textLength="136" x="414" y="388.2573">Serializer getSerializer()</text><path d="M904.954,337.643 C920.45,366.434 942.151,406.7524 958.321,436.7937 " fill="none" style="stroke: #383838; stroke-width: 1.0;"/><polygon fill="none" points="964.712,433.8978,968.027,454.8265,952.384,440.5332,964.712,433.8978" style="stroke: #383838; stroke-width: 1.0;"/><path d="M1055.25,337.643 C1039.92,366.434 1018.44,406.7524 1002.446,436.7937 " fill="none" style="stroke: #383838; stroke-width: 1.0;"/><polygon fill="none" points="1008.42,440.4644,992.842,454.8265,996.065,433.8834,1008.42,440.4644" style="stroke: #383838; stroke-width: 1.0;"/><path d="M1074.5,120.184 C1074.5,155.052 1074.5,204.87 1074.5,243.151 " fill="none" style="stroke: #383838; stroke-width: 1.0;"/><polygon fill="none" points="1081.5,243.336,1074.5,263.336,1067.5,243.336,1081.5,243.336" style="stroke: #383838; stroke-width: 1.0;"/><path d="M1337.5,331.042 C1337.5,359.348 1337.5,402.401 1337.5,434.6023 " fill="none" style="stroke: #383838; stroke-width: 1.0;"/><polygon fill="none" points="1344.5,434.8471,1337.5,454.8471,1330.5,434.847,1344.5,434.8471" style="stroke: #383838; stroke-width: 1.0;"/><path d="M1337.5,120.184 C1337.5,157.06 1337.5,210.657 1337.5,249.644 " fill="none" style="stroke: #383838; stroke-width: 1.0;"/><polygon fill="none" points="1344.5,249.869,1337.5,269.869,1330.5,249.869,1344.5,249.869" style="stroke: #383838; stroke-width: 1.0;"/></g></svg>