<?xml version="1.0" encoding="UTF-8" standalone="no"?><svg xmlns="http://www.w3.org/2000/svg" xmlns:xlink="http://www.w3.org/1999/xlink" contentScriptType="application/ecmascript" contentStyleType="text/css" height="444px" preserveAspectRatio="none" style="width:483px;height:444px;" version="1.1" viewBox="0 0 483 444" width="483px" zoomAndPan="magnify"><defs/><g><!--class Registry--><rect fill="#F8FAFA" height="289.127" rx="1" ry="1" style="stroke: #E3ECEC; stroke-width: 1.5;" width="428" x="30" y="154.5"/><ellipse cx="221.25" cy="168.5" fill="#FFFFFF" rx="9" ry="9" style="stroke: #E3ECEC; stroke-width: 1.0;"/><path d="M222.5283,171.79 Q222.1865,171.9658 221.8105,172.0537 Q221.4346,172.1416 221.0195,172.1416 Q219.5449,172.1416 218.7686,171.1699 Q217.9922,170.1982 217.9922,168.3623 Q217.9922,166.5215 218.7686,165.5498 Q219.5449,164.5781 221.0195,164.5781 Q221.4346,164.5781 221.8154,164.666 Q222.1963,164.7539 222.5283,164.9297 L222.5283,166.5313 Q222.1572,166.1895 221.8081,166.0308 Q221.459,165.8721 221.0879,165.8721 Q220.2969,165.8721 219.894,166.4995 Q219.4912,167.127 219.4912,168.3623 Q219.4912,169.5928 219.894,170.2202 Q220.2969,170.8477 221.0879,170.8477 Q221.459,170.8477 221.8081,170.689 Q222.1572,170.5303 222.5283,170.1885 Z "/><text fill="#19273C" font-family="Open Sans" font-size="10" lengthAdjust="spacingAndGlyphs" textLength="38" x="238.75" y="172.3794">Registry</text><line style="stroke: #E3ECEC; stroke-width: 1.5;" x1="31" x2="457" y1="182.5" y2="182.5"/><line style="stroke: #E3ECEC; stroke-width: 1.5;" x1="31" x2="457" y1="190.5" y2="190.5"/><ellipse cx="40" cy="202.8091" fill="#84BE84" rx="2" ry="2" style="stroke: #038048; stroke-width: 1.0;"/><text fill="#19273C" font-family="Open Sans" font-size="10" lengthAdjust="spacingAndGlyphs" textLength="226" x="48" y="205.1885">Promise getAllRegistries(SecurityContext,string)</text><ellipse cx="40" cy="216.4272" fill="#84BE84" rx="2" ry="2" style="stroke: #038048; stroke-width: 1.0;"/><text fill="#19273C" font-family="Open Sans" font-size="10" lengthAdjust="spacingAndGlyphs" textLength="234" x="48" y="218.8066">Promise getRegistry(SecurityContext,string,string)</text><ellipse cx="40" cy="230.0454" fill="#84BE84" rx="2" ry="2" style="stroke: #038048; stroke-width: 1.0;"/><text fill="#19273C" font-family="Open Sans" font-size="10" lengthAdjust="spacingAndGlyphs" textLength="247" x="48" y="232.4248">Promise existsRegistry(SecurityContext,string,string)</text><ellipse cx="40" cy="243.6636" fill="#84BE84" rx="2" ry="2" style="stroke: #038048; stroke-width: 1.0;"/><text fill="#19273C" font-family="Open Sans" font-size="10" lengthAdjust="spacingAndGlyphs" textLength="266" x="48" y="246.043">Promise addRegistry(SecurityContext,string,string,string)</text><ellipse cx="40" cy="257.2817" fill="#84BE84" rx="2" ry="2" style="stroke: #038048; stroke-width: 1.0;"/><text fill="#19273C" font-family="Open Sans" font-size="10" lengthAdjust="spacingAndGlyphs" textLength="404" x="48" y="259.6611">void constructor(string,string,string,SecurityContext,ModelManager,Factory,Serializer)</text><ellipse cx="40" cy="270.8999" fill="#84BE84" rx="2" ry="2" style="stroke: #038048; stroke-width: 1.0;"/><text fill="#19273C" font-family="Open Sans" font-size="10" lengthAdjust="spacingAndGlyphs" textLength="128" x="48" y="273.2793">Promise addAll(Resource[])</text><ellipse cx="40" cy="284.5181" fill="#84BE84" rx="2" ry="2" style="stroke: #038048; stroke-width: 1.0;"/><text fill="#19273C" font-family="Open Sans" font-size="10" lengthAdjust="spacingAndGlyphs" textLength="110" x="48" y="286.8975">Promise add(Resource)</text><ellipse cx="40" cy="298.1362" fill="#84BE84" rx="2" ry="2" style="stroke: #038048; stroke-width: 1.0;"/><text fill="#19273C" font-family="Open Sans" font-size="10" lengthAdjust="spacingAndGlyphs" textLength="144" x="48" y="300.5156">Promise updateAll(Resource[])</text><ellipse cx="40" cy="311.7544" fill="#84BE84" rx="2" ry="2" style="stroke: #038048; stroke-width: 1.0;"/><text fill="#19273C" font-family="Open Sans" font-size="10" lengthAdjust="spacingAndGlyphs" textLength="126" x="48" y="314.1338">Promise update(Resource)</text><ellipse cx="40" cy="325.3726" fill="#84BE84" rx="2" ry="2" style="stroke: #038048; stroke-width: 1.0;"/><text fill="#19273C" font-family="Open Sans" font-size="10" lengthAdjust="spacingAndGlyphs" textLength="96" x="48" y="327.752">Promise removeAll()</text><ellipse cx="40" cy="338.9907" fill="#84BE84" rx="2" ry="2" style="stroke: #038048; stroke-width: 1.0;"/><text fill="#19273C" font-family="Open Sans" font-size="10" lengthAdjust="spacingAndGlyphs" textLength="84" x="48" y="341.3701">Promise remove()</text><ellipse cx="40" cy="352.6089" fill="#84BE84" rx="2" ry="2" style="stroke: #038048; stroke-width: 1.0;"/><text fill="#19273C" font-family="Open Sans" font-size="10" lengthAdjust="spacingAndGlyphs" textLength="75" x="48" y="354.9883">Promise getAll()</text><ellipse cx="40" cy="366.2271" fill="#84BE84" rx="2" ry="2" style="stroke: #038048; stroke-width: 1.0;"/><text fill="#19273C" font-family="Open Sans" font-size="10" lengthAdjust="spacingAndGlyphs" textLength="90" x="48" y="368.6064">Promise get(string)</text><ellipse cx="40" cy="379.8452" fill="#84BE84" rx="2" ry="2" style="stroke: #038048; stroke-width: 1.0;"/><text fill="#19273C" font-family="Open Sans" font-size="10" lengthAdjust="spacingAndGlyphs" textLength="103" x="48" y="382.2246">Promise exists(string)</text><ellipse cx="40" cy="393.4634" fill="#84BE84" rx="2" ry="2" style="stroke: #038048; stroke-width: 1.0;"/><text fill="#19273C" font-family="Open Sans" font-size="10" lengthAdjust="spacingAndGlyphs" textLength="93" x="48" y="395.8428">Promise find(string)</text><ellipse cx="40" cy="407.0815" fill="#84BE84" rx="2" ry="2" style="stroke: #038048; stroke-width: 1.0;"/><text fill="#19273C" font-family="Open Sans" font-size="10" lengthAdjust="spacingAndGlyphs" textLength="102" x="48" y="409.4609">Promise query(string)</text><ellipse cx="40" cy="420.6997" fill="#84BE84" rx="2" ry="2" style="stroke: #038048; stroke-width: 1.0;"/><text fill="#19273C" font-family="Open Sans" font-size="10" lengthAdjust="spacingAndGlyphs" textLength="95" x="48" y="423.0791">Promise resolveAll()</text><ellipse cx="40" cy="434.3179" fill="#84BE84" rx="2" ry="2" style="stroke: #038048; stroke-width: 1.0;"/><text fill="#19273C" font-family="Open Sans" font-size="10" lengthAdjust="spacingAndGlyphs" textLength="110" x="48" y="436.6973">Promise resolve(string)</text><!--class TransactionRegistry--><rect fill="#F8FAFA" height="84.8545" rx="1" ry="1" style="stroke: #E3ECEC; stroke-width: 1.5;" width="476" x="6" y="8.5"/><ellipse cx="192.75" cy="22.5" fill="#FFFFFF" rx="9" ry="9" style="stroke: #E3ECEC; stroke-width: 1.0;"/><path d="M194.0283,25.79 Q193.6865,25.9658 193.3105,26.0537 Q192.9346,26.1416 192.5195,26.1416 Q191.0449,26.1416 190.2686,25.1699 Q189.4922,24.1982 189.4922,22.3623 Q189.4922,20.5215 190.2686,19.5498 Q191.0449,18.5781 192.5195,18.5781 Q192.9346,18.5781 193.3154,18.666 Q193.6963,18.7539 194.0283,18.9297 L194.0283,20.5313 Q193.6572,20.1895 193.3081,20.0308 Q192.959,19.8721 192.5879,19.8721 Q191.7969,19.8721 191.394,20.4995 Q190.9912,21.127 190.9912,22.3623 Q190.9912,23.5928 191.394,24.2202 Q191.7969,24.8477 192.5879,24.8477 Q192.959,24.8477 193.3081,24.689 Q193.6572,24.5303 194.0283,24.1885 Z "/><text fill="#19273C" font-family="Open Sans" font-size="10" lengthAdjust="spacingAndGlyphs" textLength="95" x="210.25" y="26.3794">TransactionRegistry</text><line style="stroke: #E3ECEC; stroke-width: 1.5;" x1="7" x2="481" y1="36.5" y2="36.5"/><line style="stroke: #E3ECEC; stroke-width: 1.5;" x1="7" x2="481" y1="44.5" y2="44.5"/><ellipse cx="16" cy="56.8091" fill="#84BE84" rx="2" ry="2" style="stroke: #038048; stroke-width: 1.0;"/><text fill="#19273C" font-family="Open Sans" font-size="10" lengthAdjust="spacingAndGlyphs" textLength="412" x="24" y="59.1885">Promise getAllTransactionRegistries(SecurityContext,ModelManager,Factory,Serializer)</text><ellipse cx="16" cy="70.4272" fill="#84BE84" rx="2" ry="2" style="stroke: #038048; stroke-width: 1.0;"/><text fill="#19273C" font-family="Open Sans" font-size="10" lengthAdjust="spacingAndGlyphs" textLength="420" x="24" y="72.8066">Promise getTransactionRegistry(SecurityContext,string,ModelManager,Factory,Serializer)</text><ellipse cx="16" cy="84.0454" fill="#84BE84" rx="2" ry="2" style="stroke: #038048; stroke-width: 1.0;"/><text fill="#19273C" font-family="Open Sans" font-size="10" lengthAdjust="spacingAndGlyphs" textLength="452" x="24" y="86.4248">Promise addTransactionRegistry(SecurityContext,string,string,ModelManager,Factory,Serializer)</text><path d="M244,93.731 C244,105.72 244,119.574 244,134.306 " fill="none" style="stroke: #3C6DF0; stroke-width: 1.0;"/><polygon fill="none" points="251,134.468,244,154.468,237,134.468,251,134.468" style="stroke: #3C6DF0; stroke-width: 1.0;"/></g></svg>