<?xml version="1.0" encoding="UTF-8" standalone="no"?><svg xmlns="http://www.w3.org/2000/svg" xmlns:xlink="http://www.w3.org/1999/xlink" contentScriptType="application/ecmascript" contentStyleType="text/css" height="441px" preserveAspectRatio="none" style="width:585px;height:441px;" version="1.1" viewBox="0 0 585 441" width="585px" zoomAndPan="magnify"><defs><filter height="300%" id="f5xw3v9" width="300%" x="-1" y="-1"><feGaussianBlur result="blurOut" stdDeviation="2.0"/><feColorMatrix in="blurOut" result="blurOut2" type="matrix" values="0 0 0 0 0 0 0 0 0 0 0 0 0 0 0 0 0 0 .4 0"/><feOffset dx="4.0" dy="4.0" in="blurOut2" result="blurOut3"/><feBlend in="SourceGraphic" in2="blurOut3" mode="normal"/></filter></defs><g><!--class Registry--><rect fill="#F8F8F8" filter="url(#f5xw3v9)" height="278.4844" style="stroke: #383838; stroke-width: 1.5;" width="514" x="34" y="154"/><ellipse cx="261.75" cy="170" fill="#C2C2C2" rx="11" ry="11" style="stroke: #383838; stroke-width: 1.0;"/><path d="M264.7188,175.6406 Q264.1406,175.9375 263.5,176.0859 Q262.8594,176.2344 262.1563,176.2344 Q259.6563,176.2344 258.3359,174.5859 Q257.0156,172.9375 257.0156,169.8125 Q257.0156,166.6875 258.3359,165.0313 Q259.6563,163.375 262.1563,163.375 Q262.8594,163.375 263.5078,163.5313 Q264.1563,163.6875 264.7188,163.9844 L264.7188,166.7031 Q264.0938,166.125 263.5,165.8516 Q262.9063,165.5781 262.2813,165.5781 Q260.9375,165.5781 260.25,166.6484 Q259.5625,167.7188 259.5625,169.8125 Q259.5625,171.9063 260.25,172.9766 Q260.9375,174.0469 262.2813,174.0469 Q262.9063,174.0469 263.5,173.7734 Q264.0938,173.5 264.7188,172.9219 L264.7188,175.6406 Z "/><text fill="#000000" font-family="sans-serif" font-size="12" lengthAdjust="spacingAndGlyphs" textLength="50" x="282.25" y="174.1543">Registry</text><line style="stroke: #383838; stroke-width: 1.5;" x1="35" x2="547" y1="186" y2="186"/><line style="stroke: #383838; stroke-width: 1.5;" x1="35" x2="547" y1="194" y2="194"/><ellipse cx="45" cy="205.9023" fill="#A6A6A6" rx="3" ry="3" style="stroke: #545454; stroke-width: 1.0;"/><text fill="#000000" font-family="sans-serif" font-size="11" lengthAdjust="spacingAndGlyphs" textLength="273" x="54" y="208.2104">Promise getAllRegistries(SecurityContext,string)</text><ellipse cx="45" cy="218.707" fill="#A6A6A6" rx="3" ry="3" style="stroke: #545454; stroke-width: 1.0;"/><text fill="#000000" font-family="sans-serif" font-size="11" lengthAdjust="spacingAndGlyphs" textLength="286" x="54" y="221.0151">Promise getRegistry(SecurityContext,string,string)</text><ellipse cx="45" cy="231.5117" fill="#A6A6A6" rx="3" ry="3" style="stroke: #545454; stroke-width: 1.0;"/><text fill="#000000" font-family="sans-serif" font-size="11" lengthAdjust="spacingAndGlyphs" textLength="302" x="54" y="233.8198">Promise existsRegistry(SecurityContext,string,string)</text><ellipse cx="45" cy="244.3164" fill="#A6A6A6" rx="3" ry="3" style="stroke: #545454; stroke-width: 1.0;"/><text fill="#000000" font-family="sans-serif" font-size="11" lengthAdjust="spacingAndGlyphs" textLength="326" x="54" y="246.6245">Promise addRegistry(SecurityContext,string,string,string)</text><ellipse cx="45" cy="257.1211" fill="#A6A6A6" rx="3" ry="3" style="stroke: #545454; stroke-width: 1.0;"/><text fill="#000000" font-family="sans-serif" font-size="11" lengthAdjust="spacingAndGlyphs" textLength="488" x="54" y="259.4292">void constructor(string,string,string,SecurityContext,ModelManager,Factory,Serializer)</text><ellipse cx="45" cy="269.9258" fill="#A6A6A6" rx="3" ry="3" style="stroke: #545454; stroke-width: 1.0;"/><text fill="#000000" font-family="sans-serif" font-size="11" lengthAdjust="spacingAndGlyphs" textLength="154" x="54" y="272.2339">Promise addAll(Resource[])</text><ellipse cx="45" cy="282.7305" fill="#A6A6A6" rx="3" ry="3" style="stroke: #545454; stroke-width: 1.0;"/><text fill="#000000" font-family="sans-serif" font-size="11" lengthAdjust="spacingAndGlyphs" textLength="133" x="54" y="285.0386">Promise add(Resource)</text><ellipse cx="45" cy="295.5352" fill="#A6A6A6" rx="3" ry="3" style="stroke: #545454; stroke-width: 1.0;"/><text fill="#000000" font-family="sans-serif" font-size="11" lengthAdjust="spacingAndGlyphs" textLength="172" x="54" y="297.8433">Promise updateAll(Resource[])</text><ellipse cx="45" cy="308.3398" fill="#A6A6A6" rx="3" ry="3" style="stroke: #545454; stroke-width: 1.0;"/><text fill="#000000" font-family="sans-serif" font-size="11" lengthAdjust="spacingAndGlyphs" textLength="151" x="54" y="310.6479">Promise update(Resource)</text><ellipse cx="45" cy="321.1445" fill="#A6A6A6" rx="3" ry="3" style="stroke: #545454; stroke-width: 1.0;"/><text fill="#000000" font-family="sans-serif" font-size="11" lengthAdjust="spacingAndGlyphs" textLength="115" x="54" y="323.4526">Promise removeAll()</text><ellipse cx="45" cy="333.9492" fill="#A6A6A6" rx="3" ry="3" style="stroke: #545454; stroke-width: 1.0;"/><text fill="#000000" font-family="sans-serif" font-size="11" lengthAdjust="spacingAndGlyphs" textLength="102" x="54" y="336.2573">Promise remove()</text><ellipse cx="45" cy="346.7539" fill="#A6A6A6" rx="3" ry="3" style="stroke: #545454; stroke-width: 1.0;"/><text fill="#000000" font-family="sans-serif" font-size="11" lengthAdjust="spacingAndGlyphs" textLength="90" x="54" y="349.062">Promise getAll()</text><ellipse cx="45" cy="359.5586" fill="#A6A6A6" rx="3" ry="3" style="stroke: #545454; stroke-width: 1.0;"/><text fill="#000000" font-family="sans-serif" font-size="11" lengthAdjust="spacingAndGlyphs" textLength="110" x="54" y="361.8667">Promise get(string)</text><ellipse cx="45" cy="372.3633" fill="#A6A6A6" rx="3" ry="3" style="stroke: #545454; stroke-width: 1.0;"/><text fill="#000000" font-family="sans-serif" font-size="11" lengthAdjust="spacingAndGlyphs" textLength="126" x="54" y="374.6714">Promise exists(string)</text><ellipse cx="45" cy="385.168" fill="#A6A6A6" rx="3" ry="3" style="stroke: #545454; stroke-width: 1.0;"/><text fill="#000000" font-family="sans-serif" font-size="11" lengthAdjust="spacingAndGlyphs" textLength="113" x="54" y="387.4761">Promise find(string)</text><ellipse cx="45" cy="397.9727" fill="#A6A6A6" rx="3" ry="3" style="stroke: #545454; stroke-width: 1.0;"/><text fill="#000000" font-family="sans-serif" font-size="11" lengthAdjust="spacingAndGlyphs" textLength="124" x="54" y="400.2808">Promise query(string)</text><ellipse cx="45" cy="410.7773" fill="#A6A6A6" rx="3" ry="3" style="stroke: #545454; stroke-width: 1.0;"/><text fill="#000000" font-family="sans-serif" font-size="11" lengthAdjust="spacingAndGlyphs" textLength="114" x="54" y="413.0854">Promise resolveAll()</text><ellipse cx="45" cy="423.582" fill="#A6A6A6" rx="3" ry="3" style="stroke: #545454; stroke-width: 1.0;"/><text fill="#000000" font-family="sans-serif" font-size="11" lengthAdjust="spacingAndGlyphs" textLength="134" x="54" y="425.8901">Promise resolve(string)</text><!--class TransactionRegistry--><rect fill="#F8F8F8" filter="url(#f5xw3v9)" height="86.4141" style="stroke: #383838; stroke-width: 1.5;" width="570" x="6" y="8"/><ellipse cx="224.75" cy="24" fill="#C2C2C2" rx="11" ry="11" style="stroke: #383838; stroke-width: 1.0;"/><path d="M227.7188,29.6406 Q227.1406,29.9375 226.5,30.0859 Q225.8594,30.2344 225.1563,30.2344 Q222.6563,30.2344 221.3359,28.5859 Q220.0156,26.9375 220.0156,23.8125 Q220.0156,20.6875 221.3359,19.0313 Q222.6563,17.375 225.1563,17.375 Q225.8594,17.375 226.5078,17.5313 Q227.1563,17.6875 227.7188,17.9844 L227.7188,20.7031 Q227.0938,20.125 226.5,19.8516 Q225.9063,19.5781 225.2813,19.5781 Q223.9375,19.5781 223.25,20.6484 Q222.5625,21.7188 222.5625,23.8125 Q222.5625,25.9063 223.25,26.9766 Q223.9375,28.0469 225.2813,28.0469 Q225.9063,28.0469 226.5,27.7734 Q227.0938,27.5 227.7188,26.9219 L227.7188,29.6406 Z "/><text fill="#000000" font-family="sans-serif" font-size="12" lengthAdjust="spacingAndGlyphs" textLength="124" x="245.25" y="28.1543">TransactionRegistry</text><line style="stroke: #383838; stroke-width: 1.5;" x1="7" x2="575" y1="40" y2="40"/><line style="stroke: #383838; stroke-width: 1.5;" x1="7" x2="575" y1="48" y2="48"/><ellipse cx="17" cy="59.9023" fill="#A6A6A6" rx="3" ry="3" style="stroke: #545454; stroke-width: 1.0;"/><text fill="#000000" font-family="sans-serif" font-size="11" lengthAdjust="spacingAndGlyphs" textLength="491" x="26" y="62.2104">Promise getAllTransactionRegistries(SecurityContext,ModelManager,Factory,Serializer)</text><ellipse cx="17" cy="72.707" fill="#A6A6A6" rx="3" ry="3" style="stroke: #545454; stroke-width: 1.0;"/><text fill="#000000" font-family="sans-serif" font-size="11" lengthAdjust="spacingAndGlyphs" textLength="504" x="26" y="75.0151">Promise getTransactionRegistry(SecurityContext,string,ModelManager,Factory,Serializer)</text><ellipse cx="17" cy="85.5117" fill="#A6A6A6" rx="3" ry="3" style="stroke: #545454; stroke-width: 1.0;"/><text fill="#000000" font-family="sans-serif" font-size="11" lengthAdjust="spacingAndGlyphs" textLength="544" x="26" y="87.8198">Promise addTransactionRegistry(SecurityContext,string,string,ModelManager,Factory,Serializer)</text><path d="M291,94.079 C291,105.864 291,119.414 291,133.78 " fill="none" style="stroke: #383838; stroke-width: 1.0;"/><polygon fill="none" points="298,133.787,291,153.787,284,133.787,298,133.787" style="stroke: #383838; stroke-width: 1.0;"/></g></svg>