<?xml version="1.0" encoding="UTF-8" standalone="no"?><svg xmlns="http://www.w3.org/2000/svg" xmlns:xlink="http://www.w3.org/1999/xlink" contentScriptType="application/ecmascript" contentStyleType="text/css" height="401px" preserveAspectRatio="none" style="width:497px;height:401px;" version="1.1" viewBox="0 0 497 401" width="497px" zoomAndPan="magnify"><defs/><g><!--class Registry--><rect fill="#F8FAFA" height="253.5313" rx="1" ry="1" style="stroke: #E3ECEC; stroke-width: 1.5;" width="442" x="30" y="147"/><ellipse cx="227.25" cy="161" fill="#FFFFFF" rx="9" ry="9" style="stroke: #E3ECEC; stroke-width: 1.0;"/><path d="M228.5313,164.2969 Q228.1875,164.4688 227.8125,164.5547 Q227.4375,164.6406 227.0156,164.6406 Q225.5469,164.6406 224.7734,163.6719 Q224,162.7031 224,160.8594 Q224,159.0156 224.7734,158.0469 Q225.5469,157.0781 227.0156,157.0781 Q227.4375,157.0781 227.8203,157.1641 Q228.2031,157.25 228.5313,157.4219 L228.5313,159.0313 Q228.1563,158.6875 227.8047,158.5313 Q227.4531,158.375 227.0938,158.375 Q226.2969,158.375 225.8906,159 Q225.4844,159.625 225.4844,160.8594 Q225.4844,162.0938 225.8906,162.7188 Q226.2969,163.3438 227.0938,163.3438 Q227.4531,163.3438 227.8047,163.1875 Q228.1563,163.0313 228.5313,162.6875 L228.5313,164.2969 Z "/><text fill="#19273C" font-family="Open Sans" font-size="10" lengthAdjust="spacingAndGlyphs" textLength="40" x="244.75" y="164.4619">Registry</text><line style="stroke: #E3ECEC; stroke-width: 1.5;" x1="31" x2="471" y1="175" y2="175"/><line style="stroke: #E3ECEC; stroke-width: 1.5;" x1="31" x2="471" y1="183" y2="183"/><ellipse cx="40" cy="194.3203" fill="#84BE84" rx="2" ry="2" style="stroke: #038048; stroke-width: 1.0;"/><text fill="#19273C" font-family="Open Sans" font-size="10" lengthAdjust="spacingAndGlyphs" textLength="235" x="48" y="196.2822">Promise getAllRegistries(SecurityContext,string)</text><ellipse cx="40" cy="205.9609" fill="#84BE84" rx="2" ry="2" style="stroke: #038048; stroke-width: 1.0;"/><text fill="#19273C" font-family="Open Sans" font-size="10" lengthAdjust="spacingAndGlyphs" textLength="247" x="48" y="207.9229">Promise getRegistry(SecurityContext,string,string)</text><ellipse cx="40" cy="217.6016" fill="#84BE84" rx="2" ry="2" style="stroke: #038048; stroke-width: 1.0;"/><text fill="#19273C" font-family="Open Sans" font-size="10" lengthAdjust="spacingAndGlyphs" textLength="259" x="48" y="219.5635">Promise existsRegistry(SecurityContext,string,string)</text><ellipse cx="40" cy="229.2422" fill="#84BE84" rx="2" ry="2" style="stroke: #038048; stroke-width: 1.0;"/><text fill="#19273C" font-family="Open Sans" font-size="10" lengthAdjust="spacingAndGlyphs" textLength="279" x="48" y="231.2041">Promise addRegistry(SecurityContext,string,string,string)</text><ellipse cx="40" cy="240.8828" fill="#84BE84" rx="2" ry="2" style="stroke: #038048; stroke-width: 1.0;"/><text fill="#19273C" font-family="Open Sans" font-size="10" lengthAdjust="spacingAndGlyphs" textLength="418" x="48" y="242.8447">void constructor(string,string,string,SecurityContext,ModelManager,Factory,Serializer)</text><ellipse cx="40" cy="252.5234" fill="#84BE84" rx="2" ry="2" style="stroke: #038048; stroke-width: 1.0;"/><text fill="#19273C" font-family="Open Sans" font-size="10" lengthAdjust="spacingAndGlyphs" textLength="133" x="48" y="254.4854">Promise addAll(Resource[])</text><ellipse cx="40" cy="264.1641" fill="#84BE84" rx="2" ry="2" style="stroke: #038048; stroke-width: 1.0;"/><text fill="#19273C" font-family="Open Sans" font-size="10" lengthAdjust="spacingAndGlyphs" textLength="114" x="48" y="266.126">Promise add(Resource)</text><ellipse cx="40" cy="275.8047" fill="#84BE84" rx="2" ry="2" style="stroke: #038048; stroke-width: 1.0;"/><text fill="#19273C" font-family="Open Sans" font-size="10" lengthAdjust="spacingAndGlyphs" textLength="149" x="48" y="277.7666">Promise updateAll(Resource[])</text><ellipse cx="40" cy="287.4453" fill="#84BE84" rx="2" ry="2" style="stroke: #038048; stroke-width: 1.0;"/><text fill="#19273C" font-family="Open Sans" font-size="10" lengthAdjust="spacingAndGlyphs" textLength="130" x="48" y="289.4072">Promise update(Resource)</text><ellipse cx="40" cy="299.0859" fill="#84BE84" rx="2" ry="2" style="stroke: #038048; stroke-width: 1.0;"/><text fill="#19273C" font-family="Open Sans" font-size="10" lengthAdjust="spacingAndGlyphs" textLength="100" x="48" y="301.0479">Promise removeAll()</text><ellipse cx="40" cy="310.7266" fill="#84BE84" rx="2" ry="2" style="stroke: #038048; stroke-width: 1.0;"/><text fill="#19273C" font-family="Open Sans" font-size="10" lengthAdjust="spacingAndGlyphs" textLength="89" x="48" y="312.6885">Promise remove()</text><ellipse cx="40" cy="322.3672" fill="#84BE84" rx="2" ry="2" style="stroke: #038048; stroke-width: 1.0;"/><text fill="#19273C" font-family="Open Sans" font-size="10" lengthAdjust="spacingAndGlyphs" textLength="78" x="48" y="324.3291">Promise getAll()</text><ellipse cx="40" cy="334.0078" fill="#84BE84" rx="2" ry="2" style="stroke: #038048; stroke-width: 1.0;"/><text fill="#19273C" font-family="Open Sans" font-size="10" lengthAdjust="spacingAndGlyphs" textLength="94" x="48" y="335.9697">Promise get(string)</text><ellipse cx="40" cy="345.6484" fill="#84BE84" rx="2" ry="2" style="stroke: #038048; stroke-width: 1.0;"/><text fill="#19273C" font-family="Open Sans" font-size="10" lengthAdjust="spacingAndGlyphs" textLength="106" x="48" y="347.6104">Promise exists(string)</text><ellipse cx="40" cy="357.2891" fill="#84BE84" rx="2" ry="2" style="stroke: #038048; stroke-width: 1.0;"/><text fill="#19273C" font-family="Open Sans" font-size="10" lengthAdjust="spacingAndGlyphs" textLength="96" x="48" y="359.251">Promise find(string)</text><ellipse cx="40" cy="368.9297" fill="#84BE84" rx="2" ry="2" style="stroke: #038048; stroke-width: 1.0;"/><text fill="#19273C" font-family="Open Sans" font-size="10" lengthAdjust="spacingAndGlyphs" textLength="106" x="48" y="370.8916">Promise query(string)</text><ellipse cx="40" cy="380.5703" fill="#84BE84" rx="2" ry="2" style="stroke: #038048; stroke-width: 1.0;"/><text fill="#19273C" font-family="Open Sans" font-size="10" lengthAdjust="spacingAndGlyphs" textLength="97" x="48" y="382.5322">Promise resolveAll()</text><ellipse cx="40" cy="392.2109" fill="#84BE84" rx="2" ry="2" style="stroke: #038048; stroke-width: 1.0;"/><text fill="#19273C" font-family="Open Sans" font-size="10" lengthAdjust="spacingAndGlyphs" textLength="113" x="48" y="394.1729">Promise resolve(string)</text><!--class TransactionRegistry--><rect fill="#F8FAFA" height="78.9219" rx="1" ry="1" style="stroke: #E3ECEC; stroke-width: 1.5;" width="490" x="6" y="8"/><ellipse cx="199.75" cy="22" fill="#FFFFFF" rx="9" ry="9" style="stroke: #E3ECEC; stroke-width: 1.0;"/><path d="M201.0313,25.2969 Q200.6875,25.4688 200.3125,25.5547 Q199.9375,25.6406 199.5156,25.6406 Q198.0469,25.6406 197.2734,24.6719 Q196.5,23.7031 196.5,21.8594 Q196.5,20.0156 197.2734,19.0469 Q198.0469,18.0781 199.5156,18.0781 Q199.9375,18.0781 200.3203,18.1641 Q200.7031,18.25 201.0313,18.4219 L201.0313,20.0313 Q200.6563,19.6875 200.3047,19.5313 Q199.9531,19.375 199.5938,19.375 Q198.7969,19.375 198.3906,20 Q197.9844,20.625 197.9844,21.8594 Q197.9844,23.0938 198.3906,23.7188 Q198.7969,24.3438 199.5938,24.3438 Q199.9531,24.3438 200.3047,24.1875 Q200.6563,24.0313 201.0313,23.6875 L201.0313,25.2969 Z "/><text fill="#19273C" font-family="Open Sans" font-size="10" lengthAdjust="spacingAndGlyphs" textLength="95" x="217.25" y="25.4619">TransactionRegistry</text><line style="stroke: #E3ECEC; stroke-width: 1.5;" x1="7" x2="495" y1="36" y2="36"/><line style="stroke: #E3ECEC; stroke-width: 1.5;" x1="7" x2="495" y1="44" y2="44"/><ellipse cx="16" cy="55.3203" fill="#84BE84" rx="2" ry="2" style="stroke: #038048; stroke-width: 1.0;"/><text fill="#19273C" font-family="Open Sans" font-size="10" lengthAdjust="spacingAndGlyphs" textLength="422" x="24" y="57.2822">Promise getAllTransactionRegistries(SecurityContext,ModelManager,Factory,Serializer)</text><ellipse cx="16" cy="66.9609" fill="#84BE84" rx="2" ry="2" style="stroke: #038048; stroke-width: 1.0;"/><text fill="#19273C" font-family="Open Sans" font-size="10" lengthAdjust="spacingAndGlyphs" textLength="434" x="24" y="68.9229">Promise getTransactionRegistry(SecurityContext,string,ModelManager,Factory,Serializer)</text><ellipse cx="16" cy="78.6016" fill="#84BE84" rx="2" ry="2" style="stroke: #038048; stroke-width: 1.0;"/><text fill="#19273C" font-family="Open Sans" font-size="10" lengthAdjust="spacingAndGlyphs" textLength="466" x="24" y="80.5635">Promise addTransactionRegistry(SecurityContext,string,string,ModelManager,Factory,Serializer)</text><path d="M251,87.093 C251,98.596 251,111.947 251,126.115 " fill="none" style="stroke: #3C6DF0; stroke-width: 1.0;"/><polygon fill="none" points="258,126.58,251,146.58,244,126.58,258,126.58" style="stroke: #3C6DF0; stroke-width: 1.0;"/></g></svg>