<?xml version="1.0" encoding="UTF-8" standalone="no"?><svg xmlns="http://www.w3.org/2000/svg" xmlns:xlink="http://www.w3.org/1999/xlink" contentScriptType="application/ecmascript" contentStyleType="text/css" height="111px" preserveAspectRatio="none" style="width:204px;height:111px;" version="1.1" viewBox="0 0 204 111" width="204px" zoomAndPan="magnify"><defs/><g><!--class Typed--><rect fill="#F8FAFA" height="102.2031" rx="1" ry="1" style="stroke: #E3ECEC; stroke-width: 1.5;" width="197" x="6" y="8"/><ellipse cx="86.25" cy="22" fill="#FFFFFF" rx="9" ry="9" style="stroke: #E3ECEC; stroke-width: 1.0;"/><path d="M87.5313,25.2969 Q87.1875,25.4688 86.8125,25.5547 Q86.4375,25.6406 86.0156,25.6406 Q84.5469,25.6406 83.7734,24.6719 Q83,23.7031 83,21.8594 Q83,20.0156 83.7734,19.0469 Q84.5469,18.0781 86.0156,18.0781 Q86.4375,18.0781 86.8203,18.1641 Q87.2031,18.25 87.5313,18.4219 L87.5313,20.0313 Q87.1563,19.6875 86.8047,19.5313 Q86.4531,19.375 86.0938,19.375 Q85.2969,19.375 84.8906,20 Q84.4844,20.625 84.4844,21.8594 Q84.4844,23.0938 84.8906,23.7188 Q85.2969,24.3438 86.0938,24.3438 Q86.4531,24.3438 86.8047,24.1875 Q87.1563,24.0313 87.5313,23.6875 L87.5313,25.2969 Z "/><text fill="#19273C" font-family="Open Sans" font-size="10" lengthAdjust="spacingAndGlyphs" textLength="29" x="103.75" y="25.4619">Typed</text><line style="stroke: #E3ECEC; stroke-width: 1.5;" x1="7" x2="202" y1="36" y2="36"/><line style="stroke: #E3ECEC; stroke-width: 1.5;" x1="7" x2="202" y1="44" y2="44"/><ellipse cx="16" cy="55.3203" fill="#84BE84" rx="2" ry="2" style="stroke: #038048; stroke-width: 1.0;"/><text fill="#19273C" font-family="Open Sans" font-size="10" lengthAdjust="spacingAndGlyphs" textLength="77" x="24" y="57.2822">string getType()</text><ellipse cx="16" cy="66.9609" fill="#84BE84" rx="2" ry="2" style="stroke: #038048; stroke-width: 1.0;"/><text fill="#19273C" font-family="Open Sans" font-size="10" lengthAdjust="spacingAndGlyphs" textLength="141" x="24" y="68.9229">string getFullyQualifiedType()</text><ellipse cx="16" cy="78.6016" fill="#84BE84" rx="2" ry="2" style="stroke: #038048; stroke-width: 1.0;"/><text fill="#19273C" font-family="Open Sans" font-size="10" lengthAdjust="spacingAndGlyphs" textLength="112" x="24" y="80.5635">string getNamespace()</text><ellipse cx="16" cy="90.2422" fill="#84BE84" rx="2" ry="2" style="stroke: #038048; stroke-width: 1.0;"/><text fill="#19273C" font-family="Open Sans" font-size="10" lengthAdjust="spacingAndGlyphs" textLength="173" x="24" y="92.2041">void setPropertyValue(string,string)</text><ellipse cx="16" cy="101.8828" fill="#84BE84" rx="2" ry="2" style="stroke: #038048; stroke-width: 1.0;"/><text fill="#19273C" font-family="Open Sans" font-size="10" lengthAdjust="spacingAndGlyphs" textLength="160" x="24" y="103.8447">void addArrayValue(string,string)</text></g></svg>