<?xml version="1.0" encoding="UTF-8" standalone="no"?><svg xmlns="http://www.w3.org/2000/svg" xmlns:xlink="http://www.w3.org/1999/xlink" contentScriptType="application/ecmascript" contentStyleType="text/css" height="121px" preserveAspectRatio="none" style="width:199px;height:121px;" version="1.1" viewBox="0 0 199 121" width="199px" zoomAndPan="magnify"><defs/><g><!--class Typed--><rect fill="#F8FAFA" height="112.0908" rx="1" ry="1" style="stroke: #E3ECEC; stroke-width: 1.5;" width="192" x="6" y="8"/><ellipse cx="83.75" cy="22" fill="#FFFFFF" rx="9" ry="9" style="stroke: #E3ECEC; stroke-width: 1.0;"/><path d="M85.0283,25.29 Q84.6865,25.4658 84.3105,25.5537 Q83.9346,25.6416 83.5195,25.6416 Q82.0449,25.6416 81.2686,24.6699 Q80.4922,23.6982 80.4922,21.8623 Q80.4922,20.0215 81.2686,19.0498 Q82.0449,18.0781 83.5195,18.0781 Q83.9346,18.0781 84.3154,18.166 Q84.6963,18.2539 85.0283,18.4297 L85.0283,20.0313 Q84.6572,19.6895 84.3081,19.5308 Q83.959,19.3721 83.5879,19.3721 Q82.7969,19.3721 82.394,19.9995 Q81.9912,20.627 81.9912,21.8623 Q81.9912,23.0928 82.394,23.7202 Q82.7969,24.3477 83.5879,24.3477 Q83.959,24.3477 84.3081,24.189 Q84.6572,24.0303 85.0283,23.6885 Z "/><text fill="#19273C" font-family="Open Sans" font-size="10" lengthAdjust="spacingAndGlyphs" textLength="29" x="101.25" y="25.8794">Typed</text><line style="stroke: #E3ECEC; stroke-width: 1.5;" x1="7" x2="197" y1="36" y2="36"/><line style="stroke: #E3ECEC; stroke-width: 1.5;" x1="7" x2="197" y1="44" y2="44"/><ellipse cx="16" cy="56.3091" fill="#84BE84" rx="2" ry="2" style="stroke: #038048; stroke-width: 1.0;"/><text fill="#19273C" font-family="Open Sans" font-size="10" lengthAdjust="spacingAndGlyphs" textLength="74" x="24" y="58.6885">string getType()</text><ellipse cx="16" cy="69.9272" fill="#84BE84" rx="2" ry="2" style="stroke: #038048; stroke-width: 1.0;"/><text fill="#19273C" font-family="Open Sans" font-size="10" lengthAdjust="spacingAndGlyphs" textLength="140" x="24" y="72.3066">string getFullyQualifiedType()</text><ellipse cx="16" cy="83.5454" fill="#84BE84" rx="2" ry="2" style="stroke: #038048; stroke-width: 1.0;"/><text fill="#19273C" font-family="Open Sans" font-size="10" lengthAdjust="spacingAndGlyphs" textLength="108" x="24" y="85.9248">string getNamespace()</text><ellipse cx="16" cy="97.1636" fill="#84BE84" rx="2" ry="2" style="stroke: #038048; stroke-width: 1.0;"/><text fill="#19273C" font-family="Open Sans" font-size="10" lengthAdjust="spacingAndGlyphs" textLength="168" x="24" y="99.543">void setPropertyValue(string,string)</text><ellipse cx="16" cy="110.7817" fill="#84BE84" rx="2" ry="2" style="stroke: #038048; stroke-width: 1.0;"/><text fill="#19273C" font-family="Open Sans" font-size="10" lengthAdjust="spacingAndGlyphs" textLength="155" x="24" y="113.1611">void addArrayValue(string,string)</text></g></svg>