<?xml version="1.0" encoding="UTF-8" standalone="no"?><svg xmlns="http://www.w3.org/2000/svg" xmlns:xlink="http://www.w3.org/1999/xlink" contentScriptType="application/ecmascript" contentStyleType="text/css" height="192px" preserveAspectRatio="none" style="width:204px;height:192px;" version="1.1" viewBox="0 0 204 192" width="204px" zoomAndPan="magnify"><defs/><g><!--class ValidatedConcept--><rect fill="#F8FAFA" height="78.9219" rx="1" ry="1" style="stroke: #E3ECEC; stroke-width: 1.5;" width="197" x="6" y="8"/><ellipse cx="57.75" cy="22" fill="#FFFFFF" rx="9" ry="9" style="stroke: #E3ECEC; stroke-width: 1.0;"/><path d="M59.0313,25.2969 Q58.6875,25.4688 58.3125,25.5547 Q57.9375,25.6406 57.5156,25.6406 Q56.0469,25.6406 55.2734,24.6719 Q54.5,23.7031 54.5,21.8594 Q54.5,20.0156 55.2734,19.0469 Q56.0469,18.0781 57.5156,18.0781 Q57.9375,18.0781 58.3203,18.1641 Q58.7031,18.25 59.0313,18.4219 L59.0313,20.0313 Q58.6563,19.6875 58.3047,19.5313 Q57.9531,19.375 57.5938,19.375 Q56.7969,19.375 56.3906,20 Q55.9844,20.625 55.9844,21.8594 Q55.9844,23.0938 56.3906,23.7188 Q56.7969,24.3438 57.5938,24.3438 Q57.9531,24.3438 58.3047,24.1875 Q58.6563,24.0313 59.0313,23.6875 L59.0313,25.2969 Z "/><text fill="#19273C" font-family="Open Sans" font-size="10" lengthAdjust="spacingAndGlyphs" textLength="86" x="75.25" y="25.4619">ValidatedConcept</text><line style="stroke: #E3ECEC; stroke-width: 1.5;" x1="7" x2="202" y1="36" y2="36"/><line style="stroke: #E3ECEC; stroke-width: 1.5;" x1="7" x2="202" y1="44" y2="44"/><ellipse cx="16" cy="55.3203" fill="#84BE84" rx="2" ry="2" style="stroke: #038048; stroke-width: 1.0;"/><text fill="#19273C" font-family="Open Sans" font-size="10" lengthAdjust="spacingAndGlyphs" textLength="173" x="24" y="57.2822">void setPropertyValue(string,string)</text><ellipse cx="16" cy="66.9609" fill="#84BE84" rx="2" ry="2" style="stroke: #038048; stroke-width: 1.0;"/><text fill="#19273C" font-family="Open Sans" font-size="10" lengthAdjust="spacingAndGlyphs" textLength="160" x="24" y="68.9229">void addArrayValue(string,string)</text><ellipse cx="16" cy="78.6016" fill="#84BE84" rx="2" ry="2" style="stroke: #038048; stroke-width: 1.0;"/><text fill="#19273C" font-family="Open Sans" font-size="10" lengthAdjust="spacingAndGlyphs" textLength="69" x="24" y="80.5635">void validate()</text><!--class Concept--><rect fill="#F8FAFA" height="44" rx="1" ry="1" style="stroke: #E3ECEC; stroke-width: 1.5;" width="69" x="70" y="147"/><ellipse cx="83" cy="161" fill="#FFFFFF" rx="9" ry="9" style="stroke: #E3ECEC; stroke-width: 1.0;"/><path d="M84.2813,164.2969 Q83.9375,164.4688 83.5625,164.5547 Q83.1875,164.6406 82.7656,164.6406 Q81.2969,164.6406 80.5234,163.6719 Q79.75,162.7031 79.75,160.8594 Q79.75,159.0156 80.5234,158.0469 Q81.2969,157.0781 82.7656,157.0781 Q83.1875,157.0781 83.5703,157.1641 Q83.9531,157.25 84.2813,157.4219 L84.2813,159.0313 Q83.9063,158.6875 83.5547,158.5313 Q83.2031,158.375 82.8438,158.375 Q82.0469,158.375 81.6406,159 Q81.2344,159.625 81.2344,160.8594 Q81.2344,162.0938 81.6406,162.7188 Q82.0469,163.3438 82.8438,163.3438 Q83.2031,163.3438 83.5547,163.1875 Q83.9063,163.0313 84.2813,162.6875 L84.2813,164.2969 Z "/><text fill="#19273C" font-family="Open Sans" font-size="10" lengthAdjust="spacingAndGlyphs" textLength="41" x="95" y="164.4619">Concept</text><line style="stroke: #E3ECEC; stroke-width: 1.5;" x1="71" x2="138" y1="175" y2="175"/><line style="stroke: #E3ECEC; stroke-width: 1.5;" x1="71" x2="138" y1="183" y2="183"/><path d="M104.5,87.298 C104.5,99.805 104.5,113.714 104.5,126.4134 " fill="none" style="stroke: #3C6DF0; stroke-width: 1.0;"/><polygon fill="none" points="111.5,126.7875,104.5,146.7875,97.5001,126.7874,111.5,126.7875" style="stroke: #3C6DF0; stroke-width: 1.0;"/></g></svg>