<?xml version="1.0" encoding="UTF-8" standalone="no"?><svg xmlns="http://www.w3.org/2000/svg" xmlns:xlink="http://www.w3.org/1999/xlink" contentScriptType="application/ecmascript" contentStyleType="text/css" height="199px" preserveAspectRatio="none" style="width:199px;height:199px;" version="1.1" viewBox="0 0 199 199" width="199px" zoomAndPan="magnify"><defs/><g><!--class ValidatedResource--><rect fill="#F8FAFA" height="84.8545" rx="1" ry="1" style="stroke: #E3ECEC; stroke-width: 1.5;" width="192" x="6" y="8.5"/><ellipse cx="53.25" cy="22.5" fill="#FFFFFF" rx="9" ry="9" style="stroke: #E3ECEC; stroke-width: 1.0;"/><path d="M54.5283,25.79 Q54.1865,25.9658 53.8105,26.0537 Q53.4346,26.1416 53.0195,26.1416 Q51.5449,26.1416 50.7686,25.1699 Q49.9922,24.1982 49.9922,22.3623 Q49.9922,20.5215 50.7686,19.5498 Q51.5449,18.5781 53.0195,18.5781 Q53.4346,18.5781 53.8154,18.666 Q54.1963,18.7539 54.5283,18.9297 L54.5283,20.5313 Q54.1572,20.1895 53.8081,20.0308 Q53.459,19.8721 53.0879,19.8721 Q52.2969,19.8721 51.894,20.4995 Q51.4912,21.127 51.4912,22.3623 Q51.4912,23.5928 51.894,24.2202 Q52.2969,24.8477 53.0879,24.8477 Q53.459,24.8477 53.8081,24.689 Q54.1572,24.5303 54.5283,24.1885 Z "/><text fill="#19273C" font-family="Open Sans" font-size="10" lengthAdjust="spacingAndGlyphs" textLength="90" x="70.75" y="26.3794">ValidatedResource</text><line style="stroke: #E3ECEC; stroke-width: 1.5;" x1="7" x2="197" y1="36.5" y2="36.5"/><line style="stroke: #E3ECEC; stroke-width: 1.5;" x1="7" x2="197" y1="44.5" y2="44.5"/><ellipse cx="16" cy="56.8091" fill="#84BE84" rx="2" ry="2" style="stroke: #038048; stroke-width: 1.0;"/><text fill="#19273C" font-family="Open Sans" font-size="10" lengthAdjust="spacingAndGlyphs" textLength="168" x="24" y="59.1885">void setPropertyValue(string,string)</text><ellipse cx="16" cy="70.4272" fill="#84BE84" rx="2" ry="2" style="stroke: #038048; stroke-width: 1.0;"/><text fill="#19273C" font-family="Open Sans" font-size="10" lengthAdjust="spacingAndGlyphs" textLength="155" x="24" y="72.8066">void addArrayValue(string,string)</text><ellipse cx="16" cy="84.0454" fill="#84BE84" rx="2" ry="2" style="stroke: #038048; stroke-width: 1.0;"/><text fill="#19273C" font-family="Open Sans" font-size="10" lengthAdjust="spacingAndGlyphs" textLength="68" x="24" y="86.4248">void validate()</text><!--class Resource--><rect fill="#F8FAFA" height="44" rx="1" ry="1" style="stroke: #E3ECEC; stroke-width: 1.5;" width="72" x="66" y="154"/><ellipse cx="79" cy="168" fill="#FFFFFF" rx="9" ry="9" style="stroke: #E3ECEC; stroke-width: 1.0;"/><path d="M80.2783,171.29 Q79.9365,171.4658 79.5605,171.5537 Q79.1846,171.6416 78.7695,171.6416 Q77.2949,171.6416 76.5186,170.6699 Q75.7422,169.6982 75.7422,167.8623 Q75.7422,166.0215 76.5186,165.0498 Q77.2949,164.0781 78.7695,164.0781 Q79.1846,164.0781 79.5654,164.166 Q79.9463,164.2539 80.2783,164.4297 L80.2783,166.0313 Q79.9072,165.6895 79.5581,165.5308 Q79.209,165.3721 78.8379,165.3721 Q78.0469,165.3721 77.644,165.9995 Q77.2412,166.627 77.2412,167.8623 Q77.2412,169.0928 77.644,169.7202 Q78.0469,170.3477 78.8379,170.3477 Q79.209,170.3477 79.5581,170.189 Q79.9072,170.0303 80.2783,169.6885 Z "/><text fill="#19273C" font-family="Open Sans" font-size="10" lengthAdjust="spacingAndGlyphs" textLength="44" x="91" y="171.8794">Resource</text><line style="stroke: #E3ECEC; stroke-width: 1.5;" x1="67" x2="137" y1="182" y2="182"/><line style="stroke: #E3ECEC; stroke-width: 1.5;" x1="67" x2="137" y1="190" y2="190"/><path d="M102,93.642 C102,106.59 102,120.8533 102,133.7727 " fill="none" style="stroke: #3C6DF0; stroke-width: 1.0;"/><polygon fill="none" points="109,133.7768,102,153.7768,95.0001,133.7768,109,133.7768" style="stroke: #3C6DF0; stroke-width: 1.0;"/></g></svg>