<?xml version="1.0" encoding="UTF-8" standalone="no"?><svg xmlns="http://www.w3.org/2000/svg" xmlns:xlink="http://www.w3.org/1999/xlink" contentScriptType="application/ecmascript" contentStyleType="text/css" height="192px" preserveAspectRatio="none" style="width:204px;height:192px;" version="1.1" viewBox="0 0 204 192" width="204px" zoomAndPan="magnify"><defs/><g><!--class ValidatedResource--><rect fill="#F8FAFA" height="78.9219" rx="1" ry="1" style="stroke: #E3ECEC; stroke-width: 1.5;" width="197" x="6" y="8"/><ellipse cx="55.75" cy="22" fill="#FFFFFF" rx="9" ry="9" style="stroke: #E3ECEC; stroke-width: 1.0;"/><path d="M57.0313,25.2969 Q56.6875,25.4688 56.3125,25.5547 Q55.9375,25.6406 55.5156,25.6406 Q54.0469,25.6406 53.2734,24.6719 Q52.5,23.7031 52.5,21.8594 Q52.5,20.0156 53.2734,19.0469 Q54.0469,18.0781 55.5156,18.0781 Q55.9375,18.0781 56.3203,18.1641 Q56.7031,18.25 57.0313,18.4219 L57.0313,20.0313 Q56.6563,19.6875 56.3047,19.5313 Q55.9531,19.375 55.5938,19.375 Q54.7969,19.375 54.3906,20 Q53.9844,20.625 53.9844,21.8594 Q53.9844,23.0938 54.3906,23.7188 Q54.7969,24.3438 55.5938,24.3438 Q55.9531,24.3438 56.3047,24.1875 Q56.6563,24.0313 57.0313,23.6875 L57.0313,25.2969 Z "/><text fill="#19273C" font-family="Open Sans" font-size="10" lengthAdjust="spacingAndGlyphs" textLength="90" x="73.25" y="25.4619">ValidatedResource</text><line style="stroke: #E3ECEC; stroke-width: 1.5;" x1="7" x2="202" y1="36" y2="36"/><line style="stroke: #E3ECEC; stroke-width: 1.5;" x1="7" x2="202" y1="44" y2="44"/><ellipse cx="16" cy="55.3203" fill="#84BE84" rx="2" ry="2" style="stroke: #038048; stroke-width: 1.0;"/><text fill="#19273C" font-family="Open Sans" font-size="10" lengthAdjust="spacingAndGlyphs" textLength="173" x="24" y="57.2822">void setPropertyValue(string,string)</text><ellipse cx="16" cy="66.9609" fill="#84BE84" rx="2" ry="2" style="stroke: #038048; stroke-width: 1.0;"/><text fill="#19273C" font-family="Open Sans" font-size="10" lengthAdjust="spacingAndGlyphs" textLength="160" x="24" y="68.9229">void addArrayValue(string,string)</text><ellipse cx="16" cy="78.6016" fill="#84BE84" rx="2" ry="2" style="stroke: #038048; stroke-width: 1.0;"/><text fill="#19273C" font-family="Open Sans" font-size="10" lengthAdjust="spacingAndGlyphs" textLength="69" x="24" y="80.5635">void validate()</text><!--class Resource--><rect fill="#F8FAFA" height="44" rx="1" ry="1" style="stroke: #E3ECEC; stroke-width: 1.5;" width="73" x="68" y="147"/><ellipse cx="81" cy="161" fill="#FFFFFF" rx="9" ry="9" style="stroke: #E3ECEC; stroke-width: 1.0;"/><path d="M82.2813,164.2969 Q81.9375,164.4688 81.5625,164.5547 Q81.1875,164.6406 80.7656,164.6406 Q79.2969,164.6406 78.5234,163.6719 Q77.75,162.7031 77.75,160.8594 Q77.75,159.0156 78.5234,158.0469 Q79.2969,157.0781 80.7656,157.0781 Q81.1875,157.0781 81.5703,157.1641 Q81.9531,157.25 82.2813,157.4219 L82.2813,159.0313 Q81.9063,158.6875 81.5547,158.5313 Q81.2031,158.375 80.8438,158.375 Q80.0469,158.375 79.6406,159 Q79.2344,159.625 79.2344,160.8594 Q79.2344,162.0938 79.6406,162.7188 Q80.0469,163.3438 80.8438,163.3438 Q81.2031,163.3438 81.5547,163.1875 Q81.9063,163.0313 82.2813,162.6875 L82.2813,164.2969 Z "/><text fill="#19273C" font-family="Open Sans" font-size="10" lengthAdjust="spacingAndGlyphs" textLength="45" x="93" y="164.4619">Resource</text><line style="stroke: #E3ECEC; stroke-width: 1.5;" x1="69" x2="140" y1="175" y2="175"/><line style="stroke: #E3ECEC; stroke-width: 1.5;" x1="69" x2="140" y1="183" y2="183"/><path d="M104.5,87.298 C104.5,99.805 104.5,113.714 104.5,126.4134 " fill="none" style="stroke: #3C6DF0; stroke-width: 1.0;"/><polygon fill="none" points="111.5,126.7875,104.5,146.7875,97.5001,126.7874,111.5,126.7875" style="stroke: #3C6DF0; stroke-width: 1.0;"/></g></svg>