<?xml version="1.0" encoding="UTF-8" standalone="no"?><svg xmlns="http://www.w3.org/2000/svg" xmlns:xlink="http://www.w3.org/1999/xlink" contentScriptType="application/ecmascript" contentStyleType="text/css" height="171px" preserveAspectRatio="none" style="width:142px;height:171px;" version="1.1" viewBox="0 0 142 171" width="142px" zoomAndPan="magnify"><defs/><g><!--class ValidationException--><rect fill="#F8FAFA" height="57.6182" rx="1" ry="1" style="stroke: #E3ECEC; stroke-width: 1.5;" width="135" x="6" y="8"/><ellipse cx="23.95" cy="22" fill="#FFFFFF" rx="9" ry="9" style="stroke: #E3ECEC; stroke-width: 1.0;"/><path d="M25.2283,25.29 Q24.8865,25.4658 24.5105,25.5537 Q24.1346,25.6416 23.7195,25.6416 Q22.2449,25.6416 21.4686,24.6699 Q20.6922,23.6982 20.6922,21.8623 Q20.6922,20.0215 21.4686,19.0498 Q22.2449,18.0781 23.7195,18.0781 Q24.1346,18.0781 24.5154,18.166 Q24.8963,18.2539 25.2283,18.4297 L25.2283,20.0313 Q24.8572,19.6895 24.5081,19.5308 Q24.159,19.3721 23.7879,19.3721 Q22.9969,19.3721 22.594,19.9995 Q22.1912,20.627 22.1912,21.8623 Q22.1912,23.0928 22.594,23.7202 Q22.9969,24.3477 23.7879,24.3477 Q24.159,24.3477 24.5081,24.189 Q24.8572,24.0303 25.2283,23.6885 Z "/><text fill="#19273C" font-family="Open Sans" font-size="10" lengthAdjust="spacingAndGlyphs" textLength="96" x="37.05" y="25.8794">ValidationException</text><line style="stroke: #E3ECEC; stroke-width: 1.5;" x1="7" x2="140" y1="36" y2="36"/><line style="stroke: #E3ECEC; stroke-width: 1.5;" x1="7" x2="140" y1="44" y2="44"/><ellipse cx="16" cy="56.3091" fill="#84BE84" rx="2" ry="2" style="stroke: #038048; stroke-width: 1.0;"/><text fill="#19273C" font-family="Open Sans" font-size="10" lengthAdjust="spacingAndGlyphs" textLength="111" x="24" y="58.6885">void constructor(string)</text><!--class BaseException--><rect fill="#F8FAFA" height="44" rx="1" ry="1" style="stroke: #E3ECEC; stroke-width: 1.5;" width="98" x="24.25" y="126"/><ellipse cx="37.25" cy="140" fill="#FFFFFF" rx="9" ry="9" style="stroke: #E3ECEC; stroke-width: 1.0;"/><path d="M38.5283,143.29 Q38.1865,143.4658 37.8105,143.5537 Q37.4346,143.6416 37.0195,143.6416 Q35.5449,143.6416 34.7686,142.6699 Q33.9922,141.6982 33.9922,139.8623 Q33.9922,138.0215 34.7686,137.0498 Q35.5449,136.0781 37.0195,136.0781 Q37.4346,136.0781 37.8154,136.166 Q38.1963,136.2539 38.5283,136.4297 L38.5283,138.0313 Q38.1572,137.6895 37.8081,137.5308 Q37.459,137.3721 37.0879,137.3721 Q36.2969,137.3721 35.894,137.9995 Q35.4912,138.627 35.4912,139.8623 Q35.4912,141.0928 35.894,141.7202 Q36.2969,142.3477 37.0879,142.3477 Q37.459,142.3477 37.8081,142.189 Q38.1572,142.0303 38.5283,141.6885 Z "/><text fill="#19273C" font-family="Open Sans" font-size="10" lengthAdjust="spacingAndGlyphs" textLength="70" x="49.25" y="143.8794">BaseException</text><line style="stroke: #E3ECEC; stroke-width: 1.5;" x1="25.25" x2="121.25" y1="154" y2="154"/><line style="stroke: #E3ECEC; stroke-width: 1.5;" x1="25.25" x2="121.25" y1="162" y2="162"/><path d="M73.25,66.07 C73.25,78.1772 73.25,92.5803 73.25,105.8565 " fill="none" style="stroke: #3C6DF0; stroke-width: 1.0;"/><polygon fill="none" points="80.2501,105.9111,73.25,125.911,66.2501,105.911,80.2501,105.9111" style="stroke: #3C6DF0; stroke-width: 1.0;"/></g></svg>