<?xml version="1.0" encoding="UTF-8" standalone="no"?><svg xmlns="http://www.w3.org/2000/svg" xmlns:xlink="http://www.w3.org/1999/xlink" contentScriptType="application/ecmascript" contentStyleType="text/css" height="199px" preserveAspectRatio="none" style="width:199px;height:199px;" version="1.1" viewBox="0 0 199 199" width="199px" zoomAndPan="magnify"><defs/><g><!--class ValidatedConcept--><rect fill="#F8FAFA" height="84.8545" rx="1" ry="1" style="stroke: #E3ECEC; stroke-width: 1.5;" width="192" x="6" y="8.5"/><ellipse cx="55.75" cy="22.5" fill="#FFFFFF" rx="9" ry="9" style="stroke: #E3ECEC; stroke-width: 1.0;"/><path d="M57.0283,25.79 Q56.6865,25.9658 56.3105,26.0537 Q55.9346,26.1416 55.5195,26.1416 Q54.0449,26.1416 53.2686,25.1699 Q52.4922,24.1982 52.4922,22.3623 Q52.4922,20.5215 53.2686,19.5498 Q54.0449,18.5781 55.5195,18.5781 Q55.9346,18.5781 56.3154,18.666 Q56.6963,18.7539 57.0283,18.9297 L57.0283,20.5313 Q56.6572,20.1895 56.3081,20.0308 Q55.959,19.8721 55.5879,19.8721 Q54.7969,19.8721 54.394,20.4995 Q53.9912,21.127 53.9912,22.3623 Q53.9912,23.5928 54.394,24.2202 Q54.7969,24.8477 55.5879,24.8477 Q55.959,24.8477 56.3081,24.689 Q56.6572,24.5303 57.0283,24.1885 Z "/><text fill="#19273C" font-family="Open Sans" font-size="10" lengthAdjust="spacingAndGlyphs" textLength="85" x="73.25" y="26.3794">ValidatedConcept</text><line style="stroke: #E3ECEC; stroke-width: 1.5;" x1="7" x2="197" y1="36.5" y2="36.5"/><line style="stroke: #E3ECEC; stroke-width: 1.5;" x1="7" x2="197" y1="44.5" y2="44.5"/><ellipse cx="16" cy="56.8091" fill="#84BE84" rx="2" ry="2" style="stroke: #038048; stroke-width: 1.0;"/><text fill="#19273C" font-family="Open Sans" font-size="10" lengthAdjust="spacingAndGlyphs" textLength="168" x="24" y="59.1885">void setPropertyValue(string,string)</text><ellipse cx="16" cy="70.4272" fill="#84BE84" rx="2" ry="2" style="stroke: #038048; stroke-width: 1.0;"/><text fill="#19273C" font-family="Open Sans" font-size="10" lengthAdjust="spacingAndGlyphs" textLength="155" x="24" y="72.8066">void addArrayValue(string,string)</text><ellipse cx="16" cy="84.0454" fill="#84BE84" rx="2" ry="2" style="stroke: #038048; stroke-width: 1.0;"/><text fill="#19273C" font-family="Open Sans" font-size="10" lengthAdjust="spacingAndGlyphs" textLength="68" x="24" y="86.4248">void validate()</text><!--class Concept--><rect fill="#F8FAFA" height="44" rx="1" ry="1" style="stroke: #E3ECEC; stroke-width: 1.5;" width="67" x="68.75" y="154"/><ellipse cx="81.75" cy="168" fill="#FFFFFF" rx="9" ry="9" style="stroke: #E3ECEC; stroke-width: 1.0;"/><path d="M83.0283,171.29 Q82.6865,171.4658 82.3105,171.5537 Q81.9346,171.6416 81.5195,171.6416 Q80.0449,171.6416 79.2686,170.6699 Q78.4922,169.6982 78.4922,167.8623 Q78.4922,166.0215 79.2686,165.0498 Q80.0449,164.0781 81.5195,164.0781 Q81.9346,164.0781 82.3154,164.166 Q82.6963,164.2539 83.0283,164.4297 L83.0283,166.0313 Q82.6572,165.6895 82.3081,165.5308 Q81.959,165.3721 81.5879,165.3721 Q80.7969,165.3721 80.394,165.9995 Q79.9912,166.627 79.9912,167.8623 Q79.9912,169.0928 80.394,169.7202 Q80.7969,170.3477 81.5879,170.3477 Q81.959,170.3477 82.3081,170.189 Q82.6572,170.0303 83.0283,169.6885 Z "/><text fill="#19273C" font-family="Open Sans" font-size="10" lengthAdjust="spacingAndGlyphs" textLength="39" x="93.75" y="171.8794">Concept</text><line style="stroke: #E3ECEC; stroke-width: 1.5;" x1="69.75" x2="134.75" y1="182" y2="182"/><line style="stroke: #E3ECEC; stroke-width: 1.5;" x1="69.75" x2="134.75" y1="190" y2="190"/><path d="M102,93.642 C102,106.59 102,120.8533 102,133.7727 " fill="none" style="stroke: #3C6DF0; stroke-width: 1.0;"/><polygon fill="none" points="109,133.7768,102,153.7768,95.0001,133.7768,109,133.7768" style="stroke: #3C6DF0; stroke-width: 1.0;"/></g></svg>