<?xml version="1.0" encoding="UTF-8" standalone="no"?><svg xmlns="http://www.w3.org/2000/svg" xmlns:xlink="http://www.w3.org/1999/xlink" contentScriptType="application/ecmascript" contentStyleType="text/css" height="186px" preserveAspectRatio="none" style="width:174px;height:186px;" version="1.1" viewBox="0 0 174 186" width="174px" zoomAndPan="magnify"><defs><filter height="300%" id="fzb72tr" width="300%" x="-1" y="-1"><feGaussianBlur result="blurOut" stdDeviation="2.0"/><feColorMatrix in="blurOut" result="blurOut2" type="matrix" values="0 0 0 0 0 0 0 0 0 0 0 0 0 0 0 0 0 0 .4 0"/><feOffset dx="4.0" dy="4.0" in="blurOut2" result="blurOut3"/><feBlend in="SourceGraphic" in2="blurOut3" mode="normal"/></filter></defs><g><!--class ValidationException--><rect fill="#F8F8F8" filter="url(#fzb72tr)" height="60.8047" style="stroke: #383838; stroke-width: 1.5;" width="159" x="6" y="8"/><ellipse cx="22.8" cy="24" fill="#C2C2C2" rx="11" ry="11" style="stroke: #383838; stroke-width: 1.0;"/><path d="M25.7688,29.6406 Q25.1906,29.9375 24.55,30.0859 Q23.9094,30.2344 23.2063,30.2344 Q20.7063,30.2344 19.3859,28.5859 Q18.0656,26.9375 18.0656,23.8125 Q18.0656,20.6875 19.3859,19.0313 Q20.7063,17.375 23.2063,17.375 Q23.9094,17.375 24.5578,17.5313 Q25.2063,17.6875 25.7688,17.9844 L25.7688,20.7031 Q25.1438,20.125 24.55,19.8516 Q23.9563,19.5781 23.3313,19.5781 Q21.9875,19.5781 21.3,20.6484 Q20.6125,21.7188 20.6125,23.8125 Q20.6125,25.9063 21.3,26.9766 Q21.9875,28.0469 23.3313,28.0469 Q23.9563,28.0469 24.55,27.7734 Q25.1438,27.5 25.7688,26.9219 L25.7688,29.6406 Z "/><text fill="#000000" font-family="sans-serif" font-size="12" lengthAdjust="spacingAndGlyphs" textLength="123" x="37.2" y="28.1543">ValidationException</text><line style="stroke: #383838; stroke-width: 1.5;" x1="7" x2="164" y1="40" y2="40"/><line style="stroke: #383838; stroke-width: 1.5;" x1="7" x2="164" y1="48" y2="48"/><ellipse cx="17" cy="59.9023" fill="#A6A6A6" rx="3" ry="3" style="stroke: #545454; stroke-width: 1.0;"/><text fill="#000000" font-family="sans-serif" font-size="11" lengthAdjust="spacingAndGlyphs" textLength="133" x="26" y="62.2104">void constructor(string)</text><!--class BaseException--><rect fill="#F8F8F8" filter="url(#fzb72tr)" height="48" style="stroke: #383838; stroke-width: 1.5;" width="124" x="23.5" y="129"/><ellipse cx="38.5" cy="145" fill="#C2C2C2" rx="11" ry="11" style="stroke: #383838; stroke-width: 1.0;"/><path d="M41.4688,150.6406 Q40.8906,150.9375 40.25,151.0859 Q39.6094,151.2344 38.9063,151.2344 Q36.4063,151.2344 35.0859,149.5859 Q33.7656,147.9375 33.7656,144.8125 Q33.7656,141.6875 35.0859,140.0313 Q36.4063,138.375 38.9063,138.375 Q39.6094,138.375 40.2578,138.5313 Q40.9063,138.6875 41.4688,138.9844 L41.4688,141.7031 Q40.8438,141.125 40.25,140.8516 Q39.6563,140.5781 39.0313,140.5781 Q37.6875,140.5781 37,141.6484 Q36.3125,142.7188 36.3125,144.8125 Q36.3125,146.9063 37,147.9766 Q37.6875,149.0469 39.0313,149.0469 Q39.6563,149.0469 40.25,148.7734 Q40.8438,148.5 41.4688,147.9219 L41.4688,150.6406 Z "/><text fill="#000000" font-family="sans-serif" font-size="12" lengthAdjust="spacingAndGlyphs" textLength="92" x="52.5" y="149.1543">BaseException</text><line style="stroke: #383838; stroke-width: 1.5;" x1="24.5" x2="146.5" y1="161" y2="161"/><line style="stroke: #383838; stroke-width: 1.5;" x1="24.5" x2="146.5" y1="169" y2="169"/><path d="M85.5,69.058 C85.5,81.1313 85.5,95.3402 85.5,108.5536 " fill="none" style="stroke: #383838; stroke-width: 1.0;"/><polygon fill="none" points="92.5001,108.6686,85.5,128.6686,78.5001,108.6686,92.5001,108.6686" style="stroke: #383838; stroke-width: 1.0;"/></g></svg>