<?xml version="1.0" encoding="UTF-8" standalone="no"?><svg xmlns="http://www.w3.org/2000/svg" xmlns:xlink="http://www.w3.org/1999/xlink" contentScriptType="application/ecmascript" contentStyleType="text/css" height="162px" preserveAspectRatio="none" style="width:169px;height:162px;" version="1.1" viewBox="0 0 169 162" width="169px" zoomAndPan="magnify"><defs/><g><!--class Wallet--><rect fill="#F8FAFA" height="152.9453" rx="1" ry="1" style="stroke: #E3ECEC; stroke-width: 1.5;" width="162" x="6" y="8.5"/><ellipse cx="67.75" cy="22.5" fill="#FFFFFF" rx="9" ry="9" style="stroke: #E3ECEC; stroke-width: 1.0;"/><path d="M69.0283,25.79 Q68.6865,25.9658 68.3105,26.0537 Q67.9346,26.1416 67.5195,26.1416 Q66.0449,26.1416 65.2686,25.1699 Q64.4922,24.1982 64.4922,22.3623 Q64.4922,20.5215 65.2686,19.5498 Q66.0449,18.5781 67.5195,18.5781 Q67.9346,18.5781 68.3154,18.666 Q68.6963,18.7539 69.0283,18.9297 L69.0283,20.5313 Q68.6572,20.1895 68.3081,20.0308 Q67.959,19.8721 67.5879,19.8721 Q66.7969,19.8721 66.394,20.4995 Q65.9912,21.127 65.9912,22.3623 Q65.9912,23.5928 66.394,24.2202 Q66.7969,24.8477 67.5879,24.8477 Q67.959,24.8477 68.3081,24.689 Q68.6572,24.5303 69.0283,24.1885 Z "/><text fill="#19273C" font-family="Open Sans" font-size="10" lengthAdjust="spacingAndGlyphs" textLength="31" x="85.25" y="26.3794">Wallet</text><line style="stroke: #E3ECEC; stroke-width: 1.5;" x1="7" x2="167" y1="36.5" y2="36.5"/><line style="stroke: #E3ECEC; stroke-width: 1.5;" x1="7" x2="167" y1="44.5" y2="44.5"/><ellipse cx="16" cy="56.8091" fill="#84BE84" rx="2" ry="2" style="stroke: #038048; stroke-width: 1.0;"/><text fill="#19273C" font-family="Open Sans" font-size="10" lengthAdjust="spacingAndGlyphs" textLength="86" x="24" y="59.1885">Wallet getWallet()</text><ellipse cx="16" cy="70.4272" fill="#84BE84" rx="2" ry="2" style="stroke: #038048; stroke-width: 1.0;"/><text fill="#19273C" font-family="Open Sans" font-size="10" lengthAdjust="spacingAndGlyphs" textLength="106" x="24" y="72.8066">void setWallet(Wallet)</text><ellipse cx="16" cy="84.0454" fill="#84BE84" rx="2" ry="2" style="stroke: #038048; stroke-width: 1.0;"/><text fill="#19273C" font-family="Open Sans" font-size="10" lengthAdjust="spacingAndGlyphs" textLength="63" x="24" y="86.4248">Promise list()</text><ellipse cx="16" cy="97.6636" fill="#84BE84" rx="2" ry="2" style="stroke: #038048; stroke-width: 1.0;"/><text fill="#19273C" font-family="Open Sans" font-size="10" lengthAdjust="spacingAndGlyphs" textLength="116" x="24" y="100.043">Promise contains(string)</text><ellipse cx="16" cy="111.2817" fill="#84BE84" rx="2" ry="2" style="stroke: #038048; stroke-width: 1.0;"/><text fill="#19273C" font-family="Open Sans" font-size="10" lengthAdjust="spacingAndGlyphs" textLength="90" x="24" y="113.6611">Promise get(string)</text><ellipse cx="16" cy="124.8999" fill="#84BE84" rx="2" ry="2" style="stroke: #038048; stroke-width: 1.0;"/><text fill="#19273C" font-family="Open Sans" font-size="10" lengthAdjust="spacingAndGlyphs" textLength="122" x="24" y="127.2793">Promise add(string,string)</text><ellipse cx="16" cy="138.5181" fill="#84BE84" rx="2" ry="2" style="stroke: #038048; stroke-width: 1.0;"/><text fill="#19273C" font-family="Open Sans" font-size="10" lengthAdjust="spacingAndGlyphs" textLength="138" x="24" y="140.8975">Promise update(string,string)</text><ellipse cx="16" cy="152.1362" fill="#84BE84" rx="2" ry="2" style="stroke: #038048; stroke-width: 1.0;"/><text fill="#19273C" font-family="Open Sans" font-size="10" lengthAdjust="spacingAndGlyphs" textLength="111" x="24" y="154.5156">Promise remove(string)</text></g></svg>