<?xml version="1.0" encoding="UTF-8" standalone="no"?><svg xmlns="http://www.w3.org/2000/svg" xmlns:xlink="http://www.w3.org/1999/xlink" contentScriptType="application/ecmascript" contentStyleType="text/css" height="307px" preserveAspectRatio="none" style="width:174px;height:307px;" version="1.1" viewBox="0 0 174 307" width="174px" zoomAndPan="magnify"><defs><filter height="300%" id="flf1cj1" width="300%" x="-1" y="-1"><feGaussianBlur result="blurOut" stdDeviation="2.0"/><feColorMatrix in="blurOut" result="blurOut2" type="matrix" values="0 0 0 0 0 0 0 0 0 0 0 0 0 0 0 0 0 0 .4 0"/><feOffset dx="4.0" dy="4.0" in="blurOut2" result="blurOut3"/><feBlend in="SourceGraphic" in2="blurOut3" mode="normal"/></filter></defs><g><!--class BaseException--><rect fill="#F8F8F8" filter="url(#flf1cj1)" height="60.8047" style="stroke: #383838; stroke-width: 1.5;" width="159" x="6" y="129"/><ellipse cx="36.75" cy="145" fill="#C2C2C2" rx="11" ry="11" style="stroke: #383838; stroke-width: 1.0;"/><path d="M39.7188,150.6406 Q39.1406,150.9375 38.5,151.0859 Q37.8594,151.2344 37.1563,151.2344 Q34.6563,151.2344 33.3359,149.5859 Q32.0156,147.9375 32.0156,144.8125 Q32.0156,141.6875 33.3359,140.0313 Q34.6563,138.375 37.1563,138.375 Q37.8594,138.375 38.5078,138.5313 Q39.1563,138.6875 39.7188,138.9844 L39.7188,141.7031 Q39.0938,141.125 38.5,140.8516 Q37.9063,140.5781 37.2813,140.5781 Q35.9375,140.5781 35.25,141.6484 Q34.5625,142.7188 34.5625,144.8125 Q34.5625,146.9063 35.25,147.9766 Q35.9375,149.0469 37.2813,149.0469 Q37.9063,149.0469 38.5,148.7734 Q39.0938,148.5 39.7188,147.9219 L39.7188,150.6406 Z "/><text fill="#000000" font-family="sans-serif" font-size="12" lengthAdjust="spacingAndGlyphs" textLength="92" x="54.25" y="149.1543">BaseException</text><line style="stroke: #383838; stroke-width: 1.5;" x1="7" x2="164" y1="161" y2="161"/><line style="stroke: #383838; stroke-width: 1.5;" x1="7" x2="164" y1="169" y2="169"/><ellipse cx="17" cy="180.9023" fill="#A6A6A6" rx="3" ry="3" style="stroke: #545454; stroke-width: 1.0;"/><text fill="#000000" font-family="sans-serif" font-size="11" lengthAdjust="spacingAndGlyphs" textLength="133" x="26" y="183.2104">void constructor(string)</text><!--class Error--><rect fill="#F8F8F8" filter="url(#flf1cj1)" height="48" style="stroke: #383838; stroke-width: 1.5;" width="63" x="54" y="250"/><ellipse cx="69" cy="266" fill="#C2C2C2" rx="11" ry="11" style="stroke: #383838; stroke-width: 1.0;"/><path d="M71.9688,271.6406 Q71.3906,271.9375 70.75,272.0859 Q70.1094,272.2344 69.4063,272.2344 Q66.9063,272.2344 65.5859,270.5859 Q64.2656,268.9375 64.2656,265.8125 Q64.2656,262.6875 65.5859,261.0313 Q66.9063,259.375 69.4063,259.375 Q70.1094,259.375 70.7578,259.5313 Q71.4063,259.6875 71.9688,259.9844 L71.9688,262.7031 Q71.3438,262.125 70.75,261.8516 Q70.1563,261.5781 69.5313,261.5781 Q68.1875,261.5781 67.5,262.6484 Q66.8125,263.7188 66.8125,265.8125 Q66.8125,267.9063 67.5,268.9766 Q68.1875,270.0469 69.5313,270.0469 Q70.1563,270.0469 70.75,269.7734 Q71.3438,269.5 71.9688,268.9219 L71.9688,271.6406 Z "/><text fill="#000000" font-family="sans-serif" font-size="12" lengthAdjust="spacingAndGlyphs" textLength="31" x="83" y="270.1543">Error</text><line style="stroke: #383838; stroke-width: 1.5;" x1="55" x2="116" y1="282" y2="282"/><line style="stroke: #383838; stroke-width: 1.5;" x1="55" x2="116" y1="290" y2="290"/><!--class SecurityException--><rect fill="#F8F8F8" filter="url(#flf1cj1)" height="60.8047" style="stroke: #383838; stroke-width: 1.5;" width="159" x="6" y="8"/><ellipse cx="28.2" cy="24" fill="#C2C2C2" rx="11" ry="11" style="stroke: #383838; stroke-width: 1.0;"/><path d="M31.1688,29.6406 Q30.5906,29.9375 29.95,30.0859 Q29.3094,30.2344 28.6063,30.2344 Q26.1063,30.2344 24.7859,28.5859 Q23.4656,26.9375 23.4656,23.8125 Q23.4656,20.6875 24.7859,19.0313 Q26.1063,17.375 28.6063,17.375 Q29.3094,17.375 29.9578,17.5313 Q30.6063,17.6875 31.1688,17.9844 L31.1688,20.7031 Q30.5438,20.125 29.95,19.8516 Q29.3563,19.5781 28.7313,19.5781 Q27.3875,19.5781 26.7,20.6484 Q26.0125,21.7188 26.0125,23.8125 Q26.0125,25.9063 26.7,26.9766 Q27.3875,28.0469 28.7313,28.0469 Q29.3563,28.0469 29.95,27.7734 Q30.5438,27.5 31.1688,26.9219 L31.1688,29.6406 Z "/><text fill="#000000" font-family="sans-serif" font-size="12" lengthAdjust="spacingAndGlyphs" textLength="111" x="43.8" y="28.1543">SecurityException</text><line style="stroke: #383838; stroke-width: 1.5;" x1="7" x2="164" y1="40" y2="40"/><line style="stroke: #383838; stroke-width: 1.5;" x1="7" x2="164" y1="48" y2="48"/><ellipse cx="17" cy="59.9023" fill="#A6A6A6" rx="3" ry="3" style="stroke: #545454; stroke-width: 1.0;"/><text fill="#000000" font-family="sans-serif" font-size="11" lengthAdjust="spacingAndGlyphs" textLength="133" x="26" y="62.2104">void constructor(string)</text><path d="M85.5,190.058 C85.5,202.1313 85.5,216.3402 85.5,229.5536 " fill="none" style="stroke: #383838; stroke-width: 1.0;"/><polygon fill="none" points="92.5001,229.6686,85.5,249.6686,78.5001,229.6686,92.5001,229.6686" style="stroke: #383838; stroke-width: 1.0;"/><path d="M85.5,69.222 C85.5,81.149 85.5,95.226 85.5,108.633 " fill="none" style="stroke: #383838; stroke-width: 1.0;"/><polygon fill="none" points="92.5001,108.745,85.5,128.745,78.5001,108.745,92.5001,108.745" style="stroke: #383838; stroke-width: 1.0;"/></g></svg>