<?xml version="1.0" encoding="UTF-8" standalone="no"?><svg xmlns="http://www.w3.org/2000/svg" xmlns:xlink="http://www.w3.org/1999/xlink" contentScriptType="application/ecmascript" contentStyleType="text/css" height="129px" preserveAspectRatio="none" style="width:243px;height:129px;" version="1.1" viewBox="0 0 243 129" width="243px" zoomAndPan="magnify"><defs><filter height="300%" id="f7458op" width="300%" x="-1" y="-1"><feGaussianBlur result="blurOut" stdDeviation="2.0"/><feColorMatrix in="blurOut" result="blurOut2" type="matrix" values="0 0 0 0 0 0 0 0 0 0 0 0 0 0 0 0 0 0 .4 0"/><feOffset dx="4.0" dy="4.0" in="blurOut2" result="blurOut3"/><feBlend in="SourceGraphic" in2="blurOut3" mode="normal"/></filter></defs><g><!--class Typed--><rect fill="#FEFECE" filter="url(#f7458op)" height="112.0234" style="stroke: #A80036; stroke-width: 1.5;" width="228" x="6" y="8"/><ellipse cx="97.25" cy="24" fill="#ADD1B2" rx="11" ry="11" style="stroke: #A80036; stroke-width: 1.0;"/><path d="M100.2188,29.6406 Q99.6406,29.9375 99,30.0859 Q98.3594,30.2344 97.6563,30.2344 Q95.1563,30.2344 93.8359,28.5859 Q92.5156,26.9375 92.5156,23.8125 Q92.5156,20.6875 93.8359,19.0313 Q95.1563,17.375 97.6563,17.375 Q98.3594,17.375 99.0078,17.5313 Q99.6563,17.6875 100.2188,17.9844 L100.2188,20.7031 Q99.5938,20.125 99,19.8516 Q98.4063,19.5781 97.7813,19.5781 Q96.4375,19.5781 95.75,20.6484 Q95.0625,21.7188 95.0625,23.8125 Q95.0625,25.9063 95.75,26.9766 Q96.4375,28.0469 97.7813,28.0469 Q98.4063,28.0469 99,27.7734 Q99.5938,27.5 100.2188,26.9219 L100.2188,29.6406 Z "/><text fill="#000000" font-family="sans-serif" font-size="12" lengthAdjust="spacingAndGlyphs" textLength="37" x="117.75" y="28.1543">Typed</text><line style="stroke: #A80036; stroke-width: 1.5;" x1="7" x2="233" y1="40" y2="40"/><line style="stroke: #A80036; stroke-width: 1.5;" x1="7" x2="233" y1="48" y2="48"/><ellipse cx="17" cy="59.9023" fill="#84BE84" rx="3" ry="3" style="stroke: #038048; stroke-width: 1.0;"/><text fill="#000000" font-family="sans-serif" font-size="11" lengthAdjust="spacingAndGlyphs" textLength="90" x="26" y="62.2104">string getType()</text><ellipse cx="17" cy="72.707" fill="#84BE84" rx="3" ry="3" style="stroke: #038048; stroke-width: 1.0;"/><text fill="#000000" font-family="sans-serif" font-size="11" lengthAdjust="spacingAndGlyphs" textLength="165" x="26" y="75.0151">string getFullyQualifiedType()</text><ellipse cx="17" cy="85.5117" fill="#84BE84" rx="3" ry="3" style="stroke: #038048; stroke-width: 1.0;"/><text fill="#000000" font-family="sans-serif" font-size="11" lengthAdjust="spacingAndGlyphs" textLength="130" x="26" y="87.8198">string getNamespace()</text><ellipse cx="17" cy="98.3164" fill="#84BE84" rx="3" ry="3" style="stroke: #038048; stroke-width: 1.0;"/><text fill="#000000" font-family="sans-serif" font-size="11" lengthAdjust="spacingAndGlyphs" textLength="202" x="26" y="100.6245">void setPropertyValue(string,string)</text><ellipse cx="17" cy="111.1211" fill="#84BE84" rx="3" ry="3" style="stroke: #038048; stroke-width: 1.0;"/><text fill="#000000" font-family="sans-serif" font-size="11" lengthAdjust="spacingAndGlyphs" textLength="187" x="26" y="113.4292">void addArrayValue(string,string)</text></g></svg>