<svg xmlns="http://www.w3.org/2000/svg" viewBox="0 0 128 128"><path d="M27.328 49.616V36.704c0-1.504-.336-2.712-1.008-3.624a6.907 6.907 0 0 0-2.593-2.136c-1.056-.512-2.225-.856-3.504-1.032a27.974 27.974 0 0 0-3.792-.264 20.86 20.86 0 0 0-4.103.408c-1.36.272-2.585.729-3.672 1.368a8.162 8.162 0 0 0-2.688 2.544c-.704 1.056-1.103 2.384-1.2 3.984h6.816c.127-1.344.576-2.304 1.344-2.88.769-.576 1.824-.864 3.168-.864.607 0 1.176.041 1.704.12.528.08.991.24 1.392.48.4.24.721.576.961 1.008.239.432.359 1.016.359 1.752.031.704-.176 1.24-.624 1.608-.448.368-1.056.648-1.824.84-.768.192-1.648.336-2.64.432-.992.096-2 .224-3.024.384a29 29 0 0 0-3.048.648 8.602 8.602 0 0 0-2.688 1.224c-.785.544-1.425 1.272-1.92 2.184C4.247 45.8 4 46.96 4 48.368c0 1.28.216 2.384.647 3.312a6.243 6.243 0 0 0 1.801 2.304c.768.608 1.663 1.056 2.687 1.344a12.19 12.19 0 0 0 3.312.432c1.535 0 3.039-.224 4.512-.672a8.873 8.873 0 0 0 3.84-2.352 10.04 10.04 0 0 0 .48 2.4h6.911c-.319-.512-.544-1.279-.672-2.304a26.31 26.31 0 0 1-.19-3.216zm-6.816-4.08c0 .384-.04.896-.12 1.536a5.136 5.136 0 0 1-.648 1.896c-.352.624-.896 1.16-1.632 1.608-.737.449-1.776.672-3.12.672a8.562 8.562 0 0 1-1.584-.144 3.854 3.854 0 0 1-1.345-.504 2.559 2.559 0 0 1-.911-.984c-.225-.416-.337-.928-.337-1.536 0-.64.112-1.167.337-1.584.223-.416.52-.76.888-1.032.367-.272.8-.488 1.296-.648.496-.16 1-.288 1.512-.384a29.579 29.579 0 0 1 1.632-.24 21.444 21.444 0 0 0 1.561-.24c.495-.096.96-.216 1.392-.36a3.049 3.049 0 0 0 1.08-.6v2.544zM39.088 51.968h.096c.735 1.376 1.824 2.352 3.264 2.928 1.44.576 3.072.864 4.896.864a9.451 9.451 0 0 0 3.696-.768c1.216-.511 2.312-1.296 3.287-2.352.977-1.056 1.769-2.407 2.377-4.056.607-1.648.911-3.608.911-5.88 0-2.271-.304-4.232-.911-5.88-.608-1.648-1.4-3-2.377-4.056-.975-1.056-2.071-1.839-3.287-2.352-1.217-.511-2.448-.768-3.696-.768-1.536 0-3.017.296-4.44.888a7.284 7.284 0 0 0-3.384 2.808h-.096v-12.48h-6.816v34.272h6.48v-3.168zm.431-12.24c.224-.96.576-1.807 1.056-2.544a5.46 5.46 0 0 1 1.824-1.752c.736-.432 1.6-.648 2.592-.648 1.024 0 1.896.216 2.616.648a5.53 5.53 0 0 1 1.8 1.752c.48.737.832 1.584 1.057 2.544.224.96.336 1.968.336 3.024 0 1.024-.112 2.016-.336 2.976-.225.96-.576 1.809-1.057 2.544a5.521 5.521 0 0 1-1.8 1.752c-.72.432-1.592.648-2.616.648-.992 0-1.855-.216-2.592-.648a5.45 5.45 0 0 1-1.824-1.752c-.479-.736-.832-1.584-1.056-2.544a12.992 12.992 0 0 1-.336-2.976c.001-1.056.112-2.064.336-3.024zM64.623 52.208c1.087 1.121 2.407 1.992 3.96 2.616 1.552.624 3.256.936 5.111.936 3.296 0 6-.864 8.112-2.592 2.112-1.728 3.392-4.24 3.84-7.536H79.07c-.224 1.536-.775 2.76-1.655 3.672-.881.912-2.137 1.368-3.769 1.368-1.056 0-1.952-.24-2.687-.72a5.377 5.377 0 0 1-1.752-1.848 8.445 8.445 0 0 1-.937-2.52 13.553 13.553 0 0 1-.288-2.736c0-.928.097-1.864.288-2.808.192-.943.52-1.807.984-2.592a5.912 5.912 0 0 1 1.8-1.92c.735-.496 1.647-.744 2.736-.744 2.911 0 4.591 1.424 5.04 4.272h6.672c-.096-1.6-.48-2.983-1.152-4.152a9.378 9.378 0 0 0-2.616-2.928 11.343 11.343 0 0 0-3.647-1.752 15.559 15.559 0 0 0-4.248-.576c-2.016 0-3.809.336-5.376 1.008-1.568.672-2.896 1.608-3.984 2.808-1.088 1.2-1.912 2.624-2.472 4.272-.561 1.648-.84 3.432-.84 5.352 0 1.856.304 3.56.912 5.112.607 1.553 1.455 2.888 2.544 4.008z"/><path d="M112 39.136l-44 44-20-20-12 12 32 32 56-56z"/></svg>