<svg xmlns="http://www.w3.org/2000/svg" viewBox="0 0 32 32"><path d="M6.832 12.404V9.176c0-.376-.084-.678-.252-.905a1.72 1.72 0 0 0-.648-.535 2.929 2.929 0 0 0-.876-.258 7.117 7.117 0 0 0-.948-.066c-.344 0-.686.034-1.026.103-.34.067-.646.182-.918.342-.272.16-.496.372-.672.636-.176.264-.276.596-.3.996h1.704c.032-.336.144-.576.336-.72.192-.145.456-.217.792-.217.152 0 .294.011.426.03a.982.982 0 0 1 .348.12c.1.059.18.144.24.252.06.108.09.254.09.439.008.176-.044.31-.156.401a1.137 1.137 0 0 1-.456.21 4.546 4.546 0 0 1-.66.108c-.249.024-.5.056-.756.096s-.51.095-.762.162a2.15 2.15 0 0 0-.672.306 1.559 1.559 0 0 0-.48.547c-.124.227-.186.517-.186.869 0 .32.054.597.162.828.108.233.258.425.45.576.192.152.416.264.672.336.256.072.532.108.828.108.384 0 .76-.057 1.128-.168a2.23 2.23 0 0 0 .96-.588 2.56 2.56 0 0 0 .12.6h1.728c-.08-.128-.136-.32-.168-.576a6.471 6.471 0 0 1-.048-.804zm-1.704-1.02c0 .097-.01.225-.03.385-.02.16-.074.317-.162.474-.088.156-.224.29-.408.402-.184.111-.444.168-.78.168-.136 0-.268-.013-.396-.036a.962.962 0 0 1-.336-.126.659.659 0 0 1-.228-.246.799.799 0 0 1-.084-.384c0-.16.028-.292.084-.397a.79.79 0 0 1 .222-.258c.092-.068.2-.122.324-.162.124-.04.25-.072.378-.096.136-.024.272-.044.408-.061.136-.016.266-.036.39-.06s.24-.054.348-.09a.764.764 0 0 0 .27-.15v.637zM9.772 12.992h.024c.184.344.456.588.816.732.36.144.768.216 1.224.216a2.362 2.362 0 0 0 1.746-.78c.244-.264.442-.602.594-1.014.152-.412.228-.902.228-1.471 0-.567-.076-1.058-.228-1.47a3.007 3.007 0 0 0-.594-1.014 2.353 2.353 0 0 0-1.746-.78c-.384 0-.754.074-1.11.222a1.832 1.832 0 0 0-.846.703h-.024v-3.12H8.152v8.568h1.62v-.792zm.108-3.059a1.99 1.99 0 0 1 .264-.637 1.257 1.257 0 0 1 1.104-.6c.256 0 .474.054.654.162.18.107.33.254.45.438.12.185.208.396.264.637.056.239.084.491.084.756 0 .256-.028.504-.084.744a1.994 1.994 0 0 1-.264.636c-.12.184-.27.33-.45.438-.18.108-.398.162-.654.162a1.257 1.257 0 0 1-1.104-.6 1.972 1.972 0 0 1-.264-.636 3.264 3.264 0 0 1-.084-.744c0-.265.028-.517.084-.756zM16.156 13.052c.272.28.602.498.99.654.388.156.814.234 1.278.234.824 0 1.5-.216 2.028-.649.528-.432.848-1.06.96-1.884h-1.644c-.056.384-.194.69-.414.918-.22.228-.534.342-.942.342-.264 0-.488-.06-.672-.18a1.344 1.344 0 0 1-.438-.462 2.116 2.116 0 0 1-.234-.63 3.372 3.372 0 0 1 0-1.387c.048-.235.13-.451.246-.648.116-.196.266-.356.45-.48s.412-.186.684-.186c.728 0 1.148.356 1.26 1.068h1.668c-.024-.4-.12-.746-.288-1.038a2.344 2.344 0 0 0-.654-.732 2.835 2.835 0 0 0-.912-.438 3.852 3.852 0 0 0-1.062-.145c-.504 0-.952.084-1.344.252a2.829 2.829 0 0 0-.996.702c-.272.3-.479.656-.618 1.068-.14.412-.21.857-.21 1.338 0 .464.076.89.228 1.277.152.393.364.727.636 1.006z"/><path d="M28 9.784l-11 11-5-5-3 3 8 8 14-14z"/></svg>