<svg xmlns="http://www.w3.org/2000/svg" viewBox="0 0 64 64"><path d="M13.664 24.808v-6.456c0-.752-.168-1.356-.504-1.812a3.452 3.452 0 0 0-1.296-1.068 5.829 5.829 0 0 0-1.752-.516 13.896 13.896 0 0 0-1.896-.132c-.688 0-1.372.068-2.053.204a5.857 5.857 0 0 0-1.836.684c-.544.32-.992.744-1.344 1.272-.353.528-.552 1.192-.6 1.992H5.79c.064-.672.288-1.152.673-1.44.384-.288.911-.432 1.584-.432.304 0 .588.02.852.06.264.04.496.12.696.24.199.12.359.288.479.504.12.216.181.508.181.876.016.353-.089.621-.312.804-.225.184-.528.324-.912.42a9.1 9.1 0 0 1-1.319.216c-.497.048-1.001.112-1.513.192s-1.02.188-1.523.324c-.504.136-.952.34-1.345.612a3.11 3.11 0 0 0-.96 1.092C2.124 22.9 2 23.48 2 24.184c0 .64.108 1.192.324 1.656.216.464.517.848.9 1.152.384.304.832.528 1.344.672a6.09 6.09 0 0 0 1.656.216c.768 0 1.52-.112 2.256-.336a4.447 4.447 0 0 0 1.92-1.176 5.12 5.12 0 0 0 .24 1.2h3.456c-.16-.256-.273-.64-.336-1.152a12.966 12.966 0 0 1-.096-1.608zm-3.407-2.04c0 .192-.021.448-.061.768-.04.32-.148.636-.324.948s-.448.58-.816.804c-.368.224-.889.336-1.56.336a4.29 4.29 0 0 1-.792-.072 1.925 1.925 0 0 1-.672-.252c-.191-.12-.344-.284-.456-.492s-.168-.464-.168-.768c0-.32.056-.584.168-.792s.26-.38.444-.516.399-.244.648-.324c.248-.08.5-.144.757-.192.272-.048.543-.088.815-.12.273-.032.532-.072.78-.12s.48-.108.696-.18c.216-.072.396-.172.54-.3v1.272zM19.544 25.984h.048a3.107 3.107 0 0 0 1.632 1.464c.72.288 1.536.432 2.448.432a4.727 4.727 0 0 0 3.493-1.56c.487-.528.884-1.204 1.188-2.028.304-.824.456-1.804.456-2.94s-.152-2.116-.456-2.94c-.304-.824-.7-1.5-1.188-2.028a4.726 4.726 0 0 0-3.493-1.56c-.768 0-1.509.148-2.22.444a3.631 3.631 0 0 0-1.692 1.404h-.048v-6.24h-3.408v17.136h3.24v-1.584zm.216-6.12c.111-.48.288-.904.528-1.272.239-.368.544-.66.912-.876.367-.216.8-.324 1.296-.324.512 0 .947.108 1.308.324.36.216.66.508.9.876.239.368.416.792.527 1.272.112.48.168.984.168 1.512 0 .512-.056 1.008-.168 1.488-.111.48-.288.904-.527 1.272-.24.368-.54.66-.9.876-.36.216-.796.324-1.308.324-.496 0-.929-.108-1.296-.324a2.716 2.716 0 0 1-.912-.876 3.928 3.928 0 0 1-.528-1.272 6.527 6.527 0 0 1-.168-1.488c0-.528.055-1.032.168-1.512zM32.311 26.104c.544.56 1.204.996 1.981 1.308.775.312 1.628.468 2.556.468 1.648 0 3-.432 4.057-1.296 1.056-.864 1.695-2.12 1.92-3.768h-3.288c-.112.768-.389 1.38-.828 1.836-.44.456-1.068.684-1.884.684-.528 0-.977-.12-1.345-.36a2.698 2.698 0 0 1-.876-.924 4.212 4.212 0 0 1-.468-1.26 6.74 6.74 0 0 1 0-2.772c.096-.472.26-.904.492-1.296.231-.392.531-.712.9-.96.367-.248.823-.372 1.367-.372 1.456 0 2.296.712 2.521 2.136h3.336c-.048-.8-.24-1.492-.576-2.076a4.712 4.712 0 0 0-1.308-1.464 5.68 5.68 0 0 0-1.824-.876 7.79 7.79 0 0 0-2.124-.288c-1.008 0-1.904.168-2.688.504a5.644 5.644 0 0 0-1.991 1.404 5.99 5.99 0 0 0-1.236 2.136 8.266 8.266 0 0 0-.42 2.676c0 .928.151 1.78.456 2.556a5.952 5.952 0 0 0 1.27 2.004z"/><path d="M56 19.568l-22 22-10-10-6 6 16 16 28-28z"/></svg>