<?xml version="1.0" encoding="UTF-8" standalone="no"?><svg xmlns="http://www.w3.org/2000/svg" xmlns:xlink="http://www.w3.org/1999/xlink" contentScriptType="application/ecmascript" contentStyleType="text/css" height="397px" preserveAspectRatio="none" style="width:1109px;height:397px;" version="1.1" viewBox="0 0 1109 397" width="1109px" zoomAndPan="magnify"><defs><filter height="300%" id="fo3ubfw" width="300%" x="-1" y="-1"><feGaussianBlur result="blurOut" stdDeviation="2.0"/><feColorMatrix in="blurOut" result="blurOut2" type="matrix" values="0 0 0 0 0 0 0 0 0 0 0 0 0 0 0 0 0 0 .4 0"/><feOffset dx="4.0" dy="4.0" in="blurOut2" result="blurOut3"/><feBlend in="SourceGraphic" in2="blurOut3" mode="normal"/></filter></defs><g><!--class Relationship--><rect fill="#FEFECE" filter="url(#fo3ubfw)" height="73.6094" style="stroke: #A80036; stroke-width: 1.5;" width="162" x="6" y="206"/><ellipse cx="44.85" cy="222" fill="#ADD1B2" rx="11" ry="11" style="stroke: #A80036; stroke-width: 1.0;"/><path d="M47.8188,227.6406 Q47.2406,227.9375 46.6,228.0859 Q45.9594,228.2344 45.2563,228.2344 Q42.7563,228.2344 41.4359,226.5859 Q40.1156,224.9375 40.1156,221.8125 Q40.1156,218.6875 41.4359,217.0313 Q42.7563,215.375 45.2563,215.375 Q45.9594,215.375 46.6078,215.5313 Q47.2563,215.6875 47.8188,215.9844 L47.8188,218.7031 Q47.1938,218.125 46.6,217.8516 Q46.0063,217.5781 45.3813,217.5781 Q44.0375,217.5781 43.35,218.6484 Q42.6625,219.7188 42.6625,221.8125 Q42.6625,223.9063 43.35,224.9766 Q44.0375,226.0469 45.3813,226.0469 Q46.0063,226.0469 46.6,225.7734 Q47.1938,225.5 47.8188,224.9219 L47.8188,227.6406 Z "/><text fill="#000000" font-family="sans-serif" font-size="12" lengthAdjust="spacingAndGlyphs" textLength="77" x="64.15" y="226.1543">Relationship</text><line style="stroke: #A80036; stroke-width: 1.5;" x1="7" x2="167" y1="238" y2="238"/><line style="stroke: #A80036; stroke-width: 1.5;" x1="7" x2="167" y1="246" y2="246"/><ellipse cx="17" cy="257.9023" fill="#84BE84" rx="3" ry="3" style="stroke: #038048; stroke-width: 1.0;"/><text fill="#000000" font-family="sans-serif" font-size="11" lengthAdjust="spacingAndGlyphs" textLength="91" x="26" y="260.2104">String toString()</text><ellipse cx="17" cy="270.707" fill="#84BE84" rx="3" ry="3" style="stroke: #038048; stroke-width: 1.0;"/><text fill="#000000" font-family="sans-serif" font-size="11" lengthAdjust="spacingAndGlyphs" textLength="136" x="26" y="273.0151">boolean isRelationship()</text><!--class Identifiable--><rect fill="#FEFECE" filter="url(#fo3ubfw)" height="48" style="stroke: #A80036; stroke-width: 1.5;" width="101" x="131.5" y="340"/><ellipse cx="146.5" cy="356" fill="#ADD1B2" rx="11" ry="11" style="stroke: #A80036; stroke-width: 1.0;"/><path d="M149.4688,361.6406 Q148.8906,361.9375 148.25,362.0859 Q147.6094,362.2344 146.9063,362.2344 Q144.4063,362.2344 143.0859,360.5859 Q141.7656,358.9375 141.7656,355.8125 Q141.7656,352.6875 143.0859,351.0313 Q144.4063,349.375 146.9063,349.375 Q147.6094,349.375 148.2578,349.5313 Q148.9063,349.6875 149.4688,349.9844 L149.4688,352.7031 Q148.8438,352.125 148.25,351.8516 Q147.6563,351.5781 147.0313,351.5781 Q145.6875,351.5781 145,352.6484 Q144.3125,353.7188 144.3125,355.8125 Q144.3125,357.9063 145,358.9766 Q145.6875,360.0469 147.0313,360.0469 Q147.6563,360.0469 148.25,359.7734 Q148.8438,359.5 149.4688,358.9219 L149.4688,361.6406 Z "/><text fill="#000000" font-family="sans-serif" font-size="12" lengthAdjust="spacingAndGlyphs" textLength="69" x="160.5" y="360.1543">Identifiable</text><line style="stroke: #A80036; stroke-width: 1.5;" x1="132.5" x2="231.5" y1="372" y2="372"/><line style="stroke: #A80036; stroke-width: 1.5;" x1="132.5" x2="231.5" y1="380" y2="380"/><!--class Resource--><rect fill="#FEFECE" filter="url(#fo3ubfw)" height="73.6094" style="stroke: #A80036; stroke-width: 1.5;" width="146" x="203" y="206"/><ellipse cx="242.75" cy="222" fill="#ADD1B2" rx="11" ry="11" style="stroke: #A80036; stroke-width: 1.0;"/><path d="M245.7188,227.6406 Q245.1406,227.9375 244.5,228.0859 Q243.8594,228.2344 243.1563,228.2344 Q240.6563,228.2344 239.3359,226.5859 Q238.0156,224.9375 238.0156,221.8125 Q238.0156,218.6875 239.3359,217.0313 Q240.6563,215.375 243.1563,215.375 Q243.8594,215.375 244.5078,215.5313 Q245.1563,215.6875 245.7188,215.9844 L245.7188,218.7031 Q245.0938,218.125 244.5,217.8516 Q243.9063,217.5781 243.2813,217.5781 Q241.9375,217.5781 241.25,218.6484 Q240.5625,219.7188 240.5625,221.8125 Q240.5625,223.9063 241.25,224.9766 Q241.9375,226.0469 243.2813,226.0469 Q243.9063,226.0469 244.5,225.7734 Q245.0938,225.5 245.7188,224.9219 L245.7188,227.6406 Z "/><text fill="#000000" font-family="sans-serif" font-size="12" lengthAdjust="spacingAndGlyphs" textLength="59" x="262.25" y="226.1543">Resource</text><line style="stroke: #A80036; stroke-width: 1.5;" x1="204" x2="348" y1="238" y2="238"/><line style="stroke: #A80036; stroke-width: 1.5;" x1="204" x2="348" y1="246" y2="246"/><ellipse cx="214" cy="257.9023" fill="#84BE84" rx="3" ry="3" style="stroke: #038048; stroke-width: 1.0;"/><text fill="#000000" font-family="sans-serif" font-size="11" lengthAdjust="spacingAndGlyphs" textLength="91" x="223" y="260.2104">String toString()</text><ellipse cx="214" cy="270.707" fill="#84BE84" rx="3" ry="3" style="stroke: #038048; stroke-width: 1.0;"/><text fill="#000000" font-family="sans-serif" font-size="11" lengthAdjust="spacingAndGlyphs" textLength="120" x="223" y="273.0151">boolean isResource()</text><!--class ValidatedResource--><rect fill="#FEFECE" filter="url(#fo3ubfw)" height="86.4141" style="stroke: #A80036; stroke-width: 1.5;" width="228" x="162" y="34"/><ellipse cx="212.75" cy="50" fill="#ADD1B2" rx="11" ry="11" style="stroke: #A80036; stroke-width: 1.0;"/><path d="M215.7188,55.6406 Q215.1406,55.9375 214.5,56.0859 Q213.8594,56.2344 213.1563,56.2344 Q210.6563,56.2344 209.3359,54.5859 Q208.0156,52.9375 208.0156,49.8125 Q208.0156,46.6875 209.3359,45.0313 Q210.6563,43.375 213.1563,43.375 Q213.8594,43.375 214.5078,43.5313 Q215.1563,43.6875 215.7188,43.9844 L215.7188,46.7031 Q215.0938,46.125 214.5,45.8516 Q213.9063,45.5781 213.2813,45.5781 Q211.9375,45.5781 211.25,46.6484 Q210.5625,47.7188 210.5625,49.8125 Q210.5625,51.9063 211.25,52.9766 Q211.9375,54.0469 213.2813,54.0469 Q213.9063,54.0469 214.5,53.7734 Q215.0938,53.5 215.7188,52.9219 L215.7188,55.6406 Z "/><text fill="#000000" font-family="sans-serif" font-size="12" lengthAdjust="spacingAndGlyphs" textLength="118" x="233.25" y="54.1543">ValidatedResource</text><line style="stroke: #A80036; stroke-width: 1.5;" x1="163" x2="389" y1="66" y2="66"/><line style="stroke: #A80036; stroke-width: 1.5;" x1="163" x2="389" y1="74" y2="74"/><ellipse cx="173" cy="85.9023" fill="#84BE84" rx="3" ry="3" style="stroke: #038048; stroke-width: 1.0;"/><text fill="#000000" font-family="sans-serif" font-size="11" lengthAdjust="spacingAndGlyphs" textLength="202" x="182" y="88.2104">void setPropertyValue(string,string)</text><ellipse cx="173" cy="98.707" fill="#84BE84" rx="3" ry="3" style="stroke: #038048; stroke-width: 1.0;"/><text fill="#000000" font-family="sans-serif" font-size="11" lengthAdjust="spacingAndGlyphs" textLength="187" x="182" y="101.0151">void addArrayValue(string,string)</text><ellipse cx="173" cy="111.5117" fill="#84BE84" rx="3" ry="3" style="stroke: #038048; stroke-width: 1.0;"/><text fill="#000000" font-family="sans-serif" font-size="11" lengthAdjust="spacingAndGlyphs" textLength="79" x="182" y="113.8198">void validate()</text><!--class Concept--><rect fill="#FEFECE" filter="url(#fo3ubfw)" height="60.8047" style="stroke: #A80036; stroke-width: 1.5;" width="139" x="469.5" y="212.5"/><ellipse cx="509.25" cy="228.5" fill="#ADD1B2" rx="11" ry="11" style="stroke: #A80036; stroke-width: 1.0;"/><path d="M512.2188,234.1406 Q511.6406,234.4375 511,234.5859 Q510.3594,234.7344 509.6563,234.7344 Q507.1563,234.7344 505.8359,233.0859 Q504.5156,231.4375 504.5156,228.3125 Q504.5156,225.1875 505.8359,223.5313 Q507.1563,221.875 509.6563,221.875 Q510.3594,221.875 511.0078,222.0313 Q511.6563,222.1875 512.2188,222.4844 L512.2188,225.2031 Q511.5938,224.625 511,224.3516 Q510.4063,224.0781 509.7813,224.0781 Q508.4375,224.0781 507.75,225.1484 Q507.0625,226.2188 507.0625,228.3125 Q507.0625,230.4063 507.75,231.4766 Q508.4375,232.5469 509.7813,232.5469 Q510.4063,232.5469 511,232.2734 Q511.5938,232 512.2188,231.4219 L512.2188,234.1406 Z "/><text fill="#000000" font-family="sans-serif" font-size="12" lengthAdjust="spacingAndGlyphs" textLength="52" x="528.75" y="232.6543">Concept</text><line style="stroke: #A80036; stroke-width: 1.5;" x1="470.5" x2="607.5" y1="244.5" y2="244.5"/><line style="stroke: #A80036; stroke-width: 1.5;" x1="470.5" x2="607.5" y1="252.5" y2="252.5"/><ellipse cx="480.5" cy="264.4023" fill="#84BE84" rx="3" ry="3" style="stroke: #038048; stroke-width: 1.0;"/><text fill="#000000" font-family="sans-serif" font-size="11" lengthAdjust="spacingAndGlyphs" textLength="113" x="489.5" y="266.7104">boolean isConcept()</text><!--class Typed--><rect fill="#FEFECE" filter="url(#fo3ubfw)" height="48" style="stroke: #A80036; stroke-width: 1.5;" width="69" x="504.5" y="340"/><ellipse cx="519.5" cy="356" fill="#ADD1B2" rx="11" ry="11" style="stroke: #A80036; stroke-width: 1.0;"/><path d="M522.4688,361.6406 Q521.8906,361.9375 521.25,362.0859 Q520.6094,362.2344 519.9063,362.2344 Q517.4063,362.2344 516.0859,360.5859 Q514.7656,358.9375 514.7656,355.8125 Q514.7656,352.6875 516.0859,351.0313 Q517.4063,349.375 519.9063,349.375 Q520.6094,349.375 521.2578,349.5313 Q521.9063,349.6875 522.4688,349.9844 L522.4688,352.7031 Q521.8438,352.125 521.25,351.8516 Q520.6563,351.5781 520.0313,351.5781 Q518.6875,351.5781 518,352.6484 Q517.3125,353.7188 517.3125,355.8125 Q517.3125,357.9063 518,358.9766 Q518.6875,360.0469 520.0313,360.0469 Q520.6563,360.0469 521.25,359.7734 Q521.8438,359.5 522.4688,358.9219 L522.4688,361.6406 Z "/><text fill="#000000" font-family="sans-serif" font-size="12" lengthAdjust="spacingAndGlyphs" textLength="37" x="533.5" y="360.1543">Typed</text><line style="stroke: #A80036; stroke-width: 1.5;" x1="505.5" x2="572.5" y1="372" y2="372"/><line style="stroke: #A80036; stroke-width: 1.5;" x1="505.5" x2="572.5" y1="380" y2="380"/><!--class ValidatedConcept--><rect fill="#FEFECE" filter="url(#fo3ubfw)" height="86.4141" style="stroke: #A80036; stroke-width: 1.5;" width="228" x="425" y="34"/><ellipse cx="479.25" cy="50" fill="#ADD1B2" rx="11" ry="11" style="stroke: #A80036; stroke-width: 1.0;"/><path d="M482.2188,55.6406 Q481.6406,55.9375 481,56.0859 Q480.3594,56.2344 479.6563,56.2344 Q477.1563,56.2344 475.8359,54.5859 Q474.5156,52.9375 474.5156,49.8125 Q474.5156,46.6875 475.8359,45.0313 Q477.1563,43.375 479.6563,43.375 Q480.3594,43.375 481.0078,43.5313 Q481.6563,43.6875 482.2188,43.9844 L482.2188,46.7031 Q481.5938,46.125 481,45.8516 Q480.4063,45.5781 479.7813,45.5781 Q478.4375,45.5781 477.75,46.6484 Q477.0625,47.7188 477.0625,49.8125 Q477.0625,51.9063 477.75,52.9766 Q478.4375,54.0469 479.7813,54.0469 Q480.4063,54.0469 481,53.7734 Q481.5938,53.5 482.2188,52.9219 L482.2188,55.6406 Z "/><text fill="#000000" font-family="sans-serif" font-size="12" lengthAdjust="spacingAndGlyphs" textLength="111" x="499.75" y="54.1543">ValidatedConcept</text><line style="stroke: #A80036; stroke-width: 1.5;" x1="426" x2="652" y1="66" y2="66"/><line style="stroke: #A80036; stroke-width: 1.5;" x1="426" x2="652" y1="74" y2="74"/><ellipse cx="436" cy="85.9023" fill="#84BE84" rx="3" ry="3" style="stroke: #038048; stroke-width: 1.0;"/><text fill="#000000" font-family="sans-serif" font-size="11" lengthAdjust="spacingAndGlyphs" textLength="202" x="445" y="88.2104">void setPropertyValue(string,string)</text><ellipse cx="436" cy="98.707" fill="#84BE84" rx="3" ry="3" style="stroke: #038048; stroke-width: 1.0;"/><text fill="#000000" font-family="sans-serif" font-size="11" lengthAdjust="spacingAndGlyphs" textLength="187" x="445" y="101.0151">void addArrayValue(string,string)</text><ellipse cx="436" cy="111.5117" fill="#84BE84" rx="3" ry="3" style="stroke: #038048; stroke-width: 1.0;"/><text fill="#000000" font-family="sans-serif" font-size="11" lengthAdjust="spacingAndGlyphs" textLength="79" x="445" y="113.8198">void validate()</text><!--class Factory--><rect fill="#FEFECE" filter="url(#fo3ubfw)" height="137.6328" style="stroke: #A80036; stroke-width: 1.5;" width="412" x="688" y="8"/><ellipse cx="866.75" cy="24" fill="#ADD1B2" rx="11" ry="11" style="stroke: #A80036; stroke-width: 1.0;"/><path d="M869.7188,29.6406 Q869.1406,29.9375 868.5,30.0859 Q867.8594,30.2344 867.1563,30.2344 Q864.6563,30.2344 863.3359,28.5859 Q862.0156,26.9375 862.0156,23.8125 Q862.0156,20.6875 863.3359,19.0313 Q864.6563,17.375 867.1563,17.375 Q867.8594,17.375 868.5078,17.5313 Q869.1563,17.6875 869.7188,17.9844 L869.7188,20.7031 Q869.0938,20.125 868.5,19.8516 Q867.9063,19.5781 867.2813,19.5781 Q865.9375,19.5781 865.25,20.6484 Q864.5625,21.7188 864.5625,23.8125 Q864.5625,25.9063 865.25,26.9766 Q865.9375,28.0469 867.2813,28.0469 Q867.9063,28.0469 868.5,27.7734 Q869.0938,27.5 869.7188,26.9219 L869.7188,29.6406 Z "/><text fill="#000000" font-family="sans-serif" font-size="12" lengthAdjust="spacingAndGlyphs" textLength="46" x="887.25" y="28.1543">Factory</text><line style="stroke: #A80036; stroke-width: 1.5;" x1="689" x2="1099" y1="40" y2="40"/><line style="stroke: #A80036; stroke-width: 1.5;" x1="689" x2="1099" y1="48" y2="48"/><ellipse cx="699" cy="59.9023" fill="#84BE84" rx="3" ry="3" style="stroke: #038048; stroke-width: 1.0;"/><text fill="#000000" font-family="sans-serif" font-size="11" lengthAdjust="spacingAndGlyphs" textLength="182" x="708" y="62.2104">void constructor(ModelManager)</text><ellipse cx="699" cy="72.707" fill="#84BE84" rx="3" ry="3" style="stroke: #038048; stroke-width: 1.0;"/><text fill="#000000" font-family="sans-serif" font-size="11" lengthAdjust="spacingAndGlyphs" textLength="381" x="708" y="75.0151">Resource newInstance(string,string,string,Object,boolean,boolean)</text><ellipse cx="699" cy="85.5117" fill="#84BE84" rx="3" ry="3" style="stroke: #038048; stroke-width: 1.0;"/><text fill="#000000" font-family="sans-serif" font-size="11" lengthAdjust="spacingAndGlyphs" textLength="386" x="708" y="87.8198">Resource newResource(string,string,string,Object,boolean,boolean)</text><ellipse cx="699" cy="98.3164" fill="#84BE84" rx="3" ry="3" style="stroke: #038048; stroke-width: 1.0;"/><text fill="#000000" font-family="sans-serif" font-size="11" lengthAdjust="spacingAndGlyphs" textLength="342" x="708" y="100.6245">Resource newConcept(string,string,Object,boolean,boolean)</text><ellipse cx="699" cy="111.1211" fill="#84BE84" rx="3" ry="3" style="stroke: #038048; stroke-width: 1.0;"/><text fill="#000000" font-family="sans-serif" font-size="11" lengthAdjust="spacingAndGlyphs" textLength="280" x="708" y="113.4292">Relationship newRelationship(string,string,string)</text><ellipse cx="699" cy="123.9258" fill="#84BE84" rx="3" ry="3" style="stroke: #038048; stroke-width: 1.0;"/><text fill="#000000" font-family="sans-serif" font-size="11" lengthAdjust="spacingAndGlyphs" textLength="351" x="708" y="126.2339">Resource newTransaction(string,string,string,Object,boolean)</text><ellipse cx="699" cy="136.7305" fill="#84BE84" rx="3" ry="3" style="stroke: #038048; stroke-width: 1.0;"/><text fill="#000000" font-family="sans-serif" font-size="11" lengthAdjust="spacingAndGlyphs" textLength="87" x="708" y="139.0386">Object toJSON()</text><path d="M115.761,280.027 C126.787,293.8388 139.418,309.6605 150.673,323.759 " fill="none" style="stroke: #A80036; stroke-width: 1.0;"/><polygon fill="none" points="156.512,319.853,163.519,339.8505,145.571,328.5875,156.512,319.853" style="stroke: #A80036; stroke-width: 1.0;"/><path d="M247.542,280.027 C236.632,293.8388 224.134,309.6605 212.997,323.759 " fill="none" style="stroke: #A80036; stroke-width: 1.0;"/><polygon fill="none" points="218.176,328.4952,200.286,339.8505,207.19,319.8172,218.176,328.4952" style="stroke: #A80036; stroke-width: 1.0;"/><path d="M276,120.234 C276,140.093 276,164.058 276,185.456 " fill="none" style="stroke: #A80036; stroke-width: 1.0;"/><polygon fill="none" points="283,185.751,276,205.751,269,185.751,283,185.751" style="stroke: #A80036; stroke-width: 1.0;"/><path d="M539,273.722 C539,287.665 539,304.5488 539,319.8639 " fill="none" style="stroke: #A80036; stroke-width: 1.0;"/><polygon fill="none" points="546,319.9995,539,339.9994,532,319.9994,546,319.9995" style="stroke: #A80036; stroke-width: 1.0;"/><path d="M539,120.234 C539,142.211 539,169.216 539,192.205 " fill="none" style="stroke: #A80036; stroke-width: 1.0;"/><polygon fill="none" points="546,192.325,539,212.325,532,192.325,546,192.325" style="stroke: #A80036; stroke-width: 1.0;"/></g></svg>