<svg xmlns="http://www.w3.org/2000/svg" width="54.72" height="73.59" viewBox="0 0 54.72 73.59"><defs><style>.\36 203b9e0-7f8b-474b-9e29-185d2d373824,.b38609c7-aa75-45b7-9239-56bcaf49bad9{fill:#fff;stroke-linejoin:round;stroke-width:2px;}.b38609c7-aa75-45b7-9239-56bcaf49bad9{stroke:#2e3f8f;}.\36 203b9e0-7f8b-474b-9e29-185d2d373824{stroke:#d1d7f4;stroke-linecap:round;}.\35 fdd4fc3-fdee-4fb9-aab2-7bcf1644d03e{fill:#2e3f8f;}</style></defs><title>acl_file</title><g id="0ae4c835-6c5e-4a85-9797-117dd0ad1160" data-name="Layer 2"><g id="57218016-df85-43d2-baa6-1133f53828d4" data-name="Layer 1"><polygon class="b38609c7-aa75-45b7-9239-56bcaf49bad9" points="53.64 72.59 1 72.53 1.06 18.59 18.46 18.61 18.48 1 53.72 1.04 53.64 72.59"/><polygon class="b38609c7-aa75-45b7-9239-56bcaf49bad9" points="18.48 1 18.46 18.4 1.06 18.39 18.48 1"/><polyline class="6203b9e0-7f8b-474b-9e29-185d2d373824" points="48.91 58.28 48.88 67.74 39.16 67.84"/><path class="5fdd4fc3-fdee-4fb9-aab2-7bcf1644d03e" d="M17.79,43.26a1,1,0,0,1,.26-.74,1.07,1.07,0,0,1,.77-.25,1,1,0,0,1,.75.26,1.14,1.14,0,0,1,0,1.47,1,1,0,0,1-.75.27,1.05,1.05,0,0,1-.76-.26A1,1,0,0,1,17.79,43.26Z"/><path class="5fdd4fc3-fdee-4fb9-aab2-7bcf1644d03e" d="M25.63,44.09l-.35-.89h0a2.64,2.64,0,0,1-.93.79,3,3,0,0,1-1.25.22,2,2,0,0,1-1.49-.54A2.07,2.07,0,0,1,21,42.14a1.73,1.73,0,0,1,.73-1.54,4.23,4.23,0,0,1,2.2-.55l1.14,0v-.29a.89.89,0,0,0-1-1,4.65,4.65,0,0,0-1.85.47L21.64,38a5.33,5.33,0,0,1,2.51-.59,3.12,3.12,0,0,1,2,.57,2.12,2.12,0,0,1,.7,1.75v4.37Zm-.53-3-.69,0a2.21,2.21,0,0,0-1.16.28.88.88,0,0,0-.38.79q0,.76.87.76a1.37,1.37,0,0,0,1-.36,1.26,1.26,0,0,0,.37-.95Z"/><path class="5fdd4fc3-fdee-4fb9-aab2-7bcf1644d03e" d="M31.38,44.21q-3.06,0-3.06-3.36a3.58,3.58,0,0,1,.83-2.55,3.12,3.12,0,0,1,2.38-.88,4.55,4.55,0,0,1,2,.45L33,39.25q-.42-.17-.79-.28a2.53,2.53,0,0,0-.73-.11q-1.39,0-1.39,2t1.39,1.92a3.18,3.18,0,0,0,1-.14,3.45,3.45,0,0,0,.88-.43v1.53a2.88,2.88,0,0,1-.88.38A4.93,4.93,0,0,1,31.38,44.21Z"/><path class="5fdd4fc3-fdee-4fb9-aab2-7bcf1644d03e" d="M36.67,44.09H34.89V35h1.79Z"/></g></g></svg>