<svg xmlns="http://www.w3.org/2000/svg" width="181.33" height="189.34" viewBox="0 0 181.33 189.34"><defs><style>.\34 b0b5319-b487-4061-aa10-326b810fad93{fill:#e1ebf7;opacity:0.3;}.\34 2ad59da-6297-4291-8fdf-c83344302c4e{fill:#b0bef3;}.\31 6139258-2203-426d-b5dd-7dba464aaa50,.\33 1eb1f68-168a-4a0b-8dce-2fb892ba0bfa,.a90fd815-002b-421f-8cda-10c3474a991a{fill:#fff;}.\33 1eb1f68-168a-4a0b-8dce-2fb892ba0bfa,.ea6c25d1-3c86-432f-a284-2f5636e810e5{stroke:#b0bef3;}.\30 ae4b353-19e5-4e34-a1d7-da438d040995,.\31 380f709-d2cb-4576-abff-963525e237dc,.\31 6139258-2203-426d-b5dd-7dba464aaa50,.\33 1eb1f68-168a-4a0b-8dce-2fb892ba0bfa,.ea6c25d1-3c86-432f-a284-2f5636e810e5{stroke-linecap:round;}.\30 ae4b353-19e5-4e34-a1d7-da438d040995,.\31 6139258-2203-426d-b5dd-7dba464aaa50,.\33 1eb1f68-168a-4a0b-8dce-2fb892ba0bfa,.a90fd815-002b-421f-8cda-10c3474a991a,.ea6c25d1-3c86-432f-a284-2f5636e810e5{stroke-linejoin:round;stroke-width:2px;}.a90fd815-002b-421f-8cda-10c3474a991a{stroke:#2e3f8f;}.c246f973-27c2-4bf9-9a79-df009f97d7d1{fill:#2e3f8f;}.\30 ae4b353-19e5-4e34-a1d7-da438d040995,.\31 380f709-d2cb-4576-abff-963525e237dc,.ea6c25d1-3c86-432f-a284-2f5636e810e5{fill:none;}.\31 380f709-d2cb-4576-abff-963525e237dc{stroke:#ffb000;stroke-miterlimit:10;stroke-width:3px;}.\30 ae4b353-19e5-4e34-a1d7-da438d040995,.\31 6139258-2203-426d-b5dd-7dba464aaa50{stroke:#d1d7f4;}</style></defs><title>Asset 8</title><g id="dc258da3-e541-4e5c-b6e7-cf33c7e9ef63" data-name="Layer 2"><g id="94d25fe4-91c8-47ec-bfe7-0399b76b2095" data-name="Layer 1"><path class="4b0b5319-b487-4061-aa10-326b810fad93" d="M32.22,153.83a18.17,18.17,0,0,1,11,3.66v.06a19.73,19.73,0,0,1,37.91,3l.37-1.08a19.75,19.75,0,0,1,19.74,19.62h10.26s0-.09,0-.13a8.11,8.11,0,0,1,15.27-3.83,15.41,15.41,0,0,1,30.42-3.06,90.66,90.66,0,1,0-140.59-9.35A18.22,18.22,0,0,1,32.22,153.83Z"/><path class="4b0b5319-b487-4061-aa10-326b810fad93" d="M149.91,179.09h-.41v.34Z"/><circle class="42ad59da-6297-4291-8fdf-c83344302c4e" cx="133.67" cy="54.4" r="1.83"/><circle class="42ad59da-6297-4291-8fdf-c83344302c4e" cx="143.98" cy="94.23" r="1.83"/><circle class="42ad59da-6297-4291-8fdf-c83344302c4e" cx="53.05" cy="120.92" r="1.83"/><polygon class="31eb1f68-168a-4a0b-8dce-2fb892ba0bfa" points="30.73 82.88 20.67 91.83 33.45 96.07 30.73 82.88"/><polygon class="a90fd815-002b-421f-8cda-10c3474a991a" points="118.64 126.66 66.45 133.47 59.46 79.99 76.72 77.73 74.44 60.27 109.38 55.71 118.64 126.66"/><polygon class="a90fd815-002b-421f-8cda-10c3474a991a" points="74.44 60.27 76.69 77.53 59.44 79.78 74.44 60.27"/><path class="c246f973-27c2-4bf9-9a79-df009f97d7d1" d="M76.4,102.9a1,1,0,0,1,.17-.77,1.07,1.07,0,0,1,.73-.35,1,1,0,0,1,.78.16,1.14,1.14,0,0,1,.19,1.46,1,1,0,0,1-.71.36,1.05,1.05,0,0,1-.79-.16A1,1,0,0,1,76.4,102.9Z"/><path class="c246f973-27c2-4bf9-9a79-df009f97d7d1" d="M82.91,96.17a2.12,2.12,0,0,1,1.92.66,4.15,4.15,0,0,1,1,2.38,4.08,4.08,0,0,1-.35,2.58,2.36,2.36,0,0,1-3.62.53l-.12,0-.2.75-1.35.18-1.18-9L80.75,94l.27,2.1q.05.4.1,1.29h.07A2.07,2.07,0,0,1,82.91,96.17Zm-.38,1.49a1.13,1.13,0,0,0-.91.53,2.33,2.33,0,0,0-.14,1.37l0,.19a2.76,2.76,0,0,0,.51,1.46,1.12,1.12,0,0,0,1,.32,1,1,0,0,0,.8-.62,2.75,2.75,0,0,0,.13-1.5,2.6,2.6,0,0,0-.51-1.4A1,1,0,0,0,82.52,97.66Z"/><path class="c246f973-27c2-4bf9-9a79-df009f97d7d1" d="M93.68,101.49l-1.77.23-.49-3.79a1.85,1.85,0,0,0-.39-1,.92.92,0,0,0-.84-.25,1.2,1.2,0,0,0-1,.64A3.1,3.1,0,0,0,89.06,99l.4,3.06-1.77.23-.85-6.5,1.35-.18.35.8h.1a1.88,1.88,0,0,1,.72-.82,2.82,2.82,0,0,1,1.15-.4,2.3,2.3,0,0,1,1.8.39,2.48,2.48,0,0,1,.82,1.69Z"/><path class="c246f973-27c2-4bf9-9a79-df009f97d7d1" d="M99.63,100.72l-.46-.84h0a2.66,2.66,0,0,1-.82.9,3,3,0,0,1-1.21.38,2,2,0,0,1-1.54-.34,2.07,2.07,0,0,1-.74-1.45,1.72,1.72,0,0,1,.52-1.62,4.23,4.23,0,0,1,2.11-.83l1.12-.18,0-.28a.89.89,0,0,0-1.14-.86,4.67,4.67,0,0,0-1.77.71l-.74-1.12a5.32,5.32,0,0,1,2.41-.91,3.12,3.12,0,0,1,2.08.31,2.12,2.12,0,0,1,.92,1.64l.56,4.33Zm-.92-2.94-.68.11a2.23,2.23,0,0,0-1.11.43.89.89,0,0,0-.28.83q.1.75,1,.64a1.37,1.37,0,0,0,.94-.48,1.25,1.25,0,0,0,.25-1Z"/><line class="1380f709-d2cb-4576-abff-963525e237dc" x1="88.92" y1="16.35" x2="93.93" y2="51.86"/><line class="1380f709-d2cb-4576-abff-963525e237dc" x1="86.83" y1="1.5" x2="88.07" y2="10.27"/><line class="1380f709-d2cb-4576-abff-963525e237dc" x1="61.39" y1="29.54" x2="63.15" y2="42.06"/><line class="1380f709-d2cb-4576-abff-963525e237dc" x1="60.09" y1="20.35" x2="60.53" y2="23.44"/><line class="1380f709-d2cb-4576-abff-963525e237dc" x1="101.14" y1="38.53" x2="104.74" y2="64.06"/><line class="1380f709-d2cb-4576-abff-963525e237dc" x1="99.45" y1="26.57" x2="100.33" y2="32.83"/><path class="ea6c25d1-3c86-432f-a284-2f5636e810e5" d="M42.61,169.34a19.75,19.75,0,1,1,32.09,9.88"/><path class="ea6c25d1-3c86-432f-a284-2f5636e810e5" d="M44.21,173.48q-.39-.74-.71-1.51"/><path class="ea6c25d1-3c86-432f-a284-2f5636e810e5" d="M14.18,174.84a18.27,18.27,0,0,1,18-21,18.17,18.17,0,0,1,11,3.66"/><path class="ea6c25d1-3c86-432f-a284-2f5636e810e5" d="M126.73,175.07a7.51,7.51,0,0,0-7.13-4.23,8.12,8.12,0,0,0-8.12,8.13q0,.13,0,.26H101.22c0-10.91-9.46-19.75-20.36-19.75"/><path class="ea6c25d1-3c86-432f-a284-2f5636e810e5" d="M157.17,179.09a15.43,15.43,0,1,0-30,0"/><line class="ea6c25d1-3c86-432f-a284-2f5636e810e5" x1="127.67" y1="138.04" x2="136" y2="145.95"/><path class="0ae4b353-19e5-4e34-a1d7-da438d040995" d="M72.68,174.84a15.39,15.39,0,0,0,.63-20"/><path class="0ae4b353-19e5-4e34-a1d7-da438d040995" d="M135.52,186.32a11.86,11.86,0,0,0,14-19.15"/><path class="0ae4b353-19e5-4e34-a1d7-da438d040995" d="M37.66,159.39a24.72,24.72,0,0,0,1,13.34"/><polyline class="16139258-2203-426d-b5dd-7dba464aaa50" points="112.08 113.09 113.29 122.47 103.67 123.84"/></g></g></svg>