<svg xmlns="http://www.w3.org/2000/svg" width="54.72" height="73.59" viewBox="0 0 54.72 73.59"><defs><style>.\30 f6f6c5a-4501-47e3-b446-e0d295a553d1,.\32 9dc99e2-6553-4864-a80f-2db19de3894f{fill:#fff;stroke-linejoin:round;stroke-width:2px;}.\30 f6f6c5a-4501-47e3-b446-e0d295a553d1{stroke:#2e3f8f;}.a43dc8b1-016a-495d-ac9e-2412be3992fd{fill:#2e3f8f;}.\32 9dc99e2-6553-4864-a80f-2db19de3894f{stroke:#d1d7f4;stroke-linecap:round;}</style></defs><title>Asset 6</title><g id="6be47452-a356-47cf-9f55-6d1e1cddb199" data-name="Layer 2"><g id="3478d017-8376-4c4f-8e59-652c4ebe62e5" data-name="Layer 1"><polygon class="0f6f6c5a-4501-47e3-b446-e0d295a553d1" points="53.64 72.59 1 72.53 1.06 18.59 18.46 18.61 18.48 1 53.72 1.04 53.64 72.59"/><polygon class="0f6f6c5a-4501-47e3-b446-e0d295a553d1" points="18.48 1 18.46 18.4 1.06 18.39 18.48 1"/><path class="a43dc8b1-016a-495d-ac9e-2412be3992fd" d="M14.86,43.53a1,1,0,0,1,.26-.74,1.07,1.07,0,0,1,.77-.25,1,1,0,0,1,.75.26,1.14,1.14,0,0,1,0,1.47,1,1,0,0,1-.75.27,1.05,1.05,0,0,1-.76-.26A1,1,0,0,1,14.86,43.53Z"/><path class="a43dc8b1-016a-495d-ac9e-2412be3992fd" d="M22.19,37.7a2.12,2.12,0,0,1,1.82.91,4.15,4.15,0,0,1,.65,2.48A4.08,4.08,0,0,1,24,43.6a2.36,2.36,0,0,1-3.65,0H20.2l-.3.72H18.54V35.25h1.79v2.12q0,.4-.07,1.29h.07A2.07,2.07,0,0,1,22.19,37.7Zm-.58,1.43a1.13,1.13,0,0,0-1,.41,2.33,2.33,0,0,0-.32,1.34v.19a2.76,2.76,0,0,0,.31,1.51,1.12,1.12,0,0,0,1,.46,1,1,0,0,0,.88-.51,2.75,2.75,0,0,0,.33-1.47,2.6,2.6,0,0,0-.33-1.45A1,1,0,0,0,21.61,39.13Z"/><path class="a43dc8b1-016a-495d-ac9e-2412be3992fd" d="M32.18,44.39H30.39V40.56a1.85,1.85,0,0,0-.25-1.06.92.92,0,0,0-.8-.35,1.2,1.2,0,0,0-1.08.5,3.1,3.1,0,0,0-.34,1.66v3.08H26.13V37.83H27.5l.24.84h.1a1.88,1.88,0,0,1,.82-.72,2.82,2.82,0,0,1,1.19-.24,2.3,2.3,0,0,1,1.73.62,2.48,2.48,0,0,1,.59,1.79Z"/><path class="a43dc8b1-016a-495d-ac9e-2412be3992fd" d="M38.18,44.39l-.34-.89h0a2.66,2.66,0,0,1-.93.79,3,3,0,0,1-1.25.22A2,2,0,0,1,34.12,44a2.07,2.07,0,0,1-.54-1.54,1.72,1.72,0,0,1,.73-1.54,4.23,4.23,0,0,1,2.2-.55l1.14,0V40a.89.89,0,0,0-1-1,4.67,4.67,0,0,0-1.85.47l-.59-1.21a5.32,5.32,0,0,1,2.51-.59,3.12,3.12,0,0,1,2,.58,2.12,2.12,0,0,1,.7,1.75v4.37Zm-.52-3-.69,0a2.23,2.23,0,0,0-1.16.28.89.89,0,0,0-.38.79q0,.76.87.76a1.37,1.37,0,0,0,1-.36,1.25,1.25,0,0,0,.37-.95Z"/><polyline class="29dc99e2-6553-4864-a80f-2db19de3894f" points="48.91 58.28 48.88 67.74 39.16 67.84"/></g></g></svg>