<svg xmlns="http://www.w3.org/2000/svg" width="181.33" height="189.34" viewBox="0 0 181.33 189.34"><defs><style>.\39 b095784-5ea7-4b19-aac6-d7d982ecf7ec{fill:#e1ebf7;opacity:0.3;}.ac685d4f-8b12-4fc8-910e-f8ec83903eb0{fill:#b0bef3;}.\33 2f4c82c-e70e-4663-98db-4f515071f9d0,.\33 5e2aa78-525a-44b7-9d6f-c78f22c0da11,.\36 b1561e0-5728-4fc2-8d15-f92e90bc58d7{fill:#fff;}.\33 2f4c82c-e70e-4663-98db-4f515071f9d0,.e3622db6-ac69-44b3-a6d3-c4d52faff982{stroke:#b0bef3;}.\33 2f4c82c-e70e-4663-98db-4f515071f9d0,.\33 5e2aa78-525a-44b7-9d6f-c78f22c0da11,.\35 f32250c-4dd4-4d71-b30c-10baee4c5a9a,.e3622db6-ac69-44b3-a6d3-c4d52faff982,.ead7e67d-b359-442b-8bdd-33f2e003eff4{stroke-linecap:round;}.\33 2f4c82c-e70e-4663-98db-4f515071f9d0,.\33 5e2aa78-525a-44b7-9d6f-c78f22c0da11,.\35 f32250c-4dd4-4d71-b30c-10baee4c5a9a,.\36 b1561e0-5728-4fc2-8d15-f92e90bc58d7,.e3622db6-ac69-44b3-a6d3-c4d52faff982{stroke-linejoin:round;stroke-width:2px;}.\36 b1561e0-5728-4fc2-8d15-f92e90bc58d7{stroke:#2e3f8f;}.\35 f32250c-4dd4-4d71-b30c-10baee4c5a9a,.e3622db6-ac69-44b3-a6d3-c4d52faff982,.ead7e67d-b359-442b-8bdd-33f2e003eff4{fill:none;}.ead7e67d-b359-442b-8bdd-33f2e003eff4{stroke:#ffb000;stroke-miterlimit:10;stroke-width:3px;}.\33 5e2aa78-525a-44b7-9d6f-c78f22c0da11,.\35 f32250c-4dd4-4d71-b30c-10baee4c5a9a{stroke:#d1d7f4;}.b7e838a6-c2b9-413d-b707-48788ab5dc14{fill:#2e3f8f;}</style></defs><title>card_upload</title><g id="b9ae2d8e-0e6f-4f82-aaec-2b73310340d7" data-name="Layer 2"><g id="3773381a-0ef5-4ac0-aaac-3b01a93e8f90" data-name="Layer 1"><path class="9b095784-5ea7-4b19-aac6-d7d982ecf7ec" d="M32.22,153.83a18.17,18.17,0,0,1,11,3.66v.06a19.73,19.73,0,0,1,37.91,3l.37-1.08a19.75,19.75,0,0,1,19.74,19.62h10.26s0-.09,0-.13a8.11,8.11,0,0,1,15.27-3.83,15.41,15.41,0,0,1,30.42-3.06,90.66,90.66,0,1,0-140.59-9.35A18.22,18.22,0,0,1,32.22,153.83Z"/><path class="9b095784-5ea7-4b19-aac6-d7d982ecf7ec" d="M149.91,179.09h-.41v.34Z"/><circle class="ac685d4f-8b12-4fc8-910e-f8ec83903eb0" cx="133.67" cy="54.4" r="1.83"/><circle class="ac685d4f-8b12-4fc8-910e-f8ec83903eb0" cx="143.98" cy="94.23" r="1.83"/><circle class="ac685d4f-8b12-4fc8-910e-f8ec83903eb0" cx="53.05" cy="120.92" r="1.83"/><polygon class="32f4c82c-e70e-4663-98db-4f515071f9d0" points="30.73 82.88 20.67 91.83 33.45 96.07 30.73 82.88"/><polygon class="6b1561e0-5728-4fc2-8d15-f92e90bc58d7" points="118.64 126.66 66.45 133.47 59.46 79.99 76.72 77.73 74.44 60.27 109.38 55.71 118.64 126.66"/><polygon class="6b1561e0-5728-4fc2-8d15-f92e90bc58d7" points="74.44 60.27 76.69 77.53 59.44 79.78 74.44 60.27"/><line class="ead7e67d-b359-442b-8bdd-33f2e003eff4" x1="88.92" y1="16.35" x2="93.93" y2="51.86"/><line class="ead7e67d-b359-442b-8bdd-33f2e003eff4" x1="86.83" y1="1.5" x2="88.07" y2="10.27"/><line class="ead7e67d-b359-442b-8bdd-33f2e003eff4" x1="61.39" y1="29.54" x2="63.15" y2="42.06"/><line class="ead7e67d-b359-442b-8bdd-33f2e003eff4" x1="60.09" y1="20.35" x2="60.53" y2="23.44"/><line class="ead7e67d-b359-442b-8bdd-33f2e003eff4" x1="101.14" y1="38.53" x2="104.74" y2="64.06"/><line class="ead7e67d-b359-442b-8bdd-33f2e003eff4" x1="99.45" y1="26.57" x2="100.33" y2="32.83"/><path class="e3622db6-ac69-44b3-a6d3-c4d52faff982" d="M42.61,169.34a19.75,19.75,0,1,1,32.09,9.88"/><path class="e3622db6-ac69-44b3-a6d3-c4d52faff982" d="M44.21,173.48q-.39-.74-.71-1.51"/><path class="e3622db6-ac69-44b3-a6d3-c4d52faff982" d="M14.18,174.84a18.27,18.27,0,0,1,18-21,18.17,18.17,0,0,1,11,3.66"/><path class="e3622db6-ac69-44b3-a6d3-c4d52faff982" d="M126.73,175.07a7.51,7.51,0,0,0-7.13-4.23,8.12,8.12,0,0,0-8.12,8.13q0,.13,0,.26H101.22c0-10.91-9.46-19.75-20.36-19.75"/><path class="e3622db6-ac69-44b3-a6d3-c4d52faff982" d="M157.17,179.09a15.43,15.43,0,1,0-30,0"/><line class="e3622db6-ac69-44b3-a6d3-c4d52faff982" x1="127.67" y1="138.04" x2="136" y2="145.95"/><path class="5f32250c-4dd4-4d71-b30c-10baee4c5a9a" d="M72.68,174.84a15.39,15.39,0,0,0,.63-20"/><path class="5f32250c-4dd4-4d71-b30c-10baee4c5a9a" d="M135.52,186.32a11.86,11.86,0,0,0,14-19.15"/><path class="5f32250c-4dd4-4d71-b30c-10baee4c5a9a" d="M37.66,159.39a24.72,24.72,0,0,0,1,13.34"/><polyline class="35e2aa78-525a-44b7-9d6f-c78f22c0da11" points="112.08 113.09 113.29 122.47 103.67 123.84"/><path class="b7e838a6-c2b9-413d-b707-48788ab5dc14" d="M73.86,103.06a1,1,0,0,1,.17-.77,1.07,1.07,0,0,1,.73-.34,1,1,0,0,1,.78.16,1.14,1.14,0,0,1,.18,1.46,1,1,0,0,1-.71.36,1,1,0,0,1-.79-.17A1,1,0,0,1,73.86,103.06Z"/><path class="b7e838a6-c2b9-413d-b707-48788ab5dc14" d="M80.26,103.23q-3,.37-3.45-3a3.58,3.58,0,0,1,.52-2.63,3.12,3.12,0,0,1,2.26-1.17,4.53,4.53,0,0,1,2.08.19l-.35,1.44c-.29-.08-.56-.14-.81-.18a2.47,2.47,0,0,0-.73,0q-1.39.17-1.14,2.14t1.62,1.74a3.2,3.2,0,0,0,.93-.25A3.51,3.51,0,0,0,82,101l.19,1.52a2.88,2.88,0,0,1-.82.48A4.88,4.88,0,0,1,80.26,103.23Z"/><path class="b7e838a6-c2b9-413d-b707-48788ab5dc14" d="M87.86,102.18l-.45-.84h0a2.65,2.65,0,0,1-.83.9,3,3,0,0,1-1.21.37,2,2,0,0,1-1.54-.35,2.07,2.07,0,0,1-.72-1.46,1.73,1.73,0,0,1,.54-1.62,4.23,4.23,0,0,1,2.12-.81l1.13-.17,0-.29A.89.89,0,0,0,85.67,97a4.64,4.64,0,0,0-1.77.7l-.73-1.13a5.31,5.31,0,0,1,2.42-.89,3.13,3.13,0,0,1,2.08.32,2.12,2.12,0,0,1,.91,1.65L89.1,102ZM87,99.23l-.68.11a2.21,2.21,0,0,0-1.12.42.88.88,0,0,0-.28.83q.09.75,1,.64a1.37,1.37,0,0,0,.94-.48,1.26,1.26,0,0,0,.25-1Z"/><path class="b7e838a6-c2b9-413d-b707-48788ab5dc14" d="M93.74,94.73a2.81,2.81,0,0,1,.6,0l.07,1.68a2.07,2.07,0,0,0-.53,0,1.9,1.9,0,0,0-1.27.6,1.59,1.59,0,0,0-.32,1.28l.41,3.31-1.77.22-.8-6.5,1.34-.17.4,1.06H92a2.47,2.47,0,0,1,.71-1A2,2,0,0,1,93.74,94.73Z"/><path class="b7e838a6-c2b9-413d-b707-48788ab5dc14" d="M98.41,101a2.13,2.13,0,0,1-1.91-.67,5,5,0,0,1-.6-5,2.18,2.18,0,0,1,1.73-1.12,2.14,2.14,0,0,1,2,.72h.06a7.24,7.24,0,0,1-.29-1.28l-.26-2.08,1.78-.22,1.11,9-1.36.17-.45-.8h-.08A2,2,0,0,1,98.41,101Zm.45-1.49A1.21,1.21,0,0,0,99.8,99a2.32,2.32,0,0,0,.18-1.39l0-.19A2.69,2.69,0,0,0,99.45,96a1.21,1.21,0,0,0-1.11-.33,1.05,1.05,0,0,0-.86.62,2.71,2.71,0,0,0-.15,1.5,2.57,2.57,0,0,0,.51,1.4A1.09,1.09,0,0,0,98.85,99.51Z"/></g></g></svg>