<svg xmlns="http://www.w3.org/2000/svg" width="54.72" height="73.59" viewBox="0 0 54.72 73.59"><defs><style>.\33 5601259-0c43-4b4b-acb2-9ede56af223a,.dc5057cc-dc37-4fce-8a0e-c1df39e2e584{fill:#fff;stroke-linejoin:round;stroke-width:2px;}.\33 5601259-0c43-4b4b-acb2-9ede56af223a{stroke:#2e3f8f;}.dc5057cc-dc37-4fce-8a0e-c1df39e2e584{stroke:#d1d7f4;stroke-linecap:round;}.dfe86197-7624-42f6-aec0-1fc6cf237bd2{fill:#2e3f8f;}</style></defs><title>Asset 13</title><g id="1cf6689b-9496-4f30-b581-311830441f8a" data-name="Layer 2"><g id="9576e310-4d25-4745-9dd4-734d205b16f0" data-name="Layer 1"><polygon class="35601259-0c43-4b4b-acb2-9ede56af223a" points="53.64 72.59 1 72.53 1.06 18.59 18.46 18.61 18.48 1 53.72 1.04 53.64 72.59"/><polygon class="35601259-0c43-4b4b-acb2-9ede56af223a" points="18.48 1 18.46 18.4 1.06 18.39 18.48 1"/><polyline class="dc5057cc-dc37-4fce-8a0e-c1df39e2e584" points="48.91 58.28 48.88 67.74 39.16 67.84"/><path class="dfe86197-7624-42f6-aec0-1fc6cf237bd2" d="M16.27,43.76a1,1,0,0,1,.26-.74,1.07,1.07,0,0,1,.77-.25,1,1,0,0,1,.75.26,1.14,1.14,0,0,1,0,1.47,1,1,0,0,1-.75.27,1.05,1.05,0,0,1-.76-.26A1,1,0,0,1,16.27,43.76Z"/><path class="dfe86197-7624-42f6-aec0-1fc6cf237bd2" d="M22.6,44.71q-3.06,0-3.06-3.36a3.58,3.58,0,0,1,.83-2.55,3.12,3.12,0,0,1,2.38-.88,4.55,4.55,0,0,1,2,.45l-.53,1.38q-.42-.17-.79-.28a2.53,2.53,0,0,0-.73-.11q-1.39,0-1.39,2t1.39,1.92a3.18,3.18,0,0,0,1-.14,3.45,3.45,0,0,0,.88-.43v1.53a2.88,2.88,0,0,1-.88.38A4.93,4.93,0,0,1,22.6,44.71Z"/><path class="dfe86197-7624-42f6-aec0-1fc6cf237bd2" d="M28.87,43.29A3.87,3.87,0,0,0,30,43.08v1.33a4,4,0,0,1-1.64.3,2,2,0,0,1-1.56-.54,2.36,2.36,0,0,1-.49-1.63V39.39h-.86v-.76l1-.6L27,36.65h1.14V38h1.83v1.34H28.09v3.16a.7.7,0,0,0,.21.56A.84.84,0,0,0,28.87,43.29Z"/><path class="dfe86197-7624-42f6-aec0-1fc6cf237bd2" d="M37.28,41.31a3.52,3.52,0,0,1-.84,2.5,3.06,3.06,0,0,1-2.35.9,3.29,3.29,0,0,1-1.66-.41,2.75,2.75,0,0,1-1.11-1.19,4,4,0,0,1-.39-1.8,3.5,3.5,0,0,1,.84-2.5,3.08,3.08,0,0,1,2.36-.89,3.31,3.31,0,0,1,1.66.41,2.74,2.74,0,0,1,1.11,1.18A4,4,0,0,1,37.28,41.31Zm-4.53,0a2.75,2.75,0,0,0,.32,1.47,1.14,1.14,0,0,0,1,.5,1.12,1.12,0,0,0,1-.5,2.79,2.79,0,0,0,.31-1.47,2.71,2.71,0,0,0-.32-1.46,1.35,1.35,0,0,0-2.07,0A2.7,2.7,0,0,0,32.75,41.31Z"/></g></g></svg>