<svg xmlns="http://www.w3.org/2000/svg" viewBox="0 0 110.5 35.59"><defs><style>.cls-1{fill:#f1f3f7;}.cls-2,.cls-3{fill:none;stroke:#3f55af;stroke-linecap:round;stroke-linejoin:round;}.cls-2{stroke-width:3px;}.cls-3{stroke-width:2px;}</style></defs><title>9</title><g id="Layer_2" data-name="Layer 2"><g id="Layer_1-2" data-name="Layer 1"><line class="cls-1" x1="13.58" y1="20.15" x2="21.51" y2="20.15"/><line class="cls-1" x1="53.58" y1="20.15" x2="61.51" y2="20.15"/><line class="cls-1" x1="93.58" y1="20.15" x2="101.51" y2="20.15"/><rect class="cls-1" x="21.82" y="4.57" width="31.02" height="31.02"/><rect class="cls-1" x="62.15" y="4.57" width="31.02" height="31.02"/><polyline class="cls-1" points="4.5 4.5 12.51 4.5 12.51 35.52 4.5 35.52"/><polyline class="cls-1" points="110.5 35.59 102.49 35.59 102.49 4.57 110.5 4.57"/><rect class="cls-1" x="72.28" y="17.53" width="10.77" height="10.77"/><path class="cls-1" d="M74.55,17V15a3.12,3.12,0,0,1,3.12-3.12h0A3.12,3.12,0,0,1,80.78,15V17"/><rect class="cls-1" x="31.95" y="17.53" width="10.77" height="10.77"/><path class="cls-1" d="M34.22,17V15a3.12,3.12,0,0,1,3.12-3.12h0A3.12,3.12,0,0,1,40.45,15V17"/><line class="cls-2" x1="10.58" y1="17.15" x2="18.51" y2="17.15"/><line class="cls-2" x1="50.58" y1="17.15" x2="58.51" y2="17.15"/><line class="cls-2" x1="90.58" y1="17.15" x2="98.51" y2="17.15"/><polyline class="cls-2" points="38.88 32.59 18.82 32.59 18.82 1.56 49.84 1.56 49.84 32.59 43.55 32.59"/><polyline class="cls-2" points="90.18 26.53 90.18 32.59 84.38 32.59"/><polyline class="cls-2" points="71.55 32.59 59.15 32.59 59.15 1.56 90.18 1.56 90.18 22.2"/><line class="cls-2" x1="79.38" y1="32.59" x2="76.67" y2="32.59"/><polyline class="cls-2" points="1.5 1.5 9.51 1.5 9.51 32.52 1.5 32.52"/><polyline class="cls-2" points="102.49 32.59 99.49 32.59 99.49 1.56 107.5 1.56"/><line class="cls-2" x1="107.5" y1="32.59" x2="106.49" y2="32.59"/><rect class="cls-3" x="69.28" y="14.53" width="10.77" height="10.77"/><path class="cls-3" d="M71.55,14V12a3.12,3.12,0,0,1,3.12-3.12h0A3.12,3.12,0,0,1,77.78,12V14"/><rect class="cls-3" x="28.95" y="14.53" width="10.77" height="10.77"/><path class="cls-3" d="M31.22,14V12a3.12,3.12,0,0,1,3.12-3.12h0A3.12,3.12,0,0,1,37.45,12V14"/></g></g></svg>