<svg xmlns="http://www.w3.org/2000/svg" viewBox="0 0 110.5 35.59" style=""><defs><style>.cls-1{fill:#f1f3f7;}.cls-2,.cls-3{fill:none;stroke:#3f55af;stroke-linecap:round;stroke-linejoin:round;}.cls-2{stroke-width:3px;}.cls-3{stroke-width:2px;}</style></defs><title>9</title><g id="Layer_2" data-name="Layer 2"><g id="Layer_1-2" data-name="Layer 1"><path class="cls-1 QrFSDLtL_0" d="M13.58,20.15L21.51,20.15"></path><path class="cls-1 QrFSDLtL_1" d="M53.58,20.15L61.51,20.15"></path><path class="cls-1 QrFSDLtL_2" d="M93.58,20.15L101.51,20.15"></path><path class="cls-1 QrFSDLtL_3" width="31.02" height="31.02" d="M21.82 4.57 L52.84 4.57 L52.84 35.59 L21.82 35.59 Z"></path><path class="cls-1 QrFSDLtL_4" width="31.02" height="31.02" d="M62.15 4.57 L93.17 4.57 L93.17 35.59 L62.15 35.59 Z"></path><path class="cls-1 QrFSDLtL_5" d="M4.5,4.5L12.51,4.5L12.51,35.52L4.5,35.52"></path><path class="cls-1 QrFSDLtL_6" d="M110.5,35.59L102.49,35.59L102.49,4.57L110.5,4.57"></path><path class="cls-1 QrFSDLtL_7" width="10.77" height="10.77" d="M72.28 17.53 L83.05 17.53 L83.05 28.3 L72.28 28.3 Z"></path><path class="cls-1 QrFSDLtL_8" d="M74.55,17V15a3.12,3.12,0,0,1,3.12-3.12h0A3.12,3.12,0,0,1,80.78,15V17"></path><path class="cls-1 QrFSDLtL_9" width="10.77" height="10.77" d="M31.95 17.53 L42.72 17.53 L42.72 28.3 L31.95 28.3 Z"></path><path class="cls-1 QrFSDLtL_10" d="M34.22,17V15a3.12,3.12,0,0,1,3.12-3.12h0A3.12,3.12,0,0,1,40.45,15V17"></path><path class="cls-2 QrFSDLtL_11" d="M10.58,17.15L18.51,17.15"></path><path class="cls-2 QrFSDLtL_12" d="M50.58,17.15L58.51,17.15"></path><path class="cls-2 QrFSDLtL_13" d="M90.58,17.15L98.51,17.15"></path><path class="cls-2 QrFSDLtL_14" d="M38.88,32.59L18.82,32.59L18.82,1.56L49.84,1.56L49.84,32.59L43.55,32.59"></path><path class="cls-2 QrFSDLtL_15" d="M90.18,26.53L90.18,32.59L84.38,32.59"></path><path class="cls-2 QrFSDLtL_16" d="M71.55,32.59L59.15,32.59L59.15,1.56L90.18,1.56L90.18,22.2"></path><path class="cls-2 QrFSDLtL_17" d="M79.38,32.59L76.67,32.59"></path><path class="cls-2 QrFSDLtL_18" d="M1.5,1.5L9.51,1.5L9.51,32.52L1.5,32.52"></path><path class="cls-2 QrFSDLtL_19" d="M102.49,32.59L99.49,32.59L99.49,1.56L107.5,1.56"></path><path class="cls-2 QrFSDLtL_20" d="M107.5,32.59L106.49,32.59"></path><path class="cls-3 QrFSDLtL_21" width="10.77" height="10.77" d="M69.28 14.53 L80.05 14.53 L80.05 25.299999999999997 L69.28 25.299999999999997 Z"></path><path class="cls-3 QrFSDLtL_22" d="M71.55,14V12a3.12,3.12,0,0,1,3.12-3.12h0A3.12,3.12,0,0,1,77.78,12V14"></path><path class="cls-3 QrFSDLtL_23" width="10.77" height="10.77" d="M28.95 14.53 L39.72 14.53 L39.72 25.299999999999997 L28.95 25.299999999999997 Z"></path><path class="cls-3 QrFSDLtL_24" d="M31.22,14V12a3.12,3.12,0,0,1,3.12-3.12h0A3.12,3.12,0,0,1,37.45,12V14"></path></g></g><style>.QrFSDLtL_0{stroke-dasharray:8 10;stroke-dashoffset:9;animation:QrFSDLtL_draw 2666ms ease-in-out 0ms forwards;}.QrFSDLtL_1{stroke-dasharray:8 10;stroke-dashoffset:9;animation:QrFSDLtL_draw 2666ms ease-in-out 55ms forwards;}.QrFSDLtL_2{stroke-dasharray:8 10;stroke-dashoffset:9;animation:QrFSDLtL_draw 2666ms ease-in-out 111ms forwards;}.QrFSDLtL_3{stroke-dasharray:125 127;stroke-dashoffset:126;animation:QrFSDLtL_draw 2666ms ease-in-out 166ms forwards;}.QrFSDLtL_4{stroke-dasharray:125 127;stroke-dashoffset:126;animation:QrFSDLtL_draw 2666ms ease-in-out 222ms forwards;}.QrFSDLtL_5{stroke-dasharray:48 50;stroke-dashoffset:49;animation:QrFSDLtL_draw 2666ms ease-in-out 277ms forwards;}.QrFSDLtL_6{stroke-dasharray:48 50;stroke-dashoffset:49;animation:QrFSDLtL_draw 2666ms ease-in-out 333ms forwards;}.QrFSDLtL_7{stroke-dasharray:44 46;stroke-dashoffset:45;animation:QrFSDLtL_draw 2666ms ease-in-out 388ms forwards;}.QrFSDLtL_8{stroke-dasharray:14 16;stroke-dashoffset:15;animation:QrFSDLtL_draw 2666ms ease-in-out 444ms forwards;}.QrFSDLtL_9{stroke-dasharray:44 46;stroke-dashoffset:45;animation:QrFSDLtL_draw 2666ms ease-in-out 499ms forwards;}.QrFSDLtL_10{stroke-dasharray:14 16;stroke-dashoffset:15;animation:QrFSDLtL_draw 2666ms ease-in-out 555ms forwards;}.QrFSDLtL_11{stroke-dasharray:8 10;stroke-dashoffset:9;animation:QrFSDLtL_draw 2666ms ease-in-out 611ms forwards;}.QrFSDLtL_12{stroke-dasharray:8 10;stroke-dashoffset:9;animation:QrFSDLtL_draw 2666ms ease-in-out 666ms forwards;}.QrFSDLtL_13{stroke-dasharray:8 10;stroke-dashoffset:9;animation:QrFSDLtL_draw 2666ms ease-in-out 722ms forwards;}.QrFSDLtL_14{stroke-dasharray:120 122;stroke-dashoffset:121;animation:QrFSDLtL_draw 2666ms ease-in-out 777ms forwards;}.QrFSDLtL_15{stroke-dasharray:12 14;stroke-dashoffset:13;animation:QrFSDLtL_draw 2666ms ease-in-out 833ms forwards;}.QrFSDLtL_16{stroke-dasharray:96 98;stroke-dashoffset:97;animation:QrFSDLtL_draw 2666ms ease-in-out 888ms forwards;}.QrFSDLtL_17{stroke-dasharray:3 5;stroke-dashoffset:4;animation:QrFSDLtL_draw 2666ms ease-in-out 944ms forwards;}.QrFSDLtL_18{stroke-dasharray:48 50;stroke-dashoffset:49;animation:QrFSDLtL_draw 2666ms ease-in-out 999ms forwards;}.QrFSDLtL_19{stroke-dasharray:43 45;stroke-dashoffset:44;animation:QrFSDLtL_draw 2666ms ease-in-out 1055ms forwards;}.QrFSDLtL_20{stroke-dasharray:2 4;stroke-dashoffset:3;animation:QrFSDLtL_draw 2666ms ease-in-out 1111ms forwards;}.QrFSDLtL_21{stroke-dasharray:44 46;stroke-dashoffset:45;animation:QrFSDLtL_draw 2666ms ease-in-out 1166ms forwards;}.QrFSDLtL_22{stroke-dasharray:14 16;stroke-dashoffset:15;animation:QrFSDLtL_draw 2666ms ease-in-out 1222ms forwards;}.QrFSDLtL_23{stroke-dasharray:44 46;stroke-dashoffset:45;animation:QrFSDLtL_draw 2666ms ease-in-out 1277ms forwards;}.QrFSDLtL_24{stroke-dasharray:14 16;stroke-dashoffset:15;animation:QrFSDLtL_draw 2666ms ease-in-out 1333ms forwards;}@keyframes QrFSDLtL_draw{100%{stroke-dashoffset:0;}}@keyframes QrFSDLtL_fade{0%{stroke-opacity:1;}95.1219512195122%{stroke-opacity:1;}100%{stroke-opacity:0;}}</style></svg>