<svg xmlns="http://www.w3.org/2000/svg" viewBox="0 0 151.34 124.63"><defs><style>.cls-1{fill:#fff;}.cls-2{fill:#b0bce1;}.cls-3{fill:#d2d7ee;}</style></defs><title>Emptiness</title><g id="Layer_2" data-name="Layer 2"><polygon class="cls-1" points="128.52 124.63 21.44 124.63 23.44 101.63 126.52 101.63 128.52 124.63"/><polygon class="cls-1" points="27.54 90.3 10.16 90.3 12.1 81.3 25.6 81.3 27.54 90.3"/></g><g id="Layer_1" data-name="Layer 1"><path class="cls-2" d="M60.5,26.86A25.43,25.43,0,0,0,51.57,37c-.42.86.87,1.62,1.3.76a24,24,0,0,1,8.39-9.56c.8-.53.05-1.83-.76-1.3Z"/><path class="cls-2" d="M57.31,29.17a5.19,5.19,0,0,1-.4-2.12.75.75,0,0,0-1.5,0A7,7,0,0,0,56,29.93a.76.76,0,0,0,1,.27.77.77,0,0,0,.27-1Z"/><path class="cls-2" d="M52.63,33.85l-1.54-4c-.34-.89-1.8-.5-1.45.4l1.54,4c.34.89,1.8.5,1.45-.4Z"/><path class="cls-2" d="M63.21,23.78a5.47,5.47,0,0,1,3.09,2.38c.51.82,1.8.07,1.3-.76a7.06,7.06,0,0,0-4-3.07c-.93-.28-1.32,1.16-.4,1.45Z"/><path class="cls-2" d="M67.17,25.23a91.53,91.53,0,0,0,10.74.35.75.75,0,0,0,0-1.5,91.53,91.53,0,0,1-10.74-.35c-1-.09-1,1.41,0,1.5Z"/><path class="cls-2" d="M83.33,28.85l.66.33.58-1.37a3.59,3.59,0,0,1-2.24-4.16,18.82,18.82,0,0,1,.29-3c.66-1.67,3.13-.4,4.29-.08L91,21.71a.75.75,0,0,0,.4-1.45c-2.46-.69-5.19-1.89-7.74-2.08a2.16,2.16,0,0,0-2.46,1.9c-.19,1-.1,2.12-.29,3.17a5.62,5.62,0,0,0,0,2.61,5.19,5.19,0,0,0,3.27,3.4c.79.3,1.33-1,.58-1.37l-.66-.33c-.86-.43-1.62.86-.76,1.3Z"/><path class="cls-2" d="M81.66,22.78a9.5,9.5,0,0,1-3.06-.13c-.94-.2-1.34,1.25-.4,1.45a10.75,10.75,0,0,0,3.46.18c.95-.11,1-1.61,0-1.5Z"/><path class="cls-2" d="M53.15,46.86c-.33,3.65,2.83,6,6.17,6.29,1.47.15,3.05.18,4-1.06,1.17-1.47,1.8-3.79,2.42-5.53.32-.91-1.13-1.3-1.45-.4-.79,2.23-1.43,5.46-4.28,5.54s-5.68-1.82-5.4-4.84c.09-1-1.41-1-1.5,0Z"/><path class="cls-2" d="M57.21,54.15c.8,4.84,2,12.79,8,13.73.94.15,1.35-1.3.4-1.45-5.25-.83-6.25-8.42-7-12.68-.16-1-1.6-.55-1.45.4Z"/><path class="cls-2" d="M49.16,65.45c3.78,4.19,5.17,11,11.35,12.44.94.22,1.34-1.22.4-1.45-5.69-1.35-7.17-8.15-10.68-12.05-.65-.72-1.71.35-1.06,1.06Z"/><path class="cls-2" d="M59.5,70c-.2,4.27-4.37,10.25.57,13.43.81.52,1.57-.77.76-1.3-3.93-2.52,0-8.69.17-12.13,0-1-1.45-1-1.5,0Z"/><path class="cls-2" d="M52.86,76.71a8.92,8.92,0,0,0,1-4.16.75.75,0,0,0-1.5,0,7.25,7.25,0,0,1-.83,3.4c-.45.85.85,1.61,1.3.76Z"/><path class="cls-2" d="M72.55,75.1c1.51,1.32,3.4,2.91,3.25,5.12s-3.65,3.45-5.52,2.45c-.85-.46-1.61.84-.76,1.3,2.24,1.2,6.18.37,7.37-2,1.56-3.12-1.11-6-3.28-7.89-.72-.63-1.79.42-1.06,1.06Z"/><path class="cls-2" d="M75.9,83.33A43.07,43.07,0,0,0,84,82c3.14-.86,6.08-2.45,9.37-2.72,1-.08,1-1.58,0-1.5a30.57,30.57,0,0,0-7.39,2,40.58,40.58,0,0,1-10.12,2c-1,.07-1,1.57,0,1.5Z"/><path class="cls-2" d="M91.52,72.86l-.67,3.49c-.15.8-.5,1.84.06,2.57A2.94,2.94,0,0,0,93,79.7a19.46,19.46,0,0,0,3.88.07c1-.07,1-1.57,0-1.5s-4.32.44-4.73-.43c-.23-.49.23-1.66.33-2.18l.46-2.4c.18-.94-1.26-1.35-1.45-.4Z"/><path class="cls-2" d="M82.39,79.66a3.77,3.77,0,0,1,3.2,1.2c.66.71,1.72-.36,1.06-1.06a5.21,5.21,0,0,0-4.26-1.64c-1,.08-1,1.59,0,1.5Z"/><path class="cls-2" d="M86.3,81.63l-1.67,6.71a.75.75,0,0,0,1.45.4L87.75,82a.75.75,0,0,0-1.45-.4Z"/><path class="cls-2" d="M98.9,76.3c1.85-1.67,4.89-3.38,4.39-6.35-.32-1.87-2.59-3.22-4.24-2-.76.57,0,1.87.76,1.3a1.21,1.21,0,0,1,1.79.43,2.43,2.43,0,0,1-.38,2.51c-.84,1.25-2.29,2.05-3.39,3-.72.65.34,1.7,1.06,1.06Z"/><path class="cls-2" d="M99.66,71.56a21.6,21.6,0,0,0-5,.26c-1,.16-.55,1.6.4,1.45a19.9,19.9,0,0,1,4.55-.2c1,.06,1-1.44,0-1.5Z"/><path class="cls-2" d="M99.95,74.75a10.7,10.7,0,0,1,.2,3.3c-.08,1,1.42,1,1.5,0a12,12,0,0,0-.26-3.7c-.21-.94-1.66-.54-1.45.4Z"/><path class="cls-2" d="M103.6,68a32.33,32.33,0,0,0,3.65-21.38c-.16-.95-1.6-.55-1.45.4a30.64,30.64,0,0,1-3.5,20.22c-.47.85.83,1.6,1.3.76Z"/><path class="cls-2" d="M105.28,58.91l-5.75,2.75c-.87.42-.11,1.71.76,1.3L106,60.2c.87-.42.11-1.71-.76-1.3Z"/><path class="cls-2" d="M106,59.21l.09-.13-.45.34a12.51,12.51,0,0,1,2.09,1.19l2.5,1.4a.75.75,0,0,0,.76-1.3l-4.1-2.3c-.75-.42-1.58-.83-2.18,0s.74,1.54,1.3.76Z"/><path class="cls-2" d="M106.62,51.58l2.9,2.13c.78.57,1.53-.73.76-1.3l-2.9-2.13c-.78-.57-1.53.73-.76,1.3Z"/><path class="cls-2" d="M100.58,46.69c2.18-.85,5.9-2.07,6.76-4.54.7-2-.82-5.06-2.72-5.86-.89-.37-1.28,1.08-.4,1.45.64.27,1.06,1.21,1.34,1.8a2.56,2.56,0,0,1-1,3.5,22.21,22.21,0,0,1-4.41,2.2c-.89.35-.5,1.8.4,1.45Z"/><path class="cls-2" d="M100,41.08c-.6-2.16-2.46-6.17-.52-8,2.64-2.5,5.55,1.08,6.12,3.45.22.94,1.67.54,1.45-.4-.78-3.27-3.73-6.35-7.32-4.92-4.28,1.71-2,7.14-1.17,10.28a.75.75,0,0,0,1.45-.4Z"/><path class="cls-2" d="M100.23,33.85A15.93,15.93,0,0,0,88.57,24.8c-.94-.17-1.35,1.27-.4,1.45a14.55,14.55,0,0,1,10.76,8.37c.41.87,1.7.11,1.3-.76Z"/><path class="cls-2" d="M94.09,27.95l3.78-.85c.94-.21.54-1.66-.4-1.45l-3.78.85c-.94.21-.54,1.66.4,1.45Z"/><path class="cls-2" d="M95.09,29.73a7.65,7.65,0,0,1-2.56,2.17c-.85.46-.09,1.75.76,1.3a9.33,9.33,0,0,0,3.1-2.71c.58-.77-.72-1.52-1.3-.76Z"/><path class="cls-2" d="M89.21,29.82l-1.42,2.93q-.66.27-1.31.57a9.39,9.39,0,0,0-1.56.92,7.41,7.41,0,0,0-2,2.25,10.57,10.57,0,0,0-1.07,3.34,9.85,9.85,0,0,1-.33,1.92q.1,1.44-1.43,1.16a1.53,1.53,0,0,1-2-.27.75.75,0,0,0-.76,1.3c1.25.76,3.36,2.07,4.68.8,2.07-2,.88-6.1,2.87-8.42,1.42-1.66,9.75-4.38,5.14-7.78-.78-.57-1.53.73-.76,1.3Z"/><path class="cls-2" d="M85.25,36.94a40.84,40.84,0,0,1,7.69,9.77.75.75,0,0,0,1.3-.76,42.17,42.17,0,0,0-7.92-10.08c-.7-.66-1.77.4-1.06,1.06Z"/><path class="cls-2" d="M93.62,37.79a8.76,8.76,0,0,0-5.16.29c-.9.33-.51,1.79.4,1.45a7.33,7.33,0,0,1,4.36-.29c.94.22,1.34-1.22.4-1.45Z"/><path class="cls-2" d="M86.21,39a19.5,19.5,0,0,0-1.74,11.76c.15,1,1.59.55,1.45-.4a17.72,17.72,0,0,1,1.59-10.61c.42-.87-.87-1.63-1.3-.76Z"/><path class="cls-2" d="M88.76,54.05a2.88,2.88,0,0,1,1.82-2.29c.59-.29,2.08-.95,2.69-.51s.49,1.33.6,1.84a4,4,0,0,0,.66,1.57c.56.78,1.86,0,1.3-.76-.7-1-.49-2.26-1.14-3.26a2.24,2.24,0,0,0-2.46-1c-2.39.38-4.74,1.79-5,4.38-.08,1,1.42,1,1.5,0Z"/><path class="cls-2" d="M91.61,50.05c-.37-2.48,2.5-7,4.86-3.83a37.47,37.47,0,0,1,3.51,6c.43.87,1.72.11,1.3-.76a42.25,42.25,0,0,0-3.51-6c-.86-1.19-1.86-2.11-3.42-1.83-3.09.56-4.61,4-4.18,6.82.14,1,1.59.55,1.45-.4Z"/><path class="cls-2" d="M103,52.48a19.4,19.4,0,0,1-6.27,5.13c-2.65,1.32-7.35,3.12-9.86.67-.69-.67-1.75.38-1.06,1.06,5.15,5,14.79-1.61,18.25-5.8.61-.74-.44-1.81-1.06-1.06Z"/><path class="cls-2" d="M97.51,53.88a14.15,14.15,0,0,0-3.1,9.92c.07,1,1.57,1,1.5,0a12.6,12.6,0,0,1,2.66-8.86c.59-.75-.46-1.82-1.06-1.06Z"/><path class="cls-2" d="M51.81,50c-.23-1.46-.42-6.51,2.15-5.63C55.53,45,56.24,47,57.42,48c.72.64,1.78-.41,1.06-1.06-1.7-1.52-3.11-5.07-6-4.05-2.62.91-2.41,5.39-2.08,7.53.15,1,1.59.55,1.45-.4Z"/><path class="cls-2" d="M55.2,43.05c-1.62-5.6,6-3.56,8.85-4.91,1.91-.89,4.17-2.68,4.39-4.94.44-4.45-5.45-5.07-7-1.28-.36.89,1.09,1.28,1.45.4q6.21-1.18,3,2.69a10.24,10.24,0,0,1-1.82,1.41,7.13,7.13,0,0,1-3.74.86c-1.48,0-3-.17-4.37.54a4.69,4.69,0,0,0-2.22,5.64.75.75,0,0,0,1.45-.4Z"/><path class="cls-2" d="M59.55,38.44a4.53,4.53,0,0,0-1.36,2.87.75.75,0,0,0,.75.75.77.77,0,0,0,.75-.75,2.93,2.93,0,0,1,.92-1.81c.7-.67-.36-1.73-1.06-1.06Z"/><path class="cls-2" d="M66.64,31.61c3,.23,8.47-3.51,5.49-6.77-.65-.71-1.71.35-1.06,1.06.95,1-.12,2.33-1,3a5,5,0,0,1-3.47,1.22c-1-.07-1,1.43,0,1.5Z"/><path class="cls-2" d="M72.36,28a6.44,6.44,0,0,1,3.35,0,.75.75,0,0,0,.4-1.45,8,8,0,0,0-4.15,0,.75.75,0,0,0,.4,1.45Z"/><path class="cls-2" d="M79.07,29.2a3.27,3.27,0,0,0-4.19,3.69c.56,2.87,3.65,2.89,5.94,2.51.95-.16.55-1.61-.4-1.45-1.27.21-3.28.53-3.95-.93a1.76,1.76,0,0,1,2.2-2.37.75.75,0,0,0,.4-1.45Z"/><path class="cls-2" d="M75.4,33.84a11,11,0,0,0-8.09,2.61c-.74.62.32,1.68,1.06,1.06a9.48,9.48,0,0,1,7-2.17c1,.08,1-1.42,0-1.5Z"/><path class="cls-2" d="M71.59,34.62l-.74-1.75a.77.77,0,0,0-.92-.52.75.75,0,0,0-.52.92L70.15,35a.77.77,0,0,0,.92.52.75.75,0,0,0,.52-.92Z"/><path class="cls-2" d="M59.86,46.75q0-2.16,2.57-2.23,1.6-1.88,3.07-.65c.32,0,.62.31.94.36a3.1,3.1,0,0,0,2.26-.47c1.62-.89,2.6-2.7,4.25-3.64s3.22-.89,4.68-1.86c.8-.53.05-1.83-.76-1.3-1.64,1.08-3.68,1-5.34,2.13-1,.73-1.73,1.88-2.74,2.59-1.52,1.05-2.76.33-4.23,0-3.55-.86-5.42,1.24-6.15,4.7-.2.94,1.25,1.34,1.45.4Z"/><path class="cls-2" d="M70.85,38.85a19.37,19.37,0,0,0-3.49-1c-.94-.19-1.35,1.26-.4,1.45a19.37,19.37,0,0,1,3.49,1c.9.36,1.28-1.09.4-1.45Z"/><path class="cls-2" d="M72.33,44.52a24.24,24.24,0,0,1,1.79,1.68,6.2,6.2,0,0,1,.9,2.18,6,6,0,0,1-1,4.73c-.56.79.74,1.54,1.3.76a7.57,7.57,0,0,0,.36-8c-.61-1.1-4.1-4.6-4.77-1.72-.22.94,1.23,1.34,1.45.4Z"/><path class="cls-2" d="M75.64,47.41c.76-1,3.2.83,3.76,1.4a6.38,6.38,0,0,1,1.78,3.69c.13,1,1.58.55,1.45-.4a7.74,7.74,0,0,0-3.34-5.31c-1.43-1-3.72-1.79-4.94-.13-.57.78.73,1.53,1.3.76Z"/><path class="cls-2" d="M71.93,47.49l.08-.11-1,.27.15.1L71,46.58c-1,.92-3.59,1.18-3.54,3,0,.56.49.94.82,1.32,1.23,1.47,2.62,2.62,3.53,4.34.78,1.48,1.4,3.64,3.28,4.1,2.85.7,3.62-4.56,6.59-2.63l.38-1.4c-2.37-.2-5.86-1.24-6.27,2.08-.34,2.78,2.07,5,4.45,5.78.92.31,1.31-1.14.4-1.45-1.27-.43-5.49-3.29-2-5.21.62-.34,2.76.24,3.41.29s1-1,.38-1.4a3.2,3.2,0,0,0-3-.45c-2.18.7-3,4.18-5.33,1.61C73,55.3,72.55,53.33,71.38,52c-.72-.83-2.32-1.71-1.66-3-.15.31,2-1,2.33-1.3a.76.76,0,0,0-.15-1.18l-.15-.1a.77.77,0,0,0-1,.27l-.08.11c-.58.77.72,1.52,1.3.76Z"/><path class="cls-2" d="M66.44,56.33a19,19,0,0,1,4.11-2.87c.86-.45.1-1.74-.76-1.3a20.5,20.5,0,0,0-4.41,3.1c-.71.65.35,1.71,1.06,1.06Z"/><path class="cls-2" d="M74.19,61.87c-3.3.8-7.42,1-9,4.45s-.75,7.79,1,11c.45.85,1.75.1,1.3-.76-1.43-2.68-2.27-6.21-1.12-9.17,1.25-3.24,5.35-3.41,8.28-4.13.94-.23.54-1.67-.4-1.45Z"/><path class="cls-2" d="M70.75,63.3a7.37,7.37,0,0,0-.93-3.64c-.47-.85-1.76-.09-1.3.76a5.77,5.77,0,0,1,.72,2.88.75.75,0,0,0,1.5,0Z"/><path class="cls-2" d="M59.36,60.55a16.59,16.59,0,0,1,5.85-.06c.94.16,1.35-1.29.4-1.45a18.75,18.75,0,0,0-6.65.06c-.95.18-.55,1.62.4,1.45Z"/><path class="cls-2" d="M64.29,83.32c.34-2,1.42-4.43,3.31-5.4,2.33-1.19,4.35,2,5.31,3.7.47.84,1.77.09,1.3-.76C73.14,79,70.68,75.16,68,76c-2.84.89-4.72,4.2-5.21,6.93-.17.94,1.28,1.35,1.45.4Z"/><path class="cls-2" d="M63.29,82.18l2.28,1.19c.85.45,1.61-.85.76-1.3L64,80.88c-.85-.45-1.61.85-.76,1.3Z"/><path class="cls-2" d="M68.19,72.18c1.28.9,2.74.13,3.45-1.09.54-.94.64-2.06,1.41-2.89A4.16,4.16,0,0,1,77.11,67c.94.22,1.34-1.22.4-1.45a5.71,5.71,0,0,0-4.64.81A5.38,5.38,0,0,0,71.31,68c-.41.69-1.1,3.73-2.35,2.84-.79-.56-1.54.74-.76,1.3Z"/><path class="cls-2" d="M72.59,72.11c1.06-.91,2.72-.5,4-.93a2.88,2.88,0,0,0,2-2,.75.75,0,0,0-1.45-.4C76.81,70,75.18,69.93,74.2,70a4.56,4.56,0,0,0-2.67,1c-.73.63.33,1.69,1.06,1.06Z"/><path class="cls-2" d="M83.85,66.25l.09,0A.77.77,0,0,0,85,66l.06-.11a.77.77,0,0,0-.27-1c-.87-.62-2.88.09-3.66.63-1.42,1-1.41,2.56-1.21,4.1s.18,4,1.68,5.06,3.45.58,5.06-.08c.88-.36.49-1.82-.4-1.45-1.09.45-2.41,1.06-3.52.41s-1-2-1.18-3.06S81,67.94,81.67,67a2.75,2.75,0,0,1,1.47-.64c.24-.06,1-.06.85-.14l-.27-1-.06.11,1-.27-.09,0c-.88-.38-1.64.91-.76,1.3Z"/><path class="cls-2" d="M73.44,71.62a31.67,31.67,0,0,0,7,.35c1-.06,1-1.56,0-1.5a29.9,29.9,0,0,1-6.58-.29c-.94-.15-1.35,1.3-.4,1.45Z"/><path class="cls-2" d="M82.15,61.91c2.54-.48,4.61-.46,6.65,1.29,1.12,1,5.27,5.23,1.91,5.95-.94.2-.54,1.65.4,1.45,3.51-.75,2.2-4.68.59-6.57a11.48,11.48,0,0,0-4.4-3.52,10.06,10.06,0,0,0-5.54,0c-.95.18-.55,1.62.4,1.45Z"/><path class="cls-2" d="M91.91,59.79A32.46,32.46,0,0,0,89,56.7c-.7-.66-1.77.4-1.06,1.06a32.46,32.46,0,0,1,2.9,3.1c.61.75,1.67-.32,1.06-1.06Z"/><path class="cls-2" d="M54.86,62.88a25.39,25.39,0,0,0-2.71-3.33c-.67-.69-1.73.37-1.06,1.06a23.08,23.08,0,0,1,2.48,3c.54.79,1.84,0,1.3-.76Z"/><path class="cls-2" d="M46.66,46.28l-3.75.25c-1,.06-1,1.57,0,1.5l3.75-.25c1-.06,1-1.57,0-1.5Z"/><path class="cls-3" d="M34.73,54.1l-2.84-2.46c-.73-.63-1.79.43-1.06,1.06l2.84,2.46c.73.63,1.79-.43,1.06-1.06Z"/><path class="cls-3" d="M31.46,37.2l-3.11,2.11c-.79.54,0,1.84.76,1.3l3.11-2.11c.79-.54,0-1.84-.76-1.3Z"/><path class="cls-3" d="M20.58,46.33l-3.11,2.11c-.79.54,0,1.84.76,1.3l3.11-2.11c.79-.54,0-1.84-.76-1.3Z"/><path class="cls-2" d="M75.87,24.48l2.59-3.37c.59-.77-.71-1.51-1.3-.76l-2.59,3.37c-.59.77.71,1.51,1.3.76Z"/><path class="cls-2" d="M107.56,47.88a53.42,53.42,0,0,0-2-5c-.4-.88-1.69-.12-1.3.76a49.53,49.53,0,0,1,1.82,4.61c.31.91,1.76.52,1.45-.4Z"/><polygon class="cls-2" points="83.65 124.63 66.25 124.63 68.33 100.63 81.58 100.63 83.65 124.63"/><polygon class="cls-2" points="54.34 124.63 36.26 124.63 45.23 100.63 58.48 100.63 54.34 124.63"/><polygon class="cls-2" points="23.73 124.63 3.58 124.63 22.92 100.63 35.48 100.63 23.73 124.63"/><polygon class="cls-2" points="95.92 124.63 114 124.63 105.02 100.63 91.77 100.63 95.92 124.63"/><polygon class="cls-2" points="126.52 124.63 146.68 124.63 127.34 100.63 114.78 100.63 126.52 124.63"/><rect class="cls-3" x="136.19" y="42.37" width="5" height="58.27"/><rect class="cls-1" x="127.04" y="1" width="23.3" height="66.96" rx="3" ry="3"/><path class="cls-2" d="M147.34,69H130a4,4,0,0,1-4-4V4a4,4,0,0,1,4-4h17.3a4,4,0,0,1,4,4V65A4,4,0,0,1,147.34,69ZM130,2a2,2,0,0,0-2,2V65a2,2,0,0,0,2,2h17.3a2,2,0,0,0,2-2V4a2,2,0,0,0-2-2Z"/><circle class="cls-2" cx="138.69" cy="16.09" r="7.35"/><path class="cls-2" d="M138.69,30.16a5.35,5.35,0,1,1-5.35,5.35,5.35,5.35,0,0,1,5.35-5.35m0-2A7.35,7.35,0,1,0,146,35.5a7.35,7.35,0,0,0-7.35-7.35Z"/><circle class="cls-3" cx="138.69" cy="55.45" r="7.35"/><path class="cls-2" d="M146,11.17a1,1,0,0,1-.88-.52,7.75,7.75,0,0,0-12.94,0,1,1,0,1,1-1.76-1,9.74,9.74,0,0,1,16.45,0,1,1,0,0,1-.88,1.48Z"/><path class="cls-2" d="M146,30.62a1,1,0,0,1-.88-.52,7.75,7.75,0,0,0-12.94,0,1,1,0,1,1-1.76-1,9.74,9.74,0,0,1,16.45,0,1,1,0,0,1-.88,1.48Z"/><path class="cls-2" d="M146,50.7a1,1,0,0,1-.88-.52,7.75,7.75,0,0,0-12.94,0,1,1,0,1,1-1.76-1,9.74,9.74,0,0,1,16.45,0A1,1,0,0,1,146,50.7Z"/><path class="cls-3" d="M32.28,100.63H5.44s-.5-3.33,1-4.67H31.28C32.28,96.8,32.28,100.63,32.28,100.63Z"/><polygon class="cls-3" points="25.6 81.3 22.1 65.3 15.6 65.3 12.1 81.3 25.6 81.3"/><polygon class="cls-3" points="10.16 90.3 8.6 97.3 29.1 97.3 27.54 90.3 10.16 90.3"/><path class="cls-2" d="M142.36,101.63H1a1,1,0,0,1,0-2H142.36a1,1,0,0,1,0,2Z"/></g></svg>