<svg xmlns="http://www.w3.org/2000/svg" width="152" height="104.18" viewBox="0 0 152 104.18"><defs><style>.bbb028f5-7b13-452f-9e04-b3d1c55f9863{fill:none;stroke-linecap:round;}.b6afd1f1-8609-4996-9bda-2890ce22e5cd,.bbb028f5-7b13-452f-9e04-b3d1c55f9863{stroke:#b0bef3;stroke-linejoin:round;stroke-width:2px;}.b6afd1f1-8609-4996-9bda-2890ce22e5cd{fill:#fff;}.\34 3e68d7c-6748-42a7-a3a4-abbabdde644c{fill:#b0bef3;}.\32 fd1d1f2-ae97-469f-8f8b-e827a8b5e607{fill:#d1d7f4;}</style></defs><title>Empty_State</title><g id="8a8c2622-0d43-4ea6-ab02-118b29540b15" data-name="Layer 2"><g id="60d5674d-6ef9-4434-b833-9f1383590011" data-name="Layer 1"><line class="bbb028f5-7b13-452f-9e04-b3d1c55f9863" x1="151" y1="99.13" x2="1" y2="99.13"/><path class="b6afd1f1-8609-4996-9bda-2890ce22e5cd" d="M28.33,103.18V95.59c4.79,0,9.1-3.88,9.1-8.67V67.11a2.5,2.5,0,0,0-2.5-2.5h0a2.5,2.5,0,0,0-2.5,2.5V86.93a4.1,4.1,0,0,1-4.1,4.1V46.58a2.5,2.5,0,0,0-2.5-2.5H24.17a2.5,2.5,0,0,0-2.5,2.5V78.75a3.88,3.88,0,0,1-3.94-3.82V63.76a2.5,2.5,0,0,0-2.5-2.5h0a2.5,2.5,0,0,0-2.5,2.5V74.93a8.8,8.8,0,0,0,8.94,8.67v19.59"/><path class="b6afd1f1-8609-4996-9bda-2890ce22e5cd" d="M132.33,103.18V85.59c4.79,0,9.1-3.88,9.1-8.67V57.11a2.5,2.5,0,0,0-2.5-2.5h0a2.5,2.5,0,0,0-2.5,2.5V76.93a4.1,4.1,0,0,1-4.1,4.1V53.58a2.5,2.5,0,0,0-2.5-2.5h-1.67a2.5,2.5,0,0,0-2.5,2.5V88.75a3.88,3.88,0,0,1-3.94-3.82V73.76a2.5,2.5,0,0,0-2.5-2.5h0a2.5,2.5,0,0,0-2.5,2.5V84.93a8.8,8.8,0,0,0,8.94,8.67v9.59"/><line class="bbb028f5-7b13-452f-9e04-b3d1c55f9863" x1="132.33" y1="103.18" x2="139.31" y2="103.18"/><line class="bbb028f5-7b13-452f-9e04-b3d1c55f9863" x1="125.67" y1="103.18" x2="119.31" y2="103.18"/><line class="bbb028f5-7b13-452f-9e04-b3d1c55f9863" x1="28.33" y1="103.18" x2="34.69" y2="103.18"/><line class="bbb028f5-7b13-452f-9e04-b3d1c55f9863" x1="21.67" y1="103.18" x2="15.5" y2="103.18"/><line class="bbb028f5-7b13-452f-9e04-b3d1c55f9863" x1="98.83" y1="99.13" x2="98.83" y2="76.8"/><path class="bbb028f5-7b13-452f-9e04-b3d1c55f9863" d="M94.67,84v4a4.16,4.16,0,0,0,4.17,4.17"/><path class="bbb028f5-7b13-452f-9e04-b3d1c55f9863" d="M103,83.3v7.83a4.16,4.16,0,0,1-4.17,4.17"/><path class="43e68d7c-6748-42a7-a3a4-abbabdde644c" d="M56.09,8.69a25.43,25.43,0,0,0-8.93,10.1c-.42.86.87,1.62,1.3.76A24,24,0,0,1,56.85,10c.8-.53.05-1.83-.76-1.3Z"/><path class="43e68d7c-6748-42a7-a3a4-abbabdde644c" d="M52.9,11a5.19,5.19,0,0,1-.4-2.12.75.75,0,0,0-1.5,0,7,7,0,0,0,.61,2.88.76.76,0,0,0,1,.27.77.77,0,0,0,.27-1Z"/><path class="43e68d7c-6748-42a7-a3a4-abbabdde644c" d="M48.22,15.68l-1.54-4c-.34-.89-1.8-.5-1.45.4l1.54,4c.34.89,1.8.5,1.45-.4Z"/><path class="43e68d7c-6748-42a7-a3a4-abbabdde644c" d="M58.8,5.61A5.47,5.47,0,0,1,61.89,8c.51.82,1.8.07,1.3-.76a7.06,7.06,0,0,0-4-3.07c-.93-.28-1.32,1.16-.4,1.45Z"/><path class="43e68d7c-6748-42a7-a3a4-abbabdde644c" d="M62.76,7.07a91.53,91.53,0,0,0,10.74.35.75.75,0,0,0,0-1.5,91.53,91.53,0,0,1-10.74-.35c-1-.09-1,1.41,0,1.5Z"/><path class="43e68d7c-6748-42a7-a3a4-abbabdde644c" d="M78.92,10.68l.66.33.58-1.37a3.59,3.59,0,0,1-2.24-4.16,18.82,18.82,0,0,1,.29-3c.66-1.67,3.13-.4,4.29-.08l4.07,1.14A.75.75,0,0,0,87,2.09C84.5,1.41,81.77.2,79.22,0a2.16,2.16,0,0,0-2.46,1.9c-.19,1-.1,2.12-.29,3.17a5.62,5.62,0,0,0,0,2.61,5.19,5.19,0,0,0,3.27,3.4c.79.3,1.33-1,.58-1.37l-.66-.33c-.86-.43-1.62.86-.76,1.3Z"/><path class="43e68d7c-6748-42a7-a3a4-abbabdde644c" d="M77.25,4.61a9.5,9.5,0,0,1-3.06-.13c-.94-.2-1.34,1.25-.4,1.45a10.75,10.75,0,0,0,3.46.18c.95-.11,1-1.61,0-1.5Z"/><path class="43e68d7c-6748-42a7-a3a4-abbabdde644c" d="M48.74,28.7c-.33,3.65,2.83,6,6.17,6.29,1.47.15,3.05.18,4-1.06,1.17-1.47,1.8-3.79,2.42-5.53.32-.91-1.13-1.3-1.45-.4-.79,2.23-1.43,5.46-4.28,5.54S50,31.71,50.24,28.7c.09-1-1.41-1-1.5,0Z"/><path class="43e68d7c-6748-42a7-a3a4-abbabdde644c" d="M52.8,36c.8,4.84,2,12.79,8,13.73.94.15,1.35-1.3.4-1.45-5.25-.83-6.25-8.42-7-12.68-.16-1-1.6-.55-1.45.4Z"/><path class="43e68d7c-6748-42a7-a3a4-abbabdde644c" d="M44.76,47.29c3.78,4.19,5.17,11,11.35,12.44.94.22,1.34-1.22.4-1.45-5.69-1.35-7.17-8.15-10.68-12.05-.65-.72-1.71.35-1.06,1.06Z"/><path class="43e68d7c-6748-42a7-a3a4-abbabdde644c" d="M55.09,51.82c-.2,4.27-4.37,10.25.57,13.43.81.52,1.57-.77.76-1.3-3.93-2.52,0-8.69.17-12.13,0-1-1.45-1-1.5,0Z"/><path class="43e68d7c-6748-42a7-a3a4-abbabdde644c" d="M48.45,58.54a8.92,8.92,0,0,0,1-4.16.75.75,0,0,0-1.5,0,7.25,7.25,0,0,1-.83,3.4c-.45.85.85,1.61,1.3.76Z"/><path class="43e68d7c-6748-42a7-a3a4-abbabdde644c" d="M68.14,56.94c1.51,1.32,3.4,2.91,3.25,5.12s-3.65,3.45-5.52,2.45c-.85-.46-1.61.84-.76,1.3,2.24,1.2,6.18.37,7.37-2,1.56-3.12-1.11-6-3.28-7.89-.72-.63-1.79.42-1.06,1.06Z"/><path class="43e68d7c-6748-42a7-a3a4-abbabdde644c" d="M71.49,65.16a43.07,43.07,0,0,0,8.15-1.35c3.14-.86,6.08-2.45,9.37-2.72,1-.08,1-1.58,0-1.5a30.57,30.57,0,0,0-7.39,2,40.58,40.58,0,0,1-10.12,2c-1,.07-1,1.57,0,1.5Z"/><path class="43e68d7c-6748-42a7-a3a4-abbabdde644c" d="M87.11,54.7l-.67,3.49c-.15.8-.5,1.84.06,2.57a2.94,2.94,0,0,0,2.12.78,19.46,19.46,0,0,0,3.88.07c1-.07,1-1.57,0-1.5s-4.32.44-4.73-.43c-.23-.49.23-1.66.33-2.18l.46-2.4c.18-.94-1.26-1.35-1.45-.4Z"/><path class="43e68d7c-6748-42a7-a3a4-abbabdde644c" d="M78,61.49a3.77,3.77,0,0,1,3.2,1.2c.66.71,1.72-.36,1.06-1.06A5.21,5.21,0,0,0,78,60c-1,.08-1,1.59,0,1.5Z"/><path class="43e68d7c-6748-42a7-a3a4-abbabdde644c" d="M81.89,63.46l-1.67,6.71a.75.75,0,0,0,1.45.4l1.67-6.71a.75.75,0,0,0-1.45-.4Z"/><path class="43e68d7c-6748-42a7-a3a4-abbabdde644c" d="M94.49,58.14c1.85-1.67,4.89-3.38,4.39-6.35-.32-1.87-2.59-3.22-4.24-2-.76.57,0,1.87.76,1.3a1.21,1.21,0,0,1,1.79.43A2.43,2.43,0,0,1,96.82,54c-.84,1.25-2.29,2.05-3.39,3-.72.65.34,1.7,1.06,1.06Z"/><path class="43e68d7c-6748-42a7-a3a4-abbabdde644c" d="M95.25,53.39a21.6,21.6,0,0,0-5,.26c-1,.16-.55,1.6.4,1.45a19.9,19.9,0,0,1,4.55-.2c1,.06,1-1.44,0-1.5Z"/><path class="43e68d7c-6748-42a7-a3a4-abbabdde644c" d="M95.54,56.58a10.7,10.7,0,0,1,.2,3.3c-.08,1,1.42,1,1.5,0a12,12,0,0,0-.26-3.7c-.21-.94-1.66-.54-1.45.4Z"/><path class="43e68d7c-6748-42a7-a3a4-abbabdde644c" d="M99.19,49.79a32.33,32.33,0,0,0,3.65-21.38c-.16-.95-1.6-.55-1.45.4A30.64,30.64,0,0,1,97.9,49c-.47.85.83,1.6,1.3.76Z"/><path class="43e68d7c-6748-42a7-a3a4-abbabdde644c" d="M100.87,40.74l-5.75,2.75c-.87.42-.11,1.71.76,1.3L101.63,42c.87-.42.11-1.71-.76-1.3Z"/><path class="43e68d7c-6748-42a7-a3a4-abbabdde644c" d="M101.6,41l.09-.13-.45.34a12.51,12.51,0,0,1,2.09,1.19l2.5,1.4a.75.75,0,0,0,.76-1.3l-4.1-2.3c-.75-.42-1.58-.83-2.18,0s.74,1.54,1.3.76Z"/><path class="43e68d7c-6748-42a7-a3a4-abbabdde644c" d="M102.21,33.41l2.9,2.13c.78.57,1.53-.73.76-1.3L103,32.12c-.78-.57-1.53.73-.76,1.3Z"/><path class="43e68d7c-6748-42a7-a3a4-abbabdde644c" d="M96.17,28.52c2.18-.85,5.9-2.07,6.76-4.54.7-2-.82-5.06-2.72-5.86-.89-.37-1.28,1.08-.4,1.45.64.27,1.06,1.21,1.34,1.8a2.56,2.56,0,0,1-1,3.5,22.21,22.21,0,0,1-4.41,2.2c-.89.35-.5,1.8.4,1.45Z"/><path class="43e68d7c-6748-42a7-a3a4-abbabdde644c" d="M95.57,22.91c-.6-2.16-2.46-6.17-.52-8,2.64-2.5,5.55,1.08,6.12,3.45.22.94,1.67.54,1.45-.4-.78-3.27-3.73-6.35-7.32-4.92-4.28,1.71-2,7.14-1.17,10.28a.75.75,0,0,0,1.45-.4Z"/><path class="43e68d7c-6748-42a7-a3a4-abbabdde644c" d="M95.82,15.69A15.93,15.93,0,0,0,84.16,6.63c-.94-.17-1.35,1.27-.4,1.45a14.55,14.55,0,0,1,10.76,8.37c.41.87,1.7.11,1.3-.76Z"/><path class="43e68d7c-6748-42a7-a3a4-abbabdde644c" d="M89.68,9.78l3.78-.85c.94-.21.54-1.66-.4-1.45l-3.78.85c-.94.21-.54,1.66.4,1.45Z"/><path class="43e68d7c-6748-42a7-a3a4-abbabdde644c" d="M90.68,11.56a7.65,7.65,0,0,1-2.56,2.17c-.85.46-.09,1.75.76,1.3A9.33,9.33,0,0,0,92,12.32c.58-.77-.72-1.52-1.3-.76Z"/><path class="43e68d7c-6748-42a7-a3a4-abbabdde644c" d="M84.8,11.66l-1.42,2.93q-.66.27-1.31.57a9.39,9.39,0,0,0-1.56.92,7.41,7.41,0,0,0-2,2.25,10.57,10.57,0,0,0-1.07,3.34,9.85,9.85,0,0,1-.33,1.92q.1,1.44-1.43,1.16a1.53,1.53,0,0,1-2-.27.75.75,0,0,0-.76,1.3c1.25.76,3.36,2.07,4.68.8,2.07-2,.88-6.1,2.87-8.42,1.42-1.66,9.75-4.38,5.14-7.78-.78-.57-1.53.73-.76,1.3Z"/><path class="43e68d7c-6748-42a7-a3a4-abbabdde644c" d="M80.85,18.78a40.84,40.84,0,0,1,7.69,9.77.75.75,0,0,0,1.3-.76,42.17,42.17,0,0,0-7.92-10.08c-.7-.66-1.77.4-1.06,1.06Z"/><path class="43e68d7c-6748-42a7-a3a4-abbabdde644c" d="M89.21,19.62a8.76,8.76,0,0,0-5.16.29c-.9.33-.51,1.79.4,1.45a7.33,7.33,0,0,1,4.36-.29c.94.22,1.34-1.22.4-1.45Z"/><path class="43e68d7c-6748-42a7-a3a4-abbabdde644c" d="M81.81,20.86a19.5,19.5,0,0,0-1.74,11.76c.15,1,1.59.55,1.45-.4A17.72,17.72,0,0,1,83.1,21.62c.42-.87-.87-1.63-1.3-.76Z"/><path class="43e68d7c-6748-42a7-a3a4-abbabdde644c" d="M84.35,35.88a2.88,2.88,0,0,1,1.82-2.29c.59-.29,2.08-.95,2.69-.51s.49,1.33.6,1.84a4,4,0,0,0,.66,1.57c.56.78,1.86,0,1.3-.76-.7-1-.49-2.26-1.14-3.26a2.24,2.24,0,0,0-2.46-1c-2.39.38-4.74,1.79-5,4.38-.08,1,1.42,1,1.5,0Z"/><path class="43e68d7c-6748-42a7-a3a4-abbabdde644c" d="M87.2,31.88c-.37-2.48,2.5-7,4.86-3.83a37.47,37.47,0,0,1,3.51,6c.43.87,1.72.11,1.3-.76a42.25,42.25,0,0,0-3.51-6c-.86-1.19-1.86-2.11-3.42-1.83-3.09.56-4.61,4-4.18,6.82.14,1,1.59.55,1.45-.4Z"/><path class="43e68d7c-6748-42a7-a3a4-abbabdde644c" d="M98.61,34.32a19.4,19.4,0,0,1-6.27,5.13c-2.65,1.32-7.35,3.12-9.86.67-.69-.67-1.75.38-1.06,1.06,5.15,5,14.79-1.61,18.25-5.8.61-.74-.44-1.81-1.06-1.06Z"/><path class="43e68d7c-6748-42a7-a3a4-abbabdde644c" d="M93.1,35.71A14.15,14.15,0,0,0,90,45.63c.07,1,1.57,1,1.5,0a12.6,12.6,0,0,1,2.66-8.86c.59-.75-.46-1.82-1.06-1.06Z"/><path class="43e68d7c-6748-42a7-a3a4-abbabdde644c" d="M47.4,31.88c-.23-1.46-.42-6.51,2.15-5.63,1.56.54,2.28,2.54,3.46,3.61.72.64,1.78-.41,1.06-1.06-1.7-1.52-3.11-5.07-6-4.05-2.62.91-2.41,5.39-2.08,7.53.15,1,1.59.55,1.45-.4Z"/><path class="43e68d7c-6748-42a7-a3a4-abbabdde644c" d="M50.79,24.88c-1.62-5.6,6-3.56,8.85-4.91,1.91-.89,4.17-2.68,4.39-4.94.44-4.45-5.45-5.07-7-1.28-.36.89,1.09,1.28,1.45.4q6.21-1.18,3,2.69a10.24,10.24,0,0,1-1.82,1.41,7.13,7.13,0,0,1-3.74.86c-1.48,0-3-.17-4.37.54a4.69,4.69,0,0,0-2.22,5.64.75.75,0,0,0,1.45-.4Z"/><path class="43e68d7c-6748-42a7-a3a4-abbabdde644c" d="M55.14,20.27a4.53,4.53,0,0,0-1.36,2.87.75.75,0,0,0,.75.75.77.77,0,0,0,.75-.75,2.93,2.93,0,0,1,.92-1.81c.7-.67-.36-1.73-1.06-1.06Z"/><path class="43e68d7c-6748-42a7-a3a4-abbabdde644c" d="M62.23,13.44c3,.23,8.47-3.51,5.49-6.77C67.07,6,66,7,66.66,7.73c.95,1-.12,2.33-1,3a5,5,0,0,1-3.47,1.22c-1-.07-1,1.43,0,1.5Z"/><path class="43e68d7c-6748-42a7-a3a4-abbabdde644c" d="M67.95,9.85a6.44,6.44,0,0,1,3.35,0,.75.75,0,0,0,.4-1.45,8,8,0,0,0-4.15,0,.75.75,0,0,0,.4,1.45Z"/><path class="43e68d7c-6748-42a7-a3a4-abbabdde644c" d="M74.66,11a3.27,3.27,0,0,0-4.19,3.69c.56,2.87,3.65,2.89,5.94,2.51.95-.16.55-1.61-.4-1.45-1.27.21-3.28.53-3.95-.93a1.76,1.76,0,0,1,2.2-2.37.75.75,0,0,0,.4-1.45Z"/><path class="43e68d7c-6748-42a7-a3a4-abbabdde644c" d="M71,15.67a11,11,0,0,0-8.09,2.61c-.74.62.32,1.68,1.06,1.06a9.48,9.48,0,0,1,7-2.17c1,.08,1-1.42,0-1.5Z"/><path class="43e68d7c-6748-42a7-a3a4-abbabdde644c" d="M67.18,16.45l-.74-1.75a.77.77,0,0,0-.92-.52.75.75,0,0,0-.52.92l.74,1.75a.77.77,0,0,0,.92.52.75.75,0,0,0,.52-.92Z"/><path class="43e68d7c-6748-42a7-a3a4-abbabdde644c" d="M55.45,28.58q0-2.16,2.57-2.23,1.6-1.88,3.07-.65c.32,0,.62.31.94.36a3.1,3.1,0,0,0,2.26-.47c1.62-.89,2.6-2.7,4.25-3.64s3.22-.89,4.68-1.86c.8-.53.05-1.83-.76-1.3-1.64,1.08-3.68,1-5.34,2.13-1,.73-1.73,1.88-2.74,2.59-1.52,1.05-2.76.33-4.23,0-3.55-.86-5.42,1.24-6.15,4.7-.2.94,1.25,1.34,1.45.4Z"/><path class="43e68d7c-6748-42a7-a3a4-abbabdde644c" d="M66.44,20.68a19.37,19.37,0,0,0-3.49-1c-.94-.19-1.35,1.26-.4,1.45a19.37,19.37,0,0,1,3.49,1c.9.36,1.28-1.09.4-1.45Z"/><path class="43e68d7c-6748-42a7-a3a4-abbabdde644c" d="M67.92,26.35A24.24,24.24,0,0,1,69.71,28a6.2,6.2,0,0,1,.9,2.18,6,6,0,0,1-1,4.73c-.56.79.74,1.54,1.3.76a7.57,7.57,0,0,0,.36-8c-.61-1.1-4.1-4.6-4.77-1.72-.22.94,1.23,1.34,1.45.4Z"/><path class="43e68d7c-6748-42a7-a3a4-abbabdde644c" d="M71.23,29.24c.76-1,3.2.83,3.76,1.4a6.38,6.38,0,0,1,1.78,3.69c.13,1,1.58.55,1.45-.4a7.74,7.74,0,0,0-3.34-5.31c-1.43-1-3.72-1.79-4.94-.13-.57.78.73,1.53,1.3.76Z"/><path class="43e68d7c-6748-42a7-a3a4-abbabdde644c" d="M67.52,29.33l.08-.11-1,.27.15.1-.15-1.18c-1,.92-3.59,1.18-3.54,3,0,.56.49.94.82,1.32,1.23,1.47,2.62,2.62,3.53,4.34.78,1.48,1.4,3.64,3.28,4.1,2.85.7,3.62-4.56,6.59-2.63l.38-1.4c-2.37-.2-5.86-1.24-6.27,2.08C71,42,73.45,44.19,75.83,45c.92.31,1.31-1.14.4-1.45-1.27-.43-5.49-3.29-2-5.21.62-.34,2.76.24,3.41.29s1-1,.38-1.4a3.2,3.2,0,0,0-3-.45c-2.18.7-3,4.18-5.33,1.61-1.14-1.25-1.57-3.22-2.74-4.57-.72-.83-2.32-1.71-1.66-3-.15.31,2-1,2.33-1.3a.76.76,0,0,0-.15-1.18l-.15-.1a.77.77,0,0,0-1,.27l-.08.11c-.58.77.72,1.52,1.3.76Z"/><path class="43e68d7c-6748-42a7-a3a4-abbabdde644c" d="M62,38.16a19,19,0,0,1,4.11-2.87c.86-.45.1-1.74-.76-1.3A20.5,20.5,0,0,0,61,37.1c-.71.65.35,1.71,1.06,1.06Z"/><path class="43e68d7c-6748-42a7-a3a4-abbabdde644c" d="M69.78,43.7c-3.3.8-7.42,1-9,4.45s-.75,7.79,1,11c.45.85,1.75.1,1.3-.76-1.43-2.68-2.27-6.21-1.12-9.17,1.25-3.24,5.35-3.41,8.28-4.13.94-.23.54-1.67-.4-1.45Z"/><path class="43e68d7c-6748-42a7-a3a4-abbabdde644c" d="M66.34,45.14a7.37,7.37,0,0,0-.93-3.64c-.47-.85-1.76-.09-1.3.76a5.77,5.77,0,0,1,.72,2.88.75.75,0,0,0,1.5,0Z"/><path class="43e68d7c-6748-42a7-a3a4-abbabdde644c" d="M55,42.39a16.59,16.59,0,0,1,5.85-.06c.94.16,1.35-1.29.4-1.45a18.75,18.75,0,0,0-6.65.06c-.95.18-.55,1.62.4,1.45Z"/><path class="43e68d7c-6748-42a7-a3a4-abbabdde644c" d="M59.88,65.15c.34-2,1.42-4.43,3.31-5.4,2.33-1.19,4.35,2,5.31,3.7.47.84,1.77.09,1.3-.76-1.06-1.9-3.52-5.71-6.16-4.88-2.84.89-4.72,4.2-5.21,6.93-.17.94,1.28,1.35,1.45.4Z"/><path class="43e68d7c-6748-42a7-a3a4-abbabdde644c" d="M58.88,64l2.28,1.19c.85.45,1.61-.85.76-1.3l-2.28-1.19c-.85-.45-1.61.85-.76,1.3Z"/><path class="43e68d7c-6748-42a7-a3a4-abbabdde644c" d="M63.79,54c1.28.9,2.74.13,3.45-1.09.54-.94.64-2.06,1.41-2.89a4.16,4.16,0,0,1,4.05-1.16c.94.22,1.34-1.22.4-1.45a5.71,5.71,0,0,0-4.64.81,5.38,5.38,0,0,0-1.56,1.64c-.41.69-1.1,3.73-2.35,2.84-.79-.56-1.54.74-.76,1.3Z"/><path class="43e68d7c-6748-42a7-a3a4-abbabdde644c" d="M68.18,53.94c1.06-.91,2.72-.5,4-.93a2.88,2.88,0,0,0,2-2,.75.75,0,0,0-1.45-.4c-.31,1.2-1.94,1.14-2.91,1.25a4.56,4.56,0,0,0-2.67,1c-.73.63.33,1.69,1.06,1.06Z"/><path class="43e68d7c-6748-42a7-a3a4-abbabdde644c" d="M79.44,48.08l.09,0a.77.77,0,0,0,1-.27l.06-.11a.77.77,0,0,0-.27-1c-.87-.62-2.88.09-3.66.63-1.42,1-1.41,2.56-1.21,4.1s.18,4,1.68,5.06,3.45.58,5.06-.08c.88-.36.49-1.82-.4-1.45-1.09.45-2.41,1.06-3.52.41s-1-2-1.18-3.06-.56-2.55.15-3.53a2.75,2.75,0,0,1,1.47-.64c.24-.06,1-.06.85-.14l-.27-1-.06.11,1-.27-.09,0c-.88-.38-1.64.91-.76,1.3Z"/><path class="43e68d7c-6748-42a7-a3a4-abbabdde644c" d="M69,53.45a31.67,31.67,0,0,0,7,.35c1-.06,1-1.56,0-1.5A29.9,29.9,0,0,1,69.43,52c-.94-.15-1.35,1.3-.4,1.45Z"/><path class="43e68d7c-6748-42a7-a3a4-abbabdde644c" d="M77.74,43.74c2.54-.48,4.61-.46,6.65,1.29,1.12,1,5.27,5.23,1.91,5.95-.94.2-.54,1.65.4,1.45,3.51-.75,2.2-4.68.59-6.57a11.48,11.48,0,0,0-4.4-3.52,10.06,10.06,0,0,0-5.54,0c-.95.18-.55,1.62.4,1.45Z"/><path class="43e68d7c-6748-42a7-a3a4-abbabdde644c" d="M87.5,41.63a32.46,32.46,0,0,0-2.9-3.1c-.7-.66-1.77.4-1.06,1.06a32.46,32.46,0,0,1,2.9,3.1c.61.75,1.67-.32,1.06-1.06Z"/><path class="43e68d7c-6748-42a7-a3a4-abbabdde644c" d="M50.45,44.72a25.39,25.39,0,0,0-2.71-3.33c-.67-.69-1.73.37-1.06,1.06a23.08,23.08,0,0,1,2.48,3c.54.79,1.84,0,1.3-.76Z"/><path class="43e68d7c-6748-42a7-a3a4-abbabdde644c" d="M42.25,28.11l-3.75.25c-1,.06-1,1.57,0,1.5l3.75-.25c1-.06,1-1.57,0-1.5Z"/><path class="2fd1d1f2-ae97-469f-8f8b-e827a8b5e607" d="M30.32,35.94l-2.84-2.46c-.73-.63-1.79.43-1.06,1.06L29.26,37c.73.63,1.79-.43,1.06-1.06Z"/><path class="2fd1d1f2-ae97-469f-8f8b-e827a8b5e607" d="M27.05,19l-3.11,2.11c-.79.54,0,1.84.76,1.3l3.11-2.11c.79-.54,0-1.84-.76-1.3Z"/><path class="2fd1d1f2-ae97-469f-8f8b-e827a8b5e607" d="M16.18,28.16l-3.11,2.11c-.79.54,0,1.84.76,1.3l3.11-2.11c.79-.54,0-1.84-.76-1.3Z"/><path class="43e68d7c-6748-42a7-a3a4-abbabdde644c" d="M71.46,6.31l2.59-3.37c.59-.77-.71-1.51-1.3-.76L70.17,5.55c-.59.77.71,1.51,1.3.76Z"/><path class="43e68d7c-6748-42a7-a3a4-abbabdde644c" d="M103.15,29.71a53.42,53.42,0,0,0-2-5c-.4-.88-1.69-.12-1.3.76a49.53,49.53,0,0,1,1.82,4.61c.31.91,1.76.52,1.45-.4Z"/></g></g></svg>