<svg id="Layer_1" data-name="Layer 1" xmlns="http://www.w3.org/2000/svg" viewBox="0 0 337.5 255"><defs><style>.cls-1{fill:#fdfdfd;}.cls-2,.cls-3{fill:none;stroke-linecap:round;stroke-linejoin:round;stroke-width:3px;}.cls-2{stroke:#d2d7ee;}.cls-3{stroke:#3f55af;}</style></defs><title>Emptiness</title><polygon class="cls-1" points="337.5 236.42 311.83 236.42 294.5 219 268 224.92 238.5 204.5 211.33 224.53 181.5 228.92 171.5 236.42 0 236.42 0 247.42 337.5 247.42 337.5 236.42"/><g id="Layer_2" data-name="Layer 2"><g id="Layer_1-2" data-name="Layer 1-2"><path class="cls-1" d="M119.78,202.2a12,12,0,0,0-15.68-6.49L93,200.31,53.88,106a15,15,0,0,0,4.63-17.55L50.92,70.11,23.21,81.61,30.8,99.92A15,15,0,0,0,46.49,109l39.13,94.34L74.54,208A12,12,0,0,0,68,223.61l4.72,9.63H130.4Z"/><line class="cls-2" x1="193.74" y1="197.02" x2="170.88" y2="188.39"/><line class="cls-2" x1="190.23" y1="164.39" x2="199.36" y2="175.01"/><line class="cls-2" x1="203.77" y1="180.14" x2="206.32" y2="183.11"/><line class="cls-2" x1="291.13" y1="151.74" x2="271.93" y2="175.52"/><line class="cls-2" x1="301.14" y1="182.66" x2="283.87" y2="188.74"/><line class="cls-3" x1="322.83" y1="233.26" x2="332.5" y2="233.26"/><polyline class="cls-3" points="1.5 233.26 166.75 233.62 178.5 224.92 208 221.5 239 197.02 268 224.92 286 217.5 304.5 233.26 311.83 233.26"/><rect class="cls-3" x="60.85" y="99.52" width="8" height="100.69" transform="translate(-52.47 36.28) rotate(-22.53)"/><rect class="cls-3" x="43.51" y="102.97" width="8" height="10.22" transform="translate(-37.79 26.45) rotate(-22.53)"/><rect class="cls-3" x="71.94" y="155.23" width="8" height="42.77" transform="translate(-61.88 42.58) rotate(-22.53)"/><path class="cls-3" d="M67.77,228.28,63,218.61a12,12,0,0,1,6.49-15.68l29.6-12.22a12,12,0,0,1,15.68,6.49l10.67,31.08"/><path class="cls-3" d="M18.21,76.61l27.71-11.5h0l7.59,18.31A15,15,0,0,1,45.4,103h0a15,15,0,0,1-19.6-8.11L18.21,76.61Z"/><rect class="cls-3" x="18.37" y="70.6" width="30" height="6.81" transform="translate(-25.81 18.43) rotate(-22.53)"/></g></g></svg>