<svg xmlns="http://www.w3.org/2000/svg" width="54.72" height="73.59" viewBox="0 0 54.72 73.59"><defs><style>.\36 f7b3c15-4c0a-4c6e-9309-5d9e7daf87c6,.\38 c067771-67ad-4301-897a-67c566dce707{fill:#fff;stroke-linejoin:round;stroke-width:2px;}.\36 f7b3c15-4c0a-4c6e-9309-5d9e7daf87c6{stroke:#2e3f8f;}.\38 c067771-67ad-4301-897a-67c566dce707{stroke:#d1d7f4;stroke-linecap:round;}.\35 a5caa8d-c785-4bd5-b1a2-8b46118950f3{fill:#2e3f8f;}</style></defs><title>Asset 14</title><g id="c3796b86-0f63-4faf-8669-67d2870b97b1" data-name="Layer 2"><g id="cbc8555e-9221-4d9d-b74e-81d2e3be27c4" data-name="Layer 1"><polygon class="6f7b3c15-4c0a-4c6e-9309-5d9e7daf87c6" points="53.64 72.59 1 72.53 1.06 18.59 18.46 18.61 18.48 1 53.72 1.04 53.64 72.59"/><polygon class="6f7b3c15-4c0a-4c6e-9309-5d9e7daf87c6" points="18.48 1 18.46 18.4 1.06 18.39 18.48 1"/><polyline class="8c067771-67ad-4301-897a-67c566dce707" points="48.91 58.28 48.88 67.74 39.16 67.84"/><path class="5a5caa8d-c785-4bd5-b1a2-8b46118950f3" d="M20.6,43.42a1,1,0,0,1,.26-.74,1.07,1.07,0,0,1,.77-.25,1,1,0,0,1,.75.26,1.14,1.14,0,0,1,0,1.47,1,1,0,0,1-.75.27,1.05,1.05,0,0,1-.76-.26A1,1,0,0,1,20.6,43.42Z"/><path class="5a5caa8d-c785-4bd5-b1a2-8b46118950f3" d="M23.75,47.14A4.16,4.16,0,0,1,22.57,47V45.59a3.18,3.18,0,0,0,.84.11.81.81,0,0,0,.66-.25,1.15,1.15,0,0,0,.21-.74v-7h1.79V45a2.1,2.1,0,0,1-.6,1.61A2.41,2.41,0,0,1,23.75,47.14ZM24.2,36q0-.87,1-.87t1,.87a.85.85,0,0,1-.24.65,1,1,0,0,1-.73.23Q24.2,36.9,24.2,36Z"/><path class="5a5caa8d-c785-4bd5-b1a2-8b46118950f3" d="M32.51,42.32a1.8,1.8,0,0,1-.7,1.54,3.46,3.46,0,0,1-2.09.53,6.58,6.58,0,0,1-1.22-.1,4.61,4.61,0,0,1-.94-.28V42.52a6.23,6.23,0,0,0,1.12.39,4.54,4.54,0,0,0,1.1.16q1,0,1-.56a.47.47,0,0,0-.13-.34,1.87,1.87,0,0,0-.45-.3q-.32-.17-.84-.39a5.3,5.3,0,0,1-1.11-.59,1.65,1.65,0,0,1-.52-.62,2,2,0,0,1-.16-.86,1.56,1.56,0,0,1,.68-1.35,3.3,3.3,0,0,1,1.92-.48,5.45,5.45,0,0,1,2.3.52l-.54,1.29q-.49-.21-.92-.35a2.89,2.89,0,0,0-.87-.13q-.79,0-.79.43a.5.5,0,0,0,.25.42,6.93,6.93,0,0,0,1.12.52,5.19,5.19,0,0,1,1.13.58,1.72,1.72,0,0,1,.53.62A1.91,1.91,0,0,1,32.51,42.32Z"/></g></g></svg>