<?xml version="1.0" encoding="utf-8"?>
<!-- Generator: Adobe Illustrator 20.1.0, SVG Export Plug-In . SVG Version: 6.00 Build 0)  -->
<svg version="1.1" id="Layer_1" xmlns="http://www.w3.org/2000/svg" xmlns:xlink="http://www.w3.org/1999/xlink" x="0px" y="0px"
	 viewBox="0 0 168.6 136.4" style="enable-background:new 0 0 168.6 136.4;" xml:space="preserve">
<style type="text/css">
	.st0{fill:#647EC9;}
	.st1{fill:#19273C;}
	.st2{enable-background:new    ;}
</style>
<title>Konnichiwa</title>
<desc>Created with Sketch.</desc>
<g id="v1.1">
	<g id="Transaction-Registry-Copy-30" transform="translate(-131.000000, -274.000000)">
		<g id="Group" transform="translate(43.000000, 241.000000)">
			<g id="Konnichiwa" transform="translate(87.000000, 30.000000)">
				<circle id="Oval-4" class="st0" cx="71.4" cy="94" r="41.8"/>
				<g id="Group-57" transform="translate(6.000000, 5.000000)">
					<path id="Fill-683" class="st1" d="M70.9,54.3c-21.1,0-38.3,17.2-38.3,38.3s17.2,38.3,38.3,38.3s38.3-17.2,38.3-38.3
						S92,54.3,70.9,54.3 M70.9,134.4c-23.1,0-41.8-18.8-41.8-41.8c0-23.1,18.8-41.8,41.8-41.8s41.8,18.8,41.8,41.8
						C112.7,115.7,93.9,134.4,70.9,134.4"/>
					<path id="Fill-684" class="st1" d="M58.1,132.6c-0.5,0,0.9-0.2,0.5-0.5c-0.7-0.7-0.6-1.8,0.1-2.5l19.1-19.8
						c0.5-0.5,0.6-1.3,0.3-1.9L62.6,81.1c-1.2-2-0.8-4.6,0.9-6.2l10.1-9.4c0.5-0.5,0.6-1.3,0.3-1.9L68,53.4
						c-0.5-0.8-0.2-1.9,0.6-2.4c0.8-0.5,1.9-0.2,2.4,0.6L77,61.9c1.2,2,0.8,4.6-0.9,6.2l-10.1,9.4c-0.5,0.5-0.6,1.3-0.3,1.9
						l15.4,26.8c1.2,2,0.8,4.6-0.9,6.2l-19.1,19.8c-0.3,0.3-0.8,0.5-1.2,0.5"/>
					<path id="Fill-685" class="st1" d="M51.2,129c-0.3,0-0.6-0.1-0.9-0.2c-0.8-0.5-1.1-1.6-0.6-2.4l7.1-12.3c0.3-0.5,0.3-1.1,0-1.5
						l-3.8-6.7c-1.2-2-0.8-4.6,0.9-6.2l5.8-5.5c0.5-0.5,0.6-1.3,0.3-1.9l-4.3-7.6c-0.3-0.5-0.8-0.8-1.3-0.8H43.6
						c-1.8,0-3.5-1-4.3-2.5l-4.6-7.9c-0.5-0.8-0.2-1.9,0.6-2.4c0.8-0.5,1.9-0.2,2.4,0.6l4.6,7.9c0.3,0.5,0.8,0.8,1.3,0.8h10.6
						c1.8,0,3.5,1,4.4,2.5l4.3,7.6c1.2,2,0.8,4.6-0.9,6.2l-5.8,5.5c-0.5,0.5-0.6,1.3-0.3,1.9l3.8,6.7c0.9,1.6,0.9,3.5,0,5.1
						l-7.1,12.3C52.3,128.6,51.8,129,51.2,129"/>
					<path id="Fill-686" class="st1" d="M109.2,101.7h-7.3c-1.7,0-3.3-1-4.2-2.6l-6.2-11.3c-0.9-1.6-0.9-3.5,0-5.1l8-14.6
						c0.5-0.9,1.5-1.1,2.3-0.7c0.8,0.5,1.1,1.6,0.6,2.4l-8,14.6c-0.3,0.5-0.3,1.1,0,1.5l6.2,11.3c0.3,0.5,0.7,0.8,1.3,0.8h7.3
						c0.9,0,1.7,0.8,1.7,1.8S110.1,101.7,109.2,101.7"/>
					<path id="Fill-687" class="st1" d="M122.1,47.2l6.7,1.7l21.5-12.6l-4.8-8.4l-21.5,12.6L122.1,47.2z M129.1,52.6
						c-0.1,0-0.3,0-0.4-0.1l-9.2-2.3c-0.5-0.1-0.9-0.4-1.1-0.9c-0.2-0.4-0.3-0.9-0.2-1.4l2.7-9.3c0.1-0.4,0.4-0.8,0.8-1.1l23.6-13.9
						c0.8-0.5,1.9-0.2,2.4,0.7l6.5,11.6c0.2,0.4,0.3,0.9,0.2,1.4c-0.1,0.5-0.4,0.9-0.8,1.1L130,52.4
						C129.7,52.5,129.4,52.6,129.1,52.6L129.1,52.6z"/>
					<path id="Fill-688" class="st1" d="M128.6,36.3c-0.6,0-1.2-0.3-1.5-0.9l-14.2-24.5c-0.5-0.8-0.2-1.9,0.7-2.4L124.9,2
						c0.4-0.2,0.9-0.3,1.4-0.2c0.5,0.1,0.8,0.4,1.1,0.8l14.2,24.5c0.5,0.8,0.2,1.9-0.7,2.4c-0.8,0.5-1.9,0.2-2.4-0.6l-13.3-23
						l-8.3,4.7l13.3,23c0.5,0.8,0.2,1.9-0.7,2.4C129.2,36.2,128.9,36.3,128.6,36.3"/>
					<path id="Fill-689" class="st1" d="M107.8,45.6l7.9,13.7c2.7-2.5,3.5-6.7,1.5-10c-1.1-1.9-2.8-3.2-4.9-3.8
						C110.8,45.1,109.2,45.1,107.8,45.6 M115.1,63.5c-0.6,0-1.2-0.3-1.5-0.9l-9.8-17c-0.5-0.8-0.2-1.9,0.6-2.4
						c2.7-1.5,5.8-2,8.8-1.2c3,0.8,5.5,2.7,7,5.4c3.2,5.5,1.3,12.6-4.2,15.8C115.7,63.4,115.4,63.5,115.1,63.5"/>
					<path id="Fill-690" class="st1" d="M102,57.3c-0.5-0.7-0.2-1.7,0.7-2.1l5.3-2.4c0.9-0.4,2.1-0.2,2.6,0.6
						c0.5,0.7,0.2,1.7-0.7,2.1l-5.3,2.4c-0.3,0.1-0.6,0.2-1,0.2C103,58.1,102.4,57.8,102,57.3z"/>
					<path id="Fill-691" class="st1" d="M150.5,74.4c-0.6,0-1.2-0.3-1.5-0.9L134.7,49c-0.5-0.8-0.2-1.9,0.6-2.4
						c0.9-0.5,1.9-0.2,2.4,0.6l13.4,23l8.2-4.7l-13.4-23c-0.5-0.8-0.2-1.9,0.6-2.4c0.8-0.5,1.9-0.2,2.4,0.6l14.2,24.5
						c0.2,0.4,0.3,0.9,0.2,1.3c-0.1,0.5-0.4,0.8-0.8,1.1l-11.3,6.5C151.1,74.3,150.8,74.4,150.5,74.4"/>
					<path id="Fill-692" class="st1" d="M127.1,127.1c-0.6,0-1.2-0.3-1.5-0.9c-0.5-0.8-0.2-1.9,0.6-2.4
						c14.1-8.3,22.9-23.8,22.9-40.4c0-1,0.8-1.8,1.7-1.8c1,0,1.7,0.8,1.7,1.8c0,17.8-9.4,34.5-24.6,43.4
						C127.7,127.1,127.4,127.1,127.1,127.1"/>
					<path id="Fill-692-Copy" class="st1" d="M98.2,49c0.6,0,1.2-0.3,1.5-0.9c0.5-0.8,0.2-1.9-0.6-2.4c-10.4-6.6-12-8-12-22.2
						c0-1-0.8-1.8-1.7-1.8c-1,0-1.7,0.8-1.7,1.8c0,14.1,1.7,18.1,13.7,25.3c0.3,0.2,1.5,0.2,1.8,0.2v-0.2"/>
					<path id="Fill-693" class="st1" d="M27.4,47.2c-0.4,0-0.9-0.2-1.2-0.5l-5.7-5.7c-0.7-0.7-0.7-1.7,0-2.4c0.7-0.7,1.7-0.7,2.4,0
						l5.7,5.7c0.7,0.7,0.7,1.7,0,2.4C28.2,47,27.8,47.2,27.4,47.2"/>
					<path id="Fill-694" class="st1" d="M21.6,47.2c-0.4,0-0.9-0.2-1.2-0.5c-0.7-0.7-0.7-1.7,0-2.4l5.7-5.7c0.7-0.7,1.7-0.7,2.4,0
						c0.7,0.7,0.7,1.7,0,2.4l-5.7,5.7C22.5,47,22.1,47.2,21.6,47.2"/>
					<path id="Fill-695" class="st1" d="M11,69c-0.4,0-0.9-0.2-1.2-0.5l-5.7-5.7c-0.7-0.7-0.7-1.7,0-2.4c0.6-0.7,1.7-0.7,2.4,0
						l5.7,5.7c0.7,0.7,0.7,1.7,0,2.4C11.9,68.8,11.4,69,11,69"/>
					<path id="Fill-696" class="st1" d="M5.3,69c-0.4,0-0.9-0.2-1.2-0.5c-0.7-0.7-0.7-1.7,0-2.4l5.7-5.7c0.7-0.7,1.7-0.7,2.4,0
						c0.7,0.7,0.7,1.7,0,2.4l-5.7,5.7C6.1,68.8,5.7,69,5.3,69"/>
				</g>
				<g class="st2">
					<path class="st1" d="M6,14.8c-1.4,1.5-2.1,2.5-2.1,3.1c0,1.4,2,2.2,6.1,2.2c2.4,0,4.9-0.2,7.3-0.6l0.3,2.1
						c-2.4,0.4-4.9,0.7-7.6,0.7c-5.6,0-8.4-1.4-8.4-4.1c0-1.3,0.9-2.8,2.6-4.6L6,14.8z M9.8,6.7c2.5,0,4.7-0.1,6.5-0.3L17,8.1
						c-2.3,1.2-4.3,2.4-6,3.6l-1.2-1.6c1-0.7,2.1-1.2,3-1.7c-1,0.1-2,0.2-3.1,0.2c-2.7,0-5.1-0.2-7-0.5l0.3-2C5,6.5,7.2,6.7,9.8,6.7
						z"/>
					<path class="st1" d="M30.9,5.2c-1.3,2.6-2.4,5.1-3.5,7.5c0.4-0.5,0.9-0.8,1.3-1c0.5-0.3,1-0.4,1.4-0.4c1,0,1.8,0.4,2.3,1.2
						c0.4,0.7,0.7,1.5,0.7,2.5c0,0.2,0,0.9-0.1,2c0,1.1-0.1,1.7-0.1,1.9c0,0.5,0.2,0.9,0.5,1.1c0.3,0.3,0.8,0.4,1.3,0.4
						c0.9,0,1.6-0.5,2.2-1.4c0.7-1.1,1.2-3.1,1.7-5.8l2.2,0.5c-0.6,3.1-1.3,5.3-2.1,6.6c-0.9,1.5-2.2,2.2-3.9,2.2
						c-1.2,0-2.1-0.3-2.9-1c-0.7-0.7-1.1-1.5-1.1-2.6c0-0.2,0-0.8,0.1-1.9c0-1.1,0.1-1.7,0.1-2c0-1.1-0.4-1.6-1.1-1.6
						c-0.7,0-1.4,0.4-2.2,1.2C26.9,15.2,26.3,16,26,17l-2,5.3l-2.2-0.6c2.5-6.6,4.8-12.3,7-17.2L30.9,5.2z"/>
					<path class="st1" d="M48.7,4.9c-0.8,3.1-1.2,6.2-1.2,9.3c0,2.8,0.4,5.3,1.3,7.4l-2.1,0.8c-1-2.4-1.5-5.2-1.5-8.2
						c0-3.2,0.4-6.5,1.3-9.8L48.7,4.9z M53.6,14.4c-0.8,1.3-1.2,2.3-1.2,3c0,0.7,0.5,1.2,1.5,1.5c0.8,0.3,2.1,0.4,3.8,0.4
						c1.5,0,3.1-0.1,4.8-0.3l0.1,2.2c-2.2,0.2-3.8,0.3-4.9,0.3c-2.5,0-4.4-0.3-5.6-0.9c-1.3-0.6-1.9-1.6-1.9-3
						c0-1.1,0.5-2.5,1.5-4.1L53.6,14.4z M61.6,8.9c-4,0-7.6,0.1-10.9,0.3l-0.3-2.1c3.8-0.3,7.6-0.4,11.4-0.4L61.6,8.9z"/>
					<path class="st1" d="M83.8,8.8C80.4,9,77,9.1,73.3,9.1c0,0,0,0.1,0,0.1c-0.4,1.7-1,3.2-1.6,4.2c2.1-1.2,4.1-1.7,6-1.7
						c1.7,0,3,0.4,4.1,1.3c1.1,0.9,1.7,2.1,1.7,3.6c0,1.6-0.6,2.9-1.8,3.9c-1.4,1.1-3.4,1.7-6.2,1.7c-1.8,0-3.4-0.2-4.9-0.4l0.2-2
						c1.5,0.3,3,0.4,4.7,0.4c2,0,3.5-0.4,4.5-1.1c0.8-0.6,1.2-1.4,1.2-2.4c0-0.9-0.3-1.6-0.9-2.1c-0.7-0.5-1.5-0.8-2.6-0.8
						c-1.2,0-2.6,0.2-3.9,0.7c-1.4,0.5-2.7,1.2-3.9,2.2l-1.5-1.3c1.1-1.4,2-3.3,2.6-5.6l0.1-0.5c-1.6,0-3.1,0-4.8,0V7.2
						c1.8,0,3.6,0,5.2,0C71.7,6,71.9,4.8,72,3.7l2.2,0.1c-0.1,1.2-0.2,2.3-0.4,3.3c3.8-0.1,7.1-0.2,9.9-0.4L83.8,8.8z"/>
					<path class="st1" d="M91.7,4.8c-0.7,3-1,6.3-1,10c0,2.5,0.4,4.8,1.3,6.9l-2,0.7c-1-2.2-1.4-4.7-1.4-7.6c0-3.7,0.3-7.1,1-10.3
						L91.7,4.8z M106.3,9.7c-1.1,0.1-2.3,0.2-3.7,0.3c0.1,2.7,0.2,4.8,0.2,6.3c1.4,0.7,2.8,1.7,4.2,3.1l-1.3,1.6
						c-1.2-1.1-2.3-1.9-3.1-2.4c-0.2,0.7-0.5,1.4-0.9,1.9c-0.9,1-2.1,1.6-3.8,1.6c-1.3,0-2.4-0.3-3.2-0.8c-0.9-0.6-1.4-1.5-1.4-2.7
						c0-1.1,0.4-2,1.2-2.6c0.8-0.7,1.9-1,3.3-1c0.9,0,1.8,0.1,2.7,0.4c0-1.3-0.1-3.1-0.2-5.3c-0.9,0-1.8,0-2.8,0
						c-1.7,0-3.1,0-4.3-0.1l0-2.1c1.4,0.1,2.8,0.1,4.3,0.1c0.9,0,1.8,0,2.7,0c0-1.2-0.1-2.4-0.2-3.8h2.2c0.1,1.3,0.1,2.5,0.2,3.7
						c1.4-0.1,2.6-0.2,3.8-0.3L106.3,9.7z M97.9,17c-0.7,0-1.3,0.2-1.7,0.5c-0.4,0.3-0.6,0.7-0.6,1.2c0,0.6,0.3,1,0.8,1.2
						c0.4,0.2,0.9,0.3,1.5,0.3c0.9,0,1.6-0.3,2.1-0.9c0.3-0.4,0.5-1,0.5-1.7C99.7,17.2,98.8,17,97.9,17z"/>
				</g>
				<g class="st2">
					<path class="st1" d="M10,22.8c-6,0-9-1.6-9-4.8c0-1.5,0.9-3.1,2.8-5l0.4-0.4l2.7,2.1l-0.5,0.5c-1.8,1.9-1.9,2.5-1.9,2.7
						c0,1,2,1.5,5.5,1.5c2.4,0,4.8-0.2,7.2-0.6l0.6-0.1l0.5,3.3l-0.6,0.1C15.3,22.6,12.7,22.8,10,22.8z M4.3,14.3
						c-1.4,1.5-2,2.7-2,3.7c0,2.3,2.6,3.5,7.7,3.5c2.4,0,4.7-0.2,6.9-0.5l-0.1-0.8c-2.3,0.4-4.5,0.5-6.7,0.5c-2.9,0-6.8-0.3-6.8-2.8
						c0-0.7,0.6-1.7,1.8-3.1L4.3,14.3z M10.9,12.7l-2-2.7l0.6-0.4C9.6,9.5,9.8,9.4,10,9.3c-2.8,0-5.3-0.2-7.3-0.5L2,8.7l0.5-3.3
						l0.6,0.1C5,5.9,7.3,6,9.8,6c2.5,0,4.7-0.1,6.4-0.3l0.5,0l1.2,2.7l-0.5,0.3c-2.4,1.3-4.3,2.4-5.9,3.6L10.9,12.7z M10.7,10.3
						l0.4,0.6c1.4-1,3-2,5-3l-0.4-0.8c-1.7,0.1-3.7,0.2-6.1,0.2c-2.3,0-4.4-0.1-6.2-0.4L3.5,7.6C5.3,7.9,7.4,8,9.8,8
						c1,0,2-0.1,3-0.2L13.1,9C12.3,9.4,11.6,9.8,10.7,10.3z"/>
					<path class="st1" d="M34.8,23c-1.3,0-2.4-0.4-3.3-1.2c-0.9-0.8-1.3-1.8-1.3-3.1c0-0.2,0-0.8,0.1-1.9c0-1.1,0.1-1.7,0.1-1.9
						c0-1-0.3-1-0.5-1c-0.5,0-1.1,0.3-1.8,1c-0.7,0.7-1.2,1.4-1.5,2.2L24.4,23l-3.4-0.9l0.3-0.7c2.5-6.7,4.9-12.5,7-17.3l0.2-0.5
						l3.4,1.2l-0.3,0.6c-0.9,1.8-1.7,3.6-2.5,5.4c0.4-0.2,0.8-0.2,1.2-0.2c1.2,0,2.2,0.5,2.8,1.4c0.5,0.8,0.8,1.8,0.8,2.9
						c0,0.2,0,0.9-0.1,2c0,1.1-0.1,1.7-0.1,1.9c0,0.4,0.1,0.5,0.3,0.7c0.2,0.2,0.5,0.3,0.9,0.3c0.6,0,1.2-0.4,1.6-1.1
						c0.6-1,1.2-2.9,1.6-5.6l0.1-0.6l3.5,0.7l-0.1,0.6c-0.6,3.3-1.4,5.5-2.2,6.8C38.3,22.2,36.8,23,34.8,23z M29.9,12.7
						c0.5,0,1.7,0.2,1.7,2.3c0,0.2,0,0.9-0.1,2c0,1.1-0.1,1.7-0.1,1.9c0,0.9,0.3,1.6,0.9,2.2c0.6,0.6,1.5,0.8,2.5,0.8
						c1.5,0,2.6-0.6,3.4-1.9c0.7-1.1,1.4-3,1.9-5.8l-0.9-0.2c-0.5,2.5-1,4.3-1.7,5.4c-0.7,1.1-1.6,1.7-2.7,1.7
						c-0.7,0-1.3-0.2-1.7-0.6c-0.5-0.4-0.7-0.9-0.7-1.6c0-0.2,0-0.8,0.1-1.9c0-1.1,0.1-1.7,0.1-1.9c0-0.9-0.2-1.6-0.6-2.2
						c-0.4-0.6-1-0.9-1.8-0.9c-0.4,0-0.7,0.1-1.1,0.3c-0.4,0.2-0.8,0.5-1.2,0.9l-1.1-0.7c1-2.3,2.1-4.6,3.2-6.9l-0.9-0.3
						c-2,4.5-4.2,9.9-6.5,16l1,0.2l1.8-4.8c0.4-1,1-1.9,1.9-2.7C28.2,13.1,29.1,12.7,29.9,12.7z"/>
					<path class="st1" d="M46.3,23.2l-0.2-0.6c-1-2.5-1.5-5.3-1.5-8.4c0-3.3,0.4-6.6,1.3-10l0.2-0.6l3.4,0.8l-0.2,0.6
						c-0.8,3-1.2,6-1.2,9.1c0,2.7,0.4,5.1,1.3,7.2l0.2,0.6L46.3,23.2z M47,5.2c-0.8,3-1.1,6.1-1.1,9c0,2.7,0.4,5.2,1.2,7.4l0.9-0.3
						c-0.7-2.1-1.1-4.4-1.1-7c0-3,0.4-5.9,1.1-8.8L47,5.2z M57.6,22.1c-2.6,0-4.5-0.3-5.9-0.9c-1.5-0.7-2.3-2-2.3-3.6
						c0-1.2,0.5-2.7,1.5-4.5l0.3-0.5l3.2,1.6l-0.4,0.6C53.3,16,53,16.9,53,17.5c0,0.4,0.3,0.6,1,0.9c0.6,0.2,1.6,0.4,3.6,0.4
						c1.4,0,2.9-0.1,4.8-0.3l0.7-0.1l0.2,3.5l-0.6,0C60.3,22,58.7,22.1,57.6,22.1z M51.8,14.3c-0.7,1.3-1.1,2.4-1.1,3.3
						c0,1.1,0.5,1.9,1.6,2.4c1.1,0.5,2.9,0.8,5.3,0.8c1,0,2.4-0.1,4.3-0.2l0-0.9c-1.6,0.2-3,0.2-4.2,0.2c-1.7,0-3-0.1-4-0.4
						c-1.7-0.5-1.9-1.5-1.9-2.1c0-0.8,0.3-1.7,1-2.8L51.8,14.3z M50.1,9.9l-0.5-3.4l0.7,0c3.8-0.3,7.6-0.4,11.4-0.4h0.7l-0.2,3.4
						h-0.6c-4.1,0-7.7,0.1-10.9,0.3L50.1,9.9z M51,7.7l0.1,0.8c2.9-0.2,6.2-0.3,9.8-0.3L61,7.4C57.7,7.4,54.3,7.5,51,7.7z"/>
					<path class="st1" d="M75.5,22.8c-1.8,0-3.4-0.1-5-0.4l-0.6-0.1l0.3-3.3l0.7,0.1c1.5,0.3,3,0.4,4.6,0.4c1.9,0,3.3-0.3,4.2-1
						c0.6-0.5,0.9-1.1,0.9-1.9c0-0.7-0.2-1.2-0.7-1.6c-0.5-0.4-1.2-0.6-2.2-0.6c-1.2,0-2.4,0.2-3.7,0.7c-1.4,0.5-2.6,1.2-3.8,2.1
						l-0.4,0.3l-2.4-2.1l0.4-0.5c1-1.2,1.8-2.9,2.4-5.1c-0.5,0-1,0-1.5,0c-0.8,0-1.6,0-2.4,0h-0.6V6.5h0.6c0.9,0,1.9,0,2.7,0
						c0.7,0,1.3,0,2,0c0.2-0.9,0.3-1.9,0.4-2.9L71.4,3l3.4,0.2l-0.1,0.7c-0.1,1-0.2,1.8-0.3,2.6c3.4-0.1,6.5-0.2,9.1-0.4l0.6,0
						l0.2,3.3l-0.6,0c-2.8,0.1-5.9,0.3-10,0.4c-0.2,0.9-0.5,1.6-0.8,2.3c1.6-0.7,3.1-1,4.6-1c1.8,0,3.3,0.5,4.5,1.4
						c1.3,1,1.9,2.4,1.9,4.1c0,1.8-0.7,3.3-2,4.4C80.5,22.2,78.3,22.8,75.5,22.8z M71.3,21.3c1.3,0.2,2.7,0.3,4.2,0.3
						c2.5,0,4.5-0.5,5.8-1.5c1-0.8,1.5-2,1.5-3.4c0-1.3-0.5-2.3-1.4-3.1c-0.9-0.8-2.1-1.1-3.7-1.1c-1.8,0-3.7,0.6-5.7,1.7l-2.1,1.2
						l1.2-2.1c0.6-1,1.1-2.3,1.5-4c0,0,0-0.1,0-0.1V8.5l0.6,0c4-0.1,7-0.2,9.8-0.3l0-0.8c-2.7,0.2-5.8,0.3-9.3,0.4l-0.8,0L73.1,7
						c0.1-0.8,0.2-1.6,0.3-2.6l-0.9-0.1c-0.1,1-0.2,2-0.4,2.9l-0.1,0.5h-0.5c-0.8,0-1.6,0-2.5,0c-0.7,0-1.4,0-2.1,0v0.8
						c0.6,0,1.2,0,1.8,0c0.8,0,1.6,0,2.3,0h0.8l-0.3,1.3c-0.6,2.2-1.4,4-2.4,5.4l0.7,0.6c1.2-0.8,2.4-1.5,3.7-1.9
						c1.4-0.5,2.8-0.8,4.1-0.8c1.2,0,2.2,0.3,3,0.9c0.8,0.7,1.2,1.5,1.2,2.6c0,1.2-0.5,2.2-1.4,2.9c-1.1,0.8-2.7,1.2-4.9,1.2
						c-1.4,0-2.8-0.1-4.1-0.3L71.3,21.3z"/>
					<path class="st1" d="M89.6,23.1l-0.2-0.5c-1-2.2-1.5-4.9-1.5-7.8c0-3.8,0.3-7.3,1-10.5L89,3.7l3.4,0.5l-0.1,0.7
						c-0.6,3-1,6.3-1,9.9c0,2.5,0.4,4.7,1.2,6.6l0.3,0.6L89.6,23.1z M90,5.2c-0.6,2.9-0.9,6.2-0.9,9.6c0,2.6,0.4,4.8,1.1,6.8
						l0.8-0.3c-0.7-1.9-1.1-4.1-1.1-6.5c0-3.4,0.3-6.6,0.9-9.5L90,5.2z M98,22.8c-1.4,0-2.6-0.3-3.5-0.9c-1.1-0.7-1.7-1.8-1.7-3.2
						c0-1.3,0.5-2.4,1.5-3.1c0.9-0.7,2.1-1.1,3.6-1.1c0.7,0,1.3,0.1,2,0.2c0-1.1-0.1-2.3-0.1-3.8c-0.7,0-1.4,0-2.2,0
						c-1.7,0-3.2,0-4.3-0.1l-0.6,0l0-3.4l0.7,0c2.3,0.1,4.4,0.1,6.3,0.1c0-0.7-0.1-1.4-0.1-2.2l-0.1-1.6h3.5l0.1,1.4
						c0,0.8,0.1,1.5,0.1,2.2c1.2-0.1,2.2-0.2,3.1-0.3l0.7-0.1l0,3.4l-0.6,0.1c-0.9,0.1-2,0.2-3.1,0.3c0.1,2.2,0.1,4,0.2,5.4
						c1.3,0.7,2.7,1.8,4,3l0.4,0.4l-2.1,2.6l-0.5-0.4c-0.9-0.8-1.7-1.4-2.3-1.9c-0.2,0.5-0.4,0.9-0.7,1.3
						C101.3,22.2,99.9,22.8,98,22.8z M97.9,15.7c-1.2,0-2.2,0.3-2.9,0.8c-0.7,0.5-1,1.2-1,2.1c0,1,0.4,1.7,1.1,2.2
						c0.7,0.5,1.7,0.7,2.8,0.7c1.5,0,2.6-0.4,3.3-1.3c0.3-0.4,0.6-1,0.7-1.7l0.2-0.9l0.8,0.5c0.7,0.5,1.5,1.1,2.6,2.1l0.5-0.6
						c-1.2-1.1-2.4-2-3.6-2.6l-0.3-0.2l0-0.4c0-1.5-0.1-3.6-0.2-6.3l0-0.6l0.6,0c1.1-0.1,2.2-0.2,3.1-0.3l0-0.8
						c-0.9,0.1-1.9,0.2-3.1,0.3l-0.6,0l0-0.7c0-0.9-0.1-1.9-0.1-2.9l0-0.2h-0.9l0,0.3c0,1,0.1,1.9,0.1,2.8l0,0.6l-0.6,0
						c-2,0.1-4,0.1-6.4,0l0,0.8c1,0,2.3,0.1,3.7,0.1c1,0,1.9,0,2.8,0l0.6,0l0,0.6c0.1,2.2,0.2,4,0.2,5.3l0,0.9l-0.9-0.3
						C99.6,15.8,98.7,15.7,97.9,15.7z M98,20.8c-0.7,0-1.3-0.1-1.8-0.3c-0.8-0.3-1.2-0.9-1.2-1.8c0-0.7,0.3-1.3,0.9-1.7
						c0.5-0.4,1.1-0.6,2-0.6c0.9,0,1.9,0.2,2.9,0.6l0.5,0.2l-0.1,0.5c-0.1,0.8-0.3,1.4-0.6,1.9C100.2,20.1,99.4,20.8,98,20.8z
						 M97.9,17.7c-0.6,0-1,0.1-1.3,0.3c-0.3,0.2-0.4,0.4-0.4,0.7c0,0.3,0.1,0.5,0.4,0.6c0.3,0.1,0.7,0.2,1.3,0.2
						c0.7,0,1.2-0.2,1.5-0.7c0.1-0.2,0.3-0.5,0.3-0.9C99.2,17.8,98.5,17.7,97.9,17.7z"/>
				</g>
			</g>
		</g>
	</g>
</g>
</svg>
