<svg xmlns="http://www.w3.org/2000/svg" width="54.72" height="73.59" viewBox="0 0 54.72 73.59"><defs><style>.\35 d65cac3-18ab-4b4a-b6e1-0f8a392cef93{fill:#2e3f8f;}.e1380211-ed5a-41ec-a444-9e9230091948{fill:#d1d7f4;}</style></defs><title>md_file</title><g id="53c27eba-9247-473d-b204-37ba47f8dcc6" data-name="Layer 2"><g id="e0d26f3e-1fc5-4b94-9c60-fffb899be41d" data-name="Layer 1"><path class="5d65cac3-18ab-4b4a-b6e1-0f8a392cef93" d="M53.72,0,18.48,0h-.07a1,1,0,0,0-.26.05l-.1,0a1,1,0,0,0-.29.19L.35,17.68a1,1,0,0,0-.28.84s0,0,0,.07L0,72.53a1,1,0,0,0,1,1l52.64.06h0a1,1,0,0,0,1-1L54.72,1A1,1,0,0,0,53.72,0ZM17.48,3.41v14h-14ZM52.64,71.59,2,71.53l.06-51.94,16.4,0h0a1,1,0,0,0,1-1v-.2h0l0-14.64V2L52.72,2Z"/><path class="e1380211-ed5a-41ec-a444-9e9230091948" d="M39.16,68.84a1,1,0,0,1,0-2l8.74-.1,0-8.47a1,1,0,0,1,1-1h0a1,1,0,0,1,1,1l0,9.45a1,1,0,0,1-1,1l-9.72.11Z"/><path class="5d65cac3-18ab-4b4a-b6e1-0f8a392cef93" d="M16.87,43.26a1,1,0,0,1,.26-.74,1.07,1.07,0,0,1,.77-.25,1,1,0,0,1,.75.26,1.14,1.14,0,0,1,0,1.47,1,1,0,0,1-.75.27,1.05,1.05,0,0,1-.76-.26A1,1,0,0,1,16.87,43.26Z"/><path class="5d65cac3-18ab-4b4a-b6e1-0f8a392cef93" d="M26.41,44.09H24.63V40.27a1.93,1.93,0,0,0-.24-1.06.83.83,0,0,0-.75-.35,1.08,1.08,0,0,0-1,.5A3.31,3.31,0,0,0,22.33,41v3.08H20.55V37.54h1.37l.24.84h.1a1.82,1.82,0,0,1,.76-.71,2.47,2.47,0,0,1,1.14-.25,2.06,2.06,0,0,1,2,1h.16a1.77,1.77,0,0,1,.78-.71,2.59,2.59,0,0,1,1.16-.25,2.28,2.28,0,0,1,1.68.57,2.51,2.51,0,0,1,.57,1.83v4.27H28.7V40.27a1.93,1.93,0,0,0-.24-1.06.83.83,0,0,0-.75-.35,1.11,1.11,0,0,0-1,.47,2.66,2.66,0,0,0-.33,1.49Z"/><path class="5d65cac3-18ab-4b4a-b6e1-0f8a392cef93" d="M34.4,44.21a2.13,2.13,0,0,1-1.81-.9,4.12,4.12,0,0,1-.66-2.48,4.13,4.13,0,0,1,.67-2.51,2.18,2.18,0,0,1,1.85-.9,2.14,2.14,0,0,1,1.89,1h.06a7.31,7.31,0,0,1-.13-1.31V35h1.79v9.12H36.68l-.35-.85h-.08A2,2,0,0,1,34.4,44.21ZM35,42.79a1.21,1.21,0,0,0,1-.4A2.32,2.32,0,0,0,36.38,41v-.19a2.68,2.68,0,0,0-.33-1.51A1.21,1.21,0,0,0,35,38.87a1,1,0,0,0-.93.51,2.7,2.7,0,0,0-.33,1.47,2.56,2.56,0,0,0,.33,1.45A1.09,1.09,0,0,0,35,42.79Z"/></g></g></svg>