<svg xmlns="http://www.w3.org/2000/svg" width="51.55" height="48.16" viewBox="0 0 51.55 48.16"><defs><style>.dc18212d-6eab-497a-86fa-0854b9723ec7{fill:none;stroke:#8c9696;stroke-linecap:round;stroke-linejoin:round;stroke-width:2px;}</style></defs><title>Asset 11</title><g id="1ebe6ad2-8fb1-4198-af03-06b7a8572f37" data-name="Layer 2"><g id="530d6a79-7822-4c19-a0f1-264fb9e64de1" data-name="Layer 1"><polyline class="dc18212d-6eab-497a-86fa-0854b9723ec7" points="33.42 47.16 37.8 47.16 37.8 42.51"/><line class="dc18212d-6eab-497a-86fa-0854b9723ec7" x1="29.3" y1="47.16" x2="30.6" y2="47.16"/><polyline class="dc18212d-6eab-497a-86fa-0854b9723ec7" points="37.8 39.46 37.8 25.59 36.14 25.59 34.82 22.62 28.13 22.62 26.82 25.59 8.8 25.59 8.8 47.16 26.74 47.16"/><line class="dc18212d-6eab-497a-86fa-0854b9723ec7" x1="23.3" y1="32.28" x2="23.3" y2="38.98"/><line class="dc18212d-6eab-497a-86fa-0854b9723ec7" x1="26.64" y1="35.63" x2="19.95" y2="35.63"/><polygon class="dc18212d-6eab-497a-86fa-0854b9723ec7" points="50.55 20.26 47.01 17.51 49.76 13.96 50.55 20.26"/><polyline class="dc18212d-6eab-497a-86fa-0854b9723ec7" points="44.2 28.44 50.55 20.26 50.32 18.37 49.76 13.96 49.76 13.96 49.76 13.96 38.62 5.31 26.53 20.89"/><line class="dc18212d-6eab-497a-86fa-0854b9723ec7" x1="40.2" y1="33.59" x2="42.36" y2="30.81"/><polygon class="dc18212d-6eab-497a-86fa-0854b9723ec7" points="19.92 11.98 15.76 13.66 14.08 9.5 19.92 11.98"/><polyline class="dc18212d-6eab-497a-86fa-0854b9723ec7" points="24.21 22.61 19.92 11.98 18.17 11.23 14.08 9.5 14.08 9.5 14.08 9.5 1 14.77 6.34 28.02"/><polygon class="dc18212d-6eab-497a-86fa-0854b9723ec7" points="33.82 5.06 29.36 5.47 28.95 1 33.82 5.06"/><polyline class="dc18212d-6eab-497a-86fa-0854b9723ec7" points="33.99 6.88 33.82 5.06 32.36 3.84 28.95 1 28.95 1 28.95 1 14.9 2.29 15.37 7.37"/></g></g></svg>