<svg xmlns="http://www.w3.org/2000/svg" viewBox="0 0 181.33 189.34"><defs><style>.cls-1{fill:#e1ebf7;opacity:0.3;}.cls-2{fill:#b0bef3;}.cls-3,.cls-4,.cls-8{fill:#fff;}.cls-3,.cls-6{stroke:#b0bef3;}.cls-3,.cls-5,.cls-6,.cls-7,.cls-8{stroke-linecap:round;}.cls-3,.cls-4,.cls-6,.cls-7,.cls-8{stroke-linejoin:round;stroke-width:2px;}.cls-4{stroke:#2e3f8f;}.cls-5,.cls-6,.cls-7{fill:none;}.cls-5{stroke:#ffb000;stroke-miterlimit:10;stroke-width:3px;}.cls-7,.cls-8{stroke:#d1d7f4;}.cls-9{fill:#2e3f8f;}</style></defs><title>Asset 20</title><g id="Layer_2" data-name="Layer 2"><g id="Layer_1-2" data-name="Layer 1"><path class="cls-1" d="M32.22,153.83a18.17,18.17,0,0,1,11,3.66v.06a19.73,19.73,0,0,1,37.91,3l.37-1.08a19.75,19.75,0,0,1,19.74,19.62h10.26s0-.09,0-.13a8.11,8.11,0,0,1,15.27-3.83,15.41,15.41,0,0,1,30.42-3.06,90.66,90.66,0,1,0-140.59-9.35A18.22,18.22,0,0,1,32.22,153.83Z"/><path class="cls-1" d="M149.91,179.09h-.41v.34Z"/><circle class="cls-2" cx="133.67" cy="54.4" r="1.83"/><circle class="cls-2" cx="143.98" cy="94.23" r="1.83"/><circle class="cls-2" cx="53.05" cy="120.92" r="1.83"/><polygon class="cls-3" points="30.73 82.88 20.67 91.83 33.45 96.07 30.73 82.88"/><polygon class="cls-4" points="118.64 126.66 66.45 133.47 59.46 79.99 76.72 77.73 74.44 60.27 109.38 55.71 118.64 126.66"/><polygon class="cls-4" points="74.44 60.27 76.69 77.53 59.44 79.78 74.44 60.27"/><line class="cls-5" x1="88.92" y1="16.35" x2="93.93" y2="51.86"/><line class="cls-5" x1="86.83" y1="1.5" x2="88.07" y2="10.27"/><line class="cls-5" x1="61.39" y1="29.54" x2="63.15" y2="42.06"/><line class="cls-5" x1="60.09" y1="20.35" x2="60.53" y2="23.44"/><line class="cls-5" x1="101.14" y1="38.53" x2="104.74" y2="64.06"/><line class="cls-5" x1="99.45" y1="26.57" x2="100.33" y2="32.83"/><path class="cls-6" d="M42.61,169.34a19.75,19.75,0,1,1,32.09,9.88"/><path class="cls-6" d="M44.21,173.48q-.39-.74-.71-1.51"/><path class="cls-6" d="M14.18,174.84a18.27,18.27,0,0,1,18-21,18.17,18.17,0,0,1,11,3.66"/><path class="cls-6" d="M126.73,175.07a7.51,7.51,0,0,0-7.13-4.23,8.12,8.12,0,0,0-8.12,8.13q0,.13,0,.26H101.22c0-10.91-9.46-19.75-20.36-19.75"/><path class="cls-6" d="M157.17,179.09a15.43,15.43,0,1,0-30,0"/><line class="cls-6" x1="127.67" y1="138.04" x2="136" y2="145.95"/><path class="cls-7" d="M72.68,174.84a15.39,15.39,0,0,0,.63-20"/><path class="cls-7" d="M135.52,186.32a11.86,11.86,0,0,0,14-19.15"/><path class="cls-7" d="M37.66,159.39a24.72,24.72,0,0,0,1,13.34"/><polyline class="cls-8" points="112.08 113.09 113.29 122.47 103.67 123.84"/><path class="cls-9" d="M75,104.16a1,1,0,0,1,.18-.77,1.07,1.07,0,0,1,.74-.33,1,1,0,0,1,.78.17,1.14,1.14,0,0,1,.16,1.46,1,1,0,0,1-.72.35,1.05,1.05,0,0,1-.79-.18A1,1,0,0,1,75,104.16Z"/><path class="cls-9" d="M82.31,104.32a2.17,2.17,0,0,1-1.89-.64h-.09q.18.81.2.93l.29,2.64-1.78.19-1-9.38,1.44-.16.34.82h.08a2.07,2.07,0,0,1,1.74-1.17,2.13,2.13,0,0,1,1.9.69,4.15,4.15,0,0,1,.92,2.4,4.92,4.92,0,0,1-.11,1.84,2.56,2.56,0,0,1-.74,1.27A2.24,2.24,0,0,1,82.31,104.32ZM81.2,99a1.13,1.13,0,0,0-.92.51,2.34,2.34,0,0,0-.17,1.37l0,.19a2.76,2.76,0,0,0,.48,1.47,1.12,1.12,0,0,0,1,.35q1.19-.13,1-2.1a2.83,2.83,0,0,0-.45-1.41A1,1,0,0,0,81.2,99Z"/><path class="cls-9" d="M89.23,103.56a3.38,3.38,0,0,1-2.55-.6,3.31,3.31,0,0,1-1.15-2.36A3.64,3.64,0,0,1,86.06,98a2.93,2.93,0,0,1,2.16-1.14,2.89,2.89,0,0,1,2.24.55,3,3,0,0,1,1,2.09l.09.86-4.2.46a1.72,1.72,0,0,0,.58,1.13,1.59,1.59,0,0,0,1.22.3,4.91,4.91,0,0,0,1.1-.24,5.6,5.6,0,0,0,1.05-.51l.15,1.37a4.2,4.2,0,0,1-1,.46A6.32,6.32,0,0,1,89.23,103.56Zm-.85-5.46a1.13,1.13,0,0,0-.85.46,1.67,1.67,0,0,0-.26,1.06l2.49-.27a1.49,1.49,0,0,0-.46-1A1.17,1.17,0,0,0,88.37,98.1Z"/><path class="cls-9" d="M99.14,102.35l-1.78.19-.42-3.8a1.93,1.93,0,0,0-.35-1,.83.83,0,0,0-.78-.27,1.08,1.08,0,0,0-.94.61,3.31,3.31,0,0,0-.13,1.68l.34,3.06-1.78.19-.71-6.51L94,96.33l.33.81h.1a1.82,1.82,0,0,1,.68-.78A2.47,2.47,0,0,1,96.17,96a2.06,2.06,0,0,1,2.09.74l.16,0a1.77,1.77,0,0,1,.69-.79,2.59,2.59,0,0,1,1.12-.38,2.28,2.28,0,0,1,1.74.38,2.51,2.51,0,0,1,.77,1.76l.47,4.25-1.78.2L101,98.3a1.93,1.93,0,0,0-.35-1,.83.83,0,0,0-.78-.27,1.11,1.11,0,0,0-.92.57,2.66,2.66,0,0,0-.16,1.51Z"/></g></g></svg>
