<svg xmlns="http://www.w3.org/2000/svg" viewBox="0 0 54.72 73.59"><defs><style>.cls-1,.cls-2{fill:#fff;stroke-linejoin:round;stroke-width:2px;}.cls-1{stroke:#2e3f8f;}.cls-2{stroke:#d1d7f4;stroke-linecap:round;}.cls-3{fill:#2e3f8f;}</style></defs><title>qry_file</title><g id="Layer_2" data-name="Layer 2"><g id="Layer_1-2" data-name="Layer 1"><polygon class="cls-1" points="53.64 72.59 1 72.53 1.06 18.59 18.46 18.61 18.48 1 53.72 1.04 53.64 72.59"/><polygon class="cls-1" points="18.48 1 18.46 18.4 1.06 18.39 18.48 1"/><polyline class="cls-2" points="48.91 58.28 48.88 67.74 39.16 67.84"/><path class="cls-3" d="M16.4,43.26a1,1,0,0,1,.26-.74,1.07,1.07,0,0,1,.77-.25,1,1,0,0,1,.75.26,1.14,1.14,0,0,1,0,1.47,1,1,0,0,1-.75.27,1.05,1.05,0,0,1-.76-.26A1,1,0,0,1,16.4,43.26Z"/><path class="cls-3" d="M22.15,44.21a2.13,2.13,0,0,1-1.82-.89,4.13,4.13,0,0,1-.66-2.49,4.13,4.13,0,0,1,.67-2.51,2.17,2.17,0,0,1,1.84-.9,2.37,2.37,0,0,1,1.08.23,2.26,2.26,0,0,1,.81.73h0l.16-.84H25.8V47H24V44.23a8.67,8.67,0,0,1,.08-1H24a1.9,1.9,0,0,1-.76.72A2.35,2.35,0,0,1,22.15,44.21Zm.64-1.4a1.21,1.21,0,0,0,1-.39,2.33,2.33,0,0,0,.35-1.36v-.22a2.68,2.68,0,0,0-.33-1.51,1.19,1.19,0,0,0-1-.46q-1.26,0-1.26,2a2.75,2.75,0,0,0,.31,1.47A1.08,1.08,0,0,0,22.79,42.81Z"/><path class="cls-3" d="M31.32,37.42a2.88,2.88,0,0,1,.6.05l-.13,1.68a2,2,0,0,0-.53-.06,1.9,1.9,0,0,0-1.33.44,1.59,1.59,0,0,0-.48,1.23v3.33H27.67V37.54H29l.26,1.1h.09a2.46,2.46,0,0,1,.82-.89A2,2,0,0,1,31.32,37.42Z"/><path class="cls-3" d="M32.18,37.54h2l1.24,3.69a5.11,5.11,0,0,1,.22,1.14h0a5,5,0,0,1,.25-1.14l1.21-3.69H39l-2.77,7.39a3.2,3.2,0,0,1-1.09,1.54A2.74,2.74,0,0,1,33.5,47a4.15,4.15,0,0,1-.91-.1V45.46a3.05,3.05,0,0,0,.7.08,1.27,1.27,0,0,0,.83-.29,1.88,1.88,0,0,0,.55-.88l.11-.32Z"/></g></g></svg>