<?xml version="1.0" encoding="UTF-8"?>
<svg width="24px" height="24px" viewBox="0 0 24 24" version="1.1" xmlns="http://www.w3.org/2000/svg" xmlns:xlink="http://www.w3.org/1999/xlink">
    <!-- Generator: Sketch 46.2 (44496) - http://www.bohemiancoding.com/sketch -->
    <desc>Created with Sketch.</desc>
    <defs></defs>
    <g id="v1.1" stroke="none" stroke-width="1" fill="none" fill-rule="evenodd">
        <g id="Transaction-Registry-Copy-28" transform="translate(-988.000000, -113.000000)">
            <g id="question" transform="translate(988.000000, 113.000000)">
                <circle id="Oval" fill="#8C9696" cx="12" cy="12" r="12"></circle>
                <path d="M11.0473633,13.6845703 L11.0473633,13.1787109 C11.0473633,12.7412088 11.1407868,12.3606787 11.3276367,12.0371094 C11.5144866,11.71354 11.8562801,11.369468 12.3530273,11.0048828 C12.8315454,10.6630842 13.1471347,10.3850922 13.2998047,10.1708984 C13.4524747,9.95670466 13.5288086,9.71744924 13.5288086,9.453125 C13.5288086,9.15689956 13.4194347,8.93131588 13.2006836,8.77636719 C12.9819325,8.6214185 12.676597,8.54394531 12.284668,8.54394531 C11.6010708,8.54394531 10.8217817,8.76725037 9.94677734,9.21386719 L9.20166016,7.71679688 C10.2179413,7.14713257 11.29573,6.86230469 12.4350586,6.86230469 C13.3738654,6.86230469 14.1201144,7.08788837 14.6738281,7.5390625 C15.2275418,7.99023663 15.5043945,8.59179312 15.5043945,9.34375 C15.5043945,9.84505459 15.3904634,10.277993 15.1625977,10.6425781 C14.9347319,11.0071633 14.5017936,11.4173154 13.8637695,11.8730469 C13.4262673,12.1966162 13.1494146,12.4427075 13.0332031,12.6113281 C12.9169916,12.7799488 12.8588867,13.0009752 12.8588867,13.2744141 L12.8588867,13.6845703 L11.0473633,13.6845703 Z M10.8286133,16.0224609 C10.8286133,15.6396465 10.9311513,15.3502614 11.1362305,15.1542969 C11.3413096,14.9583324 11.6398092,14.8603516 12.0317383,14.8603516 C12.4099954,14.8603516 12.7027984,14.960611 12.9101562,15.1611328 C13.1175141,15.3616546 13.2211914,15.6487612 13.2211914,16.0224609 C13.2211914,16.3824888 13.1163747,16.6661773 12.9067383,16.8735352 C12.6971018,17.080893 12.4054381,17.1845703 12.0317383,17.1845703 C11.6489239,17.1845703 11.3527029,17.0831716 11.1430664,16.8803711 C10.9334299,16.6775706 10.8286133,16.3916034 10.8286133,16.0224609 Z" id="?" fill="#FFFFFF"></path>
            </g>
        </g>
    </g>
</svg>