<?xml version="1.0" encoding="UTF-8"?>
<svg width="20px" height="20px" viewBox="0 0 20 20" version="1.1" xmlns="http://www.w3.org/2000/svg" xmlns:xlink="http://www.w3.org/1999/xlink">
    <!-- Generator: Sketch 42 (36781) - http://www.bohemiancoding.com/sketch -->
    <title>rocket</title>
    <desc>Created with Sketch.</desc>
    <defs></defs>
    <g id="v4.1" stroke="none" stroke-width="1" fill="none" fill-rule="evenodd">
        <g id="Fabric-Composer-Playground-Define-2-Copy-74" transform="translate(-45.000000, -920.000000)" fill-rule="nonzero" fill="#19273C">
            <g id="Group-6" transform="translate(45.000000, 915.000000)">
                <g id="rocket" transform="translate(0.000000, 5.000000)">
                    <path d="M17.2194086,3.90302214 C17.2194086,4.53679214 16.7052179,5.05098286 16.0714479,5.05098286 C15.4376779,5.05098286 14.9234871,4.53679214 14.9234871,3.90302214 C14.9234871,3.26925286 15.4376779,2.75506214 16.0714479,2.75506214 C16.7052179,2.75506214 17.2194086,3.26925286 17.2194086,3.90302214 Z M19.8979829,0.459140714 C19.8979829,0.243897857 19.7066564,0.0764871429 19.4914136,0.0764871429 C15.3300564,0.0764871429 13.0460936,1.03312071 10.0566129,4.01064357 C9.37501143,4.70420357 8.66949357,5.49342643 7.95201857,6.34243857 L3.41996571,6.58159714 C3.30038643,6.593555 3.18080714,6.66530286 3.10906,6.77292357 L0.430485,11.3647657 C0.34678,11.5082614 0.370695714,11.6995879 0.490275,11.831125 L1.25558214,12.5964321 C1.32732929,12.6681793 1.43495071,12.7040536 1.53061429,12.7040536 C1.56648786,12.7040536 1.60236143,12.7040536 1.63823571,12.6920957 L4.93862214,11.6756721 L8.29879786,15.0358486 L7.282375,18.336235 C7.24650071,18.4677721 7.282375,18.6112671 7.37803786,18.7188886 L8.143345,19.4841957 C8.22705071,19.5559429 8.32271429,19.5918164 8.41837714,19.5918164 C8.490125,19.5918164 8.54991429,19.5798586 8.60970429,19.543985 L13.2015464,16.86541 C13.3091679,16.7936629 13.380915,16.6740836 13.3928729,16.5545043 L13.6320314,12.0224514 C14.4810443,11.3049764 15.2702671,10.5994593 15.9638264,9.91785714 C18.7978543,7.07187214 19.8979829,4.42917071 19.8979829,0.459140714 Z" id="Shape"></path>
                </g>
            </g>
        </g>
    </g>
</svg>