<?xml version="1.0" encoding="UTF-8"?>
<svg width="16px" height="16px" viewBox="0 0 16 16" version="1.1" xmlns="http://www.w3.org/2000/svg" xmlns:xlink="http://www.w3.org/1999/xlink">
    <!-- Generator: Sketch 42 (36781) - http://www.bohemiancoding.com/sketch -->
    <title>Page 1</title>
    <desc>Created with Sketch.</desc>
    <defs></defs>
    <g id="v4.1" stroke="none" stroke-width="1" fill="none" fill-rule="evenodd">
        <g id="Fabric-Composer-Playground-Define-2-Copy-75" transform="translate(-53.000000, -926.000000)">
            <g id="Group-8" transform="translate(53.000000, 924.000000)">
                <g id="Page-1" transform="translate(0.000000, 2.000000)">
                    <polygon id="Stroke-1" stroke-opacity="0.00784313771" stroke="#000000" stroke-width="1.33333335e-11" points="0 0 15.999999 0 15.999999 15.999999 0 15.999999"></polygon>
                    <polygon id="Fill-2" fill="#19273C" points="15 10 15 8 13 8 13 10 11 10 11 8 9 8 9 10 0 10 0 16 16 16 16 10"></polygon>
                    <polygon id="Fill-3" fill="#19273C" points="8 2 7 2 7 0 5 0 5 2 3 2 3 0 1 0 1 2 0 2 0 8 8 8"></polygon>
                </g>
            </g>
        </g>
    </g>
</svg>