<svg id="Layer_2" data-name="Layer 2" xmlns="http://www.w3.org/2000/svg" viewBox="0 0 756.62 517.89"><defs><style>.cls-1{fill:#fff;}</style></defs><title>SimpleDockerIcon</title><path class="cls-1" d="M660.62,192.6c4.5-33-57-85.5-57-85.5s-55.5,60-12,133.49c-13.5,19.5-28.5,18-58.5,21H1.16s-35,256.29,280,256.29c292.49-14.8,361.48-248,361.48-248,88.23,10.24,114-62.29,114-62.29S717.62,180.6,660.62,192.6ZM206.9,401.47A22.13,22.13,0,1,1,229,379.34,22.13,22.13,0,0,1,206.9,401.47Z"/><rect class="cls-1" x="96.03" y="130.49" width="119.99" height="119.99"/><rect class="cls-1" x="229.03" y="130.49" width="119.99" height="119.99"/><rect class="cls-1" x="362.02" y="130.49" width="119.99" height="119.99"/><rect class="cls-1" x="229.03" width="119.99" height="119.99"/></svg>