<?xml version="1.0" encoding="UTF-8"?>
<svg width="16px" height="20px" viewBox="0 0 16 20" version="1.1" xmlns="http://www.w3.org/2000/svg" xmlns:xlink="http://www.w3.org/1999/xlink">
    <!-- Generator: Sketch 42 (36781) - http://www.bohemiancoding.com/sketch -->
    <title>stack overflow</title>
    <desc>Created with Sketch.</desc>
    <defs></defs>
    <g id="v4.1" stroke="none" stroke-width="1" fill="none" fill-rule="evenodd">
        <g id="Fabric-Composer-Playground-Define-2-Copy-74" transform="translate(-48.000000, -849.000000)" fill-rule="nonzero" fill="#19273C">
            <g id="Group-7" transform="translate(48.000000, 844.000000)">
                <g id="stack-overflow" transform="translate(0.000000, 5.000000)">
                    <path d="M10.0230535,15.1317865 L2.38695548,15.1425871 L2.38695548,16.7734935 L10.0230535,16.7626929 L10.0230535,15.1317865 Z M12.6260232,11.3947426 L11.3299387,11.3947426 L11.3299387,18.0695781 L1.30688516,18.0695781 L1.30688516,11.3947426 L0,11.3947426 L0,19.3440613 L0.0108006452,19.3440613 C0.0108006452,19.3440613 0.0108006452,19.3548619 0.388825161,19.3548619 L12.6152226,19.3548619 L12.6152226,19.3440613 C12.6152226,19.3440613 12.6260232,19.3440613 12.6260232,18.9660361 L12.6260232,11.3947426 Z M2.60296968,12.3452045 L2.45176,13.9653103 L10.0662561,14.6673561 L10.2066652,13.0472503 L2.60296968,12.3452045 Z M3.33741742,8.93218194 L2.91619032,10.5090852 L10.293071,12.4856142 L10.7142987,10.908711 L3.33741742,8.93218194 Z M5.09793226,5.16273677 L4.26627806,6.56682774 L10.8439071,10.4550813 L11.6755613,9.05098968 L5.09793226,5.16273677 Z M8.98618581,1.58770323 L7.63609806,2.51656387 L11.9455787,8.82417548 L13.2848658,7.90611548 L8.98618581,1.58770323 Z M13.8789045,0 L12.2696,0.280818065 L13.5764852,7.80890903 L15.1857897,7.52809097 L13.8789045,0 Z" id="Shape"></path>
                </g>
            </g>
        </g>
    </g>
</svg>