<svg xmlns="http://www.w3.org/2000/svg" xmlns:xlink="http://www.w3.org/1999/xlink" viewBox="0 0 393.57 322.54"><defs><style>.cls-1{fill:url(#linear-gradient);}.cls-2{fill:url(#linear-gradient-2);}.cls-3,.cls-6{fill:#a6a9b7;}.cls-4{fill:#516e80;}.cls-5{fill:#458189;}.cls-16,.cls-6{font-size:49.45px;}.cls-12,.cls-16,.cls-18,.cls-24,.cls-27,.cls-6,.cls-9{font-family:OpenSans-Bold, Open Sans;font-weight:700;}.cls-18,.cls-24,.cls-7,.cls-9{fill:#fff;}.cls-8{fill:#aad0f5;}.cls-9{font-size:39.25px;}.cls-10{fill:#e5e9f5;}.cls-11{fill:#beacf6;}.cls-12,.cls-27{font-size:50.83px;}.cls-13,.cls-16{fill:#9b9fae;}.cls-14{fill:#3c5c70;}.cls-15{fill:#506d7f;}.cls-17{fill:#f8b3c9;}.cls-18{font-size:29.1px;}.cls-19{fill:#e2e7f4;}.cls-20{fill:#8a9daa;}.cls-21{fill:#264a60;}.cls-22{fill:#008673;}.cls-23{fill:#ffd191;}.cls-24{font-size:45.62px;}.cls-25,.cls-27{fill:#dfe4f3;}.cls-26{fill:#ff806c;}.cls-28{fill:#8f9eaa;stroke:#516e80;stroke-linecap:round;stroke-linejoin:round;stroke-width:4px;}.cls-29{fill:#b37c53;}.cls-30{fill:#c49270;}.cls-31{fill:#a1bac4;}.cls-32{fill:#749176;}.cls-33{fill:#52b57f;}.cls-34{fill:#a1d0a7;}.cls-35{fill:#0ab09f;}.cls-36{fill:#f49d8d;}</style><linearGradient id="linear-gradient" x1="221.78" y1="307.57" x2="284.04" y2="236.07" gradientUnits="userSpaceOnUse"><stop offset="0" stop-color="#fff" stop-opacity="0"/><stop offset="1" stop-color="#93a5b0"/></linearGradient><linearGradient id="linear-gradient-2" x1="50.26" y1="294.11" x2="104.59" y2="221.78" xlink:href="#linear-gradient"/></defs><title>WelcomeToPlayground</title><g id="Shadows"><polygon class="cls-1" points="240.01 322.54 176.72 272.85 229.12 240.05 352.39 244.05 240.01 322.54"/><polygon class="cls-2" points="70.91 300.44 0 259.83 31.18 241.73 154.42 256.62 70.91 300.44"/></g><g id="Block3"><g id="FaceL"><path class="cls-3" d="M291.77,283.22A7.32,7.32,0,0,1,289,282.1l-54.41-37.86c-2.77-1.93-5.2-6.08-5.2-8.88v-56.8c0-1.46.39-2,.48-2.1a3.06,3.06,0,0,1,1.47.66L286.75,216c2.78,1.93,5.2,6.08,5.2,8.88v56.8A4.67,4.67,0,0,1,291.77,283.22Z"/><path class="cls-4" d="M231.47,177.57h0m-.12,2,54.26,38.07c2.44,1.7,4.34,5.29,4.34,7.24v55.45l-54.26-37.75c-2.44-1.7-4.34-5.29-4.34-7.24V179.6m-1.48-5.13c-1.65,0-2.52,1.67-2.52,4.1v56.8c0,3.47,2.72,8.21,6.05,10.52l54.49,37.91a8.87,8.87,0,0,0,3.93,1.42c1.59,0,2.12-1.32,2.12-3.52V224.9c0-3.47-2.72-8.21-6.05-10.52l-55.45-38.9a4.71,4.71,0,0,0-2.58-1Z"/></g><path class="cls-5" d="M280.32,269.6,240,241.44c-3.16-2.2-5.74-6.58-5.74-9.73l0-40.26c0-3.15,2.59-3.93,5.75-1.72l40.34,28.16c3.16,2.2,5.74,6.58,5.74,9.73l0,40.26C286.06,271,283.48,271.8,280.32,269.6Z"/><text class="cls-6" transform="matrix(0.78, 0.54, -0.02, 1, 236.8, 228.18)">os</text><g id="FaceR"><path class="cls-7" d="M292.28,283.22a4.26,4.26,0,0,1-.19-1.52V224.9c0-2.81,2.43-7,5.2-8.88l54.49-37.91a4.1,4.1,0,0,1,2.2-.91c.21,0,.71,0,.71,1.37v56.8c0,2.8-2.43,7-5.2,8.88l-54.42,37.86A6.73,6.73,0,0,1,292.28,283.22Z"/><path class="cls-4" d="M354,179.2h0m-1.33.71v55.46c0,2-1.89,5.54-4.34,7.24l-54.26,37.75V224.9c0-2,1.89-5.54,4.34-7.24l54.26-37.75M354,175.2a6.1,6.1,0,0,0-3.35,1.27l-54.49,37.91c-3.33,2.32-6.05,7.05-6.05,10.52v56.8c0,2.2.58,3.52,2.17,3.52a8.57,8.57,0,0,0,3.89-1.42l54.49-37.91c3.33-2.32,6.05-7.05,6.05-10.52v-56.8c0-2.18-1.08-3.37-2.71-3.37Z"/></g><path class="cls-8" d="M302.92,270.59l40.34-28.16c3.16-2.2,5.74-6.58,5.74-9.73l0-40.26c0-3.15-2.59-3.93-5.75-1.72l-40.34,28.16c-3.16,2.2-5.74,6.58-5.74,9.73l0,40.26C297.17,272,299.76,272.79,302.92,270.59Z"/><text class="cls-9" transform="matrix(1.03, -0.71, 0, 1, 301.3, 257.4)">er</text><g id="FaceT"><path class="cls-10" d="M291.6,217.36a5.42,5.42,0,0,1-2.84-.78L231.4,177.22l-.14-.08A6,6,0,0,1,229.7,176a3.37,3.37,0,0,1,.54-.72l58.3-31.52a2.09,2.09,0,0,0,.3-.19,6,6,0,0,1,2.79-.79,7.43,7.43,0,0,1,3.1.83l.22.14L353,176.51c-.4.2-.95.43-1.39.61-.65.27-1.37.57-2.14.94a1.9,1.9,0,0,0-.29.17l-54.42,38.33A7.05,7.05,0,0,1,291.6,217.36Z"/><path class="cls-4" d="M291.62,144.79a5.32,5.32,0,0,1,2.1.57l.24.14,54.59,30.78a4,4,0,0,0-.5.3l-54.29,38.24a5,5,0,0,1-2.15.53,3.46,3.46,0,0,1-1.76-.46L233.14,176l56.32-30.45a4.26,4.26,0,0,0,.42-.25,3.76,3.76,0,0,1,1.74-.5m-1.33.18h0m1.33-4.18a8,8,0,0,0-3.88,1.11c-.06,0-.1.09-.16.12L229,173.69c-2.24,2.31-1.55,3.57,1.27,5.18l57.41,39.39a7.44,7.44,0,0,0,3.93,1.1,9,9,0,0,0,4.22-1.1l54.53-38.4c3.42-1.64,5.83-1.81,4.8-4.44L295.9,142c-.06,0-.1-.09-.15-.12a9.53,9.53,0,0,0-4.13-1.11Z"/></g><g id="FaceT-2" data-name="FaceT"><path class="cls-11" d="M288.52,209l-44.6-30.61c-2.19-1.26-2.72-2.23-1-4l45.52-24.61.12-.09a6.05,6.05,0,0,1,6.22,0s.08.07.12.09L337.77,174c1.62,1.23,2.26,3.27-.57,5.24L294.85,209A6.31,6.31,0,0,1,288.52,209Z"/></g><text class="cls-12" transform="matrix(0.85, 0.61, -0.83, 0.55, 255.97, 173.54)">fa</text></g><g id="Block2"><g id="FaceL-2" data-name="FaceL"><path class="cls-13" d="M304.44,211.65a7.32,7.32,0,0,1-2.82-1.12L247.2,172.67c-2.77-1.93-5.2-6.08-5.2-8.88V107c0-1.46.39-2,.48-2.1a3.05,3.05,0,0,1,1.47.65l55.45,38.9c2.78,1.93,5.2,6.08,5.2,8.88v56.8A4.66,4.66,0,0,1,304.44,211.65Z"/><path class="cls-14" d="M244.13,106h0m-.12,2,54.26,38.07c2.44,1.7,4.34,5.29,4.34,7.24v55.46L248.35,171c-2.44-1.7-4.34-5.29-4.34-7.24V108m-1.48-5.13c-1.65,0-2.52,1.67-2.52,4.1v56.8c0,3.47,2.72,8.21,6.05,10.52l54.49,37.91a8.87,8.87,0,0,0,3.93,1.42c1.59,0,2.12-1.32,2.12-3.52v-56.8c0-3.47-2.72-8.21-6.05-10.52l-55.45-38.9a4.71,4.71,0,0,0-2.58-1Z"/></g><path class="cls-15" d="M293,198l-40.34-28.16c-3.16-2.2-5.74-6.58-5.74-9.73l0-40.26c0-3.15,2.59-3.93,5.75-1.72L293,146.32c3.16,2.2,5.74,6.58,5.74,9.73l0,40.26C298.72,199.46,296.14,200.23,293,198Z"/><text class="cls-16" transform="matrix(0.78, 0.54, -0.02, 1, 249.46, 155.61)">co</text><g id="FaceR-2" data-name="FaceR"><path class="cls-7" d="M304.94,211.65a4.26,4.26,0,0,1-.19-1.52v-56.8c0-2.81,2.43-7,5.2-8.88l54.49-37.91a4.1,4.1,0,0,1,2.2-.91c.21,0,.71,0,.71,1.37v56.8c0,2.8-2.43,7-5.2,8.88l-54.42,37.86A6.73,6.73,0,0,1,304.94,211.65Z"/><path class="cls-14" d="M366.68,107.62h0m-1.33.71v55.45c0,2-1.9,5.54-4.34,7.24l-54.26,37.75V153.33c0-2,1.89-5.54,4.34-7.24l54.26-37.75m1.29-4.71a6.1,6.1,0,0,0-3.35,1.27L308.8,142.81c-3.33,2.32-6.05,7.05-6.05,10.52v56.8c0,2.2.58,3.52,2.17,3.52a8.57,8.57,0,0,0,3.89-1.42l54.49-37.91c3.33-2.32,6.05-7.05,6.05-10.52V107c0-2.18-1.08-3.37-2.71-3.37Z"/></g><path class="cls-17" d="M315.58,199l40.34-28.16c3.16-2.2,5.74-6.58,5.74-9.73l0-40.26c0-3.15-2.59-3.93-5.75-1.72l-40.34,28.16c-3.16,2.2-5.74,6.58-5.74,9.73l0,40.26C309.84,200.45,312.42,201.22,315.58,199Z"/><text class="cls-18" transform="matrix(1.03, -0.71, 0, 1, 311, 181.82)">mp</text><g id="FaceT-3" data-name="FaceT"><path class="cls-19" d="M304.26,145.79a5.42,5.42,0,0,1-2.84-.78l-57.36-39.36-.14-.09a6,6,0,0,1-1.56-1.12,3.34,3.34,0,0,1,.54-.73L301.2,72.2a2.08,2.08,0,0,0,.3-.2,6,6,0,0,1,2.78-.79,7.45,7.45,0,0,1,3.1.83l.23.15,58.06,32.74c-.4.2-.95.43-1.39.61-.65.27-1.37.57-2.14.94a2,2,0,0,0-.29.17L307.44,145A7.06,7.06,0,0,1,304.26,145.79Z"/><path class="cls-14" d="M304.28,73.22a5.32,5.32,0,0,1,2.1.58l.24.14,54.59,30.78a4,4,0,0,0-.5.3l-54.29,38.24a5,5,0,0,1-2.15.53,3.46,3.46,0,0,1-1.76-.46L245.8,104.42,302.13,74a4.26,4.26,0,0,0,.42-.25,3.76,3.76,0,0,1,1.74-.5M303,73.4h0m1.33-4.18a8,8,0,0,0-3.88,1.11c-.06,0-.1.09-.16.12l-58.58,31.67c-2.24,2.31-1.55,3.57,1.27,5.18l57.41,39.39a7.45,7.45,0,0,0,3.93,1.1,9.05,9.05,0,0,0,4.22-1.1L363,108.29c3.42-1.64,5.83-1.81,4.8-4.44L308.57,70.44c-.06,0-.1-.09-.15-.12a9.53,9.53,0,0,0-4.13-1.11Z"/></g><g id="FaceT-4" data-name="FaceT"><path class="cls-20" d="M301.18,137.47l-44.6-30.61c-2.19-1.26-2.72-2.23-1-4l45.52-24.61.12-.09a6.05,6.05,0,0,1,6.22,0s.08.07.12.09l42.86,24.17c1.62,1.23,2.26,3.27-.57,5.24l-42.36,29.84A6.31,6.31,0,0,1,301.18,137.47Z"/></g><text class="cls-12" transform="matrix(0.85, 0.61, -0.83, 0.55, 268.63, 101.97)">fa</text></g><g id="Block1"><g id="FaceL-3" data-name="FaceL"><path class="cls-3" d="M286.65,142.43a7.33,7.33,0,0,1-2.82-1.12l-54.41-37.86c-2.77-1.93-5.2-6.08-5.2-8.88V37.78c0-1.46.39-2,.48-2.1a3,3,0,0,1,1.47.65l55.45,38.9c2.77,1.93,5.2,6.08,5.2,8.89v56.8A4.66,4.66,0,0,1,286.65,142.43Z"/><path class="cls-21" d="M226.34,36.79h0m-.12,2,54.26,38.07c2.44,1.7,4.34,5.29,4.34,7.24v55.45l-54.26-37.75c-2.44-1.7-4.34-5.29-4.34-7.24V38.81m-1.48-5.13c-1.65,0-2.52,1.67-2.52,4.1v56.8c0,3.47,2.72,8.21,6.05,10.52L282.77,143a8.87,8.87,0,0,0,3.93,1.42c1.59,0,2.12-1.32,2.12-3.52V84.12c0-3.47-2.72-8.21-6.05-10.52l-55.45-38.9a4.71,4.71,0,0,0-2.58-1Z"/></g><path class="cls-22" d="M275.2,128.81l-40.34-28.16c-3.16-2.2-5.74-6.58-5.74-9.73l0-40.26c0-3.15,2.59-3.93,5.75-1.72L275.24,77.1c3.16,2.2,5.74,6.58,5.74,9.73l0,40.26C280.94,130.24,278.35,131,275.2,128.81Z"/><text class="cls-6" transform="matrix(0.78, 0.54, -0.02, 1, 232.68, 91.39)">br</text><g id="FaceR-3" data-name="FaceR"><path class="cls-7" d="M287.16,142.43a4.24,4.24,0,0,1-.19-1.52V84.12c0-2.81,2.43-7,5.2-8.88l54.49-37.91a4.1,4.1,0,0,1,2.2-.91c.21,0,.71,0,.71,1.37v56.8c0,2.81-2.43,7-5.2,8.88L290,141.32A6.75,6.75,0,0,1,287.16,142.43Z"/><path class="cls-21" d="M348.9,38.41h0m-1.33.71V94.58c0,2-1.9,5.54-4.34,7.24L289,139.57V84.11c0-2,1.89-5.54,4.34-7.24l54.26-37.75m1.29-4.71a6.1,6.1,0,0,0-3.35,1.27L291,73.59c-3.33,2.32-6.05,7.05-6.05,10.52v56.8c0,2.2.58,3.52,2.17,3.52A8.57,8.57,0,0,0,291,143l54.49-37.91c3.33-2.32,6.05-7.05,6.05-10.52V37.78c0-2.18-1.08-3.37-2.71-3.37Z"/></g><path class="cls-23" d="M297.8,129.8l40.34-28.16c3.16-2.2,5.74-6.58,5.74-9.73l0-40.26c0-3.15-2.59-3.93-5.75-1.72L297.75,78.09c-3.16,2.2-5.74,6.58-5.74,9.73l0,40.26C292.05,131.23,294.64,132,297.8,129.8Z"/><text class="cls-24" transform="matrix(1.03, -0.71, 0, 1, 299.95, 118.78)">ic</text><g id="FaceT-5" data-name="FaceT"><path class="cls-25" d="M286.48,76.57a5.42,5.42,0,0,1-2.84-.78L226.27,36.43l-.14-.09a6,6,0,0,1-1.56-1.12,3.36,3.36,0,0,1,.54-.72L283.41,3a2.27,2.27,0,0,0,.3-.2A5.94,5.94,0,0,1,286.5,2a7.44,7.44,0,0,1,3.1.84l.24.15,58,32.73c-.4.2-.95.43-1.4.61-.65.27-1.37.57-2.14.94a2,2,0,0,0-.29.17L289.65,75.77A7.06,7.06,0,0,1,286.48,76.57Z"/><path class="cls-21" d="M286.5,4a5.32,5.32,0,0,1,2.1.58l.24.14L343.42,35.5a4,4,0,0,0-.5.3L288.63,74a5,5,0,0,1-2.15.53,3.46,3.46,0,0,1-1.76-.46L228,35.21,284.34,4.76a4.23,4.23,0,0,0,.42-.26A3.75,3.75,0,0,1,286.5,4m-1.33.18h0M286.5,0a8,8,0,0,0-3.88,1.11c-.06,0-.1.09-.16.12L223.88,32.9c-2.24,2.31-1.55,3.57,1.27,5.18l57.41,39.39a7.44,7.44,0,0,0,3.93,1.1,9.05,9.05,0,0,0,4.22-1.1l54.53-38.4c3.42-1.64,5.83-1.81,4.8-4.44L290.78,1.23c-.06,0-.1-.09-.15-.12A9.53,9.53,0,0,0,286.5,0Z"/></g><g id="FaceT-6" data-name="FaceT"><path class="cls-26" d="M283.39,68.25l-44.6-30.61c-2.19-1.26-2.72-2.23-1-4L283.33,9l.12-.09a6.05,6.05,0,0,1,6.22,0s.08.07.12.09l42.86,24.17c1.62,1.23,2.26,3.27-.57,5.24L289.72,68.25A6.31,6.31,0,0,1,283.39,68.25Z"/></g><text class="cls-27" transform="matrix(0.85, 0.61, -0.83, 0.55, 250.85, 32.75)">fa</text></g><g id="MugHandle"><path class="cls-28" d="M199.06,145.47l-.14,30.5c.14,9.15-15.24,20.87-18.75,23-4.68,2.84-11.57,7-15.5,4.25s-3.88-6.36,0-11c4.78-5.71,12.26-6.48,17-10.75,10.19-9.16,1.58-42.07,6.75-45.25C191.34,134.42,194.29,135.57,199.06,145.47Z"/><path class="cls-10" d="M198.32,152.41c-1.26-4.2-3.16-10.54-8.84-12.39a11.08,11.08,0,0,0-3.44-.52c-5.24,0-10.93,3.18-15.94,6-3.18,1.78-6.47,3.62-8.11,3.62h-.08c-.66-2.11-1.29-10.66.37-17.42,7.2-4.58,14.83-7.09,21.56-7.09,5.13,0,9.25,1.46,11.59,4.1,4.08,4.62,4.29,18.74,3.19,24.65Z"/><path class="cls-4" d="M183.83,126.59c4.49,0,8.17,1.25,10.09,3.43,1.23,1.39,2.8,5.57,3.16,12.78q0,.65.05,1.28a12.8,12.8,0,0,0-7-6,13.09,13.09,0,0,0-4.06-.62c-5.76,0-11.69,3.31-16.92,6.24-1.71,1-4,2.26-5.65,2.93a46.48,46.48,0,0,1,.56-13.72c6.67-4.1,13.65-6.34,19.79-6.34m0-4c-6.75,0-15,2.39-23.3,7.83-2.17,7.89-1.29,19.39,0,20.27a2.52,2.52,0,0,0,1.46.4c5,0,15.69-9.6,24.05-9.6a9.05,9.05,0,0,1,2.82.42c7.59,2.47,7.24,15.45,9.88,15.45h.12c2.83-.42,3.91-23.37-1.94-30-2.7-3-7.35-4.78-13.09-4.78Z"/></g><g id="MugBody"><path class="cls-10" d="M100.07,267.7c-26.76,0-44-6.81-53.78-12.53-8.89-5.21-13.35-10.47-14.55-12V109.7a42.17,42.17,0,0,0,9.16,7.89c13.49,8.81,33.29,13.27,58.84,13.27S145.22,126.4,159,117.6a43.84,43.84,0,0,0,9.59-8.1V243.06a64.16,64.16,0,0,1-15.81,12.07C142.58,260.86,125.17,267.7,100.07,267.7Z"/><path class="cls-4" d="M166.57,114.36V242.27a64.41,64.41,0,0,1-15,11.22c-9.95,5.57-27,12.21-51.51,12.21-26.15,0-43-6.58-52.52-12.11a51.4,51.4,0,0,1-13.81-11.14V114.6c9,8.19,27.92,18.27,66,18.27,38.52,0,57.68-10.3,66.83-18.51m4-11.38s-10.17,25.9-70.83,25.9-70-25.9-70-25.9V243.8s17.33,25.9,70.33,25.9c49.67,0,70.5-25.9,70.5-25.9V103Z"/><path class="cls-7" d="M100.15,131.21c-37.09,0-68.42-12.15-68.42-26.54s31.33-26.54,68.42-26.54,68.42,12.15,68.42,26.54S137.24,131.21,100.15,131.21Z"/><path class="cls-4" d="M100.15,80.13c39.14,0,66.42,12.93,66.42,24.54s-27.28,24.54-66.42,24.54-66.42-12.93-66.42-24.54S61,80.13,100.15,80.13m0-4c-38.89,0-70.42,12.78-70.42,28.54s31.53,28.54,70.42,28.54,70.42-12.78,70.42-28.54S139,76.13,100.15,76.13Z"/><ellipse class="cls-20" cx="99.73" cy="103.42" rx="59.42" ry="20.52"/><path class="cls-29" d="M99.85,91.77c-28.34,0-52,6.85-58,16,5.94,9.17,29.63,16,58,16s52-6.85,58-16C151.88,98.63,128.19,91.77,99.85,91.77Z"/><path class="cls-30" d="M100.15,91.77c-28.34,0-52,6.85-58,16,6.55,10,30.55,15.55,45.21,15.55C87.4,123.34,128.49,91.77,100.15,91.77Z"/></g><g id="Bernard"><circle class="cls-31" cx="100.9" cy="193.33" r="34.25"/><g id="GreenBlock"><g id="BackArm"><polygon class="cls-32" points="120.23 185.5 130.98 194.15 120.23 197.53 120.23 185.5"/><polygon class="cls-4" points="120.23 198.95 120.23 197.53 130.98 194.15 120.23 185.5 120.23 183.94 133.89 194.62 120.23 198.95"/></g><g id="SideFace-3"><polygon class="cls-33" points="75.21 208.11 75.21 178.34 100.96 193.63 100.96 223.4 75.21 208.11"/><path class="cls-4" d="M75.5,178.85l25.17,14.95v29.09L75.5,207.94V178.85m-.58-1v30.44l26.34,15.63V193.47L74.92,177.83Z"/></g><polygon class="cls-34" points="75.5 177.83 100.48 163.35 126.19 177.84 101.25 193.13 75.5 177.83"/><path class="cls-4" d="M100.48,163.69l25.13,14.16-24.37,14.94L76.07,177.84l24.41-14.15m0-.67-25.56,14.8,26.33,15.65,25.5-15.63Z"/><polygon class="cls-35" points="101.54 193.63 126.47 178.35 126.47 208.11 101.54 223.39 101.54 193.63"/><path class="cls-4" d="M126.18,178.87V208l-24.34,14.92V193.79l24.34-14.92m.58-1-25.5,15.64v30.44l25.5-15.63Z"/><path class="cls-4" d="M100.48,163l26.27,14.8v30.45l-25.5,15.63L74.92,208.27V177.83L100.48,163m0-1.34-.58.33-25.56,14.8-.58.34v31.79l.57.34,26.34,15.63.6.36.6-.37,25.51-15.64.55-.34V177.15l-.58-.33L101.05,162l-.58-.33Z"/><g id="Face"><path class="cls-36" d="M114.61,208a12.32,12.32,0,0,1-2.83,1.31,3.67,3.67,0,0,1-2.17.08,2.35,2.35,0,0,1-1.38-1.31,6.59,6.59,0,0,1-.49-2.82v-2l13.4-8.05v2.57a11.31,11.31,0,0,1-.38,3,9.85,9.85,0,0,1-1.18,2.68,11.93,11.93,0,0,1-2,2.4A18,18,0,0,1,114.61,208Z"/><path class="cls-4" d="M110.48,210.35a3.63,3.63,0,0,1-1.14-.17,3.2,3.2,0,0,1-1.9-1.75,7.37,7.37,0,0,1-.58-3.2v-2.48l15.15-9.1v4.11a12.24,12.24,0,0,1-.42,3.21,10.76,10.76,0,0,1-1.28,2.91,12.86,12.86,0,0,1-2.18,2.58,19,19,0,0,1-3.07,2.26,13.23,13.23,0,0,1-3,1.4A5.55,5.55,0,0,1,110.48,210.35Zm-1.87-6.62v1.49a5.85,5.85,0,0,0,.4,2.45,1.51,1.51,0,0,0,.87.85,2.81,2.81,0,0,0,1.65-.08,11.53,11.53,0,0,0,2.63-1.22h0a17.24,17.24,0,0,0,2.79-2,11.12,11.12,0,0,0,1.89-2.23,9,9,0,0,0,1.08-2.44,10.49,10.49,0,0,0,.35-2.76v-1Z"/><polygon class="cls-4" points="111.26 195.29 106.58 198.11 106.58 199.69 111.26 196.88 111.26 195.29"/><polygon class="cls-4" points="122.02 188.82 117.34 191.64 117.34 193.23 122.02 190.41 122.02 188.82"/></g><g id="FrontArm"><polygon class="cls-34" points="92.2 202.34 102.95 210.99 92.2 214.37 92.2 202.34"/><polygon class="cls-4" points="92.2 215.78 92.2 214.37 102.95 210.99 92.2 202.34 92.2 200.78 105.86 211.46 92.2 215.78"/></g></g></g></svg>