<?xml version="1.0" encoding="utf-8"?>
<!-- Generator: Adobe Illustrator 22.0.1, SVG Export Plug-In . SVG Version: 6.00 Build 0)  -->
<svg version="1.1" id="Layer_1" xmlns="http://www.w3.org/2000/svg" xmlns:xlink="http://www.w3.org/1999/xlink" x="0px" y="0px"
	 width="65.9px" height="76.2px" viewBox="0 0 65.9 76.2" style="enable-background:new 0 0 65.9 76.2;" xml:space="preserve">
<path d="M42.8,60.2V22.6c0-1.7-1.3-3-3-3s-3,1.3-3,3v37.6c0,1.7,1.3,3,3,3S42.8,61.9,42.8,60.2z M29.1,60.2V22.6c0-1.7-1.3-3-3-3
	s-3,1.3-3,3v37.6c0,1.7,1.3,3,3,3S29.1,61.9,29.1,60.2z M56.2,19.6c-1.7,0-3,1.3-3,3V68c0,1.2-1,2.2-2.2,2.2H14.9
	c-1.2,0-2.2-1-2.2-2.2V22.6c0-1.7-1.3-3-3-3s-3,1.3-3,3V68c0,4.5,3.7,8.2,8.2,8.2H51c4.5,0,8.2-3.7,8.2-8.2V22.6
	C59.2,21,57.9,19.6,56.2,19.6z M62.9,10.3H49.3V3c0-1.7-1.3-3-3-3H19.6c-1.7,0-3,1.3-3,3v7.3H3c-1.7,0-3,1.3-3,3s1.3,3,3,3h59.9
	c1.7,0,3-1.3,3-3S64.5,10.3,62.9,10.3z M43.3,10.3H22.6V6h20.7L43.3,10.3L43.3,10.3z"/>
</svg>
