<?xml version="1.0" encoding="UTF-8" standalone="no"?><svg xmlns="http://www.w3.org/2000/svg" xmlns:xlink="http://www.w3.org/1999/xlink" contentScriptType="application/ecmascript" contentStyleType="text/css" height="184px" preserveAspectRatio="none" style="width:188px;height:184px;" version="1.1" viewBox="0 0 188 184" width="188px" zoomAndPan="magnify"><defs/><g><!--class Concept--><rect fill="#F8FAFA" height="66.625" rx="1" ry="1" style="stroke: #E3ECEC; stroke-width: 1.5;" width="181" x="6" y="8"/><ellipse cx="59.75" cy="24" fill="#FFFFFF" rx="11" ry="11" style="stroke: #E3ECEC; stroke-width: 1.0;"/><path d="M62.2031,29.6563 Q61.6563,29.9375 61.0547,30.0859 Q60.4531,30.2344 59.7813,30.2344 Q57.4219,30.2344 56.1797,28.6719 Q54.9375,27.1094 54.9375,24.1719 Q54.9375,21.2344 56.1797,19.6797 Q57.4219,18.125 59.7813,18.125 Q60.4531,18.125 61.0625,18.2656 Q61.6719,18.4063 62.2031,18.6875 L62.2031,21.25 Q61.6094,20.7031 61.0469,20.4453 Q60.4844,20.1875 59.8906,20.1875 Q58.625,20.1875 57.9844,21.1953 Q57.3438,22.2031 57.3438,24.1719 Q57.3438,26.1406 57.9844,27.1484 Q58.625,28.1563 59.8906,28.1563 Q60.4844,28.1563 61.0469,27.8984 Q61.6094,27.6406 62.2031,27.0938 L62.2031,29.6563 Z "/><text fill="#19273C" font-family="sans-serif" font-size="16" lengthAdjust="spacingAndGlyphs" textLength="65" x="80.25" y="29.5391">Concept</text><line style="stroke: #E3ECEC; stroke-width: 1.5;" x1="7" x2="186" y1="40" y2="40"/><line style="stroke: #E3ECEC; stroke-width: 1.5;" x1="7" x2="186" y1="48" y2="48"/><ellipse cx="17" cy="62.3125" fill="#84BE84" rx="3" ry="3" style="stroke: #038048; stroke-width: 1.0;"/><text fill="#19273C" font-family="sans-serif" font-size="16" lengthAdjust="spacingAndGlyphs" textLength="155" x="26" y="66.8516">boolean isConcept()</text><!--class Typed--><rect fill="#F8FAFA" height="48" rx="1" ry="1" style="stroke: #E3ECEC; stroke-width: 1.5;" width="79" x="57" y="135"/><ellipse cx="72" cy="151" fill="#FFFFFF" rx="11" ry="11" style="stroke: #E3ECEC; stroke-width: 1.0;"/><path d="M74.4531,156.6563 Q73.9063,156.9375 73.3047,157.0859 Q72.7031,157.2344 72.0313,157.2344 Q69.6719,157.2344 68.4297,155.6719 Q67.1875,154.1094 67.1875,151.1719 Q67.1875,148.2344 68.4297,146.6797 Q69.6719,145.125 72.0313,145.125 Q72.7031,145.125 73.3125,145.2656 Q73.9219,145.4063 74.4531,145.6875 L74.4531,148.25 Q73.8594,147.7031 73.2969,147.4453 Q72.7344,147.1875 72.1406,147.1875 Q70.875,147.1875 70.2344,148.1953 Q69.5938,149.2031 69.5938,151.1719 Q69.5938,153.1406 70.2344,154.1484 Q70.875,155.1563 72.1406,155.1563 Q72.7344,155.1563 73.2969,154.8984 Q73.8594,154.6406 74.4531,154.0938 L74.4531,156.6563 Z "/><text fill="#19273C" font-family="sans-serif" font-size="16" lengthAdjust="spacingAndGlyphs" textLength="47" x="86" y="156.5391">Typed</text><line style="stroke: #E3ECEC; stroke-width: 1.5;" x1="58" x2="135" y1="167" y2="167"/><line style="stroke: #E3ECEC; stroke-width: 1.5;" x1="58" x2="135" y1="175" y2="175"/><path d="M96.5,75.289 C96.5,87.4227 96.5,101.3772 96.5,114.3262 " fill="none" style="stroke: #3C6DF0; stroke-width: 1.0;"/><polygon fill="none" points="103.5001,114.6703,96.5,134.6703,89.5001,114.6703,103.5001,114.6703" style="stroke: #3C6DF0; stroke-width: 1.0;"/></g></svg>