<?xml version="1.0" encoding="UTF-8" standalone="no"?><svg xmlns="http://www.w3.org/2000/svg" xmlns:xlink="http://www.w3.org/1999/xlink" contentScriptType="application/ecmascript" contentStyleType="text/css" height="184px" preserveAspectRatio="none" style="width:358px;height:184px;" version="1.1" viewBox="0 0 358 184" width="358px" zoomAndPan="magnify"><defs/><g><!--class EnumValueDeclaration--><rect fill="#F8FAFA" height="66.625" rx="1" ry="1" style="stroke: #E3ECEC; stroke-width: 1.5;" width="351" x="6" y="8"/><ellipse cx="90.25" cy="24" fill="#FFFFFF" rx="11" ry="11" style="stroke: #E3ECEC; stroke-width: 1.0;"/><path d="M92.7031,29.6563 Q92.1563,29.9375 91.5547,30.0859 Q90.9531,30.2344 90.2813,30.2344 Q87.9219,30.2344 86.6797,28.6719 Q85.4375,27.1094 85.4375,24.1719 Q85.4375,21.2344 86.6797,19.6797 Q87.9219,18.125 90.2813,18.125 Q90.9531,18.125 91.5625,18.2656 Q92.1719,18.4063 92.7031,18.6875 L92.7031,21.25 Q92.1094,20.7031 91.5469,20.4453 Q90.9844,20.1875 90.3906,20.1875 Q89.125,20.1875 88.4844,21.1953 Q87.8438,22.2031 87.8438,24.1719 Q87.8438,26.1406 88.4844,27.1484 Q89.125,28.1563 90.3906,28.1563 Q90.9844,28.1563 91.5469,27.8984 Q92.1094,27.6406 92.7031,27.0938 L92.7031,29.6563 Z "/><text fill="#19273C" font-family="sans-serif" font-size="16" lengthAdjust="spacingAndGlyphs" textLength="174" x="110.75" y="29.5391">EnumValueDeclaration</text><line style="stroke: #E3ECEC; stroke-width: 1.5;" x1="7" x2="356" y1="40" y2="40"/><line style="stroke: #E3ECEC; stroke-width: 1.5;" x1="7" x2="356" y1="48" y2="48"/><ellipse cx="17" cy="62.3125" fill="#84BE84" rx="3" ry="3" style="stroke: #038048; stroke-width: 1.0;"/><text fill="#19273C" font-family="sans-serif" font-size="16" lengthAdjust="spacingAndGlyphs" textLength="325" x="26" y="66.8516">void constructor(ClassDeclaration,Object)</text><!--class Property--><rect fill="#F8FAFA" height="48" rx="1" ry="1" style="stroke: #E3ECEC; stroke-width: 1.5;" width="100" x="131.5" y="135"/><ellipse cx="146.5" cy="151" fill="#FFFFFF" rx="11" ry="11" style="stroke: #E3ECEC; stroke-width: 1.0;"/><path d="M148.9531,156.6563 Q148.4063,156.9375 147.8047,157.0859 Q147.2031,157.2344 146.5313,157.2344 Q144.1719,157.2344 142.9297,155.6719 Q141.6875,154.1094 141.6875,151.1719 Q141.6875,148.2344 142.9297,146.6797 Q144.1719,145.125 146.5313,145.125 Q147.2031,145.125 147.8125,145.2656 Q148.4219,145.4063 148.9531,145.6875 L148.9531,148.25 Q148.3594,147.7031 147.7969,147.4453 Q147.2344,147.1875 146.6406,147.1875 Q145.375,147.1875 144.7344,148.1953 Q144.0938,149.2031 144.0938,151.1719 Q144.0938,153.1406 144.7344,154.1484 Q145.375,155.1563 146.6406,155.1563 Q147.2344,155.1563 147.7969,154.8984 Q148.3594,154.6406 148.9531,154.0938 L148.9531,156.6563 Z "/><text fill="#19273C" font-family="sans-serif" font-size="16" lengthAdjust="spacingAndGlyphs" textLength="68" x="160.5" y="156.5391">Property</text><line style="stroke: #E3ECEC; stroke-width: 1.5;" x1="132.5" x2="230.5" y1="167" y2="167"/><line style="stroke: #E3ECEC; stroke-width: 1.5;" x1="132.5" x2="230.5" y1="175" y2="175"/><path d="M181.5,75.289 C181.5,87.4227 181.5,101.3772 181.5,114.3262 " fill="none" style="stroke: #3C6DF0; stroke-width: 1.0;"/><polygon fill="none" points="188.5,114.6703,181.5,134.6703,174.5,114.6703,188.5,114.6703" style="stroke: #3C6DF0; stroke-width: 1.0;"/></g></svg>