<?xml version="1.0" encoding="UTF-8" standalone="no"?><svg xmlns="http://www.w3.org/2000/svg" xmlns:xlink="http://www.w3.org/1999/xlink" contentScriptType="application/ecmascript" contentStyleType="text/css" height="150px" preserveAspectRatio="none" style="width:682px;height:150px;" version="1.1" viewBox="0 0 682 150" width="682px" zoomAndPan="magnify"><defs/><g><!--class Factory--><rect fill="#F8FAFA" height="141.125" rx="1" ry="1" style="stroke: #E3ECEC; stroke-width: 1.5;" width="675" x="6" y="8"/><ellipse cx="309.75" cy="24" fill="#FFFFFF" rx="11" ry="11" style="stroke: #E3ECEC; stroke-width: 1.0;"/><path d="M312.2031,29.6563 Q311.6563,29.9375 311.0547,30.0859 Q310.4531,30.2344 309.7813,30.2344 Q307.4219,30.2344 306.1797,28.6719 Q304.9375,27.1094 304.9375,24.1719 Q304.9375,21.2344 306.1797,19.6797 Q307.4219,18.125 309.7813,18.125 Q310.4531,18.125 311.0625,18.2656 Q311.6719,18.4063 312.2031,18.6875 L312.2031,21.25 Q311.6094,20.7031 311.0469,20.4453 Q310.4844,20.1875 309.8906,20.1875 Q308.625,20.1875 307.9844,21.1953 Q307.3438,22.2031 307.3438,24.1719 Q307.3438,26.1406 307.9844,27.1484 Q308.625,28.1563 309.8906,28.1563 Q310.4844,28.1563 311.0469,27.8984 Q311.6094,27.6406 312.2031,27.0938 L312.2031,29.6563 Z "/><text fill="#19273C" font-family="sans-serif" font-size="16" lengthAdjust="spacingAndGlyphs" textLength="59" x="330.25" y="29.5391">Factory</text><line style="stroke: #E3ECEC; stroke-width: 1.5;" x1="7" x2="680" y1="40" y2="40"/><line style="stroke: #E3ECEC; stroke-width: 1.5;" x1="7" x2="680" y1="48" y2="48"/><ellipse cx="17" cy="62.3125" fill="#84BE84" rx="3" ry="3" style="stroke: #038048; stroke-width: 1.0;"/><text fill="#19273C" font-family="sans-serif" font-size="16" lengthAdjust="spacingAndGlyphs" textLength="649" x="26" y="66.8516">Resource newResource(String,String,String,Object,boolean,String,boolean,boolean)</text><ellipse cx="17" cy="80.9375" fill="#84BE84" rx="3" ry="3" style="stroke: #038048; stroke-width: 1.0;"/><text fill="#19273C" font-family="sans-serif" font-size="16" lengthAdjust="spacingAndGlyphs" textLength="523" x="26" y="85.4766">Resource newConcept(String,String,Object,boolean,String,boolean)</text><ellipse cx="17" cy="99.5625" fill="#84BE84" rx="3" ry="3" style="stroke: #038048; stroke-width: 1.0;"/><text fill="#19273C" font-family="sans-serif" font-size="16" lengthAdjust="spacingAndGlyphs" textLength="383" x="26" y="104.1016">Relationship newRelationship(String,String,String)</text><ellipse cx="17" cy="118.1875" fill="#84BE84" rx="3" ry="3" style="stroke: #038048; stroke-width: 1.0;"/><text fill="#19273C" font-family="sans-serif" font-size="16" lengthAdjust="spacingAndGlyphs" textLength="600" x="26" y="122.7266">Resource newTransaction(String,String,String,Object,String,boolean,boolean)</text><ellipse cx="17" cy="136.8125" fill="#84BE84" rx="3" ry="3" style="stroke: #038048; stroke-width: 1.0;"/><text fill="#19273C" font-family="sans-serif" font-size="16" lengthAdjust="spacingAndGlyphs" textLength="553" x="26" y="141.3516">Resource newEvent(String,String,String,Object,String,boolean,boolean)</text></g></svg>