<?xml version="1.0" encoding="UTF-8" standalone="no"?><svg xmlns="http://www.w3.org/2000/svg" xmlns:xlink="http://www.w3.org/1999/xlink" contentScriptType="application/ecmascript" contentStyleType="text/css" height="261px" preserveAspectRatio="none" style="width:773px;height:261px;" version="1.1" viewBox="0 0 773 261" width="773px" zoomAndPan="magnify"><defs/><g><!--class FunctionDeclaration--><rect fill="#F8FAFA" height="252.875" rx="1" ry="1" style="stroke: #E3ECEC; stroke-width: 1.5;" width="766" x="6" y="8"/><ellipse cx="307.75" cy="24" fill="#FFFFFF" rx="11" ry="11" style="stroke: #E3ECEC; stroke-width: 1.0;"/><path d="M310.2031,29.6563 Q309.6563,29.9375 309.0547,30.0859 Q308.4531,30.2344 307.7813,30.2344 Q305.4219,30.2344 304.1797,28.6719 Q302.9375,27.1094 302.9375,24.1719 Q302.9375,21.2344 304.1797,19.6797 Q305.4219,18.125 307.7813,18.125 Q308.4531,18.125 309.0625,18.2656 Q309.6719,18.4063 310.2031,18.6875 L310.2031,21.25 Q309.6094,20.7031 309.0469,20.4453 Q308.4844,20.1875 307.8906,20.1875 Q306.625,20.1875 305.9844,21.1953 Q305.3438,22.2031 305.3438,24.1719 Q305.3438,26.1406 305.9844,27.1484 Q306.625,28.1563 307.8906,28.1563 Q308.4844,28.1563 309.0469,27.8984 Q309.6094,27.6406 310.2031,27.0938 L310.2031,29.6563 Z "/><text fill="#19273C" font-family="sans-serif" font-size="16" lengthAdjust="spacingAndGlyphs" textLength="154" x="328.25" y="29.5391">FunctionDeclaration</text><line style="stroke: #E3ECEC; stroke-width: 1.5;" x1="7" x2="771" y1="40" y2="40"/><line style="stroke: #E3ECEC; stroke-width: 1.5;" x1="7" x2="771" y1="48" y2="48"/><ellipse cx="17" cy="62.3125" fill="#84BE84" rx="3" ry="3" style="stroke: #038048; stroke-width: 1.0;"/><text fill="#19273C" font-family="sans-serif" font-size="16" lengthAdjust="spacingAndGlyphs" textLength="740" x="26" y="66.8516">void constructor(ModelManager,string,string,string,string,string,string[],string[],string[],string)</text><ellipse cx="17" cy="80.9375" fill="#84BE84" rx="3" ry="3" style="stroke: #038048; stroke-width: 1.0;"/><text fill="#19273C" font-family="sans-serif" font-size="16" lengthAdjust="spacingAndGlyphs" textLength="188" x="26" y="85.4766">string getFunctionText()</text><ellipse cx="17" cy="99.5625" fill="#84BE84" rx="3" ry="3" style="stroke: #038048; stroke-width: 1.0;"/><text fill="#19273C" font-family="sans-serif" font-size="16" lengthAdjust="spacingAndGlyphs" textLength="145" x="26" y="104.1016">string getThrows()</text><ellipse cx="17" cy="118.1875" fill="#84BE84" rx="3" ry="3" style="stroke: #038048; stroke-width: 1.0;"/><text fill="#19273C" font-family="sans-serif" font-size="16" lengthAdjust="spacingAndGlyphs" textLength="163" x="26" y="122.7266">string getLanguage()</text><ellipse cx="17" cy="136.8125" fill="#84BE84" rx="3" ry="3" style="stroke: #038048; stroke-width: 1.0;"/><text fill="#19273C" font-family="sans-serif" font-size="16" lengthAdjust="spacingAndGlyphs" textLength="187" x="26" y="141.3516">string[] getDecorators()</text><ellipse cx="17" cy="155.4375" fill="#84BE84" rx="3" ry="3" style="stroke: #038048; stroke-width: 1.0;"/><text fill="#19273C" font-family="sans-serif" font-size="16" lengthAdjust="spacingAndGlyphs" textLength="147" x="26" y="159.9766">string getVisibility()</text><ellipse cx="17" cy="174.0625" fill="#84BE84" rx="3" ry="3" style="stroke: #038048; stroke-width: 1.0;"/><text fill="#19273C" font-family="sans-serif" font-size="16" lengthAdjust="spacingAndGlyphs" textLength="177" x="26" y="178.6016">string getReturnType()</text><ellipse cx="17" cy="192.6875" fill="#84BE84" rx="3" ry="3" style="stroke: #038048; stroke-width: 1.0;"/><text fill="#19273C" font-family="sans-serif" font-size="16" lengthAdjust="spacingAndGlyphs" textLength="132" x="26" y="197.2266">string getName()</text><ellipse cx="17" cy="211.3125" fill="#84BE84" rx="3" ry="3" style="stroke: #038048; stroke-width: 1.0;"/><text fill="#19273C" font-family="sans-serif" font-size="16" lengthAdjust="spacingAndGlyphs" textLength="310" x="26" y="215.8516">string getTransactionDeclarationName()</text><ellipse cx="17" cy="229.9375" fill="#84BE84" rx="3" ry="3" style="stroke: #038048; stroke-width: 1.0;"/><text fill="#19273C" font-family="sans-serif" font-size="16" lengthAdjust="spacingAndGlyphs" textLength="234" x="26" y="234.4766">string[] getParameterNames()</text><ellipse cx="17" cy="248.5625" fill="#84BE84" rx="3" ry="3" style="stroke: #038048; stroke-width: 1.0;"/><text fill="#19273C" font-family="sans-serif" font-size="16" lengthAdjust="spacingAndGlyphs" textLength="226" x="26" y="253.1016">string[] getParameterTypes()</text></g></svg>