<?xml version="1.0" encoding="UTF-8" standalone="no"?><svg xmlns="http://www.w3.org/2000/svg" xmlns:xlink="http://www.w3.org/1999/xlink" contentScriptType="application/ecmascript" contentStyleType="text/css" height="277px" preserveAspectRatio="none" style="width:254px;height:277px;" version="1.1" viewBox="0 0 254 277" width="254px" zoomAndPan="magnify"><defs/><g><!--class MemoryCardStore--><rect fill="#F8FAFA" height="159.75" rx="1" ry="1" style="stroke: #E3ECEC; stroke-width: 1.5;" width="174" x="42.5" y="8"/><ellipse cx="57.5" cy="24" fill="#FFFFFF" rx="11" ry="11" style="stroke: #E3ECEC; stroke-width: 1.0;"/><path d="M59.9531,29.6563 Q59.4063,29.9375 58.8047,30.0859 Q58.2031,30.2344 57.5313,30.2344 Q55.1719,30.2344 53.9297,28.6719 Q52.6875,27.1094 52.6875,24.1719 Q52.6875,21.2344 53.9297,19.6797 Q55.1719,18.125 57.5313,18.125 Q58.2031,18.125 58.8125,18.2656 Q59.4219,18.4063 59.9531,18.6875 L59.9531,21.25 Q59.3594,20.7031 58.7969,20.4453 Q58.2344,20.1875 57.6406,20.1875 Q56.375,20.1875 55.7344,21.1953 Q55.0938,22.2031 55.0938,24.1719 Q55.0938,26.1406 55.7344,27.1484 Q56.375,28.1563 57.6406,28.1563 Q58.2344,28.1563 58.7969,27.8984 Q59.3594,27.6406 59.9531,27.0938 L59.9531,29.6563 Z "/><text fill="#19273C" font-family="sans-serif" font-size="16" lengthAdjust="spacingAndGlyphs" textLength="142" x="71.5" y="29.5391">MemoryCardStore</text><line style="stroke: #E3ECEC; stroke-width: 1.5;" x1="43.5" x2="215.5" y1="40" y2="40"/><line style="stroke: #E3ECEC; stroke-width: 1.5;" x1="43.5" x2="215.5" y1="48" y2="48"/><ellipse cx="53.5" cy="62.3125" fill="#84BE84" rx="3" ry="3" style="stroke: #038048; stroke-width: 1.0;"/><text fill="#19273C" font-family="sans-serif" font-size="16" lengthAdjust="spacingAndGlyphs" textLength="142" x="62.5" y="66.8516">void constructor()</text><ellipse cx="53.5" cy="80.9375" fill="#84BE84" rx="3" ry="3" style="stroke: #038048; stroke-width: 1.0;"/><text fill="#19273C" font-family="sans-serif" font-size="16" lengthAdjust="spacingAndGlyphs" textLength="74" x="62.5" y="85.4766">void get()</text><ellipse cx="53.5" cy="99.5625" fill="#84BE84" rx="3" ry="3" style="stroke: #038048; stroke-width: 1.0;"/><text fill="#19273C" font-family="sans-serif" font-size="16" lengthAdjust="spacingAndGlyphs" textLength="75" x="62.5" y="104.1016">void put()</text><ellipse cx="53.5" cy="118.1875" fill="#84BE84" rx="3" ry="3" style="stroke: #038048; stroke-width: 1.0;"/><text fill="#19273C" font-family="sans-serif" font-size="16" lengthAdjust="spacingAndGlyphs" textLength="77" x="62.5" y="122.7266">void has()</text><ellipse cx="53.5" cy="136.8125" fill="#84BE84" rx="3" ry="3" style="stroke: #038048; stroke-width: 1.0;"/><text fill="#19273C" font-family="sans-serif" font-size="16" lengthAdjust="spacingAndGlyphs" textLength="91" x="62.5" y="141.3516">void getAll()</text><ellipse cx="53.5" cy="155.4375" fill="#84BE84" rx="3" ry="3" style="stroke: #038048; stroke-width: 1.0;"/><text fill="#19273C" font-family="sans-serif" font-size="16" lengthAdjust="spacingAndGlyphs" textLength="95" x="62.5" y="159.9766">void delete()</text><!--class BusinessNetworkCardStore--><rect fill="#F8FAFA" height="48" rx="1" ry="1" style="stroke: #E3ECEC; stroke-width: 1.5;" width="247" x="6" y="228"/><ellipse cx="21" cy="244" fill="#FFFFFF" rx="11" ry="11" style="stroke: #E3ECEC; stroke-width: 1.0;"/><path d="M23.4531,249.6563 Q22.9063,249.9375 22.3047,250.0859 Q21.7031,250.2344 21.0313,250.2344 Q18.6719,250.2344 17.4297,248.6719 Q16.1875,247.1094 16.1875,244.1719 Q16.1875,241.2344 17.4297,239.6797 Q18.6719,238.125 21.0313,238.125 Q21.7031,238.125 22.3125,238.2656 Q22.9219,238.4063 23.4531,238.6875 L23.4531,241.25 Q22.8594,240.7031 22.2969,240.4453 Q21.7344,240.1875 21.1406,240.1875 Q19.875,240.1875 19.2344,241.1953 Q18.5938,242.2031 18.5938,244.1719 Q18.5938,246.1406 19.2344,247.1484 Q19.875,248.1563 21.1406,248.1563 Q21.7344,248.1563 22.2969,247.8984 Q22.8594,247.6406 23.4531,247.0938 L23.4531,249.6563 Z "/><text fill="#19273C" font-family="sans-serif" font-size="16" lengthAdjust="spacingAndGlyphs" textLength="215" x="35" y="249.5391">BusinessNetworkCardStore</text><line style="stroke: #E3ECEC; stroke-width: 1.5;" x1="7" x2="252" y1="260" y2="260"/><line style="stroke: #E3ECEC; stroke-width: 1.5;" x1="7" x2="252" y1="268" y2="268"/><path d="M129.5,168.102 C129.5,181.7558 129.5,195.4818 129.5,207.7267 " fill="none" style="stroke: #3C6DF0; stroke-width: 1.0;"/><polygon fill="none" points="136.5,207.8324,129.5,227.8324,122.5,207.8324,136.5,207.8324" style="stroke: #3C6DF0; stroke-width: 1.0;"/></g></svg>