<?xml version="1.0" encoding="UTF-8" standalone="no"?><svg xmlns="http://www.w3.org/2000/svg" xmlns:xlink="http://www.w3.org/1999/xlink" contentScriptType="application/ecmascript" contentStyleType="text/css" height="317px" preserveAspectRatio="none" style="width:514px;height:317px;" version="1.1" viewBox="0 0 514 317" width="514px" zoomAndPan="magnify"><defs/><g><!--class ModelManager--><rect fill="#F8FAFA" height="308.75" rx="1" ry="1" style="stroke: #E3ECEC; stroke-width: 1.5;" width="507" x="6" y="8"/><ellipse cx="199.25" cy="24" fill="#FFFFFF" rx="11" ry="11" style="stroke: #E3ECEC; stroke-width: 1.0;"/><path d="M201.7031,29.6563 Q201.1563,29.9375 200.5547,30.0859 Q199.9531,30.2344 199.2813,30.2344 Q196.9219,30.2344 195.6797,28.6719 Q194.4375,27.1094 194.4375,24.1719 Q194.4375,21.2344 195.6797,19.6797 Q196.9219,18.125 199.2813,18.125 Q199.9531,18.125 200.5625,18.2656 Q201.1719,18.4063 201.7031,18.6875 L201.7031,21.25 Q201.1094,20.7031 200.5469,20.4453 Q199.9844,20.1875 199.3906,20.1875 Q198.125,20.1875 197.4844,21.1953 Q196.8438,22.2031 196.8438,24.1719 Q196.8438,26.1406 197.4844,27.1484 Q198.125,28.1563 199.3906,28.1563 Q199.9844,28.1563 200.5469,27.8984 Q201.1094,27.6406 201.7031,27.0938 L201.7031,29.6563 Z "/><text fill="#19273C" font-family="sans-serif" font-size="16" lengthAdjust="spacingAndGlyphs" textLength="112" x="219.75" y="29.5391">ModelManager</text><line style="stroke: #E3ECEC; stroke-width: 1.5;" x1="7" x2="512" y1="40" y2="40"/><line style="stroke: #E3ECEC; stroke-width: 1.5;" x1="7" x2="512" y1="48" y2="48"/><ellipse cx="17" cy="62.3125" fill="#84BE84" rx="3" ry="3" style="stroke: #038048; stroke-width: 1.0;"/><text fill="#19273C" font-family="sans-serif" font-size="16" lengthAdjust="spacingAndGlyphs" textLength="271" x="26" y="66.8516">void validateModelFile(string,string)</text><ellipse cx="17" cy="80.9375" fill="#84BE84" rx="3" ry="3" style="stroke: #038048; stroke-width: 1.0;"/><text fill="#19273C" font-family="sans-serif" font-size="16" lengthAdjust="spacingAndGlyphs" textLength="260" x="26" y="85.4766">Object addModelFile(string,string)</text><ellipse cx="17" cy="99.5625" fill="#84BE84" rx="3" ry="3" style="stroke: #038048; stroke-width: 1.0;"/><text fill="#19273C" font-family="sans-serif" font-size="16" lengthAdjust="spacingAndGlyphs" textLength="285" x="26" y="104.1016">Object updateModelFile(string,string)</text><ellipse cx="17" cy="118.1875" fill="#84BE84" rx="3" ry="3" style="stroke: #038048; stroke-width: 1.0;"/><text fill="#19273C" font-family="sans-serif" font-size="16" lengthAdjust="spacingAndGlyphs" textLength="209" x="26" y="122.7266">void deleteModelFile(string)</text><ellipse cx="17" cy="136.8125" fill="#84BE84" rx="3" ry="3" style="stroke: #038048; stroke-width: 1.0;"/><text fill="#19273C" font-family="sans-serif" font-size="16" lengthAdjust="spacingAndGlyphs" textLength="305" x="26" y="141.3516">Object[] addModelFiles(string[],string[])</text><ellipse cx="17" cy="155.4375" fill="#84BE84" rx="3" ry="3" style="stroke: #038048; stroke-width: 1.0;"/><text fill="#19273C" font-family="sans-serif" font-size="16" lengthAdjust="spacingAndGlyphs" textLength="164" x="26" y="159.9766">void clearModelFiles()</text><ellipse cx="17" cy="174.0625" fill="#84BE84" rx="3" ry="3" style="stroke: #038048; stroke-width: 1.0;"/><text fill="#19273C" font-family="sans-serif" font-size="16" lengthAdjust="spacingAndGlyphs" textLength="199" x="26" y="178.6016">string[] getNamespaces()</text><ellipse cx="17" cy="192.6875" fill="#84BE84" rx="3" ry="3" style="stroke: #038048; stroke-width: 1.0;"/><text fill="#19273C" font-family="sans-serif" font-size="16" lengthAdjust="spacingAndGlyphs" textLength="286" x="26" y="197.2266">ClassDeclaration[] getSystemTypes()</text><ellipse cx="17" cy="211.3125" fill="#84BE84" rx="3" ry="3" style="stroke: #038048; stroke-width: 1.0;"/><text fill="#19273C" font-family="sans-serif" font-size="16" lengthAdjust="spacingAndGlyphs" textLength="387" x="26" y="215.8516">AssetDeclaration[] getAssetDeclarations(Boolean)</text><ellipse cx="17" cy="229.9375" fill="#84BE84" rx="3" ry="3" style="stroke: #038048; stroke-width: 1.0;"/><text fill="#19273C" font-family="sans-serif" font-size="16" lengthAdjust="spacingAndGlyphs" textLength="481" x="26" y="234.4766">TransactionDeclaration[] getTransactionDeclarations(Boolean)</text><ellipse cx="17" cy="248.5625" fill="#84BE84" rx="3" ry="3" style="stroke: #038048; stroke-width: 1.0;"/><text fill="#19273C" font-family="sans-serif" font-size="16" lengthAdjust="spacingAndGlyphs" textLength="387" x="26" y="253.1016">EventDeclaration[] getEventDeclarations(Boolean)</text><ellipse cx="17" cy="267.1875" fill="#84BE84" rx="3" ry="3" style="stroke: #038048; stroke-width: 1.0;"/><text fill="#19273C" font-family="sans-serif" font-size="16" lengthAdjust="spacingAndGlyphs" textLength="463" x="26" y="271.7266">ParticipantDeclaration[] getParticipantDeclarations(Boolean)</text><ellipse cx="17" cy="285.8125" fill="#84BE84" rx="3" ry="3" style="stroke: #038048; stroke-width: 1.0;"/><text fill="#19273C" font-family="sans-serif" font-size="16" lengthAdjust="spacingAndGlyphs" textLength="389" x="26" y="290.3516">EnumDeclaration[] getEnumDeclarations(Boolean)</text><ellipse cx="17" cy="304.4375" fill="#84BE84" rx="3" ry="3" style="stroke: #038048; stroke-width: 1.0;"/><text fill="#19273C" font-family="sans-serif" font-size="16" lengthAdjust="spacingAndGlyphs" textLength="429" x="26" y="308.9766">ConceptDeclaration[] getConceptDeclarations(Boolean)</text></g></svg>