<?xml version="1.0" encoding="UTF-8" standalone="no"?><svg xmlns="http://www.w3.org/2000/svg" xmlns:xlink="http://www.w3.org/1999/xlink" contentScriptType="application/ecmascript" contentStyleType="text/css" height="370px" preserveAspectRatio="none" style="width:358px;height:370px;" version="1.1" viewBox="0 0 358 370" width="358px" zoomAndPan="magnify"><defs/><g><!--class Property--><rect fill="#F8FAFA" height="252.875" rx="1" ry="1" style="stroke: #E3ECEC; stroke-width: 1.5;" width="351" x="6" y="8"/><ellipse cx="143.25" cy="24" fill="#FFFFFF" rx="11" ry="11" style="stroke: #E3ECEC; stroke-width: 1.0;"/><path d="M145.7031,29.6563 Q145.1563,29.9375 144.5547,30.0859 Q143.9531,30.2344 143.2813,30.2344 Q140.9219,30.2344 139.6797,28.6719 Q138.4375,27.1094 138.4375,24.1719 Q138.4375,21.2344 139.6797,19.6797 Q140.9219,18.125 143.2813,18.125 Q143.9531,18.125 144.5625,18.2656 Q145.1719,18.4063 145.7031,18.6875 L145.7031,21.25 Q145.1094,20.7031 144.5469,20.4453 Q143.9844,20.1875 143.3906,20.1875 Q142.125,20.1875 141.4844,21.1953 Q140.8438,22.2031 140.8438,24.1719 Q140.8438,26.1406 141.4844,27.1484 Q142.125,28.1563 143.3906,28.1563 Q143.9844,28.1563 144.5469,27.8984 Q145.1094,27.6406 145.7031,27.0938 L145.7031,29.6563 Z "/><text fill="#19273C" font-family="sans-serif" font-size="16" lengthAdjust="spacingAndGlyphs" textLength="68" x="163.75" y="29.5391">Property</text><line style="stroke: #E3ECEC; stroke-width: 1.5;" x1="7" x2="356" y1="40" y2="40"/><line style="stroke: #E3ECEC; stroke-width: 1.5;" x1="7" x2="356" y1="48" y2="48"/><ellipse cx="17" cy="62.3125" fill="#84BE84" rx="3" ry="3" style="stroke: #038048; stroke-width: 1.0;"/><text fill="#19273C" font-family="sans-serif" font-size="16" lengthAdjust="spacingAndGlyphs" textLength="325" x="26" y="66.8516">void constructor(ClassDeclaration,Object)</text><ellipse cx="17" cy="80.9375" fill="#84BE84" rx="3" ry="3" style="stroke: #038048; stroke-width: 1.0;"/><text fill="#19273C" font-family="sans-serif" font-size="16" lengthAdjust="spacingAndGlyphs" textLength="221" x="26" y="85.4766">ClassDeclaration getParent()</text><ellipse cx="17" cy="99.5625" fill="#84BE84" rx="3" ry="3" style="stroke: #038048; stroke-width: 1.0;"/><text fill="#19273C" font-family="sans-serif" font-size="16" lengthAdjust="spacingAndGlyphs" textLength="132" x="26" y="104.1016">string getName()</text><ellipse cx="17" cy="118.1875" fill="#84BE84" rx="3" ry="3" style="stroke: #038048; stroke-width: 1.0;"/><text fill="#19273C" font-family="sans-serif" font-size="16" lengthAdjust="spacingAndGlyphs" textLength="124" x="26" y="122.7266">string getType()</text><ellipse cx="17" cy="136.8125" fill="#84BE84" rx="3" ry="3" style="stroke: #038048; stroke-width: 1.0;"/><text fill="#19273C" font-family="sans-serif" font-size="16" lengthAdjust="spacingAndGlyphs" textLength="154" x="26" y="141.3516">boolean isOptional()</text><ellipse cx="17" cy="155.4375" fill="#84BE84" rx="3" ry="3" style="stroke: #038048; stroke-width: 1.0;"/><text fill="#19273C" font-family="sans-serif" font-size="16" lengthAdjust="spacingAndGlyphs" textLength="269" x="26" y="159.9766">string getFullyQualifiedTypeName()</text><ellipse cx="17" cy="174.0625" fill="#84BE84" rx="3" ry="3" style="stroke: #038048; stroke-width: 1.0;"/><text fill="#19273C" font-family="sans-serif" font-size="16" lengthAdjust="spacingAndGlyphs" textLength="232" x="26" y="178.6016">string getFullyQualifiedName()</text><ellipse cx="17" cy="192.6875" fill="#84BE84" rx="3" ry="3" style="stroke: #038048; stroke-width: 1.0;"/><text fill="#19273C" font-family="sans-serif" font-size="16" lengthAdjust="spacingAndGlyphs" textLength="178" x="26" y="197.2266">string getNamespace()</text><ellipse cx="17" cy="211.3125" fill="#84BE84" rx="3" ry="3" style="stroke: #038048; stroke-width: 1.0;"/><text fill="#19273C" font-family="sans-serif" font-size="16" lengthAdjust="spacingAndGlyphs" textLength="133" x="26" y="215.8516">boolean isArray()</text><ellipse cx="17" cy="229.9375" fill="#84BE84" rx="3" ry="3" style="stroke: #038048; stroke-width: 1.0;"/><text fill="#19273C" font-family="sans-serif" font-size="16" lengthAdjust="spacingAndGlyphs" textLength="172" x="26" y="234.4766">boolean isTypeEnum()</text><ellipse cx="17" cy="248.5625" fill="#84BE84" rx="3" ry="3" style="stroke: #038048; stroke-width: 1.0;"/><text fill="#19273C" font-family="sans-serif" font-size="16" lengthAdjust="spacingAndGlyphs" textLength="155" x="26" y="253.1016">boolean isPrimitive()</text><!--class Decorated--><rect fill="#F8FAFA" height="48" rx="1" ry="1" style="stroke: #E3ECEC; stroke-width: 1.5;" width="113" x="125" y="321"/><ellipse cx="140" cy="337" fill="#FFFFFF" rx="11" ry="11" style="stroke: #E3ECEC; stroke-width: 1.0;"/><path d="M142.4531,342.6563 Q141.9063,342.9375 141.3047,343.0859 Q140.7031,343.2344 140.0313,343.2344 Q137.6719,343.2344 136.4297,341.6719 Q135.1875,340.1094 135.1875,337.1719 Q135.1875,334.2344 136.4297,332.6797 Q137.6719,331.125 140.0313,331.125 Q140.7031,331.125 141.3125,331.2656 Q141.9219,331.4063 142.4531,331.6875 L142.4531,334.25 Q141.8594,333.7031 141.2969,333.4453 Q140.7344,333.1875 140.1406,333.1875 Q138.875,333.1875 138.2344,334.1953 Q137.5938,335.2031 137.5938,337.1719 Q137.5938,339.1406 138.2344,340.1484 Q138.875,341.1563 140.1406,341.1563 Q140.7344,341.1563 141.2969,340.8984 Q141.8594,340.6406 142.4531,340.0938 L142.4531,342.6563 Z "/><text fill="#19273C" font-family="sans-serif" font-size="16" lengthAdjust="spacingAndGlyphs" textLength="81" x="154" y="342.5391">Decorated</text><line style="stroke: #E3ECEC; stroke-width: 1.5;" x1="126" x2="237" y1="353" y2="353"/><line style="stroke: #E3ECEC; stroke-width: 1.5;" x1="126" x2="237" y1="361" y2="361"/><path d="M181.5,261.296 C181.5,275.415 181.5,288.9829 181.5,300.9013 " fill="none" style="stroke: #3C6DF0; stroke-width: 1.0;"/><polygon fill="none" points="188.5,300.913,181.5,320.9129,174.5,300.9129,188.5,300.913" style="stroke: #3C6DF0; stroke-width: 1.0;"/></g></svg>