<?xml version="1.0" encoding="UTF-8" standalone="no"?><svg xmlns="http://www.w3.org/2000/svg" xmlns:xlink="http://www.w3.org/1999/xlink" contentScriptType="application/ecmascript" contentStyleType="text/css" height="221px" preserveAspectRatio="none" style="width:474px;height:221px;" version="1.1" viewBox="0 0 474 221" width="474px" zoomAndPan="magnify"><defs/><g><!--class Relationship--><rect fill="#F8FAFA" height="103.875" rx="1" ry="1" style="stroke: #E3ECEC; stroke-width: 1.5;" width="467" x="6" y="8"/><ellipse cx="188.75" cy="24" fill="#FFFFFF" rx="11" ry="11" style="stroke: #E3ECEC; stroke-width: 1.0;"/><path d="M191.2031,29.6563 Q190.6563,29.9375 190.0547,30.0859 Q189.4531,30.2344 188.7813,30.2344 Q186.4219,30.2344 185.1797,28.6719 Q183.9375,27.1094 183.9375,24.1719 Q183.9375,21.2344 185.1797,19.6797 Q186.4219,18.125 188.7813,18.125 Q189.4531,18.125 190.0625,18.2656 Q190.6719,18.4063 191.2031,18.6875 L191.2031,21.25 Q190.6094,20.7031 190.0469,20.4453 Q189.4844,20.1875 188.8906,20.1875 Q187.625,20.1875 186.9844,21.1953 Q186.3438,22.2031 186.3438,24.1719 Q186.3438,26.1406 186.9844,27.1484 Q187.625,28.1563 188.8906,28.1563 Q189.4844,28.1563 190.0469,27.8984 Q190.6094,27.6406 191.2031,27.0938 L191.2031,29.6563 Z "/><text fill="#19273C" font-family="sans-serif" font-size="16" lengthAdjust="spacingAndGlyphs" textLength="93" x="209.25" y="29.5391">Relationship</text><line style="stroke: #E3ECEC; stroke-width: 1.5;" x1="7" x2="472" y1="40" y2="40"/><line style="stroke: #E3ECEC; stroke-width: 1.5;" x1="7" x2="472" y1="48" y2="48"/><ellipse cx="17" cy="62.3125" fill="#84BE84" rx="3" ry="3" style="stroke: #038048; stroke-width: 1.0;"/><text fill="#19273C" font-family="sans-serif" font-size="16" lengthAdjust="spacingAndGlyphs" textLength="125" x="26" y="66.8516">String toString()</text><ellipse cx="17" cy="80.9375" fill="#84BE84" rx="3" ry="3" style="stroke: #038048; stroke-width: 1.0;"/><text fill="#19273C" font-family="sans-serif" font-size="16" lengthAdjust="spacingAndGlyphs" textLength="183" x="26" y="85.4766">boolean isRelationship()</text><ellipse cx="17" cy="99.5625" fill="#84BE84" rx="3" ry="3" style="stroke: #038048; stroke-width: 1.0;"/><text fill="#19273C" font-family="sans-serif" font-size="16" lengthAdjust="spacingAndGlyphs" textLength="441" x="26" y="104.1016">Relationship fromURI(ModelManager,String,String,String)</text><!--class Identifiable--><rect fill="#F8FAFA" height="48" rx="1" ry="1" style="stroke: #E3ECEC; stroke-width: 1.5;" width="115" x="182" y="172"/><ellipse cx="197" cy="188" fill="#FFFFFF" rx="11" ry="11" style="stroke: #E3ECEC; stroke-width: 1.0;"/><path d="M199.4531,193.6563 Q198.9063,193.9375 198.3047,194.0859 Q197.7031,194.2344 197.0313,194.2344 Q194.6719,194.2344 193.4297,192.6719 Q192.1875,191.1094 192.1875,188.1719 Q192.1875,185.2344 193.4297,183.6797 Q194.6719,182.125 197.0313,182.125 Q197.7031,182.125 198.3125,182.2656 Q198.9219,182.4063 199.4531,182.6875 L199.4531,185.25 Q198.8594,184.7031 198.2969,184.4453 Q197.7344,184.1875 197.1406,184.1875 Q195.875,184.1875 195.2344,185.1953 Q194.5938,186.2031 194.5938,188.1719 Q194.5938,190.1406 195.2344,191.1484 Q195.875,192.1563 197.1406,192.1563 Q197.7344,192.1563 198.2969,191.8984 Q198.8594,191.6406 199.4531,191.0938 L199.4531,193.6563 Z "/><text fill="#19273C" font-family="sans-serif" font-size="16" lengthAdjust="spacingAndGlyphs" textLength="83" x="211" y="193.5391">Identifiable</text><line style="stroke: #E3ECEC; stroke-width: 1.5;" x1="183" x2="296" y1="204" y2="204"/><line style="stroke: #E3ECEC; stroke-width: 1.5;" x1="183" x2="296" y1="212" y2="212"/><path d="M239.5,112.042 C239.5,125.0534 239.5,138.9174 239.5,151.512 " fill="none" style="stroke: #3C6DF0; stroke-width: 1.0;"/><polygon fill="none" points="246.5,151.7391,239.5,171.7391,232.5,151.7391,246.5,151.7391" style="stroke: #3C6DF0; stroke-width: 1.0;"/></g></svg>