<?xml version="1.0" encoding="UTF-8" standalone="no"?><svg xmlns="http://www.w3.org/2000/svg" xmlns:xlink="http://www.w3.org/1999/xlink" contentScriptType="application/ecmascript" contentStyleType="text/css" height="202px" preserveAspectRatio="none" style="width:358px;height:202px;" version="1.1" viewBox="0 0 358 202" width="358px" zoomAndPan="magnify"><defs/><g><!--class RelationshipDeclaration--><rect fill="#F8FAFA" height="85.25" rx="1" ry="1" style="stroke: #E3ECEC; stroke-width: 1.5;" width="351" x="6" y="8"/><ellipse cx="87.25" cy="24" fill="#FFFFFF" rx="11" ry="11" style="stroke: #E3ECEC; stroke-width: 1.0;"/><path d="M89.7031,29.6563 Q89.1563,29.9375 88.5547,30.0859 Q87.9531,30.2344 87.2813,30.2344 Q84.9219,30.2344 83.6797,28.6719 Q82.4375,27.1094 82.4375,24.1719 Q82.4375,21.2344 83.6797,19.6797 Q84.9219,18.125 87.2813,18.125 Q87.9531,18.125 88.5625,18.2656 Q89.1719,18.4063 89.7031,18.6875 L89.7031,21.25 Q89.1094,20.7031 88.5469,20.4453 Q87.9844,20.1875 87.3906,20.1875 Q86.125,20.1875 85.4844,21.1953 Q84.8438,22.2031 84.8438,24.1719 Q84.8438,26.1406 85.4844,27.1484 Q86.125,28.1563 87.3906,28.1563 Q87.9844,28.1563 88.5469,27.8984 Q89.1094,27.6406 89.7031,27.0938 L89.7031,29.6563 Z "/><text fill="#19273C" font-family="sans-serif" font-size="16" lengthAdjust="spacingAndGlyphs" textLength="180" x="107.75" y="29.5391">RelationshipDeclaration</text><line style="stroke: #E3ECEC; stroke-width: 1.5;" x1="7" x2="356" y1="40" y2="40"/><line style="stroke: #E3ECEC; stroke-width: 1.5;" x1="7" x2="356" y1="48" y2="48"/><ellipse cx="17" cy="62.3125" fill="#84BE84" rx="3" ry="3" style="stroke: #038048; stroke-width: 1.0;"/><text fill="#19273C" font-family="sans-serif" font-size="16" lengthAdjust="spacingAndGlyphs" textLength="325" x="26" y="66.8516">void constructor(ClassDeclaration,Object)</text><ellipse cx="17" cy="80.9375" fill="#84BE84" rx="3" ry="3" style="stroke: #038048; stroke-width: 1.0;"/><text fill="#19273C" font-family="sans-serif" font-size="16" lengthAdjust="spacingAndGlyphs" textLength="125" x="26" y="85.4766">String toString()</text><!--class Property--><rect fill="#F8FAFA" height="48" rx="1" ry="1" style="stroke: #E3ECEC; stroke-width: 1.5;" width="100" x="131.5" y="153"/><ellipse cx="146.5" cy="169" fill="#FFFFFF" rx="11" ry="11" style="stroke: #E3ECEC; stroke-width: 1.0;"/><path d="M148.9531,174.6563 Q148.4063,174.9375 147.8047,175.0859 Q147.2031,175.2344 146.5313,175.2344 Q144.1719,175.2344 142.9297,173.6719 Q141.6875,172.1094 141.6875,169.1719 Q141.6875,166.2344 142.9297,164.6797 Q144.1719,163.125 146.5313,163.125 Q147.2031,163.125 147.8125,163.2656 Q148.4219,163.4063 148.9531,163.6875 L148.9531,166.25 Q148.3594,165.7031 147.7969,165.4453 Q147.2344,165.1875 146.6406,165.1875 Q145.375,165.1875 144.7344,166.1953 Q144.0938,167.2031 144.0938,169.1719 Q144.0938,171.1406 144.7344,172.1484 Q145.375,173.1563 146.6406,173.1563 Q147.2344,173.1563 147.7969,172.8984 Q148.3594,172.6406 148.9531,172.0938 L148.9531,174.6563 Z "/><text fill="#19273C" font-family="sans-serif" font-size="16" lengthAdjust="spacingAndGlyphs" textLength="68" x="160.5" y="174.5391">Property</text><line style="stroke: #E3ECEC; stroke-width: 1.5;" x1="132.5" x2="230.5" y1="185" y2="185"/><line style="stroke: #E3ECEC; stroke-width: 1.5;" x1="132.5" x2="230.5" y1="193" y2="193"/><path d="M181.5,93.303 C181.5,106.0649 181.5,120.1166 181.5,132.959 " fill="none" style="stroke: #3C6DF0; stroke-width: 1.0;"/><polygon fill="none" points="188.5,132.9891,181.5,152.989,174.5,132.989,188.5,132.9891" style="stroke: #3C6DF0; stroke-width: 1.0;"/></g></svg>