<?xml version="1.0" encoding="UTF-8" standalone="no"?><svg xmlns="http://www.w3.org/2000/svg" xmlns:xlink="http://www.w3.org/1999/xlink" contentScriptType="application/ecmascript" contentStyleType="text/css" height="206px" preserveAspectRatio="none" style="width:262px;height:206px;" version="1.1" viewBox="0 0 262 206" width="262px" zoomAndPan="magnify"><defs/><g><!--class Wallet--><rect fill="#F8FAFA" height="197" rx="1" ry="1" style="stroke: #E3ECEC; stroke-width: 1.5;" width="255" x="6" y="8.5"/><ellipse cx="105.75" cy="24.5" fill="#FFFFFF" rx="11" ry="11" style="stroke: #E3ECEC; stroke-width: 1.0;"/><path d="M108.2031,30.1563 Q107.6563,30.4375 107.0547,30.5859 Q106.4531,30.7344 105.7813,30.7344 Q103.4219,30.7344 102.1797,29.1719 Q100.9375,27.6094 100.9375,24.6719 Q100.9375,21.7344 102.1797,20.1797 Q103.4219,18.625 105.7813,18.625 Q106.4531,18.625 107.0625,18.7656 Q107.6719,18.9063 108.2031,19.1875 L108.2031,21.75 Q107.6094,21.2031 107.0469,20.9453 Q106.4844,20.6875 105.8906,20.6875 Q104.625,20.6875 103.9844,21.6953 Q103.3438,22.7031 103.3438,24.6719 Q103.3438,26.6406 103.9844,27.6484 Q104.625,28.6563 105.8906,28.6563 Q106.4844,28.6563 107.0469,28.3984 Q107.6094,28.1406 108.2031,27.5938 L108.2031,30.1563 Z "/><text fill="#19273C" font-family="sans-serif" font-size="16" lengthAdjust="spacingAndGlyphs" textLength="47" x="126.25" y="30.0391">Wallet</text><line style="stroke: #E3ECEC; stroke-width: 1.5;" x1="7" x2="260" y1="40.5" y2="40.5"/><line style="stroke: #E3ECEC; stroke-width: 1.5;" x1="7" x2="260" y1="48.5" y2="48.5"/><ellipse cx="17" cy="62.8125" fill="#84BE84" rx="3" ry="3" style="stroke: #038048; stroke-width: 1.0;"/><text fill="#19273C" font-family="sans-serif" font-size="16" lengthAdjust="spacingAndGlyphs" textLength="136" x="26" y="67.3516">Wallet getWallet()</text><ellipse cx="17" cy="81.4375" fill="#84BE84" rx="3" ry="3" style="stroke: #038048; stroke-width: 1.0;"/><text fill="#19273C" font-family="sans-serif" font-size="16" lengthAdjust="spacingAndGlyphs" textLength="167" x="26" y="85.9766">void setWallet(Wallet)</text><ellipse cx="17" cy="100.0625" fill="#84BE84" rx="3" ry="3" style="stroke: #038048; stroke-width: 1.0;"/><text fill="#19273C" font-family="sans-serif" font-size="16" lengthAdjust="spacingAndGlyphs" textLength="101" x="26" y="104.6016">Promise list()</text><ellipse cx="17" cy="118.6875" fill="#84BE84" rx="3" ry="3" style="stroke: #038048; stroke-width: 1.0;"/><text fill="#19273C" font-family="sans-serif" font-size="16" lengthAdjust="spacingAndGlyphs" textLength="191" x="26" y="123.2266">Promise contains(string)</text><ellipse cx="17" cy="137.3125" fill="#84BE84" rx="3" ry="3" style="stroke: #038048; stroke-width: 1.0;"/><text fill="#19273C" font-family="sans-serif" font-size="16" lengthAdjust="spacingAndGlyphs" textLength="150" x="26" y="141.8516">Promise get(string)</text><ellipse cx="17" cy="155.9375" fill="#84BE84" rx="3" ry="3" style="stroke: #038048; stroke-width: 1.0;"/><text fill="#19273C" font-family="sans-serif" font-size="16" lengthAdjust="spacingAndGlyphs" textLength="204" x="26" y="160.4766">Promise add(string,string)</text><ellipse cx="17" cy="174.5625" fill="#84BE84" rx="3" ry="3" style="stroke: #038048; stroke-width: 1.0;"/><text fill="#19273C" font-family="sans-serif" font-size="16" lengthAdjust="spacingAndGlyphs" textLength="229" x="26" y="179.1016">Promise update(string,string)</text><ellipse cx="17" cy="193.1875" fill="#84BE84" rx="3" ry="3" style="stroke: #038048; stroke-width: 1.0;"/><text fill="#19273C" font-family="sans-serif" font-size="16" lengthAdjust="spacingAndGlyphs" textLength="184" x="26" y="197.7266">Promise remove(string)</text></g></svg>