<?xml version="1.0" encoding="UTF-8" standalone="no"?><svg xmlns="http://www.w3.org/2000/svg" xmlns:xlink="http://www.w3.org/1999/xlink" contentScriptType="application/ecmascript" contentStyleType="text/css" height="222px" preserveAspectRatio="none" style="width:302px;height:222px;" version="1.1" viewBox="0 0 302 222" width="302px" zoomAndPan="magnify"><defs/><g><!--class AssetDeclaration--><rect fill="#F8FAFA" height="104.5313" rx="1" ry="1" style="stroke: #E3ECEC; stroke-width: 1.5;" width="295" x="6" y="8"/><ellipse cx="83.25" cy="24" fill="#FFFFFF" rx="11" ry="11" style="stroke: #E3ECEC; stroke-width: 1.0;"/><path d="M85.6953,29.6641 Q85.1484,29.9453 84.5469,30.0859 Q83.9453,30.2266 83.2813,30.2266 Q80.9219,30.2266 79.6797,28.6719 Q78.4375,27.1172 78.4375,24.1797 Q78.4375,21.2344 79.6797,19.6797 Q80.9219,18.125 83.2813,18.125 Q83.9453,18.125 84.5547,18.2656 Q85.1641,18.4063 85.6953,18.6875 L85.6953,21.25 Q85.1016,20.7031 84.543,20.4492 Q83.9844,20.1953 83.3906,20.1953 Q82.125,20.1953 81.4805,21.1992 Q80.8359,22.2031 80.8359,24.1797 Q80.8359,26.1484 81.4805,27.1523 Q82.125,28.1563 83.3906,28.1563 Q83.9844,28.1563 84.543,27.9023 Q85.1016,27.6484 85.6953,27.1016 Z "/><text fill="#19273C" font-family="sans-serif" font-size="16" lengthAdjust="spacingAndGlyphs" textLength="132" x="103.75" y="30.0469">AssetDeclaration</text><line style="stroke: #E3ECEC; stroke-width: 1.5;" x1="7" x2="300" y1="40" y2="40"/><line style="stroke: #E3ECEC; stroke-width: 1.5;" x1="7" x2="300" y1="48" y2="48"/><ellipse cx="17" cy="62.4219" fill="#84BE84" rx="3" ry="3" style="stroke: #038048; stroke-width: 1.0;"/><text fill="#19273C" font-family="sans-serif" font-size="16" lengthAdjust="spacingAndGlyphs" textLength="269" x="26" y="67.4688">void constructor(ModelFile,Object)</text><ellipse cx="17" cy="81.2656" fill="#84BE84" rx="3" ry="3" style="stroke: #038048; stroke-width: 1.0;"/><text fill="#19273C" font-family="sans-serif" font-size="16" lengthAdjust="spacingAndGlyphs" textLength="239" x="26" y="86.3125">boolean isRelationshipTarget()</text><ellipse cx="17" cy="100.1094" fill="#84BE84" rx="3" ry="3" style="stroke: #038048; stroke-width: 1.0;"/><text fill="#19273C" font-family="sans-serif" font-size="16" lengthAdjust="spacingAndGlyphs" textLength="178" x="26" y="105.1563">string getSystemType()</text><!--class ClassDeclaration--><rect fill="#F8FAFA" height="48" rx="1" ry="1" style="stroke: #E3ECEC; stroke-width: 1.5;" width="163" x="72" y="173"/><ellipse cx="87" cy="189" fill="#FFFFFF" rx="11" ry="11" style="stroke: #E3ECEC; stroke-width: 1.0;"/><path d="M89.4453,194.6641 Q88.8984,194.9453 88.2969,195.0859 Q87.6953,195.2266 87.0313,195.2266 Q84.6719,195.2266 83.4297,193.6719 Q82.1875,192.1172 82.1875,189.1797 Q82.1875,186.2344 83.4297,184.6797 Q84.6719,183.125 87.0313,183.125 Q87.6953,183.125 88.3047,183.2656 Q88.9141,183.4063 89.4453,183.6875 L89.4453,186.25 Q88.8516,185.7031 88.293,185.4492 Q87.7344,185.1953 87.1406,185.1953 Q85.875,185.1953 85.2305,186.1992 Q84.5859,187.2031 84.5859,189.1797 Q84.5859,191.1484 85.2305,192.1523 Q85.875,193.1563 87.1406,193.1563 Q87.7344,193.1563 88.293,192.9023 Q88.8516,192.6484 89.4453,192.1016 Z "/><text fill="#19273C" font-family="sans-serif" font-size="16" lengthAdjust="spacingAndGlyphs" textLength="131" x="101" y="195.0469">ClassDeclaration</text><line style="stroke: #E3ECEC; stroke-width: 1.5;" x1="73" x2="234" y1="205" y2="205"/><line style="stroke: #E3ECEC; stroke-width: 1.5;" x1="73" x2="234" y1="213" y2="213"/><path d="M153.5,113.2745 C153.5,126.2825 153.5,140.0823 153.5,152.6457 " fill="none" style="stroke: #3C6DF0; stroke-width: 1.0;"/><polygon fill="none" points="160.5001,152.8704,153.5,172.8703,146.5001,152.8703,160.5001,152.8704" style="stroke: #3C6DF0; stroke-width: 1.0;"/></g></svg>