<?xml version="1.0" encoding="UTF-8" standalone="no"?><svg xmlns="http://www.w3.org/2000/svg" xmlns:xlink="http://www.w3.org/1999/xlink" contentScriptType="application/ecmascript" contentStyleType="text/css" height="636px" preserveAspectRatio="none" style="width:436px;height:636px;" version="1.1" viewBox="0 0 436 636" width="436px" zoomAndPan="magnify"><defs/><g><!--class BusinessNetworkConnection--><rect fill="#F8FAFA" height="519.0938" rx="1" ry="1" style="stroke: #E3ECEC; stroke-width: 1.5;" width="429" x="6" y="8"/><ellipse cx="105.75" cy="24" fill="#FFFFFF" rx="11" ry="11" style="stroke: #E3ECEC; stroke-width: 1.0;"/><path d="M108.1953,29.6641 Q107.6484,29.9453 107.0469,30.0859 Q106.4453,30.2266 105.7813,30.2266 Q103.4219,30.2266 102.1797,28.6719 Q100.9375,27.1172 100.9375,24.1797 Q100.9375,21.2344 102.1797,19.6797 Q103.4219,18.125 105.7813,18.125 Q106.4453,18.125 107.0547,18.2656 Q107.6641,18.4063 108.1953,18.6875 L108.1953,21.25 Q107.6016,20.7031 107.043,20.4492 Q106.4844,20.1953 105.8906,20.1953 Q104.625,20.1953 103.9805,21.1992 Q103.3359,22.2031 103.3359,24.1797 Q103.3359,26.1484 103.9805,27.1523 Q104.625,28.1563 105.8906,28.1563 Q106.4844,28.1563 107.043,27.9023 Q107.6016,27.6484 108.1953,27.1016 Z "/><text fill="#19273C" font-family="sans-serif" font-size="16" lengthAdjust="spacingAndGlyphs" textLength="221" x="126.25" y="30.0469">BusinessNetworkConnection</text><line style="stroke: #E3ECEC; stroke-width: 1.5;" x1="7" x2="434" y1="40" y2="40"/><line style="stroke: #E3ECEC; stroke-width: 1.5;" x1="7" x2="434" y1="48" y2="48"/><ellipse cx="17" cy="62.4219" fill="#84BE84" rx="3" ry="3" style="stroke: #038048; stroke-width: 1.0;"/><text fill="#19273C" font-family="sans-serif" font-size="16" lengthAdjust="spacingAndGlyphs" textLength="403" x="26" y="67.4688">void constructor(Object,BusinessNetworkCardStore)</text><ellipse cx="17" cy="81.2656" fill="#84BE84" rx="3" ry="3" style="stroke: #038048; stroke-width: 1.0;"/><text fill="#19273C" font-family="sans-serif" font-size="16" lengthAdjust="spacingAndGlyphs" textLength="382" x="26" y="86.3125">BusinessNetworkDefinition getBusinessNetwork()</text><ellipse cx="17" cy="100.1094" fill="#84BE84" rx="3" ry="3" style="stroke: #038048; stroke-width: 1.0;"/><text fill="#19273C" font-family="sans-serif" font-size="16" lengthAdjust="spacingAndGlyphs" textLength="306" x="26" y="105.1563">Promise getAllAssetRegistries(boolean)</text><ellipse cx="17" cy="118.9531" fill="#84BE84" rx="3" ry="3" style="stroke: #038048; stroke-width: 1.0;"/><text fill="#19273C" font-family="sans-serif" font-size="16" lengthAdjust="spacingAndGlyphs" textLength="254" x="26" y="124">Promise getAssetRegistry(string)</text><ellipse cx="17" cy="137.7969" fill="#84BE84" rx="3" ry="3" style="stroke: #038048; stroke-width: 1.0;"/><text fill="#19273C" font-family="sans-serif" font-size="16" lengthAdjust="spacingAndGlyphs" textLength="273" x="26" y="142.8438">Promise assetRegistryExists(string)</text><ellipse cx="17" cy="156.6406" fill="#84BE84" rx="3" ry="3" style="stroke: #038048; stroke-width: 1.0;"/><text fill="#19273C" font-family="sans-serif" font-size="16" lengthAdjust="spacingAndGlyphs" textLength="309" x="26" y="161.6875">Promise addAssetRegistry(string,string)</text><ellipse cx="17" cy="175.4844" fill="#84BE84" rx="3" ry="3" style="stroke: #038048; stroke-width: 1.0;"/><text fill="#19273C" font-family="sans-serif" font-size="16" lengthAdjust="spacingAndGlyphs" textLength="348" x="26" y="180.5313">Promise getAllParticipantRegistries(boolean)</text><ellipse cx="17" cy="194.3281" fill="#84BE84" rx="3" ry="3" style="stroke: #038048; stroke-width: 1.0;"/><text fill="#19273C" font-family="sans-serif" font-size="16" lengthAdjust="spacingAndGlyphs" textLength="296" x="26" y="199.375">Promise getParticipantRegistry(string)</text><ellipse cx="17" cy="213.1719" fill="#84BE84" rx="3" ry="3" style="stroke: #038048; stroke-width: 1.0;"/><text fill="#19273C" font-family="sans-serif" font-size="16" lengthAdjust="spacingAndGlyphs" textLength="318" x="26" y="218.2188">Promise participantRegistryExists(string)</text><ellipse cx="17" cy="232.0156" fill="#84BE84" rx="3" ry="3" style="stroke: #038048; stroke-width: 1.0;"/><text fill="#19273C" font-family="sans-serif" font-size="16" lengthAdjust="spacingAndGlyphs" textLength="351" x="26" y="237.0625">Promise addParticipantRegistry(string,string)</text><ellipse cx="17" cy="250.8594" fill="#84BE84" rx="3" ry="3" style="stroke: #038048; stroke-width: 1.0;"/><text fill="#19273C" font-family="sans-serif" font-size="16" lengthAdjust="spacingAndGlyphs" textLength="304" x="26" y="255.9063">Promise getTransactionRegistry(string)</text><ellipse cx="17" cy="269.7031" fill="#84BE84" rx="3" ry="3" style="stroke: #038048; stroke-width: 1.0;"/><text fill="#19273C" font-family="sans-serif" font-size="16" lengthAdjust="spacingAndGlyphs" textLength="356" x="26" y="274.75">Promise getAllTransactionRegistries(boolean)</text><ellipse cx="17" cy="288.5469" fill="#84BE84" rx="3" ry="3" style="stroke: #038048; stroke-width: 1.0;"/><text fill="#19273C" font-family="sans-serif" font-size="16" lengthAdjust="spacingAndGlyphs" textLength="321" x="26" y="293.5938">Promise transactionRegistryExists(string)</text><ellipse cx="17" cy="307.3906" fill="#84BE84" rx="3" ry="3" style="stroke: #038048; stroke-width: 1.0;"/><text fill="#19273C" font-family="sans-serif" font-size="16" lengthAdjust="spacingAndGlyphs" textLength="175" x="26" y="312.4375">Promise getHistorian()</text><ellipse cx="17" cy="326.2344" fill="#84BE84" rx="3" ry="3" style="stroke: #038048; stroke-width: 1.0;"/><text fill="#19273C" font-family="sans-serif" font-size="16" lengthAdjust="spacingAndGlyphs" textLength="225" x="26" y="331.2813">Promise getIdentityRegistry()</text><ellipse cx="17" cy="345.0781" fill="#84BE84" rx="3" ry="3" style="stroke: #038048; stroke-width: 1.0;"/><text fill="#19273C" font-family="sans-serif" font-size="16" lengthAdjust="spacingAndGlyphs" textLength="241" x="26" y="350.125">Promise connect(String,Object)</text><ellipse cx="17" cy="363.9219" fill="#84BE84" rx="3" ry="3" style="stroke: #038048; stroke-width: 1.0;"/><text fill="#19273C" font-family="sans-serif" font-size="16" lengthAdjust="spacingAndGlyphs" textLength="213" x="26" y="368.9688">Promise getRegistry(String)</text><ellipse cx="17" cy="382.7656" fill="#84BE84" rx="3" ry="3" style="stroke: #038048; stroke-width: 1.0;"/><text fill="#19273C" font-family="sans-serif" font-size="16" lengthAdjust="spacingAndGlyphs" textLength="162" x="26" y="387.8125">Promise disconnect()</text><ellipse cx="17" cy="401.6094" fill="#84BE84" rx="3" ry="3" style="stroke: #038048; stroke-width: 1.0;"/><text fill="#19273C" font-family="sans-serif" font-size="16" lengthAdjust="spacingAndGlyphs" textLength="295" x="26" y="406.6563">Promise submitTransaction(Resource)</text><ellipse cx="17" cy="420.4531" fill="#84BE84" rx="3" ry="3" style="stroke: #038048; stroke-width: 1.0;"/><text fill="#19273C" font-family="sans-serif" font-size="16" lengthAdjust="spacingAndGlyphs" textLength="193" x="26" y="425.5">Query buildQuery(string)</text><ellipse cx="17" cy="439.2969" fill="#84BE84" rx="3" ry="3" style="stroke: #038048; stroke-width: 1.0;"/><text fill="#19273C" font-family="sans-serif" font-size="16" lengthAdjust="spacingAndGlyphs" textLength="172" x="26" y="444.3438">Promise query(Object)</text><ellipse cx="17" cy="458.1406" fill="#84BE84" rx="3" ry="3" style="stroke: #038048; stroke-width: 1.0;"/><text fill="#19273C" font-family="sans-serif" font-size="16" lengthAdjust="spacingAndGlyphs" textLength="113" x="26" y="463.1875">Promise ping()</text><ellipse cx="17" cy="476.9844" fill="#84BE84" rx="3" ry="3" style="stroke: #038048; stroke-width: 1.0;"/><text fill="#19273C" font-family="sans-serif" font-size="16" lengthAdjust="spacingAndGlyphs" textLength="344" x="26" y="482.0313">Promise issueIdentity(string,object,boolean)</text><ellipse cx="17" cy="495.8281" fill="#84BE84" rx="3" ry="3" style="stroke: #038048; stroke-width: 1.0;"/><text fill="#19273C" font-family="sans-serif" font-size="16" lengthAdjust="spacingAndGlyphs" textLength="218" x="26" y="500.875">Promise bindIdentity(string)</text><ellipse cx="17" cy="514.6719" fill="#84BE84" rx="3" ry="3" style="stroke: #038048; stroke-width: 1.0;"/><text fill="#19273C" font-family="sans-serif" font-size="16" lengthAdjust="spacingAndGlyphs" textLength="189" x="26" y="519.7188">Promise revokeIdentity()</text><!--class EventEmitter--><rect fill="#F8FAFA" height="48" rx="1" ry="1" style="stroke: #E3ECEC; stroke-width: 1.5;" width="131" x="155" y="587"/><ellipse cx="170" cy="603" fill="#FFFFFF" rx="11" ry="11" style="stroke: #E3ECEC; stroke-width: 1.0;"/><path d="M172.4453,608.6641 Q171.8984,608.9453 171.2969,609.0859 Q170.6953,609.2266 170.0313,609.2266 Q167.6719,609.2266 166.4297,607.6719 Q165.1875,606.1172 165.1875,603.1797 Q165.1875,600.2344 166.4297,598.6797 Q167.6719,597.125 170.0313,597.125 Q170.6953,597.125 171.3047,597.2656 Q171.9141,597.4063 172.4453,597.6875 L172.4453,600.25 Q171.8516,599.7031 171.293,599.4492 Q170.7344,599.1953 170.1406,599.1953 Q168.875,599.1953 168.2305,600.1992 Q167.5859,601.2031 167.5859,603.1797 Q167.5859,605.1484 168.2305,606.1523 Q168.875,607.1563 170.1406,607.1563 Q170.7344,607.1563 171.293,606.9023 Q171.8516,606.6484 172.4453,606.1016 Z "/><text fill="#19273C" font-family="sans-serif" font-size="16" lengthAdjust="spacingAndGlyphs" textLength="99" x="184" y="609.0469">EventEmitter</text><line style="stroke: #E3ECEC; stroke-width: 1.5;" x1="156" x2="285" y1="619" y2="619"/><line style="stroke: #E3ECEC; stroke-width: 1.5;" x1="156" x2="285" y1="627" y2="627"/><path d="M220.5,527.4097 C220.5,541.7738 220.5,555.0091 220.5,566.5102 " fill="none" style="stroke: #3C6DF0; stroke-width: 1.0;"/><polygon fill="none" points="227.5001,566.9045,220.5,586.9045,213.5001,566.9044,227.5001,566.9045" style="stroke: #3C6DF0; stroke-width: 1.0;"/></g></svg>