<?xml version="1.0" encoding="UTF-8" standalone="no"?><svg xmlns="http://www.w3.org/2000/svg" xmlns:xlink="http://www.w3.org/1999/xlink" contentScriptType="application/ecmascript" contentStyleType="text/css" height="113px" preserveAspectRatio="none" style="width:382px;height:113px;" version="1.1" viewBox="0 0 382 113" width="382px" zoomAndPan="magnify"><defs/><g><!--class Introspector--><rect fill="#F8FAFA" height="104.5313" rx="1" ry="1" style="stroke: #E3ECEC; stroke-width: 1.5;" width="375" x="6" y="8"/><ellipse cx="141.25" cy="24" fill="#FFFFFF" rx="11" ry="11" style="stroke: #E3ECEC; stroke-width: 1.0;"/><path d="M143.6953,29.6641 Q143.1484,29.9453 142.5469,30.0859 Q141.9453,30.2266 141.2813,30.2266 Q138.9219,30.2266 137.6797,28.6719 Q136.4375,27.1172 136.4375,24.1797 Q136.4375,21.2344 137.6797,19.6797 Q138.9219,18.125 141.2813,18.125 Q141.9453,18.125 142.5547,18.2656 Q143.1641,18.4063 143.6953,18.6875 L143.6953,21.25 Q143.1016,20.7031 142.543,20.4492 Q141.9844,20.1953 141.3906,20.1953 Q140.125,20.1953 139.4805,21.1992 Q138.8359,22.2031 138.8359,24.1797 Q138.8359,26.1484 139.4805,27.1523 Q140.125,28.1563 141.3906,28.1563 Q141.9844,28.1563 142.543,27.9023 Q143.1016,27.6484 143.6953,27.1016 Z "/><text fill="#19273C" font-family="sans-serif" font-size="16" lengthAdjust="spacingAndGlyphs" textLength="96" x="161.75" y="30.0469">Introspector</text><line style="stroke: #E3ECEC; stroke-width: 1.5;" x1="7" x2="380" y1="40" y2="40"/><line style="stroke: #E3ECEC; stroke-width: 1.5;" x1="7" x2="380" y1="48" y2="48"/><ellipse cx="17" cy="62.4219" fill="#84BE84" rx="3" ry="3" style="stroke: #038048; stroke-width: 1.0;"/><text fill="#19273C" font-family="sans-serif" font-size="16" lengthAdjust="spacingAndGlyphs" textLength="254" x="26" y="67.4688">void constructor(ModelManager)</text><ellipse cx="17" cy="81.2656" fill="#84BE84" rx="3" ry="3" style="stroke: #038048; stroke-width: 1.0;"/><text fill="#19273C" font-family="sans-serif" font-size="16" lengthAdjust="spacingAndGlyphs" textLength="320" x="26" y="86.3125">ClassDeclaration[] getClassDeclarations()</text><ellipse cx="17" cy="100.1094" fill="#84BE84" rx="3" ry="3" style="stroke: #038048; stroke-width: 1.0;"/><text fill="#19273C" font-family="sans-serif" font-size="16" lengthAdjust="spacingAndGlyphs" textLength="349" x="26" y="105.1563">ClassDeclaration getClassDeclaration(String)</text></g></svg>