<?xml version="1.0" encoding="UTF-8" standalone="no"?><svg xmlns="http://www.w3.org/2000/svg" xmlns:xlink="http://www.w3.org/1999/xlink" contentScriptType="application/ecmascript" contentStyleType="text/css" height="452px" preserveAspectRatio="none" style="width:517px;height:452px;" version="1.1" viewBox="0 0 517 452" width="517px" zoomAndPan="magnify"><defs/><g><!--class ModelFile--><rect fill="#F8FAFA" height="443.7188" rx="1" ry="1" style="stroke: #E3ECEC; stroke-width: 1.5;" width="510" x="6" y="8"/><ellipse cx="218.75" cy="24" fill="#FFFFFF" rx="11" ry="11" style="stroke: #E3ECEC; stroke-width: 1.0;"/><path d="M221.1953,29.6641 Q220.6484,29.9453 220.0469,30.0859 Q219.4453,30.2266 218.7813,30.2266 Q216.4219,30.2266 215.1797,28.6719 Q213.9375,27.1172 213.9375,24.1797 Q213.9375,21.2344 215.1797,19.6797 Q216.4219,18.125 218.7813,18.125 Q219.4453,18.125 220.0547,18.2656 Q220.6641,18.4063 221.1953,18.6875 L221.1953,21.25 Q220.6016,20.7031 220.043,20.4492 Q219.4844,20.1953 218.8906,20.1953 Q217.625,20.1953 216.9805,21.1992 Q216.3359,22.2031 216.3359,24.1797 Q216.3359,26.1484 216.9805,27.1523 Q217.625,28.1563 218.8906,28.1563 Q219.4844,28.1563 220.043,27.9023 Q220.6016,27.6484 221.1953,27.1016 Z "/><text fill="#19273C" font-family="sans-serif" font-size="16" lengthAdjust="spacingAndGlyphs" textLength="76" x="239.25" y="30.0469">ModelFile</text><line style="stroke: #E3ECEC; stroke-width: 1.5;" x1="7" x2="515" y1="40" y2="40"/><line style="stroke: #E3ECEC; stroke-width: 1.5;" x1="7" x2="515" y1="48" y2="48"/><ellipse cx="17" cy="62.4219" fill="#84BE84" rx="3" ry="3" style="stroke: #038048; stroke-width: 1.0;"/><text fill="#19273C" font-family="sans-serif" font-size="16" lengthAdjust="spacingAndGlyphs" textLength="156" x="26" y="67.4688">boolean isExternal()</text><ellipse cx="17" cy="81.2656" fill="#84BE84" rx="3" ry="3" style="stroke: #038048; stroke-width: 1.0;"/><text fill="#19273C" font-family="sans-serif" font-size="16" lengthAdjust="spacingAndGlyphs" textLength="272" x="26" y="86.3125">ModelManager getModelManager()</text><ellipse cx="17" cy="100.1094" fill="#84BE84" rx="3" ry="3" style="stroke: #038048; stroke-width: 1.0;"/><text fill="#19273C" font-family="sans-serif" font-size="16" lengthAdjust="spacingAndGlyphs" textLength="157" x="26" y="105.1563">string[] getImports()</text><ellipse cx="17" cy="118.9531" fill="#84BE84" rx="3" ry="3" style="stroke: #038048; stroke-width: 1.0;"/><text fill="#19273C" font-family="sans-serif" font-size="16" lengthAdjust="spacingAndGlyphs" textLength="198" x="26" y="124">boolean isDefined(string)</text><ellipse cx="17" cy="137.7969" fill="#84BE84" rx="3" ry="3" style="stroke: #038048; stroke-width: 1.0;"/><text fill="#19273C" font-family="sans-serif" font-size="16" lengthAdjust="spacingAndGlyphs" textLength="295" x="26" y="142.8438">ClassDeclaration getLocalType(string)</text><ellipse cx="17" cy="156.6406" fill="#84BE84" rx="3" ry="3" style="stroke: #038048; stroke-width: 1.0;"/><text fill="#19273C" font-family="sans-serif" font-size="16" lengthAdjust="spacingAndGlyphs" textLength="350" x="26" y="161.6875">AssetDeclaration getAssetDeclaration(string)</text><ellipse cx="17" cy="175.4844" fill="#84BE84" rx="3" ry="3" style="stroke: #038048; stroke-width: 1.0;"/><text fill="#19273C" font-family="sans-serif" font-size="16" lengthAdjust="spacingAndGlyphs" textLength="450" x="26" y="180.5313">TransactionDeclaration getTransactionDeclaration(string)</text><ellipse cx="17" cy="194.3281" fill="#84BE84" rx="3" ry="3" style="stroke: #038048; stroke-width: 1.0;"/><text fill="#19273C" font-family="sans-serif" font-size="16" lengthAdjust="spacingAndGlyphs" textLength="350" x="26" y="199.375">EventDeclaration getEventDeclaration(string)</text><ellipse cx="17" cy="213.1719" fill="#84BE84" rx="3" ry="3" style="stroke: #038048; stroke-width: 1.0;"/><text fill="#19273C" font-family="sans-serif" font-size="16" lengthAdjust="spacingAndGlyphs" textLength="434" x="26" y="218.2188">ParticipantDeclaration getParticipantDeclaration(string)</text><ellipse cx="17" cy="232.0156" fill="#84BE84" rx="3" ry="3" style="stroke: #038048; stroke-width: 1.0;"/><text fill="#19273C" font-family="sans-serif" font-size="16" lengthAdjust="spacingAndGlyphs" textLength="175" x="26" y="237.0625">string getNamespace()</text><ellipse cx="17" cy="250.8594" fill="#84BE84" rx="3" ry="3" style="stroke: #038048; stroke-width: 1.0;"/><text fill="#19273C" font-family="sans-serif" font-size="16" lengthAdjust="spacingAndGlyphs" textLength="131" x="26" y="255.9063">string getName()</text><ellipse cx="17" cy="269.7031" fill="#84BE84" rx="3" ry="3" style="stroke: #038048; stroke-width: 1.0;"/><text fill="#19273C" font-family="sans-serif" font-size="16" lengthAdjust="spacingAndGlyphs" textLength="384" x="26" y="274.75">AssetDeclaration[] getAssetDeclarations(Boolean)</text><ellipse cx="17" cy="288.5469" fill="#84BE84" rx="3" ry="3" style="stroke: #038048; stroke-width: 1.0;"/><text fill="#19273C" font-family="sans-serif" font-size="16" lengthAdjust="spacingAndGlyphs" textLength="484" x="26" y="293.5938">TransactionDeclaration[] getTransactionDeclarations(Boolean)</text><ellipse cx="17" cy="307.3906" fill="#84BE84" rx="3" ry="3" style="stroke: #038048; stroke-width: 1.0;"/><text fill="#19273C" font-family="sans-serif" font-size="16" lengthAdjust="spacingAndGlyphs" textLength="384" x="26" y="312.4375">EventDeclaration[] getEventDeclarations(Boolean)</text><ellipse cx="17" cy="326.2344" fill="#84BE84" rx="3" ry="3" style="stroke: #038048; stroke-width: 1.0;"/><text fill="#19273C" font-family="sans-serif" font-size="16" lengthAdjust="spacingAndGlyphs" textLength="468" x="26" y="331.2813">ParticipantDeclaration[] getParticipantDeclarations(Boolean)</text><ellipse cx="17" cy="345.0781" fill="#84BE84" rx="3" ry="3" style="stroke: #038048; stroke-width: 1.0;"/><text fill="#19273C" font-family="sans-serif" font-size="16" lengthAdjust="spacingAndGlyphs" textLength="428" x="26" y="350.125">ConceptDeclaration[] getConceptDeclarations(Boolean)</text><ellipse cx="17" cy="363.9219" fill="#84BE84" rx="3" ry="3" style="stroke: #038048; stroke-width: 1.0;"/><text fill="#19273C" font-family="sans-serif" font-size="16" lengthAdjust="spacingAndGlyphs" textLength="388" x="26" y="368.9688">EnumDeclaration[] getEnumDeclarations(Boolean)</text><ellipse cx="17" cy="382.7656" fill="#84BE84" rx="3" ry="3" style="stroke: #038048; stroke-width: 1.0;"/><text fill="#19273C" font-family="sans-serif" font-size="16" lengthAdjust="spacingAndGlyphs" textLength="414" x="26" y="387.8125">ClassDeclaration[] getDeclarations(Function,Boolean)</text><ellipse cx="17" cy="401.6094" fill="#84BE84" rx="3" ry="3" style="stroke: #038048; stroke-width: 1.0;"/><text fill="#19273C" font-family="sans-serif" font-size="16" lengthAdjust="spacingAndGlyphs" textLength="300" x="26" y="406.6563">ClassDeclaration[] getAllDeclarations()</text><ellipse cx="17" cy="420.4531" fill="#84BE84" rx="3" ry="3" style="stroke: #038048; stroke-width: 1.0;"/><text fill="#19273C" font-family="sans-serif" font-size="16" lengthAdjust="spacingAndGlyphs" textLength="172" x="26" y="425.5">string getDefinitions()</text><ellipse cx="17" cy="439.2969" fill="#84BE84" rx="3" ry="3" style="stroke: #038048; stroke-width: 1.0;"/><text fill="#19273C" font-family="sans-serif" font-size="16" lengthAdjust="spacingAndGlyphs" textLength="222" x="26" y="444.3438">boolean isSystemModelFile()</text></g></svg>