<?xml version="1.0" encoding="UTF-8" standalone="no"?><svg xmlns="http://www.w3.org/2000/svg" xmlns:xlink="http://www.w3.org/1999/xlink" contentScriptType="application/ecmascript" contentStyleType="text/css" height="259px" preserveAspectRatio="none" style="width:997px;height:259px;" version="1.1" viewBox="0 0 997 259" width="997px" zoomAndPan="magnify"><defs/><g><!--class ParticipantRegistry--><rect fill="#F8FAFA" height="141.125" rx="1" ry="1" style="stroke: #E3ECEC; stroke-width: 1.5;" width="990" x="6" y="8.5"/><ellipse cx="423.75" cy="24.5" fill="#FFFFFF" rx="11" ry="11" style="stroke: #E3ECEC; stroke-width: 1.0;"/><path d="M426.2031,30.1563 Q425.6563,30.4375 425.0547,30.5859 Q424.4531,30.7344 423.7813,30.7344 Q421.4219,30.7344 420.1797,29.1719 Q418.9375,27.6094 418.9375,24.6719 Q418.9375,21.7344 420.1797,20.1797 Q421.4219,18.625 423.7813,18.625 Q424.4531,18.625 425.0625,18.7656 Q425.6719,18.9063 426.2031,19.1875 L426.2031,21.75 Q425.6094,21.2031 425.0469,20.9453 Q424.4844,20.6875 423.8906,20.6875 Q422.625,20.6875 421.9844,21.6953 Q421.3438,22.7031 421.3438,24.6719 Q421.3438,26.6406 421.9844,27.6484 Q422.625,28.6563 423.8906,28.6563 Q424.4844,28.6563 425.0469,28.3984 Q425.6094,28.1406 426.2031,27.5938 L426.2031,30.1563 Z "/><text fill="#19273C" font-family="sans-serif" font-size="16" lengthAdjust="spacingAndGlyphs" textLength="146" x="444.25" y="30.0391">ParticipantRegistry</text><line style="stroke: #E3ECEC; stroke-width: 1.5;" x1="7" x2="995" y1="40.5" y2="40.5"/><line style="stroke: #E3ECEC; stroke-width: 1.5;" x1="7" x2="995" y1="48.5" y2="48.5"/><polygon fill="#4177AF" points="17,58.8125,13,64.8125,21,64.8125" style="stroke: #1963A0; stroke-width: 1.0;"/><text fill="#19273C" font-family="sans-serif" font-size="16" lengthAdjust="spacingAndGlyphs" textLength="956" x="26" y="67.3516">Promise getAllParticipantRegistries(SecurityContext,ModelManager,Factory,Serializer,BusinessNetworkConnection,Boolean)</text><polygon fill="#4177AF" points="17,77.4375,13,83.4375,21,83.4375" style="stroke: #1963A0; stroke-width: 1.0;"/><text fill="#19273C" font-family="sans-serif" font-size="16" lengthAdjust="spacingAndGlyphs" textLength="910" x="26" y="85.9766">Promise getParticipantRegistry(SecurityContext,string,ModelManager,Factory,Serializer,BusinessNetworkConnection)</text><polygon fill="#4177AF" points="17,96.0625,13,102.0625,21,102.0625" style="stroke: #1963A0; stroke-width: 1.0;"/><text fill="#19273C" font-family="sans-serif" font-size="16" lengthAdjust="spacingAndGlyphs" textLength="932" x="26" y="104.6016">Promise participantRegistryExists(SecurityContext,string,ModelManager,Factory,Serializer,BusinessNetworkConnection)</text><polygon fill="#4177AF" points="17,114.6875,13,120.6875,21,120.6875" style="stroke: #1963A0; stroke-width: 1.0;"/><text fill="#19273C" font-family="sans-serif" font-size="16" lengthAdjust="spacingAndGlyphs" textLength="964" x="26" y="123.2266">Promise addParticipantRegistry(SecurityContext,string,string,ModelManager,Factory,Serializer,BusinessNetworkConnection)</text><polygon fill="#4177AF" points="17,133.3125,13,139.3125,21,139.3125" style="stroke: #1963A0; stroke-width: 1.0;"/><text fill="#19273C" font-family="sans-serif" font-size="16" lengthAdjust="spacingAndGlyphs" textLength="851" x="26" y="141.8516">void constructor(string,string,SecurityContext,ModelManager,Factory,Serializer,BusinessNetworkConnection)</text><!--class Registry--><rect fill="#F8FAFA" height="48" rx="1" ry="1" style="stroke: #E3ECEC; stroke-width: 1.5;" width="96" x="453" y="210"/><ellipse cx="468" cy="226" fill="#FFFFFF" rx="11" ry="11" style="stroke: #E3ECEC; stroke-width: 1.0;"/><path d="M470.4531,231.6563 Q469.9063,231.9375 469.3047,232.0859 Q468.7031,232.2344 468.0313,232.2344 Q465.6719,232.2344 464.4297,230.6719 Q463.1875,229.1094 463.1875,226.1719 Q463.1875,223.2344 464.4297,221.6797 Q465.6719,220.125 468.0313,220.125 Q468.7031,220.125 469.3125,220.2656 Q469.9219,220.4063 470.4531,220.6875 L470.4531,223.25 Q469.8594,222.7031 469.2969,222.4453 Q468.7344,222.1875 468.1406,222.1875 Q466.875,222.1875 466.2344,223.1953 Q465.5938,224.2031 465.5938,226.1719 Q465.5938,228.1406 466.2344,229.1484 Q466.875,230.1563 468.1406,230.1563 Q468.7344,230.1563 469.2969,229.8984 Q469.8594,229.6406 470.4531,229.0938 L470.4531,231.6563 Z "/><text fill="#19273C" font-family="sans-serif" font-size="16" lengthAdjust="spacingAndGlyphs" textLength="64" x="482" y="231.5391">Registry</text><line style="stroke: #E3ECEC; stroke-width: 1.5;" x1="454" x2="548" y1="242" y2="242"/><line style="stroke: #E3ECEC; stroke-width: 1.5;" x1="454" x2="548" y1="250" y2="250"/><path d="M501,149.784 C501,163.2808 501,177.0584 501,189.4192 " fill="none" style="stroke: #3C6DF0; stroke-width: 1.0;"/><polygon fill="none" points="508,189.7717,501,209.7717,494,189.7717,508,189.7717" style="stroke: #3C6DF0; stroke-width: 1.0;"/></g></svg>