<?xml version="1.0" encoding="UTF-8" standalone="no"?><svg xmlns="http://www.w3.org/2000/svg" xmlns:xlink="http://www.w3.org/1999/xlink" contentScriptType="application/ecmascript" contentStyleType="text/css" height="222px" preserveAspectRatio="none" style="width:481px;height:222px;" version="1.1" viewBox="0 0 481 222" width="481px" zoomAndPan="magnify"><defs/><g><!--class Relationship--><rect fill="#F8FAFA" height="104.5313" rx="1" ry="1" style="stroke: #E3ECEC; stroke-width: 1.5;" width="474" x="6" y="8"/><ellipse cx="190.25" cy="24" fill="#FFFFFF" rx="11" ry="11" style="stroke: #E3ECEC; stroke-width: 1.0;"/><path d="M192.6953,29.6641 Q192.1484,29.9453 191.5469,30.0859 Q190.9453,30.2266 190.2813,30.2266 Q187.9219,30.2266 186.6797,28.6719 Q185.4375,27.1172 185.4375,24.1797 Q185.4375,21.2344 186.6797,19.6797 Q187.9219,18.125 190.2813,18.125 Q190.9453,18.125 191.5547,18.2656 Q192.1641,18.4063 192.6953,18.6875 L192.6953,21.25 Q192.1016,20.7031 191.543,20.4492 Q190.9844,20.1953 190.3906,20.1953 Q189.125,20.1953 188.4805,21.1992 Q187.8359,22.2031 187.8359,24.1797 Q187.8359,26.1484 188.4805,27.1523 Q189.125,28.1563 190.3906,28.1563 Q190.9844,28.1563 191.543,27.9023 Q192.1016,27.6484 192.6953,27.1016 Z "/><text fill="#19273C" font-family="sans-serif" font-size="16" lengthAdjust="spacingAndGlyphs" textLength="97" x="210.75" y="30.0469">Relationship</text><line style="stroke: #E3ECEC; stroke-width: 1.5;" x1="7" x2="479" y1="40" y2="40"/><line style="stroke: #E3ECEC; stroke-width: 1.5;" x1="7" x2="479" y1="48" y2="48"/><ellipse cx="17" cy="62.4219" fill="#84BE84" rx="3" ry="3" style="stroke: #038048; stroke-width: 1.0;"/><text fill="#19273C" font-family="sans-serif" font-size="16" lengthAdjust="spacingAndGlyphs" textLength="125" x="26" y="67.4688">String toString()</text><ellipse cx="17" cy="81.2656" fill="#84BE84" rx="3" ry="3" style="stroke: #038048; stroke-width: 1.0;"/><text fill="#19273C" font-family="sans-serif" font-size="16" lengthAdjust="spacingAndGlyphs" textLength="188" x="26" y="86.3125">boolean isRelationship()</text><ellipse cx="17" cy="100.1094" fill="#84BE84" rx="3" ry="3" style="stroke: #038048; stroke-width: 1.0;"/><text fill="#19273C" font-family="sans-serif" font-size="16" lengthAdjust="spacingAndGlyphs" textLength="448" x="26" y="105.1563">Relationship fromURI(ModelManager,String,String,String)</text><!--class Identifiable--><rect fill="#F8FAFA" height="48" rx="1" ry="1" style="stroke: #E3ECEC; stroke-width: 1.5;" width="121" x="182.5" y="173"/><ellipse cx="197.5" cy="189" fill="#FFFFFF" rx="11" ry="11" style="stroke: #E3ECEC; stroke-width: 1.0;"/><path d="M199.9453,194.6641 Q199.3984,194.9453 198.7969,195.0859 Q198.1953,195.2266 197.5313,195.2266 Q195.1719,195.2266 193.9297,193.6719 Q192.6875,192.1172 192.6875,189.1797 Q192.6875,186.2344 193.9297,184.6797 Q195.1719,183.125 197.5313,183.125 Q198.1953,183.125 198.8047,183.2656 Q199.4141,183.4063 199.9453,183.6875 L199.9453,186.25 Q199.3516,185.7031 198.793,185.4492 Q198.2344,185.1953 197.6406,185.1953 Q196.375,185.1953 195.7305,186.1992 Q195.0859,187.2031 195.0859,189.1797 Q195.0859,191.1484 195.7305,192.1523 Q196.375,193.1563 197.6406,193.1563 Q198.2344,193.1563 198.793,192.9023 Q199.3516,192.6484 199.9453,192.1016 Z "/><text fill="#19273C" font-family="sans-serif" font-size="16" lengthAdjust="spacingAndGlyphs" textLength="89" x="211.5" y="195.0469">Identifiable</text><line style="stroke: #E3ECEC; stroke-width: 1.5;" x1="183.5" x2="302.5" y1="205" y2="205"/><line style="stroke: #E3ECEC; stroke-width: 1.5;" x1="183.5" x2="302.5" y1="213" y2="213"/><path d="M243,113.2745 C243,126.2825 243,140.0823 243,152.6457 " fill="none" style="stroke: #3C6DF0; stroke-width: 1.0;"/><polygon fill="none" points="250.0001,152.8704,243,172.8703,236.0001,152.8703,250.0001,152.8704" style="stroke: #3C6DF0; stroke-width: 1.0;"/></g></svg>