<?xml version="1.0" encoding="UTF-8" standalone="no"?><svg xmlns="http://www.w3.org/2000/svg" xmlns:xlink="http://www.w3.org/1999/xlink" contentScriptType="application/ecmascript" contentStyleType="text/css" height="241px" preserveAspectRatio="none" style="width:998px;height:241px;" version="1.1" viewBox="0 0 998 241" width="998px" zoomAndPan="magnify"><defs/><g><!--class TransactionRegistry--><rect fill="#F8FAFA" height="122.5" rx="1" ry="1" style="stroke: #E3ECEC; stroke-width: 1.5;" width="991" x="6" y="8.5"/><ellipse cx="419.75" cy="24.5" fill="#FFFFFF" rx="11" ry="11" style="stroke: #E3ECEC; stroke-width: 1.0;"/><path d="M422.2031,30.1563 Q421.6563,30.4375 421.0547,30.5859 Q420.4531,30.7344 419.7813,30.7344 Q417.4219,30.7344 416.1797,29.1719 Q414.9375,27.6094 414.9375,24.6719 Q414.9375,21.7344 416.1797,20.1797 Q417.4219,18.625 419.7813,18.625 Q420.4531,18.625 421.0625,18.7656 Q421.6719,18.9063 422.2031,19.1875 L422.2031,21.75 Q421.6094,21.2031 421.0469,20.9453 Q420.4844,20.6875 419.8906,20.6875 Q418.625,20.6875 417.9844,21.6953 Q417.3438,22.7031 417.3438,24.6719 Q417.3438,26.6406 417.9844,27.6484 Q418.625,28.6563 419.8906,28.6563 Q420.4844,28.6563 421.0469,28.3984 Q421.6094,28.1406 422.2031,27.5938 L422.2031,30.1563 Z "/><text fill="#19273C" font-family="sans-serif" font-size="16" lengthAdjust="spacingAndGlyphs" textLength="155" x="440.25" y="30.0391">TransactionRegistry</text><line style="stroke: #E3ECEC; stroke-width: 1.5;" x1="7" x2="996" y1="40.5" y2="40.5"/><line style="stroke: #E3ECEC; stroke-width: 1.5;" x1="7" x2="996" y1="48.5" y2="48.5"/><ellipse cx="17" cy="62.8125" fill="#84BE84" rx="3" ry="3" style="stroke: #038048; stroke-width: 1.0;"/><text fill="#19273C" font-family="sans-serif" font-size="16" lengthAdjust="spacingAndGlyphs" textLength="965" x="26" y="67.3516">Promise getAllTransactionRegistries(SecurityContext,ModelManager,Factory,Serializer,BusinessNetworkConnection,Boolean)</text><ellipse cx="17" cy="81.4375" fill="#84BE84" rx="3" ry="3" style="stroke: #038048; stroke-width: 1.0;"/><text fill="#19273C" font-family="sans-serif" font-size="16" lengthAdjust="spacingAndGlyphs" textLength="690" x="26" y="85.9766">Promise getTransactionRegistry(SecurityContext,string,ModelManager,Factory,Serializer)</text><ellipse cx="17" cy="100.0625" fill="#84BE84" rx="3" ry="3" style="stroke: #038048; stroke-width: 1.0;"/><text fill="#19273C" font-family="sans-serif" font-size="16" lengthAdjust="spacingAndGlyphs" textLength="744" x="26" y="104.6016">Promise addTransactionRegistry(SecurityContext,string,string,ModelManager,Factory,Serializer)</text><polygon fill="#4177AF" points="17,114.6875,13,120.6875,21,120.6875" style="stroke: #1963A0; stroke-width: 1.0;"/><text fill="#19273C" font-family="sans-serif" font-size="16" lengthAdjust="spacingAndGlyphs" textLength="709" x="26" y="123.2266">Promise transactionRegistryExists(SecurityContext,string,ModelManager,Factory,Serializer)</text><!--class Registry--><rect fill="#F8FAFA" height="48" rx="1" ry="1" style="stroke: #E3ECEC; stroke-width: 1.5;" width="96" x="453.25" y="192"/><ellipse cx="468.25" cy="208" fill="#FFFFFF" rx="11" ry="11" style="stroke: #E3ECEC; stroke-width: 1.0;"/><path d="M470.7031,213.6563 Q470.1563,213.9375 469.5547,214.0859 Q468.9531,214.2344 468.2813,214.2344 Q465.9219,214.2344 464.6797,212.6719 Q463.4375,211.1094 463.4375,208.1719 Q463.4375,205.2344 464.6797,203.6797 Q465.9219,202.125 468.2813,202.125 Q468.9531,202.125 469.5625,202.2656 Q470.1719,202.4063 470.7031,202.6875 L470.7031,205.25 Q470.1094,204.7031 469.5469,204.4453 Q468.9844,204.1875 468.3906,204.1875 Q467.125,204.1875 466.4844,205.1953 Q465.8438,206.2031 465.8438,208.1719 Q465.8438,210.1406 466.4844,211.1484 Q467.125,212.1563 468.3906,212.1563 Q468.9844,212.1563 469.5469,211.8984 Q470.1094,211.6406 470.7031,211.0938 L470.7031,213.6563 Z "/><text fill="#19273C" font-family="sans-serif" font-size="16" lengthAdjust="spacingAndGlyphs" textLength="64" x="482.25" y="213.5391">Registry</text><line style="stroke: #E3ECEC; stroke-width: 1.5;" x1="454.25" x2="548.25" y1="224" y2="224"/><line style="stroke: #E3ECEC; stroke-width: 1.5;" x1="454.25" x2="548.25" y1="232" y2="232"/><path d="M501.25,131.652 C501.25,145.0763 501.25,159.041 501.25,171.615 " fill="none" style="stroke: #3C6DF0; stroke-width: 1.0;"/><polygon fill="none" points="508.25,171.7214,501.25,191.7214,494.25,171.7214,508.25,171.7214" style="stroke: #3C6DF0; stroke-width: 1.0;"/></g></svg>