<?xml version="1.0" encoding="UTF-8" standalone="no"?><svg xmlns="http://www.w3.org/2000/svg" xmlns:xlink="http://www.w3.org/1999/xlink" contentScriptType="application/ecmascript" contentStyleType="text/css" height="188px" preserveAspectRatio="none" style="width:289px;height:188px;" version="1.1" viewBox="0 0 289 188" width="289px" zoomAndPan="magnify"><defs/><g><!--class Wallet--><rect fill="#F8FAFA" height="179.9063" rx="1" ry="1" style="stroke: #E3ECEC; stroke-width: 1.5;" width="282" x="6" y="8"/><ellipse cx="118.75" cy="24" fill="#FFFFFF" rx="11" ry="11" style="stroke: #E3ECEC; stroke-width: 1.0;"/><path d="M121.1953,29.6641 Q120.6484,29.9453 120.0469,30.0859 Q119.4453,30.2266 118.7813,30.2266 Q116.4219,30.2266 115.1797,28.6719 Q113.9375,27.1172 113.9375,24.1797 Q113.9375,21.2344 115.1797,19.6797 Q116.4219,18.125 118.7813,18.125 Q119.4453,18.125 120.0547,18.2656 Q120.6641,18.4063 121.1953,18.6875 L121.1953,21.25 Q120.6016,20.7031 120.043,20.4492 Q119.4844,20.1953 118.8906,20.1953 Q117.625,20.1953 116.9805,21.1992 Q116.3359,22.2031 116.3359,24.1797 Q116.3359,26.1484 116.9805,27.1523 Q117.625,28.1563 118.8906,28.1563 Q119.4844,28.1563 120.043,27.9023 Q120.6016,27.6484 121.1953,27.1016 Z "/><text fill="#19273C" font-family="sans-serif" font-size="16" lengthAdjust="spacingAndGlyphs" textLength="48" x="139.25" y="30.0469">Wallet</text><line style="stroke: #E3ECEC; stroke-width: 1.5;" x1="7" x2="287" y1="40" y2="40"/><line style="stroke: #E3ECEC; stroke-width: 1.5;" x1="7" x2="287" y1="48" y2="48"/><ellipse cx="17" cy="62.4219" fill="#84BE84" rx="3" ry="3" style="stroke: #038048; stroke-width: 1.0;"/><text fill="#19273C" font-family="sans-serif" font-size="16" lengthAdjust="spacingAndGlyphs" textLength="136" x="26" y="67.4688">Wallet getWallet()</text><ellipse cx="17" cy="81.2656" fill="#84BE84" rx="3" ry="3" style="stroke: #038048; stroke-width: 1.0;"/><text fill="#19273C" font-family="sans-serif" font-size="16" lengthAdjust="spacingAndGlyphs" textLength="167" x="26" y="86.3125">void setWallet(Wallet)</text><ellipse cx="17" cy="100.1094" fill="#84BE84" rx="3" ry="3" style="stroke: #038048; stroke-width: 1.0;"/><text fill="#19273C" font-family="sans-serif" font-size="16" lengthAdjust="spacingAndGlyphs" textLength="155" x="26" y="105.1563">Promise listNames()</text><ellipse cx="17" cy="118.9531" fill="#84BE84" rx="3" ry="3" style="stroke: #038048; stroke-width: 1.0;"/><text fill="#19273C" font-family="sans-serif" font-size="16" lengthAdjust="spacingAndGlyphs" textLength="190" x="26" y="124">Promise contains(string)</text><ellipse cx="17" cy="137.7969" fill="#84BE84" rx="3" ry="3" style="stroke: #038048; stroke-width: 1.0;"/><text fill="#19273C" font-family="sans-serif" font-size="16" lengthAdjust="spacingAndGlyphs" textLength="149" x="26" y="142.8438">Promise get(string)</text><ellipse cx="17" cy="156.6406" fill="#84BE84" rx="3" ry="3" style="stroke: #038048; stroke-width: 1.0;"/><text fill="#19273C" font-family="sans-serif" font-size="16" lengthAdjust="spacingAndGlyphs" textLength="256" x="26" y="161.6875">Promise put(string,string,Object)</text><ellipse cx="17" cy="175.4844" fill="#84BE84" rx="3" ry="3" style="stroke: #038048; stroke-width: 1.0;"/><text fill="#19273C" font-family="sans-serif" font-size="16" lengthAdjust="spacingAndGlyphs" textLength="182" x="26" y="180.5313">Promise remove(string)</text></g></svg>