<?xml version="1.0" encoding="UTF-8" standalone="no"?><svg xmlns="http://www.w3.org/2000/svg" xmlns:xlink="http://www.w3.org/1999/xlink" contentScriptType="application/ecmascript" contentStyleType="text/css" height="187px" preserveAspectRatio="none" style="width:289px;height:187px;" version="1.1" viewBox="0 0 289 187" width="289px" zoomAndPan="magnify"><defs/><g><!--class Wallet--><rect fill="#F8FAFA" height="178.375" rx="1" ry="1" style="stroke: #E3ECEC; stroke-width: 1.5;" width="282" x="6" y="8"/><ellipse cx="119.25" cy="24" fill="#FFFFFF" rx="11" ry="11" style="stroke: #E3ECEC; stroke-width: 1.0;"/><path d="M121.7031,29.6563 Q121.1563,29.9375 120.5547,30.0859 Q119.9531,30.2344 119.2813,30.2344 Q116.9219,30.2344 115.6797,28.6719 Q114.4375,27.1094 114.4375,24.1719 Q114.4375,21.2344 115.6797,19.6797 Q116.9219,18.125 119.2813,18.125 Q119.9531,18.125 120.5625,18.2656 Q121.1719,18.4063 121.7031,18.6875 L121.7031,21.25 Q121.1094,20.7031 120.5469,20.4453 Q119.9844,20.1875 119.3906,20.1875 Q118.125,20.1875 117.4844,21.1953 Q116.8438,22.2031 116.8438,24.1719 Q116.8438,26.1406 117.4844,27.1484 Q118.125,28.1563 119.3906,28.1563 Q119.9844,28.1563 120.5469,27.8984 Q121.1094,27.6406 121.7031,27.0938 L121.7031,29.6563 Z "/><text fill="#19273C" font-family="sans-serif" font-size="16" lengthAdjust="spacingAndGlyphs" textLength="47" x="139.75" y="29.5391">Wallet</text><line style="stroke: #E3ECEC; stroke-width: 1.5;" x1="7" x2="287" y1="40" y2="40"/><line style="stroke: #E3ECEC; stroke-width: 1.5;" x1="7" x2="287" y1="48" y2="48"/><ellipse cx="17" cy="62.3125" fill="#84BE84" rx="3" ry="3" style="stroke: #038048; stroke-width: 1.0;"/><text fill="#19273C" font-family="sans-serif" font-size="16" lengthAdjust="spacingAndGlyphs" textLength="136" x="26" y="66.8516">Wallet getWallet()</text><ellipse cx="17" cy="80.9375" fill="#84BE84" rx="3" ry="3" style="stroke: #038048; stroke-width: 1.0;"/><text fill="#19273C" font-family="sans-serif" font-size="16" lengthAdjust="spacingAndGlyphs" textLength="167" x="26" y="85.4766">void setWallet(Wallet)</text><ellipse cx="17" cy="99.5625" fill="#84BE84" rx="3" ry="3" style="stroke: #038048; stroke-width: 1.0;"/><text fill="#19273C" font-family="sans-serif" font-size="16" lengthAdjust="spacingAndGlyphs" textLength="155" x="26" y="104.1016">Promise listNames()</text><ellipse cx="17" cy="118.1875" fill="#84BE84" rx="3" ry="3" style="stroke: #038048; stroke-width: 1.0;"/><text fill="#19273C" font-family="sans-serif" font-size="16" lengthAdjust="spacingAndGlyphs" textLength="191" x="26" y="122.7266">Promise contains(string)</text><ellipse cx="17" cy="136.8125" fill="#84BE84" rx="3" ry="3" style="stroke: #038048; stroke-width: 1.0;"/><text fill="#19273C" font-family="sans-serif" font-size="16" lengthAdjust="spacingAndGlyphs" textLength="150" x="26" y="141.3516">Promise get(string)</text><ellipse cx="17" cy="155.4375" fill="#84BE84" rx="3" ry="3" style="stroke: #038048; stroke-width: 1.0;"/><text fill="#19273C" font-family="sans-serif" font-size="16" lengthAdjust="spacingAndGlyphs" textLength="256" x="26" y="159.9766">Promise put(string,string,Object)</text><ellipse cx="17" cy="174.0625" fill="#84BE84" rx="3" ry="3" style="stroke: #038048; stroke-width: 1.0;"/><text fill="#19273C" font-family="sans-serif" font-size="16" lengthAdjust="spacingAndGlyphs" textLength="184" x="26" y="178.6016">Promise remove(string)</text></g></svg>