<?xml version="1.0" encoding="utf-8"?>
<!-- Generator: Adobe Illustrator 18.1.1, SVG Export Plug-In . SVG Version: 6.00 Build 0)  -->
<!DOCTYPE svg PUBLIC "-//W3C//DTD SVG 1.1//EN" "http://www.w3.org/Graphics/SVG/1.1/DTD/svg11.dtd">
<svg version="1.1" id="Layer_1" xmlns="http://www.w3.org/2000/svg" xmlns:xlink="http://www.w3.org/1999/xlink" x="0px" y="0px"
	 width="32px" height="32px" viewBox="-4 6 32 32" enable-background="new -4 6 32 32" xml:space="preserve">
<path fill="#5A6464" d="M27,7H-3v4L9,23v14l6-6v-3.4c0.7,0.8,1.8,1.4,3,1.4c2.2,0,4-1.8,4-4s-1.8-4-4-4c-0.4,0-0.8,0.1-1.2,0.2
	L27,11V7z M20,25c0,1.1-0.9,2-2,2c-1.1,0-2-0.9-2-2s0.9-2,2-2C19.1,23,20,23.9,20,25z M13.6,21.6L13,22.2V23v7.2l-2,2V23v-0.8
	l-0.6-0.6L-0.2,11h24.3L13.6,21.6z"/>
</svg>
