<?xml version="1.0" encoding="UTF-8" standalone="no"?><svg xmlns="http://www.w3.org/2000/svg" xmlns:xlink="http://www.w3.org/1999/xlink" contentScriptType="application/ecmascript" contentStyleType="text/css" height="261px" preserveAspectRatio="none" style="width:511px;height:261px;" version="1.1" viewBox="0 0 511 261" width="511px" zoomAndPan="magnify"><defs/><g><!--class BusinessNetworkDefinition--><rect fill="#F8FAFA" height="252.875" rx="1" ry="1" style="stroke: #E3ECEC; stroke-width: 1.5;" width="504" x="6" y="8"/><ellipse cx="149.75" cy="24" fill="#FFFFFF" rx="11" ry="11" style="stroke: #E3ECEC; stroke-width: 1.0;"/><path d="M152.2031,29.6563 Q151.6563,29.9375 151.0547,30.0859 Q150.4531,30.2344 149.7813,30.2344 Q147.4219,30.2344 146.1797,28.6719 Q144.9375,27.1094 144.9375,24.1719 Q144.9375,21.2344 146.1797,19.6797 Q147.4219,18.125 149.7813,18.125 Q150.4531,18.125 151.0625,18.2656 Q151.6719,18.4063 152.2031,18.6875 L152.2031,21.25 Q151.6094,20.7031 151.0469,20.4453 Q150.4844,20.1875 149.8906,20.1875 Q148.625,20.1875 147.9844,21.1953 Q147.3438,22.2031 147.3438,24.1719 Q147.3438,26.1406 147.9844,27.1484 Q148.625,28.1563 149.8906,28.1563 Q150.4844,28.1563 151.0469,27.8984 Q151.6094,27.6406 152.2031,27.0938 L152.2031,29.6563 Z "/><text fill="#19273C" font-family="sans-serif" font-size="16" lengthAdjust="spacingAndGlyphs" textLength="208" x="170.25" y="29.5391">BusinessNetworkDefinition</text><line style="stroke: #E3ECEC; stroke-width: 1.5;" x1="7" x2="509" y1="40" y2="40"/><line style="stroke: #E3ECEC; stroke-width: 1.5;" x1="7" x2="509" y1="48" y2="48"/><ellipse cx="17" cy="62.3125" fill="#84BE84" rx="3" ry="3" style="stroke: #038048; stroke-width: 1.0;"/><text fill="#19273C" font-family="sans-serif" font-size="16" lengthAdjust="spacingAndGlyphs" textLength="156" x="26" y="66.8516">String getIdentifier()</text><ellipse cx="17" cy="80.9375" fill="#84BE84" rx="3" ry="3" style="stroke: #038048; stroke-width: 1.0;"/><text fill="#19273C" font-family="sans-serif" font-size="16" lengthAdjust="spacingAndGlyphs" textLength="320" x="26" y="85.4766">BusinessNetworkMetadata getMetadata()</text><ellipse cx="17" cy="99.5625" fill="#84BE84" rx="3" ry="3" style="stroke: #038048; stroke-width: 1.0;"/><text fill="#19273C" font-family="sans-serif" font-size="16" lengthAdjust="spacingAndGlyphs" textLength="133" x="26" y="104.1016">String getName()</text><ellipse cx="17" cy="118.1875" fill="#84BE84" rx="3" ry="3" style="stroke: #038048; stroke-width: 1.0;"/><text fill="#19273C" font-family="sans-serif" font-size="16" lengthAdjust="spacingAndGlyphs" textLength="147" x="26" y="122.7266">String getVersion()</text><ellipse cx="17" cy="136.8125" fill="#84BE84" rx="3" ry="3" style="stroke: #038048; stroke-width: 1.0;"/><text fill="#19273C" font-family="sans-serif" font-size="16" lengthAdjust="spacingAndGlyphs" textLength="176" x="26" y="141.3516">String getDescription()</text><ellipse cx="17" cy="155.4375" fill="#84BE84" rx="3" ry="3" style="stroke: #038048; stroke-width: 1.0;"/><text fill="#19273C" font-family="sans-serif" font-size="16" lengthAdjust="spacingAndGlyphs" textLength="225" x="26" y="159.9766">Promise fromArchive(Buffer)</text><ellipse cx="17" cy="174.0625" fill="#84BE84" rx="3" ry="3" style="stroke: #038048; stroke-width: 1.0;"/><text fill="#19273C" font-family="sans-serif" font-size="16" lengthAdjust="spacingAndGlyphs" textLength="190" x="26" y="178.6016">Buffer toArchive(Object)</text><ellipse cx="17" cy="192.6875" fill="#84BE84" rx="3" ry="3" style="stroke: #038048; stroke-width: 1.0;"/><text fill="#19273C" font-family="sans-serif" font-size="16" lengthAdjust="spacingAndGlyphs" textLength="478" x="26" y="197.2266">Promise fromDirectory(String,Object,Object,boolean,boolean)</text><ellipse cx="17" cy="211.3125" fill="#84BE84" rx="3" ry="3" style="stroke: #038048; stroke-width: 1.0;"/><text fill="#19273C" font-family="sans-serif" font-size="16" lengthAdjust="spacingAndGlyphs" textLength="238" x="26" y="215.8516">Introspector getIntrospector()</text><ellipse cx="17" cy="229.9375" fill="#84BE84" rx="3" ry="3" style="stroke: #038048; stroke-width: 1.0;"/><text fill="#19273C" font-family="sans-serif" font-size="16" lengthAdjust="spacingAndGlyphs" textLength="160" x="26" y="234.4766">Factory getFactory()</text><ellipse cx="17" cy="248.5625" fill="#84BE84" rx="3" ry="3" style="stroke: #038048; stroke-width: 1.0;"/><text fill="#19273C" font-family="sans-serif" font-size="16" lengthAdjust="spacingAndGlyphs" textLength="180" x="26" y="253.1016">Serializer getSerializer()</text></g></svg>