<?xml version="1.0" encoding="UTF-8" standalone="no"?><svg xmlns="http://www.w3.org/2000/svg" xmlns:xlink="http://www.w3.org/1999/xlink" contentScriptType="application/ecmascript" contentStyleType="text/css" height="202px" preserveAspectRatio="none" style="width:299px;height:202px;" version="1.1" viewBox="0 0 299 202" width="299px" zoomAndPan="magnify"><defs/><g><!--class ConceptDeclaration--><rect fill="#F8FAFA" height="85.25" rx="1" ry="1" style="stroke: #E3ECEC; stroke-width: 1.5;" width="292" x="6" y="8"/><ellipse cx="71.75" cy="24" fill="#FFFFFF" rx="11" ry="11" style="stroke: #E3ECEC; stroke-width: 1.0;"/><path d="M74.2031,29.6563 Q73.6563,29.9375 73.0547,30.0859 Q72.4531,30.2344 71.7813,30.2344 Q69.4219,30.2344 68.1797,28.6719 Q66.9375,27.1094 66.9375,24.1719 Q66.9375,21.2344 68.1797,19.6797 Q69.4219,18.125 71.7813,18.125 Q72.4531,18.125 73.0625,18.2656 Q73.6719,18.4063 74.2031,18.6875 L74.2031,21.25 Q73.6094,20.7031 73.0469,20.4453 Q72.4844,20.1875 71.8906,20.1875 Q70.625,20.1875 69.9844,21.1953 Q69.3438,22.2031 69.3438,24.1719 Q69.3438,26.1406 69.9844,27.1484 Q70.625,28.1563 71.8906,28.1563 Q72.4844,28.1563 73.0469,27.8984 Q73.6094,27.6406 74.2031,27.0938 L74.2031,29.6563 Z "/><text fill="#19273C" font-family="sans-serif" font-size="16" lengthAdjust="spacingAndGlyphs" textLength="152" x="92.25" y="29.5391">ConceptDeclaration</text><line style="stroke: #E3ECEC; stroke-width: 1.5;" x1="7" x2="297" y1="40" y2="40"/><line style="stroke: #E3ECEC; stroke-width: 1.5;" x1="7" x2="297" y1="48" y2="48"/><ellipse cx="17" cy="62.3125" fill="#84BE84" rx="3" ry="3" style="stroke: #038048; stroke-width: 1.0;"/><text fill="#19273C" font-family="sans-serif" font-size="16" lengthAdjust="spacingAndGlyphs" textLength="266" x="26" y="66.8516">void constructor(ModelFile,Object)</text><ellipse cx="17" cy="80.9375" fill="#84BE84" rx="3" ry="3" style="stroke: #038048; stroke-width: 1.0;"/><text fill="#19273C" font-family="sans-serif" font-size="16" lengthAdjust="spacingAndGlyphs" textLength="155" x="26" y="85.4766">boolean isConcept()</text><!--class ClassDeclaration--><rect fill="#F8FAFA" height="48" rx="1" ry="1" style="stroke: #E3ECEC; stroke-width: 1.5;" width="160" x="72" y="153"/><ellipse cx="87" cy="169" fill="#FFFFFF" rx="11" ry="11" style="stroke: #E3ECEC; stroke-width: 1.0;"/><path d="M89.4531,174.6563 Q88.9063,174.9375 88.3047,175.0859 Q87.7031,175.2344 87.0313,175.2344 Q84.6719,175.2344 83.4297,173.6719 Q82.1875,172.1094 82.1875,169.1719 Q82.1875,166.2344 83.4297,164.6797 Q84.6719,163.125 87.0313,163.125 Q87.7031,163.125 88.3125,163.2656 Q88.9219,163.4063 89.4531,163.6875 L89.4531,166.25 Q88.8594,165.7031 88.2969,165.4453 Q87.7344,165.1875 87.1406,165.1875 Q85.875,165.1875 85.2344,166.1953 Q84.5938,167.2031 84.5938,169.1719 Q84.5938,171.1406 85.2344,172.1484 Q85.875,173.1563 87.1406,173.1563 Q87.7344,173.1563 88.2969,172.8984 Q88.8594,172.6406 89.4531,172.0938 L89.4531,174.6563 Z "/><text fill="#19273C" font-family="sans-serif" font-size="16" lengthAdjust="spacingAndGlyphs" textLength="128" x="101" y="174.5391">ClassDeclaration</text><line style="stroke: #E3ECEC; stroke-width: 1.5;" x1="73" x2="231" y1="185" y2="185"/><line style="stroke: #E3ECEC; stroke-width: 1.5;" x1="73" x2="231" y1="193" y2="193"/><path d="M152,93.303 C152,106.0649 152,120.1166 152,132.959 " fill="none" style="stroke: #3C6DF0; stroke-width: 1.0;"/><polygon fill="none" points="159,132.9891,152,152.989,145,132.989,159,132.9891" style="stroke: #3C6DF0; stroke-width: 1.0;"/></g></svg>