<?xml version="1.0" encoding="UTF-8" standalone="no"?><svg xmlns="http://www.w3.org/2000/svg" xmlns:xlink="http://www.w3.org/1999/xlink" contentScriptType="application/ecmascript" contentStyleType="text/css" height="295px" preserveAspectRatio="none" style="width:288px;height:295px;" version="1.1" viewBox="0 0 288 295" width="288px" zoomAndPan="magnify"><defs/><g><!--class Identifiable--><rect fill="#F8FAFA" height="178.375" rx="1" ry="1" style="stroke: #E3ECEC; stroke-width: 1.5;" width="281" x="6" y="8"/><ellipse cx="100.75" cy="24" fill="#FFFFFF" rx="11" ry="11" style="stroke: #E3ECEC; stroke-width: 1.0;"/><path d="M103.2031,29.6563 Q102.6563,29.9375 102.0547,30.0859 Q101.4531,30.2344 100.7813,30.2344 Q98.4219,30.2344 97.1797,28.6719 Q95.9375,27.1094 95.9375,24.1719 Q95.9375,21.2344 97.1797,19.6797 Q98.4219,18.125 100.7813,18.125 Q101.4531,18.125 102.0625,18.2656 Q102.6719,18.4063 103.2031,18.6875 L103.2031,21.25 Q102.6094,20.7031 102.0469,20.4453 Q101.4844,20.1875 100.8906,20.1875 Q99.625,20.1875 98.9844,21.1953 Q98.3438,22.2031 98.3438,24.1719 Q98.3438,26.1406 98.9844,27.1484 Q99.625,28.1563 100.8906,28.1563 Q101.4844,28.1563 102.0469,27.8984 Q102.6094,27.6406 103.2031,27.0938 L103.2031,29.6563 Z "/><text fill="#19273C" font-family="sans-serif" font-size="16" lengthAdjust="spacingAndGlyphs" textLength="83" x="121.25" y="29.5391">Identifiable</text><line style="stroke: #E3ECEC; stroke-width: 1.5;" x1="7" x2="286" y1="40" y2="40"/><line style="stroke: #E3ECEC; stroke-width: 1.5;" x1="7" x2="286" y1="48" y2="48"/><ellipse cx="17" cy="62.3125" fill="#84BE84" rx="3" ry="3" style="stroke: #038048; stroke-width: 1.0;"/><text fill="#19273C" font-family="sans-serif" font-size="16" lengthAdjust="spacingAndGlyphs" textLength="155" x="26" y="66.8516">string getIdentifier()</text><ellipse cx="17" cy="80.9375" fill="#84BE84" rx="3" ry="3" style="stroke: #038048; stroke-width: 1.0;"/><text fill="#19273C" font-family="sans-serif" font-size="16" lengthAdjust="spacingAndGlyphs" textLength="186" x="26" y="85.4766">void setIdentifier(string)</text><ellipse cx="17" cy="99.5625" fill="#84BE84" rx="3" ry="3" style="stroke: #038048; stroke-width: 1.0;"/><text fill="#19273C" font-family="sans-serif" font-size="16" lengthAdjust="spacingAndGlyphs" textLength="255" x="26" y="104.1016">string getFullyQualifiedIdentifier()</text><ellipse cx="17" cy="118.1875" fill="#84BE84" rx="3" ry="3" style="stroke: #038048; stroke-width: 1.0;"/><text fill="#19273C" font-family="sans-serif" font-size="16" lengthAdjust="spacingAndGlyphs" textLength="125" x="26" y="122.7266">String toString()</text><ellipse cx="17" cy="136.8125" fill="#84BE84" rx="3" ry="3" style="stroke: #038048; stroke-width: 1.0;"/><text fill="#19273C" font-family="sans-serif" font-size="16" lengthAdjust="spacingAndGlyphs" textLength="183" x="26" y="141.3516">boolean isRelationship()</text><ellipse cx="17" cy="155.4375" fill="#84BE84" rx="3" ry="3" style="stroke: #038048; stroke-width: 1.0;"/><text fill="#19273C" font-family="sans-serif" font-size="16" lengthAdjust="spacingAndGlyphs" textLength="164" x="26" y="159.9766">boolean isResource()</text><ellipse cx="17" cy="174.0625" fill="#84BE84" rx="3" ry="3" style="stroke: #038048; stroke-width: 1.0;"/><text fill="#19273C" font-family="sans-serif" font-size="16" lengthAdjust="spacingAndGlyphs" textLength="107" x="26" y="178.6016">String toURI()</text><!--class Typed--><rect fill="#F8FAFA" height="48" rx="1" ry="1" style="stroke: #E3ECEC; stroke-width: 1.5;" width="79" x="107" y="246"/><ellipse cx="122" cy="262" fill="#FFFFFF" rx="11" ry="11" style="stroke: #E3ECEC; stroke-width: 1.0;"/><path d="M124.4531,267.6563 Q123.9063,267.9375 123.3047,268.0859 Q122.7031,268.2344 122.0313,268.2344 Q119.6719,268.2344 118.4297,266.6719 Q117.1875,265.1094 117.1875,262.1719 Q117.1875,259.2344 118.4297,257.6797 Q119.6719,256.125 122.0313,256.125 Q122.7031,256.125 123.3125,256.2656 Q123.9219,256.4063 124.4531,256.6875 L124.4531,259.25 Q123.8594,258.7031 123.2969,258.4453 Q122.7344,258.1875 122.1406,258.1875 Q120.875,258.1875 120.2344,259.1953 Q119.5938,260.2031 119.5938,262.1719 Q119.5938,264.1406 120.2344,265.1484 Q120.875,266.1563 122.1406,266.1563 Q122.7344,266.1563 123.2969,265.8984 Q123.8594,265.6406 124.4531,265.0938 L124.4531,267.6563 Z "/><text fill="#19273C" font-family="sans-serif" font-size="16" lengthAdjust="spacingAndGlyphs" textLength="47" x="136" y="267.5391">Typed</text><line style="stroke: #E3ECEC; stroke-width: 1.5;" x1="108" x2="185" y1="278" y2="278"/><line style="stroke: #E3ECEC; stroke-width: 1.5;" x1="108" x2="185" y1="286" y2="286"/><path d="M146.5,186.005 C146.5,199.6414 146.5,213.1933 146.5,225.2709 " fill="none" style="stroke: #3C6DF0; stroke-width: 1.0;"/><polygon fill="none" points="153.5,225.7115,146.5,245.7115,139.5,225.7114,153.5,225.7115" style="stroke: #3C6DF0; stroke-width: 1.0;"/></g></svg>