<?xml version="1.0" encoding="UTF-8" standalone="no"?><svg xmlns="http://www.w3.org/2000/svg" xmlns:xlink="http://www.w3.org/1999/xlink" contentScriptType="application/ecmascript" contentStyleType="text/css" height="429px" preserveAspectRatio="none" style="width:514px;height:429px;" version="1.1" viewBox="0 0 514 429" width="514px" zoomAndPan="magnify"><defs/><g><!--class ModelFile--><rect fill="#F8FAFA" height="420.5" rx="1" ry="1" style="stroke: #E3ECEC; stroke-width: 1.5;" width="507" x="6" y="8"/><ellipse cx="220.75" cy="24" fill="#FFFFFF" rx="11" ry="11" style="stroke: #E3ECEC; stroke-width: 1.0;"/><path d="M223.2031,29.6563 Q222.6563,29.9375 222.0547,30.0859 Q221.4531,30.2344 220.7813,30.2344 Q218.4219,30.2344 217.1797,28.6719 Q215.9375,27.1094 215.9375,24.1719 Q215.9375,21.2344 217.1797,19.6797 Q218.4219,18.125 220.7813,18.125 Q221.4531,18.125 222.0625,18.2656 Q222.6719,18.4063 223.2031,18.6875 L223.2031,21.25 Q222.6094,20.7031 222.0469,20.4453 Q221.4844,20.1875 220.8906,20.1875 Q219.625,20.1875 218.9844,21.1953 Q218.3438,22.2031 218.3438,24.1719 Q218.3438,26.1406 218.9844,27.1484 Q219.625,28.1563 220.8906,28.1563 Q221.4844,28.1563 222.0469,27.8984 Q222.6094,27.6406 223.2031,27.0938 L223.2031,29.6563 Z "/><text fill="#19273C" font-family="sans-serif" font-size="16" lengthAdjust="spacingAndGlyphs" textLength="69" x="241.25" y="29.5391">ModelFile</text><line style="stroke: #E3ECEC; stroke-width: 1.5;" x1="7" x2="512" y1="40" y2="40"/><line style="stroke: #E3ECEC; stroke-width: 1.5;" x1="7" x2="512" y1="48" y2="48"/><ellipse cx="17" cy="62.3125" fill="#84BE84" rx="3" ry="3" style="stroke: #038048; stroke-width: 1.0;"/><text fill="#19273C" font-family="sans-serif" font-size="16" lengthAdjust="spacingAndGlyphs" textLength="266" x="26" y="66.8516">ModelManager getModelManager()</text><ellipse cx="17" cy="80.9375" fill="#84BE84" rx="3" ry="3" style="stroke: #038048; stroke-width: 1.0;"/><text fill="#19273C" font-family="sans-serif" font-size="16" lengthAdjust="spacingAndGlyphs" textLength="161" x="26" y="85.4766">string[] getImports()</text><ellipse cx="17" cy="99.5625" fill="#84BE84" rx="3" ry="3" style="stroke: #038048; stroke-width: 1.0;"/><text fill="#19273C" font-family="sans-serif" font-size="16" lengthAdjust="spacingAndGlyphs" textLength="194" x="26" y="104.1016">boolean isDefined(string)</text><ellipse cx="17" cy="118.1875" fill="#84BE84" rx="3" ry="3" style="stroke: #038048; stroke-width: 1.0;"/><text fill="#19273C" font-family="sans-serif" font-size="16" lengthAdjust="spacingAndGlyphs" textLength="292" x="26" y="122.7266">ClassDeclaration getLocalType(string)</text><ellipse cx="17" cy="136.8125" fill="#84BE84" rx="3" ry="3" style="stroke: #038048; stroke-width: 1.0;"/><text fill="#19273C" font-family="sans-serif" font-size="16" lengthAdjust="spacingAndGlyphs" textLength="349" x="26" y="141.3516">AssetDeclaration getAssetDeclaration(string)</text><ellipse cx="17" cy="155.4375" fill="#84BE84" rx="3" ry="3" style="stroke: #038048; stroke-width: 1.0;"/><text fill="#19273C" font-family="sans-serif" font-size="16" lengthAdjust="spacingAndGlyphs" textLength="443" x="26" y="159.9766">TransactionDeclaration getTransactionDeclaration(string)</text><ellipse cx="17" cy="174.0625" fill="#84BE84" rx="3" ry="3" style="stroke: #038048; stroke-width: 1.0;"/><text fill="#19273C" font-family="sans-serif" font-size="16" lengthAdjust="spacingAndGlyphs" textLength="349" x="26" y="178.6016">EventDeclaration getEventDeclaration(string)</text><ellipse cx="17" cy="192.6875" fill="#84BE84" rx="3" ry="3" style="stroke: #038048; stroke-width: 1.0;"/><text fill="#19273C" font-family="sans-serif" font-size="16" lengthAdjust="spacingAndGlyphs" textLength="425" x="26" y="197.2266">ParticipantDeclaration getParticipantDeclaration(string)</text><ellipse cx="17" cy="211.3125" fill="#84BE84" rx="3" ry="3" style="stroke: #038048; stroke-width: 1.0;"/><text fill="#19273C" font-family="sans-serif" font-size="16" lengthAdjust="spacingAndGlyphs" textLength="178" x="26" y="215.8516">string getNamespace()</text><ellipse cx="17" cy="229.9375" fill="#84BE84" rx="3" ry="3" style="stroke: #038048; stroke-width: 1.0;"/><text fill="#19273C" font-family="sans-serif" font-size="16" lengthAdjust="spacingAndGlyphs" textLength="132" x="26" y="234.4766">string getName()</text><ellipse cx="17" cy="248.5625" fill="#84BE84" rx="3" ry="3" style="stroke: #038048; stroke-width: 1.0;"/><text fill="#19273C" font-family="sans-serif" font-size="16" lengthAdjust="spacingAndGlyphs" textLength="387" x="26" y="253.1016">AssetDeclaration[] getAssetDeclarations(Boolean)</text><ellipse cx="17" cy="267.1875" fill="#84BE84" rx="3" ry="3" style="stroke: #038048; stroke-width: 1.0;"/><text fill="#19273C" font-family="sans-serif" font-size="16" lengthAdjust="spacingAndGlyphs" textLength="481" x="26" y="271.7266">TransactionDeclaration[] getTransactionDeclarations(Boolean)</text><ellipse cx="17" cy="285.8125" fill="#84BE84" rx="3" ry="3" style="stroke: #038048; stroke-width: 1.0;"/><text fill="#19273C" font-family="sans-serif" font-size="16" lengthAdjust="spacingAndGlyphs" textLength="387" x="26" y="290.3516">EventDeclaration[] getEventDeclarations(Boolean)</text><ellipse cx="17" cy="304.4375" fill="#84BE84" rx="3" ry="3" style="stroke: #038048; stroke-width: 1.0;"/><text fill="#19273C" font-family="sans-serif" font-size="16" lengthAdjust="spacingAndGlyphs" textLength="463" x="26" y="308.9766">ParticipantDeclaration[] getParticipantDeclarations(Boolean)</text><ellipse cx="17" cy="323.0625" fill="#84BE84" rx="3" ry="3" style="stroke: #038048; stroke-width: 1.0;"/><text fill="#19273C" font-family="sans-serif" font-size="16" lengthAdjust="spacingAndGlyphs" textLength="429" x="26" y="327.6016">ConceptDeclaration[] getConceptDeclarations(Boolean)</text><ellipse cx="17" cy="341.6875" fill="#84BE84" rx="3" ry="3" style="stroke: #038048; stroke-width: 1.0;"/><text fill="#19273C" font-family="sans-serif" font-size="16" lengthAdjust="spacingAndGlyphs" textLength="389" x="26" y="346.2266">EnumDeclaration[] getEnumDeclarations(Boolean)</text><ellipse cx="17" cy="360.3125" fill="#84BE84" rx="3" ry="3" style="stroke: #038048; stroke-width: 1.0;"/><text fill="#19273C" font-family="sans-serif" font-size="16" lengthAdjust="spacingAndGlyphs" textLength="412" x="26" y="364.8516">ClassDeclaration[] getDeclarations(Function,Boolean)</text><ellipse cx="17" cy="378.9375" fill="#84BE84" rx="3" ry="3" style="stroke: #038048; stroke-width: 1.0;"/><text fill="#19273C" font-family="sans-serif" font-size="16" lengthAdjust="spacingAndGlyphs" textLength="295" x="26" y="383.4766">ClassDeclaration[] getAllDeclarations()</text><ellipse cx="17" cy="397.5625" fill="#84BE84" rx="3" ry="3" style="stroke: #038048; stroke-width: 1.0;"/><text fill="#19273C" font-family="sans-serif" font-size="16" lengthAdjust="spacingAndGlyphs" textLength="168" x="26" y="402.1016">string getDefinitions()</text><ellipse cx="17" cy="416.1875" fill="#84BE84" rx="3" ry="3" style="stroke: #038048; stroke-width: 1.0;"/><text fill="#19273C" font-family="sans-serif" font-size="16" lengthAdjust="spacingAndGlyphs" textLength="217" x="26" y="420.7266">boolean isSystemModelFile()</text></g></svg>