<?xml version="1.0" encoding="UTF-8" standalone="no"?><svg xmlns="http://www.w3.org/2000/svg" xmlns:xlink="http://www.w3.org/1999/xlink" contentScriptType="application/ecmascript" contentStyleType="text/css" height="258px" preserveAspectRatio="none" style="width:997px;height:258px;" version="1.1" viewBox="0 0 997 258" width="997px" zoomAndPan="magnify"><defs/><g><!--class ParticipantRegistry--><rect fill="#F8FAFA" height="141.125" rx="1" ry="1" style="stroke: #E3ECEC; stroke-width: 1.5;" width="990" x="6" y="8"/><ellipse cx="423.75" cy="24" fill="#FFFFFF" rx="11" ry="11" style="stroke: #E3ECEC; stroke-width: 1.0;"/><path d="M426.2031,29.6563 Q425.6563,29.9375 425.0547,30.0859 Q424.4531,30.2344 423.7813,30.2344 Q421.4219,30.2344 420.1797,28.6719 Q418.9375,27.1094 418.9375,24.1719 Q418.9375,21.2344 420.1797,19.6797 Q421.4219,18.125 423.7813,18.125 Q424.4531,18.125 425.0625,18.2656 Q425.6719,18.4063 426.2031,18.6875 L426.2031,21.25 Q425.6094,20.7031 425.0469,20.4453 Q424.4844,20.1875 423.8906,20.1875 Q422.625,20.1875 421.9844,21.1953 Q421.3438,22.2031 421.3438,24.1719 Q421.3438,26.1406 421.9844,27.1484 Q422.625,28.1563 423.8906,28.1563 Q424.4844,28.1563 425.0469,27.8984 Q425.6094,27.6406 426.2031,27.0938 L426.2031,29.6563 Z "/><text fill="#19273C" font-family="sans-serif" font-size="16" lengthAdjust="spacingAndGlyphs" textLength="146" x="444.25" y="29.5391">ParticipantRegistry</text><line style="stroke: #E3ECEC; stroke-width: 1.5;" x1="7" x2="995" y1="40" y2="40"/><line style="stroke: #E3ECEC; stroke-width: 1.5;" x1="7" x2="995" y1="48" y2="48"/><polygon fill="#4177AF" points="17,58.3125,13,64.3125,21,64.3125" style="stroke: #1963A0; stroke-width: 1.0;"/><text fill="#19273C" font-family="sans-serif" font-size="16" lengthAdjust="spacingAndGlyphs" textLength="956" x="26" y="66.8516">Promise getAllParticipantRegistries(SecurityContext,ModelManager,Factory,Serializer,BusinessNetworkConnection,Boolean)</text><polygon fill="#4177AF" points="17,76.9375,13,82.9375,21,82.9375" style="stroke: #1963A0; stroke-width: 1.0;"/><text fill="#19273C" font-family="sans-serif" font-size="16" lengthAdjust="spacingAndGlyphs" textLength="910" x="26" y="85.4766">Promise getParticipantRegistry(SecurityContext,string,ModelManager,Factory,Serializer,BusinessNetworkConnection)</text><polygon fill="#4177AF" points="17,95.5625,13,101.5625,21,101.5625" style="stroke: #1963A0; stroke-width: 1.0;"/><text fill="#19273C" font-family="sans-serif" font-size="16" lengthAdjust="spacingAndGlyphs" textLength="932" x="26" y="104.1016">Promise participantRegistryExists(SecurityContext,string,ModelManager,Factory,Serializer,BusinessNetworkConnection)</text><polygon fill="#4177AF" points="17,114.1875,13,120.1875,21,120.1875" style="stroke: #1963A0; stroke-width: 1.0;"/><text fill="#19273C" font-family="sans-serif" font-size="16" lengthAdjust="spacingAndGlyphs" textLength="964" x="26" y="122.7266">Promise addParticipantRegistry(SecurityContext,string,string,ModelManager,Factory,Serializer,BusinessNetworkConnection)</text><polygon fill="#4177AF" points="17,132.8125,13,138.8125,21,138.8125" style="stroke: #1963A0; stroke-width: 1.0;"/><text fill="#19273C" font-family="sans-serif" font-size="16" lengthAdjust="spacingAndGlyphs" textLength="851" x="26" y="141.3516">void constructor(string,string,SecurityContext,ModelManager,Factory,Serializer,BusinessNetworkConnection)</text><!--class Registry--><rect fill="#F8FAFA" height="48" rx="1" ry="1" style="stroke: #E3ECEC; stroke-width: 1.5;" width="96" x="453" y="209"/><ellipse cx="468" cy="225" fill="#FFFFFF" rx="11" ry="11" style="stroke: #E3ECEC; stroke-width: 1.0;"/><path d="M470.4531,230.6563 Q469.9063,230.9375 469.3047,231.0859 Q468.7031,231.2344 468.0313,231.2344 Q465.6719,231.2344 464.4297,229.6719 Q463.1875,228.1094 463.1875,225.1719 Q463.1875,222.2344 464.4297,220.6797 Q465.6719,219.125 468.0313,219.125 Q468.7031,219.125 469.3125,219.2656 Q469.9219,219.4063 470.4531,219.6875 L470.4531,222.25 Q469.8594,221.7031 469.2969,221.4453 Q468.7344,221.1875 468.1406,221.1875 Q466.875,221.1875 466.2344,222.1953 Q465.5938,223.2031 465.5938,225.1719 Q465.5938,227.1406 466.2344,228.1484 Q466.875,229.1563 468.1406,229.1563 Q468.7344,229.1563 469.2969,228.8984 Q469.8594,228.6406 470.4531,228.0938 L470.4531,230.6563 Z "/><text fill="#19273C" font-family="sans-serif" font-size="16" lengthAdjust="spacingAndGlyphs" textLength="64" x="482" y="230.5391">Registry</text><line style="stroke: #E3ECEC; stroke-width: 1.5;" x1="454" x2="548" y1="241" y2="241"/><line style="stroke: #E3ECEC; stroke-width: 1.5;" x1="454" x2="548" y1="249" y2="249"/><path d="M501,149.056 C501,162.5086 501,176.2413 501,188.5617 " fill="none" style="stroke: #3C6DF0; stroke-width: 1.0;"/><polygon fill="none" points="508,188.8476,501,208.8476,494,188.8476,508,188.8476" style="stroke: #3C6DF0; stroke-width: 1.0;"/></g></svg>