<?xml version="1.0" encoding="UTF-8" standalone="no"?><svg xmlns="http://www.w3.org/2000/svg" xmlns:xlink="http://www.w3.org/1999/xlink" contentScriptType="application/ecmascript" contentStyleType="text/css" height="202px" preserveAspectRatio="none" style="width:197px;height:202px;" version="1.1" viewBox="0 0 197 202" width="197px" zoomAndPan="magnify"><defs/><g><!--class Resource--><rect fill="#F8FAFA" height="85.25" rx="1" ry="1" style="stroke: #E3ECEC; stroke-width: 1.5;" width="190" x="6" y="8"/><ellipse cx="59.75" cy="24" fill="#FFFFFF" rx="11" ry="11" style="stroke: #E3ECEC; stroke-width: 1.0;"/><path d="M62.2031,29.6563 Q61.6563,29.9375 61.0547,30.0859 Q60.4531,30.2344 59.7813,30.2344 Q57.4219,30.2344 56.1797,28.6719 Q54.9375,27.1094 54.9375,24.1719 Q54.9375,21.2344 56.1797,19.6797 Q57.4219,18.125 59.7813,18.125 Q60.4531,18.125 61.0625,18.2656 Q61.6719,18.4063 62.2031,18.6875 L62.2031,21.25 Q61.6094,20.7031 61.0469,20.4453 Q60.4844,20.1875 59.8906,20.1875 Q58.625,20.1875 57.9844,21.1953 Q57.3438,22.2031 57.3438,24.1719 Q57.3438,26.1406 57.9844,27.1484 Q58.625,28.1563 59.8906,28.1563 Q60.4844,28.1563 61.0469,27.8984 Q61.6094,27.6406 62.2031,27.0938 L62.2031,29.6563 Z "/><text fill="#19273C" font-family="sans-serif" font-size="16" lengthAdjust="spacingAndGlyphs" textLength="74" x="80.25" y="29.5391">Resource</text><line style="stroke: #E3ECEC; stroke-width: 1.5;" x1="7" x2="195" y1="40" y2="40"/><line style="stroke: #E3ECEC; stroke-width: 1.5;" x1="7" x2="195" y1="48" y2="48"/><ellipse cx="17" cy="62.3125" fill="#84BE84" rx="3" ry="3" style="stroke: #038048; stroke-width: 1.0;"/><text fill="#19273C" font-family="sans-serif" font-size="16" lengthAdjust="spacingAndGlyphs" textLength="125" x="26" y="66.8516">String toString()</text><ellipse cx="17" cy="80.9375" fill="#84BE84" rx="3" ry="3" style="stroke: #038048; stroke-width: 1.0;"/><text fill="#19273C" font-family="sans-serif" font-size="16" lengthAdjust="spacingAndGlyphs" textLength="164" x="26" y="85.4766">boolean isResource()</text><!--class Identifiable--><rect fill="#F8FAFA" height="48" rx="1" ry="1" style="stroke: #E3ECEC; stroke-width: 1.5;" width="115" x="43.5" y="153"/><ellipse cx="58.5" cy="169" fill="#FFFFFF" rx="11" ry="11" style="stroke: #E3ECEC; stroke-width: 1.0;"/><path d="M60.9531,174.6563 Q60.4063,174.9375 59.8047,175.0859 Q59.2031,175.2344 58.5313,175.2344 Q56.1719,175.2344 54.9297,173.6719 Q53.6875,172.1094 53.6875,169.1719 Q53.6875,166.2344 54.9297,164.6797 Q56.1719,163.125 58.5313,163.125 Q59.2031,163.125 59.8125,163.2656 Q60.4219,163.4063 60.9531,163.6875 L60.9531,166.25 Q60.3594,165.7031 59.7969,165.4453 Q59.2344,165.1875 58.6406,165.1875 Q57.375,165.1875 56.7344,166.1953 Q56.0938,167.2031 56.0938,169.1719 Q56.0938,171.1406 56.7344,172.1484 Q57.375,173.1563 58.6406,173.1563 Q59.2344,173.1563 59.7969,172.8984 Q60.3594,172.6406 60.9531,172.0938 L60.9531,174.6563 Z "/><text fill="#19273C" font-family="sans-serif" font-size="16" lengthAdjust="spacingAndGlyphs" textLength="83" x="72.5" y="174.5391">Identifiable</text><line style="stroke: #E3ECEC; stroke-width: 1.5;" x1="44.5" x2="157.5" y1="185" y2="185"/><line style="stroke: #E3ECEC; stroke-width: 1.5;" x1="44.5" x2="157.5" y1="193" y2="193"/><path d="M101,93.303 C101,106.0649 101,120.1166 101,132.959 " fill="none" style="stroke: #3C6DF0; stroke-width: 1.0;"/><polygon fill="none" points="108,132.9891,101,152.989,94.0001,132.989,108,132.9891" style="stroke: #3C6DF0; stroke-width: 1.0;"/></g></svg>