<?xml version="1.0" encoding="UTF-8" standalone="no"?><svg xmlns="http://www.w3.org/2000/svg" xmlns:xlink="http://www.w3.org/1999/xlink" contentScriptType="application/ecmascript" contentStyleType="text/css" height="240px" preserveAspectRatio="none" style="width:998px;height:240px;" version="1.1" viewBox="0 0 998 240" width="998px" zoomAndPan="magnify"><defs/><g><!--class TransactionRegistry--><rect fill="#F8FAFA" height="122.5" rx="1" ry="1" style="stroke: #E3ECEC; stroke-width: 1.5;" width="991" x="6" y="8"/><ellipse cx="419.75" cy="24" fill="#FFFFFF" rx="11" ry="11" style="stroke: #E3ECEC; stroke-width: 1.0;"/><path d="M422.2031,29.6563 Q421.6563,29.9375 421.0547,30.0859 Q420.4531,30.2344 419.7813,30.2344 Q417.4219,30.2344 416.1797,28.6719 Q414.9375,27.1094 414.9375,24.1719 Q414.9375,21.2344 416.1797,19.6797 Q417.4219,18.125 419.7813,18.125 Q420.4531,18.125 421.0625,18.2656 Q421.6719,18.4063 422.2031,18.6875 L422.2031,21.25 Q421.6094,20.7031 421.0469,20.4453 Q420.4844,20.1875 419.8906,20.1875 Q418.625,20.1875 417.9844,21.1953 Q417.3438,22.2031 417.3438,24.1719 Q417.3438,26.1406 417.9844,27.1484 Q418.625,28.1563 419.8906,28.1563 Q420.4844,28.1563 421.0469,27.8984 Q421.6094,27.6406 422.2031,27.0938 L422.2031,29.6563 Z "/><text fill="#19273C" font-family="sans-serif" font-size="16" lengthAdjust="spacingAndGlyphs" textLength="155" x="440.25" y="29.5391">TransactionRegistry</text><line style="stroke: #E3ECEC; stroke-width: 1.5;" x1="7" x2="996" y1="40" y2="40"/><line style="stroke: #E3ECEC; stroke-width: 1.5;" x1="7" x2="996" y1="48" y2="48"/><ellipse cx="17" cy="62.3125" fill="#84BE84" rx="3" ry="3" style="stroke: #038048; stroke-width: 1.0;"/><text fill="#19273C" font-family="sans-serif" font-size="16" lengthAdjust="spacingAndGlyphs" textLength="965" x="26" y="66.8516">Promise getAllTransactionRegistries(SecurityContext,ModelManager,Factory,Serializer,BusinessNetworkConnection,Boolean)</text><ellipse cx="17" cy="80.9375" fill="#84BE84" rx="3" ry="3" style="stroke: #038048; stroke-width: 1.0;"/><text fill="#19273C" font-family="sans-serif" font-size="16" lengthAdjust="spacingAndGlyphs" textLength="690" x="26" y="85.4766">Promise getTransactionRegistry(SecurityContext,string,ModelManager,Factory,Serializer)</text><ellipse cx="17" cy="99.5625" fill="#84BE84" rx="3" ry="3" style="stroke: #038048; stroke-width: 1.0;"/><text fill="#19273C" font-family="sans-serif" font-size="16" lengthAdjust="spacingAndGlyphs" textLength="744" x="26" y="104.1016">Promise addTransactionRegistry(SecurityContext,string,string,ModelManager,Factory,Serializer)</text><polygon fill="#4177AF" points="17,114.1875,13,120.1875,21,120.1875" style="stroke: #1963A0; stroke-width: 1.0;"/><text fill="#19273C" font-family="sans-serif" font-size="16" lengthAdjust="spacingAndGlyphs" textLength="709" x="26" y="122.7266">Promise transactionRegistryExists(SecurityContext,string,ModelManager,Factory,Serializer)</text><!--class Registry--><rect fill="#F8FAFA" height="48" rx="1" ry="1" style="stroke: #E3ECEC; stroke-width: 1.5;" width="96" x="453.5" y="191"/><ellipse cx="468.5" cy="207" fill="#FFFFFF" rx="11" ry="11" style="stroke: #E3ECEC; stroke-width: 1.0;"/><path d="M470.9531,212.6563 Q470.4063,212.9375 469.8047,213.0859 Q469.2031,213.2344 468.5313,213.2344 Q466.1719,213.2344 464.9297,211.6719 Q463.6875,210.1094 463.6875,207.1719 Q463.6875,204.2344 464.9297,202.6797 Q466.1719,201.125 468.5313,201.125 Q469.2031,201.125 469.8125,201.2656 Q470.4219,201.4063 470.9531,201.6875 L470.9531,204.25 Q470.3594,203.7031 469.7969,203.4453 Q469.2344,203.1875 468.6406,203.1875 Q467.375,203.1875 466.7344,204.1953 Q466.0938,205.2031 466.0938,207.1719 Q466.0938,209.1406 466.7344,210.1484 Q467.375,211.1563 468.6406,211.1563 Q469.2344,211.1563 469.7969,210.8984 Q470.3594,210.6406 470.9531,210.0938 L470.9531,212.6563 Z "/><text fill="#19273C" font-family="sans-serif" font-size="16" lengthAdjust="spacingAndGlyphs" textLength="64" x="482.5" y="212.5391">Registry</text><line style="stroke: #E3ECEC; stroke-width: 1.5;" x1="454.5" x2="548.5" y1="223" y2="223"/><line style="stroke: #E3ECEC; stroke-width: 1.5;" x1="454.5" x2="548.5" y1="231" y2="231"/><path d="M501.5,131.357 C501.5,144.5339 501.5,158.2128 501.5,170.5597 " fill="none" style="stroke: #3C6DF0; stroke-width: 1.0;"/><polygon fill="none" points="508.5,170.9493,501.5,190.9492,494.5,170.9492,508.5,170.9493" style="stroke: #3C6DF0; stroke-width: 1.0;"/></g></svg>