<?xml version="1.0" encoding="UTF-8" standalone="no"?><svg xmlns="http://www.w3.org/2000/svg" xmlns:xlink="http://www.w3.org/1999/xlink" contentScriptType="application/ecmascript" contentStyleType="text/css" height="221px" preserveAspectRatio="none" style="width:311px;height:221px;" version="1.1" viewBox="0 0 311 221" width="311px" zoomAndPan="magnify"><defs/><g><!--class ValidatedResource--><rect fill="#F8FAFA" height="103.875" rx="1" ry="1" style="stroke: #E3ECEC; stroke-width: 1.5;" width="304" x="6" y="8"/><ellipse cx="81.75" cy="24" fill="#FFFFFF" rx="11" ry="11" style="stroke: #E3ECEC; stroke-width: 1.0;"/><path d="M84.2031,29.6563 Q83.6563,29.9375 83.0547,30.0859 Q82.4531,30.2344 81.7813,30.2344 Q79.4219,30.2344 78.1797,28.6719 Q76.9375,27.1094 76.9375,24.1719 Q76.9375,21.2344 78.1797,19.6797 Q79.4219,18.125 81.7813,18.125 Q82.4531,18.125 83.0625,18.2656 Q83.6719,18.4063 84.2031,18.6875 L84.2031,21.25 Q83.6094,20.7031 83.0469,20.4453 Q82.4844,20.1875 81.8906,20.1875 Q80.625,20.1875 79.9844,21.1953 Q79.3438,22.2031 79.3438,24.1719 Q79.3438,26.1406 79.9844,27.1484 Q80.625,28.1563 81.8906,28.1563 Q82.4844,28.1563 83.0469,27.8984 Q83.6094,27.6406 84.2031,27.0938 L84.2031,29.6563 Z "/><text fill="#19273C" font-family="sans-serif" font-size="16" lengthAdjust="spacingAndGlyphs" textLength="144" x="102.25" y="29.5391">ValidatedResource</text><line style="stroke: #E3ECEC; stroke-width: 1.5;" x1="7" x2="309" y1="40" y2="40"/><line style="stroke: #E3ECEC; stroke-width: 1.5;" x1="7" x2="309" y1="48" y2="48"/><ellipse cx="17" cy="62.3125" fill="#84BE84" rx="3" ry="3" style="stroke: #038048; stroke-width: 1.0;"/><text fill="#19273C" font-family="sans-serif" font-size="16" lengthAdjust="spacingAndGlyphs" textLength="278" x="26" y="66.8516">void setPropertyValue(string,string)</text><ellipse cx="17" cy="80.9375" fill="#84BE84" rx="3" ry="3" style="stroke: #038048; stroke-width: 1.0;"/><text fill="#19273C" font-family="sans-serif" font-size="16" lengthAdjust="spacingAndGlyphs" textLength="258" x="26" y="85.4766">void addArrayValue(string,string)</text><ellipse cx="17" cy="99.5625" fill="#84BE84" rx="3" ry="3" style="stroke: #038048; stroke-width: 1.0;"/><text fill="#19273C" font-family="sans-serif" font-size="16" lengthAdjust="spacingAndGlyphs" textLength="107" x="26" y="104.1016">void validate()</text><!--class Resource--><rect fill="#F8FAFA" height="48" rx="1" ry="1" style="stroke: #E3ECEC; stroke-width: 1.5;" width="106" x="105" y="172"/><ellipse cx="120" cy="188" fill="#FFFFFF" rx="11" ry="11" style="stroke: #E3ECEC; stroke-width: 1.0;"/><path d="M122.4531,193.6563 Q121.9063,193.9375 121.3047,194.0859 Q120.7031,194.2344 120.0313,194.2344 Q117.6719,194.2344 116.4297,192.6719 Q115.1875,191.1094 115.1875,188.1719 Q115.1875,185.2344 116.4297,183.6797 Q117.6719,182.125 120.0313,182.125 Q120.7031,182.125 121.3125,182.2656 Q121.9219,182.4063 122.4531,182.6875 L122.4531,185.25 Q121.8594,184.7031 121.2969,184.4453 Q120.7344,184.1875 120.1406,184.1875 Q118.875,184.1875 118.2344,185.1953 Q117.5938,186.2031 117.5938,188.1719 Q117.5938,190.1406 118.2344,191.1484 Q118.875,192.1563 120.1406,192.1563 Q120.7344,192.1563 121.2969,191.8984 Q121.8594,191.6406 122.4531,191.0938 L122.4531,193.6563 Z "/><text fill="#19273C" font-family="sans-serif" font-size="16" lengthAdjust="spacingAndGlyphs" textLength="74" x="134" y="193.5391">Resource</text><line style="stroke: #E3ECEC; stroke-width: 1.5;" x1="106" x2="210" y1="204" y2="204"/><line style="stroke: #E3ECEC; stroke-width: 1.5;" x1="106" x2="210" y1="212" y2="212"/><path d="M158,112.042 C158,125.0534 158,138.9174 158,151.512 " fill="none" style="stroke: #3C6DF0; stroke-width: 1.0;"/><polygon fill="none" points="165,151.7391,158,171.7391,151,151.7391,165,151.7391" style="stroke: #3C6DF0; stroke-width: 1.0;"/></g></svg>