<?xml version="1.0" encoding="UTF-8" standalone="no"?><svg xmlns="http://www.w3.org/2000/svg" xmlns:xlink="http://www.w3.org/1999/xlink" contentScriptType="application/ecmascript" contentStyleType="text/css" height="221px" preserveAspectRatio="none" style="width:311px;height:221px;" version="1.1" viewBox="0 0 311 221" width="311px" zoomAndPan="magnify"><defs/><g><!--class ValidatedConcept--><rect fill="#F8FAFA" height="103.875" rx="1" ry="1" style="stroke: #E3ECEC; stroke-width: 1.5;" width="304" x="6" y="8"/><ellipse cx="86.25" cy="24" fill="#FFFFFF" rx="11" ry="11" style="stroke: #E3ECEC; stroke-width: 1.0;"/><path d="M88.7031,29.6563 Q88.1563,29.9375 87.5547,30.0859 Q86.9531,30.2344 86.2813,30.2344 Q83.9219,30.2344 82.6797,28.6719 Q81.4375,27.1094 81.4375,24.1719 Q81.4375,21.2344 82.6797,19.6797 Q83.9219,18.125 86.2813,18.125 Q86.9531,18.125 87.5625,18.2656 Q88.1719,18.4063 88.7031,18.6875 L88.7031,21.25 Q88.1094,20.7031 87.5469,20.4453 Q86.9844,20.1875 86.3906,20.1875 Q85.125,20.1875 84.4844,21.1953 Q83.8438,22.2031 83.8438,24.1719 Q83.8438,26.1406 84.4844,27.1484 Q85.125,28.1563 86.3906,28.1563 Q86.9844,28.1563 87.5469,27.8984 Q88.1094,27.6406 88.7031,27.0938 L88.7031,29.6563 Z "/><text fill="#19273C" font-family="sans-serif" font-size="16" lengthAdjust="spacingAndGlyphs" textLength="135" x="106.75" y="29.5391">ValidatedConcept</text><line style="stroke: #E3ECEC; stroke-width: 1.5;" x1="7" x2="309" y1="40" y2="40"/><line style="stroke: #E3ECEC; stroke-width: 1.5;" x1="7" x2="309" y1="48" y2="48"/><ellipse cx="17" cy="62.3125" fill="#84BE84" rx="3" ry="3" style="stroke: #038048; stroke-width: 1.0;"/><text fill="#19273C" font-family="sans-serif" font-size="16" lengthAdjust="spacingAndGlyphs" textLength="278" x="26" y="66.8516">void setPropertyValue(string,string)</text><ellipse cx="17" cy="80.9375" fill="#84BE84" rx="3" ry="3" style="stroke: #038048; stroke-width: 1.0;"/><text fill="#19273C" font-family="sans-serif" font-size="16" lengthAdjust="spacingAndGlyphs" textLength="258" x="26" y="85.4766">void addArrayValue(string,string)</text><ellipse cx="17" cy="99.5625" fill="#84BE84" rx="3" ry="3" style="stroke: #038048; stroke-width: 1.0;"/><text fill="#19273C" font-family="sans-serif" font-size="16" lengthAdjust="spacingAndGlyphs" textLength="107" x="26" y="104.1016">void validate()</text><!--class Concept--><rect fill="#F8FAFA" height="48" rx="1" ry="1" style="stroke: #E3ECEC; stroke-width: 1.5;" width="97" x="109.5" y="172"/><ellipse cx="124.5" cy="188" fill="#FFFFFF" rx="11" ry="11" style="stroke: #E3ECEC; stroke-width: 1.0;"/><path d="M126.9531,193.6563 Q126.4063,193.9375 125.8047,194.0859 Q125.2031,194.2344 124.5313,194.2344 Q122.1719,194.2344 120.9297,192.6719 Q119.6875,191.1094 119.6875,188.1719 Q119.6875,185.2344 120.9297,183.6797 Q122.1719,182.125 124.5313,182.125 Q125.2031,182.125 125.8125,182.2656 Q126.4219,182.4063 126.9531,182.6875 L126.9531,185.25 Q126.3594,184.7031 125.7969,184.4453 Q125.2344,184.1875 124.6406,184.1875 Q123.375,184.1875 122.7344,185.1953 Q122.0938,186.2031 122.0938,188.1719 Q122.0938,190.1406 122.7344,191.1484 Q123.375,192.1563 124.6406,192.1563 Q125.2344,192.1563 125.7969,191.8984 Q126.3594,191.6406 126.9531,191.0938 L126.9531,193.6563 Z "/><text fill="#19273C" font-family="sans-serif" font-size="16" lengthAdjust="spacingAndGlyphs" textLength="65" x="138.5" y="193.5391">Concept</text><line style="stroke: #E3ECEC; stroke-width: 1.5;" x1="110.5" x2="205.5" y1="204" y2="204"/><line style="stroke: #E3ECEC; stroke-width: 1.5;" x1="110.5" x2="205.5" y1="212" y2="212"/><path d="M158,112.042 C158,125.0534 158,138.9174 158,151.512 " fill="none" style="stroke: #3C6DF0; stroke-width: 1.0;"/><polygon fill="none" points="165,151.7391,158,171.7391,151,151.7391,165,151.7391" style="stroke: #3C6DF0; stroke-width: 1.0;"/></g></svg>