<?xml version="1.0" encoding="UTF-8" standalone="no"?><svg xmlns="http://www.w3.org/2000/svg" xmlns:xlink="http://www.w3.org/1999/xlink" contentScriptType="application/ecmascript" contentStyleType="text/css" height="185px" preserveAspectRatio="none" style="width:220px;height:185px;" version="1.1" viewBox="0 0 220 185" width="220px" zoomAndPan="magnify"><defs/><g><!--class BaseException--><rect fill="#F8FAFA" height="66.625" rx="1" ry="1" style="stroke: #E3ECEC; stroke-width: 1.5;" width="213" x="6" y="8.5"/><ellipse cx="50.75" cy="24.5" fill="#FFFFFF" rx="11" ry="11" style="stroke: #E3ECEC; stroke-width: 1.0;"/><path d="M53.2031,30.1563 Q52.6563,30.4375 52.0547,30.5859 Q51.4531,30.7344 50.7813,30.7344 Q48.4219,30.7344 47.1797,29.1719 Q45.9375,27.6094 45.9375,24.6719 Q45.9375,21.7344 47.1797,20.1797 Q48.4219,18.625 50.7813,18.625 Q51.4531,18.625 52.0625,18.7656 Q52.6719,18.9063 53.2031,19.1875 L53.2031,21.75 Q52.6094,21.2031 52.0469,20.9453 Q51.4844,20.6875 50.8906,20.6875 Q49.625,20.6875 48.9844,21.6953 Q48.3438,22.7031 48.3438,24.6719 Q48.3438,26.6406 48.9844,27.6484 Q49.625,28.6563 50.8906,28.6563 Q51.4844,28.6563 52.0469,28.3984 Q52.6094,28.1406 53.2031,27.5938 L53.2031,30.1563 Z "/><text fill="#19273C" font-family="sans-serif" font-size="16" lengthAdjust="spacingAndGlyphs" textLength="115" x="71.25" y="30.0391">BaseException</text><line style="stroke: #E3ECEC; stroke-width: 1.5;" x1="7" x2="218" y1="40.5" y2="40.5"/><line style="stroke: #E3ECEC; stroke-width: 1.5;" x1="7" x2="218" y1="48.5" y2="48.5"/><ellipse cx="17" cy="62.8125" fill="#84BE84" rx="3" ry="3" style="stroke: #038048; stroke-width: 1.0;"/><text fill="#19273C" font-family="sans-serif" font-size="16" lengthAdjust="spacingAndGlyphs" textLength="187" x="26" y="67.3516">void constructor(string)</text><!--class Error--><rect fill="#F8FAFA" height="48" rx="1" ry="1" style="stroke: #E3ECEC; stroke-width: 1.5;" width="73" x="76" y="136"/><ellipse cx="91" cy="152" fill="#FFFFFF" rx="11" ry="11" style="stroke: #E3ECEC; stroke-width: 1.0;"/><path d="M93.4531,157.6563 Q92.9063,157.9375 92.3047,158.0859 Q91.7031,158.2344 91.0313,158.2344 Q88.6719,158.2344 87.4297,156.6719 Q86.1875,155.1094 86.1875,152.1719 Q86.1875,149.2344 87.4297,147.6797 Q88.6719,146.125 91.0313,146.125 Q91.7031,146.125 92.3125,146.2656 Q92.9219,146.4063 93.4531,146.6875 L93.4531,149.25 Q92.8594,148.7031 92.2969,148.4453 Q91.7344,148.1875 91.1406,148.1875 Q89.875,148.1875 89.2344,149.1953 Q88.5938,150.2031 88.5938,152.1719 Q88.5938,154.1406 89.2344,155.1484 Q89.875,156.1563 91.1406,156.1563 Q91.7344,156.1563 92.2969,155.8984 Q92.8594,155.6406 93.4531,155.0938 L93.4531,157.6563 Z "/><text fill="#19273C" font-family="sans-serif" font-size="16" lengthAdjust="spacingAndGlyphs" textLength="41" x="105" y="157.5391">Error</text><line style="stroke: #E3ECEC; stroke-width: 1.5;" x1="77" x2="148" y1="168" y2="168"/><line style="stroke: #E3ECEC; stroke-width: 1.5;" x1="77" x2="148" y1="176" y2="176"/><path d="M112.25,75.621 C112.25,88.0487 112.25,102.4125 112.25,115.6795 " fill="none" style="stroke: #3C6DF0; stroke-width: 1.0;"/><polygon fill="none" points="119.25,115.8078,112.25,135.8077,105.2501,115.8077,119.25,115.8078" style="stroke: #3C6DF0; stroke-width: 1.0;"/></g></svg>