<?xml version="1.0" encoding="UTF-8" standalone="no"?><svg xmlns="http://www.w3.org/2000/svg" xmlns:xlink="http://www.w3.org/1999/xlink" contentScriptType="application/ecmascript" contentStyleType="text/css" height="243px" preserveAspectRatio="none" style="width:302px;height:243px;" version="1.1" viewBox="0 0 302 243" width="302px" zoomAndPan="magnify"><defs/><g><!--class IdCard--><rect fill="#F8FAFA" height="234.25" rx="1" ry="1" style="stroke: #E3ECEC; stroke-width: 1.5;" width="295" x="6" y="8"/><ellipse cx="123.25" cy="24" fill="#FFFFFF" rx="11" ry="11" style="stroke: #E3ECEC; stroke-width: 1.0;"/><path d="M125.7031,29.6563 Q125.1563,29.9375 124.5547,30.0859 Q123.9531,30.2344 123.2813,30.2344 Q120.9219,30.2344 119.6797,28.6719 Q118.4375,27.1094 118.4375,24.1719 Q118.4375,21.2344 119.6797,19.6797 Q120.9219,18.125 123.2813,18.125 Q123.9531,18.125 124.5625,18.2656 Q125.1719,18.4063 125.7031,18.6875 L125.7031,21.25 Q125.1094,20.7031 124.5469,20.4453 Q123.9844,20.1875 123.3906,20.1875 Q122.125,20.1875 121.4844,21.1953 Q120.8438,22.2031 120.8438,24.1719 Q120.8438,26.1406 121.4844,27.1484 Q122.125,28.1563 123.3906,28.1563 Q123.9844,28.1563 124.5469,27.8984 Q125.1094,27.6406 125.7031,27.0938 L125.7031,29.6563 Z "/><text fill="#19273C" font-family="sans-serif" font-size="16" lengthAdjust="spacingAndGlyphs" textLength="52" x="143.75" y="29.5391">IdCard</text><line style="stroke: #E3ECEC; stroke-width: 1.5;" x1="7" x2="300" y1="40" y2="40"/><line style="stroke: #E3ECEC; stroke-width: 1.5;" x1="7" x2="300" y1="48" y2="48"/><ellipse cx="17" cy="62.3125" fill="#84BE84" rx="3" ry="3" style="stroke: #038048; stroke-width: 1.0;"/><text fill="#19273C" font-family="sans-serif" font-size="16" lengthAdjust="spacingAndGlyphs" textLength="170" x="26" y="66.8516">String getUserName()</text><ellipse cx="17" cy="80.9375" fill="#84BE84" rx="3" ry="3" style="stroke: #038048; stroke-width: 1.0;"/><text fill="#19273C" font-family="sans-serif" font-size="16" lengthAdjust="spacingAndGlyphs" textLength="176" x="26" y="85.4766">String getDescription()</text><ellipse cx="17" cy="99.5625" fill="#84BE84" rx="3" ry="3" style="stroke: #038048; stroke-width: 1.0;"/><text fill="#19273C" font-family="sans-serif" font-size="16" lengthAdjust="spacingAndGlyphs" textLength="269" x="26" y="104.1016">String getBusinessNetworkName()</text><ellipse cx="17" cy="118.1875" fill="#84BE84" rx="3" ry="3" style="stroke: #038048; stroke-width: 1.0;"/><text fill="#19273C" font-family="sans-serif" font-size="16" lengthAdjust="spacingAndGlyphs" textLength="228" x="26" y="122.7266">Object getConnectionProfile()</text><ellipse cx="17" cy="136.8125" fill="#84BE84" rx="3" ry="3" style="stroke: #038048; stroke-width: 1.0;"/><text fill="#19273C" font-family="sans-serif" font-size="16" lengthAdjust="spacingAndGlyphs" textLength="178" x="26" y="141.3516">Object getCredentials()</text><ellipse cx="17" cy="155.4375" fill="#84BE84" rx="3" ry="3" style="stroke: #038048; stroke-width: 1.0;"/><text fill="#19273C" font-family="sans-serif" font-size="16" lengthAdjust="spacingAndGlyphs" textLength="209" x="26" y="159.9766">void setCredentials(Object)</text><ellipse cx="17" cy="174.0625" fill="#84BE84" rx="3" ry="3" style="stroke: #038048; stroke-width: 1.0;"/><text fill="#19273C" font-family="sans-serif" font-size="16" lengthAdjust="spacingAndGlyphs" textLength="261" x="26" y="178.6016">Object getEnrollmentCredentials()</text><ellipse cx="17" cy="192.6875" fill="#84BE84" rx="3" ry="3" style="stroke: #038048; stroke-width: 1.0;"/><text fill="#19273C" font-family="sans-serif" font-size="16" lengthAdjust="spacingAndGlyphs" textLength="142" x="26" y="197.2266">String[] getRoles()</text><ellipse cx="17" cy="211.3125" fill="#84BE84" rx="3" ry="3" style="stroke: #038048; stroke-width: 1.0;"/><text fill="#19273C" font-family="sans-serif" font-size="16" lengthAdjust="spacingAndGlyphs" textLength="176" x="26" y="215.8516">Promise fromArchive()</text><ellipse cx="17" cy="229.9375" fill="#84BE84" rx="3" ry="3" style="stroke: #038048; stroke-width: 1.0;"/><text fill="#19273C" font-family="sans-serif" font-size="16" lengthAdjust="spacingAndGlyphs" textLength="255" x="26" y="234.4766">Promise toArchive(Object,String)</text></g></svg>