<?xml version="1.0" encoding="UTF-8" standalone="no"?><svg xmlns="http://www.w3.org/2000/svg" xmlns:xlink="http://www.w3.org/1999/xlink" contentScriptType="application/ecmascript" contentStyleType="text/css" height="221px" preserveAspectRatio="none" style="width:774px;height:221px;" version="1.1" viewBox="0 0 774 221" width="774px" zoomAndPan="magnify"><defs/><g><!--class Resource--><rect fill="#F8FAFA" height="85.25" rx="1" ry="1" style="stroke: #E3ECEC; stroke-width: 1.5;" width="190" x="6" y="17.5"/><ellipse cx="59.75" cy="33.5" fill="#FFFFFF" rx="11" ry="11" style="stroke: #E3ECEC; stroke-width: 1.0;"/><path d="M62.2031,39.1563 Q61.6563,39.4375 61.0547,39.5859 Q60.4531,39.7344 59.7813,39.7344 Q57.4219,39.7344 56.1797,38.1719 Q54.9375,36.6094 54.9375,33.6719 Q54.9375,30.7344 56.1797,29.1797 Q57.4219,27.625 59.7813,27.625 Q60.4531,27.625 61.0625,27.7656 Q61.6719,27.9063 62.2031,28.1875 L62.2031,30.75 Q61.6094,30.2031 61.0469,29.9453 Q60.4844,29.6875 59.8906,29.6875 Q58.625,29.6875 57.9844,30.6953 Q57.3438,31.7031 57.3438,33.6719 Q57.3438,35.6406 57.9844,36.6484 Q58.625,37.6563 59.8906,37.6563 Q60.4844,37.6563 61.0469,37.3984 Q61.6094,37.1406 62.2031,36.5938 L62.2031,39.1563 Z "/><text fill="#19273C" font-family="sans-serif" font-size="16" lengthAdjust="spacingAndGlyphs" textLength="74" x="80.25" y="39.0391">Resource</text><line style="stroke: #E3ECEC; stroke-width: 1.5;" x1="7" x2="195" y1="49.5" y2="49.5"/><line style="stroke: #E3ECEC; stroke-width: 1.5;" x1="7" x2="195" y1="57.5" y2="57.5"/><ellipse cx="17" cy="71.8125" fill="#84BE84" rx="3" ry="3" style="stroke: #038048; stroke-width: 1.0;"/><text fill="#19273C" font-family="sans-serif" font-size="16" lengthAdjust="spacingAndGlyphs" textLength="125" x="26" y="76.3516">String toString()</text><ellipse cx="17" cy="90.4375" fill="#84BE84" rx="3" ry="3" style="stroke: #038048; stroke-width: 1.0;"/><text fill="#19273C" font-family="sans-serif" font-size="16" lengthAdjust="spacingAndGlyphs" textLength="164" x="26" y="94.9766">boolean isResource()</text><!--class Identifiable--><rect fill="#F8FAFA" height="48" rx="1" ry="1" style="stroke: #E3ECEC; stroke-width: 1.5;" width="115" x="43.75" y="172"/><ellipse cx="58.75" cy="188" fill="#FFFFFF" rx="11" ry="11" style="stroke: #E3ECEC; stroke-width: 1.0;"/><path d="M61.2031,193.6563 Q60.6563,193.9375 60.0547,194.0859 Q59.4531,194.2344 58.7813,194.2344 Q56.4219,194.2344 55.1797,192.6719 Q53.9375,191.1094 53.9375,188.1719 Q53.9375,185.2344 55.1797,183.6797 Q56.4219,182.125 58.7813,182.125 Q59.4531,182.125 60.0625,182.2656 Q60.6719,182.4063 61.2031,182.6875 L61.2031,185.25 Q60.6094,184.7031 60.0469,184.4453 Q59.4844,184.1875 58.8906,184.1875 Q57.625,184.1875 56.9844,185.1953 Q56.3438,186.2031 56.3438,188.1719 Q56.3438,190.1406 56.9844,191.1484 Q57.625,192.1563 58.8906,192.1563 Q59.4844,192.1563 60.0469,191.8984 Q60.6094,191.6406 61.2031,191.0938 L61.2031,193.6563 Z "/><text fill="#19273C" font-family="sans-serif" font-size="16" lengthAdjust="spacingAndGlyphs" textLength="83" x="72.75" y="193.5391">Identifiable</text><line style="stroke: #E3ECEC; stroke-width: 1.5;" x1="44.75" x2="157.75" y1="204" y2="204"/><line style="stroke: #E3ECEC; stroke-width: 1.5;" x1="44.75" x2="157.75" y1="212" y2="212"/><!--class Serializer--><rect fill="#F8FAFA" height="103.875" rx="1" ry="1" style="stroke: #E3ECEC; stroke-width: 1.5;" width="542" x="231" y="8"/><ellipse cx="463.25" cy="24" fill="#FFFFFF" rx="11" ry="11" style="stroke: #E3ECEC; stroke-width: 1.0;"/><path d="M465.7031,29.6563 Q465.1563,29.9375 464.5547,30.0859 Q463.9531,30.2344 463.2813,30.2344 Q460.9219,30.2344 459.6797,28.6719 Q458.4375,27.1094 458.4375,24.1719 Q458.4375,21.2344 459.6797,19.6797 Q460.9219,18.125 463.2813,18.125 Q463.9531,18.125 464.5625,18.2656 Q465.1719,18.4063 465.7031,18.6875 L465.7031,21.25 Q465.1094,20.7031 464.5469,20.4453 Q463.9844,20.1875 463.3906,20.1875 Q462.125,20.1875 461.4844,21.1953 Q460.8438,22.2031 460.8438,24.1719 Q460.8438,26.1406 461.4844,27.1484 Q462.125,28.1563 463.3906,28.1563 Q463.9844,28.1563 464.5469,27.8984 Q465.1094,27.6406 465.7031,27.0938 L465.7031,29.6563 Z "/><text fill="#19273C" font-family="sans-serif" font-size="16" lengthAdjust="spacingAndGlyphs" textLength="69" x="483.75" y="29.5391">Serializer</text><line style="stroke: #E3ECEC; stroke-width: 1.5;" x1="232" x2="772" y1="40" y2="40"/><line style="stroke: #E3ECEC; stroke-width: 1.5;" x1="232" x2="772" y1="48" y2="48"/><ellipse cx="242" cy="62.3125" fill="#84BE84" rx="3" ry="3" style="stroke: #038048; stroke-width: 1.0;"/><text fill="#19273C" font-family="sans-serif" font-size="16" lengthAdjust="spacingAndGlyphs" textLength="318" x="251" y="66.8516">void constructor(Factory,ModelManager)</text><ellipse cx="242" cy="80.9375" fill="#84BE84" rx="3" ry="3" style="stroke: #038048; stroke-width: 1.0;"/><text fill="#19273C" font-family="sans-serif" font-size="16" lengthAdjust="spacingAndGlyphs" textLength="516" x="251" y="85.4766">Object toJSON(Resource,Object,boolean,boolean,boolean,boolean)</text><ellipse cx="242" cy="99.5625" fill="#84BE84" rx="3" ry="3" style="stroke: #038048; stroke-width: 1.0;"/><text fill="#19273C" font-family="sans-serif" font-size="16" lengthAdjust="spacingAndGlyphs" textLength="406" x="251" y="104.1016">Resource fromJSON(Object,Object,boolean,boolean)</text><path d="M101,102.664 C101,118.21 101,135.8894 101,151.5885 " fill="none" style="stroke: #3C6DF0; stroke-width: 1.0;"/><polygon fill="none" points="108,151.7069,101,171.7068,94.0001,151.7068,108,151.7069" style="stroke: #3C6DF0; stroke-width: 1.0;"/></g></svg>