<?xml version="1.0" encoding="UTF-8" standalone="no"?><svg xmlns="http://www.w3.org/2000/svg" xmlns:xlink="http://www.w3.org/1999/xlink" contentScriptType="application/ecmascript" contentStyleType="text/css" height="154px" preserveAspectRatio="none" style="width:427px;height:154px;" version="1.1" viewBox="0 0 427 154" width="427px" zoomAndPan="magnify"><defs><filter height="300%" id="f69g772" width="300%" x="-1" y="-1"><feGaussianBlur result="blurOut" stdDeviation="2.0"/><feColorMatrix in="blurOut" result="blurOut2" type="matrix" values="0 0 0 0 0 0 0 0 0 0 0 0 0 0 0 0 0 0 .4 0"/><feOffset dx="4.0" dy="4.0" in="blurOut2" result="blurOut3"/><feBlend in="SourceGraphic" in2="blurOut3" mode="normal"/></filter></defs><g><!--class Factory--><rect fill="#FEFECE" filter="url(#f69g772)" height="137.6328" style="stroke: #A80036; stroke-width: 1.5;" width="412" x="6" y="8"/><ellipse cx="184.75" cy="24" fill="#ADD1B2" rx="11" ry="11" style="stroke: #A80036; stroke-width: 1.0;"/><path d="M187.7188,29.6406 Q187.1406,29.9375 186.5,30.0859 Q185.8594,30.2344 185.1563,30.2344 Q182.6563,30.2344 181.3359,28.5859 Q180.0156,26.9375 180.0156,23.8125 Q180.0156,20.6875 181.3359,19.0313 Q182.6563,17.375 185.1563,17.375 Q185.8594,17.375 186.5078,17.5313 Q187.1563,17.6875 187.7188,17.9844 L187.7188,20.7031 Q187.0938,20.125 186.5,19.8516 Q185.9063,19.5781 185.2813,19.5781 Q183.9375,19.5781 183.25,20.6484 Q182.5625,21.7188 182.5625,23.8125 Q182.5625,25.9063 183.25,26.9766 Q183.9375,28.0469 185.2813,28.0469 Q185.9063,28.0469 186.5,27.7734 Q187.0938,27.5 187.7188,26.9219 L187.7188,29.6406 Z "/><text fill="#000000" font-family="sans-serif" font-size="12" lengthAdjust="spacingAndGlyphs" textLength="46" x="205.25" y="28.1543">Factory</text><line style="stroke: #A80036; stroke-width: 1.5;" x1="7" x2="417" y1="40" y2="40"/><line style="stroke: #A80036; stroke-width: 1.5;" x1="7" x2="417" y1="48" y2="48"/><ellipse cx="17" cy="59.9023" fill="#84BE84" rx="3" ry="3" style="stroke: #038048; stroke-width: 1.0;"/><text fill="#000000" font-family="sans-serif" font-size="11" lengthAdjust="spacingAndGlyphs" textLength="182" x="26" y="62.2104">void constructor(ModelManager)</text><ellipse cx="17" cy="72.707" fill="#84BE84" rx="3" ry="3" style="stroke: #038048; stroke-width: 1.0;"/><text fill="#000000" font-family="sans-serif" font-size="11" lengthAdjust="spacingAndGlyphs" textLength="381" x="26" y="75.0151">Resource newInstance(string,string,string,Object,boolean,boolean)</text><ellipse cx="17" cy="85.5117" fill="#84BE84" rx="3" ry="3" style="stroke: #038048; stroke-width: 1.0;"/><text fill="#000000" font-family="sans-serif" font-size="11" lengthAdjust="spacingAndGlyphs" textLength="386" x="26" y="87.8198">Resource newResource(string,string,string,Object,boolean,boolean)</text><ellipse cx="17" cy="98.3164" fill="#84BE84" rx="3" ry="3" style="stroke: #038048; stroke-width: 1.0;"/><text fill="#000000" font-family="sans-serif" font-size="11" lengthAdjust="spacingAndGlyphs" textLength="342" x="26" y="100.6245">Resource newConcept(string,string,Object,boolean,boolean)</text><ellipse cx="17" cy="111.1211" fill="#84BE84" rx="3" ry="3" style="stroke: #038048; stroke-width: 1.0;"/><text fill="#000000" font-family="sans-serif" font-size="11" lengthAdjust="spacingAndGlyphs" textLength="280" x="26" y="113.4292">Relationship newRelationship(string,string,string)</text><ellipse cx="17" cy="123.9258" fill="#84BE84" rx="3" ry="3" style="stroke: #038048; stroke-width: 1.0;"/><text fill="#000000" font-family="sans-serif" font-size="11" lengthAdjust="spacingAndGlyphs" textLength="351" x="26" y="126.2339">Resource newTransaction(string,string,string,Object,boolean)</text><ellipse cx="17" cy="136.7305" fill="#84BE84" rx="3" ry="3" style="stroke: #038048; stroke-width: 1.0;"/><text fill="#000000" font-family="sans-serif" font-size="11" lengthAdjust="spacingAndGlyphs" textLength="87" x="26" y="139.0386">Object toJSON()</text></g></svg>