<?xml version="1.0" encoding="UTF-8" standalone="no"?><svg xmlns="http://www.w3.org/2000/svg" xmlns:xlink="http://www.w3.org/1999/xlink" contentScriptType="application/ecmascript" contentStyleType="text/css" height="262px" preserveAspectRatio="none" style="width:629px;height:262px;" version="1.1" viewBox="0 0 629 262" width="629px" zoomAndPan="magnify"><defs/><g><!--class BusinessNetworkDefinition--><rect fill="#F8FAFA" height="252.875" rx="1" ry="1" style="stroke: #E3ECEC; stroke-width: 1.5;" width="622" x="6" y="8.5"/><ellipse cx="208.75" cy="24.5" fill="#FFFFFF" rx="11" ry="11" style="stroke: #E3ECEC; stroke-width: 1.0;"/><path d="M211.2031,30.1563 Q210.6563,30.4375 210.0547,30.5859 Q209.4531,30.7344 208.7813,30.7344 Q206.4219,30.7344 205.1797,29.1719 Q203.9375,27.6094 203.9375,24.6719 Q203.9375,21.7344 205.1797,20.1797 Q206.4219,18.625 208.7813,18.625 Q209.4531,18.625 210.0625,18.7656 Q210.6719,18.9063 211.2031,19.1875 L211.2031,21.75 Q210.6094,21.2031 210.0469,20.9453 Q209.4844,20.6875 208.8906,20.6875 Q207.625,20.6875 206.9844,21.6953 Q206.3438,22.7031 206.3438,24.6719 Q206.3438,26.6406 206.9844,27.6484 Q207.625,28.6563 208.8906,28.6563 Q209.4844,28.6563 210.0469,28.3984 Q210.6094,28.1406 211.2031,27.5938 L211.2031,30.1563 Z "/><text fill="#19273C" font-family="sans-serif" font-size="16" lengthAdjust="spacingAndGlyphs" textLength="208" x="229.25" y="30.0391">BusinessNetworkDefinition</text><line style="stroke: #E3ECEC; stroke-width: 1.5;" x1="7" x2="627" y1="40.5" y2="40.5"/><line style="stroke: #E3ECEC; stroke-width: 1.5;" x1="7" x2="627" y1="48.5" y2="48.5"/><ellipse cx="17" cy="62.8125" fill="#84BE84" rx="3" ry="3" style="stroke: #038048; stroke-width: 1.0;"/><text fill="#19273C" font-family="sans-serif" font-size="16" lengthAdjust="spacingAndGlyphs" textLength="156" x="26" y="67.3516">String getIdentifier()</text><ellipse cx="17" cy="81.4375" fill="#84BE84" rx="3" ry="3" style="stroke: #038048; stroke-width: 1.0;"/><text fill="#19273C" font-family="sans-serif" font-size="16" lengthAdjust="spacingAndGlyphs" textLength="320" x="26" y="85.9766">BusinessNetworkMetadata getMetadata()</text><ellipse cx="17" cy="100.0625" fill="#84BE84" rx="3" ry="3" style="stroke: #038048; stroke-width: 1.0;"/><text fill="#19273C" font-family="sans-serif" font-size="16" lengthAdjust="spacingAndGlyphs" textLength="133" x="26" y="104.6016">String getName()</text><ellipse cx="17" cy="118.6875" fill="#84BE84" rx="3" ry="3" style="stroke: #038048; stroke-width: 1.0;"/><text fill="#19273C" font-family="sans-serif" font-size="16" lengthAdjust="spacingAndGlyphs" textLength="147" x="26" y="123.2266">String getVersion()</text><ellipse cx="17" cy="137.3125" fill="#84BE84" rx="3" ry="3" style="stroke: #038048; stroke-width: 1.0;"/><text fill="#19273C" font-family="sans-serif" font-size="16" lengthAdjust="spacingAndGlyphs" textLength="176" x="26" y="141.8516">String getDescription()</text><ellipse cx="17" cy="155.9375" fill="#84BE84" rx="3" ry="3" style="stroke: #038048; stroke-width: 1.0;"/><text fill="#19273C" font-family="sans-serif" font-size="16" lengthAdjust="spacingAndGlyphs" textLength="225" x="26" y="160.4766">Promise fromArchive(Buffer)</text><ellipse cx="17" cy="174.5625" fill="#84BE84" rx="3" ry="3" style="stroke: #038048; stroke-width: 1.0;"/><text fill="#19273C" font-family="sans-serif" font-size="16" lengthAdjust="spacingAndGlyphs" textLength="190" x="26" y="179.1016">Buffer toArchive(Object)</text><ellipse cx="17" cy="193.1875" fill="#84BE84" rx="3" ry="3" style="stroke: #038048; stroke-width: 1.0;"/><text fill="#19273C" font-family="sans-serif" font-size="16" lengthAdjust="spacingAndGlyphs" textLength="596" x="26" y="197.7266">Promise fromDirectory(String,Object,Object,boolean,boolean,boolean,object)</text><ellipse cx="17" cy="211.8125" fill="#84BE84" rx="3" ry="3" style="stroke: #038048; stroke-width: 1.0;"/><text fill="#19273C" font-family="sans-serif" font-size="16" lengthAdjust="spacingAndGlyphs" textLength="238" x="26" y="216.3516">Introspector getIntrospector()</text><ellipse cx="17" cy="230.4375" fill="#84BE84" rx="3" ry="3" style="stroke: #038048; stroke-width: 1.0;"/><text fill="#19273C" font-family="sans-serif" font-size="16" lengthAdjust="spacingAndGlyphs" textLength="160" x="26" y="234.9766">Factory getFactory()</text><ellipse cx="17" cy="249.0625" fill="#84BE84" rx="3" ry="3" style="stroke: #038048; stroke-width: 1.0;"/><text fill="#19273C" font-family="sans-serif" font-size="16" lengthAdjust="spacingAndGlyphs" textLength="180" x="26" y="253.6016">Serializer getSerializer()</text></g></svg>