<?xml version="1.0" encoding="UTF-8" standalone="no"?><svg xmlns="http://www.w3.org/2000/svg" xmlns:xlink="http://www.w3.org/1999/xlink" contentScriptType="application/ecmascript" contentStyleType="text/css" height="463px" preserveAspectRatio="none" style="width:1196px;height:463px;" version="1.1" viewBox="0 0 1196 463" width="1196px" zoomAndPan="magnify"><defs/><g><!--class AssetRegistry--><rect fill="#F8FAFA" height="141.125" rx="1" ry="1" style="stroke: #E3ECEC; stroke-width: 1.5;" width="723" x="6" y="110.5"/><ellipse cx="309.25" cy="126.5" fill="#FFFFFF" rx="11" ry="11" style="stroke: #E3ECEC; stroke-width: 1.0;"/><path d="M311.7031,132.1563 Q311.1563,132.4375 310.5547,132.5859 Q309.9531,132.7344 309.2813,132.7344 Q306.9219,132.7344 305.6797,131.1719 Q304.4375,129.6094 304.4375,126.6719 Q304.4375,123.7344 305.6797,122.1797 Q306.9219,120.625 309.2813,120.625 Q309.9531,120.625 310.5625,120.7656 Q311.1719,120.9063 311.7031,121.1875 L311.7031,123.75 Q311.1094,123.2031 310.5469,122.9453 Q309.9844,122.6875 309.3906,122.6875 Q308.125,122.6875 307.4844,123.6953 Q306.8438,124.7031 306.8438,126.6719 Q306.8438,128.6406 307.4844,129.6484 Q308.125,130.6563 309.3906,130.6563 Q309.9844,130.6563 310.5469,130.3984 Q311.1094,130.1406 311.7031,129.5938 L311.7031,132.1563 Z "/><text fill="#19273C" font-family="sans-serif" font-size="16" lengthAdjust="spacingAndGlyphs" textLength="108" x="329.75" y="132.0391">AssetRegistry</text><line style="stroke: #E3ECEC; stroke-width: 1.5;" x1="7" x2="728" y1="142.5" y2="142.5"/><line style="stroke: #E3ECEC; stroke-width: 1.5;" x1="7" x2="728" y1="150.5" y2="150.5"/><ellipse cx="17" cy="164.8125" fill="#84BE84" rx="3" ry="3" style="stroke: #038048; stroke-width: 1.0;"/><text fill="#19273C" font-family="sans-serif" font-size="16" lengthAdjust="spacingAndGlyphs" textLength="622" x="26" y="169.3516">Promise getAllAssetRegistries(SecurityContext,ModelManager,Factory,Serializer)</text><ellipse cx="17" cy="183.4375" fill="#84BE84" rx="3" ry="3" style="stroke: #038048; stroke-width: 1.0;"/><text fill="#19273C" font-family="sans-serif" font-size="16" lengthAdjust="spacingAndGlyphs" textLength="643" x="26" y="187.9766">Promise getAssetRegistry(SecurityContext,string,ModelManager,Factory,Serializer)</text><ellipse cx="17" cy="202.0625" fill="#84BE84" rx="3" ry="3" style="stroke: #038048; stroke-width: 1.0;"/><text fill="#19273C" font-family="sans-serif" font-size="16" lengthAdjust="spacingAndGlyphs" textLength="664" x="26" y="206.6016">Promise existsAssetRegistry(SecurityContext,string,ModelManager,Factory,Serializer)</text><ellipse cx="17" cy="220.6875" fill="#84BE84" rx="3" ry="3" style="stroke: #038048; stroke-width: 1.0;"/><text fill="#19273C" font-family="sans-serif" font-size="16" lengthAdjust="spacingAndGlyphs" textLength="697" x="26" y="225.2266">Promise addAssetRegistry(SecurityContext,string,string,ModelManager,Factory,Serializer)</text><ellipse cx="17" cy="239.3125" fill="#84BE84" rx="3" ry="3" style="stroke: #038048; stroke-width: 1.0;"/><text fill="#19273C" font-family="sans-serif" font-size="16" lengthAdjust="spacingAndGlyphs" textLength="622" x="26" y="243.8516">void constructor(string,string,SecurityContext,ModelManager,Factory,Serializer)</text><!--class Registry--><rect fill="#F8FAFA" height="48" rx="1" ry="1" style="stroke: #E3ECEC; stroke-width: 1.5;" width="96" x="319.25" y="414"/><ellipse cx="334.25" cy="430" fill="#FFFFFF" rx="11" ry="11" style="stroke: #E3ECEC; stroke-width: 1.0;"/><path d="M336.7031,435.6563 Q336.1563,435.9375 335.5547,436.0859 Q334.9531,436.2344 334.2813,436.2344 Q331.9219,436.2344 330.6797,434.6719 Q329.4375,433.1094 329.4375,430.1719 Q329.4375,427.2344 330.6797,425.6797 Q331.9219,424.125 334.2813,424.125 Q334.9531,424.125 335.5625,424.2656 Q336.1719,424.4063 336.7031,424.6875 L336.7031,427.25 Q336.1094,426.7031 335.5469,426.4453 Q334.9844,426.1875 334.3906,426.1875 Q333.125,426.1875 332.4844,427.1953 Q331.8438,428.2031 331.8438,430.1719 Q331.8438,432.1406 332.4844,433.1484 Q333.125,434.1563 334.3906,434.1563 Q334.9844,434.1563 335.5469,433.8984 Q336.1094,433.6406 336.7031,433.0938 L336.7031,435.6563 Z "/><text fill="#19273C" font-family="sans-serif" font-size="16" lengthAdjust="spacingAndGlyphs" textLength="64" x="348.25" y="435.5391">Registry</text><line style="stroke: #E3ECEC; stroke-width: 1.5;" x1="320.25" x2="414.25" y1="446" y2="446"/><line style="stroke: #E3ECEC; stroke-width: 1.5;" x1="320.25" x2="414.25" y1="454" y2="454"/><!--class BusinessNetworkConnection--><rect fill="#F8FAFA" height="346" rx="1" ry="1" style="stroke: #E3ECEC; stroke-width: 1.5;" width="431" x="764" y="8"/><ellipse cx="863.25" cy="24" fill="#FFFFFF" rx="11" ry="11" style="stroke: #E3ECEC; stroke-width: 1.0;"/><path d="M865.7031,29.6563 Q865.1563,29.9375 864.5547,30.0859 Q863.9531,30.2344 863.2813,30.2344 Q860.9219,30.2344 859.6797,28.6719 Q858.4375,27.1094 858.4375,24.1719 Q858.4375,21.2344 859.6797,19.6797 Q860.9219,18.125 863.2813,18.125 Q863.9531,18.125 864.5625,18.2656 Q865.1719,18.4063 865.7031,18.6875 L865.7031,21.25 Q865.1094,20.7031 864.5469,20.4453 Q863.9844,20.1875 863.3906,20.1875 Q862.125,20.1875 861.4844,21.1953 Q860.8438,22.2031 860.8438,24.1719 Q860.8438,26.1406 861.4844,27.1484 Q862.125,28.1563 863.3906,28.1563 Q863.9844,28.1563 864.5469,27.8984 Q865.1094,27.6406 865.7031,27.0938 L865.7031,29.6563 Z "/><text fill="#19273C" font-family="sans-serif" font-size="16" lengthAdjust="spacingAndGlyphs" textLength="224" x="883.75" y="29.5391">BusinessNetworkConnection</text><line style="stroke: #E3ECEC; stroke-width: 1.5;" x1="765" x2="1194" y1="40" y2="40"/><line style="stroke: #E3ECEC; stroke-width: 1.5;" x1="765" x2="1194" y1="48" y2="48"/><ellipse cx="775" cy="62.3125" fill="#84BE84" rx="3" ry="3" style="stroke: #038048; stroke-width: 1.0;"/><text fill="#19273C" font-family="sans-serif" font-size="16" lengthAdjust="spacingAndGlyphs" textLength="313" x="784" y="66.8516">void constructor(Object,Object,boolean)</text><ellipse cx="775" cy="80.9375" fill="#84BE84" rx="3" ry="3" style="stroke: #038048; stroke-width: 1.0;"/><text fill="#19273C" font-family="sans-serif" font-size="16" lengthAdjust="spacingAndGlyphs" textLength="386" x="784" y="85.4766">BusinessNetworkDefinition getBusinessNetwork()</text><ellipse cx="775" cy="99.5625" fill="#84BE84" rx="3" ry="3" style="stroke: #038048; stroke-width: 1.0;"/><text fill="#19273C" font-family="sans-serif" font-size="16" lengthAdjust="spacingAndGlyphs" textLength="367" x="784" y="104.1016">Promise getAllAssetRegistries(SecurityContext)</text><ellipse cx="775" cy="118.1875" fill="#84BE84" rx="3" ry="3" style="stroke: #038048; stroke-width: 1.0;"/><text fill="#19273C" font-family="sans-serif" font-size="16" lengthAdjust="spacingAndGlyphs" textLength="258" x="784" y="122.7266">Promise getAssetRegistry(string)</text><ellipse cx="775" cy="136.8125" fill="#84BE84" rx="3" ry="3" style="stroke: #038048; stroke-width: 1.0;"/><text fill="#19273C" font-family="sans-serif" font-size="16" lengthAdjust="spacingAndGlyphs" textLength="279" x="784" y="141.3516">Promise existsAssetRegistry(string)</text><ellipse cx="775" cy="155.4375" fill="#84BE84" rx="3" ry="3" style="stroke: #038048; stroke-width: 1.0;"/><text fill="#19273C" font-family="sans-serif" font-size="16" lengthAdjust="spacingAndGlyphs" textLength="312" x="784" y="159.9766">Promise addAssetRegistry(string,string)</text><ellipse cx="775" cy="174.0625" fill="#84BE84" rx="3" ry="3" style="stroke: #038048; stroke-width: 1.0;"/><text fill="#19273C" font-family="sans-serif" font-size="16" lengthAdjust="spacingAndGlyphs" textLength="405" x="784" y="178.6016">Promise getAllParticipantRegistries(SecurityContext)</text><ellipse cx="775" cy="192.6875" fill="#84BE84" rx="3" ry="3" style="stroke: #038048; stroke-width: 1.0;"/><text fill="#19273C" font-family="sans-serif" font-size="16" lengthAdjust="spacingAndGlyphs" textLength="296" x="784" y="197.2266">Promise getParticipantRegistry(string)</text><ellipse cx="775" cy="211.3125" fill="#84BE84" rx="3" ry="3" style="stroke: #038048; stroke-width: 1.0;"/><text fill="#19273C" font-family="sans-serif" font-size="16" lengthAdjust="spacingAndGlyphs" textLength="350" x="784" y="215.8516">Promise addParticipantRegistry(string,string)</text><ellipse cx="775" cy="229.9375" fill="#84BE84" rx="3" ry="3" style="stroke: #038048; stroke-width: 1.0;"/><text fill="#19273C" font-family="sans-serif" font-size="16" lengthAdjust="spacingAndGlyphs" textLength="260" x="784" y="234.4766">Promise getTransactionRegistry()</text><ellipse cx="775" cy="248.5625" fill="#84BE84" rx="3" ry="3" style="stroke: #038048; stroke-width: 1.0;"/><text fill="#19273C" font-family="sans-serif" font-size="16" lengthAdjust="spacingAndGlyphs" textLength="393" x="784" y="253.1016">Promise connect(string,string,string,string,Object)</text><ellipse cx="775" cy="267.1875" fill="#84BE84" rx="3" ry="3" style="stroke: #038048; stroke-width: 1.0;"/><text fill="#19273C" font-family="sans-serif" font-size="16" lengthAdjust="spacingAndGlyphs" textLength="165" x="784" y="271.7266">Promise disconnect()</text><ellipse cx="775" cy="285.8125" fill="#84BE84" rx="3" ry="3" style="stroke: #038048; stroke-width: 1.0;"/><text fill="#19273C" font-family="sans-serif" font-size="16" lengthAdjust="spacingAndGlyphs" textLength="298" x="784" y="290.3516">Promise submitTransaction(Resource)</text><ellipse cx="775" cy="304.4375" fill="#84BE84" rx="3" ry="3" style="stroke: #038048; stroke-width: 1.0;"/><text fill="#19273C" font-family="sans-serif" font-size="16" lengthAdjust="spacingAndGlyphs" textLength="113" x="784" y="308.9766">Promise ping()</text><ellipse cx="775" cy="323.0625" fill="#84BE84" rx="3" ry="3" style="stroke: #038048; stroke-width: 1.0;"/><text fill="#19273C" font-family="sans-serif" font-size="16" lengthAdjust="spacingAndGlyphs" textLength="341" x="784" y="327.6016">Promise issueIdentity(string,object,boolean)</text><ellipse cx="775" cy="341.6875" fill="#84BE84" rx="3" ry="3" style="stroke: #038048; stroke-width: 1.0;"/><text fill="#19273C" font-family="sans-serif" font-size="16" lengthAdjust="spacingAndGlyphs" textLength="236" x="784" y="346.2266">Promise revokeIdentity(string)</text><!--class EventEmitter--><rect fill="#F8FAFA" height="48" rx="1" ry="1" style="stroke: #E3ECEC; stroke-width: 1.5;" width="132" x="913.25" y="414"/><ellipse cx="928.25" cy="430" fill="#FFFFFF" rx="11" ry="11" style="stroke: #E3ECEC; stroke-width: 1.0;"/><path d="M930.7031,435.6563 Q930.1563,435.9375 929.5547,436.0859 Q928.9531,436.2344 928.2813,436.2344 Q925.9219,436.2344 924.6797,434.6719 Q923.4375,433.1094 923.4375,430.1719 Q923.4375,427.2344 924.6797,425.6797 Q925.9219,424.125 928.2813,424.125 Q928.9531,424.125 929.5625,424.2656 Q930.1719,424.4063 930.7031,424.6875 L930.7031,427.25 Q930.1094,426.7031 929.5469,426.4453 Q928.9844,426.1875 928.3906,426.1875 Q927.125,426.1875 926.4844,427.1953 Q925.8438,428.2031 925.8438,430.1719 Q925.8438,432.1406 926.4844,433.1484 Q927.125,434.1563 928.3906,434.1563 Q928.9844,434.1563 929.5469,433.8984 Q930.1094,433.6406 930.7031,433.0938 L930.7031,435.6563 Z "/><text fill="#19273C" font-family="sans-serif" font-size="16" lengthAdjust="spacingAndGlyphs" textLength="100" x="942.25" y="435.5391">EventEmitter</text><line style="stroke: #E3ECEC; stroke-width: 1.5;" x1="914.25" x2="1044.25" y1="446" y2="446"/><line style="stroke: #E3ECEC; stroke-width: 1.5;" x1="914.25" x2="1044.25" y1="454" y2="454"/><path d="M367.25,251.68 C367.25,297.025 367.25,354.75 367.25,393.6276 " fill="none" style="stroke: #3C6DF0; stroke-width: 1.0;"/><polygon fill="none" points="374.25,393.8501,367.25,413.8501,360.25,393.8501,374.25,393.8501" style="stroke: #3C6DF0; stroke-width: 1.0;"/><path d="M979.25,354.209 C979.25,368.4913 979.25,381.9168 979.25,393.631 " fill="none" style="stroke: #3C6DF0; stroke-width: 1.0;"/><polygon fill="none" points="986.25,393.8236,979.25,413.8236,972.25,393.8236,986.25,393.8236" style="stroke: #3C6DF0; stroke-width: 1.0;"/></g></svg>