<?xml version="1.0" encoding="UTF-8" standalone="no"?><svg xmlns="http://www.w3.org/2000/svg" xmlns:xlink="http://www.w3.org/1999/xlink" contentScriptType="application/ecmascript" contentStyleType="text/css" height="631px" preserveAspectRatio="none" style="width:1450px;height:631px;" version="1.1" viewBox="0 0 1450 631" width="1450px" zoomAndPan="magnify"><defs/><g><!--class AssetRegistry--><rect fill="#F8FAFA" height="141.125" rx="1" ry="1" style="stroke: #E3ECEC; stroke-width: 1.5;" width="952" x="6" y="194.5"/><ellipse cx="423.75" cy="210.5" fill="#FFFFFF" rx="11" ry="11" style="stroke: #E3ECEC; stroke-width: 1.0;"/><path d="M426.2031,216.1563 Q425.6563,216.4375 425.0547,216.5859 Q424.4531,216.7344 423.7813,216.7344 Q421.4219,216.7344 420.1797,215.1719 Q418.9375,213.6094 418.9375,210.6719 Q418.9375,207.7344 420.1797,206.1797 Q421.4219,204.625 423.7813,204.625 Q424.4531,204.625 425.0625,204.7656 Q425.6719,204.9063 426.2031,205.1875 L426.2031,207.75 Q425.6094,207.2031 425.0469,206.9453 Q424.4844,206.6875 423.8906,206.6875 Q422.625,206.6875 421.9844,207.6953 Q421.3438,208.7031 421.3438,210.6719 Q421.3438,212.6406 421.9844,213.6484 Q422.625,214.6563 423.8906,214.6563 Q424.4844,214.6563 425.0469,214.3984 Q425.6094,214.1406 426.2031,213.5938 L426.2031,216.1563 Z "/><text fill="#19273C" font-family="sans-serif" font-size="16" lengthAdjust="spacingAndGlyphs" textLength="108" x="444.25" y="216.0391">AssetRegistry</text><line style="stroke: #E3ECEC; stroke-width: 1.5;" x1="7" x2="957" y1="226.5" y2="226.5"/><line style="stroke: #E3ECEC; stroke-width: 1.5;" x1="7" x2="957" y1="234.5" y2="234.5"/><ellipse cx="17" cy="248.8125" fill="#84BE84" rx="3" ry="3" style="stroke: #038048; stroke-width: 1.0;"/><text fill="#19273C" font-family="sans-serif" font-size="16" lengthAdjust="spacingAndGlyphs" textLength="918" x="26" y="253.3516">Promise getAllAssetRegistries(SecurityContext,ModelManager,Factory,Serializer,BusinessNetworkConnection,Boolean)</text><ellipse cx="17" cy="267.4375" fill="#84BE84" rx="3" ry="3" style="stroke: #038048; stroke-width: 1.0;"/><text fill="#19273C" font-family="sans-serif" font-size="16" lengthAdjust="spacingAndGlyphs" textLength="872" x="26" y="271.9766">Promise getAssetRegistry(SecurityContext,string,ModelManager,Factory,Serializer,BusinessNetworkConnection)</text><ellipse cx="17" cy="286.0625" fill="#84BE84" rx="3" ry="3" style="stroke: #038048; stroke-width: 1.0;"/><text fill="#19273C" font-family="sans-serif" font-size="16" lengthAdjust="spacingAndGlyphs" textLength="663" x="26" y="290.6016">Promise assetRegistryExists(SecurityContext,string,ModelManager,Factory,Serializer)</text><ellipse cx="17" cy="304.6875" fill="#84BE84" rx="3" ry="3" style="stroke: #038048; stroke-width: 1.0;"/><text fill="#19273C" font-family="sans-serif" font-size="16" lengthAdjust="spacingAndGlyphs" textLength="926" x="26" y="309.2266">Promise addAssetRegistry(SecurityContext,string,string,ModelManager,Factory,Serializer,BusinessNetworkConnection)</text><ellipse cx="17" cy="323.3125" fill="#84BE84" rx="3" ry="3" style="stroke: #038048; stroke-width: 1.0;"/><text fill="#19273C" font-family="sans-serif" font-size="16" lengthAdjust="spacingAndGlyphs" textLength="851" x="26" y="327.8516">void constructor(string,string,SecurityContext,ModelManager,Factory,Serializer,BusinessNetworkConnection)</text><!--class Registry--><rect fill="#F8FAFA" height="48" rx="1" ry="1" style="stroke: #E3ECEC; stroke-width: 1.5;" width="96" x="434" y="582"/><ellipse cx="449" cy="598" fill="#FFFFFF" rx="11" ry="11" style="stroke: #E3ECEC; stroke-width: 1.0;"/><path d="M451.4531,603.6563 Q450.9063,603.9375 450.3047,604.0859 Q449.7031,604.2344 449.0313,604.2344 Q446.6719,604.2344 445.4297,602.6719 Q444.1875,601.1094 444.1875,598.1719 Q444.1875,595.2344 445.4297,593.6797 Q446.6719,592.125 449.0313,592.125 Q449.7031,592.125 450.3125,592.2656 Q450.9219,592.4063 451.4531,592.6875 L451.4531,595.25 Q450.8594,594.7031 450.2969,594.4453 Q449.7344,594.1875 449.1406,594.1875 Q447.875,594.1875 447.2344,595.1953 Q446.5938,596.2031 446.5938,598.1719 Q446.5938,600.1406 447.2344,601.1484 Q447.875,602.1563 449.1406,602.1563 Q449.7344,602.1563 450.2969,601.8984 Q450.8594,601.6406 451.4531,601.0938 L451.4531,603.6563 Z "/><text fill="#19273C" font-family="sans-serif" font-size="16" lengthAdjust="spacingAndGlyphs" textLength="64" x="463" y="603.5391">Registry</text><line style="stroke: #E3ECEC; stroke-width: 1.5;" x1="435" x2="529" y1="614" y2="614"/><line style="stroke: #E3ECEC; stroke-width: 1.5;" x1="435" x2="529" y1="622" y2="622"/><!--class BusinessNetworkConnection--><rect fill="#F8FAFA" height="513.625" rx="1" ry="1" style="stroke: #E3ECEC; stroke-width: 1.5;" width="456" x="993" y="8"/><ellipse cx="1104.75" cy="24" fill="#FFFFFF" rx="11" ry="11" style="stroke: #E3ECEC; stroke-width: 1.0;"/><path d="M1107.2031,29.6563 Q1106.6563,29.9375 1106.0547,30.0859 Q1105.4531,30.2344 1104.7813,30.2344 Q1102.4219,30.2344 1101.1797,28.6719 Q1099.9375,27.1094 1099.9375,24.1719 Q1099.9375,21.2344 1101.1797,19.6797 Q1102.4219,18.125 1104.7813,18.125 Q1105.4531,18.125 1106.0625,18.2656 Q1106.6719,18.4063 1107.2031,18.6875 L1107.2031,21.25 Q1106.6094,20.7031 1106.0469,20.4453 Q1105.4844,20.1875 1104.8906,20.1875 Q1103.625,20.1875 1102.9844,21.1953 Q1102.3438,22.2031 1102.3438,24.1719 Q1102.3438,26.1406 1102.9844,27.1484 Q1103.625,28.1563 1104.8906,28.1563 Q1105.4844,28.1563 1106.0469,27.8984 Q1106.6094,27.6406 1107.2031,27.0938 L1107.2031,29.6563 Z "/><text fill="#19273C" font-family="sans-serif" font-size="16" lengthAdjust="spacingAndGlyphs" textLength="224" x="1125.25" y="29.5391">BusinessNetworkConnection</text><line style="stroke: #E3ECEC; stroke-width: 1.5;" x1="994" x2="1448" y1="40" y2="40"/><line style="stroke: #E3ECEC; stroke-width: 1.5;" x1="994" x2="1448" y1="48" y2="48"/><ellipse cx="1004" cy="62.3125" fill="#84BE84" rx="3" ry="3" style="stroke: #038048; stroke-width: 1.0;"/><text fill="#19273C" font-family="sans-serif" font-size="16" lengthAdjust="spacingAndGlyphs" textLength="430" x="1013" y="66.8516">void constructor(Object,ConnectionProfileStore,Object)</text><ellipse cx="1004" cy="80.9375" fill="#84BE84" rx="3" ry="3" style="stroke: #038048; stroke-width: 1.0;"/><text fill="#19273C" font-family="sans-serif" font-size="16" lengthAdjust="spacingAndGlyphs" textLength="386" x="1013" y="85.4766">BusinessNetworkDefinition getBusinessNetwork()</text><ellipse cx="1004" cy="99.5625" fill="#84BE84" rx="3" ry="3" style="stroke: #038048; stroke-width: 1.0;"/><text fill="#19273C" font-family="sans-serif" font-size="16" lengthAdjust="spacingAndGlyphs" textLength="303" x="1013" y="104.1016">Promise getAllAssetRegistries(boolean)</text><ellipse cx="1004" cy="118.1875" fill="#84BE84" rx="3" ry="3" style="stroke: #038048; stroke-width: 1.0;"/><text fill="#19273C" font-family="sans-serif" font-size="16" lengthAdjust="spacingAndGlyphs" textLength="258" x="1013" y="122.7266">Promise getAssetRegistry(string)</text><ellipse cx="1004" cy="136.8125" fill="#84BE84" rx="3" ry="3" style="stroke: #038048; stroke-width: 1.0;"/><text fill="#19273C" font-family="sans-serif" font-size="16" lengthAdjust="spacingAndGlyphs" textLength="278" x="1013" y="141.3516">Promise assetRegistryExists(string)</text><ellipse cx="1004" cy="155.4375" fill="#84BE84" rx="3" ry="3" style="stroke: #038048; stroke-width: 1.0;"/><text fill="#19273C" font-family="sans-serif" font-size="16" lengthAdjust="spacingAndGlyphs" textLength="312" x="1013" y="159.9766">Promise addAssetRegistry(string,string)</text><ellipse cx="1004" cy="174.0625" fill="#84BE84" rx="3" ry="3" style="stroke: #038048; stroke-width: 1.0;"/><text fill="#19273C" font-family="sans-serif" font-size="16" lengthAdjust="spacingAndGlyphs" textLength="341" x="1013" y="178.6016">Promise getAllParticipantRegistries(boolean)</text><ellipse cx="1004" cy="192.6875" fill="#84BE84" rx="3" ry="3" style="stroke: #038048; stroke-width: 1.0;"/><text fill="#19273C" font-family="sans-serif" font-size="16" lengthAdjust="spacingAndGlyphs" textLength="296" x="1013" y="197.2266">Promise getParticipantRegistry(string)</text><ellipse cx="1004" cy="211.3125" fill="#84BE84" rx="3" ry="3" style="stroke: #038048; stroke-width: 1.0;"/><text fill="#19273C" font-family="sans-serif" font-size="16" lengthAdjust="spacingAndGlyphs" textLength="318" x="1013" y="215.8516">Promise participantRegistryExists(string)</text><ellipse cx="1004" cy="229.9375" fill="#84BE84" rx="3" ry="3" style="stroke: #038048; stroke-width: 1.0;"/><text fill="#19273C" font-family="sans-serif" font-size="16" lengthAdjust="spacingAndGlyphs" textLength="350" x="1013" y="234.4766">Promise addParticipantRegistry(string,string)</text><ellipse cx="1004" cy="248.5625" fill="#84BE84" rx="3" ry="3" style="stroke: #038048; stroke-width: 1.0;"/><text fill="#19273C" font-family="sans-serif" font-size="16" lengthAdjust="spacingAndGlyphs" textLength="305" x="1013" y="253.1016">Promise getTransactionRegistry(string)</text><ellipse cx="1004" cy="267.1875" fill="#84BE84" rx="3" ry="3" style="stroke: #038048; stroke-width: 1.0;"/><text fill="#19273C" font-family="sans-serif" font-size="16" lengthAdjust="spacingAndGlyphs" textLength="350" x="1013" y="271.7266">Promise getAllTransactionRegistries(boolean)</text><ellipse cx="1004" cy="285.8125" fill="#84BE84" rx="3" ry="3" style="stroke: #038048; stroke-width: 1.0;"/><text fill="#19273C" font-family="sans-serif" font-size="16" lengthAdjust="spacingAndGlyphs" textLength="324" x="1013" y="290.3516">Promise transactionRegistryExists(string)</text><ellipse cx="1004" cy="304.4375" fill="#84BE84" rx="3" ry="3" style="stroke: #038048; stroke-width: 1.0;"/><text fill="#19273C" font-family="sans-serif" font-size="16" lengthAdjust="spacingAndGlyphs" textLength="174" x="1013" y="308.9766">Promise getHistorian()</text><ellipse cx="1004" cy="323.0625" fill="#84BE84" rx="3" ry="3" style="stroke: #038048; stroke-width: 1.0;"/><text fill="#19273C" font-family="sans-serif" font-size="16" lengthAdjust="spacingAndGlyphs" textLength="227" x="1013" y="327.6016">Promise getIdentityRegistry()</text><ellipse cx="1004" cy="341.6875" fill="#84BE84" rx="3" ry="3" style="stroke: #038048; stroke-width: 1.0;"/><text fill="#19273C" font-family="sans-serif" font-size="16" lengthAdjust="spacingAndGlyphs" textLength="393" x="1013" y="346.2266">Promise connect(string,string,string,string,Object)</text><ellipse cx="1004" cy="360.3125" fill="#84BE84" rx="3" ry="3" style="stroke: #038048; stroke-width: 1.0;"/><text fill="#19273C" font-family="sans-serif" font-size="16" lengthAdjust="spacingAndGlyphs" textLength="215" x="1013" y="364.8516">Promise getRegistry(String)</text><ellipse cx="1004" cy="378.9375" fill="#84BE84" rx="3" ry="3" style="stroke: #038048; stroke-width: 1.0;"/><text fill="#19273C" font-family="sans-serif" font-size="16" lengthAdjust="spacingAndGlyphs" textLength="165" x="1013" y="383.4766">Promise disconnect()</text><ellipse cx="1004" cy="397.5625" fill="#84BE84" rx="3" ry="3" style="stroke: #038048; stroke-width: 1.0;"/><text fill="#19273C" font-family="sans-serif" font-size="16" lengthAdjust="spacingAndGlyphs" textLength="298" x="1013" y="402.1016">Promise submitTransaction(Resource)</text><ellipse cx="1004" cy="416.1875" fill="#84BE84" rx="3" ry="3" style="stroke: #038048; stroke-width: 1.0;"/><text fill="#19273C" font-family="sans-serif" font-size="16" lengthAdjust="spacingAndGlyphs" textLength="194" x="1013" y="420.7266">Query buildQuery(string)</text><ellipse cx="1004" cy="434.8125" fill="#84BE84" rx="3" ry="3" style="stroke: #038048; stroke-width: 1.0;"/><text fill="#19273C" font-family="sans-serif" font-size="16" lengthAdjust="spacingAndGlyphs" textLength="175" x="1013" y="439.3516">Promise query(Object)</text><ellipse cx="1004" cy="453.4375" fill="#84BE84" rx="3" ry="3" style="stroke: #038048; stroke-width: 1.0;"/><text fill="#19273C" font-family="sans-serif" font-size="16" lengthAdjust="spacingAndGlyphs" textLength="113" x="1013" y="457.9766">Promise ping()</text><ellipse cx="1004" cy="472.0625" fill="#84BE84" rx="3" ry="3" style="stroke: #038048; stroke-width: 1.0;"/><text fill="#19273C" font-family="sans-serif" font-size="16" lengthAdjust="spacingAndGlyphs" textLength="341" x="1013" y="476.6016">Promise issueIdentity(string,object,boolean)</text><ellipse cx="1004" cy="490.6875" fill="#84BE84" rx="3" ry="3" style="stroke: #038048; stroke-width: 1.0;"/><text fill="#19273C" font-family="sans-serif" font-size="16" lengthAdjust="spacingAndGlyphs" textLength="216" x="1013" y="495.2266">Promise bindIdentity(string)</text><ellipse cx="1004" cy="509.3125" fill="#84BE84" rx="3" ry="3" style="stroke: #038048; stroke-width: 1.0;"/><text fill="#19273C" font-family="sans-serif" font-size="16" lengthAdjust="spacingAndGlyphs" textLength="191" x="1013" y="513.8516">Promise revokeIdentity()</text><!--class EventEmitter--><rect fill="#F8FAFA" height="48" rx="1" ry="1" style="stroke: #E3ECEC; stroke-width: 1.5;" width="132" x="1155" y="582"/><ellipse cx="1170" cy="598" fill="#FFFFFF" rx="11" ry="11" style="stroke: #E3ECEC; stroke-width: 1.0;"/><path d="M1172.4531,603.6563 Q1171.9063,603.9375 1171.3047,604.0859 Q1170.7031,604.2344 1170.0313,604.2344 Q1167.6719,604.2344 1166.4297,602.6719 Q1165.1875,601.1094 1165.1875,598.1719 Q1165.1875,595.2344 1166.4297,593.6797 Q1167.6719,592.125 1170.0313,592.125 Q1170.7031,592.125 1171.3125,592.2656 Q1171.9219,592.4063 1172.4531,592.6875 L1172.4531,595.25 Q1171.8594,594.7031 1171.2969,594.4453 Q1170.7344,594.1875 1170.1406,594.1875 Q1168.875,594.1875 1168.2344,595.1953 Q1167.5938,596.2031 1167.5938,598.1719 Q1167.5938,600.1406 1168.2344,601.1484 Q1168.875,602.1563 1170.1406,602.1563 Q1170.7344,602.1563 1171.2969,601.8984 Q1171.8594,601.6406 1172.4531,601.0938 L1172.4531,603.6563 Z "/><text fill="#19273C" font-family="sans-serif" font-size="16" lengthAdjust="spacingAndGlyphs" textLength="100" x="1184" y="603.5391">EventEmitter</text><line style="stroke: #E3ECEC; stroke-width: 1.5;" x1="1156" x2="1286" y1="614" y2="614"/><line style="stroke: #E3ECEC; stroke-width: 1.5;" x1="1156" x2="1286" y1="622" y2="622"/><path d="M482,335.83 C482,403.59 482,504.308 482,561.3861 " fill="none" style="stroke: #3C6DF0; stroke-width: 1.0;"/><polygon fill="none" points="489,561.6303,482,581.6302,475,561.6302,489,561.6303" style="stroke: #3C6DF0; stroke-width: 1.0;"/><path d="M1221,522.071 C1221,536.5372 1221,549.8532 1221,561.3872 " fill="none" style="stroke: #3C6DF0; stroke-width: 1.0;"/><polygon fill="none" points="1228,561.7764,1221,581.7763,1214,561.7763,1228,561.7764" style="stroke: #3C6DF0; stroke-width: 1.0;"/></g></svg>