<?xml version="1.0" encoding="UTF-8" standalone="no"?><svg xmlns="http://www.w3.org/2000/svg" xmlns:xlink="http://www.w3.org/1999/xlink" contentScriptType="application/ecmascript" contentStyleType="text/css" height="557px" preserveAspectRatio="none" style="width:1196px;height:557px;" version="1.1" viewBox="0 0 1196 557" width="1196px" zoomAndPan="magnify"><defs/><g><!--class AssetRegistry--><rect fill="#F8FAFA" height="141.125" rx="1" ry="1" style="stroke: #E3ECEC; stroke-width: 1.5;" width="723" x="6" y="157.5"/><ellipse cx="309.25" cy="173.5" fill="#FFFFFF" rx="11" ry="11" style="stroke: #E3ECEC; stroke-width: 1.0;"/><path d="M311.7031,179.1563 Q311.1563,179.4375 310.5547,179.5859 Q309.9531,179.7344 309.2813,179.7344 Q306.9219,179.7344 305.6797,178.1719 Q304.4375,176.6094 304.4375,173.6719 Q304.4375,170.7344 305.6797,169.1797 Q306.9219,167.625 309.2813,167.625 Q309.9531,167.625 310.5625,167.7656 Q311.1719,167.9063 311.7031,168.1875 L311.7031,170.75 Q311.1094,170.2031 310.5469,169.9453 Q309.9844,169.6875 309.3906,169.6875 Q308.125,169.6875 307.4844,170.6953 Q306.8438,171.7031 306.8438,173.6719 Q306.8438,175.6406 307.4844,176.6484 Q308.125,177.6563 309.3906,177.6563 Q309.9844,177.6563 310.5469,177.3984 Q311.1094,177.1406 311.7031,176.5938 L311.7031,179.1563 Z "/><text fill="#19273C" font-family="sans-serif" font-size="16" lengthAdjust="spacingAndGlyphs" textLength="108" x="329.75" y="179.0391">AssetRegistry</text><line style="stroke: #E3ECEC; stroke-width: 1.5;" x1="7" x2="728" y1="189.5" y2="189.5"/><line style="stroke: #E3ECEC; stroke-width: 1.5;" x1="7" x2="728" y1="197.5" y2="197.5"/><ellipse cx="17" cy="211.8125" fill="#84BE84" rx="3" ry="3" style="stroke: #038048; stroke-width: 1.0;"/><text fill="#19273C" font-family="sans-serif" font-size="16" lengthAdjust="spacingAndGlyphs" textLength="622" x="26" y="216.3516">Promise getAllAssetRegistries(SecurityContext,ModelManager,Factory,Serializer)</text><ellipse cx="17" cy="230.4375" fill="#84BE84" rx="3" ry="3" style="stroke: #038048; stroke-width: 1.0;"/><text fill="#19273C" font-family="sans-serif" font-size="16" lengthAdjust="spacingAndGlyphs" textLength="643" x="26" y="234.9766">Promise getAssetRegistry(SecurityContext,string,ModelManager,Factory,Serializer)</text><ellipse cx="17" cy="249.0625" fill="#84BE84" rx="3" ry="3" style="stroke: #038048; stroke-width: 1.0;"/><text fill="#19273C" font-family="sans-serif" font-size="16" lengthAdjust="spacingAndGlyphs" textLength="663" x="26" y="253.6016">Promise assetRegistryExists(SecurityContext,string,ModelManager,Factory,Serializer)</text><ellipse cx="17" cy="267.6875" fill="#84BE84" rx="3" ry="3" style="stroke: #038048; stroke-width: 1.0;"/><text fill="#19273C" font-family="sans-serif" font-size="16" lengthAdjust="spacingAndGlyphs" textLength="697" x="26" y="272.2266">Promise addAssetRegistry(SecurityContext,string,string,ModelManager,Factory,Serializer)</text><ellipse cx="17" cy="286.3125" fill="#84BE84" rx="3" ry="3" style="stroke: #038048; stroke-width: 1.0;"/><text fill="#19273C" font-family="sans-serif" font-size="16" lengthAdjust="spacingAndGlyphs" textLength="622" x="26" y="290.8516">void constructor(string,string,SecurityContext,ModelManager,Factory,Serializer)</text><!--class Registry--><rect fill="#F8FAFA" height="48" rx="1" ry="1" style="stroke: #E3ECEC; stroke-width: 1.5;" width="96" x="319.25" y="508"/><ellipse cx="334.25" cy="524" fill="#FFFFFF" rx="11" ry="11" style="stroke: #E3ECEC; stroke-width: 1.0;"/><path d="M336.7031,529.6563 Q336.1563,529.9375 335.5547,530.0859 Q334.9531,530.2344 334.2813,530.2344 Q331.9219,530.2344 330.6797,528.6719 Q329.4375,527.1094 329.4375,524.1719 Q329.4375,521.2344 330.6797,519.6797 Q331.9219,518.125 334.2813,518.125 Q334.9531,518.125 335.5625,518.2656 Q336.1719,518.4063 336.7031,518.6875 L336.7031,521.25 Q336.1094,520.7031 335.5469,520.4453 Q334.9844,520.1875 334.3906,520.1875 Q333.125,520.1875 332.4844,521.1953 Q331.8438,522.2031 331.8438,524.1719 Q331.8438,526.1406 332.4844,527.1484 Q333.125,528.1563 334.3906,528.1563 Q334.9844,528.1563 335.5469,527.8984 Q336.1094,527.6406 336.7031,527.0938 L336.7031,529.6563 Z "/><text fill="#19273C" font-family="sans-serif" font-size="16" lengthAdjust="spacingAndGlyphs" textLength="64" x="348.25" y="529.5391">Registry</text><line style="stroke: #E3ECEC; stroke-width: 1.5;" x1="320.25" x2="414.25" y1="540" y2="540"/><line style="stroke: #E3ECEC; stroke-width: 1.5;" x1="320.25" x2="414.25" y1="548" y2="548"/><!--class BusinessNetworkConnection--><rect fill="#F8FAFA" height="439.125" rx="1" ry="1" style="stroke: #E3ECEC; stroke-width: 1.5;" width="431" x="764" y="8.5"/><ellipse cx="863.25" cy="24.5" fill="#FFFFFF" rx="11" ry="11" style="stroke: #E3ECEC; stroke-width: 1.0;"/><path d="M865.7031,30.1563 Q865.1563,30.4375 864.5547,30.5859 Q863.9531,30.7344 863.2813,30.7344 Q860.9219,30.7344 859.6797,29.1719 Q858.4375,27.6094 858.4375,24.6719 Q858.4375,21.7344 859.6797,20.1797 Q860.9219,18.625 863.2813,18.625 Q863.9531,18.625 864.5625,18.7656 Q865.1719,18.9063 865.7031,19.1875 L865.7031,21.75 Q865.1094,21.2031 864.5469,20.9453 Q863.9844,20.6875 863.3906,20.6875 Q862.125,20.6875 861.4844,21.6953 Q860.8438,22.7031 860.8438,24.6719 Q860.8438,26.6406 861.4844,27.6484 Q862.125,28.6563 863.3906,28.6563 Q863.9844,28.6563 864.5469,28.3984 Q865.1094,28.1406 865.7031,27.5938 L865.7031,30.1563 Z "/><text fill="#19273C" font-family="sans-serif" font-size="16" lengthAdjust="spacingAndGlyphs" textLength="224" x="883.75" y="30.0391">BusinessNetworkConnection</text><line style="stroke: #E3ECEC; stroke-width: 1.5;" x1="765" x2="1194" y1="40.5" y2="40.5"/><line style="stroke: #E3ECEC; stroke-width: 1.5;" x1="765" x2="1194" y1="48.5" y2="48.5"/><ellipse cx="775" cy="62.8125" fill="#84BE84" rx="3" ry="3" style="stroke: #038048; stroke-width: 1.0;"/><text fill="#19273C" font-family="sans-serif" font-size="16" lengthAdjust="spacingAndGlyphs" textLength="313" x="784" y="67.3516">void constructor(Object,Object,boolean)</text><ellipse cx="775" cy="81.4375" fill="#84BE84" rx="3" ry="3" style="stroke: #038048; stroke-width: 1.0;"/><text fill="#19273C" font-family="sans-serif" font-size="16" lengthAdjust="spacingAndGlyphs" textLength="386" x="784" y="85.9766">BusinessNetworkDefinition getBusinessNetwork()</text><ellipse cx="775" cy="100.0625" fill="#84BE84" rx="3" ry="3" style="stroke: #038048; stroke-width: 1.0;"/><text fill="#19273C" font-family="sans-serif" font-size="16" lengthAdjust="spacingAndGlyphs" textLength="367" x="784" y="104.6016">Promise getAllAssetRegistries(SecurityContext)</text><ellipse cx="775" cy="118.6875" fill="#84BE84" rx="3" ry="3" style="stroke: #038048; stroke-width: 1.0;"/><text fill="#19273C" font-family="sans-serif" font-size="16" lengthAdjust="spacingAndGlyphs" textLength="258" x="784" y="123.2266">Promise getAssetRegistry(string)</text><ellipse cx="775" cy="137.3125" fill="#84BE84" rx="3" ry="3" style="stroke: #038048; stroke-width: 1.0;"/><text fill="#19273C" font-family="sans-serif" font-size="16" lengthAdjust="spacingAndGlyphs" textLength="278" x="784" y="141.8516">Promise assetRegistryExists(string)</text><ellipse cx="775" cy="155.9375" fill="#84BE84" rx="3" ry="3" style="stroke: #038048; stroke-width: 1.0;"/><text fill="#19273C" font-family="sans-serif" font-size="16" lengthAdjust="spacingAndGlyphs" textLength="312" x="784" y="160.4766">Promise addAssetRegistry(string,string)</text><ellipse cx="775" cy="174.5625" fill="#84BE84" rx="3" ry="3" style="stroke: #038048; stroke-width: 1.0;"/><text fill="#19273C" font-family="sans-serif" font-size="16" lengthAdjust="spacingAndGlyphs" textLength="405" x="784" y="179.1016">Promise getAllParticipantRegistries(SecurityContext)</text><ellipse cx="775" cy="193.1875" fill="#84BE84" rx="3" ry="3" style="stroke: #038048; stroke-width: 1.0;"/><text fill="#19273C" font-family="sans-serif" font-size="16" lengthAdjust="spacingAndGlyphs" textLength="296" x="784" y="197.7266">Promise getParticipantRegistry(string)</text><ellipse cx="775" cy="211.8125" fill="#84BE84" rx="3" ry="3" style="stroke: #038048; stroke-width: 1.0;"/><text fill="#19273C" font-family="sans-serif" font-size="16" lengthAdjust="spacingAndGlyphs" textLength="318" x="784" y="216.3516">Promise participantRegistryExists(string)</text><ellipse cx="775" cy="230.4375" fill="#84BE84" rx="3" ry="3" style="stroke: #038048; stroke-width: 1.0;"/><text fill="#19273C" font-family="sans-serif" font-size="16" lengthAdjust="spacingAndGlyphs" textLength="350" x="784" y="234.9766">Promise addParticipantRegistry(string,string)</text><ellipse cx="775" cy="249.0625" fill="#84BE84" rx="3" ry="3" style="stroke: #038048; stroke-width: 1.0;"/><text fill="#19273C" font-family="sans-serif" font-size="16" lengthAdjust="spacingAndGlyphs" textLength="260" x="784" y="253.6016">Promise getTransactionRegistry()</text><ellipse cx="775" cy="267.6875" fill="#84BE84" rx="3" ry="3" style="stroke: #038048; stroke-width: 1.0;"/><text fill="#19273C" font-family="sans-serif" font-size="16" lengthAdjust="spacingAndGlyphs" textLength="227" x="784" y="272.2266">Promise getIdentityRegistry()</text><ellipse cx="775" cy="286.3125" fill="#84BE84" rx="3" ry="3" style="stroke: #038048; stroke-width: 1.0;"/><text fill="#19273C" font-family="sans-serif" font-size="16" lengthAdjust="spacingAndGlyphs" textLength="393" x="784" y="290.8516">Promise connect(string,string,string,string,Object)</text><ellipse cx="775" cy="304.9375" fill="#84BE84" rx="3" ry="3" style="stroke: #038048; stroke-width: 1.0;"/><text fill="#19273C" font-family="sans-serif" font-size="16" lengthAdjust="spacingAndGlyphs" textLength="165" x="784" y="309.4766">Promise disconnect()</text><ellipse cx="775" cy="323.5625" fill="#84BE84" rx="3" ry="3" style="stroke: #038048; stroke-width: 1.0;"/><text fill="#19273C" font-family="sans-serif" font-size="16" lengthAdjust="spacingAndGlyphs" textLength="298" x="784" y="328.1016">Promise submitTransaction(Resource)</text><ellipse cx="775" cy="342.1875" fill="#84BE84" rx="3" ry="3" style="stroke: #038048; stroke-width: 1.0;"/><text fill="#19273C" font-family="sans-serif" font-size="16" lengthAdjust="spacingAndGlyphs" textLength="194" x="784" y="346.7266">Query buildQuery(string)</text><ellipse cx="775" cy="360.8125" fill="#84BE84" rx="3" ry="3" style="stroke: #038048; stroke-width: 1.0;"/><text fill="#19273C" font-family="sans-serif" font-size="16" lengthAdjust="spacingAndGlyphs" textLength="175" x="784" y="365.3516">Promise query(Object)</text><ellipse cx="775" cy="379.4375" fill="#84BE84" rx="3" ry="3" style="stroke: #038048; stroke-width: 1.0;"/><text fill="#19273C" font-family="sans-serif" font-size="16" lengthAdjust="spacingAndGlyphs" textLength="113" x="784" y="383.9766">Promise ping()</text><ellipse cx="775" cy="398.0625" fill="#84BE84" rx="3" ry="3" style="stroke: #038048; stroke-width: 1.0;"/><text fill="#19273C" font-family="sans-serif" font-size="16" lengthAdjust="spacingAndGlyphs" textLength="341" x="784" y="402.6016">Promise issueIdentity(string,object,boolean)</text><ellipse cx="775" cy="416.6875" fill="#84BE84" rx="3" ry="3" style="stroke: #038048; stroke-width: 1.0;"/><text fill="#19273C" font-family="sans-serif" font-size="16" lengthAdjust="spacingAndGlyphs" textLength="216" x="784" y="421.2266">Promise bindIdentity(string)</text><ellipse cx="775" cy="435.3125" fill="#84BE84" rx="3" ry="3" style="stroke: #038048; stroke-width: 1.0;"/><text fill="#19273C" font-family="sans-serif" font-size="16" lengthAdjust="spacingAndGlyphs" textLength="191" x="784" y="439.8516">Promise revokeIdentity()</text><!--class EventEmitter--><rect fill="#F8FAFA" height="48" rx="1" ry="1" style="stroke: #E3ECEC; stroke-width: 1.5;" width="132" x="913.25" y="508"/><ellipse cx="928.25" cy="524" fill="#FFFFFF" rx="11" ry="11" style="stroke: #E3ECEC; stroke-width: 1.0;"/><path d="M930.7031,529.6563 Q930.1563,529.9375 929.5547,530.0859 Q928.9531,530.2344 928.2813,530.2344 Q925.9219,530.2344 924.6797,528.6719 Q923.4375,527.1094 923.4375,524.1719 Q923.4375,521.2344 924.6797,519.6797 Q925.9219,518.125 928.2813,518.125 Q928.9531,518.125 929.5625,518.2656 Q930.1719,518.4063 930.7031,518.6875 L930.7031,521.25 Q930.1094,520.7031 929.5469,520.4453 Q928.9844,520.1875 928.3906,520.1875 Q927.125,520.1875 926.4844,521.1953 Q925.8438,522.2031 925.8438,524.1719 Q925.8438,526.1406 926.4844,527.1484 Q927.125,528.1563 928.3906,528.1563 Q928.9844,528.1563 929.5469,527.8984 Q930.1094,527.6406 930.7031,527.0938 L930.7031,529.6563 Z "/><text fill="#19273C" font-family="sans-serif" font-size="16" lengthAdjust="spacingAndGlyphs" textLength="100" x="942.25" y="529.5391">EventEmitter</text><line style="stroke: #E3ECEC; stroke-width: 1.5;" x1="914.25" x2="1044.25" y1="540" y2="540"/><line style="stroke: #E3ECEC; stroke-width: 1.5;" x1="914.25" x2="1044.25" y1="548" y2="548"/><path d="M367.25,298.664 C367.25,356.973 367.25,438.346 367.25,487.703 " fill="none" style="stroke: #3C6DF0; stroke-width: 1.0;"/><polygon fill="none" points="374.25,487.9297,367.25,507.9296,360.25,487.9296,374.25,487.9297" style="stroke: #3C6DF0; stroke-width: 1.0;"/><path d="M979.25,447.678 C979.25,462.293 979.25,475.8417 979.25,487.5844 " fill="none" style="stroke: #3C6DF0; stroke-width: 1.0;"/><polygon fill="none" points="986.25,487.7455,979.25,507.7455,972.25,487.7455,986.25,487.7455" style="stroke: #3C6DF0; stroke-width: 1.0;"/></g></svg>