<?xml version="1.0" encoding="UTF-8" standalone="no"?><svg xmlns="http://www.w3.org/2000/svg" xmlns:xlink="http://www.w3.org/1999/xlink" contentScriptType="application/ecmascript" contentStyleType="text/css" height="150px" preserveAspectRatio="none" style="width:310px;height:150px;" version="1.1" viewBox="0 0 310 150" width="310px" zoomAndPan="magnify"><defs/><g><!--class BusinessNetworkCardStore--><rect fill="#F8FAFA" height="141.125" rx="1" ry="1" style="stroke: #E3ECEC; stroke-width: 1.5;" width="303" x="6" y="8.5"/><ellipse cx="46.2" cy="24.5" fill="#FFFFFF" rx="11" ry="11" style="stroke: #E3ECEC; stroke-width: 1.0;"/><path d="M48.6531,30.1563 Q48.1063,30.4375 47.5047,30.5859 Q46.9031,30.7344 46.2313,30.7344 Q43.8719,30.7344 42.6297,29.1719 Q41.3875,27.6094 41.3875,24.6719 Q41.3875,21.7344 42.6297,20.1797 Q43.8719,18.625 46.2313,18.625 Q46.9031,18.625 47.5125,18.7656 Q48.1219,18.9063 48.6531,19.1875 L48.6531,21.75 Q48.0594,21.2031 47.4969,20.9453 Q46.9344,20.6875 46.3406,20.6875 Q45.075,20.6875 44.4344,21.6953 Q43.7938,22.7031 43.7938,24.6719 Q43.7938,26.6406 44.4344,27.6484 Q45.075,28.6563 46.3406,28.6563 Q46.9344,28.6563 47.4969,28.3984 Q48.0594,28.1406 48.6531,27.5938 L48.6531,30.1563 Z "/><text fill="#19273C" font-family="sans-serif" font-size="16" lengthAdjust="spacingAndGlyphs" textLength="215" x="65.8" y="30.0391">BusinessNetworkCardStore</text><line style="stroke: #E3ECEC; stroke-width: 1.5;" x1="7" x2="308" y1="40.5" y2="40.5"/><line style="stroke: #E3ECEC; stroke-width: 1.5;" x1="7" x2="308" y1="48.5" y2="48.5"/><ellipse cx="17" cy="62.8125" fill="#84BE84" rx="3" ry="3" style="stroke: #038048; stroke-width: 1.0;"/><text fill="#19273C" font-family="sans-serif" font-size="16" lengthAdjust="spacingAndGlyphs" textLength="277" x="26" y="67.3516">String getDefaultCardName(IdCard)</text><ellipse cx="17" cy="81.4375" fill="#84BE84" rx="3" ry="3" style="stroke: #038048; stroke-width: 1.0;"/><text fill="#19273C" font-family="sans-serif" font-size="16" lengthAdjust="spacingAndGlyphs" textLength="151" x="26" y="85.9766">Promise get(String)</text><ellipse cx="17" cy="100.0625" fill="#84BE84" rx="3" ry="3" style="stroke: #038048; stroke-width: 1.0;"/><text fill="#19273C" font-family="sans-serif" font-size="16" lengthAdjust="spacingAndGlyphs" textLength="209" x="26" y="104.6016">Promise put(String,IdCard)</text><ellipse cx="17" cy="118.6875" fill="#84BE84" rx="3" ry="3" style="stroke: #038048; stroke-width: 1.0;"/><text fill="#19273C" font-family="sans-serif" font-size="16" lengthAdjust="spacingAndGlyphs" textLength="122" x="26" y="123.2266">Promise getAll()</text><ellipse cx="17" cy="137.3125" fill="#84BE84" rx="3" ry="3" style="stroke: #038048; stroke-width: 1.0;"/><text fill="#19273C" font-family="sans-serif" font-size="16" lengthAdjust="spacingAndGlyphs" textLength="172" x="26" y="141.8516">Promise delete(String)</text></g></svg>