<?xml version="1.0" encoding="UTF-8" standalone="no"?><svg xmlns="http://www.w3.org/2000/svg" xmlns:xlink="http://www.w3.org/1999/xlink" contentScriptType="application/ecmascript" contentStyleType="text/css" height="575px" preserveAspectRatio="none" style="width:1425px;height:575px;" version="1.1" viewBox="0 0 1425 575" width="1425px" zoomAndPan="magnify"><defs/><g><!--class AssetRegistry--><rect fill="#F8FAFA" height="141.125" rx="1" ry="1" style="stroke: #E3ECEC; stroke-width: 1.5;" width="952" x="6" y="166.5"/><ellipse cx="423.75" cy="182.5" fill="#FFFFFF" rx="11" ry="11" style="stroke: #E3ECEC; stroke-width: 1.0;"/><path d="M426.2031,188.1563 Q425.6563,188.4375 425.0547,188.5859 Q424.4531,188.7344 423.7813,188.7344 Q421.4219,188.7344 420.1797,187.1719 Q418.9375,185.6094 418.9375,182.6719 Q418.9375,179.7344 420.1797,178.1797 Q421.4219,176.625 423.7813,176.625 Q424.4531,176.625 425.0625,176.7656 Q425.6719,176.9063 426.2031,177.1875 L426.2031,179.75 Q425.6094,179.2031 425.0469,178.9453 Q424.4844,178.6875 423.8906,178.6875 Q422.625,178.6875 421.9844,179.6953 Q421.3438,180.7031 421.3438,182.6719 Q421.3438,184.6406 421.9844,185.6484 Q422.625,186.6563 423.8906,186.6563 Q424.4844,186.6563 425.0469,186.3984 Q425.6094,186.1406 426.2031,185.5938 L426.2031,188.1563 Z "/><text fill="#19273C" font-family="sans-serif" font-size="16" lengthAdjust="spacingAndGlyphs" textLength="108" x="444.25" y="188.0391">AssetRegistry</text><line style="stroke: #E3ECEC; stroke-width: 1.5;" x1="7" x2="957" y1="198.5" y2="198.5"/><line style="stroke: #E3ECEC; stroke-width: 1.5;" x1="7" x2="957" y1="206.5" y2="206.5"/><ellipse cx="17" cy="220.8125" fill="#84BE84" rx="3" ry="3" style="stroke: #038048; stroke-width: 1.0;"/><text fill="#19273C" font-family="sans-serif" font-size="16" lengthAdjust="spacingAndGlyphs" textLength="851" x="26" y="225.3516">Promise getAllAssetRegistries(SecurityContext,ModelManager,Factory,Serializer,BusinessNetworkConnection)</text><ellipse cx="17" cy="239.4375" fill="#84BE84" rx="3" ry="3" style="stroke: #038048; stroke-width: 1.0;"/><text fill="#19273C" font-family="sans-serif" font-size="16" lengthAdjust="spacingAndGlyphs" textLength="872" x="26" y="243.9766">Promise getAssetRegistry(SecurityContext,string,ModelManager,Factory,Serializer,BusinessNetworkConnection)</text><ellipse cx="17" cy="258.0625" fill="#84BE84" rx="3" ry="3" style="stroke: #038048; stroke-width: 1.0;"/><text fill="#19273C" font-family="sans-serif" font-size="16" lengthAdjust="spacingAndGlyphs" textLength="663" x="26" y="262.6016">Promise assetRegistryExists(SecurityContext,string,ModelManager,Factory,Serializer)</text><ellipse cx="17" cy="276.6875" fill="#84BE84" rx="3" ry="3" style="stroke: #038048; stroke-width: 1.0;"/><text fill="#19273C" font-family="sans-serif" font-size="16" lengthAdjust="spacingAndGlyphs" textLength="926" x="26" y="281.2266">Promise addAssetRegistry(SecurityContext,string,string,ModelManager,Factory,Serializer,BusinessNetworkConnection)</text><ellipse cx="17" cy="295.3125" fill="#84BE84" rx="3" ry="3" style="stroke: #038048; stroke-width: 1.0;"/><text fill="#19273C" font-family="sans-serif" font-size="16" lengthAdjust="spacingAndGlyphs" textLength="851" x="26" y="299.8516">void constructor(string,string,SecurityContext,ModelManager,Factory,Serializer,BusinessNetworkConnection)</text><!--class Registry--><rect fill="#F8FAFA" height="48" rx="1" ry="1" style="stroke: #E3ECEC; stroke-width: 1.5;" width="96" x="434" y="526"/><ellipse cx="449" cy="542" fill="#FFFFFF" rx="11" ry="11" style="stroke: #E3ECEC; stroke-width: 1.0;"/><path d="M451.4531,547.6563 Q450.9063,547.9375 450.3047,548.0859 Q449.7031,548.2344 449.0313,548.2344 Q446.6719,548.2344 445.4297,546.6719 Q444.1875,545.1094 444.1875,542.1719 Q444.1875,539.2344 445.4297,537.6797 Q446.6719,536.125 449.0313,536.125 Q449.7031,536.125 450.3125,536.2656 Q450.9219,536.4063 451.4531,536.6875 L451.4531,539.25 Q450.8594,538.7031 450.2969,538.4453 Q449.7344,538.1875 449.1406,538.1875 Q447.875,538.1875 447.2344,539.1953 Q446.5938,540.2031 446.5938,542.1719 Q446.5938,544.1406 447.2344,545.1484 Q447.875,546.1563 449.1406,546.1563 Q449.7344,546.1563 450.2969,545.8984 Q450.8594,545.6406 451.4531,545.0938 L451.4531,547.6563 Z "/><text fill="#19273C" font-family="sans-serif" font-size="16" lengthAdjust="spacingAndGlyphs" textLength="64" x="463" y="547.5391">Registry</text><line style="stroke: #E3ECEC; stroke-width: 1.5;" x1="435" x2="529" y1="558" y2="558"/><line style="stroke: #E3ECEC; stroke-width: 1.5;" x1="435" x2="529" y1="566" y2="566"/><!--class BusinessNetworkConnection--><rect fill="#F8FAFA" height="457.75" rx="1" ry="1" style="stroke: #E3ECEC; stroke-width: 1.5;" width="431" x="993.75" y="8"/><ellipse cx="1093" cy="24" fill="#FFFFFF" rx="11" ry="11" style="stroke: #E3ECEC; stroke-width: 1.0;"/><path d="M1095.4531,29.6563 Q1094.9063,29.9375 1094.3047,30.0859 Q1093.7031,30.2344 1093.0313,30.2344 Q1090.6719,30.2344 1089.4297,28.6719 Q1088.1875,27.1094 1088.1875,24.1719 Q1088.1875,21.2344 1089.4297,19.6797 Q1090.6719,18.125 1093.0313,18.125 Q1093.7031,18.125 1094.3125,18.2656 Q1094.9219,18.4063 1095.4531,18.6875 L1095.4531,21.25 Q1094.8594,20.7031 1094.2969,20.4453 Q1093.7344,20.1875 1093.1406,20.1875 Q1091.875,20.1875 1091.2344,21.1953 Q1090.5938,22.2031 1090.5938,24.1719 Q1090.5938,26.1406 1091.2344,27.1484 Q1091.875,28.1563 1093.1406,28.1563 Q1093.7344,28.1563 1094.2969,27.8984 Q1094.8594,27.6406 1095.4531,27.0938 L1095.4531,29.6563 Z "/><text fill="#19273C" font-family="sans-serif" font-size="16" lengthAdjust="spacingAndGlyphs" textLength="224" x="1113.5" y="29.5391">BusinessNetworkConnection</text><line style="stroke: #E3ECEC; stroke-width: 1.5;" x1="994.75" x2="1423.75" y1="40" y2="40"/><line style="stroke: #E3ECEC; stroke-width: 1.5;" x1="994.75" x2="1423.75" y1="48" y2="48"/><ellipse cx="1004.75" cy="62.3125" fill="#84BE84" rx="3" ry="3" style="stroke: #038048; stroke-width: 1.0;"/><text fill="#19273C" font-family="sans-serif" font-size="16" lengthAdjust="spacingAndGlyphs" textLength="313" x="1013.75" y="66.8516">void constructor(Object,Object,boolean)</text><ellipse cx="1004.75" cy="80.9375" fill="#84BE84" rx="3" ry="3" style="stroke: #038048; stroke-width: 1.0;"/><text fill="#19273C" font-family="sans-serif" font-size="16" lengthAdjust="spacingAndGlyphs" textLength="386" x="1013.75" y="85.4766">BusinessNetworkDefinition getBusinessNetwork()</text><ellipse cx="1004.75" cy="99.5625" fill="#84BE84" rx="3" ry="3" style="stroke: #038048; stroke-width: 1.0;"/><text fill="#19273C" font-family="sans-serif" font-size="16" lengthAdjust="spacingAndGlyphs" textLength="367" x="1013.75" y="104.1016">Promise getAllAssetRegistries(SecurityContext)</text><ellipse cx="1004.75" cy="118.1875" fill="#84BE84" rx="3" ry="3" style="stroke: #038048; stroke-width: 1.0;"/><text fill="#19273C" font-family="sans-serif" font-size="16" lengthAdjust="spacingAndGlyphs" textLength="258" x="1013.75" y="122.7266">Promise getAssetRegistry(string)</text><ellipse cx="1004.75" cy="136.8125" fill="#84BE84" rx="3" ry="3" style="stroke: #038048; stroke-width: 1.0;"/><text fill="#19273C" font-family="sans-serif" font-size="16" lengthAdjust="spacingAndGlyphs" textLength="278" x="1013.75" y="141.3516">Promise assetRegistryExists(string)</text><ellipse cx="1004.75" cy="155.4375" fill="#84BE84" rx="3" ry="3" style="stroke: #038048; stroke-width: 1.0;"/><text fill="#19273C" font-family="sans-serif" font-size="16" lengthAdjust="spacingAndGlyphs" textLength="312" x="1013.75" y="159.9766">Promise addAssetRegistry(string,string)</text><ellipse cx="1004.75" cy="174.0625" fill="#84BE84" rx="3" ry="3" style="stroke: #038048; stroke-width: 1.0;"/><text fill="#19273C" font-family="sans-serif" font-size="16" lengthAdjust="spacingAndGlyphs" textLength="405" x="1013.75" y="178.6016">Promise getAllParticipantRegistries(SecurityContext)</text><ellipse cx="1004.75" cy="192.6875" fill="#84BE84" rx="3" ry="3" style="stroke: #038048; stroke-width: 1.0;"/><text fill="#19273C" font-family="sans-serif" font-size="16" lengthAdjust="spacingAndGlyphs" textLength="296" x="1013.75" y="197.2266">Promise getParticipantRegistry(string)</text><ellipse cx="1004.75" cy="211.3125" fill="#84BE84" rx="3" ry="3" style="stroke: #038048; stroke-width: 1.0;"/><text fill="#19273C" font-family="sans-serif" font-size="16" lengthAdjust="spacingAndGlyphs" textLength="318" x="1013.75" y="215.8516">Promise participantRegistryExists(string)</text><ellipse cx="1004.75" cy="229.9375" fill="#84BE84" rx="3" ry="3" style="stroke: #038048; stroke-width: 1.0;"/><text fill="#19273C" font-family="sans-serif" font-size="16" lengthAdjust="spacingAndGlyphs" textLength="350" x="1013.75" y="234.4766">Promise addParticipantRegistry(string,string)</text><ellipse cx="1004.75" cy="248.5625" fill="#84BE84" rx="3" ry="3" style="stroke: #038048; stroke-width: 1.0;"/><text fill="#19273C" font-family="sans-serif" font-size="16" lengthAdjust="spacingAndGlyphs" textLength="260" x="1013.75" y="253.1016">Promise getTransactionRegistry()</text><ellipse cx="1004.75" cy="267.1875" fill="#84BE84" rx="3" ry="3" style="stroke: #038048; stroke-width: 1.0;"/><text fill="#19273C" font-family="sans-serif" font-size="16" lengthAdjust="spacingAndGlyphs" textLength="174" x="1013.75" y="271.7266">Promise getHistorian()</text><ellipse cx="1004.75" cy="285.8125" fill="#84BE84" rx="3" ry="3" style="stroke: #038048; stroke-width: 1.0;"/><text fill="#19273C" font-family="sans-serif" font-size="16" lengthAdjust="spacingAndGlyphs" textLength="227" x="1013.75" y="290.3516">Promise getIdentityRegistry()</text><ellipse cx="1004.75" cy="304.4375" fill="#84BE84" rx="3" ry="3" style="stroke: #038048; stroke-width: 1.0;"/><text fill="#19273C" font-family="sans-serif" font-size="16" lengthAdjust="spacingAndGlyphs" textLength="393" x="1013.75" y="308.9766">Promise connect(string,string,string,string,Object)</text><ellipse cx="1004.75" cy="323.0625" fill="#84BE84" rx="3" ry="3" style="stroke: #038048; stroke-width: 1.0;"/><text fill="#19273C" font-family="sans-serif" font-size="16" lengthAdjust="spacingAndGlyphs" textLength="165" x="1013.75" y="327.6016">Promise disconnect()</text><ellipse cx="1004.75" cy="341.6875" fill="#84BE84" rx="3" ry="3" style="stroke: #038048; stroke-width: 1.0;"/><text fill="#19273C" font-family="sans-serif" font-size="16" lengthAdjust="spacingAndGlyphs" textLength="298" x="1013.75" y="346.2266">Promise submitTransaction(Resource)</text><ellipse cx="1004.75" cy="360.3125" fill="#84BE84" rx="3" ry="3" style="stroke: #038048; stroke-width: 1.0;"/><text fill="#19273C" font-family="sans-serif" font-size="16" lengthAdjust="spacingAndGlyphs" textLength="194" x="1013.75" y="364.8516">Query buildQuery(string)</text><ellipse cx="1004.75" cy="378.9375" fill="#84BE84" rx="3" ry="3" style="stroke: #038048; stroke-width: 1.0;"/><text fill="#19273C" font-family="sans-serif" font-size="16" lengthAdjust="spacingAndGlyphs" textLength="175" x="1013.75" y="383.4766">Promise query(Object)</text><ellipse cx="1004.75" cy="397.5625" fill="#84BE84" rx="3" ry="3" style="stroke: #038048; stroke-width: 1.0;"/><text fill="#19273C" font-family="sans-serif" font-size="16" lengthAdjust="spacingAndGlyphs" textLength="113" x="1013.75" y="402.1016">Promise ping()</text><ellipse cx="1004.75" cy="416.1875" fill="#84BE84" rx="3" ry="3" style="stroke: #038048; stroke-width: 1.0;"/><text fill="#19273C" font-family="sans-serif" font-size="16" lengthAdjust="spacingAndGlyphs" textLength="341" x="1013.75" y="420.7266">Promise issueIdentity(string,object,boolean)</text><ellipse cx="1004.75" cy="434.8125" fill="#84BE84" rx="3" ry="3" style="stroke: #038048; stroke-width: 1.0;"/><text fill="#19273C" font-family="sans-serif" font-size="16" lengthAdjust="spacingAndGlyphs" textLength="216" x="1013.75" y="439.3516">Promise bindIdentity(string)</text><ellipse cx="1004.75" cy="453.4375" fill="#84BE84" rx="3" ry="3" style="stroke: #038048; stroke-width: 1.0;"/><text fill="#19273C" font-family="sans-serif" font-size="16" lengthAdjust="spacingAndGlyphs" textLength="191" x="1013.75" y="457.9766">Promise revokeIdentity()</text><!--class EventEmitter--><rect fill="#F8FAFA" height="48" rx="1" ry="1" style="stroke: #E3ECEC; stroke-width: 1.5;" width="132" x="1143" y="526"/><ellipse cx="1158" cy="542" fill="#FFFFFF" rx="11" ry="11" style="stroke: #E3ECEC; stroke-width: 1.0;"/><path d="M1160.4531,547.6563 Q1159.9063,547.9375 1159.3047,548.0859 Q1158.7031,548.2344 1158.0313,548.2344 Q1155.6719,548.2344 1154.4297,546.6719 Q1153.1875,545.1094 1153.1875,542.1719 Q1153.1875,539.2344 1154.4297,537.6797 Q1155.6719,536.125 1158.0313,536.125 Q1158.7031,536.125 1159.3125,536.2656 Q1159.9219,536.4063 1160.4531,536.6875 L1160.4531,539.25 Q1159.8594,538.7031 1159.2969,538.4453 Q1158.7344,538.1875 1158.1406,538.1875 Q1156.875,538.1875 1156.2344,539.1953 Q1155.5938,540.2031 1155.5938,542.1719 Q1155.5938,544.1406 1156.2344,545.1484 Q1156.875,546.1563 1158.1406,546.1563 Q1158.7344,546.1563 1159.2969,545.8984 Q1159.8594,545.6406 1160.4531,545.0938 L1160.4531,547.6563 Z "/><text fill="#19273C" font-family="sans-serif" font-size="16" lengthAdjust="spacingAndGlyphs" textLength="100" x="1172" y="547.5391">EventEmitter</text><line style="stroke: #E3ECEC; stroke-width: 1.5;" x1="1144" x2="1274" y1="558" y2="558"/><line style="stroke: #E3ECEC; stroke-width: 1.5;" x1="1144" x2="1274" y1="566" y2="566"/><path d="M482,307.794 C482,368.479 482,454.49 482,505.7232 " fill="none" style="stroke: #3C6DF0; stroke-width: 1.0;"/><polygon fill="none" points="489,505.9884,482,525.9883,475,505.9883,489,505.9884" style="stroke: #3C6DF0; stroke-width: 1.0;"/><path d="M1209,466.066 C1209,480.6788 1209,494.1893 1209,505.8805 " fill="none" style="stroke: #3C6DF0; stroke-width: 1.0;"/><polygon fill="none" points="1216,505.932,1209,525.932,1202,505.9319,1216,505.932" style="stroke: #3C6DF0; stroke-width: 1.0;"/></g></svg>