<?xml version="1.0" encoding="UTF-8" standalone="no"?><svg xmlns="http://www.w3.org/2000/svg" xmlns:xlink="http://www.w3.org/1999/xlink" contentScriptType="application/ecmascript" contentStyleType="text/css" height="185px" preserveAspectRatio="none" style="width:358px;height:185px;" version="1.1" viewBox="0 0 358 185" width="358px" zoomAndPan="magnify"><defs/><g><!--class EnumValueDeclaration--><rect fill="#F8FAFA" height="66.625" rx="1" ry="1" style="stroke: #E3ECEC; stroke-width: 1.5;" width="351" x="6" y="8.5"/><ellipse cx="90.25" cy="24.5" fill="#FFFFFF" rx="11" ry="11" style="stroke: #E3ECEC; stroke-width: 1.0;"/><path d="M92.7031,30.1563 Q92.1563,30.4375 91.5547,30.5859 Q90.9531,30.7344 90.2813,30.7344 Q87.9219,30.7344 86.6797,29.1719 Q85.4375,27.6094 85.4375,24.6719 Q85.4375,21.7344 86.6797,20.1797 Q87.9219,18.625 90.2813,18.625 Q90.9531,18.625 91.5625,18.7656 Q92.1719,18.9063 92.7031,19.1875 L92.7031,21.75 Q92.1094,21.2031 91.5469,20.9453 Q90.9844,20.6875 90.3906,20.6875 Q89.125,20.6875 88.4844,21.6953 Q87.8438,22.7031 87.8438,24.6719 Q87.8438,26.6406 88.4844,27.6484 Q89.125,28.6563 90.3906,28.6563 Q90.9844,28.6563 91.5469,28.3984 Q92.1094,28.1406 92.7031,27.5938 L92.7031,30.1563 Z "/><text fill="#19273C" font-family="sans-serif" font-size="16" lengthAdjust="spacingAndGlyphs" textLength="174" x="110.75" y="30.0391">EnumValueDeclaration</text><line style="stroke: #E3ECEC; stroke-width: 1.5;" x1="7" x2="356" y1="40.5" y2="40.5"/><line style="stroke: #E3ECEC; stroke-width: 1.5;" x1="7" x2="356" y1="48.5" y2="48.5"/><ellipse cx="17" cy="62.8125" fill="#84BE84" rx="3" ry="3" style="stroke: #038048; stroke-width: 1.0;"/><text fill="#19273C" font-family="sans-serif" font-size="16" lengthAdjust="spacingAndGlyphs" textLength="325" x="26" y="67.3516">void constructor(ClassDeclaration,Object)</text><!--class Property--><rect fill="#F8FAFA" height="48" rx="1" ry="1" style="stroke: #E3ECEC; stroke-width: 1.5;" width="100" x="131.25" y="136"/><ellipse cx="146.25" cy="152" fill="#FFFFFF" rx="11" ry="11" style="stroke: #E3ECEC; stroke-width: 1.0;"/><path d="M148.7031,157.6563 Q148.1563,157.9375 147.5547,158.0859 Q146.9531,158.2344 146.2813,158.2344 Q143.9219,158.2344 142.6797,156.6719 Q141.4375,155.1094 141.4375,152.1719 Q141.4375,149.2344 142.6797,147.6797 Q143.9219,146.125 146.2813,146.125 Q146.9531,146.125 147.5625,146.2656 Q148.1719,146.4063 148.7031,146.6875 L148.7031,149.25 Q148.1094,148.7031 147.5469,148.4453 Q146.9844,148.1875 146.3906,148.1875 Q145.125,148.1875 144.4844,149.1953 Q143.8438,150.2031 143.8438,152.1719 Q143.8438,154.1406 144.4844,155.1484 Q145.125,156.1563 146.3906,156.1563 Q146.9844,156.1563 147.5469,155.8984 Q148.1094,155.6406 148.7031,155.0938 L148.7031,157.6563 Z "/><text fill="#19273C" font-family="sans-serif" font-size="16" lengthAdjust="spacingAndGlyphs" textLength="68" x="160.25" y="157.5391">Property</text><line style="stroke: #E3ECEC; stroke-width: 1.5;" x1="132.25" x2="230.25" y1="168" y2="168"/><line style="stroke: #E3ECEC; stroke-width: 1.5;" x1="132.25" x2="230.25" y1="176" y2="176"/><path d="M181.25,75.621 C181.25,88.0487 181.25,102.4125 181.25,115.6795 " fill="none" style="stroke: #3C6DF0; stroke-width: 1.0;"/><polygon fill="none" points="188.25,115.8078,181.25,135.8077,174.25,115.8077,188.25,115.8078" style="stroke: #3C6DF0; stroke-width: 1.0;"/></g></svg>