<?xml version="1.0" encoding="UTF-8" standalone="no"?><svg xmlns="http://www.w3.org/2000/svg" xmlns:xlink="http://www.w3.org/1999/xlink" contentScriptType="application/ecmascript" contentStyleType="text/css" height="168px" preserveAspectRatio="none" style="width:612px;height:168px;" version="1.1" viewBox="0 0 612 168" width="612px" zoomAndPan="magnify"><defs/><g><!--class Factory--><rect fill="#F8FAFA" height="159.75" rx="1" ry="1" style="stroke: #E3ECEC; stroke-width: 1.5;" width="605" x="6" y="8"/><ellipse cx="274.75" cy="24" fill="#FFFFFF" rx="11" ry="11" style="stroke: #E3ECEC; stroke-width: 1.0;"/><path d="M277.2031,29.6563 Q276.6563,29.9375 276.0547,30.0859 Q275.4531,30.2344 274.7813,30.2344 Q272.4219,30.2344 271.1797,28.6719 Q269.9375,27.1094 269.9375,24.1719 Q269.9375,21.2344 271.1797,19.6797 Q272.4219,18.125 274.7813,18.125 Q275.4531,18.125 276.0625,18.2656 Q276.6719,18.4063 277.2031,18.6875 L277.2031,21.25 Q276.6094,20.7031 276.0469,20.4453 Q275.4844,20.1875 274.8906,20.1875 Q273.625,20.1875 272.9844,21.1953 Q272.3438,22.2031 272.3438,24.1719 Q272.3438,26.1406 272.9844,27.1484 Q273.625,28.1563 274.8906,28.1563 Q275.4844,28.1563 276.0469,27.8984 Q276.6094,27.6406 277.2031,27.0938 L277.2031,29.6563 Z "/><text fill="#19273C" font-family="sans-serif" font-size="16" lengthAdjust="spacingAndGlyphs" textLength="59" x="295.25" y="29.5391">Factory</text><line style="stroke: #E3ECEC; stroke-width: 1.5;" x1="7" x2="610" y1="40" y2="40"/><line style="stroke: #E3ECEC; stroke-width: 1.5;" x1="7" x2="610" y1="48" y2="48"/><ellipse cx="17" cy="62.3125" fill="#84BE84" rx="3" ry="3" style="stroke: #038048; stroke-width: 1.0;"/><text fill="#19273C" font-family="sans-serif" font-size="16" lengthAdjust="spacingAndGlyphs" textLength="254" x="26" y="66.8516">void constructor(ModelManager)</text><ellipse cx="17" cy="80.9375" fill="#84BE84" rx="3" ry="3" style="stroke: #038048; stroke-width: 1.0;"/><text fill="#19273C" font-family="sans-serif" font-size="16" lengthAdjust="spacingAndGlyphs" textLength="579" x="26" y="85.4766">Resource newResource(string,string,string,Object,boolean,string,boolean)</text><ellipse cx="17" cy="99.5625" fill="#84BE84" rx="3" ry="3" style="stroke: #038048; stroke-width: 1.0;"/><text fill="#19273C" font-family="sans-serif" font-size="16" lengthAdjust="spacingAndGlyphs" textLength="520" x="26" y="104.1016">Resource newConcept(string,string,Object,boolean,string,boolean)</text><ellipse cx="17" cy="118.1875" fill="#84BE84" rx="3" ry="3" style="stroke: #038048; stroke-width: 1.0;"/><text fill="#19273C" font-family="sans-serif" font-size="16" lengthAdjust="spacingAndGlyphs" textLength="380" x="26" y="122.7266">Relationship newRelationship(string,string,string)</text><ellipse cx="17" cy="136.8125" fill="#84BE84" rx="3" ry="3" style="stroke: #038048; stroke-width: 1.0;"/><text fill="#19273C" font-family="sans-serif" font-size="16" lengthAdjust="spacingAndGlyphs" textLength="530" x="26" y="141.3516">Resource newTransaction(string,string,string,Object,string,boolean)</text><ellipse cx="17" cy="155.4375" fill="#84BE84" rx="3" ry="3" style="stroke: #038048; stroke-width: 1.0;"/><text fill="#19273C" font-family="sans-serif" font-size="16" lengthAdjust="spacingAndGlyphs" textLength="483" x="26" y="159.9766">Resource newEvent(string,string,string,Object,string,boolean)</text></g></svg>