<?xml version="1.0" encoding="UTF-8" standalone="no"?><svg xmlns="http://www.w3.org/2000/svg" xmlns:xlink="http://www.w3.org/1999/xlink" contentScriptType="application/ecmascript" contentStyleType="text/css" height="150px" preserveAspectRatio="none" style="width:682px;height:150px;" version="1.1" viewBox="0 0 682 150" width="682px" zoomAndPan="magnify"><defs/><g><!--class Factory--><rect fill="#F8FAFA" height="141.125" rx="1" ry="1" style="stroke: #E3ECEC; stroke-width: 1.5;" width="675" x="6" y="8.5"/><ellipse cx="309.75" cy="24.5" fill="#FFFFFF" rx="11" ry="11" style="stroke: #E3ECEC; stroke-width: 1.0;"/><path d="M312.2031,30.1563 Q311.6563,30.4375 311.0547,30.5859 Q310.4531,30.7344 309.7813,30.7344 Q307.4219,30.7344 306.1797,29.1719 Q304.9375,27.6094 304.9375,24.6719 Q304.9375,21.7344 306.1797,20.1797 Q307.4219,18.625 309.7813,18.625 Q310.4531,18.625 311.0625,18.7656 Q311.6719,18.9063 312.2031,19.1875 L312.2031,21.75 Q311.6094,21.2031 311.0469,20.9453 Q310.4844,20.6875 309.8906,20.6875 Q308.625,20.6875 307.9844,21.6953 Q307.3438,22.7031 307.3438,24.6719 Q307.3438,26.6406 307.9844,27.6484 Q308.625,28.6563 309.8906,28.6563 Q310.4844,28.6563 311.0469,28.3984 Q311.6094,28.1406 312.2031,27.5938 L312.2031,30.1563 Z "/><text fill="#19273C" font-family="sans-serif" font-size="16" lengthAdjust="spacingAndGlyphs" textLength="59" x="330.25" y="30.0391">Factory</text><line style="stroke: #E3ECEC; stroke-width: 1.5;" x1="7" x2="680" y1="40.5" y2="40.5"/><line style="stroke: #E3ECEC; stroke-width: 1.5;" x1="7" x2="680" y1="48.5" y2="48.5"/><ellipse cx="17" cy="62.8125" fill="#84BE84" rx="3" ry="3" style="stroke: #038048; stroke-width: 1.0;"/><text fill="#19273C" font-family="sans-serif" font-size="16" lengthAdjust="spacingAndGlyphs" textLength="649" x="26" y="67.3516">Resource newResource(String,String,String,Object,boolean,String,boolean,boolean)</text><ellipse cx="17" cy="81.4375" fill="#84BE84" rx="3" ry="3" style="stroke: #038048; stroke-width: 1.0;"/><text fill="#19273C" font-family="sans-serif" font-size="16" lengthAdjust="spacingAndGlyphs" textLength="523" x="26" y="85.9766">Resource newConcept(String,String,Object,boolean,String,boolean)</text><ellipse cx="17" cy="100.0625" fill="#84BE84" rx="3" ry="3" style="stroke: #038048; stroke-width: 1.0;"/><text fill="#19273C" font-family="sans-serif" font-size="16" lengthAdjust="spacingAndGlyphs" textLength="383" x="26" y="104.6016">Relationship newRelationship(String,String,String)</text><ellipse cx="17" cy="118.6875" fill="#84BE84" rx="3" ry="3" style="stroke: #038048; stroke-width: 1.0;"/><text fill="#19273C" font-family="sans-serif" font-size="16" lengthAdjust="spacingAndGlyphs" textLength="600" x="26" y="123.2266">Resource newTransaction(String,String,String,Object,String,boolean,boolean)</text><ellipse cx="17" cy="137.3125" fill="#84BE84" rx="3" ry="3" style="stroke: #038048; stroke-width: 1.0;"/><text fill="#19273C" font-family="sans-serif" font-size="16" lengthAdjust="spacingAndGlyphs" textLength="553" x="26" y="141.8516">Resource newEvent(String,String,String,Object,String,boolean,boolean)</text></g></svg>