<?xml version="1.0" encoding="UTF-8" standalone="no"?><svg xmlns="http://www.w3.org/2000/svg" xmlns:xlink="http://www.w3.org/1999/xlink" contentScriptType="application/ecmascript" contentStyleType="text/css" height="315px" preserveAspectRatio="none" style="width:330px;height:315px;" version="1.1" viewBox="0 0 330 315" width="330px" zoomAndPan="magnify"><defs/><g><!--class FileWallet--><rect fill="#F8FAFA" height="197" rx="1" ry="1" style="stroke: #E3ECEC; stroke-width: 1.5;" width="323" x="6" y="8.5"/><ellipse cx="127.75" cy="24.5" fill="#FFFFFF" rx="11" ry="11" style="stroke: #E3ECEC; stroke-width: 1.0;"/><path d="M130.2031,30.1563 Q129.6563,30.4375 129.0547,30.5859 Q128.4531,30.7344 127.7813,30.7344 Q125.4219,30.7344 124.1797,29.1719 Q122.9375,27.6094 122.9375,24.6719 Q122.9375,21.7344 124.1797,20.1797 Q125.4219,18.625 127.7813,18.625 Q128.4531,18.625 129.0625,18.7656 Q129.6719,18.9063 130.2031,19.1875 L130.2031,21.75 Q129.6094,21.2031 129.0469,20.9453 Q128.4844,20.6875 127.8906,20.6875 Q126.625,20.6875 125.9844,21.6953 Q125.3438,22.7031 125.3438,24.6719 Q125.3438,26.6406 125.9844,27.6484 Q126.625,28.6563 127.8906,28.6563 Q128.4844,28.6563 129.0469,28.3984 Q129.6094,28.1406 130.2031,27.5938 L130.2031,30.1563 Z "/><text fill="#19273C" font-family="sans-serif" font-size="16" lengthAdjust="spacingAndGlyphs" textLength="71" x="148.25" y="30.0391">FileWallet</text><line style="stroke: #E3ECEC; stroke-width: 1.5;" x1="7" x2="328" y1="40.5" y2="40.5"/><line style="stroke: #E3ECEC; stroke-width: 1.5;" x1="7" x2="328" y1="48.5" y2="48.5"/><ellipse cx="17" cy="62.8125" fill="#84BE84" rx="3" ry="3" style="stroke: #038048; stroke-width: 1.0;"/><text fill="#19273C" font-family="sans-serif" font-size="16" lengthAdjust="spacingAndGlyphs" textLength="205" x="26" y="67.3516">string getHomeDirectory()</text><ellipse cx="17" cy="81.4375" fill="#84BE84" rx="3" ry="3" style="stroke: #038048; stroke-width: 1.0;"/><text fill="#19273C" font-family="sans-serif" font-size="16" lengthAdjust="spacingAndGlyphs" textLength="297" x="26" y="85.9766">void constructor(Object,string,Object)</text><ellipse cx="17" cy="100.0625" fill="#84BE84" rx="3" ry="3" style="stroke: #038048; stroke-width: 1.0;"/><text fill="#19273C" font-family="sans-serif" font-size="16" lengthAdjust="spacingAndGlyphs" textLength="101" x="26" y="104.6016">Promise list()</text><ellipse cx="17" cy="118.6875" fill="#84BE84" rx="3" ry="3" style="stroke: #038048; stroke-width: 1.0;"/><text fill="#19273C" font-family="sans-serif" font-size="16" lengthAdjust="spacingAndGlyphs" textLength="191" x="26" y="123.2266">Promise contains(string)</text><ellipse cx="17" cy="137.3125" fill="#84BE84" rx="3" ry="3" style="stroke: #038048; stroke-width: 1.0;"/><text fill="#19273C" font-family="sans-serif" font-size="16" lengthAdjust="spacingAndGlyphs" textLength="150" x="26" y="141.8516">Promise get(string)</text><ellipse cx="17" cy="155.9375" fill="#84BE84" rx="3" ry="3" style="stroke: #038048; stroke-width: 1.0;"/><text fill="#19273C" font-family="sans-serif" font-size="16" lengthAdjust="spacingAndGlyphs" textLength="204" x="26" y="160.4766">Promise add(string,string)</text><ellipse cx="17" cy="174.5625" fill="#84BE84" rx="3" ry="3" style="stroke: #038048; stroke-width: 1.0;"/><text fill="#19273C" font-family="sans-serif" font-size="16" lengthAdjust="spacingAndGlyphs" textLength="229" x="26" y="179.1016">Promise update(string,string)</text><ellipse cx="17" cy="193.1875" fill="#84BE84" rx="3" ry="3" style="stroke: #038048; stroke-width: 1.0;"/><text fill="#19273C" font-family="sans-serif" font-size="16" lengthAdjust="spacingAndGlyphs" textLength="184" x="26" y="197.7266">Promise remove(string)</text><!--class Wallet--><rect fill="#F8FAFA" height="48" rx="1" ry="1" style="stroke: #E3ECEC; stroke-width: 1.5;" width="79" x="128" y="266"/><ellipse cx="143" cy="282" fill="#FFFFFF" rx="11" ry="11" style="stroke: #E3ECEC; stroke-width: 1.0;"/><path d="M145.4531,287.6563 Q144.9063,287.9375 144.3047,288.0859 Q143.7031,288.2344 143.0313,288.2344 Q140.6719,288.2344 139.4297,286.6719 Q138.1875,285.1094 138.1875,282.1719 Q138.1875,279.2344 139.4297,277.6797 Q140.6719,276.125 143.0313,276.125 Q143.7031,276.125 144.3125,276.2656 Q144.9219,276.4063 145.4531,276.6875 L145.4531,279.25 Q144.8594,278.7031 144.2969,278.4453 Q143.7344,278.1875 143.1406,278.1875 Q141.875,278.1875 141.2344,279.1953 Q140.5938,280.2031 140.5938,282.1719 Q140.5938,284.1406 141.2344,285.1484 Q141.875,286.1563 143.1406,286.1563 Q143.7344,286.1563 144.2969,285.8984 Q144.8594,285.6406 145.4531,285.0938 L145.4531,287.6563 Z "/><text fill="#19273C" font-family="sans-serif" font-size="16" lengthAdjust="spacingAndGlyphs" textLength="47" x="157" y="287.5391">Wallet</text><line style="stroke: #E3ECEC; stroke-width: 1.5;" x1="129" x2="206" y1="298" y2="298"/><line style="stroke: #E3ECEC; stroke-width: 1.5;" x1="129" x2="206" y1="306" y2="306"/><path d="M167.25,205.652 C167.25,219.7402 167.25,233.5958 167.25,245.8417 " fill="none" style="stroke: #3C6DF0; stroke-width: 1.0;"/><polygon fill="none" points="174.25,245.8485,167.25,265.8485,160.25,245.8485,174.25,245.8485" style="stroke: #3C6DF0; stroke-width: 1.0;"/></g></svg>