<?xml version="1.0" encoding="UTF-8" standalone="no"?><svg xmlns="http://www.w3.org/2000/svg" xmlns:xlink="http://www.w3.org/1999/xlink" contentScriptType="application/ecmascript" contentStyleType="text/css" height="221px" preserveAspectRatio="none" style="width:691px;height:221px;" version="1.1" viewBox="0 0 691 221" width="691px" zoomAndPan="magnify"><defs/><g><!--class Historian--><rect fill="#F8FAFA" height="103.875" rx="1" ry="1" style="stroke: #E3ECEC; stroke-width: 1.5;" width="684" x="6" y="8"/><ellipse cx="309.25" cy="24" fill="#FFFFFF" rx="11" ry="11" style="stroke: #E3ECEC; stroke-width: 1.0;"/><path d="M311.7031,29.6563 Q311.1563,29.9375 310.5547,30.0859 Q309.9531,30.2344 309.2813,30.2344 Q306.9219,30.2344 305.6797,28.6719 Q304.4375,27.1094 304.4375,24.1719 Q304.4375,21.2344 305.6797,19.6797 Q306.9219,18.125 309.2813,18.125 Q309.9531,18.125 310.5625,18.2656 Q311.1719,18.4063 311.7031,18.6875 L311.7031,21.25 Q311.1094,20.7031 310.5469,20.4453 Q309.9844,20.1875 309.3906,20.1875 Q308.125,20.1875 307.4844,21.1953 Q306.8438,22.2031 306.8438,24.1719 Q306.8438,26.1406 307.4844,27.1484 Q308.125,28.1563 309.3906,28.1563 Q309.9844,28.1563 310.5469,27.8984 Q311.1094,27.6406 311.7031,27.0938 L311.7031,29.6563 Z "/><text fill="#19273C" font-family="sans-serif" font-size="16" lengthAdjust="spacingAndGlyphs" textLength="69" x="329.75" y="29.5391">Historian</text><line style="stroke: #E3ECEC; stroke-width: 1.5;" x1="7" x2="689" y1="40" y2="40"/><line style="stroke: #E3ECEC; stroke-width: 1.5;" x1="7" x2="689" y1="48" y2="48"/><ellipse cx="17" cy="62.3125" fill="#84BE84" rx="3" ry="3" style="stroke: #038048; stroke-width: 1.0;"/><text fill="#19273C" font-family="sans-serif" font-size="16" lengthAdjust="spacingAndGlyphs" textLength="580" x="26" y="66.8516">Promise getAllHistorians(SecurityContext,ModelManager,Factory,Serializer)</text><ellipse cx="17" cy="80.9375" fill="#84BE84" rx="3" ry="3" style="stroke: #038048; stroke-width: 1.0;"/><text fill="#19273C" font-family="sans-serif" font-size="16" lengthAdjust="spacingAndGlyphs" textLength="604" x="26" y="85.4766">Promise getHistorian(SecurityContext,string,ModelManager,Factory,Serializer)</text><ellipse cx="17" cy="99.5625" fill="#84BE84" rx="3" ry="3" style="stroke: #038048; stroke-width: 1.0;"/><text fill="#19273C" font-family="sans-serif" font-size="16" lengthAdjust="spacingAndGlyphs" textLength="658" x="26" y="104.1016">Promise addHistorian(SecurityContext,string,string,ModelManager,Factory,Serializer)</text><!--class Registry--><rect fill="#F8FAFA" height="48" rx="1" ry="1" style="stroke: #E3ECEC; stroke-width: 1.5;" width="96" x="300" y="172"/><ellipse cx="315" cy="188" fill="#FFFFFF" rx="11" ry="11" style="stroke: #E3ECEC; stroke-width: 1.0;"/><path d="M317.4531,193.6563 Q316.9063,193.9375 316.3047,194.0859 Q315.7031,194.2344 315.0313,194.2344 Q312.6719,194.2344 311.4297,192.6719 Q310.1875,191.1094 310.1875,188.1719 Q310.1875,185.2344 311.4297,183.6797 Q312.6719,182.125 315.0313,182.125 Q315.7031,182.125 316.3125,182.2656 Q316.9219,182.4063 317.4531,182.6875 L317.4531,185.25 Q316.8594,184.7031 316.2969,184.4453 Q315.7344,184.1875 315.1406,184.1875 Q313.875,184.1875 313.2344,185.1953 Q312.5938,186.2031 312.5938,188.1719 Q312.5938,190.1406 313.2344,191.1484 Q313.875,192.1563 315.1406,192.1563 Q315.7344,192.1563 316.2969,191.8984 Q316.8594,191.6406 317.4531,191.0938 L317.4531,193.6563 Z "/><text fill="#19273C" font-family="sans-serif" font-size="16" lengthAdjust="spacingAndGlyphs" textLength="64" x="329" y="193.5391">Registry</text><line style="stroke: #E3ECEC; stroke-width: 1.5;" x1="301" x2="395" y1="204" y2="204"/><line style="stroke: #E3ECEC; stroke-width: 1.5;" x1="301" x2="395" y1="212" y2="212"/><path d="M348,112.042 C348,125.0534 348,138.9174 348,151.512 " fill="none" style="stroke: #3C6DF0; stroke-width: 1.0;"/><polygon fill="none" points="355,151.7391,348,171.7391,341,151.7391,355,151.7391" style="stroke: #3C6DF0; stroke-width: 1.0;"/></g></svg>