<?xml version="1.0" encoding="UTF-8" standalone="no"?><svg xmlns="http://www.w3.org/2000/svg" xmlns:xlink="http://www.w3.org/1999/xlink" contentScriptType="application/ecmascript" contentStyleType="text/css" height="206px" preserveAspectRatio="none" style="width:258px;height:206px;" version="1.1" viewBox="0 0 258 206" width="258px" zoomAndPan="magnify"><defs/><g><!--class IdCard--><rect fill="#F8FAFA" height="197" rx="1" ry="1" style="stroke: #E3ECEC; stroke-width: 1.5;" width="251" x="6" y="8.5"/><ellipse cx="101.25" cy="24.5" fill="#FFFFFF" rx="11" ry="11" style="stroke: #E3ECEC; stroke-width: 1.0;"/><path d="M103.7031,30.1563 Q103.1563,30.4375 102.5547,30.5859 Q101.9531,30.7344 101.2813,30.7344 Q98.9219,30.7344 97.6797,29.1719 Q96.4375,27.6094 96.4375,24.6719 Q96.4375,21.7344 97.6797,20.1797 Q98.9219,18.625 101.2813,18.625 Q101.9531,18.625 102.5625,18.7656 Q103.1719,18.9063 103.7031,19.1875 L103.7031,21.75 Q103.1094,21.2031 102.5469,20.9453 Q101.9844,20.6875 101.3906,20.6875 Q100.125,20.6875 99.4844,21.6953 Q98.8438,22.7031 98.8438,24.6719 Q98.8438,26.6406 99.4844,27.6484 Q100.125,28.6563 101.3906,28.6563 Q101.9844,28.6563 102.5469,28.3984 Q103.1094,28.1406 103.7031,27.5938 L103.7031,30.1563 Z "/><text fill="#19273C" font-family="sans-serif" font-size="16" lengthAdjust="spacingAndGlyphs" textLength="52" x="121.75" y="30.0391">IdCard</text><line style="stroke: #E3ECEC; stroke-width: 1.5;" x1="7" x2="256" y1="40.5" y2="40.5"/><line style="stroke: #E3ECEC; stroke-width: 1.5;" x1="7" x2="256" y1="48.5" y2="48.5"/><ellipse cx="17" cy="62.8125" fill="#84BE84" rx="3" ry="3" style="stroke: #038048; stroke-width: 1.0;"/><text fill="#19273C" font-family="sans-serif" font-size="16" lengthAdjust="spacingAndGlyphs" textLength="133" x="26" y="67.3516">String getName()</text><ellipse cx="17" cy="81.4375" fill="#84BE84" rx="3" ry="3" style="stroke: #038048; stroke-width: 1.0;"/><text fill="#19273C" font-family="sans-serif" font-size="16" lengthAdjust="spacingAndGlyphs" textLength="176" x="26" y="85.9766">String getDescription()</text><ellipse cx="17" cy="100.0625" fill="#84BE84" rx="3" ry="3" style="stroke: #038048; stroke-width: 1.0;"/><text fill="#19273C" font-family="sans-serif" font-size="16" lengthAdjust="spacingAndGlyphs" textLength="224" x="26" y="104.6016">String getBusinessNetwork()</text><ellipse cx="17" cy="118.6875" fill="#84BE84" rx="3" ry="3" style="stroke: #038048; stroke-width: 1.0;"/><text fill="#19273C" font-family="sans-serif" font-size="16" lengthAdjust="spacingAndGlyphs" textLength="140" x="26" y="123.2266">Object getImage()</text><ellipse cx="17" cy="137.3125" fill="#84BE84" rx="3" ry="3" style="stroke: #038048; stroke-width: 1.0;"/><text fill="#19273C" font-family="sans-serif" font-size="16" lengthAdjust="spacingAndGlyphs" textLength="180" x="26" y="141.8516">Object getConnection()</text><ellipse cx="17" cy="155.9375" fill="#84BE84" rx="3" ry="3" style="stroke: #038048; stroke-width: 1.0;"/><text fill="#19273C" font-family="sans-serif" font-size="16" lengthAdjust="spacingAndGlyphs" textLength="160" x="26" y="160.4766">Map getCredentials()</text><ellipse cx="17" cy="174.5625" fill="#84BE84" rx="3" ry="3" style="stroke: #038048; stroke-width: 1.0;"/><text fill="#19273C" font-family="sans-serif" font-size="16" lengthAdjust="spacingAndGlyphs" textLength="182" x="26" y="179.1016">Map getTlsCertificates()</text><ellipse cx="17" cy="193.1875" fill="#84BE84" rx="3" ry="3" style="stroke: #038048; stroke-width: 1.0;"/><text fill="#19273C" font-family="sans-serif" font-size="16" lengthAdjust="spacingAndGlyphs" textLength="225" x="26" y="197.7266">Promise fromArchive(Buffer)</text></g></svg>