<?xml version="1.0" encoding="UTF-8" standalone="no"?><svg xmlns="http://www.w3.org/2000/svg" xmlns:xlink="http://www.w3.org/1999/xlink" contentScriptType="application/ecmascript" contentStyleType="text/css" height="203px" preserveAspectRatio="none" style="width:554px;height:203px;" version="1.1" viewBox="0 0 554 203" width="554px" zoomAndPan="magnify"><defs/><g><!--class IllegalModelException--><rect fill="#F8FAFA" height="85.25" rx="1" ry="1" style="stroke: #E3ECEC; stroke-width: 1.5;" width="547" x="6" y="8.5"/><ellipse cx="193.25" cy="24.5" fill="#FFFFFF" rx="11" ry="11" style="stroke: #E3ECEC; stroke-width: 1.0;"/><path d="M195.7031,30.1563 Q195.1563,30.4375 194.5547,30.5859 Q193.9531,30.7344 193.2813,30.7344 Q190.9219,30.7344 189.6797,29.1719 Q188.4375,27.6094 188.4375,24.6719 Q188.4375,21.7344 189.6797,20.1797 Q190.9219,18.625 193.2813,18.625 Q193.9531,18.625 194.5625,18.7656 Q195.1719,18.9063 195.7031,19.1875 L195.7031,21.75 Q195.1094,21.2031 194.5469,20.9453 Q193.9844,20.6875 193.3906,20.6875 Q192.125,20.6875 191.4844,21.6953 Q190.8438,22.7031 190.8438,24.6719 Q190.8438,26.6406 191.4844,27.6484 Q192.125,28.6563 193.3906,28.6563 Q193.9844,28.6563 194.5469,28.3984 Q195.1094,28.1406 195.7031,27.5938 L195.7031,30.1563 Z "/><text fill="#19273C" font-family="sans-serif" font-size="16" lengthAdjust="spacingAndGlyphs" textLength="164" x="213.75" y="30.0391">IllegalModelException</text><line style="stroke: #E3ECEC; stroke-width: 1.5;" x1="7" x2="552" y1="40.5" y2="40.5"/><line style="stroke: #E3ECEC; stroke-width: 1.5;" x1="7" x2="552" y1="48.5" y2="48.5"/><ellipse cx="17" cy="62.8125" fill="#84BE84" rx="3" ry="3" style="stroke: #038048; stroke-width: 1.0;"/><text fill="#19273C" font-family="sans-serif" font-size="16" lengthAdjust="spacingAndGlyphs" textLength="521" x="26" y="67.3516">void constructor(String,ModelFile,Object,String,String,String,String)</text><ellipse cx="17" cy="81.4375" fill="#84BE84" rx="3" ry="3" style="stroke: #038048; stroke-width: 1.0;"/><text fill="#19273C" font-family="sans-serif" font-size="16" lengthAdjust="spacingAndGlyphs" textLength="156" x="26" y="85.9766">string getModelFile()</text><!--class BaseModelException--><rect fill="#F8FAFA" height="48" rx="1" ry="1" style="stroke: #E3ECEC; stroke-width: 1.5;" width="192" x="183.25" y="154"/><ellipse cx="198.25" cy="170" fill="#FFFFFF" rx="11" ry="11" style="stroke: #E3ECEC; stroke-width: 1.0;"/><path d="M200.7031,175.6563 Q200.1563,175.9375 199.5547,176.0859 Q198.9531,176.2344 198.2813,176.2344 Q195.9219,176.2344 194.6797,174.6719 Q193.4375,173.1094 193.4375,170.1719 Q193.4375,167.2344 194.6797,165.6797 Q195.9219,164.125 198.2813,164.125 Q198.9531,164.125 199.5625,164.2656 Q200.1719,164.4063 200.7031,164.6875 L200.7031,167.25 Q200.1094,166.7031 199.5469,166.4453 Q198.9844,166.1875 198.3906,166.1875 Q197.125,166.1875 196.4844,167.1953 Q195.8438,168.2031 195.8438,170.1719 Q195.8438,172.1406 196.4844,173.1484 Q197.125,174.1563 198.3906,174.1563 Q198.9844,174.1563 199.5469,173.8984 Q200.1094,173.6406 200.7031,173.0938 L200.7031,175.6563 Z "/><text fill="#19273C" font-family="sans-serif" font-size="16" lengthAdjust="spacingAndGlyphs" textLength="160" x="212.25" y="175.5391">BaseModelException</text><line style="stroke: #E3ECEC; stroke-width: 1.5;" x1="184.25" x2="374.25" y1="186" y2="186"/><line style="stroke: #E3ECEC; stroke-width: 1.5;" x1="184.25" x2="374.25" y1="194" y2="194"/><path d="M279.25,93.623 C279.25,106.4535 279.25,120.61 279.25,133.5593 " fill="none" style="stroke: #3C6DF0; stroke-width: 1.0;"/><polygon fill="none" points="286.25,133.7655,279.25,153.7654,272.25,133.7654,286.25,133.7655" style="stroke: #3C6DF0; stroke-width: 1.0;"/></g></svg>