<?xml version="1.0" encoding="UTF-8" standalone="no"?><svg xmlns="http://www.w3.org/2000/svg" xmlns:xlink="http://www.w3.org/1999/xlink" contentScriptType="application/ecmascript" contentStyleType="text/css" height="203px" preserveAspectRatio="none" style="width:554px;height:203px;" version="1.1" viewBox="0 0 554 203" width="554px" zoomAndPan="magnify"><defs/><g><!--class IllegalModelException--><rect fill="#F8FAFA" height="85.25" rx="1" ry="1" style="stroke: #E3ECEC; stroke-width: 1.5;" width="547" x="6" y="8.5"/><ellipse cx="193.25" cy="24.5" fill="#FFFFFF" rx="11" ry="11" style="stroke: #E3ECEC; stroke-width: 1.0;"/><path d="M195.7031,30.1563 Q195.1563,30.4375 194.5547,30.5859 Q193.9531,30.7344 193.2813,30.7344 Q190.9219,30.7344 189.6797,29.1719 Q188.4375,27.6094 188.4375,24.6719 Q188.4375,21.7344 189.6797,20.1797 Q190.9219,18.625 193.2813,18.625 Q193.9531,18.625 194.5625,18.7656 Q195.1719,18.9063 195.7031,19.1875 L195.7031,21.75 Q195.1094,21.2031 194.5469,20.9453 Q193.9844,20.6875 193.3906,20.6875 Q192.125,20.6875 191.4844,21.6953 Q190.8438,22.7031 190.8438,24.6719 Q190.8438,26.6406 191.4844,27.6484 Q192.125,28.6563 193.3906,28.6563 Q193.9844,28.6563 194.5469,28.3984 Q195.1094,28.1406 195.7031,27.5938 L195.7031,30.1563 Z "/><text fill="#19273C" font-family="sans-serif" font-size="16" lengthAdjust="spacingAndGlyphs" textLength="164" x="213.75" y="30.0391">IllegalModelException</text><line style="stroke: #E3ECEC; stroke-width: 1.5;" x1="7" x2="552" y1="40.5" y2="40.5"/><line style="stroke: #E3ECEC; stroke-width: 1.5;" x1="7" x2="552" y1="48.5" y2="48.5"/><ellipse cx="17" cy="62.8125" fill="#84BE84" rx="3" ry="3" style="stroke: #038048; stroke-width: 1.0;"/><text fill="#19273C" font-family="sans-serif" font-size="16" lengthAdjust="spacingAndGlyphs" textLength="521" x="26" y="67.3516">void constructor(String,ModelFile,Object,String,String,String,String)</text><ellipse cx="17" cy="81.4375" fill="#84BE84" rx="3" ry="3" style="stroke: #038048; stroke-width: 1.0;"/><text fill="#19273C" font-family="sans-serif" font-size="16" lengthAdjust="spacingAndGlyphs" textLength="156" x="26" y="85.9766">string getModelFile()</text><!--class BaseFileException--><rect fill="#F8FAFA" height="48" rx="1" ry="1" style="stroke: #E3ECEC; stroke-width: 1.5;" width="171" x="194" y="154"/><ellipse cx="209" cy="170" fill="#FFFFFF" rx="11" ry="11" style="stroke: #E3ECEC; stroke-width: 1.0;"/><path d="M211.4531,175.6563 Q210.9063,175.9375 210.3047,176.0859 Q209.7031,176.2344 209.0313,176.2344 Q206.6719,176.2344 205.4297,174.6719 Q204.1875,173.1094 204.1875,170.1719 Q204.1875,167.2344 205.4297,165.6797 Q206.6719,164.125 209.0313,164.125 Q209.7031,164.125 210.3125,164.2656 Q210.9219,164.4063 211.4531,164.6875 L211.4531,167.25 Q210.8594,166.7031 210.2969,166.4453 Q209.7344,166.1875 209.1406,166.1875 Q207.875,166.1875 207.2344,167.1953 Q206.5938,168.2031 206.5938,170.1719 Q206.5938,172.1406 207.2344,173.1484 Q207.875,174.1563 209.1406,174.1563 Q209.7344,174.1563 210.2969,173.8984 Q210.8594,173.6406 211.4531,173.0938 L211.4531,175.6563 Z "/><text fill="#19273C" font-family="sans-serif" font-size="16" lengthAdjust="spacingAndGlyphs" textLength="139" x="223" y="175.5391">BaseFileException</text><line style="stroke: #E3ECEC; stroke-width: 1.5;" x1="195" x2="364" y1="186" y2="186"/><line style="stroke: #E3ECEC; stroke-width: 1.5;" x1="195" x2="364" y1="194" y2="194"/><path d="M279.25,93.623 C279.25,106.4535 279.25,120.61 279.25,133.5593 " fill="none" style="stroke: #3C6DF0; stroke-width: 1.0;"/><polygon fill="none" points="286.25,133.7655,279.25,153.7654,272.25,133.7654,286.25,133.7655" style="stroke: #3C6DF0; stroke-width: 1.0;"/></g></svg>