<?xml version="1.0" encoding="UTF-8" standalone="no"?><svg xmlns="http://www.w3.org/2000/svg" xmlns:xlink="http://www.w3.org/1999/xlink" contentScriptType="application/ecmascript" contentStyleType="text/css" height="221px" preserveAspectRatio="none" style="width:554px;height:221px;" version="1.1" viewBox="0 0 554 221" width="554px" zoomAndPan="magnify"><defs/><g><!--class IllegalModelException--><rect fill="#F8FAFA" height="103.875" rx="1" ry="1" style="stroke: #E3ECEC; stroke-width: 1.5;" width="547" x="6" y="8"/><ellipse cx="193.25" cy="24" fill="#FFFFFF" rx="11" ry="11" style="stroke: #E3ECEC; stroke-width: 1.0;"/><path d="M195.7031,29.6563 Q195.1563,29.9375 194.5547,30.0859 Q193.9531,30.2344 193.2813,30.2344 Q190.9219,30.2344 189.6797,28.6719 Q188.4375,27.1094 188.4375,24.1719 Q188.4375,21.2344 189.6797,19.6797 Q190.9219,18.125 193.2813,18.125 Q193.9531,18.125 194.5625,18.2656 Q195.1719,18.4063 195.7031,18.6875 L195.7031,21.25 Q195.1094,20.7031 194.5469,20.4453 Q193.9844,20.1875 193.3906,20.1875 Q192.125,20.1875 191.4844,21.1953 Q190.8438,22.2031 190.8438,24.1719 Q190.8438,26.1406 191.4844,27.1484 Q192.125,28.1563 193.3906,28.1563 Q193.9844,28.1563 194.5469,27.8984 Q195.1094,27.6406 195.7031,27.0938 L195.7031,29.6563 Z "/><text fill="#19273C" font-family="sans-serif" font-size="16" lengthAdjust="spacingAndGlyphs" textLength="164" x="213.75" y="29.5391">IllegalModelException</text><line style="stroke: #E3ECEC; stroke-width: 1.5;" x1="7" x2="552" y1="40" y2="40"/><line style="stroke: #E3ECEC; stroke-width: 1.5;" x1="7" x2="552" y1="48" y2="48"/><ellipse cx="17" cy="62.3125" fill="#84BE84" rx="3" ry="3" style="stroke: #038048; stroke-width: 1.0;"/><text fill="#19273C" font-family="sans-serif" font-size="16" lengthAdjust="spacingAndGlyphs" textLength="521" x="26" y="66.8516">void constructor(String,ModelFile,Object,String,String,String,String)</text><ellipse cx="17" cy="80.9375" fill="#84BE84" rx="3" ry="3" style="stroke: #038048; stroke-width: 1.0;"/><text fill="#19273C" font-family="sans-serif" font-size="16" lengthAdjust="spacingAndGlyphs" textLength="156" x="26" y="85.4766">string getModelFile()</text><ellipse cx="17" cy="99.5625" fill="#84BE84" rx="3" ry="3" style="stroke: #038048; stroke-width: 1.0;"/><text fill="#19273C" font-family="sans-serif" font-size="16" lengthAdjust="spacingAndGlyphs" textLength="177" x="26" y="104.1016">string getFileLocation()</text><!--class BaseException--><rect fill="#F8FAFA" height="48" rx="1" ry="1" style="stroke: #E3ECEC; stroke-width: 1.5;" width="147" x="206" y="172"/><ellipse cx="221" cy="188" fill="#FFFFFF" rx="11" ry="11" style="stroke: #E3ECEC; stroke-width: 1.0;"/><path d="M223.4531,193.6563 Q222.9063,193.9375 222.3047,194.0859 Q221.7031,194.2344 221.0313,194.2344 Q218.6719,194.2344 217.4297,192.6719 Q216.1875,191.1094 216.1875,188.1719 Q216.1875,185.2344 217.4297,183.6797 Q218.6719,182.125 221.0313,182.125 Q221.7031,182.125 222.3125,182.2656 Q222.9219,182.4063 223.4531,182.6875 L223.4531,185.25 Q222.8594,184.7031 222.2969,184.4453 Q221.7344,184.1875 221.1406,184.1875 Q219.875,184.1875 219.2344,185.1953 Q218.5938,186.2031 218.5938,188.1719 Q218.5938,190.1406 219.2344,191.1484 Q219.875,192.1563 221.1406,192.1563 Q221.7344,192.1563 222.2969,191.8984 Q222.8594,191.6406 223.4531,191.0938 L223.4531,193.6563 Z "/><text fill="#19273C" font-family="sans-serif" font-size="16" lengthAdjust="spacingAndGlyphs" textLength="115" x="235" y="193.5391">BaseException</text><line style="stroke: #E3ECEC; stroke-width: 1.5;" x1="207" x2="352" y1="204" y2="204"/><line style="stroke: #E3ECEC; stroke-width: 1.5;" x1="207" x2="352" y1="212" y2="212"/><path d="M279.25,112.042 C279.25,125.0534 279.25,138.9174 279.25,151.512 " fill="none" style="stroke: #3C6DF0; stroke-width: 1.0;"/><polygon fill="none" points="286.25,151.7391,279.25,171.7391,272.25,151.7391,286.25,151.7391" style="stroke: #3C6DF0; stroke-width: 1.0;"/></g></svg>