<?xml version="1.0" encoding="UTF-8" standalone="no"?><svg xmlns="http://www.w3.org/2000/svg" xmlns:xlink="http://www.w3.org/1999/xlink" contentScriptType="application/ecmascript" contentStyleType="text/css" height="185px" preserveAspectRatio="none" style="width:320px;height:185px;" version="1.1" viewBox="0 0 320 185" width="320px" zoomAndPan="magnify"><defs/><g><!--class ParseException--><rect fill="#F8FAFA" height="66.625" rx="1" ry="1" style="stroke: #E3ECEC; stroke-width: 1.5;" width="313" x="6" y="8.5"/><ellipse cx="97.75" cy="24.5" fill="#FFFFFF" rx="11" ry="11" style="stroke: #E3ECEC; stroke-width: 1.0;"/><path d="M100.2031,30.1563 Q99.6563,30.4375 99.0547,30.5859 Q98.4531,30.7344 97.7813,30.7344 Q95.4219,30.7344 94.1797,29.1719 Q92.9375,27.6094 92.9375,24.6719 Q92.9375,21.7344 94.1797,20.1797 Q95.4219,18.625 97.7813,18.625 Q98.4531,18.625 99.0625,18.7656 Q99.6719,18.9063 100.2031,19.1875 L100.2031,21.75 Q99.6094,21.2031 99.0469,20.9453 Q98.4844,20.6875 97.8906,20.6875 Q96.625,20.6875 95.9844,21.6953 Q95.3438,22.7031 95.3438,24.6719 Q95.3438,26.6406 95.9844,27.6484 Q96.625,28.6563 97.8906,28.6563 Q98.4844,28.6563 99.0469,28.3984 Q99.6094,28.1406 100.2031,27.5938 L100.2031,30.1563 Z "/><text fill="#19273C" font-family="sans-serif" font-size="16" lengthAdjust="spacingAndGlyphs" textLength="121" x="118.25" y="30.0391">ParseException</text><line style="stroke: #E3ECEC; stroke-width: 1.5;" x1="7" x2="318" y1="40.5" y2="40.5"/><line style="stroke: #E3ECEC; stroke-width: 1.5;" x1="7" x2="318" y1="48.5" y2="48.5"/><ellipse cx="17" cy="62.8125" fill="#84BE84" rx="3" ry="3" style="stroke: #038048; stroke-width: 1.0;"/><text fill="#19273C" font-family="sans-serif" font-size="16" lengthAdjust="spacingAndGlyphs" textLength="287" x="26" y="67.3516">void constructor(string,string,string)</text><!--class BaseFileException--><rect fill="#F8FAFA" height="48" rx="1" ry="1" style="stroke: #E3ECEC; stroke-width: 1.5;" width="171" x="77" y="136"/><ellipse cx="92" cy="152" fill="#FFFFFF" rx="11" ry="11" style="stroke: #E3ECEC; stroke-width: 1.0;"/><path d="M94.4531,157.6563 Q93.9063,157.9375 93.3047,158.0859 Q92.7031,158.2344 92.0313,158.2344 Q89.6719,158.2344 88.4297,156.6719 Q87.1875,155.1094 87.1875,152.1719 Q87.1875,149.2344 88.4297,147.6797 Q89.6719,146.125 92.0313,146.125 Q92.7031,146.125 93.3125,146.2656 Q93.9219,146.4063 94.4531,146.6875 L94.4531,149.25 Q93.8594,148.7031 93.2969,148.4453 Q92.7344,148.1875 92.1406,148.1875 Q90.875,148.1875 90.2344,149.1953 Q89.5938,150.2031 89.5938,152.1719 Q89.5938,154.1406 90.2344,155.1484 Q90.875,156.1563 92.1406,156.1563 Q92.7344,156.1563 93.2969,155.8984 Q93.8594,155.6406 94.4531,155.0938 L94.4531,157.6563 Z "/><text fill="#19273C" font-family="sans-serif" font-size="16" lengthAdjust="spacingAndGlyphs" textLength="139" x="106" y="157.5391">BaseFileException</text><line style="stroke: #E3ECEC; stroke-width: 1.5;" x1="78" x2="247" y1="168" y2="168"/><line style="stroke: #E3ECEC; stroke-width: 1.5;" x1="78" x2="247" y1="176" y2="176"/><path d="M162.25,75.621 C162.25,88.0487 162.25,102.4125 162.25,115.6795 " fill="none" style="stroke: #3C6DF0; stroke-width: 1.0;"/><polygon fill="none" points="169.25,115.8078,162.25,135.8077,155.25,115.8077,169.25,115.8078" style="stroke: #3C6DF0; stroke-width: 1.0;"/></g></svg>