<?xml version="1.0" encoding="UTF-8" standalone="no"?><svg xmlns="http://www.w3.org/2000/svg" xmlns:xlink="http://www.w3.org/1999/xlink" contentScriptType="application/ecmascript" contentStyleType="text/css" height="221px" preserveAspectRatio="none" style="width:299px;height:221px;" version="1.1" viewBox="0 0 299 221" width="299px" zoomAndPan="magnify"><defs/><g><!--class ParticipantDeclaration--><rect fill="#F8FAFA" height="103.875" rx="1" ry="1" style="stroke: #E3ECEC; stroke-width: 1.5;" width="292" x="6" y="8"/><ellipse cx="63.25" cy="24" fill="#FFFFFF" rx="11" ry="11" style="stroke: #E3ECEC; stroke-width: 1.0;"/><path d="M65.7031,29.6563 Q65.1563,29.9375 64.5547,30.0859 Q63.9531,30.2344 63.2813,30.2344 Q60.9219,30.2344 59.6797,28.6719 Q58.4375,27.1094 58.4375,24.1719 Q58.4375,21.2344 59.6797,19.6797 Q60.9219,18.125 63.2813,18.125 Q63.9531,18.125 64.5625,18.2656 Q65.1719,18.4063 65.7031,18.6875 L65.7031,21.25 Q65.1094,20.7031 64.5469,20.4453 Q63.9844,20.1875 63.3906,20.1875 Q62.125,20.1875 61.4844,21.1953 Q60.8438,22.2031 60.8438,24.1719 Q60.8438,26.1406 61.4844,27.1484 Q62.125,28.1563 63.3906,28.1563 Q63.9844,28.1563 64.5469,27.8984 Q65.1094,27.6406 65.7031,27.0938 L65.7031,29.6563 Z "/><text fill="#19273C" font-family="sans-serif" font-size="16" lengthAdjust="spacingAndGlyphs" textLength="169" x="83.75" y="29.5391">ParticipantDeclaration</text><line style="stroke: #E3ECEC; stroke-width: 1.5;" x1="7" x2="297" y1="40" y2="40"/><line style="stroke: #E3ECEC; stroke-width: 1.5;" x1="7" x2="297" y1="48" y2="48"/><ellipse cx="17" cy="62.3125" fill="#84BE84" rx="3" ry="3" style="stroke: #038048; stroke-width: 1.0;"/><text fill="#19273C" font-family="sans-serif" font-size="16" lengthAdjust="spacingAndGlyphs" textLength="266" x="26" y="66.8516">void constructor(ModelFile,Object)</text><ellipse cx="17" cy="80.9375" fill="#84BE84" rx="3" ry="3" style="stroke: #038048; stroke-width: 1.0;"/><text fill="#19273C" font-family="sans-serif" font-size="16" lengthAdjust="spacingAndGlyphs" textLength="233" x="26" y="85.4766">boolean isRelationshipTarget()</text><ellipse cx="17" cy="99.5625" fill="#84BE84" rx="3" ry="3" style="stroke: #038048; stroke-width: 1.0;"/><text fill="#19273C" font-family="sans-serif" font-size="16" lengthAdjust="spacingAndGlyphs" textLength="182" x="26" y="104.1016">string getSystemType()</text><!--class ClassDeclaration--><rect fill="#F8FAFA" height="48" rx="1" ry="1" style="stroke: #E3ECEC; stroke-width: 1.5;" width="160" x="72" y="172"/><ellipse cx="87" cy="188" fill="#FFFFFF" rx="11" ry="11" style="stroke: #E3ECEC; stroke-width: 1.0;"/><path d="M89.4531,193.6563 Q88.9063,193.9375 88.3047,194.0859 Q87.7031,194.2344 87.0313,194.2344 Q84.6719,194.2344 83.4297,192.6719 Q82.1875,191.1094 82.1875,188.1719 Q82.1875,185.2344 83.4297,183.6797 Q84.6719,182.125 87.0313,182.125 Q87.7031,182.125 88.3125,182.2656 Q88.9219,182.4063 89.4531,182.6875 L89.4531,185.25 Q88.8594,184.7031 88.2969,184.4453 Q87.7344,184.1875 87.1406,184.1875 Q85.875,184.1875 85.2344,185.1953 Q84.5938,186.2031 84.5938,188.1719 Q84.5938,190.1406 85.2344,191.1484 Q85.875,192.1563 87.1406,192.1563 Q87.7344,192.1563 88.2969,191.8984 Q88.8594,191.6406 89.4531,191.0938 L89.4531,193.6563 Z "/><text fill="#19273C" font-family="sans-serif" font-size="16" lengthAdjust="spacingAndGlyphs" textLength="128" x="101" y="193.5391">ClassDeclaration</text><line style="stroke: #E3ECEC; stroke-width: 1.5;" x1="73" x2="231" y1="204" y2="204"/><line style="stroke: #E3ECEC; stroke-width: 1.5;" x1="73" x2="231" y1="212" y2="212"/><path d="M152,112.042 C152,125.0534 152,138.9174 152,151.512 " fill="none" style="stroke: #3C6DF0; stroke-width: 1.0;"/><polygon fill="none" points="159,151.7391,152,171.7391,145,151.7391,159,151.7391" style="stroke: #3C6DF0; stroke-width: 1.0;"/></g></svg>