<?xml version="1.0" encoding="UTF-8" standalone="no"?><svg xmlns="http://www.w3.org/2000/svg" xmlns:xlink="http://www.w3.org/1999/xlink" contentScriptType="application/ecmascript" contentStyleType="text/css" height="241px" preserveAspectRatio="none" style="width:768px;height:241px;" version="1.1" viewBox="0 0 768 241" width="768px" zoomAndPan="magnify"><defs/><g><!--class ParticipantRegistry--><rect fill="#F8FAFA" height="122.5" rx="1" ry="1" style="stroke: #E3ECEC; stroke-width: 1.5;" width="761" x="6" y="8.5"/><ellipse cx="309.25" cy="24.5" fill="#FFFFFF" rx="11" ry="11" style="stroke: #E3ECEC; stroke-width: 1.0;"/><path d="M311.7031,30.1563 Q311.1563,30.4375 310.5547,30.5859 Q309.9531,30.7344 309.2813,30.7344 Q306.9219,30.7344 305.6797,29.1719 Q304.4375,27.6094 304.4375,24.6719 Q304.4375,21.7344 305.6797,20.1797 Q306.9219,18.625 309.2813,18.625 Q309.9531,18.625 310.5625,18.7656 Q311.1719,18.9063 311.7031,19.1875 L311.7031,21.75 Q311.1094,21.2031 310.5469,20.9453 Q309.9844,20.6875 309.3906,20.6875 Q308.125,20.6875 307.4844,21.6953 Q306.8438,22.7031 306.8438,24.6719 Q306.8438,26.6406 307.4844,27.6484 Q308.125,28.6563 309.3906,28.6563 Q309.9844,28.6563 310.5469,28.3984 Q311.1094,28.1406 311.7031,27.5938 L311.7031,30.1563 Z "/><text fill="#19273C" font-family="sans-serif" font-size="16" lengthAdjust="spacingAndGlyphs" textLength="146" x="329.75" y="30.0391">ParticipantRegistry</text><line style="stroke: #E3ECEC; stroke-width: 1.5;" x1="7" x2="766" y1="40.5" y2="40.5"/><line style="stroke: #E3ECEC; stroke-width: 1.5;" x1="7" x2="766" y1="48.5" y2="48.5"/><ellipse cx="17" cy="62.8125" fill="#84BE84" rx="3" ry="3" style="stroke: #038048; stroke-width: 1.0;"/><text fill="#19273C" font-family="sans-serif" font-size="16" lengthAdjust="spacingAndGlyphs" textLength="660" x="26" y="67.3516">Promise getAllParticipantRegistries(SecurityContext,ModelManager,Factory,Serializer)</text><ellipse cx="17" cy="81.4375" fill="#84BE84" rx="3" ry="3" style="stroke: #038048; stroke-width: 1.0;"/><text fill="#19273C" font-family="sans-serif" font-size="16" lengthAdjust="spacingAndGlyphs" textLength="681" x="26" y="85.9766">Promise getParticipantRegistry(SecurityContext,string,ModelManager,Factory,Serializer)</text><ellipse cx="17" cy="100.0625" fill="#84BE84" rx="3" ry="3" style="stroke: #038048; stroke-width: 1.0;"/><text fill="#19273C" font-family="sans-serif" font-size="16" lengthAdjust="spacingAndGlyphs" textLength="735" x="26" y="104.6016">Promise addParticipantRegistry(SecurityContext,string,string,ModelManager,Factory,Serializer)</text><ellipse cx="17" cy="118.6875" fill="#84BE84" rx="3" ry="3" style="stroke: #038048; stroke-width: 1.0;"/><text fill="#19273C" font-family="sans-serif" font-size="16" lengthAdjust="spacingAndGlyphs" textLength="622" x="26" y="123.2266">void constructor(string,string,SecurityContext,ModelManager,Factory,Serializer)</text><!--class Registry--><rect fill="#F8FAFA" height="48" rx="1" ry="1" style="stroke: #E3ECEC; stroke-width: 1.5;" width="96" x="338.25" y="192"/><ellipse cx="353.25" cy="208" fill="#FFFFFF" rx="11" ry="11" style="stroke: #E3ECEC; stroke-width: 1.0;"/><path d="M355.7031,213.6563 Q355.1563,213.9375 354.5547,214.0859 Q353.9531,214.2344 353.2813,214.2344 Q350.9219,214.2344 349.6797,212.6719 Q348.4375,211.1094 348.4375,208.1719 Q348.4375,205.2344 349.6797,203.6797 Q350.9219,202.125 353.2813,202.125 Q353.9531,202.125 354.5625,202.2656 Q355.1719,202.4063 355.7031,202.6875 L355.7031,205.25 Q355.1094,204.7031 354.5469,204.4453 Q353.9844,204.1875 353.3906,204.1875 Q352.125,204.1875 351.4844,205.1953 Q350.8438,206.2031 350.8438,208.1719 Q350.8438,210.1406 351.4844,211.1484 Q352.125,212.1563 353.3906,212.1563 Q353.9844,212.1563 354.5469,211.8984 Q355.1094,211.6406 355.7031,211.0938 L355.7031,213.6563 Z "/><text fill="#19273C" font-family="sans-serif" font-size="16" lengthAdjust="spacingAndGlyphs" textLength="64" x="367.25" y="213.5391">Registry</text><line style="stroke: #E3ECEC; stroke-width: 1.5;" x1="339.25" x2="433.25" y1="224" y2="224"/><line style="stroke: #E3ECEC; stroke-width: 1.5;" x1="339.25" x2="433.25" y1="232" y2="232"/><path d="M386.25,131.652 C386.25,145.0763 386.25,159.041 386.25,171.615 " fill="none" style="stroke: #3C6DF0; stroke-width: 1.0;"/><polygon fill="none" points="393.25,171.7214,386.25,191.7214,379.25,171.7214,393.25,171.7214" style="stroke: #3C6DF0; stroke-width: 1.0;"/></g></svg>