<?xml version="1.0" encoding="UTF-8" standalone="no"?><svg xmlns="http://www.w3.org/2000/svg" xmlns:xlink="http://www.w3.org/1999/xlink" contentScriptType="application/ecmascript" contentStyleType="text/css" height="371px" preserveAspectRatio="none" style="width:358px;height:371px;" version="1.1" viewBox="0 0 358 371" width="358px" zoomAndPan="magnify"><defs/><g><!--class Property--><rect fill="#F8FAFA" height="252.875" rx="1" ry="1" style="stroke: #E3ECEC; stroke-width: 1.5;" width="351" x="6" y="8.5"/><ellipse cx="143.25" cy="24.5" fill="#FFFFFF" rx="11" ry="11" style="stroke: #E3ECEC; stroke-width: 1.0;"/><path d="M145.7031,30.1563 Q145.1563,30.4375 144.5547,30.5859 Q143.9531,30.7344 143.2813,30.7344 Q140.9219,30.7344 139.6797,29.1719 Q138.4375,27.6094 138.4375,24.6719 Q138.4375,21.7344 139.6797,20.1797 Q140.9219,18.625 143.2813,18.625 Q143.9531,18.625 144.5625,18.7656 Q145.1719,18.9063 145.7031,19.1875 L145.7031,21.75 Q145.1094,21.2031 144.5469,20.9453 Q143.9844,20.6875 143.3906,20.6875 Q142.125,20.6875 141.4844,21.6953 Q140.8438,22.7031 140.8438,24.6719 Q140.8438,26.6406 141.4844,27.6484 Q142.125,28.6563 143.3906,28.6563 Q143.9844,28.6563 144.5469,28.3984 Q145.1094,28.1406 145.7031,27.5938 L145.7031,30.1563 Z "/><text fill="#19273C" font-family="sans-serif" font-size="16" lengthAdjust="spacingAndGlyphs" textLength="68" x="163.75" y="30.0391">Property</text><line style="stroke: #E3ECEC; stroke-width: 1.5;" x1="7" x2="356" y1="40.5" y2="40.5"/><line style="stroke: #E3ECEC; stroke-width: 1.5;" x1="7" x2="356" y1="48.5" y2="48.5"/><ellipse cx="17" cy="62.8125" fill="#84BE84" rx="3" ry="3" style="stroke: #038048; stroke-width: 1.0;"/><text fill="#19273C" font-family="sans-serif" font-size="16" lengthAdjust="spacingAndGlyphs" textLength="325" x="26" y="67.3516">void constructor(ClassDeclaration,Object)</text><ellipse cx="17" cy="81.4375" fill="#84BE84" rx="3" ry="3" style="stroke: #038048; stroke-width: 1.0;"/><text fill="#19273C" font-family="sans-serif" font-size="16" lengthAdjust="spacingAndGlyphs" textLength="221" x="26" y="85.9766">ClassDeclaration getParent()</text><ellipse cx="17" cy="100.0625" fill="#84BE84" rx="3" ry="3" style="stroke: #038048; stroke-width: 1.0;"/><text fill="#19273C" font-family="sans-serif" font-size="16" lengthAdjust="spacingAndGlyphs" textLength="132" x="26" y="104.6016">string getName()</text><ellipse cx="17" cy="118.6875" fill="#84BE84" rx="3" ry="3" style="stroke: #038048; stroke-width: 1.0;"/><text fill="#19273C" font-family="sans-serif" font-size="16" lengthAdjust="spacingAndGlyphs" textLength="124" x="26" y="123.2266">string getType()</text><ellipse cx="17" cy="137.3125" fill="#84BE84" rx="3" ry="3" style="stroke: #038048; stroke-width: 1.0;"/><text fill="#19273C" font-family="sans-serif" font-size="16" lengthAdjust="spacingAndGlyphs" textLength="154" x="26" y="141.8516">boolean isOptional()</text><ellipse cx="17" cy="155.9375" fill="#84BE84" rx="3" ry="3" style="stroke: #038048; stroke-width: 1.0;"/><text fill="#19273C" font-family="sans-serif" font-size="16" lengthAdjust="spacingAndGlyphs" textLength="269" x="26" y="160.4766">string getFullyQualifiedTypeName()</text><ellipse cx="17" cy="174.5625" fill="#84BE84" rx="3" ry="3" style="stroke: #038048; stroke-width: 1.0;"/><text fill="#19273C" font-family="sans-serif" font-size="16" lengthAdjust="spacingAndGlyphs" textLength="232" x="26" y="179.1016">string getFullyQualifiedName()</text><ellipse cx="17" cy="193.1875" fill="#84BE84" rx="3" ry="3" style="stroke: #038048; stroke-width: 1.0;"/><text fill="#19273C" font-family="sans-serif" font-size="16" lengthAdjust="spacingAndGlyphs" textLength="178" x="26" y="197.7266">string getNamespace()</text><ellipse cx="17" cy="211.8125" fill="#84BE84" rx="3" ry="3" style="stroke: #038048; stroke-width: 1.0;"/><text fill="#19273C" font-family="sans-serif" font-size="16" lengthAdjust="spacingAndGlyphs" textLength="133" x="26" y="216.3516">boolean isArray()</text><ellipse cx="17" cy="230.4375" fill="#84BE84" rx="3" ry="3" style="stroke: #038048; stroke-width: 1.0;"/><text fill="#19273C" font-family="sans-serif" font-size="16" lengthAdjust="spacingAndGlyphs" textLength="172" x="26" y="234.9766">boolean isTypeEnum()</text><ellipse cx="17" cy="249.0625" fill="#84BE84" rx="3" ry="3" style="stroke: #038048; stroke-width: 1.0;"/><text fill="#19273C" font-family="sans-serif" font-size="16" lengthAdjust="spacingAndGlyphs" textLength="155" x="26" y="253.6016">boolean isPrimitive()</text><!--class Decorated--><rect fill="#F8FAFA" height="48" rx="1" ry="1" style="stroke: #E3ECEC; stroke-width: 1.5;" width="113" x="125" y="322"/><ellipse cx="140" cy="338" fill="#FFFFFF" rx="11" ry="11" style="stroke: #E3ECEC; stroke-width: 1.0;"/><path d="M142.4531,343.6563 Q141.9063,343.9375 141.3047,344.0859 Q140.7031,344.2344 140.0313,344.2344 Q137.6719,344.2344 136.4297,342.6719 Q135.1875,341.1094 135.1875,338.1719 Q135.1875,335.2344 136.4297,333.6797 Q137.6719,332.125 140.0313,332.125 Q140.7031,332.125 141.3125,332.2656 Q141.9219,332.4063 142.4531,332.6875 L142.4531,335.25 Q141.8594,334.7031 141.2969,334.4453 Q140.7344,334.1875 140.1406,334.1875 Q138.875,334.1875 138.2344,335.1953 Q137.5938,336.2031 137.5938,338.1719 Q137.5938,340.1406 138.2344,341.1484 Q138.875,342.1563 140.1406,342.1563 Q140.7344,342.1563 141.2969,341.8984 Q141.8594,341.6406 142.4531,341.0938 L142.4531,343.6563 Z "/><text fill="#19273C" font-family="sans-serif" font-size="16" lengthAdjust="spacingAndGlyphs" textLength="81" x="154" y="343.5391">Decorated</text><line style="stroke: #E3ECEC; stroke-width: 1.5;" x1="126" x2="237" y1="354" y2="354"/><line style="stroke: #E3ECEC; stroke-width: 1.5;" x1="126" x2="237" y1="362" y2="362"/><path d="M181.25,261.797 C181.25,275.9901 181.25,289.6357 181.25,301.6257 " fill="none" style="stroke: #3C6DF0; stroke-width: 1.0;"/><polygon fill="none" points="188.25,301.761,181.25,321.7609,174.25,301.7609,188.25,301.761" style="stroke: #3C6DF0; stroke-width: 1.0;"/></g></svg>