<?xml version="1.0" encoding="UTF-8" standalone="no"?><svg xmlns="http://www.w3.org/2000/svg" xmlns:xlink="http://www.w3.org/1999/xlink" contentScriptType="application/ecmascript" contentStyleType="text/css" height="539px" preserveAspectRatio="none" style="width:998px;height:539px;" version="1.1" viewBox="0 0 998 539" width="998px" zoomAndPan="magnify"><defs/><g><!--class Registry--><rect fill="#F8FAFA" height="346" rx="1" ry="1" style="stroke: #E3ECEC; stroke-width: 1.5;" width="927" x="38" y="192"/><ellipse cx="465.25" cy="208" fill="#FFFFFF" rx="11" ry="11" style="stroke: #E3ECEC; stroke-width: 1.0;"/><path d="M467.7031,213.6563 Q467.1563,213.9375 466.5547,214.0859 Q465.9531,214.2344 465.2813,214.2344 Q462.9219,214.2344 461.6797,212.6719 Q460.4375,211.1094 460.4375,208.1719 Q460.4375,205.2344 461.6797,203.6797 Q462.9219,202.125 465.2813,202.125 Q465.9531,202.125 466.5625,202.2656 Q467.1719,202.4063 467.7031,202.6875 L467.7031,205.25 Q467.1094,204.7031 466.5469,204.4453 Q465.9844,204.1875 465.3906,204.1875 Q464.125,204.1875 463.4844,205.1953 Q462.8438,206.2031 462.8438,208.1719 Q462.8438,210.1406 463.4844,211.1484 Q464.125,212.1563 465.3906,212.1563 Q465.9844,212.1563 466.5469,211.8984 Q467.1094,211.6406 467.7031,211.0938 L467.7031,213.6563 Z "/><text fill="#19273C" font-family="sans-serif" font-size="16" lengthAdjust="spacingAndGlyphs" textLength="64" x="485.75" y="213.5391">Registry</text><line style="stroke: #E3ECEC; stroke-width: 1.5;" x1="39" x2="964" y1="224" y2="224"/><line style="stroke: #E3ECEC; stroke-width: 1.5;" x1="39" x2="964" y1="232" y2="232"/><ellipse cx="49" cy="246.3125" fill="#84BE84" rx="3" ry="3" style="stroke: #038048; stroke-width: 1.0;"/><text fill="#19273C" font-family="sans-serif" font-size="16" lengthAdjust="spacingAndGlyphs" textLength="439" x="58" y="250.8516">Promise getAllRegistries(SecurityContext,string,boolean)</text><ellipse cx="49" cy="264.9375" fill="#84BE84" rx="3" ry="3" style="stroke: #038048; stroke-width: 1.0;"/><text fill="#19273C" font-family="sans-serif" font-size="16" lengthAdjust="spacingAndGlyphs" textLength="394" x="58" y="269.4766">Promise getRegistry(SecurityContext,string,string)</text><ellipse cx="49" cy="283.5625" fill="#84BE84" rx="3" ry="3" style="stroke: #038048; stroke-width: 1.0;"/><text fill="#19273C" font-family="sans-serif" font-size="16" lengthAdjust="spacingAndGlyphs" textLength="415" x="58" y="288.1016">Promise existsRegistry(SecurityContext,string,string)</text><ellipse cx="49" cy="302.1875" fill="#84BE84" rx="3" ry="3" style="stroke: #038048; stroke-width: 1.0;"/><text fill="#19273C" font-family="sans-serif" font-size="16" lengthAdjust="spacingAndGlyphs" textLength="448" x="58" y="306.7266">Promise addRegistry(SecurityContext,string,string,string)</text><ellipse cx="49" cy="320.8125" fill="#84BE84" rx="3" ry="3" style="stroke: #038048; stroke-width: 1.0;"/><text fill="#19273C" font-family="sans-serif" font-size="16" lengthAdjust="spacingAndGlyphs" textLength="901" x="58" y="325.3516">void constructor(string,string,string,SecurityContext,ModelManager,Factory,Serializer,BusinessNetworkConnection)</text><ellipse cx="49" cy="339.4375" fill="#84BE84" rx="3" ry="3" style="stroke: #038048; stroke-width: 1.0;"/><text fill="#19273C" font-family="sans-serif" font-size="16" lengthAdjust="spacingAndGlyphs" textLength="212" x="58" y="343.9766">Promise addAll(Resource[])</text><ellipse cx="49" cy="358.0625" fill="#84BE84" rx="3" ry="3" style="stroke: #038048; stroke-width: 1.0;"/><text fill="#19273C" font-family="sans-serif" font-size="16" lengthAdjust="spacingAndGlyphs" textLength="183" x="58" y="362.6016">Promise add(Resource)</text><ellipse cx="49" cy="376.6875" fill="#84BE84" rx="3" ry="3" style="stroke: #038048; stroke-width: 1.0;"/><text fill="#19273C" font-family="sans-serif" font-size="16" lengthAdjust="spacingAndGlyphs" textLength="237" x="58" y="381.2266">Promise updateAll(Resource[])</text><ellipse cx="49" cy="395.3125" fill="#84BE84" rx="3" ry="3" style="stroke: #038048; stroke-width: 1.0;"/><text fill="#19273C" font-family="sans-serif" font-size="16" lengthAdjust="spacingAndGlyphs" textLength="208" x="58" y="399.8516">Promise update(Resource)</text><ellipse cx="49" cy="413.9375" fill="#84BE84" rx="3" ry="3" style="stroke: #038048; stroke-width: 1.0;"/><text fill="#19273C" font-family="sans-serif" font-size="16" lengthAdjust="spacingAndGlyphs" textLength="156" x="58" y="418.4766">Promise removeAll()</text><ellipse cx="49" cy="432.5625" fill="#84BE84" rx="3" ry="3" style="stroke: #038048; stroke-width: 1.0;"/><text fill="#19273C" font-family="sans-serif" font-size="16" lengthAdjust="spacingAndGlyphs" textLength="139" x="58" y="437.1016">Promise remove()</text><ellipse cx="49" cy="451.1875" fill="#84BE84" rx="3" ry="3" style="stroke: #038048; stroke-width: 1.0;"/><text fill="#19273C" font-family="sans-serif" font-size="16" lengthAdjust="spacingAndGlyphs" textLength="122" x="58" y="455.7266">Promise getAll()</text><ellipse cx="49" cy="469.8125" fill="#84BE84" rx="3" ry="3" style="stroke: #038048; stroke-width: 1.0;"/><text fill="#19273C" font-family="sans-serif" font-size="16" lengthAdjust="spacingAndGlyphs" textLength="150" x="58" y="474.3516">Promise get(string)</text><ellipse cx="49" cy="488.4375" fill="#84BE84" rx="3" ry="3" style="stroke: #038048; stroke-width: 1.0;"/><text fill="#19273C" font-family="sans-serif" font-size="16" lengthAdjust="spacingAndGlyphs" textLength="171" x="58" y="492.9766">Promise exists(string)</text><ellipse cx="49" cy="507.0625" fill="#84BE84" rx="3" ry="3" style="stroke: #038048; stroke-width: 1.0;"/><text fill="#19273C" font-family="sans-serif" font-size="16" lengthAdjust="spacingAndGlyphs" textLength="153" x="58" y="511.6016">Promise resolveAll()</text><ellipse cx="49" cy="525.6875" fill="#84BE84" rx="3" ry="3" style="stroke: #038048; stroke-width: 1.0;"/><text fill="#19273C" font-family="sans-serif" font-size="16" lengthAdjust="spacingAndGlyphs" textLength="181" x="58" y="530.2266">Promise resolve(string)</text><!--class TransactionRegistry--><rect fill="#F8FAFA" height="122.5" rx="1" ry="1" style="stroke: #E3ECEC; stroke-width: 1.5;" width="991" x="6" y="8.5"/><ellipse cx="419.75" cy="24.5" fill="#FFFFFF" rx="11" ry="11" style="stroke: #E3ECEC; stroke-width: 1.0;"/><path d="M422.2031,30.1563 Q421.6563,30.4375 421.0547,30.5859 Q420.4531,30.7344 419.7813,30.7344 Q417.4219,30.7344 416.1797,29.1719 Q414.9375,27.6094 414.9375,24.6719 Q414.9375,21.7344 416.1797,20.1797 Q417.4219,18.625 419.7813,18.625 Q420.4531,18.625 421.0625,18.7656 Q421.6719,18.9063 422.2031,19.1875 L422.2031,21.75 Q421.6094,21.2031 421.0469,20.9453 Q420.4844,20.6875 419.8906,20.6875 Q418.625,20.6875 417.9844,21.6953 Q417.3438,22.7031 417.3438,24.6719 Q417.3438,26.6406 417.9844,27.6484 Q418.625,28.6563 419.8906,28.6563 Q420.4844,28.6563 421.0469,28.3984 Q421.6094,28.1406 422.2031,27.5938 L422.2031,30.1563 Z "/><text fill="#19273C" font-family="sans-serif" font-size="16" lengthAdjust="spacingAndGlyphs" textLength="155" x="440.25" y="30.0391">TransactionRegistry</text><line style="stroke: #E3ECEC; stroke-width: 1.5;" x1="7" x2="996" y1="40.5" y2="40.5"/><line style="stroke: #E3ECEC; stroke-width: 1.5;" x1="7" x2="996" y1="48.5" y2="48.5"/><ellipse cx="17" cy="62.8125" fill="#84BE84" rx="3" ry="3" style="stroke: #038048; stroke-width: 1.0;"/><text fill="#19273C" font-family="sans-serif" font-size="16" lengthAdjust="spacingAndGlyphs" textLength="965" x="26" y="67.3516">Promise getAllTransactionRegistries(SecurityContext,ModelManager,Factory,Serializer,BusinessNetworkConnection,Boolean)</text><ellipse cx="17" cy="81.4375" fill="#84BE84" rx="3" ry="3" style="stroke: #038048; stroke-width: 1.0;"/><text fill="#19273C" font-family="sans-serif" font-size="16" lengthAdjust="spacingAndGlyphs" textLength="690" x="26" y="85.9766">Promise getTransactionRegistry(SecurityContext,string,ModelManager,Factory,Serializer)</text><ellipse cx="17" cy="100.0625" fill="#84BE84" rx="3" ry="3" style="stroke: #038048; stroke-width: 1.0;"/><text fill="#19273C" font-family="sans-serif" font-size="16" lengthAdjust="spacingAndGlyphs" textLength="744" x="26" y="104.6016">Promise addTransactionRegistry(SecurityContext,string,string,ModelManager,Factory,Serializer)</text><ellipse cx="17" cy="118.6875" fill="#84BE84" rx="3" ry="3" style="stroke: #038048; stroke-width: 1.0;"/><text fill="#19273C" font-family="sans-serif" font-size="16" lengthAdjust="spacingAndGlyphs" textLength="709" x="26" y="123.2266">Promise transactionRegistryExists(SecurityContext,string,ModelManager,Factory,Serializer)</text><path d="M501.25,131.71 C501.25,143.957 501.25,157.44 501.25,171.555 " fill="none" style="stroke: #3C6DF0; stroke-width: 1.0;"/><polygon fill="none" points="508.25,171.871,501.25,191.871,494.25,171.871,508.25,171.871" style="stroke: #3C6DF0; stroke-width: 1.0;"/></g></svg>