<?xml version="1.0" encoding="UTF-8" standalone="no"?><svg xmlns="http://www.w3.org/2000/svg" xmlns:xlink="http://www.w3.org/1999/xlink" contentScriptType="application/ecmascript" contentStyleType="text/css" height="331px" preserveAspectRatio="none" style="width:272px;height:331px;" version="1.1" viewBox="0 0 272 331" width="272px" zoomAndPan="magnify"><defs/><g><!--class BaseException--><rect fill="#F8FAFA" height="66.625" rx="1" ry="1" style="stroke: #E3ECEC; stroke-width: 1.5;" width="213" x="32" y="154.5"/><ellipse cx="76.75" cy="170.5" fill="#FFFFFF" rx="11" ry="11" style="stroke: #E3ECEC; stroke-width: 1.0;"/><path d="M79.2031,176.1563 Q78.6563,176.4375 78.0547,176.5859 Q77.4531,176.7344 76.7813,176.7344 Q74.4219,176.7344 73.1797,175.1719 Q71.9375,173.6094 71.9375,170.6719 Q71.9375,167.7344 73.1797,166.1797 Q74.4219,164.625 76.7813,164.625 Q77.4531,164.625 78.0625,164.7656 Q78.6719,164.9063 79.2031,165.1875 L79.2031,167.75 Q78.6094,167.2031 78.0469,166.9453 Q77.4844,166.6875 76.8906,166.6875 Q75.625,166.6875 74.9844,167.6953 Q74.3438,168.7031 74.3438,170.6719 Q74.3438,172.6406 74.9844,173.6484 Q75.625,174.6563 76.8906,174.6563 Q77.4844,174.6563 78.0469,174.3984 Q78.6094,174.1406 79.2031,173.5938 L79.2031,176.1563 Z "/><text fill="#19273C" font-family="sans-serif" font-size="16" lengthAdjust="spacingAndGlyphs" textLength="115" x="97.25" y="176.0391">BaseException</text><line style="stroke: #E3ECEC; stroke-width: 1.5;" x1="33" x2="244" y1="186.5" y2="186.5"/><line style="stroke: #E3ECEC; stroke-width: 1.5;" x1="33" x2="244" y1="194.5" y2="194.5"/><ellipse cx="43" cy="208.8125" fill="#84BE84" rx="3" ry="3" style="stroke: #038048; stroke-width: 1.0;"/><text fill="#19273C" font-family="sans-serif" font-size="16" lengthAdjust="spacingAndGlyphs" textLength="187" x="52" y="213.3516">void constructor(string)</text><!--class Error--><rect fill="#F8FAFA" height="48" rx="1" ry="1" style="stroke: #E3ECEC; stroke-width: 1.5;" width="73" x="102" y="282"/><ellipse cx="117" cy="298" fill="#FFFFFF" rx="11" ry="11" style="stroke: #E3ECEC; stroke-width: 1.0;"/><path d="M119.4531,303.6563 Q118.9063,303.9375 118.3047,304.0859 Q117.7031,304.2344 117.0313,304.2344 Q114.6719,304.2344 113.4297,302.6719 Q112.1875,301.1094 112.1875,298.1719 Q112.1875,295.2344 113.4297,293.6797 Q114.6719,292.125 117.0313,292.125 Q117.7031,292.125 118.3125,292.2656 Q118.9219,292.4063 119.4531,292.6875 L119.4531,295.25 Q118.8594,294.7031 118.2969,294.4453 Q117.7344,294.1875 117.1406,294.1875 Q115.875,294.1875 115.2344,295.1953 Q114.5938,296.2031 114.5938,298.1719 Q114.5938,300.1406 115.2344,301.1484 Q115.875,302.1563 117.1406,302.1563 Q117.7344,302.1563 118.2969,301.8984 Q118.8594,301.6406 119.4531,301.0938 L119.4531,303.6563 Z "/><text fill="#19273C" font-family="sans-serif" font-size="16" lengthAdjust="spacingAndGlyphs" textLength="41" x="131" y="303.5391">Error</text><line style="stroke: #E3ECEC; stroke-width: 1.5;" x1="103" x2="174" y1="314" y2="314"/><line style="stroke: #E3ECEC; stroke-width: 1.5;" x1="103" x2="174" y1="322" y2="322"/><!--class TypeNotFoundException--><rect fill="#F8FAFA" height="85.25" rx="1" ry="1" style="stroke: #E3ECEC; stroke-width: 1.5;" width="265" x="6" y="8.5"/><ellipse cx="39.9" cy="24.5" fill="#FFFFFF" rx="11" ry="11" style="stroke: #E3ECEC; stroke-width: 1.0;"/><path d="M42.3531,30.1563 Q41.8063,30.4375 41.2047,30.5859 Q40.6031,30.7344 39.9313,30.7344 Q37.5719,30.7344 36.3297,29.1719 Q35.0875,27.6094 35.0875,24.6719 Q35.0875,21.7344 36.3297,20.1797 Q37.5719,18.625 39.9313,18.625 Q40.6031,18.625 41.2125,18.7656 Q41.8219,18.9063 42.3531,19.1875 L42.3531,21.75 Q41.7594,21.2031 41.1969,20.9453 Q40.6344,20.6875 40.0406,20.6875 Q38.775,20.6875 38.1344,21.6953 Q37.4938,22.7031 37.4938,24.6719 Q37.4938,26.6406 38.1344,27.6484 Q38.775,28.6563 40.0406,28.6563 Q40.6344,28.6563 41.1969,28.3984 Q41.7594,28.1406 42.3531,27.5938 L42.3531,30.1563 Z "/><text fill="#19273C" font-family="sans-serif" font-size="16" lengthAdjust="spacingAndGlyphs" textLength="191" x="58.1" y="30.0391">TypeNotFoundException</text><line style="stroke: #E3ECEC; stroke-width: 1.5;" x1="7" x2="270" y1="40.5" y2="40.5"/><line style="stroke: #E3ECEC; stroke-width: 1.5;" x1="7" x2="270" y1="48.5" y2="48.5"/><ellipse cx="17" cy="62.8125" fill="#84BE84" rx="3" ry="3" style="stroke: #038048; stroke-width: 1.0;"/><text fill="#19273C" font-family="sans-serif" font-size="16" lengthAdjust="spacingAndGlyphs" textLength="239" x="26" y="67.3516">void constructor(String,String)</text><ellipse cx="17" cy="81.4375" fill="#84BE84" rx="3" ry="3" style="stroke: #038048; stroke-width: 1.0;"/><text fill="#19273C" font-family="sans-serif" font-size="16" lengthAdjust="spacingAndGlyphs" textLength="169" x="26" y="85.9766">string getTypeName()</text><path d="M138.25,221.621 C138.25,234.0487 138.25,248.4125 138.25,261.6795 " fill="none" style="stroke: #3C6DF0; stroke-width: 1.0;"/><polygon fill="none" points="145.25,261.8078,138.25,281.8077,131.25,261.8077,145.25,261.8078" style="stroke: #3C6DF0; stroke-width: 1.0;"/><path d="M138.25,93.606 C138.25,106.418 138.25,120.697 138.25,134.159 " fill="none" style="stroke: #3C6DF0; stroke-width: 1.0;"/><polygon fill="none" points="145.25,134.312,138.25,154.312,131.25,134.312,145.25,134.312" style="stroke: #3C6DF0; stroke-width: 1.0;"/></g></svg>