<svg id="Layer_1" data-name="Layer 1" xmlns="http://www.w3.org/2000/svg" viewBox="0 0 696.67 870.12"><defs><style>.cls-1{fill:#e7e9f6;}.cls-2{fill:#1d1d1b;}.cls-3{fill:#8b9fd1;}.cls-4{fill:#424747;}.cls-5{fill:#99d1c8;}.cls-6{fill:#fbeaae;}.cls-7{fill:#f4a9c3;}.cls-8{fill:#a9bee4;}.cls-9{fill:#fff;}</style></defs><title>Install03</title><rect class="cls-1" x="0.65" y="0.67" width="696.67" height="870.12" rx="34.02" ry="34.02"/><path class="cls-2" d="M65.6,104.82V60.56h5.15v44.26Z"/><path class="cls-2" d="M104.83,104.82V83.36q0-4.06-1.85-6.05t-5.78-2q-5.21,0-7.63,2.82t-2.42,9.29v17.41h-5V71.64h4.09L87,76.18h.24a10.26,10.26,0,0,1,4.33-3.8A14.07,14.07,0,0,1,97.81,71q6,0,9,2.89t3,9.25v21.65Z"/><path class="cls-2" d="M141.58,95.77a8.31,8.31,0,0,1-3.45,7.14q-3.45,2.51-9.69,2.51-6.6,0-10.29-2.09V98.68a24.85,24.85,0,0,0,5.13,1.91,21.42,21.42,0,0,0,5.28.7,12,12,0,0,0,6.05-1.26,4.33,4.33,0,0,0,.44-7.14,26.45,26.45,0,0,0-6.55-3.25,35.53,35.53,0,0,1-6.58-3A9,9,0,0,1,119,83.69a7.62,7.62,0,0,1-1-3.91,7.44,7.44,0,0,1,3.3-6.4q3.3-2.35,9.05-2.35a26.49,26.49,0,0,1,10.47,2.18L139.1,77.3A24.05,24.05,0,0,0,130,75.24a10.41,10.41,0,0,0-5.39,1.12,3.46,3.46,0,0,0-1.82,3.09,3.76,3.76,0,0,0,.68,2.27,6.71,6.71,0,0,0,2.19,1.79A48.89,48.89,0,0,0,131.53,86q5.9,2.15,8,4.33A7.64,7.64,0,0,1,141.58,95.77Z"/><path class="cls-2" d="M160.47,101.28a17.88,17.88,0,0,0,4.54-.61v3.84a9.19,9.19,0,0,1-2.41.65,18.09,18.09,0,0,1-2.86.26q-9.63,0-9.63-10.14V75.55h-4.75V73.13L150.12,71,152.24,64h2.91v7.69h9.63v3.91h-9.63V95.07a6.72,6.72,0,0,0,1.42,4.6A5,5,0,0,0,160.47,101.28Z"/><path class="cls-2" d="M192,104.82l-1-4.72h-.24a14,14,0,0,1-4.95,4.22,15.09,15.09,0,0,1-6.16,1.1q-4.94,0-7.73-2.54a9.27,9.27,0,0,1-2.8-7.24q0-10.05,16.08-10.54l5.63-.18V82.87q0-3.91-1.68-5.77t-5.37-1.86a21.89,21.89,0,0,0-9.38,2.54l-1.54-3.84a23.64,23.64,0,0,1,5.37-2.09,23.28,23.28,0,0,1,5.86-.76q5.93,0,8.79,2.63t2.86,8.45v22.64Zm-11.35-3.54a10.2,10.2,0,0,0,7.37-2.57,9.52,9.52,0,0,0,2.68-7.21v-3l-5,.21q-6,.21-8.64,1.86a5.61,5.61,0,0,0-2.65,5.13,5.18,5.18,0,0,0,1.65,4.15A6.85,6.85,0,0,0,180.69,101.28Z"/><path class="cls-2" d="M211.15,104.82h-5V57.72h5Z"/><path class="cls-2" d="M226.83,104.82h-5V57.72h5Z"/><path class="cls-2" d="M289.68,82.27q0,11-5.95,16.76t-17.12,5.8H254.35V60.56h13.56q10.32,0,16,5.72T289.68,82.27Zm-5.45.18q0-8.66-4.34-13T267,65H259.5v35.36h6.27q9.2,0,13.83-4.53T284.23,82.45Z"/><path class="cls-2" d="M312.81,105.43q-7.36,0-11.61-4.48T296.94,88.5q0-8,4-12.75A13.12,13.12,0,0,1,311.51,71a12.51,12.51,0,0,1,9.87,4.1Q325,79.24,325,86v3.18H302.15q.15,5.84,3,8.87t7.89,3a26.72,26.72,0,0,0,10.6-2.24v4.48a26.6,26.6,0,0,1-5,1.65A28.33,28.33,0,0,1,312.81,105.43Zm-1.36-30.18a8.21,8.21,0,0,0-6.37,2.6,12,12,0,0,0-2.8,7.21h17.35q0-4.75-2.12-7.28A7.46,7.46,0,0,0,311.45,75.24Z"/><path class="cls-2" d="M340.84,104.82,328.25,71.64h5.39l7.14,19.68a93.32,93.32,0,0,1,2.85,9h.24a67.62,67.62,0,0,1,2.1-6.65q1.77-5,7.95-22h5.39l-12.59,33.18Z"/><path class="cls-2" d="M378.65,105.43q-7.36,0-11.61-4.48T362.79,88.5q0-8,4-12.75A13.12,13.12,0,0,1,377.35,71a12.51,12.51,0,0,1,9.87,4.1q3.63,4.1,3.63,10.82v3.18H368q.15,5.84,3,8.87t7.89,3a26.72,26.72,0,0,0,10.6-2.24v4.48a26.6,26.6,0,0,1-5,1.65A28.32,28.32,0,0,1,378.65,105.43Zm-1.36-30.18a8.21,8.21,0,0,0-6.37,2.6,12,12,0,0,0-2.8,7.21h17.35q0-4.75-2.12-7.28A7.46,7.46,0,0,0,377.29,75.24Z"/><path class="cls-2" d="M404.45,104.82h-5V57.72h5Z"/><path class="cls-2" d="M443.74,88.2q0,8.11-4.09,12.67t-11.29,4.56a15,15,0,0,1-7.9-2.09,13.78,13.78,0,0,1-5.33-6,20.88,20.88,0,0,1-1.88-9.14q0-8.11,4.06-12.64T428.57,71q7,0,11.06,4.63T443.74,88.2Zm-25.28,0q0,6.36,2.54,9.69t7.48,3.33q4.93,0,7.49-3.31t2.56-9.7q0-6.33-2.56-9.61t-7.55-3.28q-4.94,0-7.45,3.24T418.46,88.2Z"/><path class="cls-2" d="M468,105.43a14.36,14.36,0,0,1-5.92-1.2,11.12,11.12,0,0,1-4.5-3.68h-.36a44.51,44.51,0,0,1,.36,5.51v13.65h-5V71.64h4.09l.7,4.54h.24a11.67,11.67,0,0,1,4.51-3.94A13.71,13.71,0,0,1,468,71q6.6,0,10.19,4.51t3.59,12.65q0,8.17-3.65,12.7A12.28,12.28,0,0,1,468,105.43Zm-.73-30.12q-5.09,0-7.36,2.82t-2.33,9V88.2q0,7,2.33,10t7.48,3a7.77,7.77,0,0,0,6.74-3.48q2.44-3.48,2.44-9.6t-2.44-9.52A8,8,0,0,0,467.26,75.31Z"/><path class="cls-2" d="M532.84,104.82V83.24q0-4-1.7-5.95t-5.27-2q-4.69,0-6.93,2.69t-2.24,8.29v18.53h-5V83.24q0-4-1.7-5.95t-5.3-2q-4.72,0-6.92,2.83t-2.19,9.28v17.41h-5V71.64h4.09l.82,4.54h.24a9.88,9.88,0,0,1,4-3.78A12.26,12.26,0,0,1,505.5,71q7.78,0,10.17,5.63h.24a10.58,10.58,0,0,1,4.3-4.12A13.34,13.34,0,0,1,526.63,71q5.63,0,8.43,2.89t2.8,9.25v21.65Z"/><path class="cls-2" d="M562.23,105.43q-7.36,0-11.61-4.48T546.37,88.5q0-8,4-12.75A13.12,13.12,0,0,1,560.93,71a12.51,12.51,0,0,1,9.87,4.1q3.63,4.1,3.63,10.82v3.18H551.57q.15,5.84,3,8.87t7.89,3A26.72,26.72,0,0,0,573,98.8v4.48a26.6,26.6,0,0,1-5,1.65A28.32,28.32,0,0,1,562.23,105.43Zm-1.36-30.18a8.21,8.21,0,0,0-6.37,2.6,12,12,0,0,0-2.8,7.21H569q0-4.75-2.12-7.28A7.46,7.46,0,0,0,560.87,75.24Z"/><path class="cls-2" d="M605.7,104.82V83.36q0-4.06-1.85-6.05t-5.78-2q-5.21,0-7.63,2.82T588,87.41v17.41h-5V71.64h4.09l.82,4.54h.24a10.26,10.26,0,0,1,4.33-3.8A14.06,14.06,0,0,1,598.68,71q6,0,9,2.89t3,9.25v21.65Z"/><path class="cls-2" d="M631.77,101.28a17.88,17.88,0,0,0,4.54-.61v3.84a9.19,9.19,0,0,1-2.41.65,18.09,18.09,0,0,1-2.86.26q-9.63,0-9.63-10.14V75.55h-4.75V73.13L621.42,71,623.53,64h2.91v7.69h9.63v3.91h-9.63V95.07a6.71,6.71,0,0,0,1.42,4.6A5,5,0,0,0,631.77,101.28Z"/><path class="cls-2" d="M193.08,179.22H168.4V135h24.67v4.57H173.55v14.26H191.9v4.54H173.55v16.29h19.53Z"/><path class="cls-2" d="M224.83,179.22V157.76q0-4.06-1.85-6.05t-5.78-2q-5.21,0-7.63,2.82t-2.42,9.29v17.41h-5V146h4.09l.82,4.54h.24a10.26,10.26,0,0,1,4.33-3.8,14.07,14.07,0,0,1,6.21-1.35q6,0,9,2.89t3,9.25v21.65Z"/><path class="cls-2" d="M247.45,179.22,234.85,146h5.39l7.14,19.68a93.32,93.32,0,0,1,2.85,9h.24a67.62,67.62,0,0,1,2.1-6.65q1.77-5,7.95-22h5.39l-12.59,33.18Z"/><path class="cls-2" d="M270.82,137.05a3.34,3.34,0,0,1,.85-2.53,3.14,3.14,0,0,1,4.21,0,3.28,3.28,0,0,1,.88,2.51,3.33,3.33,0,0,1-.88,2.53,2.93,2.93,0,0,1-2.09.83,2.9,2.9,0,0,1-2.12-.83A3.4,3.4,0,0,1,270.82,137.05Zm5.45,42.17h-5V146h5Z"/><path class="cls-2" d="M302.06,145.44a19.67,19.67,0,0,1,4,.36l-.7,4.66a17.12,17.12,0,0,0-3.63-.45,8.84,8.84,0,0,0-6.89,3.27,11.92,11.92,0,0,0-2.86,8.14v17.8h-5V146h4.15l.58,6.15h.24a14.59,14.59,0,0,1,4.45-5A10,10,0,0,1,302.06,145.44Z"/><path class="cls-2" d="M340.87,162.6q0,8.11-4.09,12.67t-11.29,4.56a15,15,0,0,1-7.9-2.09,13.78,13.78,0,0,1-5.33-6,20.89,20.89,0,0,1-1.88-9.14q0-8.11,4.06-12.64t11.26-4.53q7,0,11.06,4.63T340.87,162.6Zm-25.28,0q0,6.36,2.54,9.69t7.48,3.33q4.93,0,7.49-3.31t2.56-9.7q0-6.33-2.56-9.61t-7.55-3.28q-4.94,0-7.45,3.24T315.59,162.6Z"/><path class="cls-2" d="M372.39,179.22V157.76q0-4.06-1.85-6.05t-5.78-2q-5.21,0-7.63,2.82t-2.42,9.29v17.41h-5V146h4.09l.82,4.54h.24a10.26,10.26,0,0,1,4.33-3.8,14.06,14.06,0,0,1,6.21-1.35q6,0,9,2.89t3,9.25v21.65Z"/><path class="cls-2" d="M430,179.22V157.64q0-4-1.7-5.95t-5.27-2q-4.69,0-6.93,2.69t-2.24,8.29v18.53h-5V157.64q0-4-1.7-5.95t-5.3-2q-4.72,0-6.92,2.83t-2.19,9.28v17.41h-5V146h4.09l.82,4.54h.24a9.88,9.88,0,0,1,4-3.78,12.26,12.26,0,0,1,5.8-1.36q7.78,0,10.17,5.63h.24a10.58,10.58,0,0,1,4.3-4.12,13.34,13.34,0,0,1,6.42-1.51q5.63,0,8.43,2.89t2.8,9.25v21.65Z"/><path class="cls-2" d="M459.42,179.83q-7.36,0-11.61-4.48t-4.25-12.44q0-8,4-12.75a13.12,13.12,0,0,1,10.61-4.72,12.51,12.51,0,0,1,9.87,4.1q3.63,4.1,3.63,10.82v3.18H448.77q.15,5.84,3,8.87t7.89,3a26.72,26.72,0,0,0,10.6-2.24v4.48a26.6,26.6,0,0,1-5,1.65A28.32,28.32,0,0,1,459.42,179.83Zm-1.36-30.18a8.21,8.21,0,0,0-6.37,2.6,12,12,0,0,0-2.8,7.21h17.35q0-4.75-2.12-7.28A7.46,7.46,0,0,0,458.06,149.64Z"/><path class="cls-2" d="M502.89,179.22V157.76q0-4.06-1.85-6.05t-5.78-2q-5.21,0-7.63,2.82t-2.42,9.29v17.41h-5V146h4.09l.82,4.54h.24a10.26,10.26,0,0,1,4.33-3.8,14.06,14.06,0,0,1,6.21-1.35q6,0,9,2.89t3,9.25v21.65Z"/><path class="cls-2" d="M529,175.68a17.88,17.88,0,0,0,4.54-.61v3.84a9.19,9.19,0,0,1-2.41.65,18.09,18.09,0,0,1-2.86.26q-9.63,0-9.63-10.14V149.95h-4.75v-2.42l4.75-2.09,2.12-7.08h2.91V146h9.63v3.91h-9.63v19.53a6.71,6.71,0,0,0,1.42,4.6A5,5,0,0,0,529,175.68Z"/><path class="cls-2" d="M102,248.09a9.26,9.26,0,0,0-7.37,3.11q-2.7,3.11-2.7,8.52,0,5.56,2.61,8.59a9.26,9.26,0,0,0,7.43,3,25.37,25.37,0,0,0,6.76-1.07v2.89a20.82,20.82,0,0,1-7.27,1.1q-6.26,0-9.66-3.8t-3.4-10.79A17,17,0,0,1,90,252a11.75,11.75,0,0,1,4.73-5.08,14.31,14.31,0,0,1,7.28-1.78,17.55,17.55,0,0,1,7.79,1.63l-1.4,2.83A15,15,0,0,0,102,248.09Z"/><path class="cls-2" d="M132.74,263.24q0,5.19-2.62,8.11a9.21,9.21,0,0,1-7.23,2.92,9.57,9.57,0,0,1-5.06-1.34,8.82,8.82,0,0,1-3.41-3.84,13.37,13.37,0,0,1-1.2-5.85q0-5.19,2.6-8.09a9.18,9.18,0,0,1,7.21-2.9,9,9,0,0,1,7.08,3A11.66,11.66,0,0,1,132.74,263.24Zm-16.18,0a10.08,10.08,0,0,0,1.63,6.2,6.46,6.46,0,0,0,9.58,0q1.64-2.12,1.64-6.21t-1.64-6.15a5.75,5.75,0,0,0-4.83-2.1,5.66,5.66,0,0,0-4.77,2.07Q116.56,259.14,116.56,263.24Z"/><path class="cls-2" d="M165.45,273.88V260.07a5.74,5.74,0,0,0-1.08-3.81A4.2,4.2,0,0,0,161,255a5.44,5.44,0,0,0-4.44,1.72q-1.43,1.72-1.43,5.31v11.86H151.9V260.07a5.74,5.74,0,0,0-1.08-3.81,4.22,4.22,0,0,0-3.39-1.27A5.25,5.25,0,0,0,143,256.8q-1.4,1.81-1.4,5.94v11.14h-3.22V252.65H141l.52,2.91h.15a6.32,6.32,0,0,1,2.57-2.42,7.84,7.84,0,0,1,3.71-.87q5,0,6.51,3.6h.16a6.77,6.77,0,0,1,2.75-2.64,8.54,8.54,0,0,1,4.11-1,7.19,7.19,0,0,1,5.4,1.85q1.79,1.85,1.79,5.92v13.85Z"/><path class="cls-2" d="M202.36,273.88V260.07a5.74,5.74,0,0,0-1.08-3.81A4.2,4.2,0,0,0,197.9,255a5.44,5.44,0,0,0-4.44,1.72Q192,258.44,192,262v11.86h-3.22V260.07a5.74,5.74,0,0,0-1.08-3.81,4.22,4.22,0,0,0-3.39-1.27,5.25,5.25,0,0,0-4.43,1.81q-1.4,1.81-1.4,5.94v11.14h-3.22V252.65h2.62l.52,2.91h.15a6.32,6.32,0,0,1,2.57-2.42,7.84,7.84,0,0,1,3.71-.87q5,0,6.51,3.6h.16a6.77,6.77,0,0,1,2.75-2.64,8.54,8.54,0,0,1,4.11-1,7.19,7.19,0,0,1,5.4,1.85q1.79,1.85,1.79,5.92v13.85Z"/><path class="cls-2" d="M225.26,273.88l-.64-3h-.16a8.93,8.93,0,0,1-3.17,2.7,9.65,9.65,0,0,1-3.94.71,7.09,7.09,0,0,1-5-1.63,5.93,5.93,0,0,1-1.79-4.63q0-6.43,10.29-6.74l3.6-.12v-1.32a5.38,5.38,0,0,0-1.08-3.69A4.42,4.42,0,0,0,220,255a14,14,0,0,0-6,1.63l-1-2.46a15.14,15.14,0,0,1,3.44-1.34,14.92,14.92,0,0,1,3.75-.48q3.8,0,5.63,1.69t1.83,5.41v14.49ZM218,271.61a6.53,6.53,0,0,0,4.72-1.65,6.09,6.09,0,0,0,1.71-4.61v-1.92l-3.22.14a11.7,11.7,0,0,0-5.53,1.19A3.59,3.59,0,0,0,214,268,3.31,3.31,0,0,0,215,270.7,4.38,4.38,0,0,0,218,271.61Z"/><path class="cls-2" d="M248.8,273.88V260.14a5.54,5.54,0,0,0-1.18-3.87,4.81,4.81,0,0,0-3.7-1.28q-3.33,0-4.88,1.8t-1.55,5.95v11.14h-3.22V252.65h2.62l.52,2.91h.15a6.56,6.56,0,0,1,2.77-2.43,9,9,0,0,1,4-.86q3.84,0,5.77,1.85T252,260v13.85Z"/><path class="cls-2" d="M273.08,271h-.17a7.56,7.56,0,0,1-6.67,3.24,7.89,7.89,0,0,1-6.48-2.85q-2.32-2.85-2.32-8.1t2.33-8.16a7.82,7.82,0,0,1,6.47-2.91,7.72,7.72,0,0,1,6.63,3.14h.25l-.14-1.53-.08-1.49v-8.64h3.22v30.15H273.5Zm-6.43.54q3.29,0,4.78-1.79T272.9,264v-.68q0-4.51-1.5-6.44a5.7,5.7,0,0,0-4.8-1.93,4.92,4.92,0,0,0-4.33,2.2,10.94,10.94,0,0,0-1.5,6.21q0,4.07,1.49,6.14A5.05,5.05,0,0,0,266.64,271.58Z"/><path class="cls-2" d="M296.46,273.88h-3.22V243.73h3.22Z"/><path class="cls-2" d="M303,246.89a2.14,2.14,0,0,1,.54-1.62,2,2,0,0,1,2.69,0,2.1,2.1,0,0,1,.56,1.61,2.13,2.13,0,0,1-.56,1.62,1.88,1.88,0,0,1-1.34.53,1.86,1.86,0,0,1-1.36-.53A2.17,2.17,0,0,1,303,246.89Zm3.49,27h-3.22V252.65h3.22Z"/><path class="cls-2" d="M327.85,273.88V260.14a5.54,5.54,0,0,0-1.18-3.87A4.81,4.81,0,0,0,323,255q-3.33,0-4.88,1.8t-1.55,5.95v11.14h-3.22V252.65h2.62l.52,2.91h.15a6.56,6.56,0,0,1,2.77-2.43,9,9,0,0,1,4-.86q3.84,0,5.77,1.85t1.94,5.92v13.85Z"/><path class="cls-2" d="M346.64,274.27a9.76,9.76,0,0,1-7.43-2.87q-2.72-2.87-2.72-8a12.31,12.31,0,0,1,2.53-8.16,8.4,8.4,0,0,1,6.79-3,8,8,0,0,1,6.32,2.63,10.06,10.06,0,0,1,2.33,6.93v2H339.82a8.42,8.42,0,0,0,1.89,5.68,6.53,6.53,0,0,0,5,1.94,17.1,17.1,0,0,0,6.78-1.43v2.87a17,17,0,0,1-3.23,1.06A18.14,18.14,0,0,1,346.64,274.27ZM345.77,255a5.25,5.25,0,0,0-4.08,1.67,7.68,7.68,0,0,0-1.79,4.61H351a7.08,7.08,0,0,0-1.36-4.66A4.77,4.77,0,0,0,345.77,255Z"/><path class="cls-2" d="M383.3,273.88l-.64-3h-.16a8.93,8.93,0,0,1-3.17,2.7,9.65,9.65,0,0,1-3.94.71,7.09,7.09,0,0,1-5-1.63,5.93,5.93,0,0,1-1.79-4.63q0-6.43,10.29-6.74l3.6-.12v-1.32a5.38,5.38,0,0,0-1.08-3.69A4.42,4.42,0,0,0,378,255a14,14,0,0,0-6,1.63l-1-2.46a15.14,15.14,0,0,1,3.44-1.34,14.92,14.92,0,0,1,3.75-.48q3.8,0,5.63,1.69t1.83,5.41v14.49ZM376,271.61a6.53,6.53,0,0,0,4.72-1.65,6.09,6.09,0,0,0,1.71-4.61v-1.92l-3.22.14a11.7,11.7,0,0,0-5.53,1.19A3.59,3.59,0,0,0,372,268a3.31,3.31,0,0,0,1.06,2.65A4.38,4.38,0,0,0,376,271.61Z"/><path class="cls-2" d="M406.84,273.88V260.14a5.54,5.54,0,0,0-1.18-3.87A4.81,4.81,0,0,0,402,255q-3.33,0-4.88,1.8t-1.55,5.95v11.14h-3.22V252.65h2.62l.52,2.91h.15a6.56,6.56,0,0,1,2.77-2.43,9,9,0,0,1,4-.86q3.84,0,5.77,1.85t1.94,5.92v13.85Z"/><path class="cls-2" d="M431.12,271h-.17a7.56,7.56,0,0,1-6.67,3.24,7.89,7.89,0,0,1-6.48-2.85q-2.31-2.85-2.32-8.1t2.33-8.16a7.82,7.82,0,0,1,6.47-2.91,7.72,7.72,0,0,1,6.63,3.14h.25l-.14-1.53-.08-1.49v-8.64h3.22v30.15h-2.62Zm-6.43.54q3.29,0,4.78-1.79t1.48-5.78v-.68q0-4.51-1.5-6.44a5.7,5.7,0,0,0-4.79-1.93,4.92,4.92,0,0,0-4.33,2.2,10.94,10.94,0,0,0-1.5,6.21q0,4.07,1.49,6.14A5,5,0,0,0,424.68,271.58Z"/><path class="cls-2" d="M451.77,273.88V245.55h3.29v28.33Z"/><path class="cls-2" d="M485.44,259.45q0,7-3.81,10.72t-11,3.71h-7.85V245.55h8.68q6.61,0,10.27,3.66T485.44,259.45Zm-3.49.12q0-5.54-2.78-8.35t-8.26-2.81h-4.79V271h4q5.89,0,8.85-2.9T482,259.56Z"/><path class="cls-2" d="M507.55,273.88H491.76V245.55h15.79v2.93h-12.5v9.13H506.8v2.91H495.06v10.42h12.5Z"/><path class="cls-2" d="M530.51,271.61a10.5,10.5,0,0,0,1.65-.13,10.64,10.64,0,0,0,1.26-.26v2.46a5.88,5.88,0,0,1-1.54.42,11.57,11.57,0,0,1-1.83.17q-6.16,0-6.16-6.49V255.14h-3V253.6l3-1.34,1.36-4.53h1.86v4.92h6.16v2.5H527.1v12.5a4.3,4.3,0,0,0,.91,2.94A3.17,3.17,0,0,0,530.51,271.61Z"/><path class="cls-2" d="M556,263.24q0,5.19-2.62,8.11a9.21,9.21,0,0,1-7.23,2.92,9.57,9.57,0,0,1-5.06-1.34,8.82,8.82,0,0,1-3.41-3.84,13.37,13.37,0,0,1-1.2-5.85q0-5.19,2.6-8.09a9.19,9.19,0,0,1,7.21-2.9,9,9,0,0,1,7.08,3A11.66,11.66,0,0,1,556,263.24Zm-16.18,0a10.08,10.08,0,0,0,1.63,6.2,6.46,6.46,0,0,0,9.58,0q1.64-2.12,1.64-6.21T551,257.09a5.75,5.75,0,0,0-4.83-2.1,5.66,5.66,0,0,0-4.77,2.07Q539.81,259.14,539.81,263.24Z"/><path class="cls-2" d="M580,263.24q0,5.19-2.62,8.11a9.21,9.21,0,0,1-7.23,2.92,9.57,9.57,0,0,1-5.06-1.34,8.82,8.82,0,0,1-3.41-3.84,13.37,13.37,0,0,1-1.2-5.85q0-5.19,2.6-8.09a9.19,9.19,0,0,1,7.21-2.9,9,9,0,0,1,7.08,3A11.66,11.66,0,0,1,580,263.24Zm-16.18,0a10.08,10.08,0,0,0,1.63,6.2,6.46,6.46,0,0,0,9.58,0q1.64-2.12,1.64-6.21T575,257.09a5.75,5.75,0,0,0-4.83-2.1,5.66,5.66,0,0,0-4.77,2.07Q563.78,259.14,563.78,263.24Z"/><path class="cls-2" d="M588.81,273.88h-3.22V243.73h3.22Z"/><path class="cls-2" d="M609.33,268.09a5.32,5.32,0,0,1-2.21,4.57,10.38,10.38,0,0,1-6.2,1.61,13.48,13.48,0,0,1-6.59-1.34v-3a15.9,15.9,0,0,0,3.28,1.22,13.7,13.7,0,0,0,3.38.45,7.67,7.67,0,0,0,3.88-.8,2.77,2.77,0,0,0,.28-4.57,16.93,16.93,0,0,0-4.19-2.08,22.71,22.71,0,0,1-4.21-1.93,5.76,5.76,0,0,1-1.86-1.87,4.88,4.88,0,0,1-.61-2.5,4.77,4.77,0,0,1,2.11-4.1,9.84,9.84,0,0,1,5.79-1.5,17,17,0,0,1,6.7,1.4l-1.14,2.62a15.39,15.39,0,0,0-5.79-1.32,6.67,6.67,0,0,0-3.45.72,2.22,2.22,0,0,0-1.16,2,2.41,2.41,0,0,0,.44,1.45,4.3,4.3,0,0,0,1.41,1.14,31.26,31.26,0,0,0,3.72,1.57,13.9,13.9,0,0,1,5.11,2.77A4.89,4.89,0,0,1,609.33,268.09Z"/><path class="cls-2" d="M123.51,302.76H118.1V321.5h-3.22V302.76h-3.8v-1.45l3.8-1.16V299q0-7.83,6.84-7.83a14.09,14.09,0,0,1,4,.68l-.83,2.58a10.64,10.64,0,0,0-3.18-.6A3.1,3.1,0,0,0,119,295a6.76,6.76,0,0,0-.87,3.88v1.38h5.41Z"/><path class="cls-2" d="M145.71,310.86q0,5.19-2.62,8.11a9.21,9.21,0,0,1-7.23,2.92,9.57,9.57,0,0,1-5.06-1.34,8.82,8.82,0,0,1-3.41-3.84,13.37,13.37,0,0,1-1.2-5.85q0-5.19,2.6-8.09a9.18,9.18,0,0,1,7.21-2.9,9,9,0,0,1,7.08,3A11.66,11.66,0,0,1,145.71,310.86Zm-16.18,0a10.08,10.08,0,0,0,1.63,6.2,6.46,6.46,0,0,0,9.58,0q1.64-2.12,1.64-6.21t-1.64-6.15a5.75,5.75,0,0,0-4.83-2.1,5.66,5.66,0,0,0-4.77,2.07Q129.54,306.75,129.54,310.86Z"/><path class="cls-2" d="M161,299.87a12.61,12.61,0,0,1,2.54.23l-.45,3a11,11,0,0,0-2.32-.29,5.66,5.66,0,0,0-4.41,2.09,7.63,7.63,0,0,0-1.83,5.21V321.5h-3.22V300.26H154l.37,3.93h.15a9.33,9.33,0,0,1,2.85-3.2A6.41,6.41,0,0,1,161,299.87Z"/><path class="cls-2" d="M187.74,299.91a7.9,7.9,0,0,1,6.5,2.86q2.32,2.86,2.32,8.09T194.22,319a7.86,7.86,0,0,1-6.48,2.9,9.19,9.19,0,0,1-3.79-.77,7.12,7.12,0,0,1-2.88-2.35h-.23l-.68,2.73h-2.31V291.35h3.22v7.32q0,2.46-.16,4.42h.16A7.63,7.63,0,0,1,187.74,299.91Zm-.46,2.69q-3.29,0-4.75,1.89t-1.45,6.36q0,4.48,1.49,6.4t4.79,1.93a5,5,0,0,0,4.42-2.16,11.1,11.1,0,0,0,1.45-6.21q0-4.15-1.45-6.18A5.15,5.15,0,0,0,187.27,302.61Z"/><path class="cls-2" d="M205.39,321.5h-3.22V291.35h3.22Z"/><path class="cls-2" d="M230.54,310.86q0,5.19-2.62,8.11a9.21,9.21,0,0,1-7.23,2.92,9.57,9.57,0,0,1-5.06-1.34,8.82,8.82,0,0,1-3.41-3.84,13.37,13.37,0,0,1-1.2-5.85q0-5.19,2.6-8.09a9.18,9.18,0,0,1,7.21-2.9,9,9,0,0,1,7.08,3A11.66,11.66,0,0,1,230.54,310.86Zm-16.18,0a10.08,10.08,0,0,0,1.63,6.2,6.46,6.46,0,0,0,9.58,0q1.64-2.12,1.64-6.21t-1.64-6.15a5.75,5.75,0,0,0-4.83-2.1,5.66,5.66,0,0,0-4.77,2.07Q214.36,306.75,214.36,310.86Z"/><path class="cls-2" d="M244.66,321.88a9.06,9.06,0,0,1-7.14-2.84q-2.53-2.84-2.53-8t2.57-8.23a9.24,9.24,0,0,1,7.31-2.91,14.51,14.51,0,0,1,3.06.33,10.11,10.11,0,0,1,2.4.77l-1,2.73A15.14,15.14,0,0,0,247,303a10.39,10.39,0,0,0-2.23-.28q-6.47,0-6.47,8.25a9.83,9.83,0,0,0,1.58,6,5.49,5.49,0,0,0,4.68,2.09,14.3,14.3,0,0,0,5.44-1.14v2.85A11.6,11.6,0,0,1,244.66,321.88Z"/><path class="cls-2" d="M258.24,310.63a37.74,37.74,0,0,1,2.54-3.1l6.86-7.27h3.82l-8.6,9,9.2,12.19h-3.89l-7.5-10-2.42,2.09v7.94h-3.18V291.35h3.18v16q0,1.07-.15,3.29Z"/><path class="cls-2" d="M284.38,321.88a9.06,9.06,0,0,1-7.14-2.84q-2.53-2.84-2.53-8t2.57-8.23a9.24,9.24,0,0,1,7.31-2.91,14.51,14.51,0,0,1,3.06.33,10.11,10.11,0,0,1,2.4.77l-1,2.73a15.14,15.14,0,0,0-2.33-.71,10.39,10.39,0,0,0-2.23-.28q-6.47,0-6.47,8.25a9.83,9.83,0,0,0,1.58,6,5.49,5.49,0,0,0,4.68,2.09,14.3,14.3,0,0,0,5.44-1.14v2.85A11.6,11.6,0,0,1,284.38,321.88Z"/><path class="cls-2" d="M309.32,321.5V307.76a5.54,5.54,0,0,0-1.18-3.87,4.81,4.81,0,0,0-3.7-1.28q-3.35,0-4.89,1.82t-1.54,6v11.1h-3.22V291.35H298v9.13a19.85,19.85,0,0,1-.16,2.73H298a6.56,6.56,0,0,1,2.7-2.41,8.78,8.78,0,0,1,4-.88q3.89,0,5.84,1.85t1.95,5.88V321.5Z"/><path class="cls-2" d="M332.2,321.5l-.64-3h-.16a8.93,8.93,0,0,1-3.17,2.7,9.65,9.65,0,0,1-3.94.71,7.09,7.09,0,0,1-5-1.63,5.93,5.93,0,0,1-1.79-4.63q0-6.43,10.29-6.74l3.6-.12v-1.32a5.38,5.38,0,0,0-1.08-3.69,4.42,4.42,0,0,0-3.44-1.19,14,14,0,0,0-6,1.63l-1-2.46a15.14,15.14,0,0,1,3.44-1.34,14.92,14.92,0,0,1,3.75-.48q3.8,0,5.63,1.69t1.83,5.41V321.5Zm-7.27-2.27a6.53,6.53,0,0,0,4.72-1.65,6.09,6.09,0,0,0,1.71-4.61v-1.92l-3.22.14a11.7,11.7,0,0,0-5.53,1.19,3.59,3.59,0,0,0-1.7,3.28,3.31,3.31,0,0,0,1.06,2.65A4.38,4.38,0,0,0,324.93,319.23Z"/><path class="cls-2" d="M340.94,294.51a2.14,2.14,0,0,1,.54-1.62,2,2,0,0,1,2.69,0,2.1,2.1,0,0,1,.56,1.61,2.13,2.13,0,0,1-.56,1.62,1.88,1.88,0,0,1-1.34.53,1.86,1.86,0,0,1-1.36-.53A2.17,2.17,0,0,1,340.94,294.51Zm3.49,27h-3.22V300.26h3.22Z"/><path class="cls-2" d="M365.77,321.5V307.76a5.54,5.54,0,0,0-1.18-3.87,4.81,4.81,0,0,0-3.7-1.28q-3.33,0-4.88,1.8t-1.55,5.95V321.5h-3.22V300.26h2.62l.52,2.91h.15a6.56,6.56,0,0,1,2.77-2.43,9,9,0,0,1,4-.86q3.84,0,5.77,1.85t1.94,5.92V321.5Z"/><path class="cls-2" d="M399,321.5l-.64-3h-.16a8.93,8.93,0,0,1-3.17,2.7,9.65,9.65,0,0,1-3.94.71,7.09,7.09,0,0,1-5-1.63,5.93,5.93,0,0,1-1.79-4.63q0-6.43,10.29-6.74l3.6-.12v-1.32a5.38,5.38,0,0,0-1.08-3.69,4.42,4.42,0,0,0-3.44-1.19,14,14,0,0,0-6,1.63l-1-2.46a15.14,15.14,0,0,1,3.44-1.34,14.92,14.92,0,0,1,3.75-.48q3.8,0,5.63,1.69t1.83,5.41V321.5Zm-7.27-2.27a6.53,6.53,0,0,0,4.72-1.65,6.09,6.09,0,0,0,1.71-4.61v-1.92l-3.22.14a11.7,11.7,0,0,0-5.53,1.19,3.59,3.59,0,0,0-1.7,3.28,3.31,3.31,0,0,0,1.06,2.65A4.38,4.38,0,0,0,391.7,319.23Z"/><path class="cls-2" d="M417.85,321.88a9.19,9.19,0,0,1-3.79-.77,7.13,7.13,0,0,1-2.88-2.35H411a28.43,28.43,0,0,1,.23,3.53V331H408V300.26h2.62l.45,2.91h.16a7.47,7.47,0,0,1,2.89-2.52,8.78,8.78,0,0,1,3.78-.77,7.85,7.85,0,0,1,6.52,2.89q2.3,2.89,2.3,8.1T424.34,319A7.86,7.86,0,0,1,417.85,321.88Zm-.46-19.28q-3.25,0-4.71,1.8t-1.49,5.74v.72q0,4.48,1.49,6.4t4.79,1.93a5,5,0,0,0,4.31-2.23,10.57,10.57,0,0,0,1.56-6.14,10.18,10.18,0,0,0-1.56-6.09A5.13,5.13,0,0,0,417.39,302.61Z"/><path class="cls-2" d="M442.17,321.88a9.19,9.19,0,0,1-3.79-.77,7.13,7.13,0,0,1-2.88-2.35h-.23a28.43,28.43,0,0,1,.23,3.53V331h-3.22V300.26h2.62l.45,2.91h.16a7.47,7.47,0,0,1,2.89-2.52,8.78,8.78,0,0,1,3.78-.77,7.85,7.85,0,0,1,6.52,2.89q2.3,2.89,2.3,8.1T448.65,319A7.86,7.86,0,0,1,442.17,321.88Zm-.46-19.28q-3.25,0-4.71,1.8t-1.49,5.74v.72q0,4.48,1.49,6.4t4.79,1.93a5,5,0,0,0,4.31-2.23,10.57,10.57,0,0,0,1.56-6.14,10.18,10.18,0,0,0-1.56-6.09A5.13,5.13,0,0,0,441.71,302.61Z"/><path class="cls-2" d="M459.82,321.5H456.6V291.35h3.22Z"/><path class="cls-2" d="M466.37,294.51a2.14,2.14,0,0,1,.54-1.62,2,2,0,0,1,2.69,0,2.1,2.1,0,0,1,.56,1.61,2.13,2.13,0,0,1-.56,1.62,1.88,1.88,0,0,1-1.34.53,1.86,1.86,0,0,1-1.36-.53A2.18,2.18,0,0,1,466.37,294.51Zm3.49,27h-3.22V300.26h3.22Z"/><path class="cls-2" d="M485.16,321.88A9.06,9.06,0,0,1,478,319q-2.53-2.84-2.53-8t2.57-8.23a9.24,9.24,0,0,1,7.31-2.91,14.51,14.51,0,0,1,3.06.33,10.12,10.12,0,0,1,2.4.77l-1,2.73a15.16,15.16,0,0,0-2.33-.71,10.4,10.4,0,0,0-2.23-.28q-6.47,0-6.47,8.25a9.83,9.83,0,0,0,1.58,6,5.49,5.49,0,0,0,4.68,2.09,14.3,14.3,0,0,0,5.44-1.14v2.85A11.6,11.6,0,0,1,485.16,321.88Z"/><path class="cls-2" d="M508.63,321.5l-.64-3h-.16a8.93,8.93,0,0,1-3.17,2.7,9.65,9.65,0,0,1-3.94.71,7.09,7.09,0,0,1-5-1.63,5.93,5.93,0,0,1-1.79-4.63q0-6.43,10.29-6.74l3.6-.12v-1.32a5.38,5.38,0,0,0-1.08-3.69,4.42,4.42,0,0,0-3.44-1.19,14,14,0,0,0-6,1.63l-1-2.46a15.14,15.14,0,0,1,3.44-1.34,14.92,14.92,0,0,1,3.75-.48q3.8,0,5.63,1.69T511,307V321.5Zm-7.27-2.27a6.53,6.53,0,0,0,4.72-1.65,6.09,6.09,0,0,0,1.71-4.61v-1.92l-3.22.14a11.7,11.7,0,0,0-5.53,1.19,3.59,3.59,0,0,0-1.7,3.28,3.31,3.31,0,0,0,1.06,2.65A4.38,4.38,0,0,0,501.36,319.23Z"/><path class="cls-2" d="M524.49,319.23a10.5,10.5,0,0,0,1.65-.13,10.64,10.64,0,0,0,1.26-.26v2.46a5.88,5.88,0,0,1-1.54.42,11.57,11.57,0,0,1-1.83.17q-6.16,0-6.16-6.49V302.76h-3v-1.55l3-1.34,1.36-4.53h1.86v4.92h6.16v2.5h-6.16v12.5a4.3,4.3,0,0,0,.91,2.94A3.17,3.17,0,0,0,524.49,319.23Z"/><path class="cls-2" d="M531.37,294.51a2.14,2.14,0,0,1,.54-1.62,2,2,0,0,1,2.69,0,2.1,2.1,0,0,1,.56,1.61,2.13,2.13,0,0,1-.56,1.62,1.88,1.88,0,0,1-1.34.53,1.86,1.86,0,0,1-1.36-.53A2.17,2.17,0,0,1,531.37,294.51Zm3.49,27h-3.22V300.26h3.22Z"/><path class="cls-2" d="M560,310.86q0,5.19-2.62,8.11a9.21,9.21,0,0,1-7.23,2.92,9.57,9.57,0,0,1-5.06-1.34,8.82,8.82,0,0,1-3.41-3.84,13.37,13.37,0,0,1-1.2-5.85q0-5.19,2.6-8.09a9.19,9.19,0,0,1,7.21-2.9,9,9,0,0,1,7.08,3A11.66,11.66,0,0,1,560,310.86Zm-16.18,0a10.08,10.08,0,0,0,1.63,6.2,6.46,6.46,0,0,0,9.58,0q1.64-2.12,1.64-6.21T555,304.71a5.75,5.75,0,0,0-4.83-2.1,5.66,5.66,0,0,0-4.77,2.07Q543.83,306.75,543.83,310.86Z"/><path class="cls-2" d="M580.18,321.5V307.76a5.55,5.55,0,0,0-1.18-3.87,4.82,4.82,0,0,0-3.7-1.28q-3.33,0-4.88,1.8t-1.55,5.95V321.5h-3.22V300.26h2.62l.52,2.91h.16a6.56,6.56,0,0,1,2.77-2.43,9,9,0,0,1,4-.86q3.84,0,5.77,1.85t1.94,5.92V321.5Z"/><path class="cls-2" d="M238.86,366.26h-.17A7.56,7.56,0,0,1,232,369.5a7.89,7.89,0,0,1-6.48-2.85q-2.32-2.85-2.32-8.1t2.33-8.16a7.82,7.82,0,0,1,6.47-2.91,7.72,7.72,0,0,1,6.63,3.14h.25l-.14-1.53-.08-1.49V339h3.22v30.15h-2.62Zm-6.43.54q3.29,0,4.78-1.79t1.48-5.78v-.68q0-4.51-1.5-6.44a5.7,5.7,0,0,0-4.8-1.93,4.92,4.92,0,0,0-4.33,2.2,10.94,10.94,0,0,0-1.5,6.21q0,4.07,1.49,6.14A5.05,5.05,0,0,0,232.43,366.81Z"/><path class="cls-2" d="M257.69,369.5a9.76,9.76,0,0,1-7.43-2.87q-2.72-2.87-2.72-8a12.31,12.31,0,0,1,2.53-8.16,8.4,8.4,0,0,1,6.79-3,8,8,0,0,1,6.32,2.63A10.06,10.06,0,0,1,265.5,357v2H250.87a8.42,8.42,0,0,0,1.89,5.68,6.53,6.53,0,0,0,5,1.94,17.1,17.1,0,0,0,6.78-1.43v2.87a17,17,0,0,1-3.23,1.06A18.15,18.15,0,0,1,257.69,369.5Zm-.87-19.32a5.25,5.25,0,0,0-4.08,1.67,7.68,7.68,0,0,0-1.79,4.61h11.1a7.07,7.07,0,0,0-1.36-4.66A4.77,4.77,0,0,0,256.82,350.18Z"/><path class="cls-2" d="M275.63,369.11l-8.06-21.23H271l4.57,12.59a59.52,59.52,0,0,1,1.82,5.73h.16a43.29,43.29,0,0,1,1.35-4.25q1.13-3.23,5.09-14.08h3.45l-8.06,21.23Z"/><path class="cls-2" d="M299.83,369.5a9.76,9.76,0,0,1-7.43-2.87q-2.72-2.87-2.72-8a12.31,12.31,0,0,1,2.53-8.16,8.4,8.4,0,0,1,6.79-3,8,8,0,0,1,6.32,2.63,10.06,10.06,0,0,1,2.33,6.93v2H293a8.42,8.42,0,0,0,1.89,5.68,6.53,6.53,0,0,0,5,1.94,17.1,17.1,0,0,0,6.78-1.43v2.87a17,17,0,0,1-3.23,1.06A18.15,18.15,0,0,1,299.83,369.5ZM299,350.18a5.25,5.25,0,0,0-4.08,1.67,7.68,7.68,0,0,0-1.79,4.61h11.1a7.07,7.07,0,0,0-1.36-4.66A4.77,4.77,0,0,0,299,350.18Z"/><path class="cls-2" d="M316.34,369.11h-3.22V339h3.22Z"/><path class="cls-2" d="M341.49,358.48q0,5.19-2.62,8.11a9.21,9.21,0,0,1-7.23,2.92,9.57,9.57,0,0,1-5.06-1.34,8.82,8.82,0,0,1-3.41-3.84,13.37,13.37,0,0,1-1.2-5.85q0-5.19,2.6-8.09a9.18,9.18,0,0,1,7.21-2.9,9,9,0,0,1,7.08,3A11.66,11.66,0,0,1,341.49,358.48Zm-16.18,0a10.08,10.08,0,0,0,1.63,6.2,6.46,6.46,0,0,0,9.58,0q1.64-2.12,1.64-6.21t-1.64-6.15a5.75,5.75,0,0,0-4.83-2.1,5.66,5.66,0,0,0-4.77,2.07Q325.31,354.37,325.31,358.48Z"/><path class="cls-2" d="M357,369.5a9.19,9.19,0,0,1-3.79-.77,7.13,7.13,0,0,1-2.88-2.35h-.23a28.43,28.43,0,0,1,.23,3.53v8.74h-3.22V347.88h2.62l.45,2.91h.16a7.47,7.47,0,0,1,2.89-2.52,8.78,8.78,0,0,1,3.78-.77,7.85,7.85,0,0,1,6.52,2.89q2.3,2.89,2.3,8.1t-2.33,8.13A7.86,7.86,0,0,1,357,369.5Zm-.46-19.28q-3.25,0-4.71,1.8t-1.49,5.74v.72q0,4.48,1.49,6.4t4.79,1.93a5,5,0,0,0,4.31-2.23,10.57,10.57,0,0,0,1.56-6.14,10.18,10.18,0,0,0-1.56-6.09A5.13,5.13,0,0,0,356.54,350.22Z"/><path class="cls-2" d="M398.51,369.11V355.3a5.73,5.73,0,0,0-1.08-3.81,4.2,4.2,0,0,0-3.37-1.27,5.44,5.44,0,0,0-4.44,1.72q-1.43,1.72-1.43,5.31v11.86H385V355.3a5.74,5.74,0,0,0-1.08-3.81,4.22,4.22,0,0,0-3.39-1.27,5.25,5.25,0,0,0-4.43,1.81q-1.4,1.81-1.4,5.94v11.14h-3.22V347.88h2.62l.52,2.91h.15a6.32,6.32,0,0,1,2.57-2.42,7.84,7.84,0,0,1,3.71-.87q5,0,6.51,3.6h.16a6.77,6.77,0,0,1,2.75-2.64,8.54,8.54,0,0,1,4.11-1,7.19,7.19,0,0,1,5.4,1.85q1.79,1.85,1.79,5.92v13.85Z"/><path class="cls-2" d="M417.32,369.5a9.76,9.76,0,0,1-7.43-2.87q-2.72-2.87-2.72-8a12.31,12.31,0,0,1,2.53-8.16,8.4,8.4,0,0,1,6.79-3,8,8,0,0,1,6.32,2.63,10.06,10.06,0,0,1,2.33,6.93v2H410.5a8.42,8.42,0,0,0,1.89,5.68,6.53,6.53,0,0,0,5,1.94,17.1,17.1,0,0,0,6.78-1.43v2.87a17,17,0,0,1-3.23,1.06A18.14,18.14,0,0,1,417.32,369.5Zm-.87-19.32a5.25,5.25,0,0,0-4.08,1.67,7.68,7.68,0,0,0-1.79,4.61h11.1a7.08,7.08,0,0,0-1.36-4.66A4.77,4.77,0,0,0,416.45,350.18Z"/><path class="cls-2" d="M445.14,369.11V355.38A5.54,5.54,0,0,0,444,351.5a4.81,4.81,0,0,0-3.7-1.28q-3.33,0-4.88,1.8T433.83,358v11.14h-3.22V347.88h2.62l.52,2.91h.15a6.56,6.56,0,0,1,2.77-2.43,9,9,0,0,1,4-.86q3.84,0,5.77,1.85t1.94,5.92v13.85Z"/><path class="cls-2" d="M461.83,366.85a10.5,10.5,0,0,0,1.65-.13,10.64,10.64,0,0,0,1.26-.26v2.46a5.88,5.88,0,0,1-1.54.42,11.57,11.57,0,0,1-1.83.17q-6.16,0-6.16-6.49V350.38h-3v-1.55l3-1.34,1.36-4.53h1.86v4.92h6.16v2.5h-6.16v12.5a4.3,4.3,0,0,0,.91,2.94A3.17,3.17,0,0,0,461.83,366.85Z"/><path class="cls-2" d="M468.51,367.06a2.88,2.88,0,0,1,.59-2,2.14,2.14,0,0,1,1.7-.67,2.29,2.29,0,0,1,1.75.67,2.77,2.77,0,0,1,.63,2,2.72,2.72,0,0,1-.64,1.94,2.54,2.54,0,0,1-3.38.07A2.65,2.65,0,0,1,468.51,367.06Z"/><path class="cls-3" d="M226.6,457.63H471.36a16.56,16.56,0,0,1,16.56,16.56v188a0,0,0,0,1,0,0H210a0,0,0,0,1,0,0v-188A16.56,16.56,0,0,1,226.6,457.63Z"/><rect class="cls-4" x="218.48" y="480.16" width="260.9" height="172.75"/><path class="cls-5" d="M233.11,522l11.5-6.93v-.18l-11.5-6.94v-7L251,512.29v5.29L233.11,529Z"/><rect class="cls-6" x="263.54" y="503.3" width="92.25" height="23.81"/><rect class="cls-7" x="263.54" y="537.56" width="49.72" height="23.81"/><rect class="cls-5" x="263.54" y="571.83" width="130.94" height="23.81"/><rect class="cls-8" x="326.97" y="537.56" width="16.19" height="23.81"/><circle class="cls-9" cx="224.69" cy="469.11" r="4.14"/><circle class="cls-9" cx="236.75" cy="469.11" r="4.14"/><circle class="cls-9" cx="248.28" cy="469.11" r="4.14"/></svg>