<svg id="Layer_1" data-name="Layer 1" xmlns="http://www.w3.org/2000/svg" viewBox="0 0 696.67 870.12"><defs><style>.cls-1{fill:#e7e9f6;}.cls-2{font-size:62px;}.cls-2,.cls-3{fill:#1d1d1b;font-family:OpenSans, Open Sans;}.cls-3{font-size:39.68px;}.cls-4{fill:#8b9fd1;}.cls-5{fill:#fff;}.cls-6{fill:#f1f3f7;}.cls-7,.cls-9{fill:#fed601;}.cls-10,.cls-8{fill:none;stroke-linecap:round;stroke-linejoin:round;stroke-width:3px;}.cls-8,.cls-9{stroke:#fed601;}.cls-9{stroke-miterlimit:10;}.cls-10{stroke:#4256a2;}.cls-11{fill:#4365ae;}.cls-12,.cls-13{fill:#b8c1c1;}.cls-13{font-size:34.56px;font-family:Avenir-Black, Avenir;}</style></defs><title>Install02</title><rect class="cls-1" width="696.67" height="870.12" rx="34.02" ry="34.02"/><text class="cls-2" transform="translate(103.86 104.16)">Install Composer <tspan x="-18.65" y="74.4">Playground locally</tspan></text><text class="cls-3" transform="translate(87.23 273.21)">One-line install, Composer + <tspan x="55.79" y="47.62">Hyperledger Fabric on </tspan><tspan x="-2.25" y="95.23" xml:space="preserve">Docker.  Local Fabric deploy.</tspan></text><path class="cls-4" d="M162.36,479.75h216a16.56,16.56,0,0,1,16.56,16.56V663.13a0,0,0,0,1,0,0H145.8a0,0,0,0,1,0,0V496.31A16.56,16.56,0,0,1,162.36,479.75Z"/><rect class="cls-5" x="153.36" y="499.94" width="233.9" height="154.87"/><g id="Layer_2" data-name="Layer 2"><g id="Layer_1-2" data-name="Layer 1-2"><path class="cls-6" d="M240,607.08a7.42,7.42,0,0,0-9.7-4l-6.87,2.85-24.2-58.35a9.28,9.28,0,0,0,2.86-10.85l-4.69-11.32-17.14,7.11L185,543.82a9.28,9.28,0,0,0,9.7,5.64l24.2,58.35L212,610.65a7.42,7.42,0,0,0-4,9.67l2.92,6H246.6Z"/><polygon class="cls-6" points="356.75 629.17 356.75 539.67 360.15 539.67 360.15 528.79 278.2 528.79 278.2 539.67 281.91 539.67 282 548.16 272.17 548.34 272.17 629.17 169.97 629.17 169.97 632.26 374.69 632.26 374.69 629.17 356.75 629.17"/><circle class="cls-7" cx="190.01" cy="613.65" r="1.34" transform="translate(-430.74 778.98) rotate(-87.71)"/><line class="cls-8" x1="191.51" y1="603.87" x2="177.38" y2="598.54"/><line class="cls-8" x1="189.34" y1="583.69" x2="194.99" y2="590.26"/><line class="cls-8" x1="197.72" y1="593.43" x2="199.3" y2="595.27"/><circle class="cls-9" cx="230.31" cy="584.48" r="1.37" transform="translate(-384.76 456.62) rotate(-56.75)"/><line class="cls-8" x1="251.75" y1="575.87" x2="239.87" y2="590.58"/><line class="cls-8" x1="257.94" y1="594.99" x2="247.26" y2="598.75"/><line class="cls-10" x1="365.61" y1="626.29" x2="371.6" y2="626.29"/><polyline class="cls-10" points="166.87 626.29 269.08 626.51 269.08 545.25 283.84 545.05 283.84 555.28 298.6 555.28 298.6 545.05 313.36 545.05 313.36 555.28 328.12 555.28 328.12 545.05 343.19 545.25 343.19 626.29 358.81 626.29"/><rect class="cls-10" x="203.58" y="543.57" width="4.95" height="62.28" transform="translate(-204.48 122.81) rotate(-22.53)"/><rect class="cls-10" x="192.85" y="545.7" width="4.95" height="6.32" transform="translate(-195.4 116.73) rotate(-22.53)"/><rect class="cls-10" x="210.44" y="578.03" width="4.95" height="26.45" transform="translate(-210.3 126.71) rotate(-22.53)"/><path class="cls-10" d="M207.86,623.21l-3-6a7.42,7.42,0,0,1,4-9.7L227.23,600a7.42,7.42,0,0,1,9.7,4l6.6,19.22"/><path class="cls-10" d="M177.21,529.4l17.14-7.11h0l4.7,11.32a9.28,9.28,0,0,1-5,12.12h0a9.28,9.28,0,0,1-12.12-5l-4.7-11.32Z"/><rect class="cls-10" x="177.31" y="525.68" width="18.55" height="4.21" transform="translate(-187.99 111.77) rotate(-22.53)"/><rect class="cls-5" x="291.19" y="588.35" width="36.49" height="40.82"/><polyline class="cls-10" points="288.41 626.39 288.41 585.57 324.28 585.57 324.28 610.3"/><line class="cls-10" x1="324.28" y1="621.13" x2="324.28" y2="626.39"/><line class="cls-10" x1="324.28" y1="614.33" x2="324.28" y2="617"/><polyline class="cls-10" points="353.35 623.21 353.35 536.58 357.06 536.58 357.06 525.7 275.11 525.7 275.11 536.58 278.82 536.58 278.82 540.87"/><line class="cls-10" x1="348.71" y1="536.7" x2="283.77" y2="536.7"/></g></g><circle class="cls-5" cx="159.16" cy="490.04" r="3.71"/><circle class="cls-5" cx="169.97" cy="490.04" r="3.71"/><circle class="cls-5" cx="180.3" cy="490.04" r="3.71"/><circle class="cls-11" cx="393.15" cy="499.29" r="60.33"/><path class="cls-5" d="M435.74,490.86c.57-4.19-7.24-10.87-7.24-10.87s-7.05,7.63-1.53,17c-1.72,2.48-3.62,2.29-7.43,2.67H351.93s-4.45,32.57,35.58,32.57c37.17-1.88,45.94-31.52,45.94-31.52,11.21,1.3,14.49-7.92,14.49-7.92A16.65,16.65,0,0,0,435.74,490.86Zm-57.66,26.55a2.81,2.81,0,1,1,2.81-2.82h0A2.81,2.81,0,0,1,378.08,517.41Z"/><rect class="cls-5" x="363.99" y="482.97" width="15.25" height="15.25"/><rect class="cls-5" x="380.89" y="482.97" width="15.25" height="15.25"/><rect class="cls-5" x="397.8" y="482.97" width="15.25" height="15.25"/><rect class="cls-5" x="380.89" y="466.38" width="15.25" height="15.25"/><circle class="cls-12" cx="403.94" cy="583.16" r="3.91"/><circle class="cls-12" cx="416.52" cy="583.16" r="3.91"/><circle class="cls-12" cx="429.45" cy="583.16" r="3.91"/><circle class="cls-12" cx="442.23" cy="583.16" r="3.91"/><text class="cls-13" transform="translate(450.15 594.3)">Fabric</text></svg>