<svg id="Layer_1" data-name="Layer 1" xmlns="http://www.w3.org/2000/svg" viewBox="0 0 696.67 870.12"><defs><style>.cls-1{fill:#e7e9f6;}.cls-2{fill:#1d1d1b;}.cls-3{fill:#8b9fd1;}.cls-4{fill:#fff;}.cls-5{fill:#f1f3f7;}.cls-6,.cls-8{fill:#fed601;}.cls-7,.cls-9{fill:none;stroke-linecap:round;stroke-linejoin:round;stroke-width:3px;}.cls-7,.cls-8{stroke:#fed601;}.cls-8{stroke-miterlimit:10;}.cls-9{stroke:#4256a2;}.cls-10{fill:#4365ae;}.cls-11{fill:#b8c1c1;}</style></defs><title>Install02</title><rect class="cls-1" x="0.41" y="0.67" width="696.67" height="870.12" rx="34.02" ry="34.02"/><path class="cls-2" d="M110.36,104.82V60.56h5.15v44.26Z"/><path class="cls-2" d="M149.59,104.82V83.36q0-4.06-1.85-6.05t-5.78-2q-5.21,0-7.63,2.82t-2.42,9.29v17.41h-5V71.64H131l.82,4.54H132a10.26,10.26,0,0,1,4.33-3.8A14.07,14.07,0,0,1,142.57,71q6,0,9,2.89t3,9.25v21.65Z"/><path class="cls-2" d="M186.35,95.77a8.31,8.31,0,0,1-3.45,7.14q-3.45,2.51-9.69,2.51-6.6,0-10.29-2.09V98.68a24.85,24.85,0,0,0,5.13,1.91,21.42,21.42,0,0,0,5.28.7,12,12,0,0,0,6.05-1.26,4.33,4.33,0,0,0,.44-7.14,26.45,26.45,0,0,0-6.55-3.25,35.53,35.53,0,0,1-6.58-3,9,9,0,0,1-2.91-2.92,7.62,7.62,0,0,1-1-3.91,7.44,7.44,0,0,1,3.3-6.4q3.3-2.35,9.05-2.35a26.49,26.49,0,0,1,10.47,2.18l-1.79,4.09a24.05,24.05,0,0,0-9.05-2.06,10.41,10.41,0,0,0-5.39,1.12,3.46,3.46,0,0,0-1.82,3.09,3.76,3.76,0,0,0,.68,2.27,6.71,6.71,0,0,0,2.19,1.79A48.89,48.89,0,0,0,176.3,86q5.9,2.15,8,4.33A7.64,7.64,0,0,1,186.35,95.77Z"/><path class="cls-2" d="M205.24,101.28a17.88,17.88,0,0,0,4.54-.61v3.84a9.19,9.19,0,0,1-2.41.65,18.09,18.09,0,0,1-2.86.26q-9.63,0-9.63-10.14V75.55h-4.75V73.13L194.88,71,197,64h2.91v7.69h9.63v3.91h-9.63V95.07a6.72,6.72,0,0,0,1.42,4.6A5,5,0,0,0,205.24,101.28Z"/><path class="cls-2" d="M236.81,104.82l-1-4.72h-.24a14,14,0,0,1-4.95,4.22,15.09,15.09,0,0,1-6.16,1.1q-4.94,0-7.73-2.54a9.27,9.27,0,0,1-2.8-7.24q0-10.05,16.08-10.54l5.63-.18V82.87q0-3.91-1.68-5.77t-5.37-1.86a21.89,21.89,0,0,0-9.38,2.54l-1.54-3.84A23.64,23.64,0,0,1,223,71.85a23.28,23.28,0,0,1,5.86-.76q5.93,0,8.79,2.63t2.86,8.45v22.64Zm-11.35-3.54a10.2,10.2,0,0,0,7.37-2.57,9.52,9.52,0,0,0,2.68-7.21v-3l-5,.21q-6,.21-8.64,1.86a5.61,5.61,0,0,0-2.65,5.13,5.18,5.18,0,0,0,1.65,4.15A6.85,6.85,0,0,0,225.46,101.28Z"/><path class="cls-2" d="M255.91,104.82h-5V57.72h5Z"/><path class="cls-2" d="M271.6,104.82h-5V57.72h5Z"/><path class="cls-2" d="M318.07,64.53q-7.3,0-11.52,4.86t-4.22,13.31q0,8.69,4.07,13.43T318,100.86a39.63,39.63,0,0,0,10.57-1.67v4.51a32.54,32.54,0,0,1-11.35,1.73q-9.78,0-15.09-5.93t-5.31-16.86a26.61,26.61,0,0,1,2.56-12,18.37,18.37,0,0,1,7.39-7.93,22.36,22.36,0,0,1,11.37-2.79,27.43,27.43,0,0,1,12.17,2.54l-2.18,4.42A23.46,23.46,0,0,0,318.07,64.53Z"/><path class="cls-2" d="M366.11,88.2q0,8.11-4.09,12.67t-11.29,4.56a15,15,0,0,1-7.9-2.09,13.78,13.78,0,0,1-5.33-6,20.89,20.89,0,0,1-1.88-9.14q0-8.11,4.06-12.64T350.94,71q7,0,11.06,4.63T366.11,88.2Zm-25.28,0q0,6.36,2.54,9.69t7.48,3.33q4.94,0,7.49-3.31t2.56-9.7q0-6.33-2.56-9.61t-7.55-3.28q-4.94,0-7.45,3.24T340.83,88.2Z"/><path class="cls-2" d="M417.21,104.82V83.24q0-4-1.7-5.95t-5.27-2q-4.69,0-6.93,2.69t-2.24,8.29v18.53h-5V83.24q0-4-1.7-5.95t-5.3-2q-4.72,0-6.92,2.83t-2.2,9.28v17.41h-5V71.64H379l.82,4.54h.24a9.87,9.87,0,0,1,4-3.78,12.25,12.25,0,0,1,5.8-1.36q7.78,0,10.17,5.63h.24a10.58,10.58,0,0,1,4.3-4.12A13.34,13.34,0,0,1,411,71q5.63,0,8.43,2.89t2.8,9.25v21.65Z"/><path class="cls-2" d="M448,105.43a14.37,14.37,0,0,1-5.92-1.2,11.13,11.13,0,0,1-4.5-3.68h-.36a44.51,44.51,0,0,1,.36,5.51v13.65h-5V71.64h4.09l.7,4.54h.24a11.67,11.67,0,0,1,4.51-3.94A13.71,13.71,0,0,1,448,71q6.6,0,10.19,4.51T461.8,88.2q0,8.17-3.65,12.7A12.28,12.28,0,0,1,448,105.43Zm-.73-30.12q-5.09,0-7.36,2.82t-2.33,9V88.2q0,7,2.33,10t7.48,3a7.77,7.77,0,0,0,6.74-3.48q2.44-3.48,2.44-9.6t-2.44-9.52A8,8,0,0,0,447.3,75.31Z"/><path class="cls-2" d="M499.22,88.2q0,8.11-4.09,12.67t-11.29,4.56a15,15,0,0,1-7.9-2.09,13.78,13.78,0,0,1-5.33-6,20.89,20.89,0,0,1-1.88-9.14q0-8.11,4.06-12.64T484.06,71q7,0,11.07,4.63T499.22,88.2Zm-25.28,0q0,6.36,2.54,9.69t7.48,3.33q4.93,0,7.49-3.31T494,88.2q0-6.33-2.56-9.61t-7.55-3.28q-4.94,0-7.45,3.24T473.94,88.2Z"/><path class="cls-2" d="M529.43,95.77a8.31,8.31,0,0,1-3.45,7.14q-3.45,2.51-9.69,2.51-6.6,0-10.29-2.09V98.68a24.84,24.84,0,0,0,5.13,1.91,21.42,21.42,0,0,0,5.28.7,12,12,0,0,0,6.05-1.26,4.33,4.33,0,0,0,.44-7.14,26.48,26.48,0,0,0-6.55-3.25,35.49,35.49,0,0,1-6.58-3,9,9,0,0,1-2.91-2.92,7.61,7.61,0,0,1-1-3.91,7.44,7.44,0,0,1,3.3-6.4q3.3-2.35,9.05-2.35a26.49,26.49,0,0,1,10.47,2.18L527,77.3a24.05,24.05,0,0,0-9.05-2.06,10.41,10.41,0,0,0-5.39,1.12,3.46,3.46,0,0,0-1.82,3.09,3.77,3.77,0,0,0,.68,2.27,6.72,6.72,0,0,0,2.2,1.79A48.89,48.89,0,0,0,519.38,86q5.9,2.15,8,4.33A7.63,7.63,0,0,1,529.43,95.77Z"/><path class="cls-2" d="M551.63,105.43q-7.36,0-11.61-4.48T535.76,88.5q0-8,4-12.75A13.12,13.12,0,0,1,550.32,71a12.51,12.51,0,0,1,9.87,4.1q3.63,4.1,3.63,10.82v3.18H541q.15,5.84,3,8.87t7.89,3a26.72,26.72,0,0,0,10.6-2.24v4.48a26.59,26.59,0,0,1-5,1.65A28.34,28.34,0,0,1,551.63,105.43Zm-1.36-30.18a8.21,8.21,0,0,0-6.37,2.6,12,12,0,0,0-2.8,7.21h17.35q0-4.75-2.12-7.28A7.46,7.46,0,0,0,550.26,75.24Z"/><path class="cls-2" d="M587.53,71a19.66,19.66,0,0,1,4,.36l-.7,4.66a17.11,17.11,0,0,0-3.63-.45,8.84,8.84,0,0,0-6.89,3.27A11.93,11.93,0,0,0,577.42,87v17.8h-5V71.64h4.15l.58,6.15h.24a14.59,14.59,0,0,1,4.45-5A10,10,0,0,1,587.53,71Z"/><path class="cls-2" d="M119.77,147.86q0,6.72-4.59,10.34t-13.12,3.62H96.86v17.41H91.71V135h11.47Q119.77,135,119.77,147.86Zm-22.92,9.54h4.63q6.84,0,9.9-2.21t3.06-7.08q0-4.39-2.88-6.54t-9-2.15H96.86Z"/><path class="cls-2" d="M133.31,179.22h-5V132.12h5Z"/><path class="cls-2" d="M164.37,179.22l-1-4.72h-.24a14,14,0,0,1-4.95,4.22,15.09,15.09,0,0,1-6.16,1.1q-4.94,0-7.73-2.54a9.27,9.27,0,0,1-2.8-7.24q0-10.05,16.08-10.54l5.63-.18v-2.06q0-3.91-1.68-5.77t-5.37-1.86a21.89,21.89,0,0,0-9.38,2.54l-1.54-3.84a23.64,23.64,0,0,1,5.37-2.09,23.28,23.28,0,0,1,5.86-.76q5.93,0,8.79,2.63t2.86,8.45v22.64ZM153,175.68a10.2,10.2,0,0,0,7.37-2.57,9.52,9.52,0,0,0,2.68-7.21v-3l-5,.21q-6,.21-8.64,1.86a5.61,5.61,0,0,0-2.65,5.13,5.18,5.18,0,0,0,1.65,4.15A6.85,6.85,0,0,0,153,175.68Z"/><path class="cls-2" d="M173.18,146h5.39L185.83,165a72.08,72.08,0,0,1,3,9.35H189q.39-1.54,1.65-5.28t8.22-23h5.39L190,183.82q-2.12,5.6-4.95,7.95a10.53,10.53,0,0,1-6.95,2.35,20.23,20.23,0,0,1-4.54-.51v-4a17.51,17.51,0,0,0,3.72.36q5.18,0,7.39-5.81l1.85-4.72Z"/><path class="cls-2" d="M236.84,146v3.18l-6.15.73a10.79,10.79,0,0,1,2.18,6.63,9.81,9.81,0,0,1-3.33,7.78q-3.33,2.91-9.14,2.91a15.21,15.21,0,0,1-2.79-.24q-3.21,1.7-3.21,4.27a2.17,2.17,0,0,0,1.12,2,8.18,8.18,0,0,0,3.84.65h5.87q5.39,0,8.28,2.27a7.89,7.89,0,0,1,2.89,6.6,9.42,9.42,0,0,1-4.42,8.4q-4.42,2.89-12.9,2.89-6.51,0-10-2.42a7.82,7.82,0,0,1-3.53-6.84,7.68,7.68,0,0,1,1.94-5.24,9.87,9.87,0,0,1,5.45-3,5.25,5.25,0,0,1-2.13-1.79,4.73,4.73,0,0,1-.86-2.82,5.34,5.34,0,0,1,1-3.18A10.18,10.18,0,0,1,214,166.2a9,9,0,0,1-4.19-3.6,10.58,10.58,0,0,1-1.62-5.81q0-5.45,3.27-8.4t9.26-3a16.86,16.86,0,0,1,4.69.61Zm-26.46,38.75a4.5,4.5,0,0,0,2.27,4.09,12.53,12.53,0,0,0,6.51,1.39q6.33,0,9.37-1.89a5.79,5.79,0,0,0,3-5.13q0-2.69-1.67-3.74t-6.27-1h-6a7.93,7.93,0,0,0-5.33,1.63A5.84,5.84,0,0,0,210.38,184.79Zm2.72-28.12a6.75,6.75,0,0,0,2,5.27,7.86,7.86,0,0,0,5.48,1.79q7.36,0,7.36-7.14,0-7.48-7.45-7.48A7.37,7.37,0,0,0,215,151,7.68,7.68,0,0,0,213.11,156.67Z"/><path class="cls-2" d="M258.79,145.44a19.67,19.67,0,0,1,4,.36l-.7,4.66a17.12,17.12,0,0,0-3.63-.45,8.84,8.84,0,0,0-6.89,3.27,11.92,11.92,0,0,0-2.86,8.14v17.8h-5V146h4.15l.58,6.15h.24a14.59,14.59,0,0,1,4.45-5A10,10,0,0,1,258.79,145.44Z"/><path class="cls-2" d="M297.6,162.6q0,8.11-4.09,12.67t-11.29,4.56a15,15,0,0,1-7.9-2.09,13.78,13.78,0,0,1-5.33-6,20.89,20.89,0,0,1-1.88-9.14q0-8.11,4.06-12.64t11.26-4.53q7,0,11.06,4.63T297.6,162.6Zm-25.28,0q0,6.36,2.54,9.69t7.48,3.33q4.93,0,7.49-3.31t2.56-9.7q0-6.33-2.56-9.61t-7.55-3.28q-4.94,0-7.45,3.24T272.32,162.6Z"/><path class="cls-2" d="M311.13,146v21.52q0,4.06,1.85,6.05t5.78,2q5.21,0,7.61-2.85t2.41-9.29V146h5v33.18h-4.15l-.73-4.45h-.27a10,10,0,0,1-4.28,3.75,14.4,14.4,0,0,1-6.25,1.3q-6.05,0-9.07-2.88t-3-9.2V146Z"/><path class="cls-2" d="M367.17,179.22V157.76q0-4.06-1.85-6.05t-5.78-2q-5.21,0-7.63,2.82t-2.42,9.29v17.41h-5V146h4.09l.82,4.54h.24a10.27,10.27,0,0,1,4.33-3.8,14.06,14.06,0,0,1,6.21-1.35q6,0,9,2.89t3,9.25v21.65Z"/><path class="cls-2" d="M405.1,174.77h-.27q-3.48,5.06-10.41,5.06-6.51,0-10.13-4.45t-3.62-12.65q0-8.2,3.63-12.75a12.22,12.22,0,0,1,10.11-4.54q6.75,0,10.35,4.9h.39l-.21-2.39-.12-2.33v-13.5h5v47.11h-4.09Zm-10.05.85q5.15,0,7.46-2.8t2.32-9v-1.06q0-7.05-2.35-10.07t-7.49-3a7.69,7.69,0,0,0-6.77,3.44q-2.35,3.44-2.35,9.7t2.33,9.6A7.89,7.89,0,0,0,395.05,175.62Z"/><path class="cls-2" d="M441.64,179.22h-5V132.12h5Z"/><path class="cls-2" d="M480.94,162.6q0,8.11-4.09,12.67t-11.29,4.56a15,15,0,0,1-7.9-2.09,13.78,13.78,0,0,1-5.33-6,20.89,20.89,0,0,1-1.88-9.14q0-8.11,4.06-12.64t11.26-4.53q7,0,11.07,4.63T480.94,162.6Zm-25.28,0q0,6.36,2.54,9.69t7.48,3.33q4.93,0,7.49-3.31t2.56-9.7q0-6.33-2.56-9.61t-7.55-3.28q-4.94,0-7.45,3.24T455.66,162.6Z"/><path class="cls-2" d="M503,179.83q-7.21,0-11.16-4.44t-4-12.55q0-8.32,4-12.87t11.43-4.54a22.71,22.71,0,0,1,4.78.51,15.79,15.79,0,0,1,3.75,1.21l-1.54,4.27a23.71,23.71,0,0,0-3.63-1.1,16.23,16.23,0,0,0-3.48-.44q-10.11,0-10.11,12.9,0,6.12,2.47,9.38t7.31,3.27a22.35,22.35,0,0,0,8.51-1.79v4.45A18.13,18.13,0,0,1,503,179.83Z"/><path class="cls-2" d="M539.67,179.22l-1-4.72h-.24a14,14,0,0,1-5,4.22,15.09,15.09,0,0,1-6.16,1.1q-4.94,0-7.73-2.54a9.27,9.27,0,0,1-2.8-7.24q0-10.05,16.08-10.54l5.63-.18v-2.06q0-3.91-1.68-5.77t-5.37-1.86a21.89,21.89,0,0,0-9.38,2.54l-1.54-3.84a23.64,23.64,0,0,1,5.37-2.09,23.27,23.27,0,0,1,5.86-.76q5.93,0,8.79,2.63t2.86,8.45v22.64Zm-11.35-3.54a10.2,10.2,0,0,0,7.37-2.57,9.52,9.52,0,0,0,2.68-7.21v-3l-5,.21q-6,.21-8.64,1.86a5.61,5.61,0,0,0-2.65,5.13,5.18,5.18,0,0,0,1.65,4.15A6.85,6.85,0,0,0,528.31,175.68Z"/><path class="cls-2" d="M558.77,179.22h-5V132.12h5Z"/><path class="cls-2" d="M574.45,179.22h-5V132.12h5Z"/><path class="cls-2" d="M579.84,146h5.39L592.49,165a72,72,0,0,1,3,9.35h.24q.39-1.54,1.65-5.28t8.22-23H611L596.7,183.82q-2.12,5.6-4.95,7.95a10.53,10.53,0,0,1-6.95,2.35,20.23,20.23,0,0,1-4.54-.51v-4a17.51,17.51,0,0,0,3.72.36q5.18,0,7.39-5.81l1.85-4.72Z"/><path class="cls-2" d="M116.12,259.68q0,6.8-3.44,10.69t-9.56,3.89q-6.26,0-9.66-3.83t-3.4-10.8q0-6.92,3.41-10.72t9.69-3.81q6.1,0,9.53,3.88T116.12,259.68Zm-22.57,0q0,5.75,2.45,8.73a8.7,8.7,0,0,0,7.12,3q4.71,0,7.11-3t2.4-8.74q0-5.72-2.39-8.67t-7.08-3q-4.71,0-7.16,3T93.55,259.68Z"/><path class="cls-2" d="M136.49,273.88V260.14a5.54,5.54,0,0,0-1.18-3.87,4.81,4.81,0,0,0-3.7-1.28q-3.33,0-4.88,1.8t-1.55,5.95v11.14H122V252.65h2.62l.52,2.91h.15a6.56,6.56,0,0,1,2.77-2.43,9,9,0,0,1,4-.86q3.84,0,5.77,1.85T139.7,260v13.85Z"/><path class="cls-2" d="M155.28,274.27a9.76,9.76,0,0,1-7.43-2.87q-2.72-2.87-2.72-8a12.31,12.31,0,0,1,2.53-8.16,8.4,8.4,0,0,1,6.79-3,8,8,0,0,1,6.32,2.63,10.06,10.06,0,0,1,2.33,6.93v2H148.46a8.42,8.42,0,0,0,1.89,5.68,6.53,6.53,0,0,0,5,1.94,17.1,17.1,0,0,0,6.78-1.43v2.87a17,17,0,0,1-3.23,1.06A18.15,18.15,0,0,1,155.28,274.27ZM154.41,255a5.25,5.25,0,0,0-4.08,1.67,7.68,7.68,0,0,0-1.79,4.61h11.1a7.07,7.07,0,0,0-1.36-4.66A4.77,4.77,0,0,0,154.41,255Z"/><path class="cls-2" d="M166.79,264.72v-2.94h9.51v2.94Z"/><path class="cls-2" d="M184.56,273.88h-3.22V243.73h3.22Z"/><path class="cls-2" d="M191.11,246.89a2.14,2.14,0,0,1,.54-1.62,2,2,0,0,1,2.69,0,2.1,2.1,0,0,1,.56,1.61,2.13,2.13,0,0,1-.56,1.62A1.88,1.88,0,0,1,193,249a1.86,1.86,0,0,1-1.36-.53A2.17,2.17,0,0,1,191.11,246.89Zm3.49,27h-3.22V252.65h3.22Z"/><path class="cls-2" d="M215.94,273.88V260.14a5.54,5.54,0,0,0-1.18-3.87,4.81,4.81,0,0,0-3.7-1.28q-3.33,0-4.88,1.8t-1.55,5.95v11.14h-3.22V252.65H204l.52,2.91h.15a6.56,6.56,0,0,1,2.77-2.43,9,9,0,0,1,4-.86q3.84,0,5.77,1.85t1.94,5.92v13.85Z"/><path class="cls-2" d="M234.74,274.27a9.76,9.76,0,0,1-7.43-2.87q-2.72-2.87-2.72-8a12.31,12.31,0,0,1,2.53-8.16,8.4,8.4,0,0,1,6.79-3,8,8,0,0,1,6.32,2.63,10.06,10.06,0,0,1,2.33,6.93v2H227.92a8.42,8.42,0,0,0,1.89,5.68,6.53,6.53,0,0,0,5,1.94,17.1,17.1,0,0,0,6.78-1.43v2.87a17,17,0,0,1-3.23,1.06A18.15,18.15,0,0,1,234.74,274.27ZM233.87,255a5.25,5.25,0,0,0-4.08,1.67,7.68,7.68,0,0,0-1.79,4.61h11.1a7.07,7.07,0,0,0-1.36-4.66A4.77,4.77,0,0,0,233.87,255Z"/><path class="cls-2" d="M258.07,246.89a2.14,2.14,0,0,1,.54-1.62,2,2,0,0,1,2.69,0,2.1,2.1,0,0,1,.56,1.61,2.13,2.13,0,0,1-.56,1.62A1.88,1.88,0,0,1,260,249a1.86,1.86,0,0,1-1.36-.53A2.17,2.17,0,0,1,258.07,246.89Zm3.49,27h-3.22V252.65h3.22Z"/><path class="cls-2" d="M282.9,273.88V260.14a5.54,5.54,0,0,0-1.18-3.87A4.81,4.81,0,0,0,278,255q-3.33,0-4.88,1.8t-1.55,5.95v11.14h-3.22V252.65H271l.52,2.91h.15a6.56,6.56,0,0,1,2.77-2.43,9,9,0,0,1,4-.86q3.84,0,5.77,1.85t1.94,5.92v13.85Z"/><path class="cls-2" d="M306.43,268.09a5.32,5.32,0,0,1-2.21,4.57,10.38,10.38,0,0,1-6.2,1.61,13.48,13.48,0,0,1-6.59-1.34v-3a15.92,15.92,0,0,0,3.28,1.22,13.7,13.7,0,0,0,3.38.45,7.67,7.67,0,0,0,3.88-.8,2.77,2.77,0,0,0,.28-4.57,16.93,16.93,0,0,0-4.19-2.08,22.73,22.73,0,0,1-4.21-1.93,5.75,5.75,0,0,1-1.86-1.87,4.88,4.88,0,0,1-.61-2.5,4.77,4.77,0,0,1,2.11-4.1,9.84,9.84,0,0,1,5.79-1.5,17,17,0,0,1,6.7,1.4l-1.14,2.62A15.39,15.39,0,0,0,299,255a6.67,6.67,0,0,0-3.45.72,2.22,2.22,0,0,0-1.16,2,2.41,2.41,0,0,0,.44,1.45,4.3,4.3,0,0,0,1.4,1.14,31.28,31.28,0,0,0,3.72,1.57,13.9,13.9,0,0,1,5.1,2.77A4.89,4.89,0,0,1,306.43,268.09Z"/><path class="cls-2" d="M318.52,271.61a10.51,10.51,0,0,0,1.65-.13,10.65,10.65,0,0,0,1.26-.26v2.46a5.88,5.88,0,0,1-1.54.42,11.56,11.56,0,0,1-1.83.17q-6.16,0-6.16-6.49V255.14h-3V253.6l3-1.34,1.36-4.53h1.86v4.92h6.16v2.5h-6.16v12.5a4.3,4.3,0,0,0,.91,2.94A3.17,3.17,0,0,0,318.52,271.61Z"/><path class="cls-2" d="M338.72,273.88l-.64-3h-.16a8.93,8.93,0,0,1-3.17,2.7,9.65,9.65,0,0,1-3.94.71,7.09,7.09,0,0,1-5-1.63,5.93,5.93,0,0,1-1.79-4.63q0-6.43,10.29-6.74l3.6-.12v-1.32a5.38,5.38,0,0,0-1.08-3.69,4.42,4.42,0,0,0-3.44-1.19,14,14,0,0,0-6,1.63l-1-2.46a15.14,15.14,0,0,1,3.44-1.34,14.92,14.92,0,0,1,3.75-.48q3.8,0,5.63,1.69t1.83,5.41v14.49Zm-7.27-2.27a6.53,6.53,0,0,0,4.72-1.65,6.09,6.09,0,0,0,1.71-4.61v-1.92l-3.22.14a11.7,11.7,0,0,0-5.53,1.19,3.59,3.59,0,0,0-1.7,3.28,3.31,3.31,0,0,0,1.06,2.65A4.38,4.38,0,0,0,331.46,271.61Z"/><path class="cls-2" d="M350.95,273.88h-3.22V243.73h3.22Z"/><path class="cls-2" d="M361,273.88h-3.22V243.73H361Z"/><path class="cls-2" d="M371.18,269.27l.29.45q-.5,1.94-1.45,4.5T368,279h-2.42q.52-2,1.15-5t.88-4.75Z"/><path class="cls-2" d="M400.45,248.09a9.26,9.26,0,0,0-7.37,3.11q-2.7,3.11-2.7,8.52,0,5.56,2.61,8.59a9.26,9.26,0,0,0,7.43,3,25.36,25.36,0,0,0,6.76-1.07v2.89a20.82,20.82,0,0,1-7.27,1.1q-6.26,0-9.66-3.8t-3.4-10.79a17,17,0,0,1,1.64-7.67,11.76,11.76,0,0,1,4.73-5.08,14.31,14.31,0,0,1,7.28-1.78,17.55,17.55,0,0,1,7.79,1.63l-1.4,2.83A15,15,0,0,0,400.45,248.09Z"/><path class="cls-2" d="M431.2,263.24q0,5.19-2.62,8.11a9.21,9.21,0,0,1-7.23,2.92,9.57,9.57,0,0,1-5.06-1.34,8.82,8.82,0,0,1-3.41-3.84,13.37,13.37,0,0,1-1.2-5.85q0-5.19,2.6-8.09a9.18,9.18,0,0,1,7.21-2.9,9,9,0,0,1,7.08,3A11.67,11.67,0,0,1,431.2,263.24Zm-16.18,0a10.08,10.08,0,0,0,1.63,6.2,6.46,6.46,0,0,0,9.58,0q1.64-2.12,1.64-6.21a9.87,9.87,0,0,0-1.64-6.15,5.75,5.75,0,0,0-4.83-2.1,5.66,5.66,0,0,0-4.77,2.07Q415,259.14,415,263.24Z"/><path class="cls-2" d="M463.91,273.88V260.07a5.73,5.73,0,0,0-1.08-3.81,4.2,4.2,0,0,0-3.37-1.27,5.44,5.44,0,0,0-4.44,1.72q-1.44,1.72-1.43,5.31v11.86h-3.22V260.07a5.73,5.73,0,0,0-1.09-3.81,4.22,4.22,0,0,0-3.39-1.27,5.25,5.25,0,0,0-4.43,1.81q-1.4,1.81-1.4,5.94v11.14h-3.22V252.65h2.62l.52,2.91h.15a6.32,6.32,0,0,1,2.57-2.42,7.84,7.84,0,0,1,3.71-.87q5,0,6.51,3.6h.16a6.76,6.76,0,0,1,2.75-2.64,8.54,8.54,0,0,1,4.11-1,7.19,7.19,0,0,1,5.4,1.85q1.79,1.85,1.79,5.92v13.85Z"/><path class="cls-2" d="M483.63,274.27a9.19,9.19,0,0,1-3.79-.77,7.13,7.13,0,0,1-2.88-2.35h-.23a28.62,28.62,0,0,1,.23,3.53v8.74h-3.22V252.65h2.62l.45,2.91H477a7.47,7.47,0,0,1,2.89-2.52,8.78,8.78,0,0,1,3.78-.77,7.85,7.85,0,0,1,6.52,2.89q2.3,2.89,2.3,8.1t-2.33,8.13A7.86,7.86,0,0,1,483.63,274.27ZM483.16,255q-3.25,0-4.71,1.8T477,262.53v.72q0,4.48,1.49,6.4t4.79,1.93a5,5,0,0,0,4.31-2.23,10.56,10.56,0,0,0,1.56-6.14,10.17,10.17,0,0,0-1.56-6.09A5.13,5.13,0,0,0,483.16,255Z"/><path class="cls-2" d="M516.39,263.24q0,5.19-2.62,8.11a9.21,9.21,0,0,1-7.23,2.92,9.57,9.57,0,0,1-5.06-1.34,8.82,8.82,0,0,1-3.41-3.84,13.37,13.37,0,0,1-1.2-5.85q0-5.19,2.6-8.09a9.18,9.18,0,0,1,7.21-2.9,9,9,0,0,1,7.08,3A11.67,11.67,0,0,1,516.39,263.24Zm-16.18,0a10.08,10.08,0,0,0,1.63,6.2,6.46,6.46,0,0,0,9.58,0q1.64-2.12,1.64-6.21a9.87,9.87,0,0,0-1.64-6.15,5.75,5.75,0,0,0-4.83-2.1,5.66,5.66,0,0,0-4.77,2.07Q500.21,259.14,500.21,263.24Z"/><path class="cls-2" d="M535.73,268.09a5.32,5.32,0,0,1-2.21,4.57,10.38,10.38,0,0,1-6.2,1.61,13.48,13.48,0,0,1-6.59-1.34v-3a15.93,15.93,0,0,0,3.28,1.22,13.7,13.7,0,0,0,3.38.45,7.67,7.67,0,0,0,3.88-.8,2.77,2.77,0,0,0,.28-4.57,16.94,16.94,0,0,0-4.19-2.08,22.75,22.75,0,0,1-4.21-1.93,5.75,5.75,0,0,1-1.86-1.87,4.87,4.87,0,0,1-.61-2.5,4.77,4.77,0,0,1,2.11-4.1,9.84,9.84,0,0,1,5.79-1.5,17,17,0,0,1,6.7,1.4l-1.14,2.62a15.39,15.39,0,0,0-5.79-1.32,6.66,6.66,0,0,0-3.45.72,2.22,2.22,0,0,0-1.16,2,2.4,2.4,0,0,0,.44,1.45,4.29,4.29,0,0,0,1.4,1.14,31.3,31.3,0,0,0,3.72,1.57,13.91,13.91,0,0,1,5.1,2.77A4.89,4.89,0,0,1,535.73,268.09Z"/><path class="cls-2" d="M549.93,274.27a9.76,9.76,0,0,1-7.43-2.87q-2.72-2.87-2.72-8a12.31,12.31,0,0,1,2.53-8.16,8.4,8.4,0,0,1,6.79-3,8,8,0,0,1,6.32,2.63,10.07,10.07,0,0,1,2.32,6.93v2H543.11a8.41,8.41,0,0,0,1.89,5.68,6.53,6.53,0,0,0,5,1.94,17.1,17.1,0,0,0,6.78-1.43v2.87a17,17,0,0,1-3.23,1.06A18.14,18.14,0,0,1,549.93,274.27ZM549.06,255a5.25,5.25,0,0,0-4.08,1.67,7.68,7.68,0,0,0-1.79,4.61h11.1a7.07,7.07,0,0,0-1.36-4.66A4.77,4.77,0,0,0,549.06,255Z"/><path class="cls-2" d="M572.91,252.26a12.61,12.61,0,0,1,2.54.23l-.45,3a11,11,0,0,0-2.33-.29,5.66,5.66,0,0,0-4.41,2.09,7.63,7.63,0,0,0-1.83,5.21v11.39h-3.22V252.65h2.65l.37,3.93h.15a9.34,9.34,0,0,1,2.85-3.2A6.41,6.41,0,0,1,572.91,252.26Z"/><path class="cls-2" d="M599,258.56h8v2.67h-8v8.25h-2.69v-8.25h-7.94v-2.67h7.94v-8.29H599Z"/><path class="cls-2" d="M116.39,321.5h-3.29V293.17h15.79v2.93h-12.5v10.37h11.74v2.93H116.39Z"/><path class="cls-2" d="M146.15,321.5l-.64-3h-.16a8.93,8.93,0,0,1-3.17,2.7,9.65,9.65,0,0,1-3.94.71,7.09,7.09,0,0,1-5-1.63,5.93,5.93,0,0,1-1.79-4.63q0-6.43,10.29-6.74l3.6-.12v-1.32a5.38,5.38,0,0,0-1.08-3.69,4.42,4.42,0,0,0-3.44-1.19,14,14,0,0,0-6,1.63l-1-2.46a15.14,15.14,0,0,1,3.44-1.34,14.92,14.92,0,0,1,3.75-.48q3.8,0,5.63,1.69t1.83,5.41V321.5Zm-7.27-2.27a6.53,6.53,0,0,0,4.72-1.65,6.09,6.09,0,0,0,1.71-4.61v-1.92l-3.22.14a11.7,11.7,0,0,0-5.53,1.19,3.59,3.59,0,0,0-1.7,3.28,3.31,3.31,0,0,0,1.06,2.65A4.38,4.38,0,0,0,138.88,319.23Z"/><path class="cls-2" d="M165,299.91a7.9,7.9,0,0,1,6.5,2.86q2.32,2.86,2.32,8.09T171.52,319a7.86,7.86,0,0,1-6.48,2.9,9.19,9.19,0,0,1-3.79-.77,7.12,7.12,0,0,1-2.88-2.35h-.23l-.68,2.73h-2.31V291.35h3.22v7.32q0,2.46-.16,4.42h.16A7.63,7.63,0,0,1,165,299.91Zm-.46,2.69q-3.29,0-4.75,1.89t-1.45,6.36q0,4.48,1.49,6.4t4.79,1.93a5,5,0,0,0,4.42-2.16,11.1,11.1,0,0,0,1.45-6.21q0-4.15-1.45-6.18A5.15,5.15,0,0,0,164.57,302.61Z"/><path class="cls-2" d="M189.16,299.87a12.61,12.61,0,0,1,2.54.23l-.45,3a11,11,0,0,0-2.32-.29,5.66,5.66,0,0,0-4.41,2.09,7.63,7.63,0,0,0-1.83,5.21V321.5h-3.22V300.26h2.65l.37,3.93h.15a9.33,9.33,0,0,1,2.85-3.2A6.41,6.41,0,0,1,189.16,299.87Z"/><path class="cls-2" d="M195.4,294.51a2.14,2.14,0,0,1,.54-1.62,2,2,0,0,1,2.69,0,2.1,2.1,0,0,1,.56,1.61,2.13,2.13,0,0,1-.56,1.62,1.88,1.88,0,0,1-1.34.53,1.86,1.86,0,0,1-1.36-.53A2.17,2.17,0,0,1,195.4,294.51Zm3.49,27h-3.22V300.26h3.22Z"/><path class="cls-2" d="M214.19,321.88a9.06,9.06,0,0,1-7.14-2.84q-2.53-2.84-2.53-8t2.57-8.23a9.24,9.24,0,0,1,7.31-2.91,14.51,14.51,0,0,1,3.06.33,10.11,10.11,0,0,1,2.4.77l-1,2.73a15.14,15.14,0,0,0-2.33-.71,10.39,10.39,0,0,0-2.23-.28q-6.47,0-6.47,8.25a9.83,9.83,0,0,0,1.58,6,5.49,5.49,0,0,0,4.68,2.09,14.3,14.3,0,0,0,5.44-1.14v2.85A11.6,11.6,0,0,1,214.19,321.88Z"/><path class="cls-2" d="M244.59,299.87a12.61,12.61,0,0,1,2.54.23l-.45,3a11,11,0,0,0-2.32-.29,5.66,5.66,0,0,0-4.41,2.09,7.63,7.63,0,0,0-1.83,5.21V321.5H234.9V300.26h2.65l.37,3.93h.15a9.33,9.33,0,0,1,2.85-3.2A6.41,6.41,0,0,1,244.59,299.87Z"/><path class="cls-2" d="M254.12,300.26V314a5.54,5.54,0,0,0,1.18,3.88,4.81,4.81,0,0,0,3.7,1.28q3.33,0,4.87-1.82t1.54-5.95V300.26h3.22V321.5H266l-.46-2.85h-.17a6.41,6.41,0,0,1-2.74,2.4,9.22,9.22,0,0,1-4,.83q-3.88,0-5.8-1.84t-1.93-5.89V300.26Z"/><path class="cls-2" d="M290,321.5V307.76a5.54,5.54,0,0,0-1.18-3.87,4.81,4.81,0,0,0-3.7-1.28q-3.33,0-4.88,1.8t-1.55,5.95V321.5h-3.22V300.26h2.62l.52,2.91h.15a6.56,6.56,0,0,1,2.77-2.43,9,9,0,0,1,4-.86q3.84,0,5.77,1.85t1.94,5.92V321.5Z"/><path class="cls-2" d="M314.34,321.5V307.76a5.54,5.54,0,0,0-1.18-3.87,4.81,4.81,0,0,0-3.7-1.28q-3.33,0-4.88,1.8T303,310.36V321.5h-3.22V300.26h2.62l.52,2.91h.15a6.56,6.56,0,0,1,2.77-2.43,9,9,0,0,1,4-.86q3.84,0,5.77,1.85t1.94,5.92V321.5Z"/><path class="cls-2" d="M323.89,294.51a2.14,2.14,0,0,1,.54-1.62,2,2,0,0,1,2.69,0,2.1,2.1,0,0,1,.56,1.61,2.13,2.13,0,0,1-.56,1.62,1.88,1.88,0,0,1-1.34.53,1.86,1.86,0,0,1-1.36-.53A2.17,2.17,0,0,1,323.89,294.51Zm3.49,27h-3.22V300.26h3.22Z"/><path class="cls-2" d="M348.73,321.5V307.76a5.54,5.54,0,0,0-1.18-3.87,4.81,4.81,0,0,0-3.7-1.28q-3.33,0-4.88,1.8t-1.55,5.95V321.5H334.2V300.26h2.62l.52,2.91h.15a6.56,6.56,0,0,1,2.77-2.43,9,9,0,0,1,4-.86q3.84,0,5.77,1.85t1.94,5.92V321.5Z"/><path class="cls-2" d="M375.93,300.26v2l-3.93.46a6.91,6.91,0,0,1,1.4,4.24,6.28,6.28,0,0,1-2.13,5,8.6,8.6,0,0,1-5.85,1.86,9.71,9.71,0,0,1-1.78-.15q-2.05,1.09-2.05,2.73a1.39,1.39,0,0,0,.72,1.29,5.24,5.24,0,0,0,2.46.42h3.76a8.42,8.42,0,0,1,5.3,1.45,5.05,5.05,0,0,1,1.85,4.22,6,6,0,0,1-2.83,5.38Q370,331,364.58,331a11.28,11.28,0,0,1-6.42-1.55,5,5,0,0,1-2.26-4.38,4.91,4.91,0,0,1,1.24-3.35,6.32,6.32,0,0,1,3.49-1.92,3.35,3.35,0,0,1-1.37-1.14,3,3,0,0,1-.55-1.8,3.42,3.42,0,0,1,.62-2,6.51,6.51,0,0,1,2-1.69,5.73,5.73,0,0,1-2.68-2.31,6.77,6.77,0,0,1-1-3.72,6.87,6.87,0,0,1,2.09-5.38,8.54,8.54,0,0,1,5.93-1.89,10.78,10.78,0,0,1,3,.39ZM359,325.06a2.88,2.88,0,0,0,1.45,2.62,8,8,0,0,0,4.17.89,11.63,11.63,0,0,0,6-1.21,3.71,3.71,0,0,0,1.95-3.28,2.6,2.6,0,0,0-1.07-2.39,8.27,8.27,0,0,0-4-.67h-3.86a5.07,5.07,0,0,0-3.41,1A3.74,3.74,0,0,0,359,325.06Zm1.74-18a4.32,4.32,0,0,0,1.26,3.37,5,5,0,0,0,3.51,1.14q4.71,0,4.71-4.57,0-4.78-4.77-4.79a4.72,4.72,0,0,0-3.49,1.22A4.92,4.92,0,0,0,360.74,307.06Z"/><path class="cls-2" d="M408.93,310.86q0,5.19-2.62,8.11a9.21,9.21,0,0,1-7.23,2.92,9.57,9.57,0,0,1-5.06-1.34,8.82,8.82,0,0,1-3.41-3.84,13.37,13.37,0,0,1-1.2-5.85q0-5.19,2.6-8.09a9.19,9.19,0,0,1,7.21-2.9,9,9,0,0,1,7.08,3A11.66,11.66,0,0,1,408.93,310.86Zm-16.18,0a10.07,10.07,0,0,0,1.63,6.2,6.46,6.46,0,0,0,9.58,0q1.64-2.12,1.64-6.21T404,304.71a5.75,5.75,0,0,0-4.83-2.1,5.66,5.66,0,0,0-4.77,2.07Q392.75,306.75,392.75,310.86Z"/><path class="cls-2" d="M429.1,321.5V307.76a5.54,5.54,0,0,0-1.18-3.87,4.81,4.81,0,0,0-3.7-1.28q-3.33,0-4.88,1.8t-1.55,5.95V321.5h-3.22V300.26h2.62l.52,2.91h.16a6.56,6.56,0,0,1,2.77-2.43,9,9,0,0,1,4-.86q3.84,0,5.77,1.85t1.94,5.92V321.5Z"/><path class="cls-2" d="M472.32,307.06q0,7-3.81,10.72t-11,3.71h-7.85V293.17h8.68q6.61,0,10.27,3.66T472.32,307.06Zm-3.49.12q0-5.54-2.78-8.35T457.79,296H453v22.63h4q5.89,0,8.86-2.9T468.84,307.18Z"/><path class="cls-2" d="M496.48,310.86q0,5.19-2.62,8.11a9.21,9.21,0,0,1-7.23,2.92,9.57,9.57,0,0,1-5.06-1.34,8.82,8.82,0,0,1-3.41-3.84,13.37,13.37,0,0,1-1.2-5.85q0-5.19,2.6-8.09a9.18,9.18,0,0,1,7.21-2.9,9,9,0,0,1,7.08,3A11.67,11.67,0,0,1,496.48,310.86Zm-16.18,0a10.08,10.08,0,0,0,1.63,6.2,6.46,6.46,0,0,0,9.58,0q1.64-2.12,1.64-6.21t-1.64-6.15a5.75,5.75,0,0,0-4.83-2.1,5.66,5.66,0,0,0-4.77,2.07Q480.31,306.75,480.31,310.86Z"/><path class="cls-2" d="M510.61,321.88a9.07,9.07,0,0,1-7.14-2.84q-2.53-2.84-2.53-8t2.57-8.23a9.25,9.25,0,0,1,7.31-2.91,14.5,14.5,0,0,1,3.06.33,10.09,10.09,0,0,1,2.4.77l-1,2.73A15.12,15.12,0,0,0,513,303a10.4,10.4,0,0,0-2.23-.28q-6.47,0-6.47,8.25a9.83,9.83,0,0,0,1.58,6,5.49,5.49,0,0,0,4.68,2.09,14.31,14.31,0,0,0,5.45-1.14v2.85A11.61,11.61,0,0,1,510.61,321.88Z"/><path class="cls-2" d="M524.19,310.63a37.59,37.59,0,0,1,2.54-3.1l6.86-7.27h3.82l-8.6,9L538,321.5h-3.89l-7.5-10-2.42,2.09v7.94H521V291.35h3.18v16q0,1.07-.16,3.29Z"/><path class="cls-2" d="M550.81,321.88a9.76,9.76,0,0,1-7.43-2.87q-2.72-2.87-2.72-8a12.31,12.31,0,0,1,2.53-8.16,8.4,8.4,0,0,1,6.79-3,8,8,0,0,1,6.32,2.63,10.06,10.06,0,0,1,2.33,6.93v2H544a8.42,8.42,0,0,0,1.89,5.68,6.53,6.53,0,0,0,5,1.94,17.1,17.1,0,0,0,6.78-1.43v2.87a17,17,0,0,1-3.23,1.06A18.15,18.15,0,0,1,550.81,321.88Zm-.87-19.32a5.25,5.25,0,0,0-4.08,1.67,7.68,7.68,0,0,0-1.79,4.61h11.1a7.08,7.08,0,0,0-1.36-4.66A4.77,4.77,0,0,0,549.94,302.57Z"/><path class="cls-2" d="M573.79,299.87a12.6,12.6,0,0,1,2.54.23l-.45,3a10.94,10.94,0,0,0-2.32-.29,5.66,5.66,0,0,0-4.41,2.09,7.63,7.63,0,0,0-1.83,5.21V321.5H564.1V300.26h2.65l.37,3.93h.16a9.32,9.32,0,0,1,2.85-3.2A6.42,6.42,0,0,1,573.79,299.87Z"/><path class="cls-2" d="M579.84,319.44a2.88,2.88,0,0,1,.59-2,2.14,2.14,0,0,1,1.7-.67,2.29,2.29,0,0,1,1.75.67,2.77,2.77,0,0,1,.63,2,2.71,2.71,0,0,1-.64,1.94,2.54,2.54,0,0,1-3.38.07A2.65,2.65,0,0,1,579.84,319.44Z"/><path class="cls-2" d="M155.67,354.68q0,7-3.81,10.72t-11,3.71h-7.85V340.79h8.68q6.61,0,10.27,3.66T155.67,354.68Zm-3.49.12q0-5.54-2.78-8.35t-8.26-2.81h-4.79v22.63h4q5.89,0,8.85-2.9T152.18,354.79Z"/><path class="cls-2" d="M170.47,369.5a9.76,9.76,0,0,1-7.43-2.87q-2.72-2.87-2.72-8a12.31,12.31,0,0,1,2.53-8.16,8.4,8.4,0,0,1,6.79-3,8,8,0,0,1,6.32,2.63,10.06,10.06,0,0,1,2.33,6.93v2H163.65a8.42,8.42,0,0,0,1.89,5.68,6.53,6.53,0,0,0,5,1.94,17.1,17.1,0,0,0,6.78-1.43v2.87a17,17,0,0,1-3.23,1.06A18.15,18.15,0,0,1,170.47,369.5Zm-.87-19.32a5.25,5.25,0,0,0-4.08,1.67,7.68,7.68,0,0,0-1.79,4.61h11.1a7.07,7.07,0,0,0-1.36-4.66A4.77,4.77,0,0,0,169.6,350.18Z"/><path class="cls-2" d="M193.64,369.5a9.19,9.19,0,0,1-3.79-.77,7.12,7.12,0,0,1-2.88-2.35h-.23a28.44,28.44,0,0,1,.23,3.53v8.74h-3.22V347.88h2.62l.45,2.91H187a7.47,7.47,0,0,1,2.89-2.52,8.78,8.78,0,0,1,3.78-.77,7.85,7.85,0,0,1,6.52,2.89q2.3,2.89,2.3,8.1t-2.33,8.13A7.86,7.86,0,0,1,193.64,369.5Zm-.46-19.28q-3.25,0-4.71,1.8T187,357.76v.72q0,4.48,1.49,6.4t4.79,1.93a5,5,0,0,0,4.31-2.23,10.57,10.57,0,0,0,1.56-6.14,10.17,10.17,0,0,0-1.56-6.09A5.13,5.13,0,0,0,193.18,350.22Z"/><path class="cls-2" d="M211.29,369.11h-3.22V339h3.22Z"/><path class="cls-2" d="M236.44,358.48q0,5.19-2.62,8.11a9.21,9.21,0,0,1-7.23,2.92,9.57,9.57,0,0,1-5.06-1.34,8.82,8.82,0,0,1-3.41-3.84,13.37,13.37,0,0,1-1.2-5.85q0-5.19,2.6-8.09a9.18,9.18,0,0,1,7.21-2.9,9,9,0,0,1,7.08,3A11.66,11.66,0,0,1,236.44,358.48Zm-16.18,0a10.08,10.08,0,0,0,1.63,6.2,6.46,6.46,0,0,0,9.58,0q1.64-2.12,1.64-6.21t-1.64-6.15a5.75,5.75,0,0,0-4.83-2.1,5.66,5.66,0,0,0-4.77,2.07Q220.26,354.37,220.26,358.48Z"/><path class="cls-2" d="M238.71,347.88h3.45L246.81,360a46.14,46.14,0,0,1,1.9,6h.16q.25-1,1.06-3.38t5.26-14.72h3.45l-9.13,24.18a12.06,12.06,0,0,1-3.17,5.09,6.74,6.74,0,0,1-4.45,1.5,12.93,12.93,0,0,1-2.91-.33v-2.58a11.22,11.22,0,0,0,2.38.23q3.31,0,4.73-3.72l1.18-3Z"/><path class="cls-2" d="M279.24,366.85a10.51,10.51,0,0,0,1.65-.13,10.65,10.65,0,0,0,1.26-.26v2.46a5.88,5.88,0,0,1-1.54.42,11.56,11.56,0,0,1-1.83.17q-6.16,0-6.16-6.49V350.38h-3v-1.55l3-1.34L274,343h1.86v4.92H282v2.5h-6.16v12.5a4.3,4.3,0,0,0,.91,2.94A3.17,3.17,0,0,0,279.24,366.85Z"/><path class="cls-2" d="M304.72,358.48q0,5.19-2.62,8.11a9.21,9.21,0,0,1-7.23,2.92,9.57,9.57,0,0,1-5.06-1.34,8.82,8.82,0,0,1-3.41-3.84,13.37,13.37,0,0,1-1.2-5.85q0-5.19,2.6-8.09a9.18,9.18,0,0,1,7.21-2.9,9,9,0,0,1,7.08,3A11.66,11.66,0,0,1,304.72,358.48Zm-16.18,0a10.08,10.08,0,0,0,1.63,6.2,6.46,6.46,0,0,0,9.58,0q1.64-2.12,1.64-6.21t-1.64-6.15a5.75,5.75,0,0,0-4.83-2.1,5.66,5.66,0,0,0-4.77,2.07Q288.54,354.37,288.54,358.48Z"/><path class="cls-2" d="M333.72,369.11l-.64-3h-.16a8.93,8.93,0,0,1-3.17,2.7,9.65,9.65,0,0,1-3.94.71,7.09,7.09,0,0,1-5-1.63,5.93,5.93,0,0,1-1.79-4.63q0-6.43,10.29-6.74l3.6-.12v-1.32a5.38,5.38,0,0,0-1.08-3.69,4.42,4.42,0,0,0-3.44-1.19,14,14,0,0,0-6,1.63l-1-2.46A15.14,15.14,0,0,1,324.9,348a14.92,14.92,0,0,1,3.75-.48q3.8,0,5.63,1.69t1.83,5.41v14.49Zm-7.27-2.27a6.53,6.53,0,0,0,4.72-1.65,6.09,6.09,0,0,0,1.71-4.61v-1.92l-3.22.14a11.7,11.7,0,0,0-5.53,1.19,3.59,3.59,0,0,0-1.7,3.28,3.31,3.31,0,0,0,1.06,2.65A4.38,4.38,0,0,0,326.46,366.85Z"/><path class="cls-2" d="M356.26,369.11H353V339h3.22Z"/><path class="cls-2" d="M381.41,358.48q0,5.19-2.62,8.11a9.21,9.21,0,0,1-7.23,2.92,9.57,9.57,0,0,1-5.06-1.34,8.82,8.82,0,0,1-3.41-3.84,13.37,13.37,0,0,1-1.2-5.85q0-5.19,2.6-8.09a9.19,9.19,0,0,1,7.21-2.9,9,9,0,0,1,7.08,3A11.66,11.66,0,0,1,381.41,358.48Zm-16.18,0a10.08,10.08,0,0,0,1.63,6.2,6.46,6.46,0,0,0,9.58,0q1.64-2.12,1.64-6.21t-1.64-6.15a5.75,5.75,0,0,0-4.83-2.1,5.66,5.66,0,0,0-4.77,2.07Q365.23,354.37,365.23,358.48Z"/><path class="cls-2" d="M395.53,369.5a9.06,9.06,0,0,1-7.14-2.84q-2.53-2.84-2.53-8t2.57-8.23a9.24,9.24,0,0,1,7.31-2.91,14.51,14.51,0,0,1,3.06.33,10.12,10.12,0,0,1,2.4.77l-1,2.73a15.17,15.17,0,0,0-2.33-.71,10.39,10.39,0,0,0-2.23-.28q-6.47,0-6.47,8.25a9.83,9.83,0,0,0,1.58,6,5.49,5.49,0,0,0,4.68,2.09,14.3,14.3,0,0,0,5.44-1.14v2.85A11.6,11.6,0,0,1,395.53,369.5Z"/><path class="cls-2" d="M419,369.11l-.64-3h-.16a8.93,8.93,0,0,1-3.17,2.7,9.65,9.65,0,0,1-3.94.71,7.09,7.09,0,0,1-5-1.63,5.94,5.94,0,0,1-1.79-4.63q0-6.43,10.29-6.74l3.6-.12v-1.32a5.38,5.38,0,0,0-1.07-3.69,4.42,4.42,0,0,0-3.44-1.19,14,14,0,0,0-6,1.63l-1-2.46a15.14,15.14,0,0,1,3.44-1.34,14.92,14.92,0,0,1,3.75-.48q3.8,0,5.63,1.69t1.83,5.41v14.49Zm-7.27-2.27a6.53,6.53,0,0,0,4.72-1.65,6.09,6.09,0,0,0,1.71-4.61v-1.92l-3.22.14a11.7,11.7,0,0,0-5.53,1.19,3.59,3.59,0,0,0-1.7,3.28,3.31,3.31,0,0,0,1.06,2.65A4.38,4.38,0,0,0,411.73,366.85Z"/><path class="cls-2" d="M431.22,369.11H428V339h3.22Z"/><path class="cls-2" d="M452.13,369.11h-3.29V340.79h15.79v2.93h-12.5v10.37h11.74V357H452.13Z"/><path class="cls-2" d="M481.89,369.11l-.64-3h-.16a8.93,8.93,0,0,1-3.17,2.7,9.65,9.65,0,0,1-3.94.71,7.09,7.09,0,0,1-5-1.63,5.93,5.93,0,0,1-1.79-4.63q0-6.43,10.29-6.74l3.6-.12v-1.32a5.38,5.38,0,0,0-1.08-3.69,4.42,4.42,0,0,0-3.44-1.19,14,14,0,0,0-6,1.63l-1-2.46a15.15,15.15,0,0,1,3.44-1.34,14.92,14.92,0,0,1,3.75-.48q3.8,0,5.63,1.69t1.83,5.41v14.49Zm-7.27-2.27a6.53,6.53,0,0,0,4.72-1.65,6.09,6.09,0,0,0,1.71-4.61v-1.92l-3.22.14A11.71,11.71,0,0,0,472.3,360a3.59,3.59,0,0,0-1.7,3.28,3.31,3.31,0,0,0,1.06,2.65A4.38,4.38,0,0,0,474.62,366.85Z"/><path class="cls-2" d="M500.78,347.53a7.9,7.9,0,0,1,6.5,2.86q2.31,2.86,2.32,8.09t-2.33,8.13a7.86,7.86,0,0,1-6.48,2.9,9.19,9.19,0,0,1-3.79-.77,7.11,7.11,0,0,1-2.88-2.35h-.23l-.68,2.73h-2.3V339h3.22v7.32q0,2.46-.16,4.42h.16A7.63,7.63,0,0,1,500.78,347.53Zm-.46,2.69q-3.29,0-4.75,1.89t-1.45,6.36q0,4.48,1.49,6.4t4.79,1.93a5,5,0,0,0,4.42-2.16,11.1,11.1,0,0,0,1.45-6.21q0-4.15-1.45-6.18A5.15,5.15,0,0,0,500.31,350.22Z"/><path class="cls-2" d="M524.9,347.49a12.61,12.61,0,0,1,2.54.23l-.45,3a11,11,0,0,0-2.33-.29,5.66,5.66,0,0,0-4.41,2.09,7.63,7.63,0,0,0-1.83,5.21v11.39h-3.22V347.88h2.65l.37,3.93h.15a9.33,9.33,0,0,1,2.85-3.2A6.42,6.42,0,0,1,524.9,347.49Z"/><path class="cls-2" d="M531.14,342.12a2.14,2.14,0,0,1,.54-1.62,2,2,0,0,1,2.69,0,2.1,2.1,0,0,1,.56,1.61,2.13,2.13,0,0,1-.56,1.62,1.88,1.88,0,0,1-1.34.53,1.86,1.86,0,0,1-1.36-.53A2.18,2.18,0,0,1,531.14,342.12Zm3.49,27h-3.22V347.88h3.22Z"/><path class="cls-2" d="M549.93,369.5a9.06,9.06,0,0,1-7.14-2.84q-2.53-2.84-2.53-8t2.57-8.23a9.24,9.24,0,0,1,7.31-2.91,14.51,14.51,0,0,1,3.06.33,10.1,10.1,0,0,1,2.4.77l-1,2.73a15.11,15.11,0,0,0-2.32-.71,10.4,10.4,0,0,0-2.23-.28q-6.47,0-6.47,8.25a9.83,9.83,0,0,0,1.58,6,5.5,5.5,0,0,0,4.68,2.09,14.31,14.31,0,0,0,5.44-1.14v2.85A11.6,11.6,0,0,1,549.93,369.5Z"/><path class="cls-2" d="M559.87,367.06a2.88,2.88,0,0,1,.59-2,2.14,2.14,0,0,1,1.7-.67,2.29,2.29,0,0,1,1.75.67,2.77,2.77,0,0,1,.63,2,2.72,2.72,0,0,1-.64,1.94,2.54,2.54,0,0,1-3.38.07A2.65,2.65,0,0,1,559.87,367.06Z"/><path class="cls-3" d="M162.77,480.42h216A16.56,16.56,0,0,1,395.32,497V663.8a0,0,0,0,1,0,0H146.21a0,0,0,0,1,0,0V497A16.56,16.56,0,0,1,162.77,480.42Z"/><rect class="cls-4" x="153.78" y="500.61" width="233.9" height="154.87"/><g id="Layer_2" data-name="Layer 2"><g id="Layer_1-2" data-name="Layer 1-2"><path class="cls-5" d="M240.44,607.74a7.42,7.42,0,0,0-9.7-4l-6.87,2.85-24.2-58.35a9.28,9.28,0,0,0,2.86-10.85L197.85,526l-17.14,7.11,4.69,11.32a9.28,9.28,0,0,0,9.7,5.64l24.2,58.35-6.85,2.85a7.42,7.42,0,0,0-4,9.67l2.92,6H247Z"/><polygon class="cls-5" points="357.16 629.84 357.16 540.34 360.56 540.34 360.56 529.45 278.61 529.45 278.61 540.34 282.32 540.34 282.41 548.83 272.58 549 272.58 629.84 170.38 629.84 170.38 632.93 375.1 632.93 375.1 629.84 357.16 629.84"/><circle class="cls-6" cx="190.42" cy="614.32" r="1.34" transform="translate(-431.01 780.03) rotate(-87.71)"/><line class="cls-7" x1="191.93" y1="604.54" x2="177.79" y2="599.2"/><line class="cls-7" x1="189.75" y1="584.36" x2="195.4" y2="590.93"/><line class="cls-7" x1="198.13" y1="594.1" x2="199.71" y2="595.94"/><circle class="cls-8" cx="230.73" cy="585.15" r="1.37" transform="translate(-385.13 457.27) rotate(-56.75)"/><line class="cls-7" x1="252.16" y1="576.53" x2="240.29" y2="591.24"/><line class="cls-7" x1="258.35" y1="595.66" x2="247.67" y2="599.42"/><line class="cls-9" x1="366.03" y1="626.95" x2="372.01" y2="626.95"/><polyline class="cls-9" points="167.28 626.95 269.49 627.18 269.49 545.91 284.25 545.72 284.25 555.95 299.01 555.95 299.01 545.72 313.77 545.72 313.77 555.95 328.53 555.95 328.53 545.72 343.6 545.91 343.6 626.95 359.22 626.95"/><rect class="cls-9" x="203.99" y="544.24" width="4.95" height="62.28" transform="translate(-204.71 123.02) rotate(-22.53)"/><rect class="cls-9" x="193.27" y="546.37" width="4.95" height="6.32" transform="translate(-195.62 116.94) rotate(-22.53)"/><rect class="cls-9" x="210.85" y="578.69" width="4.95" height="26.45" transform="translate(-210.52 126.91) rotate(-22.53)"/><path class="cls-9" d="M208.27,623.87l-3-6a7.42,7.42,0,0,1,4-9.7l18.31-7.56a7.42,7.42,0,0,1,9.7,4l6.6,19.22"/><path class="cls-9" d="M177.62,530.06,194.76,523h0l4.7,11.32a9.28,9.28,0,0,1-5,12.12h0a9.28,9.28,0,0,1-12.12-5l-4.7-11.32Z"/><rect class="cls-9" x="177.72" y="526.35" width="18.55" height="4.21" transform="translate(-188.22 111.98) rotate(-22.53)"/><rect class="cls-4" x="291.6" y="589.02" width="36.49" height="40.82"/><polyline class="cls-9" points="288.82 627.05 288.82 586.23 324.69 586.23 324.69 610.97"/><line class="cls-9" x1="324.69" y1="621.8" x2="324.69" y2="627.05"/><line class="cls-9" x1="324.69" y1="614.99" x2="324.69" y2="617.67"/><polyline class="cls-9" points="353.76 623.87 353.76 537.25 357.47 537.25 357.47 526.36 275.52 526.36 275.52 537.25 279.23 537.25 279.23 541.54"/><line class="cls-9" x1="349.12" y1="537.37" x2="284.18" y2="537.37"/></g></g><circle class="cls-4" cx="159.57" cy="490.71" r="3.71"/><circle class="cls-4" cx="170.38" cy="490.71" r="3.71"/><circle class="cls-4" cx="180.71" cy="490.71" r="3.71"/><circle class="cls-10" cx="393.56" cy="499.96" r="60.33"/><path class="cls-4" d="M436.15,491.53c.57-4.19-7.24-10.87-7.24-10.87s-7.05,7.63-1.53,17c-1.72,2.48-3.62,2.29-7.43,2.67H352.34s-4.45,32.57,35.58,32.57c37.17-1.88,45.94-31.52,45.94-31.52,11.21,1.3,14.49-7.92,14.49-7.92A16.65,16.65,0,0,0,436.15,491.53Zm-57.66,26.55a2.81,2.81,0,1,1,2.81-2.82h0A2.81,2.81,0,0,1,378.49,518.07Z"/><rect class="cls-4" x="364.4" y="483.63" width="15.25" height="15.25"/><rect class="cls-4" x="381.3" y="483.63" width="15.25" height="15.25"/><rect class="cls-4" x="398.21" y="483.63" width="15.25" height="15.25"/><rect class="cls-4" x="381.3" y="467.05" width="15.25" height="15.25"/><circle class="cls-11" cx="404.35" cy="583.82" r="3.91"/><circle class="cls-11" cx="416.93" cy="583.82" r="3.91"/><circle class="cls-11" cx="429.86" cy="583.82" r="3.91"/><circle class="cls-11" cx="442.64" cy="583.82" r="3.91"/><path class="cls-11" d="M453.26,570.5h16.42v5h-11v5h10.19v5H458.65V595h-5.39Z"/><path class="cls-11" d="M483.43,592.86h-.07a4.88,4.88,0,0,1-2.3,1.94,7.91,7.91,0,0,1-3,.59,7.81,7.81,0,0,1-2.26-.33,5.72,5.72,0,0,1-1.92-1,4.75,4.75,0,0,1-1.31-1.62,5,5,0,0,1-.48-2.25,5.14,5.14,0,0,1,.54-2.45,4.8,4.8,0,0,1,1.45-1.66,7.22,7.22,0,0,1,2.09-1,15.21,15.21,0,0,1,2.44-.54,23.36,23.36,0,0,1,2.52-.21q1.26,0,2.33,0a2.69,2.69,0,0,0-1-2.19,3.55,3.55,0,0,0-2.33-.81,5.07,5.07,0,0,0-2.33.54,6.37,6.37,0,0,0-1.88,1.47l-2.76-2.83a9.52,9.52,0,0,1,3.39-2,12.11,12.11,0,0,1,4-.67,10.47,10.47,0,0,1,3.75.57,5.45,5.45,0,0,1,2.35,1.68,6.46,6.46,0,0,1,1.23,2.71,17.8,17.8,0,0,1,.35,3.71V595h-4.77Zm-1.28-5.25q-.59,0-1.47.05A7.48,7.48,0,0,0,479,588a3.77,3.77,0,0,0-1.38.73A1.67,1.67,0,0,0,477,590a1.48,1.48,0,0,0,.79,1.38,3.32,3.32,0,0,0,1.66.45,5.23,5.23,0,0,0,1.47-.21,4.38,4.38,0,0,0,1.26-.59,2.84,2.84,0,0,0,.88-1,2.79,2.79,0,0,0,.33-1.38v-1.11Z"/><path class="cls-11" d="M491.93,568.85h5.18V580h.07a4.84,4.84,0,0,1,2.3-1.71,8.91,8.91,0,0,1,3-.5,6.82,6.82,0,0,1,3.21.74,7.42,7.42,0,0,1,2.4,2,9.3,9.3,0,0,1,1.52,2.85,10.57,10.57,0,0,1,.54,3.37,10,10,0,0,1-.59,3.49,8,8,0,0,1-1.68,2.75,7.56,7.56,0,0,1-2.61,1.8,8.66,8.66,0,0,1-3.39.64,5.82,5.82,0,0,1-1.69-.24,7.32,7.32,0,0,1-1.47-.62,6.18,6.18,0,0,1-1.17-.85,5.78,5.78,0,0,1-.81-.92h-.07V595h-4.77Zm4.77,17.73a4.35,4.35,0,0,0,1.09,3.08,4.57,4.57,0,0,0,6.12,0,4.89,4.89,0,0,0,0-6.15,4.57,4.57,0,0,0-6.12,0A4.35,4.35,0,0,0,496.69,586.57Z"/><path class="cls-11" d="M513.21,578.18h5.18v2.7h.07a6.38,6.38,0,0,1,2-2.33,5,5,0,0,1,2.87-.78q.45,0,.9,0a4.48,4.48,0,0,1,.83.14v4.73a8,8,0,0,0-1.09-.26,7.17,7.17,0,0,0-1.12-.09,5.49,5.49,0,0,0-2.35.42,3.11,3.11,0,0,0-1.33,1.16,4.39,4.39,0,0,0-.61,1.78,17.41,17.41,0,0,0-.14,2.28v7h-5.18Z"/><path class="cls-11" d="M526.93,572.89a3,3,0,1,1,.88,2.13A2.89,2.89,0,0,1,526.93,572.89Zm.41,5.29h5.18V595h-5.18Z"/><path class="cls-11" d="M547.63,583.6a2.91,2.91,0,0,0-1.07-.92,3.16,3.16,0,0,0-1.49-.36A4,4,0,0,0,542,583.5a4.89,4.89,0,0,0,0,6.15,4,4,0,0,0,3.06,1.17,2.79,2.79,0,0,0,1.49-.38,4.52,4.52,0,0,0,1.07-.9l3.42,3.59a6.6,6.6,0,0,1-2.85,1.75,10.72,10.72,0,0,1-3.13.5,10.58,10.58,0,0,1-3.65-.62,8.75,8.75,0,0,1-3-1.78,8.33,8.33,0,0,1-2-2.78,9.44,9.44,0,0,1,0-7.26,8.34,8.34,0,0,1,2-2.78,8.76,8.76,0,0,1,3-1.78,10.58,10.58,0,0,1,3.65-.62,10.72,10.72,0,0,1,3.13.5,6.62,6.62,0,0,1,2.85,1.75Z"/></svg>