<svg xmlns="http://www.w3.org/2000/svg" viewBox="0 0 703.96 733.58"><defs><style>.cls-1{fill:#1aa58d;}.cls-2{fill:#80768e;}.cls-3{fill:#414141;}.cls-4{fill:#af93c5;}.cls-5{fill:#cfc3e1;}.cls-6{fill:#7974b5;}.cls-7{fill:#d1d0d1;}.cls-8{fill:#738c9f;}.cls-9{fill:#9cb1dc;}.cls-10{fill:#cde2f6;}.cls-11{fill:#567cbe;}.cls-12{fill:#739176;}.cls-13{fill:#50b47e;}.cls-14{fill:#a0d0a6;}.cls-15{fill:#00af9e;}.cls-16{fill:#f39c8c;}</style></defs><title>Artboard 1</title><g id="CircleBG"><circle class="cls-1" cx="372.57" cy="359.41" r="331.38"/></g><g id="VioletBlock"><polygon class="cls-2" points="269.03 124.54 216.55 166.79 269.03 183.29 269.03 124.54"/><polygon class="cls-3" points="269.03 190.21 269.03 183.29 216.55 166.79 269.03 124.54 269.03 116.91 202.34 169.07 269.03 190.21"/><g id="SideFace"><polygon class="cls-4" points="363.71 157.75 488.31 83.78 488.31 227.81 363.71 301.79 363.71 157.75"/><path class="cls-3" d="M486.31,87.29V226.67l-120.6,71.6V158.89l120.6-71.6m4-7-128.6,76.35V305.31L490.31,229V80.26Z"/></g><g id="TopFace"><polygon class="cls-5" points="241.08 80.33 365.48 10.23 486.36 80.28 361.73 154.28 241.08 80.33"/><path class="cls-3" d="M365.46,12.53,482.41,80.3,361.75,151.94,245,80.41,365.46,12.53m0-4.61L237.13,80.26l124.58,76.35,128.6-76.35L365.49,7.93Z"/></g><g id="FrontFace"><polygon class="cls-6" points="239.13 227.83 239.13 83.83 359.71 157.74 359.71 301.74 239.13 227.83"/><path class="cls-3" d="M241.13,87.4l116.58,71.45V298.16L241.13,226.71V87.4m-4-7.14V229l124.58,76.35V156.62L237.13,80.26Z"/></g><g id="Outline"><path class="cls-3" d="M365.48,9.21,489.21,80.92v147.4L361.73,304l-123.5-75.69V80.92L365.48,9.21M365.53,0l-4,2.24L234.3,74l-4.07,2.29V232.8l3.82,2.34,123.5,75.69,4.11,2.52,4.15-2.46L493.3,235.2l3.92-2.32V76.31l-4-2.31L369.49,2.29l-4-2.29Z"/></g><path class="cls-7" d="M284.06,215.58a53.62,53.62,0,0,1-9.13-10.79,44.27,44.27,0,0,1-5.32-12,50.85,50.85,0,0,1-1.73-13.42V167.78L328.13,204v9q0,8.16-2.19,12.69a10.57,10.57,0,0,1-6.22,5.86q-4,1.33-9.75-.34a55.38,55.38,0,0,1-12.72-5.88A81,81,0,0,1,284.06,215.58Zm-1.27-15"/><path class="cls-3" d="M315.82,236.07a25,25,0,0,1-7-1.08,59.54,59.54,0,0,1-13.66-6.29,85.37,85.37,0,0,1-13.83-10.18h0a57.88,57.88,0,0,1-9.8-11.6,48.48,48.48,0,0,1-5.8-13.13,55.08,55.08,0,0,1-1.87-14.47V160.71l68.25,41v11.21c0,6.11-.85,10.83-2.59,14.43a14.47,14.47,0,0,1-8.58,7.92A16.4,16.4,0,0,1,315.82,236.07Zm-29-23.43a77.4,77.4,0,0,0,12.54,9.2,51.71,51.71,0,0,0,11.78,5.46c3,.88,5.49,1,7.38.38,1-.34,2.57-1.11,3.87-3.8,1.19-2.46,1.79-6.15,1.79-11v-6.69l-52.25-31.39v4.48a47.09,47.09,0,0,0,1.59,12.37,40.48,40.48,0,0,0,4.85,11,49.91,49.91,0,0,0,8.45,10Z"/><polygon class="cls-3" points="312.84 165.53 335.73 179.29 335.73 187.03 312.84 173.28 312.84 165.53"/><polygon class="cls-3" points="260.29 133.96 283.18 147.71 283.18 155.46 260.29 141.7 260.29 133.96"/><polygon class="cls-5" points="405.92 198.68 353.44 240.93 405.92 257.43 405.92 198.68"/><polygon class="cls-3" points="405.92 264.35 405.92 257.43 353.44 240.93 405.92 198.68 405.92 191.05 339.23 243.21 405.92 264.35"/></g><g id="BlueBlock"><polygon class="cls-8" points="290.53 284.76 361.58 334.73 290.53 379.8 290.53 284.76"/><polygon class="cls-3" points="290.53 388.64 290.53 379.8 357.58 332.73 290.53 290.76 290.53 281.01 375.73 334.65 290.53 388.64"/><g id="SideFace-2" data-name="SideFace"><polygon class="cls-9" points="9.87 419.82 9.87 234.53 170.14 329.69 170.14 514.98 9.87 419.82"/><path class="cls-3" d="M11.87,238l156.27,92.79V511.47L11.87,418.68V238m-4-7V421L172.14,518.5V328.56L7.87,231Z"/></g><g id="TopFace-2" data-name="TopFace"><polygon class="cls-10" points="11.82 231.04 167.33 140.92 327.33 231.09 172.13 326.22 11.82 231.04"/><path class="cls-3" d="M167.34,143.22l156,87.94L172.11,323.88,15.77,231.06l151.57-87.84m0-4.61L7.87,231l164.27,97.54L331.28,231l-164-92.4Z"/></g><g id="FrontFace-2" data-name="FrontFace"><polygon class="cls-11" points="174.14 329.68 329.28 234.59 329.28 419.84 174.14 514.92 174.14 329.68"/><path class="cls-3" d="M327.28,238.16V418.72L176.14,511.35V330.8l151.14-92.63m4-7.14L172.14,328.56V518.5L331.28,421V231Z"/></g><g id="Outline-2" data-name="Outline"><path class="cls-3" d="M167.32,138.77,331.15,231.1V420.88l-159,97.46L8,420.88V231.1l159.32-92.33m-.06-9.21-4,2.29L4,224.18l-4,2.31v199l3.92,2.32,164.14,97.46,4.15,2.46,4.11-2.52,159-97.46,3.82-2.34V226.42l-4.07-2.3L171.25,131.8l-4-2.24Z"/></g><path class="cls-7" d="M254.41,413.5a64.73,64.73,0,0,1-14.87,6.87q-6.68,1.95-11.39.4a12.36,12.36,0,0,1-7.27-6.85q-2.56-5.3-2.56-14.83V388.62l70.42-42.31v13.49a59.43,59.43,0,0,1-2,15.68,51.74,51.74,0,0,1-6.22,14.08,62.67,62.67,0,0,1-10.67,12.61A94.64,94.64,0,0,1,254.41,413.5Zm16.89-28.81"/><path class="cls-3" d="M232.7,426.45a19.49,19.49,0,0,1-6.12-.93c-4.47-1.47-7.9-4.64-10.21-9.42-2.06-4.26-3.06-9.82-3.06-17V385.79l80.42-48.32v22.33a64.72,64.72,0,0,1-2.2,17,57,57,0,0,1-6.82,15.43,68,68,0,0,1-11.51,13.62A100.1,100.1,0,0,1,257,417.79h0a70,70,0,0,1-16,7.38A29.54,29.54,0,0,1,232.7,426.45Zm-9.39-35v7.63c0,5.57.69,9.83,2.06,12.66,1.47,3,3.17,3.89,4.33,4.27,2.15.71,5,.56,8.43-.45a60.13,60.13,0,0,0,13.69-6.35,90.12,90.12,0,0,0,14.6-10.72,58,58,0,0,0,9.83-11.6,47,47,0,0,0,5.63-12.72,54.74,54.74,0,0,0,1.84-14.37v-4.66Z"/><polygon class="cls-3" points="234.58 339.95 205.34 357.52 205.34 367.41 234.58 349.84 234.58 339.95"/><polygon class="cls-3" points="301.7 299.62 272.47 317.18 272.47 327.07 301.7 309.5 301.7 299.62"/><polygon class="cls-10" points="115.67 386.74 182.72 440.71 115.67 461.79 115.67 386.74"/><polygon class="cls-3" points="115.67 470.62 115.67 461.79 182.72 440.71 115.67 386.74 115.67 377 200.87 443.63 115.67 470.62"/></g><g id="GreenBlock"><g id="BackArm"><polygon class="cls-12" points="544.92 460.1 618.96 519.7 544.92 542.98 544.92 460.1"/><polygon class="cls-3" points="544.92 552.74 544.92 542.98 618.96 519.7 544.92 460.1 544.92 449.34 639 522.93 544.92 552.74"/></g><g id="SideFace-3" data-name="SideFace"><polygon class="cls-13" points="234.75 615.88 234.75 410.77 412.17 516.11 412.17 721.23 234.75 615.88"/><path class="cls-3" d="M236.75,414.29l173.42,103V717.71l-173.42-103V414.29m-4-7V617L414.17,724.74V515L232.75,407.26Z"/></g><polygon class="cls-14" points="236.7 407.28 408.85 307.51 585.97 407.33 414.15 512.64 236.7 407.28"/><path class="cls-3" d="M408.87,309.82,582,407.4,414.14,510.3l-173.48-103,168.21-97.48m0-4.61-176.09,102L414.17,515,589.92,407.26l-181.08-102Z"/><polygon class="cls-15" points="416.17 516.1 587.92 410.83 587.92 615.9 416.17 721.17 416.17 516.1"/><path class="cls-3" d="M585.92,414.4V614.78L418.17,717.6V517.21L585.92,414.4m4-7.14L414.17,515V724.74L589.92,617V407.26Z"/><g id="Outline-3" data-name="Outline"><path class="cls-3" d="M408.87,308,587.5,408.71V615.64L414.13,721.9l-179-106.26V408.71L408.87,308m-.07-11.52-4.94,2.87L230.15,400.06l-5,2.89V621.34l4.89,2.91L409,730.5l5.19,3.08,5.14-3.15L592.73,624.17l4.77-2.93V402.87L592.41,400,413.78,299.33l-5-2.81Z"/></g><g id="Face"><path class="cls-16" d="M506.21,614.92a84.89,84.89,0,0,1-19.5,9q-8.76,2.55-14.94.52t-9.54-9q-3.36-6.95-3.36-19.46V582.29l92.35-55.49v17.7a77.94,77.94,0,0,1-2.65,20.57,67.86,67.86,0,0,1-8.16,18.46,82.19,82.19,0,0,1-14,16.54A124.12,124.12,0,0,1,506.21,614.92Zm22.15-37.78"/><path class="cls-3" d="M477.74,631.35a25,25,0,0,1-7.85-1.19c-5.71-1.88-10.11-5.94-13.07-12.07-2.66-5.51-4-12.72-4-22.06V578.9l104.35-62.7v28.3a84.3,84.3,0,0,1-2.86,22.15,74.14,74.14,0,0,1-8.88,20.08,88.6,88.6,0,0,1-15,17.75,130.71,130.71,0,0,1-21.18,15.58,91.17,91.17,0,0,1-20.91,9.62A38.21,38.21,0,0,1,477.74,631.35Zm-12.87-45.66V596c0,7.39.93,13.06,2.76,16.85,1.51,3.13,3.48,5.06,6,5.89,2.93,1,6.76.77,11.39-.58a79.43,79.43,0,0,0,18.09-8.39h0a118.79,118.79,0,0,0,19.24-14.12,76.61,76.61,0,0,0,13-15.33,62.16,62.16,0,0,0,7.45-16.83,72.28,72.28,0,0,0,2.44-19v-7.09Z"/><polygon class="cls-3" points="483.12 527.56 450.83 546.96 450.83 557.88 483.12 538.48 483.12 527.56"/><polygon class="cls-3" points="557.25 483.01 524.96 502.42 524.96 513.34 557.25 493.94 557.25 483.01"/></g><g id="FrontArm"><polygon class="cls-14" points="351.81 576.1 425.85 635.7 351.81 658.98 351.81 576.1"/><polygon class="cls-3" points="351.81 668.74 351.81 658.98 425.85 635.7 351.81 576.1 351.81 565.34 445.89 638.93 351.81 668.74"/></g></g></svg>