<?xml version="1.0" ?>
<svg
  xmlns="http://www.w3.org/2000/svg"
  viewBox="0 0 49.263001 40.034001"
  preserveAspectRatio="xMinYMin meet"
  width="100%"
  height="100%">
  <path
     d="m 49.263,4.739 c -1.811,0.805 -3.76,1.348 -5.805,1.591 2.088,-1.25 3.689,-3.23 4.444,-5.592 -1.953,1.159 -4.115,2 -6.418,2.454 C 39.641,1.228 37.014,0 34.107,0 28.526,0 24.001,4.525 24.001,10.107 c 0,0.791 0.089,1.562 0.262,2.303 C 15.863,11.988 8.415,7.965 3.43,1.85 2.56,3.342 2.062,5.078 2.062,6.932 c 0,3.506 1.784,6.6 4.496,8.412 -1.656,-0.053 -3.215,-0.508 -4.578,-1.265 -10e-4,0.042 -10e-4,0.085 -10e-4,0.128 0,4.896 3.484,8.98 8.108,9.91 -0.848,0.23 -1.741,0.354 -2.663,0.354 -0.652,0 -1.285,-0.063 -1.902,-0.182 1.287,4.015 5.019,6.938 9.441,7.019 -3.459,2.711 -7.816,4.327 -12.552,4.327 -0.815,0 -1.62,-0.048 -2.411,-0.142 4.474,2.869 9.786,4.541 15.493,4.541 18.591,0 28.756,-15.4 28.756,-28.756 0,-0.438 -0.009,-0.875 -0.028,-1.309 1.974,-1.422 3.688,-3.203 5.042,-5.23 z" fill="#fff" />
</svg>
