<?xml version="1.0" encoding="UTF-8" standalone="no"?><svg xmlns="http://www.w3.org/2000/svg" xmlns:xlink="http://www.w3.org/1999/xlink" contentScriptType="application/ecmascript" contentStyleType="text/css" height="631px" preserveAspectRatio="none" style="width:463px;height:631px;" version="1.1" viewBox="0 0 463 631" width="463px" zoomAndPan="magnify"><defs/><g><!--class BusinessNetworkConnection--><rect fill="#F8FAFA" height="513.625" rx="1" ry="1" style="stroke: #E3ECEC; stroke-width: 1.5;" width="456" x="6" y="8"/><ellipse cx="117.75" cy="24" fill="#FFFFFF" rx="11" ry="11" style="stroke: #E3ECEC; stroke-width: 1.0;"/><path d="M120.2031,29.6563 Q119.6563,29.9375 119.0547,30.0859 Q118.4531,30.2344 117.7813,30.2344 Q115.4219,30.2344 114.1797,28.6719 Q112.9375,27.1094 112.9375,24.1719 Q112.9375,21.2344 114.1797,19.6797 Q115.4219,18.125 117.7813,18.125 Q118.4531,18.125 119.0625,18.2656 Q119.6719,18.4063 120.2031,18.6875 L120.2031,21.25 Q119.6094,20.7031 119.0469,20.4453 Q118.4844,20.1875 117.8906,20.1875 Q116.625,20.1875 115.9844,21.1953 Q115.3438,22.2031 115.3438,24.1719 Q115.3438,26.1406 115.9844,27.1484 Q116.625,28.1563 117.8906,28.1563 Q118.4844,28.1563 119.0469,27.8984 Q119.6094,27.6406 120.2031,27.0938 L120.2031,29.6563 Z "/><text fill="#19273C" font-family="sans-serif" font-size="16" lengthAdjust="spacingAndGlyphs" textLength="224" x="138.25" y="29.5391">BusinessNetworkConnection</text><line style="stroke: #E3ECEC; stroke-width: 1.5;" x1="7" x2="461" y1="40" y2="40"/><line style="stroke: #E3ECEC; stroke-width: 1.5;" x1="7" x2="461" y1="48" y2="48"/><ellipse cx="17" cy="62.3125" fill="#84BE84" rx="3" ry="3" style="stroke: #038048; stroke-width: 1.0;"/><text fill="#19273C" font-family="sans-serif" font-size="16" lengthAdjust="spacingAndGlyphs" textLength="430" x="26" y="66.8516">void constructor(Object,ConnectionProfileStore,Object)</text><ellipse cx="17" cy="80.9375" fill="#84BE84" rx="3" ry="3" style="stroke: #038048; stroke-width: 1.0;"/><text fill="#19273C" font-family="sans-serif" font-size="16" lengthAdjust="spacingAndGlyphs" textLength="386" x="26" y="85.4766">BusinessNetworkDefinition getBusinessNetwork()</text><ellipse cx="17" cy="99.5625" fill="#84BE84" rx="3" ry="3" style="stroke: #038048; stroke-width: 1.0;"/><text fill="#19273C" font-family="sans-serif" font-size="16" lengthAdjust="spacingAndGlyphs" textLength="303" x="26" y="104.1016">Promise getAllAssetRegistries(boolean)</text><ellipse cx="17" cy="118.1875" fill="#84BE84" rx="3" ry="3" style="stroke: #038048; stroke-width: 1.0;"/><text fill="#19273C" font-family="sans-serif" font-size="16" lengthAdjust="spacingAndGlyphs" textLength="258" x="26" y="122.7266">Promise getAssetRegistry(string)</text><ellipse cx="17" cy="136.8125" fill="#84BE84" rx="3" ry="3" style="stroke: #038048; stroke-width: 1.0;"/><text fill="#19273C" font-family="sans-serif" font-size="16" lengthAdjust="spacingAndGlyphs" textLength="278" x="26" y="141.3516">Promise assetRegistryExists(string)</text><ellipse cx="17" cy="155.4375" fill="#84BE84" rx="3" ry="3" style="stroke: #038048; stroke-width: 1.0;"/><text fill="#19273C" font-family="sans-serif" font-size="16" lengthAdjust="spacingAndGlyphs" textLength="312" x="26" y="159.9766">Promise addAssetRegistry(string,string)</text><ellipse cx="17" cy="174.0625" fill="#84BE84" rx="3" ry="3" style="stroke: #038048; stroke-width: 1.0;"/><text fill="#19273C" font-family="sans-serif" font-size="16" lengthAdjust="spacingAndGlyphs" textLength="341" x="26" y="178.6016">Promise getAllParticipantRegistries(boolean)</text><ellipse cx="17" cy="192.6875" fill="#84BE84" rx="3" ry="3" style="stroke: #038048; stroke-width: 1.0;"/><text fill="#19273C" font-family="sans-serif" font-size="16" lengthAdjust="spacingAndGlyphs" textLength="296" x="26" y="197.2266">Promise getParticipantRegistry(string)</text><ellipse cx="17" cy="211.3125" fill="#84BE84" rx="3" ry="3" style="stroke: #038048; stroke-width: 1.0;"/><text fill="#19273C" font-family="sans-serif" font-size="16" lengthAdjust="spacingAndGlyphs" textLength="318" x="26" y="215.8516">Promise participantRegistryExists(string)</text><ellipse cx="17" cy="229.9375" fill="#84BE84" rx="3" ry="3" style="stroke: #038048; stroke-width: 1.0;"/><text fill="#19273C" font-family="sans-serif" font-size="16" lengthAdjust="spacingAndGlyphs" textLength="350" x="26" y="234.4766">Promise addParticipantRegistry(string,string)</text><ellipse cx="17" cy="248.5625" fill="#84BE84" rx="3" ry="3" style="stroke: #038048; stroke-width: 1.0;"/><text fill="#19273C" font-family="sans-serif" font-size="16" lengthAdjust="spacingAndGlyphs" textLength="305" x="26" y="253.1016">Promise getTransactionRegistry(string)</text><ellipse cx="17" cy="267.1875" fill="#84BE84" rx="3" ry="3" style="stroke: #038048; stroke-width: 1.0;"/><text fill="#19273C" font-family="sans-serif" font-size="16" lengthAdjust="spacingAndGlyphs" textLength="350" x="26" y="271.7266">Promise getAllTransactionRegistries(boolean)</text><ellipse cx="17" cy="285.8125" fill="#84BE84" rx="3" ry="3" style="stroke: #038048; stroke-width: 1.0;"/><text fill="#19273C" font-family="sans-serif" font-size="16" lengthAdjust="spacingAndGlyphs" textLength="324" x="26" y="290.3516">Promise transactionRegistryExists(string)</text><ellipse cx="17" cy="304.4375" fill="#84BE84" rx="3" ry="3" style="stroke: #038048; stroke-width: 1.0;"/><text fill="#19273C" font-family="sans-serif" font-size="16" lengthAdjust="spacingAndGlyphs" textLength="174" x="26" y="308.9766">Promise getHistorian()</text><ellipse cx="17" cy="323.0625" fill="#84BE84" rx="3" ry="3" style="stroke: #038048; stroke-width: 1.0;"/><text fill="#19273C" font-family="sans-serif" font-size="16" lengthAdjust="spacingAndGlyphs" textLength="227" x="26" y="327.6016">Promise getIdentityRegistry()</text><ellipse cx="17" cy="341.6875" fill="#84BE84" rx="3" ry="3" style="stroke: #038048; stroke-width: 1.0;"/><text fill="#19273C" font-family="sans-serif" font-size="16" lengthAdjust="spacingAndGlyphs" textLength="393" x="26" y="346.2266">Promise connect(string,string,string,string,Object)</text><ellipse cx="17" cy="360.3125" fill="#84BE84" rx="3" ry="3" style="stroke: #038048; stroke-width: 1.0;"/><text fill="#19273C" font-family="sans-serif" font-size="16" lengthAdjust="spacingAndGlyphs" textLength="215" x="26" y="364.8516">Promise getRegistry(String)</text><ellipse cx="17" cy="378.9375" fill="#84BE84" rx="3" ry="3" style="stroke: #038048; stroke-width: 1.0;"/><text fill="#19273C" font-family="sans-serif" font-size="16" lengthAdjust="spacingAndGlyphs" textLength="165" x="26" y="383.4766">Promise disconnect()</text><ellipse cx="17" cy="397.5625" fill="#84BE84" rx="3" ry="3" style="stroke: #038048; stroke-width: 1.0;"/><text fill="#19273C" font-family="sans-serif" font-size="16" lengthAdjust="spacingAndGlyphs" textLength="298" x="26" y="402.1016">Promise submitTransaction(Resource)</text><ellipse cx="17" cy="416.1875" fill="#84BE84" rx="3" ry="3" style="stroke: #038048; stroke-width: 1.0;"/><text fill="#19273C" font-family="sans-serif" font-size="16" lengthAdjust="spacingAndGlyphs" textLength="194" x="26" y="420.7266">Query buildQuery(string)</text><ellipse cx="17" cy="434.8125" fill="#84BE84" rx="3" ry="3" style="stroke: #038048; stroke-width: 1.0;"/><text fill="#19273C" font-family="sans-serif" font-size="16" lengthAdjust="spacingAndGlyphs" textLength="175" x="26" y="439.3516">Promise query(Object)</text><ellipse cx="17" cy="453.4375" fill="#84BE84" rx="3" ry="3" style="stroke: #038048; stroke-width: 1.0;"/><text fill="#19273C" font-family="sans-serif" font-size="16" lengthAdjust="spacingAndGlyphs" textLength="113" x="26" y="457.9766">Promise ping()</text><ellipse cx="17" cy="472.0625" fill="#84BE84" rx="3" ry="3" style="stroke: #038048; stroke-width: 1.0;"/><text fill="#19273C" font-family="sans-serif" font-size="16" lengthAdjust="spacingAndGlyphs" textLength="341" x="26" y="476.6016">Promise issueIdentity(string,object,boolean)</text><ellipse cx="17" cy="490.6875" fill="#84BE84" rx="3" ry="3" style="stroke: #038048; stroke-width: 1.0;"/><text fill="#19273C" font-family="sans-serif" font-size="16" lengthAdjust="spacingAndGlyphs" textLength="216" x="26" y="495.2266">Promise bindIdentity(string)</text><ellipse cx="17" cy="509.3125" fill="#84BE84" rx="3" ry="3" style="stroke: #038048; stroke-width: 1.0;"/><text fill="#19273C" font-family="sans-serif" font-size="16" lengthAdjust="spacingAndGlyphs" textLength="191" x="26" y="513.8516">Promise revokeIdentity()</text><!--class EventEmitter--><rect fill="#F8FAFA" height="48" rx="1" ry="1" style="stroke: #E3ECEC; stroke-width: 1.5;" width="132" x="168" y="582"/><ellipse cx="183" cy="598" fill="#FFFFFF" rx="11" ry="11" style="stroke: #E3ECEC; stroke-width: 1.0;"/><path d="M185.4531,603.6563 Q184.9063,603.9375 184.3047,604.0859 Q183.7031,604.2344 183.0313,604.2344 Q180.6719,604.2344 179.4297,602.6719 Q178.1875,601.1094 178.1875,598.1719 Q178.1875,595.2344 179.4297,593.6797 Q180.6719,592.125 183.0313,592.125 Q183.7031,592.125 184.3125,592.2656 Q184.9219,592.4063 185.4531,592.6875 L185.4531,595.25 Q184.8594,594.7031 184.2969,594.4453 Q183.7344,594.1875 183.1406,594.1875 Q181.875,594.1875 181.2344,595.1953 Q180.5938,596.2031 180.5938,598.1719 Q180.5938,600.1406 181.2344,601.1484 Q181.875,602.1563 183.1406,602.1563 Q183.7344,602.1563 184.2969,601.8984 Q184.8594,601.6406 185.4531,601.0938 L185.4531,603.6563 Z "/><text fill="#19273C" font-family="sans-serif" font-size="16" lengthAdjust="spacingAndGlyphs" textLength="100" x="197" y="603.5391">EventEmitter</text><line style="stroke: #E3ECEC; stroke-width: 1.5;" x1="169" x2="299" y1="614" y2="614"/><line style="stroke: #E3ECEC; stroke-width: 1.5;" x1="169" x2="299" y1="622" y2="622"/><path d="M234,522.071 C234,536.5372 234,549.8532 234,561.3872 " fill="none" style="stroke: #3C6DF0; stroke-width: 1.0;"/><polygon fill="none" points="241,561.7764,234,581.7763,227,561.7763,241,561.7764" style="stroke: #3C6DF0; stroke-width: 1.0;"/></g></svg>