<?xml version="1.0" encoding="UTF-8" standalone="no"?><svg xmlns="http://www.w3.org/2000/svg" xmlns:xlink="http://www.w3.org/1999/xlink" contentScriptType="application/ecmascript" contentStyleType="text/css" height="203px" preserveAspectRatio="none" style="width:299px;height:203px;" version="1.1" viewBox="0 0 299 203" width="299px" zoomAndPan="magnify"><defs/><g><!--class ConceptDeclaration--><rect fill="#F8FAFA" height="85.25" rx="1" ry="1" style="stroke: #E3ECEC; stroke-width: 1.5;" width="292" x="6" y="8.5"/><ellipse cx="71.75" cy="24.5" fill="#FFFFFF" rx="11" ry="11" style="stroke: #E3ECEC; stroke-width: 1.0;"/><path d="M74.2031,30.1563 Q73.6563,30.4375 73.0547,30.5859 Q72.4531,30.7344 71.7813,30.7344 Q69.4219,30.7344 68.1797,29.1719 Q66.9375,27.6094 66.9375,24.6719 Q66.9375,21.7344 68.1797,20.1797 Q69.4219,18.625 71.7813,18.625 Q72.4531,18.625 73.0625,18.7656 Q73.6719,18.9063 74.2031,19.1875 L74.2031,21.75 Q73.6094,21.2031 73.0469,20.9453 Q72.4844,20.6875 71.8906,20.6875 Q70.625,20.6875 69.9844,21.6953 Q69.3438,22.7031 69.3438,24.6719 Q69.3438,26.6406 69.9844,27.6484 Q70.625,28.6563 71.8906,28.6563 Q72.4844,28.6563 73.0469,28.3984 Q73.6094,28.1406 74.2031,27.5938 L74.2031,30.1563 Z "/><text fill="#19273C" font-family="sans-serif" font-size="16" lengthAdjust="spacingAndGlyphs" textLength="152" x="92.25" y="30.0391">ConceptDeclaration</text><line style="stroke: #E3ECEC; stroke-width: 1.5;" x1="7" x2="297" y1="40.5" y2="40.5"/><line style="stroke: #E3ECEC; stroke-width: 1.5;" x1="7" x2="297" y1="48.5" y2="48.5"/><ellipse cx="17" cy="62.8125" fill="#84BE84" rx="3" ry="3" style="stroke: #038048; stroke-width: 1.0;"/><text fill="#19273C" font-family="sans-serif" font-size="16" lengthAdjust="spacingAndGlyphs" textLength="266" x="26" y="67.3516">void constructor(ModelFile,Object)</text><ellipse cx="17" cy="81.4375" fill="#84BE84" rx="3" ry="3" style="stroke: #038048; stroke-width: 1.0;"/><text fill="#19273C" font-family="sans-serif" font-size="16" lengthAdjust="spacingAndGlyphs" textLength="155" x="26" y="85.9766">boolean isConcept()</text><!--class ClassDeclaration--><rect fill="#F8FAFA" height="48" rx="1" ry="1" style="stroke: #E3ECEC; stroke-width: 1.5;" width="160" x="72" y="154"/><ellipse cx="87" cy="170" fill="#FFFFFF" rx="11" ry="11" style="stroke: #E3ECEC; stroke-width: 1.0;"/><path d="M89.4531,175.6563 Q88.9063,175.9375 88.3047,176.0859 Q87.7031,176.2344 87.0313,176.2344 Q84.6719,176.2344 83.4297,174.6719 Q82.1875,173.1094 82.1875,170.1719 Q82.1875,167.2344 83.4297,165.6797 Q84.6719,164.125 87.0313,164.125 Q87.7031,164.125 88.3125,164.2656 Q88.9219,164.4063 89.4531,164.6875 L89.4531,167.25 Q88.8594,166.7031 88.2969,166.4453 Q87.7344,166.1875 87.1406,166.1875 Q85.875,166.1875 85.2344,167.1953 Q84.5938,168.2031 84.5938,170.1719 Q84.5938,172.1406 85.2344,173.1484 Q85.875,174.1563 87.1406,174.1563 Q87.7344,174.1563 88.2969,173.8984 Q88.8594,173.6406 89.4531,173.0938 L89.4531,175.6563 Z "/><text fill="#19273C" font-family="sans-serif" font-size="16" lengthAdjust="spacingAndGlyphs" textLength="128" x="101" y="175.5391">ClassDeclaration</text><line style="stroke: #E3ECEC; stroke-width: 1.5;" x1="73" x2="231" y1="186" y2="186"/><line style="stroke: #E3ECEC; stroke-width: 1.5;" x1="73" x2="231" y1="194" y2="194"/><path d="M152,93.623 C152,106.4535 152,120.61 152,133.5593 " fill="none" style="stroke: #3C6DF0; stroke-width: 1.0;"/><polygon fill="none" points="159,133.7655,152,153.7654,145,133.7654,159,133.7655" style="stroke: #3C6DF0; stroke-width: 1.0;"/></g></svg>