<?xml version="1.0" encoding="UTF-8" standalone="no"?><svg xmlns="http://www.w3.org/2000/svg" xmlns:xlink="http://www.w3.org/1999/xlink" contentScriptType="application/ecmascript" contentStyleType="text/css" height="259px" preserveAspectRatio="none" style="width:730px;height:259px;" version="1.1" viewBox="0 0 730 259" width="730px" zoomAndPan="magnify"><defs/><g><!--class AssetRegistry--><rect fill="#F8FAFA" height="141.125" rx="1" ry="1" style="stroke: #E3ECEC; stroke-width: 1.5;" width="723" x="6" y="8.5"/><ellipse cx="309.25" cy="24.5" fill="#FFFFFF" rx="11" ry="11" style="stroke: #E3ECEC; stroke-width: 1.0;"/><path d="M311.7031,30.1563 Q311.1563,30.4375 310.5547,30.5859 Q309.9531,30.7344 309.2813,30.7344 Q306.9219,30.7344 305.6797,29.1719 Q304.4375,27.6094 304.4375,24.6719 Q304.4375,21.7344 305.6797,20.1797 Q306.9219,18.625 309.2813,18.625 Q309.9531,18.625 310.5625,18.7656 Q311.1719,18.9063 311.7031,19.1875 L311.7031,21.75 Q311.1094,21.2031 310.5469,20.9453 Q309.9844,20.6875 309.3906,20.6875 Q308.125,20.6875 307.4844,21.6953 Q306.8438,22.7031 306.8438,24.6719 Q306.8438,26.6406 307.4844,27.6484 Q308.125,28.6563 309.3906,28.6563 Q309.9844,28.6563 310.5469,28.3984 Q311.1094,28.1406 311.7031,27.5938 L311.7031,30.1563 Z "/><text fill="#19273C" font-family="sans-serif" font-size="16" lengthAdjust="spacingAndGlyphs" textLength="108" x="329.75" y="30.0391">AssetRegistry</text><line style="stroke: #E3ECEC; stroke-width: 1.5;" x1="7" x2="728" y1="40.5" y2="40.5"/><line style="stroke: #E3ECEC; stroke-width: 1.5;" x1="7" x2="728" y1="48.5" y2="48.5"/><ellipse cx="17" cy="62.8125" fill="#84BE84" rx="3" ry="3" style="stroke: #038048; stroke-width: 1.0;"/><text fill="#19273C" font-family="sans-serif" font-size="16" lengthAdjust="spacingAndGlyphs" textLength="622" x="26" y="67.3516">Promise getAllAssetRegistries(SecurityContext,ModelManager,Factory,Serializer)</text><ellipse cx="17" cy="81.4375" fill="#84BE84" rx="3" ry="3" style="stroke: #038048; stroke-width: 1.0;"/><text fill="#19273C" font-family="sans-serif" font-size="16" lengthAdjust="spacingAndGlyphs" textLength="643" x="26" y="85.9766">Promise getAssetRegistry(SecurityContext,string,ModelManager,Factory,Serializer)</text><ellipse cx="17" cy="100.0625" fill="#84BE84" rx="3" ry="3" style="stroke: #038048; stroke-width: 1.0;"/><text fill="#19273C" font-family="sans-serif" font-size="16" lengthAdjust="spacingAndGlyphs" textLength="663" x="26" y="104.6016">Promise assetRegistryExists(SecurityContext,string,ModelManager,Factory,Serializer)</text><ellipse cx="17" cy="118.6875" fill="#84BE84" rx="3" ry="3" style="stroke: #038048; stroke-width: 1.0;"/><text fill="#19273C" font-family="sans-serif" font-size="16" lengthAdjust="spacingAndGlyphs" textLength="697" x="26" y="123.2266">Promise addAssetRegistry(SecurityContext,string,string,ModelManager,Factory,Serializer)</text><ellipse cx="17" cy="137.3125" fill="#84BE84" rx="3" ry="3" style="stroke: #038048; stroke-width: 1.0;"/><text fill="#19273C" font-family="sans-serif" font-size="16" lengthAdjust="spacingAndGlyphs" textLength="622" x="26" y="141.8516">void constructor(string,string,SecurityContext,ModelManager,Factory,Serializer)</text><!--class Registry--><rect fill="#F8FAFA" height="48" rx="1" ry="1" style="stroke: #E3ECEC; stroke-width: 1.5;" width="96" x="319.25" y="210"/><ellipse cx="334.25" cy="226" fill="#FFFFFF" rx="11" ry="11" style="stroke: #E3ECEC; stroke-width: 1.0;"/><path d="M336.7031,231.6563 Q336.1563,231.9375 335.5547,232.0859 Q334.9531,232.2344 334.2813,232.2344 Q331.9219,232.2344 330.6797,230.6719 Q329.4375,229.1094 329.4375,226.1719 Q329.4375,223.2344 330.6797,221.6797 Q331.9219,220.125 334.2813,220.125 Q334.9531,220.125 335.5625,220.2656 Q336.1719,220.4063 336.7031,220.6875 L336.7031,223.25 Q336.1094,222.7031 335.5469,222.4453 Q334.9844,222.1875 334.3906,222.1875 Q333.125,222.1875 332.4844,223.1953 Q331.8438,224.2031 331.8438,226.1719 Q331.8438,228.1406 332.4844,229.1484 Q333.125,230.1563 334.3906,230.1563 Q334.9844,230.1563 335.5469,229.8984 Q336.1094,229.6406 336.7031,229.0938 L336.7031,231.6563 Z "/><text fill="#19273C" font-family="sans-serif" font-size="16" lengthAdjust="spacingAndGlyphs" textLength="64" x="348.25" y="231.5391">Registry</text><line style="stroke: #E3ECEC; stroke-width: 1.5;" x1="320.25" x2="414.25" y1="242" y2="242"/><line style="stroke: #E3ECEC; stroke-width: 1.5;" x1="320.25" x2="414.25" y1="250" y2="250"/><path d="M367.25,149.784 C367.25,163.2808 367.25,177.0584 367.25,189.4192 " fill="none" style="stroke: #3C6DF0; stroke-width: 1.0;"/><polygon fill="none" points="374.25,189.7717,367.25,209.7717,360.25,189.7717,374.25,189.7717" style="stroke: #3C6DF0; stroke-width: 1.0;"/></g></svg>