<?xml version="1.0" encoding="UTF-8" standalone="no"?><svg xmlns="http://www.w3.org/2000/svg" xmlns:xlink="http://www.w3.org/1999/xlink" contentScriptType="application/ecmascript" contentStyleType="text/css" height="221px" preserveAspectRatio="none" style="width:320px;height:221px;" version="1.1" viewBox="0 0 320 221" width="320px" zoomAndPan="magnify"><defs/><g><!--class BaseModelException--><rect fill="#F8FAFA" height="103.875" rx="1" ry="1" style="stroke: #E3ECEC; stroke-width: 1.5;" width="313" x="6" y="8"/><ellipse cx="78.25" cy="24" fill="#FFFFFF" rx="11" ry="11" style="stroke: #E3ECEC; stroke-width: 1.0;"/><path d="M80.7031,29.6563 Q80.1563,29.9375 79.5547,30.0859 Q78.9531,30.2344 78.2813,30.2344 Q75.9219,30.2344 74.6797,28.6719 Q73.4375,27.1094 73.4375,24.1719 Q73.4375,21.2344 74.6797,19.6797 Q75.9219,18.125 78.2813,18.125 Q78.9531,18.125 79.5625,18.2656 Q80.1719,18.4063 80.7031,18.6875 L80.7031,21.25 Q80.1094,20.7031 79.5469,20.4453 Q78.9844,20.1875 78.3906,20.1875 Q77.125,20.1875 76.4844,21.1953 Q75.8438,22.2031 75.8438,24.1719 Q75.8438,26.1406 76.4844,27.1484 Q77.125,28.1563 78.3906,28.1563 Q78.9844,28.1563 79.5469,27.8984 Q80.1094,27.6406 80.7031,27.0938 L80.7031,29.6563 Z "/><text fill="#19273C" font-family="sans-serif" font-size="16" lengthAdjust="spacingAndGlyphs" textLength="160" x="98.75" y="29.5391">BaseModelException</text><line style="stroke: #E3ECEC; stroke-width: 1.5;" x1="7" x2="318" y1="40" y2="40"/><line style="stroke: #E3ECEC; stroke-width: 1.5;" x1="7" x2="318" y1="48" y2="48"/><ellipse cx="17" cy="62.3125" fill="#84BE84" rx="3" ry="3" style="stroke: #038048; stroke-width: 1.0;"/><text fill="#19273C" font-family="sans-serif" font-size="16" lengthAdjust="spacingAndGlyphs" textLength="287" x="26" y="66.8516">void constructor(string,string,string)</text><ellipse cx="17" cy="80.9375" fill="#84BE84" rx="3" ry="3" style="stroke: #038048; stroke-width: 1.0;"/><text fill="#19273C" font-family="sans-serif" font-size="16" lengthAdjust="spacingAndGlyphs" textLength="177" x="26" y="85.4766">string getFileLocation()</text><ellipse cx="17" cy="99.5625" fill="#84BE84" rx="3" ry="3" style="stroke: #038048; stroke-width: 1.0;"/><text fill="#19273C" font-family="sans-serif" font-size="16" lengthAdjust="spacingAndGlyphs" textLength="198" x="26" y="104.1016">string getShortMessage()</text><!--class BaseException--><rect fill="#F8FAFA" height="48" rx="1" ry="1" style="stroke: #E3ECEC; stroke-width: 1.5;" width="147" x="89" y="172"/><ellipse cx="104" cy="188" fill="#FFFFFF" rx="11" ry="11" style="stroke: #E3ECEC; stroke-width: 1.0;"/><path d="M106.4531,193.6563 Q105.9063,193.9375 105.3047,194.0859 Q104.7031,194.2344 104.0313,194.2344 Q101.6719,194.2344 100.4297,192.6719 Q99.1875,191.1094 99.1875,188.1719 Q99.1875,185.2344 100.4297,183.6797 Q101.6719,182.125 104.0313,182.125 Q104.7031,182.125 105.3125,182.2656 Q105.9219,182.4063 106.4531,182.6875 L106.4531,185.25 Q105.8594,184.7031 105.2969,184.4453 Q104.7344,184.1875 104.1406,184.1875 Q102.875,184.1875 102.2344,185.1953 Q101.5938,186.2031 101.5938,188.1719 Q101.5938,190.1406 102.2344,191.1484 Q102.875,192.1563 104.1406,192.1563 Q104.7344,192.1563 105.2969,191.8984 Q105.8594,191.6406 106.4531,191.0938 L106.4531,193.6563 Z "/><text fill="#19273C" font-family="sans-serif" font-size="16" lengthAdjust="spacingAndGlyphs" textLength="115" x="118" y="193.5391">BaseException</text><line style="stroke: #E3ECEC; stroke-width: 1.5;" x1="90" x2="235" y1="204" y2="204"/><line style="stroke: #E3ECEC; stroke-width: 1.5;" x1="90" x2="235" y1="212" y2="212"/><path d="M162.25,112.042 C162.25,125.0534 162.25,138.9174 162.25,151.512 " fill="none" style="stroke: #3C6DF0; stroke-width: 1.0;"/><polygon fill="none" points="169.25,151.7391,162.25,171.7391,155.25,151.7391,169.25,151.7391" style="stroke: #3C6DF0; stroke-width: 1.0;"/></g></svg>