<?xml version="1.0" encoding="UTF-8" standalone="no"?><svg xmlns="http://www.w3.org/2000/svg" xmlns:xlink="http://www.w3.org/1999/xlink" contentScriptType="application/ecmascript" contentStyleType="text/css" height="187px" preserveAspectRatio="none" style="width:273px;height:187px;" version="1.1" viewBox="0 0 273 187" width="273px" zoomAndPan="magnify"><defs/><g><!--class BusinessNetworkMetadata--><rect fill="#F8FAFA" height="178.375" rx="1" ry="1" style="stroke: #E3ECEC; stroke-width: 1.5;" width="266" x="6" y="8"/><ellipse cx="33.15" cy="24" fill="#FFFFFF" rx="11" ry="11" style="stroke: #E3ECEC; stroke-width: 1.0;"/><path d="M35.6031,29.6563 Q35.0563,29.9375 34.4547,30.0859 Q33.8531,30.2344 33.1813,30.2344 Q30.8219,30.2344 29.5797,28.6719 Q28.3375,27.1094 28.3375,24.1719 Q28.3375,21.2344 29.5797,19.6797 Q30.8219,18.125 33.1813,18.125 Q33.8531,18.125 34.4625,18.2656 Q35.0719,18.4063 35.6031,18.6875 L35.6031,21.25 Q35.0094,20.7031 34.4469,20.4453 Q33.8844,20.1875 33.2906,20.1875 Q32.025,20.1875 31.3844,21.1953 Q30.7438,22.2031 30.7438,24.1719 Q30.7438,26.1406 31.3844,27.1484 Q32.025,28.1563 33.2906,28.1563 Q33.8844,28.1563 34.4469,27.8984 Q35.0094,27.6406 35.6031,27.0938 L35.6031,29.6563 Z "/><text fill="#19273C" font-family="sans-serif" font-size="16" lengthAdjust="spacingAndGlyphs" textLength="207" x="49.85" y="29.5391">BusinessNetworkMetadata</text><line style="stroke: #E3ECEC; stroke-width: 1.5;" x1="7" x2="271" y1="40" y2="40"/><line style="stroke: #E3ECEC; stroke-width: 1.5;" x1="7" x2="271" y1="48" y2="48"/><ellipse cx="17" cy="62.3125" fill="#84BE84" rx="3" ry="3" style="stroke: #038048; stroke-width: 1.0;"/><text fill="#19273C" font-family="sans-serif" font-size="16" lengthAdjust="spacingAndGlyphs" textLength="240" x="26" y="66.8516">void constructor(object,String)</text><ellipse cx="17" cy="80.9375" fill="#84BE84" rx="3" ry="3" style="stroke: #038048; stroke-width: 1.0;"/><text fill="#19273C" font-family="sans-serif" font-size="16" lengthAdjust="spacingAndGlyphs" textLength="155" x="26" y="85.4766">String getREADME()</text><ellipse cx="17" cy="99.5625" fill="#84BE84" rx="3" ry="3" style="stroke: #038048; stroke-width: 1.0;"/><text fill="#19273C" font-family="sans-serif" font-size="16" lengthAdjust="spacingAndGlyphs" textLength="188" x="26" y="104.1016">object getPackageJson()</text><ellipse cx="17" cy="118.1875" fill="#84BE84" rx="3" ry="3" style="stroke: #038048; stroke-width: 1.0;"/><text fill="#19273C" font-family="sans-serif" font-size="16" lengthAdjust="spacingAndGlyphs" textLength="132" x="26" y="122.7266">string getName()</text><ellipse cx="17" cy="136.8125" fill="#84BE84" rx="3" ry="3" style="stroke: #038048; stroke-width: 1.0;"/><text fill="#19273C" font-family="sans-serif" font-size="16" lengthAdjust="spacingAndGlyphs" textLength="175" x="26" y="141.3516">string getDescription()</text><ellipse cx="17" cy="155.4375" fill="#84BE84" rx="3" ry="3" style="stroke: #038048; stroke-width: 1.0;"/><text fill="#19273C" font-family="sans-serif" font-size="16" lengthAdjust="spacingAndGlyphs" textLength="146" x="26" y="159.9766">string getVersion()</text><ellipse cx="17" cy="174.0625" fill="#84BE84" rx="3" ry="3" style="stroke: #038048; stroke-width: 1.0;"/><text fill="#19273C" font-family="sans-serif" font-size="16" lengthAdjust="spacingAndGlyphs" textLength="155" x="26" y="178.6016">string getIdentifier()</text></g></svg>