<?xml version="1.0" encoding="UTF-8" standalone="no"?><svg xmlns="http://www.w3.org/2000/svg" xmlns:xlink="http://www.w3.org/1999/xlink" contentScriptType="application/ecmascript" contentStyleType="text/css" height="168px" preserveAspectRatio="none" style="width:310px;height:168px;" version="1.1" viewBox="0 0 310 168" width="310px" zoomAndPan="magnify"><defs/><g><!--class BusinessNetworkCardStore--><rect fill="#F8FAFA" height="159.75" rx="1" ry="1" style="stroke: #E3ECEC; stroke-width: 1.5;" width="303" x="6" y="8"/><ellipse cx="46.2" cy="24" fill="#FFFFFF" rx="11" ry="11" style="stroke: #E3ECEC; stroke-width: 1.0;"/><path d="M48.6531,29.6563 Q48.1063,29.9375 47.5047,30.0859 Q46.9031,30.2344 46.2313,30.2344 Q43.8719,30.2344 42.6297,28.6719 Q41.3875,27.1094 41.3875,24.1719 Q41.3875,21.2344 42.6297,19.6797 Q43.8719,18.125 46.2313,18.125 Q46.9031,18.125 47.5125,18.2656 Q48.1219,18.4063 48.6531,18.6875 L48.6531,21.25 Q48.0594,20.7031 47.4969,20.4453 Q46.9344,20.1875 46.3406,20.1875 Q45.075,20.1875 44.4344,21.1953 Q43.7938,22.2031 43.7938,24.1719 Q43.7938,26.1406 44.4344,27.1484 Q45.075,28.1563 46.3406,28.1563 Q46.9344,28.1563 47.4969,27.8984 Q48.0594,27.6406 48.6531,27.0938 L48.6531,29.6563 Z "/><text fill="#19273C" font-family="sans-serif" font-size="16" lengthAdjust="spacingAndGlyphs" textLength="215" x="65.8" y="29.5391">BusinessNetworkCardStore</text><line style="stroke: #E3ECEC; stroke-width: 1.5;" x1="7" x2="308" y1="40" y2="40"/><line style="stroke: #E3ECEC; stroke-width: 1.5;" x1="7" x2="308" y1="48" y2="48"/><ellipse cx="17" cy="62.3125" fill="#84BE84" rx="3" ry="3" style="stroke: #038048; stroke-width: 1.0;"/><text fill="#19273C" font-family="sans-serif" font-size="16" lengthAdjust="spacingAndGlyphs" textLength="277" x="26" y="66.8516">String getDefaultCardName(IdCard)</text><ellipse cx="17" cy="80.9375" fill="#84BE84" rx="3" ry="3" style="stroke: #038048; stroke-width: 1.0;"/><text fill="#19273C" font-family="sans-serif" font-size="16" lengthAdjust="spacingAndGlyphs" textLength="151" x="26" y="85.4766">Promise get(String)</text><ellipse cx="17" cy="99.5625" fill="#84BE84" rx="3" ry="3" style="stroke: #038048; stroke-width: 1.0;"/><text fill="#19273C" font-family="sans-serif" font-size="16" lengthAdjust="spacingAndGlyphs" textLength="209" x="26" y="104.1016">Promise put(String,IdCard)</text><ellipse cx="17" cy="118.1875" fill="#84BE84" rx="3" ry="3" style="stroke: #038048; stroke-width: 1.0;"/><text fill="#19273C" font-family="sans-serif" font-size="16" lengthAdjust="spacingAndGlyphs" textLength="154" x="26" y="122.7266">Promise has(String)</text><ellipse cx="17" cy="136.8125" fill="#84BE84" rx="3" ry="3" style="stroke: #038048; stroke-width: 1.0;"/><text fill="#19273C" font-family="sans-serif" font-size="16" lengthAdjust="spacingAndGlyphs" textLength="122" x="26" y="141.3516">Promise getAll()</text><ellipse cx="17" cy="155.4375" fill="#84BE84" rx="3" ry="3" style="stroke: #038048; stroke-width: 1.0;"/><text fill="#19273C" font-family="sans-serif" font-size="16" lengthAdjust="spacingAndGlyphs" textLength="172" x="26" y="159.9766">Promise delete(String)</text></g></svg>