<?xml version="1.0" encoding="UTF-8" standalone="no"?><svg xmlns="http://www.w3.org/2000/svg" xmlns:xlink="http://www.w3.org/1999/xlink" contentScriptType="application/ecmascript" contentStyleType="text/css" height="264px" preserveAspectRatio="none" style="width:514px;height:264px;" version="1.1" viewBox="0 0 514 264" width="514px" zoomAndPan="magnify"><defs/><g><!--class BusinessNetworkDefinition--><rect fill="#F8FAFA" height="255.2813" rx="1" ry="1" style="stroke: #E3ECEC; stroke-width: 1.5;" width="507" x="6" y="8"/><ellipse cx="150.25" cy="24" fill="#FFFFFF" rx="11" ry="11" style="stroke: #E3ECEC; stroke-width: 1.0;"/><path d="M152.6953,29.6641 Q152.1484,29.9453 151.5469,30.0859 Q150.9453,30.2266 150.2813,30.2266 Q147.9219,30.2266 146.6797,28.6719 Q145.4375,27.1172 145.4375,24.1797 Q145.4375,21.2344 146.6797,19.6797 Q147.9219,18.125 150.2813,18.125 Q150.9453,18.125 151.5547,18.2656 Q152.1641,18.4063 152.6953,18.6875 L152.6953,21.25 Q152.1016,20.7031 151.543,20.4492 Q150.9844,20.1953 150.3906,20.1953 Q149.125,20.1953 148.4805,21.1992 Q147.8359,22.2031 147.8359,24.1797 Q147.8359,26.1484 148.4805,27.1523 Q149.125,28.1563 150.3906,28.1563 Q150.9844,28.1563 151.543,27.9023 Q152.1016,27.6484 152.6953,27.1016 Z "/><text fill="#19273C" font-family="sans-serif" font-size="16" lengthAdjust="spacingAndGlyphs" textLength="210" x="170.75" y="30.0469">BusinessNetworkDefinition</text><line style="stroke: #E3ECEC; stroke-width: 1.5;" x1="7" x2="512" y1="40" y2="40"/><line style="stroke: #E3ECEC; stroke-width: 1.5;" x1="7" x2="512" y1="48" y2="48"/><ellipse cx="17" cy="62.4219" fill="#84BE84" rx="3" ry="3" style="stroke: #038048; stroke-width: 1.0;"/><text fill="#19273C" font-family="sans-serif" font-size="16" lengthAdjust="spacingAndGlyphs" textLength="159" x="26" y="67.4688">String getIdentifier()</text><ellipse cx="17" cy="81.2656" fill="#84BE84" rx="3" ry="3" style="stroke: #038048; stroke-width: 1.0;"/><text fill="#19273C" font-family="sans-serif" font-size="16" lengthAdjust="spacingAndGlyphs" textLength="316" x="26" y="86.3125">BusinessNetworkMetadata getMetadata()</text><ellipse cx="17" cy="100.1094" fill="#84BE84" rx="3" ry="3" style="stroke: #038048; stroke-width: 1.0;"/><text fill="#19273C" font-family="sans-serif" font-size="16" lengthAdjust="spacingAndGlyphs" textLength="132" x="26" y="105.1563">String getName()</text><ellipse cx="17" cy="118.9531" fill="#84BE84" rx="3" ry="3" style="stroke: #038048; stroke-width: 1.0;"/><text fill="#19273C" font-family="sans-serif" font-size="16" lengthAdjust="spacingAndGlyphs" textLength="146" x="26" y="124">String getVersion()</text><ellipse cx="17" cy="137.7969" fill="#84BE84" rx="3" ry="3" style="stroke: #038048; stroke-width: 1.0;"/><text fill="#19273C" font-family="sans-serif" font-size="16" lengthAdjust="spacingAndGlyphs" textLength="177" x="26" y="142.8438">String getDescription()</text><ellipse cx="17" cy="156.6406" fill="#84BE84" rx="3" ry="3" style="stroke: #038048; stroke-width: 1.0;"/><text fill="#19273C" font-family="sans-serif" font-size="16" lengthAdjust="spacingAndGlyphs" textLength="221" x="26" y="161.6875">Promise fromArchive(Buffer)</text><ellipse cx="17" cy="175.4844" fill="#84BE84" rx="3" ry="3" style="stroke: #038048; stroke-width: 1.0;"/><text fill="#19273C" font-family="sans-serif" font-size="16" lengthAdjust="spacingAndGlyphs" textLength="186" x="26" y="180.5313">Buffer toArchive(Object)</text><ellipse cx="17" cy="194.3281" fill="#84BE84" rx="3" ry="3" style="stroke: #038048; stroke-width: 1.0;"/><text fill="#19273C" font-family="sans-serif" font-size="16" lengthAdjust="spacingAndGlyphs" textLength="481" x="26" y="199.375">Promise fromDirectory(String,Object,Object,boolean,boolean)</text><ellipse cx="17" cy="213.1719" fill="#84BE84" rx="3" ry="3" style="stroke: #038048; stroke-width: 1.0;"/><text fill="#19273C" font-family="sans-serif" font-size="16" lengthAdjust="spacingAndGlyphs" textLength="232" x="26" y="218.2188">Introspector getIntrospector()</text><ellipse cx="17" cy="232.0156" fill="#84BE84" rx="3" ry="3" style="stroke: #038048; stroke-width: 1.0;"/><text fill="#19273C" font-family="sans-serif" font-size="16" lengthAdjust="spacingAndGlyphs" textLength="154" x="26" y="237.0625">Factory getFactory()</text><ellipse cx="17" cy="250.8594" fill="#84BE84" rx="3" ry="3" style="stroke: #038048; stroke-width: 1.0;"/><text fill="#19273C" font-family="sans-serif" font-size="16" lengthAdjust="spacingAndGlyphs" textLength="188" x="26" y="255.9063">Serializer getSerializer()</text></g></svg>