<?xml version="1.0" encoding="UTF-8" standalone="no"?><svg xmlns="http://www.w3.org/2000/svg" xmlns:xlink="http://www.w3.org/1999/xlink" contentScriptType="application/ecmascript" contentStyleType="text/css" height="184px" preserveAspectRatio="none" style="width:357px;height:184px;" version="1.1" viewBox="0 0 357 184" width="357px" zoomAndPan="magnify"><defs/><g><!--class EnumValueDeclaration--><rect fill="#F8FAFA" height="66.8438" rx="1" ry="1" style="stroke: #E3ECEC; stroke-width: 1.5;" width="350" x="6" y="8"/><ellipse cx="88.25" cy="24" fill="#FFFFFF" rx="11" ry="11" style="stroke: #E3ECEC; stroke-width: 1.0;"/><path d="M90.6953,29.6641 Q90.1484,29.9453 89.5469,30.0859 Q88.9453,30.2266 88.2813,30.2266 Q85.9219,30.2266 84.6797,28.6719 Q83.4375,27.1172 83.4375,24.1797 Q83.4375,21.2344 84.6797,19.6797 Q85.9219,18.125 88.2813,18.125 Q88.9453,18.125 89.5547,18.2656 Q90.1641,18.4063 90.6953,18.6875 L90.6953,21.25 Q90.1016,20.7031 89.543,20.4492 Q88.9844,20.1953 88.3906,20.1953 Q87.125,20.1953 86.4805,21.1992 Q85.8359,22.2031 85.8359,24.1797 Q85.8359,26.1484 86.4805,27.1523 Q87.125,28.1563 88.3906,28.1563 Q88.9844,28.1563 89.543,27.9023 Q90.1016,27.6484 90.6953,27.1016 Z "/><text fill="#19273C" font-family="sans-serif" font-size="16" lengthAdjust="spacingAndGlyphs" textLength="177" x="108.75" y="30.0469">EnumValueDeclaration</text><line style="stroke: #E3ECEC; stroke-width: 1.5;" x1="7" x2="355" y1="40" y2="40"/><line style="stroke: #E3ECEC; stroke-width: 1.5;" x1="7" x2="355" y1="48" y2="48"/><ellipse cx="17" cy="62.4219" fill="#84BE84" rx="3" ry="3" style="stroke: #038048; stroke-width: 1.0;"/><text fill="#19273C" font-family="sans-serif" font-size="16" lengthAdjust="spacingAndGlyphs" textLength="324" x="26" y="67.4688">void constructor(ClassDeclaration,Object)</text><!--class Property--><rect fill="#F8FAFA" height="48" rx="1" ry="1" style="stroke: #E3ECEC; stroke-width: 1.5;" width="98" x="132" y="135"/><ellipse cx="147" cy="151" fill="#FFFFFF" rx="11" ry="11" style="stroke: #E3ECEC; stroke-width: 1.0;"/><path d="M149.4453,156.6641 Q148.8984,156.9453 148.2969,157.0859 Q147.6953,157.2266 147.0313,157.2266 Q144.6719,157.2266 143.4297,155.6719 Q142.1875,154.1172 142.1875,151.1797 Q142.1875,148.2344 143.4297,146.6797 Q144.6719,145.125 147.0313,145.125 Q147.6953,145.125 148.3047,145.2656 Q148.9141,145.4063 149.4453,145.6875 L149.4453,148.25 Q148.8516,147.7031 148.293,147.4492 Q147.7344,147.1953 147.1406,147.1953 Q145.875,147.1953 145.2305,148.1992 Q144.5859,149.2031 144.5859,151.1797 Q144.5859,153.1484 145.2305,154.1523 Q145.875,155.1563 147.1406,155.1563 Q147.7344,155.1563 148.293,154.9023 Q148.8516,154.6484 149.4453,154.1016 Z "/><text fill="#19273C" font-family="sans-serif" font-size="16" lengthAdjust="spacingAndGlyphs" textLength="66" x="161" y="157.0469">Property</text><line style="stroke: #E3ECEC; stroke-width: 1.5;" x1="133" x2="229" y1="167" y2="167"/><line style="stroke: #E3ECEC; stroke-width: 1.5;" x1="133" x2="229" y1="175" y2="175"/><path d="M181,75.1708 C181,87.335 181,101.2651 181,114.2307 " fill="none" style="stroke: #3C6DF0; stroke-width: 1.0;"/><polygon fill="none" points="188.0001,114.6584,181,134.6584,174.0001,114.6583,188.0001,114.6584" style="stroke: #3C6DF0; stroke-width: 1.0;"/></g></svg>