<?xml version="1.0" encoding="UTF-8" standalone="no"?><svg xmlns="http://www.w3.org/2000/svg" xmlns:xlink="http://www.w3.org/1999/xlink" contentScriptType="application/ecmascript" contentStyleType="text/css" height="206px" preserveAspectRatio="none" style="width:546px;height:206px;" version="1.1" viewBox="0 0 546 206" width="546px" zoomAndPan="magnify"><defs/><g><!--class Factory--><rect fill="#F8FAFA" height="197" rx="1" ry="1" style="stroke: #E3ECEC; stroke-width: 1.5;" width="539" x="6" y="8.5"/><ellipse cx="241.75" cy="24.5" fill="#FFFFFF" rx="11" ry="11" style="stroke: #E3ECEC; stroke-width: 1.0;"/><path d="M244.2031,30.1563 Q243.6563,30.4375 243.0547,30.5859 Q242.4531,30.7344 241.7813,30.7344 Q239.4219,30.7344 238.1797,29.1719 Q236.9375,27.6094 236.9375,24.6719 Q236.9375,21.7344 238.1797,20.1797 Q239.4219,18.625 241.7813,18.625 Q242.4531,18.625 243.0625,18.7656 Q243.6719,18.9063 244.2031,19.1875 L244.2031,21.75 Q243.6094,21.2031 243.0469,20.9453 Q242.4844,20.6875 241.8906,20.6875 Q240.625,20.6875 239.9844,21.6953 Q239.3438,22.7031 239.3438,24.6719 Q239.3438,26.6406 239.9844,27.6484 Q240.625,28.6563 241.8906,28.6563 Q242.4844,28.6563 243.0469,28.3984 Q243.6094,28.1406 244.2031,27.5938 L244.2031,30.1563 Z "/><text fill="#19273C" font-family="sans-serif" font-size="16" lengthAdjust="spacingAndGlyphs" textLength="59" x="262.25" y="30.0391">Factory</text><line style="stroke: #E3ECEC; stroke-width: 1.5;" x1="7" x2="544" y1="40.5" y2="40.5"/><line style="stroke: #E3ECEC; stroke-width: 1.5;" x1="7" x2="544" y1="48.5" y2="48.5"/><ellipse cx="17" cy="62.8125" fill="#84BE84" rx="3" ry="3" style="stroke: #038048; stroke-width: 1.0;"/><text fill="#19273C" font-family="sans-serif" font-size="16" lengthAdjust="spacingAndGlyphs" textLength="254" x="26" y="67.3516">void constructor(ModelManager)</text><ellipse cx="17" cy="81.4375" fill="#84BE84" rx="3" ry="3" style="stroke: #038048; stroke-width: 1.0;"/><text fill="#19273C" font-family="sans-serif" font-size="16" lengthAdjust="spacingAndGlyphs" textLength="506" x="26" y="85.9766">Resource newInstance(string,string,string,Object,boolean,string)</text><ellipse cx="17" cy="100.0625" fill="#84BE84" rx="3" ry="3" style="stroke: #038048; stroke-width: 1.0;"/><text fill="#19273C" font-family="sans-serif" font-size="16" lengthAdjust="spacingAndGlyphs" textLength="513" x="26" y="104.6016">Resource newResource(string,string,string,Object,boolean,string)</text><ellipse cx="17" cy="118.6875" fill="#84BE84" rx="3" ry="3" style="stroke: #038048; stroke-width: 1.0;"/><text fill="#19273C" font-family="sans-serif" font-size="16" lengthAdjust="spacingAndGlyphs" textLength="454" x="26" y="123.2266">Resource newConcept(string,string,Object,boolean,string)</text><ellipse cx="17" cy="137.3125" fill="#84BE84" rx="3" ry="3" style="stroke: #038048; stroke-width: 1.0;"/><text fill="#19273C" font-family="sans-serif" font-size="16" lengthAdjust="spacingAndGlyphs" textLength="380" x="26" y="141.8516">Relationship newRelationship(string,string,string)</text><ellipse cx="17" cy="155.9375" fill="#84BE84" rx="3" ry="3" style="stroke: #038048; stroke-width: 1.0;"/><text fill="#19273C" font-family="sans-serif" font-size="16" lengthAdjust="spacingAndGlyphs" textLength="464" x="26" y="160.4766">Resource newTransaction(string,string,string,Object,string)</text><ellipse cx="17" cy="174.5625" fill="#84BE84" rx="3" ry="3" style="stroke: #038048; stroke-width: 1.0;"/><text fill="#19273C" font-family="sans-serif" font-size="16" lengthAdjust="spacingAndGlyphs" textLength="367" x="26" y="179.1016">Resource newEvent(string,string,Object,string)</text><ellipse cx="17" cy="193.1875" fill="#84BE84" rx="3" ry="3" style="stroke: #038048; stroke-width: 1.0;"/><text fill="#19273C" font-family="sans-serif" font-size="16" lengthAdjust="spacingAndGlyphs" textLength="123" x="26" y="197.7266">Object toJSON()</text></g></svg>