<?xml version="1.0" encoding="UTF-8" standalone="no"?><svg xmlns="http://www.w3.org/2000/svg" xmlns:xlink="http://www.w3.org/1999/xlink" contentScriptType="application/ecmascript" contentStyleType="text/css" height="278px" preserveAspectRatio="none" style="width:357px;height:278px;" version="1.1" viewBox="0 0 357 278" width="357px" zoomAndPan="magnify"><defs/><g><!--class FileSystemCardStore--><rect fill="#F8FAFA" height="161.0625" rx="1" ry="1" style="stroke: #E3ECEC; stroke-width: 1.5;" width="350" x="6" y="8"/><ellipse cx="96.25" cy="24" fill="#FFFFFF" rx="11" ry="11" style="stroke: #E3ECEC; stroke-width: 1.0;"/><path d="M98.6953,29.6641 Q98.1484,29.9453 97.5469,30.0859 Q96.9453,30.2266 96.2813,30.2266 Q93.9219,30.2266 92.6797,28.6719 Q91.4375,27.1172 91.4375,24.1797 Q91.4375,21.2344 92.6797,19.6797 Q93.9219,18.125 96.2813,18.125 Q96.9453,18.125 97.5547,18.2656 Q98.1641,18.4063 98.6953,18.6875 L98.6953,21.25 Q98.1016,20.7031 97.543,20.4492 Q96.9844,20.1953 96.3906,20.1953 Q95.125,20.1953 94.4805,21.1992 Q93.8359,22.2031 93.8359,24.1797 Q93.8359,26.1484 94.4805,27.1523 Q95.125,28.1563 96.3906,28.1563 Q96.9844,28.1563 97.543,27.9023 Q98.1016,27.6484 98.6953,27.1016 Z "/><text fill="#19273C" font-family="sans-serif" font-size="16" lengthAdjust="spacingAndGlyphs" textLength="161" x="116.75" y="30.0469">FileSystemCardStore</text><line style="stroke: #E3ECEC; stroke-width: 1.5;" x1="7" x2="355" y1="40" y2="40"/><line style="stroke: #E3ECEC; stroke-width: 1.5;" x1="7" x2="355" y1="48" y2="48"/><ellipse cx="17" cy="62.4219" fill="#84BE84" rx="3" ry="3" style="stroke: #038048; stroke-width: 1.0;"/><text fill="#19273C" font-family="sans-serif" font-size="16" lengthAdjust="spacingAndGlyphs" textLength="324" x="26" y="67.4688">void constructor(Object,undefined,String)</text><ellipse cx="17" cy="81.2656" fill="#84BE84" rx="3" ry="3" style="stroke: #038048; stroke-width: 1.0;"/><text fill="#19273C" font-family="sans-serif" font-size="16" lengthAdjust="spacingAndGlyphs" textLength="73" x="26" y="86.3125">void get()</text><ellipse cx="17" cy="100.1094" fill="#84BE84" rx="3" ry="3" style="stroke: #038048; stroke-width: 1.0;"/><text fill="#19273C" font-family="sans-serif" font-size="16" lengthAdjust="spacingAndGlyphs" textLength="74" x="26" y="105.1563">void put()</text><ellipse cx="17" cy="118.9531" fill="#84BE84" rx="3" ry="3" style="stroke: #038048; stroke-width: 1.0;"/><text fill="#19273C" font-family="sans-serif" font-size="16" lengthAdjust="spacingAndGlyphs" textLength="75" x="26" y="124">void has()</text><ellipse cx="17" cy="137.7969" fill="#84BE84" rx="3" ry="3" style="stroke: #038048; stroke-width: 1.0;"/><text fill="#19273C" font-family="sans-serif" font-size="16" lengthAdjust="spacingAndGlyphs" textLength="94" x="26" y="142.8438">void getAll()</text><ellipse cx="17" cy="156.6406" fill="#84BE84" rx="3" ry="3" style="stroke: #038048; stroke-width: 1.0;"/><text fill="#19273C" font-family="sans-serif" font-size="16" lengthAdjust="spacingAndGlyphs" textLength="96" x="26" y="161.6875">void delete()</text><!--class BusinessNetworkCardStore--><rect fill="#F8FAFA" height="48" rx="1" ry="1" style="stroke: #E3ECEC; stroke-width: 1.5;" width="242" x="60" y="229"/><ellipse cx="75" cy="245" fill="#FFFFFF" rx="11" ry="11" style="stroke: #E3ECEC; stroke-width: 1.0;"/><path d="M77.4453,250.6641 Q76.8984,250.9453 76.2969,251.0859 Q75.6953,251.2266 75.0313,251.2266 Q72.6719,251.2266 71.4297,249.6719 Q70.1875,248.1172 70.1875,245.1797 Q70.1875,242.2344 71.4297,240.6797 Q72.6719,239.125 75.0313,239.125 Q75.6953,239.125 76.3047,239.2656 Q76.9141,239.4063 77.4453,239.6875 L77.4453,242.25 Q76.8516,241.7031 76.293,241.4492 Q75.7344,241.1953 75.1406,241.1953 Q73.875,241.1953 73.2305,242.1992 Q72.5859,243.2031 72.5859,245.1797 Q72.5859,247.1484 73.2305,248.1523 Q73.875,249.1563 75.1406,249.1563 Q75.7344,249.1563 76.293,248.9023 Q76.8516,248.6484 77.4453,248.1016 Z "/><text fill="#19273C" font-family="sans-serif" font-size="16" lengthAdjust="spacingAndGlyphs" textLength="210" x="89" y="251.0469">BusinessNetworkCardStore</text><line style="stroke: #E3ECEC; stroke-width: 1.5;" x1="61" x2="301" y1="261" y2="261"/><line style="stroke: #E3ECEC; stroke-width: 1.5;" x1="61" x2="301" y1="269" y2="269"/><path d="M181,169.3043 C181,182.914 181,196.5766 181,208.8008 " fill="none" style="stroke: #3C6DF0; stroke-width: 1.0;"/><polygon fill="none" points="188.0001,208.929,181,228.9289,174.0001,208.9289,188.0001,208.929" style="stroke: #3C6DF0; stroke-width: 1.0;"/></g></svg>