<?xml version="1.0" encoding="UTF-8" standalone="no"?><svg xmlns="http://www.w3.org/2000/svg" xmlns:xlink="http://www.w3.org/1999/xlink" contentScriptType="application/ecmascript" contentStyleType="text/css" height="264px" preserveAspectRatio="none" style="width:776px;height:264px;" version="1.1" viewBox="0 0 776 264" width="776px" zoomAndPan="magnify"><defs/><g><!--class FunctionDeclaration--><rect fill="#F8FAFA" height="255.2813" rx="1" ry="1" style="stroke: #E3ECEC; stroke-width: 1.5;" width="769" x="6" y="8"/><ellipse cx="307.25" cy="24" fill="#FFFFFF" rx="11" ry="11" style="stroke: #E3ECEC; stroke-width: 1.0;"/><path d="M309.6953,29.6641 Q309.1484,29.9453 308.5469,30.0859 Q307.9453,30.2266 307.2813,30.2266 Q304.9219,30.2266 303.6797,28.6719 Q302.4375,27.1172 302.4375,24.1797 Q302.4375,21.2344 303.6797,19.6797 Q304.9219,18.125 307.2813,18.125 Q307.9453,18.125 308.5547,18.2656 Q309.1641,18.4063 309.6953,18.6875 L309.6953,21.25 Q309.1016,20.7031 308.543,20.4492 Q307.9844,20.1953 307.3906,20.1953 Q306.125,20.1953 305.4805,21.1992 Q304.8359,22.2031 304.8359,24.1797 Q304.8359,26.1484 305.4805,27.1523 Q306.125,28.1563 307.3906,28.1563 Q307.9844,28.1563 308.543,27.9023 Q309.1016,27.6484 309.6953,27.1016 Z "/><text fill="#19273C" font-family="sans-serif" font-size="16" lengthAdjust="spacingAndGlyphs" textLength="158" x="327.75" y="30.0469">FunctionDeclaration</text><line style="stroke: #E3ECEC; stroke-width: 1.5;" x1="7" x2="774" y1="40" y2="40"/><line style="stroke: #E3ECEC; stroke-width: 1.5;" x1="7" x2="774" y1="48" y2="48"/><ellipse cx="17" cy="62.4219" fill="#84BE84" rx="3" ry="3" style="stroke: #038048; stroke-width: 1.0;"/><text fill="#19273C" font-family="sans-serif" font-size="16" lengthAdjust="spacingAndGlyphs" textLength="743" x="26" y="67.4688">void constructor(ModelManager,string,string,string,string,string,string[],string[],string[],string)</text><ellipse cx="17" cy="81.2656" fill="#84BE84" rx="3" ry="3" style="stroke: #038048; stroke-width: 1.0;"/><text fill="#19273C" font-family="sans-serif" font-size="16" lengthAdjust="spacingAndGlyphs" textLength="189" x="26" y="86.3125">string getFunctionText()</text><ellipse cx="17" cy="100.1094" fill="#84BE84" rx="3" ry="3" style="stroke: #038048; stroke-width: 1.0;"/><text fill="#19273C" font-family="sans-serif" font-size="16" lengthAdjust="spacingAndGlyphs" textLength="143" x="26" y="105.1563">string getThrows()</text><ellipse cx="17" cy="118.9531" fill="#84BE84" rx="3" ry="3" style="stroke: #038048; stroke-width: 1.0;"/><text fill="#19273C" font-family="sans-serif" font-size="16" lengthAdjust="spacingAndGlyphs" textLength="162" x="26" y="124">string getLanguage()</text><ellipse cx="17" cy="137.7969" fill="#84BE84" rx="3" ry="3" style="stroke: #038048; stroke-width: 1.0;"/><text fill="#19273C" font-family="sans-serif" font-size="16" lengthAdjust="spacingAndGlyphs" textLength="182" x="26" y="142.8438">string[] getDecorators()</text><ellipse cx="17" cy="156.6406" fill="#84BE84" rx="3" ry="3" style="stroke: #038048; stroke-width: 1.0;"/><text fill="#19273C" font-family="sans-serif" font-size="16" lengthAdjust="spacingAndGlyphs" textLength="153" x="26" y="161.6875">string getVisibility()</text><ellipse cx="17" cy="175.4844" fill="#84BE84" rx="3" ry="3" style="stroke: #038048; stroke-width: 1.0;"/><text fill="#19273C" font-family="sans-serif" font-size="16" lengthAdjust="spacingAndGlyphs" textLength="175" x="26" y="180.5313">string getReturnType()</text><ellipse cx="17" cy="194.3281" fill="#84BE84" rx="3" ry="3" style="stroke: #038048; stroke-width: 1.0;"/><text fill="#19273C" font-family="sans-serif" font-size="16" lengthAdjust="spacingAndGlyphs" textLength="131" x="26" y="199.375">string getName()</text><ellipse cx="17" cy="213.1719" fill="#84BE84" rx="3" ry="3" style="stroke: #038048; stroke-width: 1.0;"/><text fill="#19273C" font-family="sans-serif" font-size="16" lengthAdjust="spacingAndGlyphs" textLength="313" x="26" y="218.2188">string getTransactionDeclarationName()</text><ellipse cx="17" cy="232.0156" fill="#84BE84" rx="3" ry="3" style="stroke: #038048; stroke-width: 1.0;"/><text fill="#19273C" font-family="sans-serif" font-size="16" lengthAdjust="spacingAndGlyphs" textLength="229" x="26" y="237.0625">string[] getParameterNames()</text><ellipse cx="17" cy="250.8594" fill="#84BE84" rx="3" ry="3" style="stroke: #038048; stroke-width: 1.0;"/><text fill="#19273C" font-family="sans-serif" font-size="16" lengthAdjust="spacingAndGlyphs" textLength="221" x="26" y="255.9063">string[] getParameterTypes()</text></g></svg>