<?xml version="1.0" encoding="UTF-8" standalone="no"?><svg xmlns="http://www.w3.org/2000/svg" xmlns:xlink="http://www.w3.org/1999/xlink" contentScriptType="application/ecmascript" contentStyleType="text/css" height="297px" preserveAspectRatio="none" style="width:594px;height:297px;" version="1.1" viewBox="0 0 594 297" width="594px" zoomAndPan="magnify"><defs/><g><!--class Historian--><rect fill="#F8FAFA" height="179.9063" rx="1" ry="1" style="stroke: #E3ECEC; stroke-width: 1.5;" width="587" x="6" y="8"/><ellipse cx="259.25" cy="24" fill="#FFFFFF" rx="11" ry="11" style="stroke: #E3ECEC; stroke-width: 1.0;"/><path d="M261.6953,29.6641 Q261.1484,29.9453 260.5469,30.0859 Q259.9453,30.2266 259.2813,30.2266 Q256.9219,30.2266 255.6797,28.6719 Q254.4375,27.1172 254.4375,24.1797 Q254.4375,21.2344 255.6797,19.6797 Q256.9219,18.125 259.2813,18.125 Q259.9453,18.125 260.5547,18.2656 Q261.1641,18.4063 261.6953,18.6875 L261.6953,21.25 Q261.1016,20.7031 260.543,20.4492 Q259.9844,20.1953 259.3906,20.1953 Q258.125,20.1953 257.4805,21.1992 Q256.8359,22.2031 256.8359,24.1797 Q256.8359,26.1484 257.4805,27.1523 Q258.125,28.1563 259.3906,28.1563 Q259.9844,28.1563 260.543,27.9023 Q261.1016,27.6484 261.6953,27.1016 Z "/><text fill="#19273C" font-family="sans-serif" font-size="16" lengthAdjust="spacingAndGlyphs" textLength="72" x="279.75" y="30.0469">Historian</text><line style="stroke: #E3ECEC; stroke-width: 1.5;" x1="7" x2="592" y1="40" y2="40"/><line style="stroke: #E3ECEC; stroke-width: 1.5;" x1="7" x2="592" y1="48" y2="48"/><ellipse cx="17" cy="62.4219" fill="#84BE84" rx="3" ry="3" style="stroke: #038048; stroke-width: 1.0;"/><text fill="#19273C" font-family="sans-serif" font-size="16" lengthAdjust="spacingAndGlyphs" textLength="561" x="26" y="67.4688">Promise getHistorian(SecurityContext,ModelManager,Factory,Serializer)</text><ellipse cx="17" cy="81.2656" fill="#84BE84" rx="3" ry="3" style="stroke: #038048; stroke-width: 1.0;"/><text fill="#19273C" font-family="sans-serif" font-size="16" lengthAdjust="spacingAndGlyphs" textLength="199" x="26" y="86.3125">void add(Resource,string)</text><ellipse cx="17" cy="100.1094" fill="#84BE84" rx="3" ry="3" style="stroke: #038048; stroke-width: 1.0;"/><text fill="#19273C" font-family="sans-serif" font-size="16" lengthAdjust="spacingAndGlyphs" textLength="179" x="26" y="105.1563">void addAll(Resource[])</text><ellipse cx="17" cy="118.9531" fill="#84BE84" rx="3" ry="3" style="stroke: #038048; stroke-width: 1.0;"/><text fill="#19273C" font-family="sans-serif" font-size="16" lengthAdjust="spacingAndGlyphs" textLength="173" x="26" y="124">void update(Resource)</text><ellipse cx="17" cy="137.7969" fill="#84BE84" rx="3" ry="3" style="stroke: #038048; stroke-width: 1.0;"/><text fill="#19273C" font-family="sans-serif" font-size="16" lengthAdjust="spacingAndGlyphs" textLength="204" x="26" y="142.8438">void updateAll(Resource[])</text><ellipse cx="17" cy="156.6406" fill="#84BE84" rx="3" ry="3" style="stroke: #038048; stroke-width: 1.0;"/><text fill="#19273C" font-family="sans-serif" font-size="16" lengthAdjust="spacingAndGlyphs" textLength="106" x="26" y="161.6875">void remove()</text><ellipse cx="17" cy="175.4844" fill="#84BE84" rx="3" ry="3" style="stroke: #038048; stroke-width: 1.0;"/><text fill="#19273C" font-family="sans-serif" font-size="16" lengthAdjust="spacingAndGlyphs" textLength="127" x="26" y="180.5313">void removeAll()</text><!--class Registry--><rect fill="#F8FAFA" height="48" rx="1" ry="1" style="stroke: #E3ECEC; stroke-width: 1.5;" width="95" x="252" y="248"/><ellipse cx="267" cy="264" fill="#FFFFFF" rx="11" ry="11" style="stroke: #E3ECEC; stroke-width: 1.0;"/><path d="M269.4453,269.6641 Q268.8984,269.9453 268.2969,270.0859 Q267.6953,270.2266 267.0313,270.2266 Q264.6719,270.2266 263.4297,268.6719 Q262.1875,267.1172 262.1875,264.1797 Q262.1875,261.2344 263.4297,259.6797 Q264.6719,258.125 267.0313,258.125 Q267.6953,258.125 268.3047,258.2656 Q268.9141,258.4063 269.4453,258.6875 L269.4453,261.25 Q268.8516,260.7031 268.293,260.4492 Q267.7344,260.1953 267.1406,260.1953 Q265.875,260.1953 265.2305,261.1992 Q264.5859,262.2031 264.5859,264.1797 Q264.5859,266.1484 265.2305,267.1523 Q265.875,268.1563 267.1406,268.1563 Q267.7344,268.1563 268.293,267.9023 Q268.8516,267.6484 269.4453,267.1016 Z "/><text fill="#19273C" font-family="sans-serif" font-size="16" lengthAdjust="spacingAndGlyphs" textLength="63" x="281" y="270.0469">Registry</text><line style="stroke: #E3ECEC; stroke-width: 1.5;" x1="253" x2="346" y1="280" y2="280"/><line style="stroke: #E3ECEC; stroke-width: 1.5;" x1="253" x2="346" y1="288" y2="288"/><path d="M299.5,188.058 C299.5,201.8442 299.5,215.5278 299.5,227.7219 " fill="none" style="stroke: #3C6DF0; stroke-width: 1.0;"/><polygon fill="none" points="306.5001,227.7632,299.5,247.7632,292.5001,227.7631,306.5001,227.7632" style="stroke: #3C6DF0; stroke-width: 1.0;"/></g></svg>