<?xml version="1.0" encoding="UTF-8" standalone="no"?><svg xmlns="http://www.w3.org/2000/svg" xmlns:xlink="http://www.w3.org/1999/xlink" contentScriptType="application/ecmascript" contentStyleType="text/css" height="281px" preserveAspectRatio="none" style="width:351px;height:281px;" version="1.1" viewBox="0 0 351 281" width="351px" zoomAndPan="magnify"><defs/><g><!--class IdCard--><rect fill="#F8FAFA" height="271.5" rx="1" ry="1" style="stroke: #E3ECEC; stroke-width: 1.5;" width="344" x="6" y="8.5"/><ellipse cx="147.75" cy="24.5" fill="#FFFFFF" rx="11" ry="11" style="stroke: #E3ECEC; stroke-width: 1.0;"/><path d="M150.2031,30.1563 Q149.6563,30.4375 149.0547,30.5859 Q148.4531,30.7344 147.7813,30.7344 Q145.4219,30.7344 144.1797,29.1719 Q142.9375,27.6094 142.9375,24.6719 Q142.9375,21.7344 144.1797,20.1797 Q145.4219,18.625 147.7813,18.625 Q148.4531,18.625 149.0625,18.7656 Q149.6719,18.9063 150.2031,19.1875 L150.2031,21.75 Q149.6094,21.2031 149.0469,20.9453 Q148.4844,20.6875 147.8906,20.6875 Q146.625,20.6875 145.9844,21.6953 Q145.3438,22.7031 145.3438,24.6719 Q145.3438,26.6406 145.9844,27.6484 Q146.625,28.6563 147.8906,28.6563 Q148.4844,28.6563 149.0469,28.3984 Q149.6094,28.1406 150.2031,27.5938 L150.2031,30.1563 Z "/><text fill="#19273C" font-family="sans-serif" font-size="16" lengthAdjust="spacingAndGlyphs" textLength="52" x="168.25" y="30.0391">IdCard</text><line style="stroke: #E3ECEC; stroke-width: 1.5;" x1="7" x2="349" y1="40.5" y2="40.5"/><line style="stroke: #E3ECEC; stroke-width: 1.5;" x1="7" x2="349" y1="48.5" y2="48.5"/><ellipse cx="17" cy="62.8125" fill="#84BE84" rx="3" ry="3" style="stroke: #038048; stroke-width: 1.0;"/><text fill="#19273C" font-family="sans-serif" font-size="16" lengthAdjust="spacingAndGlyphs" textLength="170" x="26" y="67.3516">String getUserName()</text><ellipse cx="17" cy="81.4375" fill="#84BE84" rx="3" ry="3" style="stroke: #038048; stroke-width: 1.0;"/><text fill="#19273C" font-family="sans-serif" font-size="16" lengthAdjust="spacingAndGlyphs" textLength="176" x="26" y="85.9766">String getDescription()</text><ellipse cx="17" cy="100.0625" fill="#84BE84" rx="3" ry="3" style="stroke: #038048; stroke-width: 1.0;"/><text fill="#19273C" font-family="sans-serif" font-size="16" lengthAdjust="spacingAndGlyphs" textLength="269" x="26" y="104.6016">String getBusinessNetworkName()</text><ellipse cx="17" cy="118.6875" fill="#84BE84" rx="3" ry="3" style="stroke: #038048; stroke-width: 1.0;"/><text fill="#19273C" font-family="sans-serif" font-size="16" lengthAdjust="spacingAndGlyphs" textLength="228" x="26" y="123.2266">Object getConnectionProfile()</text><ellipse cx="17" cy="137.3125" fill="#84BE84" rx="3" ry="3" style="stroke: #038048; stroke-width: 1.0;"/><text fill="#19273C" font-family="sans-serif" font-size="16" lengthAdjust="spacingAndGlyphs" textLength="178" x="26" y="141.8516">Object getCredentials()</text><ellipse cx="17" cy="155.9375" fill="#84BE84" rx="3" ry="3" style="stroke: #038048; stroke-width: 1.0;"/><text fill="#19273C" font-family="sans-serif" font-size="16" lengthAdjust="spacingAndGlyphs" textLength="209" x="26" y="160.4766">void setCredentials(Object)</text><ellipse cx="17" cy="174.5625" fill="#84BE84" rx="3" ry="3" style="stroke: #038048; stroke-width: 1.0;"/><text fill="#19273C" font-family="sans-serif" font-size="16" lengthAdjust="spacingAndGlyphs" textLength="261" x="26" y="179.1016">Object getEnrollmentCredentials()</text><ellipse cx="17" cy="193.1875" fill="#84BE84" rx="3" ry="3" style="stroke: #038048; stroke-width: 1.0;"/><text fill="#19273C" font-family="sans-serif" font-size="16" lengthAdjust="spacingAndGlyphs" textLength="142" x="26" y="197.7266">String[] getRoles()</text><ellipse cx="17" cy="211.8125" fill="#84BE84" rx="3" ry="3" style="stroke: #038048; stroke-width: 1.0;"/><text fill="#19273C" font-family="sans-serif" font-size="16" lengthAdjust="spacingAndGlyphs" textLength="176" x="26" y="216.3516">Promise fromArchive()</text><ellipse cx="17" cy="230.4375" fill="#84BE84" rx="3" ry="3" style="stroke: #038048; stroke-width: 1.0;"/><text fill="#19273C" font-family="sans-serif" font-size="16" lengthAdjust="spacingAndGlyphs" textLength="255" x="26" y="234.9766">Promise toArchive(Object,String)</text><ellipse cx="17" cy="249.0625" fill="#84BE84" rx="3" ry="3" style="stroke: #038048; stroke-width: 1.0;"/><text fill="#19273C" font-family="sans-serif" font-size="16" lengthAdjust="spacingAndGlyphs" textLength="318" x="26" y="253.6016">Promise fromDirectory(String,undefined)</text><ellipse cx="17" cy="267.6875" fill="#84BE84" rx="3" ry="3" style="stroke: #038048; stroke-width: 1.0;"/><text fill="#19273C" font-family="sans-serif" font-size="16" lengthAdjust="spacingAndGlyphs" textLength="296" x="26" y="272.2266">Promise toDirectory(String,undefined)</text></g></svg>