<?xml version="1.0" encoding="UTF-8" standalone="no"?><svg xmlns="http://www.w3.org/2000/svg" xmlns:xlink="http://www.w3.org/1999/xlink" contentScriptType="application/ecmascript" contentStyleType="text/css" height="299px" preserveAspectRatio="none" style="width:351px;height:299px;" version="1.1" viewBox="0 0 351 299" width="351px" zoomAndPan="magnify"><defs/><g><!--class IdCard--><rect fill="#F8FAFA" height="290.125" rx="1" ry="1" style="stroke: #E3ECEC; stroke-width: 1.5;" width="344" x="6" y="8"/><ellipse cx="147.75" cy="24" fill="#FFFFFF" rx="11" ry="11" style="stroke: #E3ECEC; stroke-width: 1.0;"/><path d="M150.2031,29.6563 Q149.6563,29.9375 149.0547,30.0859 Q148.4531,30.2344 147.7813,30.2344 Q145.4219,30.2344 144.1797,28.6719 Q142.9375,27.1094 142.9375,24.1719 Q142.9375,21.2344 144.1797,19.6797 Q145.4219,18.125 147.7813,18.125 Q148.4531,18.125 149.0625,18.2656 Q149.6719,18.4063 150.2031,18.6875 L150.2031,21.25 Q149.6094,20.7031 149.0469,20.4453 Q148.4844,20.1875 147.8906,20.1875 Q146.625,20.1875 145.9844,21.1953 Q145.3438,22.2031 145.3438,24.1719 Q145.3438,26.1406 145.9844,27.1484 Q146.625,28.1563 147.8906,28.1563 Q148.4844,28.1563 149.0469,27.8984 Q149.6094,27.6406 150.2031,27.0938 L150.2031,29.6563 Z "/><text fill="#19273C" font-family="sans-serif" font-size="16" lengthAdjust="spacingAndGlyphs" textLength="52" x="168.25" y="29.5391">IdCard</text><line style="stroke: #E3ECEC; stroke-width: 1.5;" x1="7" x2="349" y1="40" y2="40"/><line style="stroke: #E3ECEC; stroke-width: 1.5;" x1="7" x2="349" y1="48" y2="48"/><ellipse cx="17" cy="62.3125" fill="#84BE84" rx="3" ry="3" style="stroke: #038048; stroke-width: 1.0;"/><text fill="#19273C" font-family="sans-serif" font-size="16" lengthAdjust="spacingAndGlyphs" textLength="247" x="26" y="66.8516">void constructor(Object,Object)</text><ellipse cx="17" cy="80.9375" fill="#84BE84" rx="3" ry="3" style="stroke: #038048; stroke-width: 1.0;"/><text fill="#19273C" font-family="sans-serif" font-size="16" lengthAdjust="spacingAndGlyphs" textLength="170" x="26" y="85.4766">String getUserName()</text><ellipse cx="17" cy="99.5625" fill="#84BE84" rx="3" ry="3" style="stroke: #038048; stroke-width: 1.0;"/><text fill="#19273C" font-family="sans-serif" font-size="16" lengthAdjust="spacingAndGlyphs" textLength="176" x="26" y="104.1016">String getDescription()</text><ellipse cx="17" cy="118.1875" fill="#84BE84" rx="3" ry="3" style="stroke: #038048; stroke-width: 1.0;"/><text fill="#19273C" font-family="sans-serif" font-size="16" lengthAdjust="spacingAndGlyphs" textLength="269" x="26" y="122.7266">String getBusinessNetworkName()</text><ellipse cx="17" cy="136.8125" fill="#84BE84" rx="3" ry="3" style="stroke: #038048; stroke-width: 1.0;"/><text fill="#19273C" font-family="sans-serif" font-size="16" lengthAdjust="spacingAndGlyphs" textLength="228" x="26" y="141.3516">Object getConnectionProfile()</text><ellipse cx="17" cy="155.4375" fill="#84BE84" rx="3" ry="3" style="stroke: #038048; stroke-width: 1.0;"/><text fill="#19273C" font-family="sans-serif" font-size="16" lengthAdjust="spacingAndGlyphs" textLength="178" x="26" y="159.9766">Object getCredentials()</text><ellipse cx="17" cy="174.0625" fill="#84BE84" rx="3" ry="3" style="stroke: #038048; stroke-width: 1.0;"/><text fill="#19273C" font-family="sans-serif" font-size="16" lengthAdjust="spacingAndGlyphs" textLength="209" x="26" y="178.6016">void setCredentials(Object)</text><ellipse cx="17" cy="192.6875" fill="#84BE84" rx="3" ry="3" style="stroke: #038048; stroke-width: 1.0;"/><text fill="#19273C" font-family="sans-serif" font-size="16" lengthAdjust="spacingAndGlyphs" textLength="261" x="26" y="197.2266">Object getEnrollmentCredentials()</text><ellipse cx="17" cy="211.3125" fill="#84BE84" rx="3" ry="3" style="stroke: #038048; stroke-width: 1.0;"/><text fill="#19273C" font-family="sans-serif" font-size="16" lengthAdjust="spacingAndGlyphs" textLength="142" x="26" y="215.8516">String[] getRoles()</text><ellipse cx="17" cy="229.9375" fill="#84BE84" rx="3" ry="3" style="stroke: #038048; stroke-width: 1.0;"/><text fill="#19273C" font-family="sans-serif" font-size="16" lengthAdjust="spacingAndGlyphs" textLength="176" x="26" y="234.4766">Promise fromArchive()</text><ellipse cx="17" cy="248.5625" fill="#84BE84" rx="3" ry="3" style="stroke: #038048; stroke-width: 1.0;"/><text fill="#19273C" font-family="sans-serif" font-size="16" lengthAdjust="spacingAndGlyphs" textLength="255" x="26" y="253.1016">Promise toArchive(Object,String)</text><ellipse cx="17" cy="267.1875" fill="#84BE84" rx="3" ry="3" style="stroke: #038048; stroke-width: 1.0;"/><text fill="#19273C" font-family="sans-serif" font-size="16" lengthAdjust="spacingAndGlyphs" textLength="318" x="26" y="271.7266">Promise fromDirectory(String,undefined)</text><ellipse cx="17" cy="285.8125" fill="#84BE84" rx="3" ry="3" style="stroke: #038048; stroke-width: 1.0;"/><text fill="#19273C" font-family="sans-serif" font-size="16" lengthAdjust="spacingAndGlyphs" textLength="296" x="26" y="290.3516">Promise toDirectory(String,undefined)</text></g></svg>