<?xml version="1.0" encoding="UTF-8" standalone="no"?><svg xmlns="http://www.w3.org/2000/svg" xmlns:xlink="http://www.w3.org/1999/xlink" contentScriptType="application/ecmascript" contentStyleType="text/css" height="185px" preserveAspectRatio="none" style="width:640px;height:185px;" version="1.1" viewBox="0 0 640 185" width="640px" zoomAndPan="magnify"><defs/><g><!--class IdentityRegistry--><rect fill="#F8FAFA" height="66.625" rx="1" ry="1" style="stroke: #E3ECEC; stroke-width: 1.5;" width="633" x="6" y="8.5"/><ellipse cx="257.25" cy="24.5" fill="#FFFFFF" rx="11" ry="11" style="stroke: #E3ECEC; stroke-width: 1.0;"/><path d="M259.7031,30.1563 Q259.1563,30.4375 258.5547,30.5859 Q257.9531,30.7344 257.2813,30.7344 Q254.9219,30.7344 253.6797,29.1719 Q252.4375,27.6094 252.4375,24.6719 Q252.4375,21.7344 253.6797,20.1797 Q254.9219,18.625 257.2813,18.625 Q257.9531,18.625 258.5625,18.7656 Q259.1719,18.9063 259.7031,19.1875 L259.7031,21.75 Q259.1094,21.2031 258.5469,20.9453 Q257.9844,20.6875 257.3906,20.6875 Q256.125,20.6875 255.4844,21.6953 Q254.8438,22.7031 254.8438,24.6719 Q254.8438,26.6406 255.4844,27.6484 Q256.125,28.6563 257.3906,28.6563 Q257.9844,28.6563 258.5469,28.3984 Q259.1094,28.1406 259.7031,27.5938 L259.7031,30.1563 Z "/><text fill="#19273C" font-family="sans-serif" font-size="16" lengthAdjust="spacingAndGlyphs" textLength="122" x="277.75" y="30.0391">IdentityRegistry</text><line style="stroke: #E3ECEC; stroke-width: 1.5;" x1="7" x2="638" y1="40.5" y2="40.5"/><line style="stroke: #E3ECEC; stroke-width: 1.5;" x1="7" x2="638" y1="48.5" y2="48.5"/><ellipse cx="17" cy="62.8125" fill="#84BE84" rx="3" ry="3" style="stroke: #038048; stroke-width: 1.0;"/><text fill="#19273C" font-family="sans-serif" font-size="16" lengthAdjust="spacingAndGlyphs" textLength="607" x="26" y="67.3516">Promise getIdentityRegistry(SecurityContext,ModelManager,Factory,Serializer)</text><!--class Registry--><rect fill="#F8FAFA" height="48" rx="1" ry="1" style="stroke: #E3ECEC; stroke-width: 1.5;" width="96" x="274.25" y="136"/><ellipse cx="289.25" cy="152" fill="#FFFFFF" rx="11" ry="11" style="stroke: #E3ECEC; stroke-width: 1.0;"/><path d="M291.7031,157.6563 Q291.1563,157.9375 290.5547,158.0859 Q289.9531,158.2344 289.2813,158.2344 Q286.9219,158.2344 285.6797,156.6719 Q284.4375,155.1094 284.4375,152.1719 Q284.4375,149.2344 285.6797,147.6797 Q286.9219,146.125 289.2813,146.125 Q289.9531,146.125 290.5625,146.2656 Q291.1719,146.4063 291.7031,146.6875 L291.7031,149.25 Q291.1094,148.7031 290.5469,148.4453 Q289.9844,148.1875 289.3906,148.1875 Q288.125,148.1875 287.4844,149.1953 Q286.8438,150.2031 286.8438,152.1719 Q286.8438,154.1406 287.4844,155.1484 Q288.125,156.1563 289.3906,156.1563 Q289.9844,156.1563 290.5469,155.8984 Q291.1094,155.6406 291.7031,155.0938 L291.7031,157.6563 Z "/><text fill="#19273C" font-family="sans-serif" font-size="16" lengthAdjust="spacingAndGlyphs" textLength="64" x="303.25" y="157.5391">Registry</text><line style="stroke: #E3ECEC; stroke-width: 1.5;" x1="275.25" x2="369.25" y1="168" y2="168"/><line style="stroke: #E3ECEC; stroke-width: 1.5;" x1="275.25" x2="369.25" y1="176" y2="176"/><path d="M322.25,75.621 C322.25,88.0487 322.25,102.4125 322.25,115.6795 " fill="none" style="stroke: #3C6DF0; stroke-width: 1.0;"/><polygon fill="none" points="329.25,115.8078,322.25,135.8077,315.25,115.8077,329.25,115.8078" style="stroke: #3C6DF0; stroke-width: 1.0;"/></g></svg>