<?xml version="1.0" encoding="UTF-8" standalone="no"?><svg xmlns="http://www.w3.org/2000/svg" xmlns:xlink="http://www.w3.org/1999/xlink" contentScriptType="application/ecmascript" contentStyleType="text/css" height="112px" preserveAspectRatio="none" style="width:377px;height:112px;" version="1.1" viewBox="0 0 377 112" width="377px" zoomAndPan="magnify"><defs/><g><!--class Introspector--><rect fill="#F8FAFA" height="103.875" rx="1" ry="1" style="stroke: #E3ECEC; stroke-width: 1.5;" width="370" x="6" y="8"/><ellipse cx="137.75" cy="24" fill="#FFFFFF" rx="11" ry="11" style="stroke: #E3ECEC; stroke-width: 1.0;"/><path d="M140.2031,29.6563 Q139.6563,29.9375 139.0547,30.0859 Q138.4531,30.2344 137.7813,30.2344 Q135.4219,30.2344 134.1797,28.6719 Q132.9375,27.1094 132.9375,24.1719 Q132.9375,21.2344 134.1797,19.6797 Q135.4219,18.125 137.7813,18.125 Q138.4531,18.125 139.0625,18.2656 Q139.6719,18.4063 140.2031,18.6875 L140.2031,21.25 Q139.6094,20.7031 139.0469,20.4453 Q138.4844,20.1875 137.8906,20.1875 Q136.625,20.1875 135.9844,21.1953 Q135.3438,22.2031 135.3438,24.1719 Q135.3438,26.1406 135.9844,27.1484 Q136.625,28.1563 137.8906,28.1563 Q138.4844,28.1563 139.0469,27.8984 Q139.6094,27.6406 140.2031,27.0938 L140.2031,29.6563 Z "/><text fill="#19273C" font-family="sans-serif" font-size="16" lengthAdjust="spacingAndGlyphs" textLength="98" x="158.25" y="29.5391">Introspector</text><line style="stroke: #E3ECEC; stroke-width: 1.5;" x1="7" x2="375" y1="40" y2="40"/><line style="stroke: #E3ECEC; stroke-width: 1.5;" x1="7" x2="375" y1="48" y2="48"/><ellipse cx="17" cy="62.3125" fill="#84BE84" rx="3" ry="3" style="stroke: #038048; stroke-width: 1.0;"/><text fill="#19273C" font-family="sans-serif" font-size="16" lengthAdjust="spacingAndGlyphs" textLength="254" x="26" y="66.8516">void constructor(ModelManager)</text><ellipse cx="17" cy="80.9375" fill="#84BE84" rx="3" ry="3" style="stroke: #038048; stroke-width: 1.0;"/><text fill="#19273C" font-family="sans-serif" font-size="16" lengthAdjust="spacingAndGlyphs" textLength="319" x="26" y="85.4766">ClassDeclaration[] getClassDeclarations()</text><ellipse cx="17" cy="99.5625" fill="#84BE84" rx="3" ry="3" style="stroke: #038048; stroke-width: 1.0;"/><text fill="#19273C" font-family="sans-serif" font-size="16" lengthAdjust="spacingAndGlyphs" textLength="344" x="26" y="104.1016">ClassDeclaration getClassDeclaration(String)</text></g></svg>