<?xml version="1.0" encoding="UTF-8" standalone="no"?><svg xmlns="http://www.w3.org/2000/svg" xmlns:xlink="http://www.w3.org/1999/xlink" contentScriptType="application/ecmascript" contentStyleType="text/css" height="203px" preserveAspectRatio="none" style="width:557px;height:203px;" version="1.1" viewBox="0 0 557 203" width="557px" zoomAndPan="magnify"><defs/><g><!--class InvalidQueryException--><rect fill="#F8FAFA" height="85.25" rx="1" ry="1" style="stroke: #E3ECEC; stroke-width: 1.5;" width="550" x="6" y="8.5"/><ellipse cx="189.75" cy="24.5" fill="#FFFFFF" rx="11" ry="11" style="stroke: #E3ECEC; stroke-width: 1.0;"/><path d="M192.2031,30.1563 Q191.6563,30.4375 191.0547,30.5859 Q190.4531,30.7344 189.7813,30.7344 Q187.4219,30.7344 186.1797,29.1719 Q184.9375,27.6094 184.9375,24.6719 Q184.9375,21.7344 186.1797,20.1797 Q187.4219,18.625 189.7813,18.625 Q190.4531,18.625 191.0625,18.7656 Q191.6719,18.9063 192.2031,19.1875 L192.2031,21.75 Q191.6094,21.2031 191.0469,20.9453 Q190.4844,20.6875 189.8906,20.6875 Q188.625,20.6875 187.9844,21.6953 Q187.3438,22.7031 187.3438,24.6719 Q187.3438,26.6406 187.9844,27.6484 Q188.625,28.6563 189.8906,28.6563 Q190.4844,28.6563 191.0469,28.3984 Q191.6094,28.1406 192.2031,27.5938 L192.2031,30.1563 Z "/><text fill="#19273C" font-family="sans-serif" font-size="16" lengthAdjust="spacingAndGlyphs" textLength="174" x="210.25" y="30.0391">InvalidQueryException</text><line style="stroke: #E3ECEC; stroke-width: 1.5;" x1="7" x2="555" y1="40.5" y2="40.5"/><line style="stroke: #E3ECEC; stroke-width: 1.5;" x1="7" x2="555" y1="48.5" y2="48.5"/><ellipse cx="17" cy="62.8125" fill="#84BE84" rx="3" ry="3" style="stroke: #038048; stroke-width: 1.0;"/><text fill="#19273C" font-family="sans-serif" font-size="16" lengthAdjust="spacingAndGlyphs" textLength="524" x="26" y="67.3516">void constructor(String,QueryFile,Object,String,String,String,String)</text><ellipse cx="17" cy="81.4375" fill="#84BE84" rx="3" ry="3" style="stroke: #038048; stroke-width: 1.0;"/><text fill="#19273C" font-family="sans-serif" font-size="16" lengthAdjust="spacingAndGlyphs" textLength="186" x="26" y="85.9766">QueryFile getQueryFile()</text><!--class BaseFileException--><rect fill="#F8FAFA" height="48" rx="1" ry="1" style="stroke: #E3ECEC; stroke-width: 1.5;" width="171" x="195.75" y="154"/><ellipse cx="210.75" cy="170" fill="#FFFFFF" rx="11" ry="11" style="stroke: #E3ECEC; stroke-width: 1.0;"/><path d="M213.2031,175.6563 Q212.6563,175.9375 212.0547,176.0859 Q211.4531,176.2344 210.7813,176.2344 Q208.4219,176.2344 207.1797,174.6719 Q205.9375,173.1094 205.9375,170.1719 Q205.9375,167.2344 207.1797,165.6797 Q208.4219,164.125 210.7813,164.125 Q211.4531,164.125 212.0625,164.2656 Q212.6719,164.4063 213.2031,164.6875 L213.2031,167.25 Q212.6094,166.7031 212.0469,166.4453 Q211.4844,166.1875 210.8906,166.1875 Q209.625,166.1875 208.9844,167.1953 Q208.3438,168.2031 208.3438,170.1719 Q208.3438,172.1406 208.9844,173.1484 Q209.625,174.1563 210.8906,174.1563 Q211.4844,174.1563 212.0469,173.8984 Q212.6094,173.6406 213.2031,173.0938 L213.2031,175.6563 Z "/><text fill="#19273C" font-family="sans-serif" font-size="16" lengthAdjust="spacingAndGlyphs" textLength="139" x="224.75" y="175.5391">BaseFileException</text><line style="stroke: #E3ECEC; stroke-width: 1.5;" x1="196.75" x2="365.75" y1="186" y2="186"/><line style="stroke: #E3ECEC; stroke-width: 1.5;" x1="196.75" x2="365.75" y1="194" y2="194"/><path d="M281,93.623 C281,106.4535 281,120.61 281,133.5593 " fill="none" style="stroke: #3C6DF0; stroke-width: 1.0;"/><polygon fill="none" points="288,133.7655,281,153.7654,274,133.7654,288,133.7655" style="stroke: #3C6DF0; stroke-width: 1.0;"/></g></svg>