<?xml version="1.0" encoding="UTF-8" standalone="no"?><svg xmlns="http://www.w3.org/2000/svg" xmlns:xlink="http://www.w3.org/1999/xlink" contentScriptType="application/ecmascript" contentStyleType="text/css" height="185px" preserveAspectRatio="none" style="width:220px;height:185px;" version="1.1" viewBox="0 0 220 185" width="220px" zoomAndPan="magnify"><defs/><g><!--class ParseException--><rect fill="#F8FAFA" height="66.625" rx="1" ry="1" style="stroke: #E3ECEC; stroke-width: 1.5;" width="213" x="6" y="8.5"/><ellipse cx="48" cy="24.5" fill="#FFFFFF" rx="11" ry="11" style="stroke: #E3ECEC; stroke-width: 1.0;"/><path d="M50.4531,30.1563 Q49.9063,30.4375 49.3047,30.5859 Q48.7031,30.7344 48.0313,30.7344 Q45.6719,30.7344 44.4297,29.1719 Q43.1875,27.6094 43.1875,24.6719 Q43.1875,21.7344 44.4297,20.1797 Q45.6719,18.625 48.0313,18.625 Q48.7031,18.625 49.3125,18.7656 Q49.9219,18.9063 50.4531,19.1875 L50.4531,21.75 Q49.8594,21.2031 49.2969,20.9453 Q48.7344,20.6875 48.1406,20.6875 Q46.875,20.6875 46.2344,21.6953 Q45.5938,22.7031 45.5938,24.6719 Q45.5938,26.6406 46.2344,27.6484 Q46.875,28.6563 48.1406,28.6563 Q48.7344,28.6563 49.2969,28.3984 Q49.8594,28.1406 50.4531,27.5938 L50.4531,30.1563 Z "/><text fill="#19273C" font-family="sans-serif" font-size="16" lengthAdjust="spacingAndGlyphs" textLength="121" x="68" y="30.0391">ParseException</text><line style="stroke: #E3ECEC; stroke-width: 1.5;" x1="7" x2="218" y1="40.5" y2="40.5"/><line style="stroke: #E3ECEC; stroke-width: 1.5;" x1="7" x2="218" y1="48.5" y2="48.5"/><ellipse cx="17" cy="62.8125" fill="#84BE84" rx="3" ry="3" style="stroke: #038048; stroke-width: 1.0;"/><text fill="#19273C" font-family="sans-serif" font-size="16" lengthAdjust="spacingAndGlyphs" textLength="187" x="26" y="67.3516">void constructor(string)</text><!--class BaseException--><rect fill="#F8FAFA" height="48" rx="1" ry="1" style="stroke: #E3ECEC; stroke-width: 1.5;" width="147" x="39" y="136"/><ellipse cx="54" cy="152" fill="#FFFFFF" rx="11" ry="11" style="stroke: #E3ECEC; stroke-width: 1.0;"/><path d="M56.4531,157.6563 Q55.9063,157.9375 55.3047,158.0859 Q54.7031,158.2344 54.0313,158.2344 Q51.6719,158.2344 50.4297,156.6719 Q49.1875,155.1094 49.1875,152.1719 Q49.1875,149.2344 50.4297,147.6797 Q51.6719,146.125 54.0313,146.125 Q54.7031,146.125 55.3125,146.2656 Q55.9219,146.4063 56.4531,146.6875 L56.4531,149.25 Q55.8594,148.7031 55.2969,148.4453 Q54.7344,148.1875 54.1406,148.1875 Q52.875,148.1875 52.2344,149.1953 Q51.5938,150.2031 51.5938,152.1719 Q51.5938,154.1406 52.2344,155.1484 Q52.875,156.1563 54.1406,156.1563 Q54.7344,156.1563 55.2969,155.8984 Q55.8594,155.6406 56.4531,155.0938 L56.4531,157.6563 Z "/><text fill="#19273C" font-family="sans-serif" font-size="16" lengthAdjust="spacingAndGlyphs" textLength="115" x="68" y="157.5391">BaseException</text><line style="stroke: #E3ECEC; stroke-width: 1.5;" x1="40" x2="185" y1="168" y2="168"/><line style="stroke: #E3ECEC; stroke-width: 1.5;" x1="40" x2="185" y1="176" y2="176"/><path d="M112.25,75.621 C112.25,88.0487 112.25,102.4125 112.25,115.6795 " fill="none" style="stroke: #3C6DF0; stroke-width: 1.0;"/><polygon fill="none" points="119.25,115.8078,112.25,135.8077,105.2501,115.8077,119.25,115.8078" style="stroke: #3C6DF0; stroke-width: 1.0;"/></g></svg>