<?xml version="1.0" encoding="UTF-8" standalone="no"?><svg xmlns="http://www.w3.org/2000/svg" xmlns:xlink="http://www.w3.org/1999/xlink" contentScriptType="application/ecmascript" contentStyleType="text/css" height="259px" preserveAspectRatio="none" style="width:1001px;height:259px;" version="1.1" viewBox="0 0 1001 259" width="1001px" zoomAndPan="magnify"><defs/><g><!--class ParticipantRegistry--><rect fill="#F8FAFA" height="142.2188" rx="1" ry="1" style="stroke: #E3ECEC; stroke-width: 1.5;" width="994" x="6" y="8"/><ellipse cx="425.25" cy="24" fill="#FFFFFF" rx="11" ry="11" style="stroke: #E3ECEC; stroke-width: 1.0;"/><path d="M427.6953,29.6641 Q427.1484,29.9453 426.5469,30.0859 Q425.9453,30.2266 425.2813,30.2266 Q422.9219,30.2266 421.6797,28.6719 Q420.4375,27.1172 420.4375,24.1797 Q420.4375,21.2344 421.6797,19.6797 Q422.9219,18.125 425.2813,18.125 Q425.9453,18.125 426.5547,18.2656 Q427.1641,18.4063 427.6953,18.6875 L427.6953,21.25 Q427.1016,20.7031 426.543,20.4492 Q425.9844,20.1953 425.3906,20.1953 Q424.125,20.1953 423.4805,21.1992 Q422.8359,22.2031 422.8359,24.1797 Q422.8359,26.1484 423.4805,27.1523 Q424.125,28.1563 425.3906,28.1563 Q425.9844,28.1563 426.543,27.9023 Q427.1016,27.6484 427.6953,27.1016 Z "/><text fill="#19273C" font-family="sans-serif" font-size="16" lengthAdjust="spacingAndGlyphs" textLength="147" x="445.75" y="30.0469">ParticipantRegistry</text><line style="stroke: #E3ECEC; stroke-width: 1.5;" x1="7" x2="999" y1="40" y2="40"/><line style="stroke: #E3ECEC; stroke-width: 1.5;" x1="7" x2="999" y1="48" y2="48"/><polygon fill="#4177AF" points="17,58.4219,13,64.4219,21,64.4219" style="stroke: #1963A0; stroke-width: 1.0;"/><text fill="#19273C" font-family="sans-serif" font-size="16" lengthAdjust="spacingAndGlyphs" textLength="964" x="26" y="67.4688">Promise getAllParticipantRegistries(SecurityContext,ModelManager,Factory,Serializer,BusinessNetworkConnection,Boolean)</text><polygon fill="#4177AF" points="17,77.2656,13,83.2656,21,83.2656" style="stroke: #1963A0; stroke-width: 1.0;"/><text fill="#19273C" font-family="sans-serif" font-size="16" lengthAdjust="spacingAndGlyphs" textLength="913" x="26" y="86.3125">Promise getParticipantRegistry(SecurityContext,string,ModelManager,Factory,Serializer,BusinessNetworkConnection)</text><polygon fill="#4177AF" points="17,96.1094,13,102.1094,21,102.1094" style="stroke: #1963A0; stroke-width: 1.0;"/><text fill="#19273C" font-family="sans-serif" font-size="16" lengthAdjust="spacingAndGlyphs" textLength="935" x="26" y="105.1563">Promise participantRegistryExists(SecurityContext,string,ModelManager,Factory,Serializer,BusinessNetworkConnection)</text><polygon fill="#4177AF" points="17,114.9531,13,120.9531,21,120.9531" style="stroke: #1963A0; stroke-width: 1.0;"/><text fill="#19273C" font-family="sans-serif" font-size="16" lengthAdjust="spacingAndGlyphs" textLength="968" x="26" y="124">Promise addParticipantRegistry(SecurityContext,string,string,ModelManager,Factory,Serializer,BusinessNetworkConnection)</text><polygon fill="#4177AF" points="17,133.7969,13,139.7969,21,139.7969" style="stroke: #1963A0; stroke-width: 1.0;"/><text fill="#19273C" font-family="sans-serif" font-size="16" lengthAdjust="spacingAndGlyphs" textLength="852" x="26" y="142.8438">void constructor(string,string,SecurityContext,ModelManager,Factory,Serializer,BusinessNetworkConnection)</text><!--class Registry--><rect fill="#F8FAFA" height="48" rx="1" ry="1" style="stroke: #E3ECEC; stroke-width: 1.5;" width="95" x="455.5" y="210"/><ellipse cx="470.5" cy="226" fill="#FFFFFF" rx="11" ry="11" style="stroke: #E3ECEC; stroke-width: 1.0;"/><path d="M472.9453,231.6641 Q472.3984,231.9453 471.7969,232.0859 Q471.1953,232.2266 470.5313,232.2266 Q468.1719,232.2266 466.9297,230.6719 Q465.6875,229.1172 465.6875,226.1797 Q465.6875,223.2344 466.9297,221.6797 Q468.1719,220.125 470.5313,220.125 Q471.1953,220.125 471.8047,220.2656 Q472.4141,220.4063 472.9453,220.6875 L472.9453,223.25 Q472.3516,222.7031 471.793,222.4492 Q471.2344,222.1953 470.6406,222.1953 Q469.375,222.1953 468.7305,223.1992 Q468.0859,224.2031 468.0859,226.1797 Q468.0859,228.1484 468.7305,229.1523 Q469.375,230.1563 470.6406,230.1563 Q471.2344,230.1563 471.793,229.9023 Q472.3516,229.6484 472.9453,229.1016 Z "/><text fill="#19273C" font-family="sans-serif" font-size="16" lengthAdjust="spacingAndGlyphs" textLength="63" x="484.5" y="232.0469">Registry</text><line style="stroke: #E3ECEC; stroke-width: 1.5;" x1="456.5" x2="549.5" y1="242" y2="242"/><line style="stroke: #E3ECEC; stroke-width: 1.5;" x1="456.5" x2="549.5" y1="250" y2="250"/><path d="M503,150.1489 C503,163.5787 503,177.2645 503,189.5788 " fill="none" style="stroke: #3C6DF0; stroke-width: 1.0;"/><polygon fill="none" points="510.0001,189.9115,503,209.9115,496.0001,189.9115,510.0001,189.9115" style="stroke: #3C6DF0; stroke-width: 1.0;"/></g></svg>