<?xml version="1.0" encoding="UTF-8" standalone="no"?><svg xmlns="http://www.w3.org/2000/svg" xmlns:xlink="http://www.w3.org/1999/xlink" contentScriptType="application/ecmascript" contentStyleType="text/css" height="358px" preserveAspectRatio="none" style="width:936px;height:358px;" version="1.1" viewBox="0 0 936 358" width="936px" zoomAndPan="magnify"><defs/><g><!--class Registry--><rect fill="#F8FAFA" height="349.5" rx="1" ry="1" style="stroke: #E3ECEC; stroke-width: 1.5;" width="929" x="6" y="8"/><ellipse cx="434.75" cy="24" fill="#FFFFFF" rx="11" ry="11" style="stroke: #E3ECEC; stroke-width: 1.0;"/><path d="M437.1953,29.6641 Q436.6484,29.9453 436.0469,30.0859 Q435.4453,30.2266 434.7813,30.2266 Q432.4219,30.2266 431.1797,28.6719 Q429.9375,27.1172 429.9375,24.1797 Q429.9375,21.2344 431.1797,19.6797 Q432.4219,18.125 434.7813,18.125 Q435.4453,18.125 436.0547,18.2656 Q436.6641,18.4063 437.1953,18.6875 L437.1953,21.25 Q436.6016,20.7031 436.043,20.4492 Q435.4844,20.1953 434.8906,20.1953 Q433.625,20.1953 432.9805,21.1992 Q432.3359,22.2031 432.3359,24.1797 Q432.3359,26.1484 432.9805,27.1523 Q433.625,28.1563 434.8906,28.1563 Q435.4844,28.1563 436.043,27.9023 Q436.6016,27.6484 437.1953,27.1016 Z "/><text fill="#19273C" font-family="sans-serif" font-size="16" lengthAdjust="spacingAndGlyphs" textLength="63" x="455.25" y="30.0469">Registry</text><line style="stroke: #E3ECEC; stroke-width: 1.5;" x1="7" x2="934" y1="40" y2="40"/><line style="stroke: #E3ECEC; stroke-width: 1.5;" x1="7" x2="934" y1="48" y2="48"/><polygon fill="#4177AF" points="17,58.4219,13,64.4219,21,64.4219" style="stroke: #1963A0; stroke-width: 1.0;"/><text fill="#19273C" font-family="sans-serif" font-size="16" lengthAdjust="spacingAndGlyphs" textLength="444" x="26" y="67.4688">Promise getAllRegistries(SecurityContext,string,boolean)</text><polygon fill="#4177AF" points="17,77.2656,13,83.2656,21,83.2656" style="stroke: #1963A0; stroke-width: 1.0;"/><text fill="#19273C" font-family="sans-serif" font-size="16" lengthAdjust="spacingAndGlyphs" textLength="392" x="26" y="86.3125">Promise getRegistry(SecurityContext,string,string)</text><polygon fill="#4177AF" points="17,96.1094,13,102.1094,21,102.1094" style="stroke: #1963A0; stroke-width: 1.0;"/><text fill="#19273C" font-family="sans-serif" font-size="16" lengthAdjust="spacingAndGlyphs" textLength="413" x="26" y="105.1563">Promise existsRegistry(SecurityContext,string,string)</text><polygon fill="#4177AF" points="17,114.9531,13,120.9531,21,120.9531" style="stroke: #1963A0; stroke-width: 1.0;"/><text fill="#19273C" font-family="sans-serif" font-size="16" lengthAdjust="spacingAndGlyphs" textLength="447" x="26" y="124">Promise addRegistry(SecurityContext,string,string,string)</text><polygon fill="#4177AF" points="17,133.7969,13,139.7969,21,139.7969" style="stroke: #1963A0; stroke-width: 1.0;"/><text fill="#19273C" font-family="sans-serif" font-size="16" lengthAdjust="spacingAndGlyphs" textLength="903" x="26" y="142.8438">void constructor(string,string,string,SecurityContext,ModelManager,Factory,Serializer,BusinessNetworkConnection)</text><ellipse cx="17" cy="156.6406" fill="#84BE84" rx="3" ry="3" style="stroke: #038048; stroke-width: 1.0;"/><text fill="#19273C" font-family="sans-serif" font-size="16" lengthAdjust="spacingAndGlyphs" textLength="209" x="26" y="161.6875">Promise addAll(Resource[])</text><ellipse cx="17" cy="175.4844" fill="#84BE84" rx="3" ry="3" style="stroke: #038048; stroke-width: 1.0;"/><text fill="#19273C" font-family="sans-serif" font-size="16" lengthAdjust="spacingAndGlyphs" textLength="178" x="26" y="180.5313">Promise add(Resource)</text><ellipse cx="17" cy="194.3281" fill="#84BE84" rx="3" ry="3" style="stroke: #038048; stroke-width: 1.0;"/><text fill="#19273C" font-family="sans-serif" font-size="16" lengthAdjust="spacingAndGlyphs" textLength="234" x="26" y="199.375">Promise updateAll(Resource[])</text><ellipse cx="17" cy="213.1719" fill="#84BE84" rx="3" ry="3" style="stroke: #038048; stroke-width: 1.0;"/><text fill="#19273C" font-family="sans-serif" font-size="16" lengthAdjust="spacingAndGlyphs" textLength="203" x="26" y="218.2188">Promise update(Resource)</text><ellipse cx="17" cy="232.0156" fill="#84BE84" rx="3" ry="3" style="stroke: #038048; stroke-width: 1.0;"/><text fill="#19273C" font-family="sans-serif" font-size="16" lengthAdjust="spacingAndGlyphs" textLength="157" x="26" y="237.0625">Promise removeAll()</text><ellipse cx="17" cy="250.8594" fill="#84BE84" rx="3" ry="3" style="stroke: #038048; stroke-width: 1.0;"/><text fill="#19273C" font-family="sans-serif" font-size="16" lengthAdjust="spacingAndGlyphs" textLength="136" x="26" y="255.9063">Promise remove()</text><ellipse cx="17" cy="269.7031" fill="#84BE84" rx="3" ry="3" style="stroke: #038048; stroke-width: 1.0;"/><text fill="#19273C" font-family="sans-serif" font-size="16" lengthAdjust="spacingAndGlyphs" textLength="124" x="26" y="274.75">Promise getAll()</text><ellipse cx="17" cy="288.5469" fill="#84BE84" rx="3" ry="3" style="stroke: #038048; stroke-width: 1.0;"/><text fill="#19273C" font-family="sans-serif" font-size="16" lengthAdjust="spacingAndGlyphs" textLength="149" x="26" y="293.5938">Promise get(string)</text><ellipse cx="17" cy="307.3906" fill="#84BE84" rx="3" ry="3" style="stroke: #038048; stroke-width: 1.0;"/><text fill="#19273C" font-family="sans-serif" font-size="16" lengthAdjust="spacingAndGlyphs" textLength="170" x="26" y="312.4375">Promise exists(string)</text><ellipse cx="17" cy="326.2344" fill="#84BE84" rx="3" ry="3" style="stroke: #038048; stroke-width: 1.0;"/><text fill="#19273C" font-family="sans-serif" font-size="16" lengthAdjust="spacingAndGlyphs" textLength="155" x="26" y="331.2813">Promise resolveAll()</text><ellipse cx="17" cy="345.0781" fill="#84BE84" rx="3" ry="3" style="stroke: #038048; stroke-width: 1.0;"/><text fill="#19273C" font-family="sans-serif" font-size="16" lengthAdjust="spacingAndGlyphs" textLength="180" x="26" y="350.125">Promise resolve(string)</text></g></svg>