<?xml version="1.0" encoding="UTF-8" standalone="no"?><svg xmlns="http://www.w3.org/2000/svg" xmlns:xlink="http://www.w3.org/1999/xlink" contentScriptType="application/ecmascript" contentStyleType="text/css" height="203px" preserveAspectRatio="none" style="width:197px;height:203px;" version="1.1" viewBox="0 0 197 203" width="197px" zoomAndPan="magnify"><defs/><g><!--class Resource--><rect fill="#F8FAFA" height="85.25" rx="1" ry="1" style="stroke: #E3ECEC; stroke-width: 1.5;" width="190" x="6" y="8.5"/><ellipse cx="59.75" cy="24.5" fill="#FFFFFF" rx="11" ry="11" style="stroke: #E3ECEC; stroke-width: 1.0;"/><path d="M62.2031,30.1563 Q61.6563,30.4375 61.0547,30.5859 Q60.4531,30.7344 59.7813,30.7344 Q57.4219,30.7344 56.1797,29.1719 Q54.9375,27.6094 54.9375,24.6719 Q54.9375,21.7344 56.1797,20.1797 Q57.4219,18.625 59.7813,18.625 Q60.4531,18.625 61.0625,18.7656 Q61.6719,18.9063 62.2031,19.1875 L62.2031,21.75 Q61.6094,21.2031 61.0469,20.9453 Q60.4844,20.6875 59.8906,20.6875 Q58.625,20.6875 57.9844,21.6953 Q57.3438,22.7031 57.3438,24.6719 Q57.3438,26.6406 57.9844,27.6484 Q58.625,28.6563 59.8906,28.6563 Q60.4844,28.6563 61.0469,28.3984 Q61.6094,28.1406 62.2031,27.5938 L62.2031,30.1563 Z "/><text fill="#19273C" font-family="sans-serif" font-size="16" lengthAdjust="spacingAndGlyphs" textLength="74" x="80.25" y="30.0391">Resource</text><line style="stroke: #E3ECEC; stroke-width: 1.5;" x1="7" x2="195" y1="40.5" y2="40.5"/><line style="stroke: #E3ECEC; stroke-width: 1.5;" x1="7" x2="195" y1="48.5" y2="48.5"/><ellipse cx="17" cy="62.8125" fill="#84BE84" rx="3" ry="3" style="stroke: #038048; stroke-width: 1.0;"/><text fill="#19273C" font-family="sans-serif" font-size="16" lengthAdjust="spacingAndGlyphs" textLength="125" x="26" y="67.3516">String toString()</text><ellipse cx="17" cy="81.4375" fill="#84BE84" rx="3" ry="3" style="stroke: #038048; stroke-width: 1.0;"/><text fill="#19273C" font-family="sans-serif" font-size="16" lengthAdjust="spacingAndGlyphs" textLength="164" x="26" y="85.9766">boolean isResource()</text><!--class Identifiable--><rect fill="#F8FAFA" height="48" rx="1" ry="1" style="stroke: #E3ECEC; stroke-width: 1.5;" width="115" x="43.75" y="154"/><ellipse cx="58.75" cy="170" fill="#FFFFFF" rx="11" ry="11" style="stroke: #E3ECEC; stroke-width: 1.0;"/><path d="M61.2031,175.6563 Q60.6563,175.9375 60.0547,176.0859 Q59.4531,176.2344 58.7813,176.2344 Q56.4219,176.2344 55.1797,174.6719 Q53.9375,173.1094 53.9375,170.1719 Q53.9375,167.2344 55.1797,165.6797 Q56.4219,164.125 58.7813,164.125 Q59.4531,164.125 60.0625,164.2656 Q60.6719,164.4063 61.2031,164.6875 L61.2031,167.25 Q60.6094,166.7031 60.0469,166.4453 Q59.4844,166.1875 58.8906,166.1875 Q57.625,166.1875 56.9844,167.1953 Q56.3438,168.2031 56.3438,170.1719 Q56.3438,172.1406 56.9844,173.1484 Q57.625,174.1563 58.8906,174.1563 Q59.4844,174.1563 60.0469,173.8984 Q60.6094,173.6406 61.2031,173.0938 L61.2031,175.6563 Z "/><text fill="#19273C" font-family="sans-serif" font-size="16" lengthAdjust="spacingAndGlyphs" textLength="83" x="72.75" y="175.5391">Identifiable</text><line style="stroke: #E3ECEC; stroke-width: 1.5;" x1="44.75" x2="157.75" y1="186" y2="186"/><line style="stroke: #E3ECEC; stroke-width: 1.5;" x1="44.75" x2="157.75" y1="194" y2="194"/><path d="M101,93.623 C101,106.4535 101,120.61 101,133.5593 " fill="none" style="stroke: #3C6DF0; stroke-width: 1.0;"/><polygon fill="none" points="108,133.7655,101,153.7654,94.0001,133.7654,108,133.7655" style="stroke: #3C6DF0; stroke-width: 1.0;"/></g></svg>