<?xml version="1.0" encoding="UTF-8" standalone="no"?><svg xmlns="http://www.w3.org/2000/svg" xmlns:xlink="http://www.w3.org/1999/xlink" contentScriptType="application/ecmascript" contentStyleType="text/css" height="132px" preserveAspectRatio="none" style="width:313px;height:132px;" version="1.1" viewBox="0 0 313 132" width="313px" zoomAndPan="magnify"><defs/><g><!--class SecurityContext--><rect fill="#F8FAFA" height="122.5" rx="1" ry="1" style="stroke: #E3ECEC; stroke-width: 1.5;" width="306" x="6" y="8.5"/><ellipse cx="92.25" cy="24.5" fill="#FFFFFF" rx="11" ry="11" style="stroke: #E3ECEC; stroke-width: 1.0;"/><path d="M94.7031,30.1563 Q94.1563,30.4375 93.5547,30.5859 Q92.9531,30.7344 92.2813,30.7344 Q89.9219,30.7344 88.6797,29.1719 Q87.4375,27.6094 87.4375,24.6719 Q87.4375,21.7344 88.6797,20.1797 Q89.9219,18.625 92.2813,18.625 Q92.9531,18.625 93.5625,18.7656 Q94.1719,18.9063 94.7031,19.1875 L94.7031,21.75 Q94.1094,21.2031 93.5469,20.9453 Q92.9844,20.6875 92.3906,20.6875 Q91.125,20.6875 90.4844,21.6953 Q89.8438,22.7031 89.8438,24.6719 Q89.8438,26.6406 90.4844,27.6484 Q91.125,28.6563 92.3906,28.6563 Q92.9844,28.6563 93.5469,28.3984 Q94.1094,28.1406 94.7031,27.5938 L94.7031,30.1563 Z "/><text fill="#19273C" font-family="sans-serif" font-size="16" lengthAdjust="spacingAndGlyphs" textLength="125" x="112.75" y="30.0391">SecurityContext</text><line style="stroke: #E3ECEC; stroke-width: 1.5;" x1="7" x2="311" y1="40.5" y2="40.5"/><line style="stroke: #E3ECEC; stroke-width: 1.5;" x1="7" x2="311" y1="48.5" y2="48.5"/><ellipse cx="17" cy="62.8125" fill="#84BE84" rx="3" ry="3" style="stroke: #038048; stroke-width: 1.0;"/><text fill="#19273C" font-family="sans-serif" font-size="16" lengthAdjust="spacingAndGlyphs" textLength="280" x="26" y="67.3516">void constructor(Connection,string)</text><ellipse cx="17" cy="81.4375" fill="#84BE84" rx="3" ry="3" style="stroke: #038048; stroke-width: 1.0;"/><text fill="#19273C" font-family="sans-serif" font-size="16" lengthAdjust="spacingAndGlyphs" textLength="218" x="26" y="85.9766">Connection getConnection()</text><ellipse cx="17" cy="100.0625" fill="#84BE84" rx="3" ry="3" style="stroke: #038048; stroke-width: 1.0;"/><text fill="#19273C" font-family="sans-serif" font-size="16" lengthAdjust="spacingAndGlyphs" textLength="124" x="26" y="104.6016">string getUser()</text><ellipse cx="17" cy="118.6875" fill="#84BE84" rx="3" ry="3" style="stroke: #038048; stroke-width: 1.0;"/><text fill="#19273C" font-family="sans-serif" font-size="16" lengthAdjust="spacingAndGlyphs" textLength="123" x="26" y="123.2266">Object toJSON()</text></g></svg>