<?xml version="1.0" encoding="UTF-8" standalone="no"?><svg xmlns="http://www.w3.org/2000/svg" xmlns:xlink="http://www.w3.org/1999/xlink" contentScriptType="application/ecmascript" contentStyleType="text/css" height="313px" preserveAspectRatio="none" style="width:220px;height:313px;" version="1.1" viewBox="0 0 220 313" width="220px" zoomAndPan="magnify"><defs/><g><!--class BaseException--><rect fill="#F8FAFA" height="66.625" rx="1" ry="1" style="stroke: #E3ECEC; stroke-width: 1.5;" width="213" x="6" y="136.5"/><ellipse cx="50.75" cy="152.5" fill="#FFFFFF" rx="11" ry="11" style="stroke: #E3ECEC; stroke-width: 1.0;"/><path d="M53.2031,158.1563 Q52.6563,158.4375 52.0547,158.5859 Q51.4531,158.7344 50.7813,158.7344 Q48.4219,158.7344 47.1797,157.1719 Q45.9375,155.6094 45.9375,152.6719 Q45.9375,149.7344 47.1797,148.1797 Q48.4219,146.625 50.7813,146.625 Q51.4531,146.625 52.0625,146.7656 Q52.6719,146.9063 53.2031,147.1875 L53.2031,149.75 Q52.6094,149.2031 52.0469,148.9453 Q51.4844,148.6875 50.8906,148.6875 Q49.625,148.6875 48.9844,149.6953 Q48.3438,150.7031 48.3438,152.6719 Q48.3438,154.6406 48.9844,155.6484 Q49.625,156.6563 50.8906,156.6563 Q51.4844,156.6563 52.0469,156.3984 Q52.6094,156.1406 53.2031,155.5938 L53.2031,158.1563 Z "/><text fill="#19273C" font-family="sans-serif" font-size="16" lengthAdjust="spacingAndGlyphs" textLength="115" x="71.25" y="158.0391">BaseException</text><line style="stroke: #E3ECEC; stroke-width: 1.5;" x1="7" x2="218" y1="168.5" y2="168.5"/><line style="stroke: #E3ECEC; stroke-width: 1.5;" x1="7" x2="218" y1="176.5" y2="176.5"/><ellipse cx="17" cy="190.8125" fill="#84BE84" rx="3" ry="3" style="stroke: #038048; stroke-width: 1.0;"/><text fill="#19273C" font-family="sans-serif" font-size="16" lengthAdjust="spacingAndGlyphs" textLength="187" x="26" y="195.3516">void constructor(string)</text><!--class Error--><rect fill="#F8FAFA" height="48" rx="1" ry="1" style="stroke: #E3ECEC; stroke-width: 1.5;" width="73" x="76" y="264"/><ellipse cx="91" cy="280" fill="#FFFFFF" rx="11" ry="11" style="stroke: #E3ECEC; stroke-width: 1.0;"/><path d="M93.4531,285.6563 Q92.9063,285.9375 92.3047,286.0859 Q91.7031,286.2344 91.0313,286.2344 Q88.6719,286.2344 87.4297,284.6719 Q86.1875,283.1094 86.1875,280.1719 Q86.1875,277.2344 87.4297,275.6797 Q88.6719,274.125 91.0313,274.125 Q91.7031,274.125 92.3125,274.2656 Q92.9219,274.4063 93.4531,274.6875 L93.4531,277.25 Q92.8594,276.7031 92.2969,276.4453 Q91.7344,276.1875 91.1406,276.1875 Q89.875,276.1875 89.2344,277.1953 Q88.5938,278.2031 88.5938,280.1719 Q88.5938,282.1406 89.2344,283.1484 Q89.875,284.1563 91.1406,284.1563 Q91.7344,284.1563 92.2969,283.8984 Q92.8594,283.6406 93.4531,283.0938 L93.4531,285.6563 Z "/><text fill="#19273C" font-family="sans-serif" font-size="16" lengthAdjust="spacingAndGlyphs" textLength="41" x="105" y="285.5391">Error</text><line style="stroke: #E3ECEC; stroke-width: 1.5;" x1="77" x2="148" y1="296" y2="296"/><line style="stroke: #E3ECEC; stroke-width: 1.5;" x1="77" x2="148" y1="304" y2="304"/><!--class SecurityException--><rect fill="#F8FAFA" height="66.625" rx="1" ry="1" style="stroke: #E3ECEC; stroke-width: 1.5;" width="213" x="6" y="8.5"/><ellipse cx="39.45" cy="24.5" fill="#FFFFFF" rx="11" ry="11" style="stroke: #E3ECEC; stroke-width: 1.0;"/><path d="M41.9031,30.1563 Q41.3563,30.4375 40.7547,30.5859 Q40.1531,30.7344 39.4813,30.7344 Q37.1219,30.7344 35.8797,29.1719 Q34.6375,27.6094 34.6375,24.6719 Q34.6375,21.7344 35.8797,20.1797 Q37.1219,18.625 39.4813,18.625 Q40.1531,18.625 40.7625,18.7656 Q41.3719,18.9063 41.9031,19.1875 L41.9031,21.75 Q41.3094,21.2031 40.7469,20.9453 Q40.1844,20.6875 39.5906,20.6875 Q38.325,20.6875 37.6844,21.6953 Q37.0438,22.7031 37.0438,24.6719 Q37.0438,26.6406 37.6844,27.6484 Q38.325,28.6563 39.5906,28.6563 Q40.1844,28.6563 40.7469,28.3984 Q41.3094,28.1406 41.9031,27.5938 L41.9031,30.1563 Z "/><text fill="#19273C" font-family="sans-serif" font-size="16" lengthAdjust="spacingAndGlyphs" textLength="140" x="57.55" y="30.0391">SecurityException</text><line style="stroke: #E3ECEC; stroke-width: 1.5;" x1="7" x2="218" y1="40.5" y2="40.5"/><line style="stroke: #E3ECEC; stroke-width: 1.5;" x1="7" x2="218" y1="48.5" y2="48.5"/><ellipse cx="17" cy="62.8125" fill="#84BE84" rx="3" ry="3" style="stroke: #038048; stroke-width: 1.0;"/><text fill="#19273C" font-family="sans-serif" font-size="16" lengthAdjust="spacingAndGlyphs" textLength="187" x="26" y="67.3516">void constructor(string)</text><path d="M112.25,203.621 C112.25,216.0487 112.25,230.4125 112.25,243.6795 " fill="none" style="stroke: #3C6DF0; stroke-width: 1.0;"/><polygon fill="none" points="119.25,243.8078,112.25,263.8077,105.2501,243.8077,119.25,243.8078" style="stroke: #3C6DF0; stroke-width: 1.0;"/><path d="M112.25,75.776 C112.25,88.172 112.25,102.614 112.25,116.376 " fill="none" style="stroke: #3C6DF0; stroke-width: 1.0;"/><polygon fill="none" points="119.25,116.388,112.25,136.388,105.2501,116.388,119.25,116.388" style="stroke: #3C6DF0; stroke-width: 1.0;"/></g></svg>