<?xml version="1.0" encoding="UTF-8" standalone="no"?><svg xmlns="http://www.w3.org/2000/svg" xmlns:xlink="http://www.w3.org/1999/xlink" contentScriptType="application/ecmascript" contentStyleType="text/css" height="203px" preserveAspectRatio="none" style="width:302px;height:203px;" version="1.1" viewBox="0 0 302 203" width="302px" zoomAndPan="magnify"><defs/><g><!--class TransactionDeclaration--><rect fill="#F8FAFA" height="85.6875" rx="1" ry="1" style="stroke: #E3ECEC; stroke-width: 1.5;" width="295" x="6" y="8"/><ellipse cx="58.25" cy="24" fill="#FFFFFF" rx="11" ry="11" style="stroke: #E3ECEC; stroke-width: 1.0;"/><path d="M60.6953,29.6641 Q60.1484,29.9453 59.5469,30.0859 Q58.9453,30.2266 58.2813,30.2266 Q55.9219,30.2266 54.6797,28.6719 Q53.4375,27.1172 53.4375,24.1797 Q53.4375,21.2344 54.6797,19.6797 Q55.9219,18.125 58.2813,18.125 Q58.9453,18.125 59.5547,18.2656 Q60.1641,18.4063 60.6953,18.6875 L60.6953,21.25 Q60.1016,20.7031 59.543,20.4492 Q58.9844,20.1953 58.3906,20.1953 Q57.125,20.1953 56.4805,21.1992 Q55.8359,22.2031 55.8359,24.1797 Q55.8359,26.1484 56.4805,27.1523 Q57.125,28.1563 58.3906,28.1563 Q58.9844,28.1563 59.543,27.9023 Q60.1016,27.6484 60.6953,27.1016 Z "/><text fill="#19273C" font-family="sans-serif" font-size="16" lengthAdjust="spacingAndGlyphs" textLength="182" x="78.75" y="30.0469">TransactionDeclaration</text><line style="stroke: #E3ECEC; stroke-width: 1.5;" x1="7" x2="300" y1="40" y2="40"/><line style="stroke: #E3ECEC; stroke-width: 1.5;" x1="7" x2="300" y1="48" y2="48"/><ellipse cx="17" cy="62.4219" fill="#84BE84" rx="3" ry="3" style="stroke: #038048; stroke-width: 1.0;"/><text fill="#19273C" font-family="sans-serif" font-size="16" lengthAdjust="spacingAndGlyphs" textLength="269" x="26" y="67.4688">void constructor(ModelFile,Object)</text><ellipse cx="17" cy="81.2656" fill="#84BE84" rx="3" ry="3" style="stroke: #038048; stroke-width: 1.0;"/><text fill="#19273C" font-family="sans-serif" font-size="16" lengthAdjust="spacingAndGlyphs" textLength="178" x="26" y="86.3125">string getSystemType()</text><!--class ClassDeclaration--><rect fill="#F8FAFA" height="48" rx="1" ry="1" style="stroke: #E3ECEC; stroke-width: 1.5;" width="163" x="72" y="154"/><ellipse cx="87" cy="170" fill="#FFFFFF" rx="11" ry="11" style="stroke: #E3ECEC; stroke-width: 1.0;"/><path d="M89.4453,175.6641 Q88.8984,175.9453 88.2969,176.0859 Q87.6953,176.2266 87.0313,176.2266 Q84.6719,176.2266 83.4297,174.6719 Q82.1875,173.1172 82.1875,170.1797 Q82.1875,167.2344 83.4297,165.6797 Q84.6719,164.125 87.0313,164.125 Q87.6953,164.125 88.3047,164.2656 Q88.9141,164.4063 89.4453,164.6875 L89.4453,167.25 Q88.8516,166.7031 88.293,166.4492 Q87.7344,166.1953 87.1406,166.1953 Q85.875,166.1953 85.2305,167.1992 Q84.5859,168.2031 84.5859,170.1797 Q84.5859,172.1484 85.2305,173.1523 Q85.875,174.1563 87.1406,174.1563 Q87.7344,174.1563 88.293,173.9023 Q88.8516,173.6484 89.4453,173.1016 Z "/><text fill="#19273C" font-family="sans-serif" font-size="16" lengthAdjust="spacingAndGlyphs" textLength="131" x="101" y="176.0469">ClassDeclaration</text><line style="stroke: #E3ECEC; stroke-width: 1.5;" x1="73" x2="234" y1="186" y2="186"/><line style="stroke: #E3ECEC; stroke-width: 1.5;" x1="73" x2="234" y1="194" y2="194"/><path d="M153.5,94.351 C153.5,106.9013 153.5,120.6231 153.5,133.2567 " fill="none" style="stroke: #3C6DF0; stroke-width: 1.0;"/><polygon fill="none" points="160.5001,133.708,153.5,153.7079,146.5001,133.7079,160.5001,133.708" style="stroke: #3C6DF0; stroke-width: 1.0;"/></g></svg>