<?xml version="1.0" encoding="UTF-8" standalone="no"?><svg xmlns="http://www.w3.org/2000/svg" xmlns:xlink="http://www.w3.org/1999/xlink" contentScriptType="application/ecmascript" contentStyleType="text/css" height="556px" preserveAspectRatio="none" style="width:934px;height:556px;" version="1.1" viewBox="0 0 934 556" width="934px" zoomAndPan="magnify"><defs/><g><!--class Registry--><rect fill="#F8FAFA" height="383.25" rx="1" ry="1" style="stroke: #E3ECEC; stroke-width: 1.5;" width="927" x="6" y="172.5"/><ellipse cx="433.25" cy="188.5" fill="#FFFFFF" rx="11" ry="11" style="stroke: #E3ECEC; stroke-width: 1.0;"/><path d="M435.7031,194.1563 Q435.1563,194.4375 434.5547,194.5859 Q433.9531,194.7344 433.2813,194.7344 Q430.9219,194.7344 429.6797,193.1719 Q428.4375,191.6094 428.4375,188.6719 Q428.4375,185.7344 429.6797,184.1797 Q430.9219,182.625 433.2813,182.625 Q433.9531,182.625 434.5625,182.7656 Q435.1719,182.9063 435.7031,183.1875 L435.7031,185.75 Q435.1094,185.2031 434.5469,184.9453 Q433.9844,184.6875 433.3906,184.6875 Q432.125,184.6875 431.4844,185.6953 Q430.8438,186.7031 430.8438,188.6719 Q430.8438,190.6406 431.4844,191.6484 Q432.125,192.6563 433.3906,192.6563 Q433.9844,192.6563 434.5469,192.3984 Q435.1094,192.1406 435.7031,191.5938 L435.7031,194.1563 Z "/><text fill="#19273C" font-family="sans-serif" font-size="16" lengthAdjust="spacingAndGlyphs" textLength="64" x="453.75" y="194.0391">Registry</text><line style="stroke: #E3ECEC; stroke-width: 1.5;" x1="7" x2="932" y1="204.5" y2="204.5"/><line style="stroke: #E3ECEC; stroke-width: 1.5;" x1="7" x2="932" y1="212.5" y2="212.5"/><ellipse cx="17" cy="226.8125" fill="#84BE84" rx="3" ry="3" style="stroke: #038048; stroke-width: 1.0;"/><text fill="#19273C" font-family="sans-serif" font-size="16" lengthAdjust="spacingAndGlyphs" textLength="373" x="26" y="231.3516">Promise getAllRegistries(SecurityContext,string)</text><ellipse cx="17" cy="245.4375" fill="#84BE84" rx="3" ry="3" style="stroke: #038048; stroke-width: 1.0;"/><text fill="#19273C" font-family="sans-serif" font-size="16" lengthAdjust="spacingAndGlyphs" textLength="394" x="26" y="249.9766">Promise getRegistry(SecurityContext,string,string)</text><ellipse cx="17" cy="264.0625" fill="#84BE84" rx="3" ry="3" style="stroke: #038048; stroke-width: 1.0;"/><text fill="#19273C" font-family="sans-serif" font-size="16" lengthAdjust="spacingAndGlyphs" textLength="415" x="26" y="268.6016">Promise existsRegistry(SecurityContext,string,string)</text><ellipse cx="17" cy="282.6875" fill="#84BE84" rx="3" ry="3" style="stroke: #038048; stroke-width: 1.0;"/><text fill="#19273C" font-family="sans-serif" font-size="16" lengthAdjust="spacingAndGlyphs" textLength="448" x="26" y="287.2266">Promise addRegistry(SecurityContext,string,string,string)</text><ellipse cx="17" cy="301.3125" fill="#84BE84" rx="3" ry="3" style="stroke: #038048; stroke-width: 1.0;"/><text fill="#19273C" font-family="sans-serif" font-size="16" lengthAdjust="spacingAndGlyphs" textLength="901" x="26" y="305.8516">void constructor(string,string,string,SecurityContext,ModelManager,Factory,Serializer,BusinessNetworkConnection)</text><ellipse cx="17" cy="319.9375" fill="#84BE84" rx="3" ry="3" style="stroke: #038048; stroke-width: 1.0;"/><text fill="#19273C" font-family="sans-serif" font-size="16" lengthAdjust="spacingAndGlyphs" textLength="212" x="26" y="324.4766">Promise addAll(Resource[])</text><ellipse cx="17" cy="338.5625" fill="#84BE84" rx="3" ry="3" style="stroke: #038048; stroke-width: 1.0;"/><text fill="#19273C" font-family="sans-serif" font-size="16" lengthAdjust="spacingAndGlyphs" textLength="183" x="26" y="343.1016">Promise add(Resource)</text><ellipse cx="17" cy="357.1875" fill="#84BE84" rx="3" ry="3" style="stroke: #038048; stroke-width: 1.0;"/><text fill="#19273C" font-family="sans-serif" font-size="16" lengthAdjust="spacingAndGlyphs" textLength="237" x="26" y="361.7266">Promise updateAll(Resource[])</text><ellipse cx="17" cy="375.8125" fill="#84BE84" rx="3" ry="3" style="stroke: #038048; stroke-width: 1.0;"/><text fill="#19273C" font-family="sans-serif" font-size="16" lengthAdjust="spacingAndGlyphs" textLength="208" x="26" y="380.3516">Promise update(Resource)</text><ellipse cx="17" cy="394.4375" fill="#84BE84" rx="3" ry="3" style="stroke: #038048; stroke-width: 1.0;"/><text fill="#19273C" font-family="sans-serif" font-size="16" lengthAdjust="spacingAndGlyphs" textLength="156" x="26" y="398.9766">Promise removeAll()</text><ellipse cx="17" cy="413.0625" fill="#84BE84" rx="3" ry="3" style="stroke: #038048; stroke-width: 1.0;"/><text fill="#19273C" font-family="sans-serif" font-size="16" lengthAdjust="spacingAndGlyphs" textLength="139" x="26" y="417.6016">Promise remove()</text><ellipse cx="17" cy="431.6875" fill="#84BE84" rx="3" ry="3" style="stroke: #038048; stroke-width: 1.0;"/><text fill="#19273C" font-family="sans-serif" font-size="16" lengthAdjust="spacingAndGlyphs" textLength="122" x="26" y="436.2266">Promise getAll()</text><ellipse cx="17" cy="450.3125" fill="#84BE84" rx="3" ry="3" style="stroke: #038048; stroke-width: 1.0;"/><text fill="#19273C" font-family="sans-serif" font-size="16" lengthAdjust="spacingAndGlyphs" textLength="150" x="26" y="454.8516">Promise get(string)</text><ellipse cx="17" cy="468.9375" fill="#84BE84" rx="3" ry="3" style="stroke: #038048; stroke-width: 1.0;"/><text fill="#19273C" font-family="sans-serif" font-size="16" lengthAdjust="spacingAndGlyphs" textLength="171" x="26" y="473.4766">Promise exists(string)</text><ellipse cx="17" cy="487.5625" fill="#84BE84" rx="3" ry="3" style="stroke: #038048; stroke-width: 1.0;"/><text fill="#19273C" font-family="sans-serif" font-size="16" lengthAdjust="spacingAndGlyphs" textLength="154" x="26" y="492.1016">Promise find(string)</text><ellipse cx="17" cy="506.1875" fill="#84BE84" rx="3" ry="3" style="stroke: #038048; stroke-width: 1.0;"/><text fill="#19273C" font-family="sans-serif" font-size="16" lengthAdjust="spacingAndGlyphs" textLength="170" x="26" y="510.7266">Promise query(string)</text><ellipse cx="17" cy="524.8125" fill="#84BE84" rx="3" ry="3" style="stroke: #038048; stroke-width: 1.0;"/><text fill="#19273C" font-family="sans-serif" font-size="16" lengthAdjust="spacingAndGlyphs" textLength="153" x="26" y="529.3516">Promise resolveAll()</text><ellipse cx="17" cy="543.4375" fill="#84BE84" rx="3" ry="3" style="stroke: #038048; stroke-width: 1.0;"/><text fill="#19273C" font-family="sans-serif" font-size="16" lengthAdjust="spacingAndGlyphs" textLength="181" x="26" y="547.9766">Promise resolve(string)</text><!--class TransactionRegistry--><rect fill="#F8FAFA" height="103.875" rx="1" ry="1" style="stroke: #E3ECEC; stroke-width: 1.5;" width="770" x="84.25" y="8"/><ellipse cx="387.5" cy="24" fill="#FFFFFF" rx="11" ry="11" style="stroke: #E3ECEC; stroke-width: 1.0;"/><path d="M389.9531,29.6563 Q389.4063,29.9375 388.8047,30.0859 Q388.2031,30.2344 387.5313,30.2344 Q385.1719,30.2344 383.9297,28.6719 Q382.6875,27.1094 382.6875,24.1719 Q382.6875,21.2344 383.9297,19.6797 Q385.1719,18.125 387.5313,18.125 Q388.2031,18.125 388.8125,18.2656 Q389.4219,18.4063 389.9531,18.6875 L389.9531,21.25 Q389.3594,20.7031 388.7969,20.4453 Q388.2344,20.1875 387.6406,20.1875 Q386.375,20.1875 385.7344,21.1953 Q385.0938,22.2031 385.0938,24.1719 Q385.0938,26.1406 385.7344,27.1484 Q386.375,28.1563 387.6406,28.1563 Q388.2344,28.1563 388.7969,27.8984 Q389.3594,27.6406 389.9531,27.0938 L389.9531,29.6563 Z "/><text fill="#19273C" font-family="sans-serif" font-size="16" lengthAdjust="spacingAndGlyphs" textLength="155" x="408" y="29.5391">TransactionRegistry</text><line style="stroke: #E3ECEC; stroke-width: 1.5;" x1="85.25" x2="853.25" y1="40" y2="40"/><line style="stroke: #E3ECEC; stroke-width: 1.5;" x1="85.25" x2="853.25" y1="48" y2="48"/><ellipse cx="95.25" cy="62.3125" fill="#84BE84" rx="3" ry="3" style="stroke: #038048; stroke-width: 1.0;"/><text fill="#19273C" font-family="sans-serif" font-size="16" lengthAdjust="spacingAndGlyphs" textLength="669" x="104.25" y="66.8516">Promise getAllTransactionRegistries(SecurityContext,ModelManager,Factory,Serializer)</text><ellipse cx="95.25" cy="80.9375" fill="#84BE84" rx="3" ry="3" style="stroke: #038048; stroke-width: 1.0;"/><text fill="#19273C" font-family="sans-serif" font-size="16" lengthAdjust="spacingAndGlyphs" textLength="690" x="104.25" y="85.4766">Promise getTransactionRegistry(SecurityContext,string,ModelManager,Factory,Serializer)</text><ellipse cx="95.25" cy="99.5625" fill="#84BE84" rx="3" ry="3" style="stroke: #038048; stroke-width: 1.0;"/><text fill="#19273C" font-family="sans-serif" font-size="16" lengthAdjust="spacingAndGlyphs" textLength="744" x="104.25" y="104.1016">Promise addTransactionRegistry(SecurityContext,string,string,ModelManager,Factory,Serializer)</text><path d="M469.25,112.23 C469.25,124.263 469.25,137.825 469.25,152.255 " fill="none" style="stroke: #3C6DF0; stroke-width: 1.0;"/><polygon fill="none" points="476.25,152.408,469.25,172.408,462.25,152.408,476.25,152.408" style="stroke: #3C6DF0; stroke-width: 1.0;"/></g></svg>