<?xml version="1.0" encoding="UTF-8" standalone="no"?><svg xmlns="http://www.w3.org/2000/svg" xmlns:xlink="http://www.w3.org/1999/xlink" contentScriptType="application/ecmascript" contentStyleType="text/css" height="240px" preserveAspectRatio="none" style="width:1005px;height:240px;" version="1.1" viewBox="0 0 1005 240" width="1005px" zoomAndPan="magnify"><defs/><g><!--class TransactionRegistry--><rect fill="#F8FAFA" height="123.375" rx="1" ry="1" style="stroke: #E3ECEC; stroke-width: 1.5;" width="998" x="6" y="8"/><ellipse cx="423.25" cy="24" fill="#FFFFFF" rx="11" ry="11" style="stroke: #E3ECEC; stroke-width: 1.0;"/><path d="M425.6953,29.6641 Q425.1484,29.9453 424.5469,30.0859 Q423.9453,30.2266 423.2813,30.2266 Q420.9219,30.2266 419.6797,28.6719 Q418.4375,27.1172 418.4375,24.1797 Q418.4375,21.2344 419.6797,19.6797 Q420.9219,18.125 423.2813,18.125 Q423.9453,18.125 424.5547,18.2656 Q425.1641,18.4063 425.6953,18.6875 L425.6953,21.25 Q425.1016,20.7031 424.543,20.4492 Q423.9844,20.1953 423.3906,20.1953 Q422.125,20.1953 421.4805,21.1992 Q420.8359,22.2031 420.8359,24.1797 Q420.8359,26.1484 421.4805,27.1523 Q422.125,28.1563 423.3906,28.1563 Q423.9844,28.1563 424.543,27.9023 Q425.1016,27.6484 425.6953,27.1016 Z "/><text fill="#19273C" font-family="sans-serif" font-size="16" lengthAdjust="spacingAndGlyphs" textLength="155" x="443.75" y="30.0469">TransactionRegistry</text><line style="stroke: #E3ECEC; stroke-width: 1.5;" x1="7" x2="1003" y1="40" y2="40"/><line style="stroke: #E3ECEC; stroke-width: 1.5;" x1="7" x2="1003" y1="48" y2="48"/><ellipse cx="17" cy="62.4219" fill="#84BE84" rx="3" ry="3" style="stroke: #038048; stroke-width: 1.0;"/><text fill="#19273C" font-family="sans-serif" font-size="16" lengthAdjust="spacingAndGlyphs" textLength="972" x="26" y="67.4688">Promise getAllTransactionRegistries(SecurityContext,ModelManager,Factory,Serializer,BusinessNetworkConnection,Boolean)</text><ellipse cx="17" cy="81.2656" fill="#84BE84" rx="3" ry="3" style="stroke: #038048; stroke-width: 1.0;"/><text fill="#19273C" font-family="sans-serif" font-size="16" lengthAdjust="spacingAndGlyphs" textLength="695" x="26" y="86.3125">Promise getTransactionRegistry(SecurityContext,string,ModelManager,Factory,Serializer)</text><ellipse cx="17" cy="100.1094" fill="#84BE84" rx="3" ry="3" style="stroke: #038048; stroke-width: 1.0;"/><text fill="#19273C" font-family="sans-serif" font-size="16" lengthAdjust="spacingAndGlyphs" textLength="750" x="26" y="105.1563">Promise addTransactionRegistry(SecurityContext,string,string,ModelManager,Factory,Serializer)</text><polygon fill="#4177AF" points="17,114.9531,13,120.9531,21,120.9531" style="stroke: #1963A0; stroke-width: 1.0;"/><text fill="#19273C" font-family="sans-serif" font-size="16" lengthAdjust="spacingAndGlyphs" textLength="712" x="26" y="124">Promise transactionRegistryExists(SecurityContext,string,ModelManager,Factory,Serializer)</text><!--class Registry--><rect fill="#F8FAFA" height="48" rx="1" ry="1" style="stroke: #E3ECEC; stroke-width: 1.5;" width="95" x="457.5" y="191"/><ellipse cx="472.5" cy="207" fill="#FFFFFF" rx="11" ry="11" style="stroke: #E3ECEC; stroke-width: 1.0;"/><path d="M474.9453,212.6641 Q474.3984,212.9453 473.7969,213.0859 Q473.1953,213.2266 472.5313,213.2266 Q470.1719,213.2266 468.9297,211.6719 Q467.6875,210.1172 467.6875,207.1797 Q467.6875,204.2344 468.9297,202.6797 Q470.1719,201.125 472.5313,201.125 Q473.1953,201.125 473.8047,201.2656 Q474.4141,201.4063 474.9453,201.6875 L474.9453,204.25 Q474.3516,203.7031 473.793,203.4492 Q473.2344,203.1953 472.6406,203.1953 Q471.375,203.1953 470.7305,204.1992 Q470.0859,205.2031 470.0859,207.1797 Q470.0859,209.1484 470.7305,210.1523 Q471.375,211.1563 472.6406,211.1563 Q473.2344,211.1563 473.793,210.9023 Q474.3516,210.6484 474.9453,210.1016 Z "/><text fill="#19273C" font-family="sans-serif" font-size="16" lengthAdjust="spacingAndGlyphs" textLength="63" x="486.5" y="213.0469">Registry</text><line style="stroke: #E3ECEC; stroke-width: 1.5;" x1="458.5" x2="551.5" y1="223" y2="223"/><line style="stroke: #E3ECEC; stroke-width: 1.5;" x1="458.5" x2="551.5" y1="231" y2="231"/><path d="M505,131.2051 C505,144.5367 505,158.375 505,170.8725 " fill="none" style="stroke: #3C6DF0; stroke-width: 1.0;"/><polygon fill="none" points="512.0001,170.9125,505,190.9124,498.0001,170.9124,512.0001,170.9125" style="stroke: #3C6DF0; stroke-width: 1.0;"/></g></svg>