<?xml version="1.0" encoding="UTF-8" standalone="no"?><svg xmlns="http://www.w3.org/2000/svg" xmlns:xlink="http://www.w3.org/1999/xlink" contentScriptType="application/ecmascript" contentStyleType="text/css" height="168px" preserveAspectRatio="none" style="width:311px;height:168px;" version="1.1" viewBox="0 0 311 168" width="311px" zoomAndPan="magnify"><defs/><g><!--class Typed--><rect fill="#F8FAFA" height="159.75" rx="1" ry="1" style="stroke: #E3ECEC; stroke-width: 1.5;" width="304" x="6" y="8"/><ellipse cx="130.25" cy="24" fill="#FFFFFF" rx="11" ry="11" style="stroke: #E3ECEC; stroke-width: 1.0;"/><path d="M132.7031,29.6563 Q132.1563,29.9375 131.5547,30.0859 Q130.9531,30.2344 130.2813,30.2344 Q127.9219,30.2344 126.6797,28.6719 Q125.4375,27.1094 125.4375,24.1719 Q125.4375,21.2344 126.6797,19.6797 Q127.9219,18.125 130.2813,18.125 Q130.9531,18.125 131.5625,18.2656 Q132.1719,18.4063 132.7031,18.6875 L132.7031,21.25 Q132.1094,20.7031 131.5469,20.4453 Q130.9844,20.1875 130.3906,20.1875 Q129.125,20.1875 128.4844,21.1953 Q127.8438,22.2031 127.8438,24.1719 Q127.8438,26.1406 128.4844,27.1484 Q129.125,28.1563 130.3906,28.1563 Q130.9844,28.1563 131.5469,27.8984 Q132.1094,27.6406 132.7031,27.0938 L132.7031,29.6563 Z "/><text fill="#19273C" font-family="sans-serif" font-size="16" lengthAdjust="spacingAndGlyphs" textLength="47" x="150.75" y="29.5391">Typed</text><line style="stroke: #E3ECEC; stroke-width: 1.5;" x1="7" x2="309" y1="40" y2="40"/><line style="stroke: #E3ECEC; stroke-width: 1.5;" x1="7" x2="309" y1="48" y2="48"/><ellipse cx="17" cy="62.3125" fill="#84BE84" rx="3" ry="3" style="stroke: #038048; stroke-width: 1.0;"/><text fill="#19273C" font-family="sans-serif" font-size="16" lengthAdjust="spacingAndGlyphs" textLength="124" x="26" y="66.8516">string getType()</text><ellipse cx="17" cy="80.9375" fill="#84BE84" rx="3" ry="3" style="stroke: #038048; stroke-width: 1.0;"/><text fill="#19273C" font-family="sans-serif" font-size="16" lengthAdjust="spacingAndGlyphs" textLength="224" x="26" y="85.4766">string getFullyQualifiedType()</text><ellipse cx="17" cy="99.5625" fill="#84BE84" rx="3" ry="3" style="stroke: #038048; stroke-width: 1.0;"/><text fill="#19273C" font-family="sans-serif" font-size="16" lengthAdjust="spacingAndGlyphs" textLength="178" x="26" y="104.1016">string getNamespace()</text><ellipse cx="17" cy="118.1875" fill="#84BE84" rx="3" ry="3" style="stroke: #038048; stroke-width: 1.0;"/><text fill="#19273C" font-family="sans-serif" font-size="16" lengthAdjust="spacingAndGlyphs" textLength="278" x="26" y="122.7266">void setPropertyValue(string,string)</text><ellipse cx="17" cy="136.8125" fill="#84BE84" rx="3" ry="3" style="stroke: #038048; stroke-width: 1.0;"/><text fill="#19273C" font-family="sans-serif" font-size="16" lengthAdjust="spacingAndGlyphs" textLength="258" x="26" y="141.3516">void addArrayValue(string,string)</text><ellipse cx="17" cy="155.4375" fill="#84BE84" rx="3" ry="3" style="stroke: #038048; stroke-width: 1.0;"/><text fill="#19273C" font-family="sans-serif" font-size="16" lengthAdjust="spacingAndGlyphs" textLength="208" x="26" y="159.9766">boolean instanceOf(String)</text></g></svg>