<?xml version="1.0" encoding="UTF-8" standalone="no"?><svg xmlns="http://www.w3.org/2000/svg" xmlns:xlink="http://www.w3.org/1999/xlink" contentScriptType="application/ecmascript" contentStyleType="text/css" height="150px" preserveAspectRatio="none" style="width:311px;height:150px;" version="1.1" viewBox="0 0 311 150" width="311px" zoomAndPan="magnify"><defs/><g><!--class Typed--><rect fill="#F8FAFA" height="141.125" rx="1" ry="1" style="stroke: #E3ECEC; stroke-width: 1.5;" width="304" x="6" y="8.5"/><ellipse cx="130.25" cy="24.5" fill="#FFFFFF" rx="11" ry="11" style="stroke: #E3ECEC; stroke-width: 1.0;"/><path d="M132.7031,30.1563 Q132.1563,30.4375 131.5547,30.5859 Q130.9531,30.7344 130.2813,30.7344 Q127.9219,30.7344 126.6797,29.1719 Q125.4375,27.6094 125.4375,24.6719 Q125.4375,21.7344 126.6797,20.1797 Q127.9219,18.625 130.2813,18.625 Q130.9531,18.625 131.5625,18.7656 Q132.1719,18.9063 132.7031,19.1875 L132.7031,21.75 Q132.1094,21.2031 131.5469,20.9453 Q130.9844,20.6875 130.3906,20.6875 Q129.125,20.6875 128.4844,21.6953 Q127.8438,22.7031 127.8438,24.6719 Q127.8438,26.6406 128.4844,27.6484 Q129.125,28.6563 130.3906,28.6563 Q130.9844,28.6563 131.5469,28.3984 Q132.1094,28.1406 132.7031,27.5938 L132.7031,30.1563 Z "/><text fill="#19273C" font-family="sans-serif" font-size="16" lengthAdjust="spacingAndGlyphs" textLength="47" x="150.75" y="30.0391">Typed</text><line style="stroke: #E3ECEC; stroke-width: 1.5;" x1="7" x2="309" y1="40.5" y2="40.5"/><line style="stroke: #E3ECEC; stroke-width: 1.5;" x1="7" x2="309" y1="48.5" y2="48.5"/><ellipse cx="17" cy="62.8125" fill="#84BE84" rx="3" ry="3" style="stroke: #038048; stroke-width: 1.0;"/><text fill="#19273C" font-family="sans-serif" font-size="16" lengthAdjust="spacingAndGlyphs" textLength="124" x="26" y="67.3516">string getType()</text><ellipse cx="17" cy="81.4375" fill="#84BE84" rx="3" ry="3" style="stroke: #038048; stroke-width: 1.0;"/><text fill="#19273C" font-family="sans-serif" font-size="16" lengthAdjust="spacingAndGlyphs" textLength="224" x="26" y="85.9766">string getFullyQualifiedType()</text><ellipse cx="17" cy="100.0625" fill="#84BE84" rx="3" ry="3" style="stroke: #038048; stroke-width: 1.0;"/><text fill="#19273C" font-family="sans-serif" font-size="16" lengthAdjust="spacingAndGlyphs" textLength="178" x="26" y="104.6016">string getNamespace()</text><ellipse cx="17" cy="118.6875" fill="#84BE84" rx="3" ry="3" style="stroke: #038048; stroke-width: 1.0;"/><text fill="#19273C" font-family="sans-serif" font-size="16" lengthAdjust="spacingAndGlyphs" textLength="278" x="26" y="123.2266">void setPropertyValue(string,string)</text><ellipse cx="17" cy="137.3125" fill="#84BE84" rx="3" ry="3" style="stroke: #038048; stroke-width: 1.0;"/><text fill="#19273C" font-family="sans-serif" font-size="16" lengthAdjust="spacingAndGlyphs" textLength="258" x="26" y="141.8516">void addArrayValue(string,string)</text></g></svg>