<?xml version="1.0" encoding="UTF-8" standalone="no"?><svg xmlns="http://www.w3.org/2000/svg" xmlns:xlink="http://www.w3.org/1999/xlink" contentScriptType="application/ecmascript" contentStyleType="text/css" height="222px" preserveAspectRatio="none" style="width:310px;height:222px;" version="1.1" viewBox="0 0 310 222" width="310px" zoomAndPan="magnify"><defs/><g><!--class ValidatedResource--><rect fill="#F8FAFA" height="104.5313" rx="1" ry="1" style="stroke: #E3ECEC; stroke-width: 1.5;" width="303" x="6" y="8"/><ellipse cx="81.25" cy="24" fill="#FFFFFF" rx="11" ry="11" style="stroke: #E3ECEC; stroke-width: 1.0;"/><path d="M83.6953,29.6641 Q83.1484,29.9453 82.5469,30.0859 Q81.9453,30.2266 81.2813,30.2266 Q78.9219,30.2266 77.6797,28.6719 Q76.4375,27.1172 76.4375,24.1797 Q76.4375,21.2344 77.6797,19.6797 Q78.9219,18.125 81.2813,18.125 Q81.9453,18.125 82.5547,18.2656 Q83.1641,18.4063 83.6953,18.6875 L83.6953,21.25 Q83.1016,20.7031 82.543,20.4492 Q81.9844,20.1953 81.3906,20.1953 Q80.125,20.1953 79.4805,21.1992 Q78.8359,22.2031 78.8359,24.1797 Q78.8359,26.1484 79.4805,27.1523 Q80.125,28.1563 81.3906,28.1563 Q81.9844,28.1563 82.543,27.9023 Q83.1016,27.6484 83.6953,27.1016 Z "/><text fill="#19273C" font-family="sans-serif" font-size="16" lengthAdjust="spacingAndGlyphs" textLength="144" x="101.75" y="30.0469">ValidatedResource</text><line style="stroke: #E3ECEC; stroke-width: 1.5;" x1="7" x2="308" y1="40" y2="40"/><line style="stroke: #E3ECEC; stroke-width: 1.5;" x1="7" x2="308" y1="48" y2="48"/><ellipse cx="17" cy="62.4219" fill="#84BE84" rx="3" ry="3" style="stroke: #038048; stroke-width: 1.0;"/><text fill="#19273C" font-family="sans-serif" font-size="16" lengthAdjust="spacingAndGlyphs" textLength="277" x="26" y="67.4688">void setPropertyValue(string,string)</text><ellipse cx="17" cy="81.2656" fill="#84BE84" rx="3" ry="3" style="stroke: #038048; stroke-width: 1.0;"/><text fill="#19273C" font-family="sans-serif" font-size="16" lengthAdjust="spacingAndGlyphs" textLength="259" x="26" y="86.3125">void addArrayValue(string,string)</text><ellipse cx="17" cy="100.1094" fill="#84BE84" rx="3" ry="3" style="stroke: #038048; stroke-width: 1.0;"/><text fill="#19273C" font-family="sans-serif" font-size="16" lengthAdjust="spacingAndGlyphs" textLength="109" x="26" y="105.1563">void validate()</text><!--class Resource--><rect fill="#F8FAFA" height="48" rx="1" ry="1" style="stroke: #E3ECEC; stroke-width: 1.5;" width="103" x="106" y="173"/><ellipse cx="121" cy="189" fill="#FFFFFF" rx="11" ry="11" style="stroke: #E3ECEC; stroke-width: 1.0;"/><path d="M123.4453,194.6641 Q122.8984,194.9453 122.2969,195.0859 Q121.6953,195.2266 121.0313,195.2266 Q118.6719,195.2266 117.4297,193.6719 Q116.1875,192.1172 116.1875,189.1797 Q116.1875,186.2344 117.4297,184.6797 Q118.6719,183.125 121.0313,183.125 Q121.6953,183.125 122.3047,183.2656 Q122.9141,183.4063 123.4453,183.6875 L123.4453,186.25 Q122.8516,185.7031 122.293,185.4492 Q121.7344,185.1953 121.1406,185.1953 Q119.875,185.1953 119.2305,186.1992 Q118.5859,187.2031 118.5859,189.1797 Q118.5859,191.1484 119.2305,192.1523 Q119.875,193.1563 121.1406,193.1563 Q121.7344,193.1563 122.293,192.9023 Q122.8516,192.6484 123.4453,192.1016 Z "/><text fill="#19273C" font-family="sans-serif" font-size="16" lengthAdjust="spacingAndGlyphs" textLength="71" x="135" y="195.0469">Resource</text><line style="stroke: #E3ECEC; stroke-width: 1.5;" x1="107" x2="208" y1="205" y2="205"/><line style="stroke: #E3ECEC; stroke-width: 1.5;" x1="107" x2="208" y1="213" y2="213"/><path d="M157.5,113.2745 C157.5,126.2825 157.5,140.0823 157.5,152.6457 " fill="none" style="stroke: #3C6DF0; stroke-width: 1.0;"/><polygon fill="none" points="164.5001,152.8704,157.5,172.8703,150.5001,152.8703,164.5001,152.8704" style="stroke: #3C6DF0; stroke-width: 1.0;"/></g></svg>