<?xml version="1.0" encoding="UTF-8" standalone="no"?><svg xmlns="http://www.w3.org/2000/svg" xmlns:xlink="http://www.w3.org/1999/xlink" contentScriptType="application/ecmascript" contentStyleType="text/css" height="207px" preserveAspectRatio="none" style="width:262px;height:207px;" version="1.1" viewBox="0 0 262 207" width="262px" zoomAndPan="magnify"><defs/><g><!--class Wallet--><rect fill="#F8FAFA" height="198.75" rx="1" ry="1" style="stroke: #E3ECEC; stroke-width: 1.5;" width="255" x="6" y="8"/><ellipse cx="105.25" cy="24" fill="#FFFFFF" rx="11" ry="11" style="stroke: #E3ECEC; stroke-width: 1.0;"/><path d="M107.6953,29.6641 Q107.1484,29.9453 106.5469,30.0859 Q105.9453,30.2266 105.2813,30.2266 Q102.9219,30.2266 101.6797,28.6719 Q100.4375,27.1172 100.4375,24.1797 Q100.4375,21.2344 101.6797,19.6797 Q102.9219,18.125 105.2813,18.125 Q105.9453,18.125 106.5547,18.2656 Q107.1641,18.4063 107.6953,18.6875 L107.6953,21.25 Q107.1016,20.7031 106.543,20.4492 Q105.9844,20.1953 105.3906,20.1953 Q104.125,20.1953 103.4805,21.1992 Q102.8359,22.2031 102.8359,24.1797 Q102.8359,26.1484 103.4805,27.1523 Q104.125,28.1563 105.3906,28.1563 Q105.9844,28.1563 106.543,27.9023 Q107.1016,27.6484 107.6953,27.1016 Z "/><text fill="#19273C" font-family="sans-serif" font-size="16" lengthAdjust="spacingAndGlyphs" textLength="48" x="125.75" y="30.0469">Wallet</text><line style="stroke: #E3ECEC; stroke-width: 1.5;" x1="7" x2="260" y1="40" y2="40"/><line style="stroke: #E3ECEC; stroke-width: 1.5;" x1="7" x2="260" y1="48" y2="48"/><ellipse cx="17" cy="62.4219" fill="#84BE84" rx="3" ry="3" style="stroke: #038048; stroke-width: 1.0;"/><text fill="#19273C" font-family="sans-serif" font-size="16" lengthAdjust="spacingAndGlyphs" textLength="136" x="26" y="67.4688">Wallet getWallet()</text><ellipse cx="17" cy="81.2656" fill="#84BE84" rx="3" ry="3" style="stroke: #038048; stroke-width: 1.0;"/><text fill="#19273C" font-family="sans-serif" font-size="16" lengthAdjust="spacingAndGlyphs" textLength="167" x="26" y="86.3125">void setWallet(Wallet)</text><ellipse cx="17" cy="100.1094" fill="#84BE84" rx="3" ry="3" style="stroke: #038048; stroke-width: 1.0;"/><text fill="#19273C" font-family="sans-serif" font-size="16" lengthAdjust="spacingAndGlyphs" textLength="102" x="26" y="105.1563">Promise list()</text><ellipse cx="17" cy="118.9531" fill="#84BE84" rx="3" ry="3" style="stroke: #038048; stroke-width: 1.0;"/><text fill="#19273C" font-family="sans-serif" font-size="16" lengthAdjust="spacingAndGlyphs" textLength="190" x="26" y="124">Promise contains(string)</text><ellipse cx="17" cy="137.7969" fill="#84BE84" rx="3" ry="3" style="stroke: #038048; stroke-width: 1.0;"/><text fill="#19273C" font-family="sans-serif" font-size="16" lengthAdjust="spacingAndGlyphs" textLength="149" x="26" y="142.8438">Promise get(string)</text><ellipse cx="17" cy="156.6406" fill="#84BE84" rx="3" ry="3" style="stroke: #038048; stroke-width: 1.0;"/><text fill="#19273C" font-family="sans-serif" font-size="16" lengthAdjust="spacingAndGlyphs" textLength="204" x="26" y="161.6875">Promise add(string,string)</text><ellipse cx="17" cy="175.4844" fill="#84BE84" rx="3" ry="3" style="stroke: #038048; stroke-width: 1.0;"/><text fill="#19273C" font-family="sans-serif" font-size="16" lengthAdjust="spacingAndGlyphs" textLength="229" x="26" y="180.5313">Promise update(string,string)</text><ellipse cx="17" cy="194.3281" fill="#84BE84" rx="3" ry="3" style="stroke: #038048; stroke-width: 1.0;"/><text fill="#19273C" font-family="sans-serif" font-size="16" lengthAdjust="spacingAndGlyphs" textLength="182" x="26" y="199.375">Promise remove(string)</text></g></svg>