<svg xmlns="http://www.w3.org/2000/svg" viewBox="0 0 64 64"><path d="M25.931 15c-.494-3.945-3.852-7-7.931-7s-7.438 3.055-7.931 7H2v2h8.069c.493 3.945 3.852 7 7.931 7s7.437-3.055 7.931-7H62v-2H25.931zM18 18a2 2 0 1 1 .001-4.001A2 2 0 0 1 18 18zM46 24c-4.079 0-7.438 3.055-7.931 7H2v2h36.069c.493 3.945 3.852 7 7.931 7s7.437-3.055 7.931-7H62v-2h-8.069c-.494-3.945-3.852-7-7.931-7zm0 10a2 2 0 1 1 .001-4.001A2 2 0 0 1 46 34zM18 40c-4.079 0-7.438 3.055-7.931 7H2v2h8.069c.493 3.945 3.852 7 7.931 7s7.437-3.055 7.931-7H62v-2H25.931c-.494-3.945-3.852-7-7.931-7zm0 10a2 2 0 1 1 .001-4.001A2 2 0 0 1 18 50z"/></svg>