<svg xmlns="http://www.w3.org/2000/svg" viewBox="0 0 32 32"><path d="M12.858 7A3.99 3.99 0 0 0 9 4a3.99 3.99 0 0 0-3.858 3H1v2h4.142A3.99 3.99 0 0 0 9 12a3.99 3.99 0 0 0 3.858-3H31V7H12.858zM9 9a1 1 0 1 1 0-2 1 1 0 0 1 0 2zM23 12a3.99 3.99 0 0 0-3.858 3H1v2h18.142A3.99 3.99 0 0 0 23 20a3.99 3.99 0 0 0 3.858-3H31v-2h-4.142A3.99 3.99 0 0 0 23 12zm0 5a1 1 0 1 1 0-2 1 1 0 0 1 0 2zM9 20a3.99 3.99 0 0 0-3.858 3H1v2h4.142A3.99 3.99 0 0 0 9 28a3.99 3.99 0 0 0 3.858-3H31v-2H12.858A3.99 3.99 0 0 0 9 20zm0 5a1 1 0 1 1 0-2 1 1 0 0 1 0 2z"/></svg>