<svg xmlns="http://www.w3.org/2000/svg" viewBox="0 0 64 64"><path d="M2 8v48h60V8H2zm58 46H4V18h56v36z"/><path d="M32 48c8.969 0 15.801-4.835 20-12-4.199-7.165-11.031-12-20-12s-15.801 4.835-20 12c4.199 7.165 11.031 12 20 12zm0-22c7.253 0 13.48 3.54 17.652 10C45.48 42.46 39.253 46 32 46c-7.253 0-13.481-3.54-17.652-10C18.519 29.54 24.747 26 32 26z"/><path d="M32 43c3.867 0 7-3.133 7-7s-3.133-7-7-7c-3.863 0-7 3.133-7 7s3.137 7 7 7zm0-9.334c1.293 0 2.332 1.045 2.332 2.334S33.293 38.334 32 38.334 29.668 37.289 29.668 36s1.039-2.334 2.332-2.334z"/></svg>