<svg xmlns="http://www.w3.org/2000/svg" viewBox="0 0 128 128"><path d="M4 16v96h120V16H4zm116 92H8V36h112v72z"/><path d="M64 96c17.937 0 31.602-9.67 40-24-8.398-14.33-22.063-24-40-24-17.938 0-31.602 9.67-40 24 8.398 14.33 22.062 24 40 24zm0-44c14.506 0 26.961 7.08 35.305 20C90.961 84.92 78.506 92 64 92s-26.961-7.08-35.305-20C37.039 59.08 49.494 52 64 52z"/><path d="M64 86c7.734 0 14-6.266 14-14s-6.266-14-14-14c-7.727 0-14 6.266-14 14s6.273 14 14 14zm0-18.668c2.586 0 4.664 2.09 4.664 4.668S66.586 76.668 64 76.668s-4.664-2.09-4.664-4.668 2.078-4.668 4.664-4.668z"/></svg>