<?xml version="1.0" encoding="UTF-8" standalone="no"?><svg xmlns="http://www.w3.org/2000/svg" xmlns:xlink="http://www.w3.org/1999/xlink" contentScriptType="application/ecmascript" contentStyleType="text/css" height="448px" preserveAspectRatio="none" style="width:463px;height:448px;" version="1.1" viewBox="0 0 463 448" width="463px" zoomAndPan="magnify"><defs/><g><!--class AdminConnection--><rect fill="#F8FAFA" height="439.125" rx="1" ry="1" style="stroke: #E3ECEC; stroke-width: 1.5;" width="456" x="6" y="8.5"/><ellipse cx="161.25" cy="24.5" fill="#FFFFFF" rx="11" ry="11" style="stroke: #E3ECEC; stroke-width: 1.0;"/><path d="M163.7031,30.1563 Q163.1563,30.4375 162.5547,30.5859 Q161.9531,30.7344 161.2813,30.7344 Q158.9219,30.7344 157.6797,29.1719 Q156.4375,27.6094 156.4375,24.6719 Q156.4375,21.7344 157.6797,20.1797 Q158.9219,18.625 161.2813,18.625 Q161.9531,18.625 162.5625,18.7656 Q163.1719,18.9063 163.7031,19.1875 L163.7031,21.75 Q163.1094,21.2031 162.5469,20.9453 Q161.9844,20.6875 161.3906,20.6875 Q160.125,20.6875 159.4844,21.6953 Q158.8438,22.7031 158.8438,24.6719 Q158.8438,26.6406 159.4844,27.6484 Q160.125,28.6563 161.3906,28.6563 Q161.9844,28.6563 162.5469,28.3984 Q163.1094,28.1406 163.7031,27.5938 L163.7031,30.1563 Z "/><text fill="#19273C" font-family="sans-serif" font-size="16" lengthAdjust="spacingAndGlyphs" textLength="137" x="181.75" y="30.0391">AdminConnection</text><line style="stroke: #E3ECEC; stroke-width: 1.5;" x1="7" x2="461" y1="40.5" y2="40.5"/><line style="stroke: #E3ECEC; stroke-width: 1.5;" x1="7" x2="461" y1="48.5" y2="48.5"/><ellipse cx="17" cy="62.8125" fill="#84BE84" rx="3" ry="3" style="stroke: #038048; stroke-width: 1.0;"/><text fill="#19273C" font-family="sans-serif" font-size="16" lengthAdjust="spacingAndGlyphs" textLength="430" x="26" y="67.3516">void constructor(Object,ConnectionProfileStore,Object)</text><ellipse cx="17" cy="81.4375" fill="#84BE84" rx="3" ry="3" style="stroke: #038048; stroke-width: 1.0;"/><text fill="#19273C" font-family="sans-serif" font-size="16" lengthAdjust="spacingAndGlyphs" textLength="277" x="26" y="85.9766">Promise createProfile(string,Object)</text><ellipse cx="17" cy="100.0625" fill="#84BE84" rx="3" ry="3" style="stroke: #038048; stroke-width: 1.0;"/><text fill="#19273C" font-family="sans-serif" font-size="16" lengthAdjust="spacingAndGlyphs" textLength="219" x="26" y="104.6016">Promise deleteProfile(string)</text><ellipse cx="17" cy="118.6875" fill="#84BE84" rx="3" ry="3" style="stroke: #038048; stroke-width: 1.0;"/><text fill="#19273C" font-family="sans-serif" font-size="16" lengthAdjust="spacingAndGlyphs" textLength="198" x="26" y="123.2266">Promise getProfile(string)</text><ellipse cx="17" cy="137.3125" fill="#84BE84" rx="3" ry="3" style="stroke: #038048; stroke-width: 1.0;"/><text fill="#19273C" font-family="sans-serif" font-size="16" lengthAdjust="spacingAndGlyphs" textLength="179" x="26" y="141.8516">Promise getAllProfiles()</text><ellipse cx="17" cy="155.9375" fill="#84BE84" rx="3" ry="3" style="stroke: #038048; stroke-width: 1.0;"/><text fill="#19273C" font-family="sans-serif" font-size="16" lengthAdjust="spacingAndGlyphs" textLength="338" x="26" y="160.4766">Promise connect(string,string,string,string)</text><ellipse cx="17" cy="174.5625" fill="#84BE84" rx="3" ry="3" style="stroke: #038048; stroke-width: 1.0;"/><text fill="#19273C" font-family="sans-serif" font-size="16" lengthAdjust="spacingAndGlyphs" textLength="165" x="26" y="179.1016">Promise disconnect()</text><ellipse cx="17" cy="193.1875" fill="#84BE84" rx="3" ry="3" style="stroke: #038048; stroke-width: 1.0;"/><text fill="#19273C" font-family="sans-serif" font-size="16" lengthAdjust="spacingAndGlyphs" textLength="382" x="26" y="197.7266">Promise install(BusinessNetworkIdentifier,Object)</text><ellipse cx="17" cy="211.8125" fill="#84BE84" rx="3" ry="3" style="stroke: #038048; stroke-width: 1.0;"/><text fill="#19273C" font-family="sans-serif" font-size="16" lengthAdjust="spacingAndGlyphs" textLength="380" x="26" y="216.3516">Promise start(BusinessNetworkDefinition,Object)</text><ellipse cx="17" cy="230.4375" fill="#84BE84" rx="3" ry="3" style="stroke: #038048; stroke-width: 1.0;"/><text fill="#19273C" font-family="sans-serif" font-size="16" lengthAdjust="spacingAndGlyphs" textLength="394" x="26" y="234.9766">Promise deploy(BusinessNetworkDefinition,Object)</text><ellipse cx="17" cy="249.0625" fill="#84BE84" rx="3" ry="3" style="stroke: #038048; stroke-width: 1.0;"/><text fill="#19273C" font-family="sans-serif" font-size="16" lengthAdjust="spacingAndGlyphs" textLength="355" x="26" y="253.6016">Promise undeploy(BusinessNetworkIdentifier)</text><ellipse cx="17" cy="267.6875" fill="#84BE84" rx="3" ry="3" style="stroke: #038048; stroke-width: 1.0;"/><text fill="#19273C" font-family="sans-serif" font-size="16" lengthAdjust="spacingAndGlyphs" textLength="342" x="26" y="272.2266">Promise update(BusinessNetworkDefinition)</text><ellipse cx="17" cy="286.3125" fill="#84BE84" rx="3" ry="3" style="stroke: #038048; stroke-width: 1.0;"/><text fill="#19273C" font-family="sans-serif" font-size="16" lengthAdjust="spacingAndGlyphs" textLength="324" x="26" y="290.8516">Promise reset(BusinessNetworkIdentifier)</text><ellipse cx="17" cy="304.9375" fill="#84BE84" rx="3" ry="3" style="stroke: #038048; stroke-width: 1.0;"/><text fill="#19273C" font-family="sans-serif" font-size="16" lengthAdjust="spacingAndGlyphs" textLength="145" x="26" y="309.4766">Promise upgrade()</text><ellipse cx="17" cy="323.5625" fill="#84BE84" rx="3" ry="3" style="stroke: #038048; stroke-width: 1.0;"/><text fill="#19273C" font-family="sans-serif" font-size="16" lengthAdjust="spacingAndGlyphs" textLength="113" x="26" y="328.1016">Promise ping()</text><ellipse cx="17" cy="342.1875" fill="#84BE84" rx="3" ry="3" style="stroke: #038048; stroke-width: 1.0;"/><text fill="#19273C" font-family="sans-serif" font-size="16" lengthAdjust="spacingAndGlyphs" textLength="200" x="26" y="346.7266">Promise setLogLevel(any)</text><ellipse cx="17" cy="360.8125" fill="#84BE84" rx="3" ry="3" style="stroke: #038048; stroke-width: 1.0;"/><text fill="#19273C" font-family="sans-serif" font-size="16" lengthAdjust="spacingAndGlyphs" textLength="173" x="26" y="365.3516">Promise getLogLevel()</text><ellipse cx="17" cy="379.4375" fill="#84BE84" rx="3" ry="3" style="stroke: #038048; stroke-width: 1.0;"/><text fill="#19273C" font-family="sans-serif" font-size="16" lengthAdjust="spacingAndGlyphs" textLength="101" x="26" y="383.9766">Promise list()</text><ellipse cx="17" cy="398.0625" fill="#84BE84" rx="3" ry="3" style="stroke: #038048; stroke-width: 1.0;"/><text fill="#19273C" font-family="sans-serif" font-size="16" lengthAdjust="spacingAndGlyphs" textLength="384" x="26" y="402.6016">Promise importIdentity(string,string,string,string)</text><ellipse cx="17" cy="416.6875" fill="#84BE84" rx="3" ry="3" style="stroke: #038048; stroke-width: 1.0;"/><text fill="#19273C" font-family="sans-serif" font-size="16" lengthAdjust="spacingAndGlyphs" textLength="343" x="26" y="421.2266">Promise requestIdentity(string,string,string)</text><ellipse cx="17" cy="435.3125" fill="#84BE84" rx="3" ry="3" style="stroke: #038048; stroke-width: 1.0;"/><text fill="#19273C" font-family="sans-serif" font-size="16" lengthAdjust="spacingAndGlyphs" textLength="287" x="26" y="439.8516">Promise exportIdentity(String,String)</text></g></svg>