<?xml version="1.0" encoding="UTF-8" standalone="no"?><svg xmlns="http://www.w3.org/2000/svg" xmlns:xlink="http://www.w3.org/1999/xlink" contentScriptType="application/ecmascript" contentStyleType="text/css" height="349px" preserveAspectRatio="none" style="width:320px;height:349px;" version="1.1" viewBox="0 0 320 349" width="320px" zoomAndPan="magnify"><defs/><g><!--class BaseException--><rect fill="#F8FAFA" height="66.625" rx="1" ry="1" style="stroke: #E3ECEC; stroke-width: 1.5;" width="213" x="56" y="172.5"/><ellipse cx="100.75" cy="188.5" fill="#FFFFFF" rx="11" ry="11" style="stroke: #E3ECEC; stroke-width: 1.0;"/><path d="M103.2031,194.1563 Q102.6563,194.4375 102.0547,194.5859 Q101.4531,194.7344 100.7813,194.7344 Q98.4219,194.7344 97.1797,193.1719 Q95.9375,191.6094 95.9375,188.6719 Q95.9375,185.7344 97.1797,184.1797 Q98.4219,182.625 100.7813,182.625 Q101.4531,182.625 102.0625,182.7656 Q102.6719,182.9063 103.2031,183.1875 L103.2031,185.75 Q102.6094,185.2031 102.0469,184.9453 Q101.4844,184.6875 100.8906,184.6875 Q99.625,184.6875 98.9844,185.6953 Q98.3438,186.7031 98.3438,188.6719 Q98.3438,190.6406 98.9844,191.6484 Q99.625,192.6563 100.8906,192.6563 Q101.4844,192.6563 102.0469,192.3984 Q102.6094,192.1406 103.2031,191.5938 L103.2031,194.1563 Z "/><text fill="#19273C" font-family="sans-serif" font-size="16" lengthAdjust="spacingAndGlyphs" textLength="115" x="121.25" y="194.0391">BaseException</text><line style="stroke: #E3ECEC; stroke-width: 1.5;" x1="57" x2="268" y1="204.5" y2="204.5"/><line style="stroke: #E3ECEC; stroke-width: 1.5;" x1="57" x2="268" y1="212.5" y2="212.5"/><ellipse cx="67" cy="226.8125" fill="#84BE84" rx="3" ry="3" style="stroke: #038048; stroke-width: 1.0;"/><text fill="#19273C" font-family="sans-serif" font-size="16" lengthAdjust="spacingAndGlyphs" textLength="187" x="76" y="231.3516">void constructor(string)</text><!--class Error--><rect fill="#F8FAFA" height="48" rx="1" ry="1" style="stroke: #E3ECEC; stroke-width: 1.5;" width="73" x="126" y="300"/><ellipse cx="141" cy="316" fill="#FFFFFF" rx="11" ry="11" style="stroke: #E3ECEC; stroke-width: 1.0;"/><path d="M143.4531,321.6563 Q142.9063,321.9375 142.3047,322.0859 Q141.7031,322.2344 141.0313,322.2344 Q138.6719,322.2344 137.4297,320.6719 Q136.1875,319.1094 136.1875,316.1719 Q136.1875,313.2344 137.4297,311.6797 Q138.6719,310.125 141.0313,310.125 Q141.7031,310.125 142.3125,310.2656 Q142.9219,310.4063 143.4531,310.6875 L143.4531,313.25 Q142.8594,312.7031 142.2969,312.4453 Q141.7344,312.1875 141.1406,312.1875 Q139.875,312.1875 139.2344,313.1953 Q138.5938,314.2031 138.5938,316.1719 Q138.5938,318.1406 139.2344,319.1484 Q139.875,320.1563 141.1406,320.1563 Q141.7344,320.1563 142.2969,319.8984 Q142.8594,319.6406 143.4531,319.0938 L143.4531,321.6563 Z "/><text fill="#19273C" font-family="sans-serif" font-size="16" lengthAdjust="spacingAndGlyphs" textLength="41" x="155" y="321.5391">Error</text><line style="stroke: #E3ECEC; stroke-width: 1.5;" x1="127" x2="198" y1="332" y2="332"/><line style="stroke: #E3ECEC; stroke-width: 1.5;" x1="127" x2="198" y1="340" y2="340"/><!--class BaseFileException--><rect fill="#F8FAFA" height="103.875" rx="1" ry="1" style="stroke: #E3ECEC; stroke-width: 1.5;" width="313" x="6" y="8"/><ellipse cx="88.75" cy="24" fill="#FFFFFF" rx="11" ry="11" style="stroke: #E3ECEC; stroke-width: 1.0;"/><path d="M91.2031,29.6563 Q90.6563,29.9375 90.0547,30.0859 Q89.4531,30.2344 88.7813,30.2344 Q86.4219,30.2344 85.1797,28.6719 Q83.9375,27.1094 83.9375,24.1719 Q83.9375,21.2344 85.1797,19.6797 Q86.4219,18.125 88.7813,18.125 Q89.4531,18.125 90.0625,18.2656 Q90.6719,18.4063 91.2031,18.6875 L91.2031,21.25 Q90.6094,20.7031 90.0469,20.4453 Q89.4844,20.1875 88.8906,20.1875 Q87.625,20.1875 86.9844,21.1953 Q86.3438,22.2031 86.3438,24.1719 Q86.3438,26.1406 86.9844,27.1484 Q87.625,28.1563 88.8906,28.1563 Q89.4844,28.1563 90.0469,27.8984 Q90.6094,27.6406 91.2031,27.0938 L91.2031,29.6563 Z "/><text fill="#19273C" font-family="sans-serif" font-size="16" lengthAdjust="spacingAndGlyphs" textLength="139" x="109.25" y="29.5391">BaseFileException</text><line style="stroke: #E3ECEC; stroke-width: 1.5;" x1="7" x2="318" y1="40" y2="40"/><line style="stroke: #E3ECEC; stroke-width: 1.5;" x1="7" x2="318" y1="48" y2="48"/><ellipse cx="17" cy="62.3125" fill="#84BE84" rx="3" ry="3" style="stroke: #038048; stroke-width: 1.0;"/><text fill="#19273C" font-family="sans-serif" font-size="16" lengthAdjust="spacingAndGlyphs" textLength="287" x="26" y="66.8516">void constructor(string,string,string)</text><ellipse cx="17" cy="80.9375" fill="#84BE84" rx="3" ry="3" style="stroke: #038048; stroke-width: 1.0;"/><text fill="#19273C" font-family="sans-serif" font-size="16" lengthAdjust="spacingAndGlyphs" textLength="177" x="26" y="85.4766">string getFileLocation()</text><ellipse cx="17" cy="99.5625" fill="#84BE84" rx="3" ry="3" style="stroke: #038048; stroke-width: 1.0;"/><text fill="#19273C" font-family="sans-serif" font-size="16" lengthAdjust="spacingAndGlyphs" textLength="198" x="26" y="104.1016">string getShortMessage()</text><path d="M162.25,239.621 C162.25,252.0487 162.25,266.4125 162.25,279.6795 " fill="none" style="stroke: #3C6DF0; stroke-width: 1.0;"/><polygon fill="none" points="169.25,279.8078,162.25,299.8077,155.25,279.8077,169.25,279.8078" style="stroke: #3C6DF0; stroke-width: 1.0;"/><path d="M162.25,112.174 C162.25,125.174 162.25,139.165 162.25,152.243 " fill="none" style="stroke: #3C6DF0; stroke-width: 1.0;"/><polygon fill="none" points="169.25,152.403,162.25,172.403,155.25,152.403,169.25,152.403" style="stroke: #3C6DF0; stroke-width: 1.0;"/></g></svg>