<?xml version="1.0" encoding="UTF-8" standalone="no"?><svg xmlns="http://www.w3.org/2000/svg" xmlns:xlink="http://www.w3.org/1999/xlink" contentScriptType="application/ecmascript" contentStyleType="text/css" height="185px" preserveAspectRatio="none" style="width:587px;height:185px;" version="1.1" viewBox="0 0 587 185" width="587px" zoomAndPan="magnify"><defs/><g><!--class Historian--><rect fill="#F8FAFA" height="66.625" rx="1" ry="1" style="stroke: #E3ECEC; stroke-width: 1.5;" width="580" x="6" y="8.5"/><ellipse cx="257.25" cy="24.5" fill="#FFFFFF" rx="11" ry="11" style="stroke: #E3ECEC; stroke-width: 1.0;"/><path d="M259.7031,30.1563 Q259.1563,30.4375 258.5547,30.5859 Q257.9531,30.7344 257.2813,30.7344 Q254.9219,30.7344 253.6797,29.1719 Q252.4375,27.6094 252.4375,24.6719 Q252.4375,21.7344 253.6797,20.1797 Q254.9219,18.625 257.2813,18.625 Q257.9531,18.625 258.5625,18.7656 Q259.1719,18.9063 259.7031,19.1875 L259.7031,21.75 Q259.1094,21.2031 258.5469,20.9453 Q257.9844,20.6875 257.3906,20.6875 Q256.125,20.6875 255.4844,21.6953 Q254.8438,22.7031 254.8438,24.6719 Q254.8438,26.6406 255.4844,27.6484 Q256.125,28.6563 257.3906,28.6563 Q257.9844,28.6563 258.5469,28.3984 Q259.1094,28.1406 259.7031,27.5938 L259.7031,30.1563 Z "/><text fill="#19273C" font-family="sans-serif" font-size="16" lengthAdjust="spacingAndGlyphs" textLength="69" x="277.75" y="30.0391">Historian</text><line style="stroke: #E3ECEC; stroke-width: 1.5;" x1="7" x2="585" y1="40.5" y2="40.5"/><line style="stroke: #E3ECEC; stroke-width: 1.5;" x1="7" x2="585" y1="48.5" y2="48.5"/><ellipse cx="17" cy="62.8125" fill="#84BE84" rx="3" ry="3" style="stroke: #038048; stroke-width: 1.0;"/><text fill="#19273C" font-family="sans-serif" font-size="16" lengthAdjust="spacingAndGlyphs" textLength="554" x="26" y="67.3516">Promise getHistorian(SecurityContext,ModelManager,Factory,Serializer)</text><!--class Registry--><rect fill="#F8FAFA" height="48" rx="1" ry="1" style="stroke: #E3ECEC; stroke-width: 1.5;" width="96" x="248" y="136"/><ellipse cx="263" cy="152" fill="#FFFFFF" rx="11" ry="11" style="stroke: #E3ECEC; stroke-width: 1.0;"/><path d="M265.4531,157.6563 Q264.9063,157.9375 264.3047,158.0859 Q263.7031,158.2344 263.0313,158.2344 Q260.6719,158.2344 259.4297,156.6719 Q258.1875,155.1094 258.1875,152.1719 Q258.1875,149.2344 259.4297,147.6797 Q260.6719,146.125 263.0313,146.125 Q263.7031,146.125 264.3125,146.2656 Q264.9219,146.4063 265.4531,146.6875 L265.4531,149.25 Q264.8594,148.7031 264.2969,148.4453 Q263.7344,148.1875 263.1406,148.1875 Q261.875,148.1875 261.2344,149.1953 Q260.5938,150.2031 260.5938,152.1719 Q260.5938,154.1406 261.2344,155.1484 Q261.875,156.1563 263.1406,156.1563 Q263.7344,156.1563 264.2969,155.8984 Q264.8594,155.6406 265.4531,155.0938 L265.4531,157.6563 Z "/><text fill="#19273C" font-family="sans-serif" font-size="16" lengthAdjust="spacingAndGlyphs" textLength="64" x="277" y="157.5391">Registry</text><line style="stroke: #E3ECEC; stroke-width: 1.5;" x1="249" x2="343" y1="168" y2="168"/><line style="stroke: #E3ECEC; stroke-width: 1.5;" x1="249" x2="343" y1="176" y2="176"/><path d="M296,75.621 C296,88.0487 296,102.4125 296,115.6795 " fill="none" style="stroke: #3C6DF0; stroke-width: 1.0;"/><polygon fill="none" points="303,115.8078,296,135.8077,289,115.8077,303,115.8078" style="stroke: #3C6DF0; stroke-width: 1.0;"/></g></svg>