<?xml version="1.0" encoding="UTF-8" standalone="no"?><svg xmlns="http://www.w3.org/2000/svg" xmlns:xlink="http://www.w3.org/1999/xlink" contentScriptType="application/ecmascript" contentStyleType="text/css" height="112px" preserveAspectRatio="none" style="width:313px;height:112px;" version="1.1" viewBox="0 0 313 112" width="313px" zoomAndPan="magnify"><defs/><g><!--class SecurityContext--><rect fill="#F8FAFA" height="103.875" rx="1" ry="1" style="stroke: #E3ECEC; stroke-width: 1.5;" width="306" x="6" y="8"/><ellipse cx="92.25" cy="24" fill="#FFFFFF" rx="11" ry="11" style="stroke: #E3ECEC; stroke-width: 1.0;"/><path d="M94.7031,29.6563 Q94.1563,29.9375 93.5547,30.0859 Q92.9531,30.2344 92.2813,30.2344 Q89.9219,30.2344 88.6797,28.6719 Q87.4375,27.1094 87.4375,24.1719 Q87.4375,21.2344 88.6797,19.6797 Q89.9219,18.125 92.2813,18.125 Q92.9531,18.125 93.5625,18.2656 Q94.1719,18.4063 94.7031,18.6875 L94.7031,21.25 Q94.1094,20.7031 93.5469,20.4453 Q92.9844,20.1875 92.3906,20.1875 Q91.125,20.1875 90.4844,21.1953 Q89.8438,22.2031 89.8438,24.1719 Q89.8438,26.1406 90.4844,27.1484 Q91.125,28.1563 92.3906,28.1563 Q92.9844,28.1563 93.5469,27.8984 Q94.1094,27.6406 94.7031,27.0938 L94.7031,29.6563 Z "/><text fill="#19273C" font-family="sans-serif" font-size="16" lengthAdjust="spacingAndGlyphs" textLength="125" x="112.75" y="29.5391">SecurityContext</text><line style="stroke: #E3ECEC; stroke-width: 1.5;" x1="7" x2="311" y1="40" y2="40"/><line style="stroke: #E3ECEC; stroke-width: 1.5;" x1="7" x2="311" y1="48" y2="48"/><ellipse cx="17" cy="62.3125" fill="#84BE84" rx="3" ry="3" style="stroke: #038048; stroke-width: 1.0;"/><text fill="#19273C" font-family="sans-serif" font-size="16" lengthAdjust="spacingAndGlyphs" textLength="280" x="26" y="66.8516">void constructor(Connection,string)</text><ellipse cx="17" cy="80.9375" fill="#84BE84" rx="3" ry="3" style="stroke: #038048; stroke-width: 1.0;"/><text fill="#19273C" font-family="sans-serif" font-size="16" lengthAdjust="spacingAndGlyphs" textLength="218" x="26" y="85.4766">Connection getConnection()</text><ellipse cx="17" cy="99.5625" fill="#84BE84" rx="3" ry="3" style="stroke: #038048; stroke-width: 1.0;"/><text fill="#19273C" font-family="sans-serif" font-size="16" lengthAdjust="spacingAndGlyphs" textLength="124" x="26" y="104.1016">string getUser()</text></g></svg>