<?xml version="1.0" encoding="utf-8"?>
<!-- Generator: Adobe Illustrator 22.0.1, SVG Export Plug-In . SVG Version: 6.00 Build 0)  -->
<svg version="1.1" id="Layer_1" xmlns="http://www.w3.org/2000/svg" xmlns:xlink="http://www.w3.org/1999/xlink" x="0px" y="0px"
	 width="30.7px" height="30.7px" viewBox="0 0 30.7 30.7" style="enable-background:new 0 0 30.7 30.7;" xml:space="preserve">
<g>
	<path d="M1.5,30.7c0.1,0,0.2,0,0.4,0l5.9-1.5c0.8-0.2,1.3-1,1.1-1.8c-0.2-0.8-1-1.3-1.8-1.1l-3.6,0.9l0.8-3.8
		c0.2-0.8-0.4-1.6-1.2-1.8c-0.8-0.2-1.6,0.4-1.8,1.2L0,28.9c-0.1,0.5,0.1,1,0.4,1.4C0.7,30.6,1.1,30.7,1.5,30.7z"/>
	<path d="M10.4,25.2c0.3,0.3,0.7,0.4,1.1,0.4c0.4,0,0.8-0.1,1.1-0.4L30.3,7.5c0.6-0.6,0.6-1.5,0-2.1l-4.9-4.9
		C25.1,0.2,24.7,0,24.3,0c-0.4,0-0.8,0.2-1.1,0.4L5.5,18.2c-0.3,0.3-0.4,0.7-0.4,1.1s0.2,0.8,0.4,1.1L10.4,25.2z M24.3,3.6l2.8,2.8
		L11.5,22l-2.8-2.8L24.3,3.6z"/>
</g>
</svg>
