<?xml version="1.0" encoding="utf-8"?>
<!-- Generator: Adobe Illustrator 22.0.1, SVG Export Plug-In . SVG Version: 6.00 Build 0)  -->
<svg version="1.1" id="Layer_1" xmlns="http://www.w3.org/2000/svg" xmlns:xlink="http://www.w3.org/1999/xlink" x="0px" y="0px"
	 width="34px" height="34px" viewBox="0 0 34 34" style="enable-background:new 0 0 34 34;" xml:space="preserve">
<title>Delete 13.4</title>
<desc>Created with Sketch.</desc>
<g>
	<g>
		<path d="M17,34C7.6,34,0,26.4,0,17S7.6,0,17,0s17,7.6,17,17S26.4,34,17,34z M19.8,17L19.8,17l4.6-4.6c0.8-0.8,0.8-2,0-2.8
			c-0.8-0.8-2-0.8-2.8,0L17,14.2l-4.6-4.6c-0.8-0.8-2-0.8-2.8,0c-0.8,0.8-0.8,2,0,2.8l4.6,4.6l-4.6,4.6c-0.8,0.8-0.8,2,0,2.8
			c0.8,0.8,2,0.8,2.8,0l4.6-4.6l4.6,4.6c0.8,0.8,2,0.8,2.8,0c0.8-0.8,0.8-2,0-2.8L19.8,17z"/>
	</g>
</g>
</svg>
