<?xml version="1.0" encoding="utf-8"?>
<!-- Generator: Adobe Illustrator 22.0.1, SVG Export Plug-In . SVG Version: 6.00 Build 0)  -->
<svg version="1.1" id="Layer_1" xmlns:sketch="http://www.bohemiancoding.com/sketch/ns"
	 xmlns="http://www.w3.org/2000/svg" xmlns:xlink="http://www.w3.org/1999/xlink" x="0px" y="0px" width="28px" height="28px"
	 viewBox="0 0 28 28" style="enable-background:new 0 0 28 28;" xml:space="preserve">
<title>success</title>
<desc>Created with Sketch.</desc>
<g sketch:type="MSPage">
	<g sketch:type="MSArtboardGroup">
		<path sketch:type="MSShapeGroup" d="M14,0C6.3,0,0,6.3,0,14s6.3,14,14,14s14-6.3,14-14S21.7,0,14,0L14,0z M20.9,11.9l-7.5,7.5
			c-0.9,0.9-2.3,1-3.2,0.1c-0.1-0.1-0.2-0.3-0.3-0.4L6.9,16c-0.9-0.9-1-2.3-0.1-3.2C7.6,12,9,12,9.9,12.9l1.9,1.9l6-6
			c0.9-0.9,2.3-1,3.2-0.1C21.8,9.6,21.8,11,20.9,11.9L20.9,11.9z"/>
	</g>
</g>
</svg>
