<?xml version="1.0" encoding="UTF-8"?>
<svg width="545px" height="406px" viewBox="0 0 545 406" version="1.1" xmlns="http://www.w3.org/2000/svg" xmlns:xlink="http://www.w3.org/1999/xlink">
    <!-- Generator: Sketch 42 (36781) - http://www.bohemiancoding.com/sketch -->
    <title>Group 3</title>
    <desc>Created with Sketch.</desc>
    <defs>
        <path d="M0.170428833,15.0028479 C0.0600765816,15.3151569 0,15.6511544 0,16.0011448 L0,325.998855 C0,327.659804 1.34367115,329 3.00117352,329 L521.998826,329 C523.652611,329 525,327.656342 525,325.998855 L525,16.0011448 C525,14.3401957 523.656329,13 521.998826,13 L54,13 L54,3.00012623 C54,1.33396149 52.6570508,0 51.0004391,0 L2.99956092,0 C1.33483887,0 0,1.34320226 0,3.00012623 L0,13.9998738 C0,14.3522116 0.0600540463,14.689694 0.170428833,15.0028479 Z" id="path-1"></path>
        <filter x="-50%" y="-50%" width="200%" height="200%" filterUnits="objectBoundingBox" id="filter-2">
            <feOffset dx="0" dy="2" in="SourceAlpha" result="shadowOffsetOuter1"></feOffset>
            <feGaussianBlur stdDeviation="5" in="shadowOffsetOuter1" result="shadowBlurOuter1"></feGaussianBlur>
            <feColorMatrix values="0 0 0 0 0   0 0 0 0 0   0 0 0 0 0  0 0 0 0.3 0" type="matrix" in="shadowBlurOuter1"></feColorMatrix>
        </filter>
        <circle id="path-3" cx="105.5" cy="105.5" r="105.5"></circle>
    </defs>
    <g id="Page-1" stroke="none" stroke-width="1" fill="none" fill-rule="evenodd">
        <g id="Desktop-Copy-2" transform="translate(-584.000000, -220.000000)">
            <g id="Group-3" transform="translate(594.000000, 228.000000)">
                <rect id="Rectangle-10" fill="#D8D8D8" x="47" y="0" width="54" height="17" rx="3"></rect>
                <g id="Combined-Shape">
                    <use fill="black" fill-opacity="1" filter="url(#filter-2)" xlink:href="#path-1"></use>
                    <use fill="#424747" fill-rule="evenodd" xlink:href="#path-1"></use>
                </g>
                <rect id="Rectangle-11" fill="#B8C1C1" x="16" y="35" width="77" height="8"></rect>
                <rect id="Rectangle-11-Copy-10" fill="#B8C1C1" x="16" y="132" width="77" height="8"></rect>
                <rect id="Rectangle-11-Copy-31" fill="#B8C1C1" x="101" y="132" width="35" height="8"></rect>
                <rect id="Rectangle-11-Copy-9" fill="#B8C1C1" x="16" y="107" width="77" height="8"></rect>
                <rect id="Rectangle-11-Copy-11" fill="#B8C1C1" x="16" y="204" width="77" height="8"></rect>
                <rect id="Rectangle-11-Copy-7" fill="#B8C1C1" x="55" y="89" width="77" height="8"></rect>
                <rect id="Rectangle-11-Copy-12" fill="#B8C1C1" x="55" y="186" width="77" height="8"></rect>
                <rect id="Rectangle-11-Copy-8" fill="#FFD191" x="140" y="89" width="45" height="8"></rect>
                <rect id="Rectangle-11-Copy-13" fill="#FFD191" x="140" y="186" width="45" height="8"></rect>
                <rect id="Rectangle-11-Copy-30" fill="#FFD191" x="193" y="186" width="20" height="8"></rect>
                <rect id="Rectangle-11-Copy-3" fill="#71CDDD" x="201" y="53" width="77" height="8"></rect>
                <rect id="Rectangle-11-Copy-14" fill="#71CDDD" x="201" y="150" width="45" height="8"></rect>
                <rect id="Rectangle-11-Copy-4" fill="#71CDDD" x="201" y="71" width="77" height="8"></rect>
                <rect id="Rectangle-11-Copy-15" fill="#71CDDD" x="201" y="168" width="150" height="8"></rect>
                <rect id="Rectangle-11-Copy" fill="#648FFF" x="55" y="53" width="100" height="8"></rect>
                <rect id="Rectangle-11-Copy-16" fill="#648FFF" x="55" y="150" width="100" height="8"></rect>
                <rect id="Rectangle-11-Copy-5" fill="#648FFF" x="55" y="71" width="100" height="8"></rect>
                <rect id="Rectangle-11-Copy-17" fill="#648FFF" x="55" y="168" width="100" height="8"></rect>
                <rect id="Rectangle-11-Copy-2" fill="#FFD191" x="163" y="53" width="30" height="8"></rect>
                <rect id="Rectangle-11-Copy-18" fill="#FFD191" x="163" y="150" width="30" height="8"></rect>
                <rect id="Rectangle-11-Copy-6" fill="#FFD191" x="163" y="71" width="30" height="8"></rect>
                <rect id="Rectangle-11-Copy-19" fill="#FFD191" x="163" y="168" width="30" height="8"></rect>
                <rect id="Rectangle-11-Copy-29" fill="#B8C1C1" x="16" y="229" width="45" height="8"></rect>
                <rect id="Rectangle-11-Copy-28" fill="#B8C1C1" x="16" y="301" width="45" height="8"></rect>
                <rect id="Rectangle-11-Copy-32" fill="#B8C1C1" x="69" y="301" width="15" height="8"></rect>
                <rect id="Rectangle-11-Copy-27" fill="#B8C1C1" x="55" y="283" width="77" height="8"></rect>
                <rect id="Rectangle-11-Copy-26" fill="#FFD191" x="140" y="283" width="45" height="8"></rect>
                <rect id="Rectangle-11-Copy-25" fill="#71CDDD" x="201" y="247" width="120" height="8"></rect>
                <rect id="Rectangle-11-Copy-24" fill="#71CDDD" x="201" y="265" width="77" height="8"></rect>
                <rect id="Rectangle-11-Copy-23" fill="#648FFF" x="55" y="247" width="100" height="8"></rect>
                <rect id="Rectangle-11-Copy-22" fill="#648FFF" x="55" y="265" width="100" height="8"></rect>
                <rect id="Rectangle-11-Copy-21" fill="#FFD191" x="163" y="247" width="30" height="8"></rect>
                <rect id="Rectangle-11-Copy-20" fill="#FFD191" x="163" y="265" width="30" height="8"></rect>
                <g id="participant-Person-i-Copy" transform="translate(253.000000, 186.000000)">
                    <mask id="mask-4" fill="white">
                        <use xlink:href="#path-3"></use>
                    </mask>
                    <use id="Mask" stroke="#FFFFFF" stroke-width="2" fill="#424747" xlink:href="#path-3"></use>
                    <text id="'use-strict';-/**-Pr" mask="url(#mask-4)" font-family="SourceCodePro-Regular, Source Code Pro" font-size="14" font-weight="normal" line-spacing="16">
                        <tspan x="0" y="12" fill="#FFFFFF">'use strict';</tspan>
                        <tspan x="0.35" y="30.3279419" fill="#FFFFFF"></tspan>
                        <tspan x="0" y="48" fill="#FFFFFF">/** Process a property that is held for sale</tspan>
                        <tspan x="0" y="66" fill="#FFFFFF"> * </tspan>
                        <tspan x="25.2" y="66" fill="#648FFF">@param {net.biz.digitalPropertyNetwork.Regi</tspan>
                        <tspan x="386.4" y="66" fill="#FFFFFF">sterPropertyForSale} </tspan>
                        <tspan x="0" y="82" fill="#FFFFFF">propertyForSale the property to be sold</tspan>
                        <tspan x="0" y="100" fill="#FFFFFF"> * </tspan>
                        <tspan x="25.2" y="100" fill="#648FFF">@transaction</tspan>
                        <tspan x="0" y="118" fill="#FFFFFF"> */</tspan>
                        <tspan x="0" y="136" fill="#FFD191">function onRegisterPropertyForSale(propertyForSale) {</tspan>
                        <tspan x="0" y="154" fill="#FFFFFF">    </tspan>
                        <tspan x="33.6" y="154" fill="#FFD191">console.log</tspan>
                        <tspan x="126" y="154" fill="#FFFFFF">('### onRegisterPropertyForSale ' + </tspan>
                        <tspan x="0" y="170" fill="#FFD191">propertyForSale.toString</tspan>
                        <tspan x="201.6" y="170" fill="#FFFFFF">());</tspan>
                        <tspan x="0" y="188" fill="#FFFFFF">    propertyForSale.title.forSale = true;</tspan>
                        <tspan x="0.35" y="206.327942" fill="#FFFFFF"></tspan>
                        <tspan x="0" y="224" fill="#FFFFFF">    /* new line is here to update the information */</tspan>
                        <tspan x="0" y="242" fill="#FFFFFF">    propertyForSale.title.information = </tspan>
                        <tspan x="0" y="258" fill="#FFFFFF">propertyForSale.title.information + ' Updated at: ' + new </tspan>
                        <tspan x="0" y="274" fill="#FFFFFF">Date().toDateString();</tspan>
                        <tspan x="0.35" y="292.327942" fill="#FFFFFF"></tspan>
                        <tspan x="0" y="310" fill="#FFFFFF">    return </tspan>
                        <tspan x="0" y="326" fill="#FFFFFF">getAssetRegistry('net.biz.digitalPropertyNetwork.LandTitle').then(fun</tspan>
                        <tspan x="0" y="342" fill="#FFFFFF">ction(result) {</tspan>
                        <tspan x="0" y="360" fill="#FFFFFF">            return result.update(propertyForSale.title);</tspan>
                        <tspan x="0" y="378" fill="#FFFFFF">        }</tspan>
                        <tspan x="0" y="396" fill="#FFFFFF">    );</tspan>
                        <tspan x="0" y="414" fill="#FFFFFF">}</tspan>
                    </text>
                </g>
            </g>
        </g>
    </g>
</svg>
