<?xml version="1.0" encoding="UTF-8" standalone="no"?><svg xmlns="http://www.w3.org/2000/svg" xmlns:xlink="http://www.w3.org/1999/xlink" contentScriptType="application/ecmascript" contentStyleType="text/css" height="169px" preserveAspectRatio="none" style="width:144px;height:169px;" version="1.1" viewBox="0 0 144 169" width="144px" zoomAndPan="magnify"><defs/><g><!--class BaseException--><rect fill="#F8FAFA" height="55.6406" rx="1" ry="1" style="stroke: #E3ECEC; stroke-width: 1.5;" width="137" x="6" y="8"/><ellipse cx="35.65" cy="22" fill="#FFFFFF" rx="9" ry="9" style="stroke: #E3ECEC; stroke-width: 1.0;"/><path d="M36.9313,25.2969 Q36.5875,25.4688 36.2125,25.5547 Q35.8375,25.6406 35.4156,25.6406 Q33.9469,25.6406 33.1734,24.6719 Q32.4,23.7031 32.4,21.8594 Q32.4,20.0156 33.1734,19.0469 Q33.9469,18.0781 35.4156,18.0781 Q35.8375,18.0781 36.2203,18.1641 Q36.6031,18.25 36.9313,18.4219 L36.9313,20.0313 Q36.5563,19.6875 36.2047,19.5313 Q35.8531,19.375 35.4938,19.375 Q34.6969,19.375 34.2906,20 Q33.8844,20.625 33.8844,21.8594 Q33.8844,23.0938 34.2906,23.7188 Q34.6969,24.3438 35.4938,24.3438 Q35.8531,24.3438 36.2047,24.1875 Q36.5563,24.0313 36.9313,23.6875 L36.9313,25.2969 Z "/><text fill="#19273C" font-family="Open Sans" font-size="10" lengthAdjust="spacingAndGlyphs" textLength="72" x="51.35" y="25.4619">BaseException</text><line style="stroke: #E3ECEC; stroke-width: 1.5;" x1="7" x2="142" y1="36" y2="36"/><line style="stroke: #E3ECEC; stroke-width: 1.5;" x1="7" x2="142" y1="44" y2="44"/><ellipse cx="16" cy="55.3203" fill="#84BE84" rx="2" ry="2" style="stroke: #038048; stroke-width: 1.0;"/><text fill="#19273C" font-family="Open Sans" font-size="10" lengthAdjust="spacingAndGlyphs" textLength="113" x="24" y="57.2822">void constructor(string)</text><!--class Error--><rect fill="#F8FAFA" height="44" rx="1" ry="1" style="stroke: #E3ECEC; stroke-width: 1.5;" width="53" x="48" y="124"/><ellipse cx="61" cy="138" fill="#FFFFFF" rx="9" ry="9" style="stroke: #E3ECEC; stroke-width: 1.0;"/><path d="M62.2813,141.2969 Q61.9375,141.4688 61.5625,141.5547 Q61.1875,141.6406 60.7656,141.6406 Q59.2969,141.6406 58.5234,140.6719 Q57.75,139.7031 57.75,137.8594 Q57.75,136.0156 58.5234,135.0469 Q59.2969,134.0781 60.7656,134.0781 Q61.1875,134.0781 61.5703,134.1641 Q61.9531,134.25 62.2813,134.4219 L62.2813,136.0313 Q61.9063,135.6875 61.5547,135.5313 Q61.2031,135.375 60.8438,135.375 Q60.0469,135.375 59.6406,136 Q59.2344,136.625 59.2344,137.8594 Q59.2344,139.0938 59.6406,139.7188 Q60.0469,140.3438 60.8438,140.3438 Q61.2031,140.3438 61.5547,140.1875 Q61.9063,140.0313 62.2813,139.6875 L62.2813,141.2969 Z "/><text fill="#19273C" font-family="Open Sans" font-size="10" lengthAdjust="spacingAndGlyphs" textLength="25" x="73" y="141.4619">Error</text><line style="stroke: #E3ECEC; stroke-width: 1.5;" x1="49" x2="100" y1="152" y2="152"/><line style="stroke: #E3ECEC; stroke-width: 1.5;" x1="49" x2="100" y1="160" y2="160"/><path d="M74.5,64.253 C74.5,76.2468 74.5,90.5959 74.5,103.8488 " fill="none" style="stroke: #3C6DF0; stroke-width: 1.0;"/><polygon fill="none" points="81.5001,103.888,74.5,123.888,67.5001,103.888,81.5001,103.888" style="stroke: #3C6DF0; stroke-width: 1.0;"/></g></svg>