<?xml version="1.0" encoding="UTF-8" standalone="no"?><svg xmlns="http://www.w3.org/2000/svg" xmlns:xlink="http://www.w3.org/1999/xlink" contentScriptType="application/ecmascript" contentStyleType="text/css" height="470px" preserveAspectRatio="none" style="width:1271px;height:470px;" version="1.1" viewBox="0 0 1271 470" width="1271px" zoomAndPan="magnify"><defs/><g><!--class Introspector--><rect fill="#F8FAFA" height="78.9219" rx="1" ry="1" style="stroke: #E3ECEC; stroke-width: 1.5;" width="242" x="37" y="31"/><ellipse cx="124.75" cy="45" fill="#FFFFFF" rx="9" ry="9" style="stroke: #E3ECEC; stroke-width: 1.0;"/><path d="M126.0313,48.2969 Q125.6875,48.4688 125.3125,48.5547 Q124.9375,48.6406 124.5156,48.6406 Q123.0469,48.6406 122.2734,47.6719 Q121.5,46.7031 121.5,44.8594 Q121.5,43.0156 122.2734,42.0469 Q123.0469,41.0781 124.5156,41.0781 Q124.9375,41.0781 125.3203,41.1641 Q125.7031,41.25 126.0313,41.4219 L126.0313,43.0313 Q125.6563,42.6875 125.3047,42.5313 Q124.9531,42.375 124.5938,42.375 Q123.7969,42.375 123.3906,43 Q122.9844,43.625 122.9844,44.8594 Q122.9844,46.0938 123.3906,46.7188 Q123.7969,47.3438 124.5938,47.3438 Q124.9531,47.3438 125.3047,47.1875 Q125.6563,47.0313 126.0313,46.6875 L126.0313,48.2969 Z "/><text fill="#19273C" font-family="Open Sans" font-size="10" lengthAdjust="spacingAndGlyphs" textLength="59" x="142.25" y="48.4619">Introspector</text><line style="stroke: #E3ECEC; stroke-width: 1.5;" x1="38" x2="278" y1="59" y2="59"/><line style="stroke: #E3ECEC; stroke-width: 1.5;" x1="38" x2="278" y1="67" y2="67"/><ellipse cx="47" cy="78.3203" fill="#84BE84" rx="2" ry="2" style="stroke: #038048; stroke-width: 1.0;"/><text fill="#19273C" font-family="Open Sans" font-size="10" lengthAdjust="spacingAndGlyphs" textLength="158" x="55" y="80.2822">void constructor(ModelManager)</text><ellipse cx="47" cy="89.9609" fill="#84BE84" rx="2" ry="2" style="stroke: #038048; stroke-width: 1.0;"/><text fill="#19273C" font-family="Open Sans" font-size="10" lengthAdjust="spacingAndGlyphs" textLength="202" x="55" y="91.9229">ClassDeclaration[] getClassDeclarations()</text><ellipse cx="47" cy="101.6016" fill="#84BE84" rx="2" ry="2" style="stroke: #038048; stroke-width: 1.0;"/><text fill="#19273C" font-family="Open Sans" font-size="10" lengthAdjust="spacingAndGlyphs" textLength="218" x="55" y="103.5635">ClassDeclaration getClassDeclaration(String)</text><!--class Relationship--><rect fill="#F8FAFA" height="67.2813" rx="1" ry="1" style="stroke: #E3ECEC; stroke-width: 1.5;" width="138" x="704" y="245.5"/><ellipse cx="740.4" cy="259.5" fill="#FFFFFF" rx="9" ry="9" style="stroke: #E3ECEC; stroke-width: 1.0;"/><path d="M741.6813,262.7969 Q741.3375,262.9688 740.9625,263.0547 Q740.5875,263.1406 740.1656,263.1406 Q738.6969,263.1406 737.9234,262.1719 Q737.15,261.2031 737.15,259.3594 Q737.15,257.5156 737.9234,256.5469 Q738.6969,255.5781 740.1656,255.5781 Q740.5875,255.5781 740.9703,255.6641 Q741.3531,255.75 741.6813,255.9219 L741.6813,257.5313 Q741.3063,257.1875 740.9547,257.0313 Q740.6031,256.875 740.2438,256.875 Q739.4469,256.875 739.0406,257.5 Q738.6344,258.125 738.6344,259.3594 Q738.6344,260.5938 739.0406,261.2188 Q739.4469,261.8438 740.2438,261.8438 Q740.6031,261.8438 740.9547,261.6875 Q741.3063,261.5313 741.6813,261.1875 L741.6813,262.7969 Z "/><text fill="#19273C" font-family="Open Sans" font-size="10" lengthAdjust="spacingAndGlyphs" textLength="58" x="757.6" y="262.9619">Relationship</text><line style="stroke: #E3ECEC; stroke-width: 1.5;" x1="705" x2="841" y1="273.5" y2="273.5"/><line style="stroke: #E3ECEC; stroke-width: 1.5;" x1="705" x2="841" y1="281.5" y2="281.5"/><ellipse cx="714" cy="292.8203" fill="#84BE84" rx="2" ry="2" style="stroke: #038048; stroke-width: 1.0;"/><text fill="#19273C" font-family="Open Sans" font-size="10" lengthAdjust="spacingAndGlyphs" textLength="79" x="722" y="294.7822">String toString()</text><ellipse cx="714" cy="304.4609" fill="#84BE84" rx="2" ry="2" style="stroke: #038048; stroke-width: 1.0;"/><text fill="#19273C" font-family="Open Sans" font-size="10" lengthAdjust="spacingAndGlyphs" textLength="114" x="722" y="306.4229">boolean isRelationship()</text><!--class Identifiable--><rect fill="#F8FAFA" height="44" rx="1" ry="1" style="stroke: #E3ECEC; stroke-width: 1.5;" width="81" x="816.5" y="425"/><ellipse cx="829.5" cy="439" fill="#FFFFFF" rx="9" ry="9" style="stroke: #E3ECEC; stroke-width: 1.0;"/><path d="M830.7813,442.2969 Q830.4375,442.4688 830.0625,442.5547 Q829.6875,442.6406 829.2656,442.6406 Q827.7969,442.6406 827.0234,441.6719 Q826.25,440.7031 826.25,438.8594 Q826.25,437.0156 827.0234,436.0469 Q827.7969,435.0781 829.2656,435.0781 Q829.6875,435.0781 830.0703,435.1641 Q830.4531,435.25 830.7813,435.4219 L830.7813,437.0313 Q830.4063,436.6875 830.0547,436.5313 Q829.7031,436.375 829.3438,436.375 Q828.5469,436.375 828.1406,437 Q827.7344,437.625 827.7344,438.8594 Q827.7344,440.0938 828.1406,440.7188 Q828.5469,441.3438 829.3438,441.3438 Q829.7031,441.3438 830.0547,441.1875 Q830.4063,441.0313 830.7813,440.6875 L830.7813,442.2969 Z "/><text fill="#19273C" font-family="Open Sans" font-size="10" lengthAdjust="spacingAndGlyphs" textLength="53" x="841.5" y="442.4619">Identifiable</text><line style="stroke: #E3ECEC; stroke-width: 1.5;" x1="817.5" x2="896.5" y1="453" y2="453"/><line style="stroke: #E3ECEC; stroke-width: 1.5;" x1="817.5" x2="896.5" y1="461" y2="461"/><!--class Resource--><rect fill="#F8FAFA" height="67.2813" rx="1" ry="1" style="stroke: #E3ECEC; stroke-width: 1.5;" width="125" x="877.5" y="245.5"/><ellipse cx="913.9" cy="259.5" fill="#FFFFFF" rx="9" ry="9" style="stroke: #E3ECEC; stroke-width: 1.0;"/><path d="M915.1813,262.7969 Q914.8375,262.9688 914.4625,263.0547 Q914.0875,263.1406 913.6656,263.1406 Q912.1969,263.1406 911.4234,262.1719 Q910.65,261.2031 910.65,259.3594 Q910.65,257.5156 911.4234,256.5469 Q912.1969,255.5781 913.6656,255.5781 Q914.0875,255.5781 914.4703,255.6641 Q914.8531,255.75 915.1813,255.9219 L915.1813,257.5313 Q914.8063,257.1875 914.4547,257.0313 Q914.1031,256.875 913.7438,256.875 Q912.9469,256.875 912.5406,257.5 Q912.1344,258.125 912.1344,259.3594 Q912.1344,260.5938 912.5406,261.2188 Q912.9469,261.8438 913.7438,261.8438 Q914.1031,261.8438 914.4547,261.6875 Q914.8063,261.5313 915.1813,261.1875 L915.1813,262.7969 Z "/><text fill="#19273C" font-family="Open Sans" font-size="10" lengthAdjust="spacingAndGlyphs" textLength="45" x="931.1" y="262.9619">Resource</text><line style="stroke: #E3ECEC; stroke-width: 1.5;" x1="878.5" x2="1001.5" y1="273.5" y2="273.5"/><line style="stroke: #E3ECEC; stroke-width: 1.5;" x1="878.5" x2="1001.5" y1="281.5" y2="281.5"/><ellipse cx="887.5" cy="292.8203" fill="#84BE84" rx="2" ry="2" style="stroke: #038048; stroke-width: 1.0;"/><text fill="#19273C" font-family="Open Sans" font-size="10" lengthAdjust="spacingAndGlyphs" textLength="79" x="895.5" y="294.7822">String toString()</text><ellipse cx="887.5" cy="304.4609" fill="#84BE84" rx="2" ry="2" style="stroke: #038048; stroke-width: 1.0;"/><text fill="#19273C" font-family="Open Sans" font-size="10" lengthAdjust="spacingAndGlyphs" textLength="101" x="895.5" y="306.4229">boolean isResource()</text><!--class ValidatedResource--><rect fill="#F8FAFA" height="78.9219" rx="1" ry="1" style="stroke: #E3ECEC; stroke-width: 1.5;" width="197" x="841.5" y="31"/><ellipse cx="891.25" cy="45" fill="#FFFFFF" rx="9" ry="9" style="stroke: #E3ECEC; stroke-width: 1.0;"/><path d="M892.5313,48.2969 Q892.1875,48.4688 891.8125,48.5547 Q891.4375,48.6406 891.0156,48.6406 Q889.5469,48.6406 888.7734,47.6719 Q888,46.7031 888,44.8594 Q888,43.0156 888.7734,42.0469 Q889.5469,41.0781 891.0156,41.0781 Q891.4375,41.0781 891.8203,41.1641 Q892.2031,41.25 892.5313,41.4219 L892.5313,43.0313 Q892.1563,42.6875 891.8047,42.5313 Q891.4531,42.375 891.0938,42.375 Q890.2969,42.375 889.8906,43 Q889.4844,43.625 889.4844,44.8594 Q889.4844,46.0938 889.8906,46.7188 Q890.2969,47.3438 891.0938,47.3438 Q891.4531,47.3438 891.8047,47.1875 Q892.1563,47.0313 892.5313,46.6875 L892.5313,48.2969 Z "/><text fill="#19273C" font-family="Open Sans" font-size="10" lengthAdjust="spacingAndGlyphs" textLength="90" x="908.75" y="48.4619">ValidatedResource</text><line style="stroke: #E3ECEC; stroke-width: 1.5;" x1="842.5" x2="1037.5" y1="59" y2="59"/><line style="stroke: #E3ECEC; stroke-width: 1.5;" x1="842.5" x2="1037.5" y1="67" y2="67"/><ellipse cx="851.5" cy="78.3203" fill="#84BE84" rx="2" ry="2" style="stroke: #038048; stroke-width: 1.0;"/><text fill="#19273C" font-family="Open Sans" font-size="10" lengthAdjust="spacingAndGlyphs" textLength="173" x="859.5" y="80.2822">void setPropertyValue(string,string)</text><ellipse cx="851.5" cy="89.9609" fill="#84BE84" rx="2" ry="2" style="stroke: #038048; stroke-width: 1.0;"/><text fill="#19273C" font-family="Open Sans" font-size="10" lengthAdjust="spacingAndGlyphs" textLength="160" x="859.5" y="91.9229">void addArrayValue(string,string)</text><ellipse cx="851.5" cy="101.6016" fill="#84BE84" rx="2" ry="2" style="stroke: #038048; stroke-width: 1.0;"/><text fill="#19273C" font-family="Open Sans" font-size="10" lengthAdjust="spacingAndGlyphs" textLength="69" x="859.5" y="103.5635">void validate()</text><!--class Concept--><rect fill="#F8FAFA" height="55.6406" rx="1" ry="1" style="stroke: #E3ECEC; stroke-width: 1.5;" width="121" x="1111.5" y="251"/><ellipse cx="1147.9" cy="265" fill="#FFFFFF" rx="9" ry="9" style="stroke: #E3ECEC; stroke-width: 1.0;"/><path d="M1149.1813,268.2969 Q1148.8375,268.4688 1148.4625,268.5547 Q1148.0875,268.6406 1147.6656,268.6406 Q1146.1969,268.6406 1145.4234,267.6719 Q1144.65,266.7031 1144.65,264.8594 Q1144.65,263.0156 1145.4234,262.0469 Q1146.1969,261.0781 1147.6656,261.0781 Q1148.0875,261.0781 1148.4703,261.1641 Q1148.8531,261.25 1149.1813,261.4219 L1149.1813,263.0313 Q1148.8063,262.6875 1148.4547,262.5313 Q1148.1031,262.375 1147.7438,262.375 Q1146.9469,262.375 1146.5406,263 Q1146.1344,263.625 1146.1344,264.8594 Q1146.1344,266.0938 1146.5406,266.7188 Q1146.9469,267.3438 1147.7438,267.3438 Q1148.1031,267.3438 1148.4547,267.1875 Q1148.8063,267.0313 1149.1813,266.6875 L1149.1813,268.2969 Z "/><text fill="#19273C" font-family="Open Sans" font-size="10" lengthAdjust="spacingAndGlyphs" textLength="41" x="1165.1" y="268.4619">Concept</text><line style="stroke: #E3ECEC; stroke-width: 1.5;" x1="1112.5" x2="1231.5" y1="279" y2="279"/><line style="stroke: #E3ECEC; stroke-width: 1.5;" x1="1112.5" x2="1231.5" y1="287" y2="287"/><ellipse cx="1121.5" cy="298.3203" fill="#84BE84" rx="2" ry="2" style="stroke: #038048; stroke-width: 1.0;"/><text fill="#19273C" font-family="Open Sans" font-size="10" lengthAdjust="spacingAndGlyphs" textLength="97" x="1129.5" y="300.2822">boolean isConcept()</text><!--class Typed--><rect fill="#F8FAFA" height="44" rx="1" ry="1" style="stroke: #E3ECEC; stroke-width: 1.5;" width="57" x="1143.5" y="425"/><ellipse cx="1156.5" cy="439" fill="#FFFFFF" rx="9" ry="9" style="stroke: #E3ECEC; stroke-width: 1.0;"/><path d="M1157.7813,442.2969 Q1157.4375,442.4688 1157.0625,442.5547 Q1156.6875,442.6406 1156.2656,442.6406 Q1154.7969,442.6406 1154.0234,441.6719 Q1153.25,440.7031 1153.25,438.8594 Q1153.25,437.0156 1154.0234,436.0469 Q1154.7969,435.0781 1156.2656,435.0781 Q1156.6875,435.0781 1157.0703,435.1641 Q1157.4531,435.25 1157.7813,435.4219 L1157.7813,437.0313 Q1157.4063,436.6875 1157.0547,436.5313 Q1156.7031,436.375 1156.3438,436.375 Q1155.5469,436.375 1155.1406,437 Q1154.7344,437.625 1154.7344,438.8594 Q1154.7344,440.0938 1155.1406,440.7188 Q1155.5469,441.3438 1156.3438,441.3438 Q1156.7031,441.3438 1157.0547,441.1875 Q1157.4063,441.0313 1157.7813,440.6875 L1157.7813,442.2969 Z "/><text fill="#19273C" font-family="Open Sans" font-size="10" lengthAdjust="spacingAndGlyphs" textLength="29" x="1168.5" y="442.4619">Typed</text><line style="stroke: #E3ECEC; stroke-width: 1.5;" x1="1144.5" x2="1199.5" y1="453" y2="453"/><line style="stroke: #E3ECEC; stroke-width: 1.5;" x1="1144.5" x2="1199.5" y1="461" y2="461"/><!--class ValidatedConcept--><rect fill="#F8FAFA" height="78.9219" rx="1" ry="1" style="stroke: #E3ECEC; stroke-width: 1.5;" width="197" x="1073.5" y="31"/><ellipse cx="1125.25" cy="45" fill="#FFFFFF" rx="9" ry="9" style="stroke: #E3ECEC; stroke-width: 1.0;"/><path d="M1126.5313,48.2969 Q1126.1875,48.4688 1125.8125,48.5547 Q1125.4375,48.6406 1125.0156,48.6406 Q1123.5469,48.6406 1122.7734,47.6719 Q1122,46.7031 1122,44.8594 Q1122,43.0156 1122.7734,42.0469 Q1123.5469,41.0781 1125.0156,41.0781 Q1125.4375,41.0781 1125.8203,41.1641 Q1126.2031,41.25 1126.5313,41.4219 L1126.5313,43.0313 Q1126.1563,42.6875 1125.8047,42.5313 Q1125.4531,42.375 1125.0938,42.375 Q1124.2969,42.375 1123.8906,43 Q1123.4844,43.625 1123.4844,44.8594 Q1123.4844,46.0938 1123.8906,46.7188 Q1124.2969,47.3438 1125.0938,47.3438 Q1125.4531,47.3438 1125.8047,47.1875 Q1126.1563,47.0313 1126.5313,46.6875 L1126.5313,48.2969 Z "/><text fill="#19273C" font-family="Open Sans" font-size="10" lengthAdjust="spacingAndGlyphs" textLength="86" x="1142.75" y="48.4619">ValidatedConcept</text><line style="stroke: #E3ECEC; stroke-width: 1.5;" x1="1074.5" x2="1269.5" y1="59" y2="59"/><line style="stroke: #E3ECEC; stroke-width: 1.5;" x1="1074.5" x2="1269.5" y1="67" y2="67"/><ellipse cx="1083.5" cy="78.3203" fill="#84BE84" rx="2" ry="2" style="stroke: #038048; stroke-width: 1.0;"/><text fill="#19273C" font-family="Open Sans" font-size="10" lengthAdjust="spacingAndGlyphs" textLength="173" x="1091.5" y="80.2822">void setPropertyValue(string,string)</text><ellipse cx="1083.5" cy="89.9609" fill="#84BE84" rx="2" ry="2" style="stroke: #038048; stroke-width: 1.0;"/><text fill="#19273C" font-family="Open Sans" font-size="10" lengthAdjust="spacingAndGlyphs" textLength="160" x="1091.5" y="91.9229">void addArrayValue(string,string)</text><ellipse cx="1083.5" cy="101.6016" fill="#84BE84" rx="2" ry="2" style="stroke: #038048; stroke-width: 1.0;"/><text fill="#19273C" font-family="Open Sans" font-size="10" lengthAdjust="spacingAndGlyphs" textLength="69" x="1091.5" y="103.5635">void validate()</text><!--class Factory--><rect fill="#F8FAFA" height="125.4844" rx="1" ry="1" style="stroke: #E3ECEC; stroke-width: 1.5;" width="348" x="314" y="8"/><ellipse cx="465.75" cy="22" fill="#FFFFFF" rx="9" ry="9" style="stroke: #E3ECEC; stroke-width: 1.0;"/><path d="M467.0313,25.2969 Q466.6875,25.4688 466.3125,25.5547 Q465.9375,25.6406 465.5156,25.6406 Q464.0469,25.6406 463.2734,24.6719 Q462.5,23.7031 462.5,21.8594 Q462.5,20.0156 463.2734,19.0469 Q464.0469,18.0781 465.5156,18.0781 Q465.9375,18.0781 466.3203,18.1641 Q466.7031,18.25 467.0313,18.4219 L467.0313,20.0313 Q466.6563,19.6875 466.3047,19.5313 Q465.9531,19.375 465.5938,19.375 Q464.7969,19.375 464.3906,20 Q463.9844,20.625 463.9844,21.8594 Q463.9844,23.0938 464.3906,23.7188 Q464.7969,24.3438 465.5938,24.3438 Q465.9531,24.3438 466.3047,24.1875 Q466.6563,24.0313 467.0313,23.6875 L467.0313,25.2969 Z "/><text fill="#19273C" font-family="Open Sans" font-size="10" lengthAdjust="spacingAndGlyphs" textLength="37" x="483.25" y="25.4619">Factory</text><line style="stroke: #E3ECEC; stroke-width: 1.5;" x1="315" x2="661" y1="36" y2="36"/><line style="stroke: #E3ECEC; stroke-width: 1.5;" x1="315" x2="661" y1="44" y2="44"/><ellipse cx="324" cy="55.3203" fill="#84BE84" rx="2" ry="2" style="stroke: #038048; stroke-width: 1.0;"/><text fill="#19273C" font-family="Open Sans" font-size="10" lengthAdjust="spacingAndGlyphs" textLength="158" x="332" y="57.2822">void constructor(ModelManager)</text><ellipse cx="324" cy="66.9609" fill="#84BE84" rx="2" ry="2" style="stroke: #038048; stroke-width: 1.0;"/><text fill="#19273C" font-family="Open Sans" font-size="10" lengthAdjust="spacingAndGlyphs" textLength="320" x="332" y="68.9229">Resource newInstance(string,string,string,Object,boolean,boolean)</text><ellipse cx="324" cy="78.6016" fill="#84BE84" rx="2" ry="2" style="stroke: #038048; stroke-width: 1.0;"/><text fill="#19273C" font-family="Open Sans" font-size="10" lengthAdjust="spacingAndGlyphs" textLength="324" x="332" y="80.5635">Resource newResource(string,string,string,Object,boolean,boolean)</text><ellipse cx="324" cy="90.2422" fill="#84BE84" rx="2" ry="2" style="stroke: #038048; stroke-width: 1.0;"/><text fill="#19273C" font-family="Open Sans" font-size="10" lengthAdjust="spacingAndGlyphs" textLength="290" x="332" y="92.2041">Resource newConcept(string,string,Object,boolean,boolean)</text><ellipse cx="324" cy="101.8828" fill="#84BE84" rx="2" ry="2" style="stroke: #038048; stroke-width: 1.0;"/><text fill="#19273C" font-family="Open Sans" font-size="10" lengthAdjust="spacingAndGlyphs" textLength="234" x="332" y="103.8447">Relationship newRelationship(string,string,string)</text><ellipse cx="324" cy="113.5234" fill="#84BE84" rx="2" ry="2" style="stroke: #038048; stroke-width: 1.0;"/><text fill="#19273C" font-family="Open Sans" font-size="10" lengthAdjust="spacingAndGlyphs" textLength="293" x="332" y="115.4854">Resource newTransaction(string,string,string,Object,boolean)</text><ellipse cx="324" cy="125.1641" fill="#84BE84" rx="2" ry="2" style="stroke: #038048; stroke-width: 1.0;"/><text fill="#19273C" font-family="Open Sans" font-size="10" lengthAdjust="spacingAndGlyphs" textLength="78" x="332" y="127.126">Object toJSON()</text><!--class Serializer--><rect fill="#F8FAFA" height="78.9219" rx="1" ry="1" style="stroke: #E3ECEC; stroke-width: 1.5;" width="304" x="6" y="239.5"/><ellipse cx="132.25" cy="253.5" fill="#FFFFFF" rx="9" ry="9" style="stroke: #E3ECEC; stroke-width: 1.0;"/><path d="M133.5313,256.7969 Q133.1875,256.9688 132.8125,257.0547 Q132.4375,257.1406 132.0156,257.1406 Q130.5469,257.1406 129.7734,256.1719 Q129,255.2031 129,253.3594 Q129,251.5156 129.7734,250.5469 Q130.5469,249.5781 132.0156,249.5781 Q132.4375,249.5781 132.8203,249.6641 Q133.2031,249.75 133.5313,249.9219 L133.5313,251.5313 Q133.1563,251.1875 132.8047,251.0313 Q132.4531,250.875 132.0938,250.875 Q131.2969,250.875 130.8906,251.5 Q130.4844,252.125 130.4844,253.3594 Q130.4844,254.5938 130.8906,255.2188 Q131.2969,255.8438 132.0938,255.8438 Q132.4531,255.8438 132.8047,255.6875 Q133.1563,255.5313 133.5313,255.1875 L133.5313,256.7969 Z "/><text fill="#19273C" font-family="Open Sans" font-size="10" lengthAdjust="spacingAndGlyphs" textLength="44" x="149.75" y="256.9619">Serializer</text><line style="stroke: #E3ECEC; stroke-width: 1.5;" x1="7" x2="309" y1="267.5" y2="267.5"/><line style="stroke: #E3ECEC; stroke-width: 1.5;" x1="7" x2="309" y1="275.5" y2="275.5"/><ellipse cx="16" cy="286.8203" fill="#84BE84" rx="2" ry="2" style="stroke: #038048; stroke-width: 1.0;"/><text fill="#19273C" font-family="Open Sans" font-size="10" lengthAdjust="spacingAndGlyphs" textLength="198" x="24" y="288.7822">void constructor(Factory,ModelManager)</text><ellipse cx="16" cy="298.4609" fill="#84BE84" rx="2" ry="2" style="stroke: #038048; stroke-width: 1.0;"/><text fill="#19273C" font-family="Open Sans" font-size="10" lengthAdjust="spacingAndGlyphs" textLength="280" x="24" y="300.4229">Object toJSON(Resource,Object,boolean,boolean,boolean)</text><ellipse cx="16" cy="310.1016" fill="#84BE84" rx="2" ry="2" style="stroke: #038048; stroke-width: 1.0;"/><text fill="#19273C" font-family="Open Sans" font-size="10" lengthAdjust="spacingAndGlyphs" textLength="212" x="24" y="312.0635">Resource fromJSON(Object,Object,boolean)</text><!--class BusinessNetworkDefinition--><rect fill="#F8FAFA" height="172.0469" rx="1" ry="1" style="stroke: #E3ECEC; stroke-width: 1.5;" width="323" x="345.5" y="193"/><ellipse cx="438.75" cy="207" fill="#FFFFFF" rx="9" ry="9" style="stroke: #E3ECEC; stroke-width: 1.0;"/><path d="M440.0313,210.2969 Q439.6875,210.4688 439.3125,210.5547 Q438.9375,210.6406 438.5156,210.6406 Q437.0469,210.6406 436.2734,209.6719 Q435.5,208.7031 435.5,206.8594 Q435.5,205.0156 436.2734,204.0469 Q437.0469,203.0781 438.5156,203.0781 Q438.9375,203.0781 439.3203,203.1641 Q439.7031,203.25 440.0313,203.4219 L440.0313,205.0313 Q439.6563,204.6875 439.3047,204.5313 Q438.9531,204.375 438.5938,204.375 Q437.7969,204.375 437.3906,205 Q436.9844,205.625 436.9844,206.8594 Q436.9844,208.0938 437.3906,208.7188 Q437.7969,209.3438 438.5938,209.3438 Q438.9531,209.3438 439.3047,209.1875 Q439.6563,209.0313 440.0313,208.6875 L440.0313,210.2969 Z "/><text fill="#19273C" font-family="Open Sans" font-size="10" lengthAdjust="spacingAndGlyphs" textLength="129" x="456.25" y="210.4619">BusinessNetworkDefinition</text><line style="stroke: #E3ECEC; stroke-width: 1.5;" x1="346.5" x2="667.5" y1="221" y2="221"/><line style="stroke: #E3ECEC; stroke-width: 1.5;" x1="346.5" x2="667.5" y1="229" y2="229"/><ellipse cx="355.5" cy="240.3203" fill="#84BE84" rx="2" ry="2" style="stroke: #038048; stroke-width: 1.0;"/><text fill="#19273C" font-family="Open Sans" font-size="10" lengthAdjust="spacingAndGlyphs" textLength="147" x="363.5" y="242.2822">void constructor(String,String)</text><ellipse cx="355.5" cy="251.9609" fill="#84BE84" rx="2" ry="2" style="stroke: #038048; stroke-width: 1.0;"/><text fill="#19273C" font-family="Open Sans" font-size="10" lengthAdjust="spacingAndGlyphs" textLength="99" x="363.5" y="253.9229">String getIdentifier()</text><ellipse cx="355.5" cy="263.6016" fill="#84BE84" rx="2" ry="2" style="stroke: #038048; stroke-width: 1.0;"/><text fill="#19273C" font-family="Open Sans" font-size="10" lengthAdjust="spacingAndGlyphs" textLength="86" x="363.5" y="265.5635">String getName()</text><ellipse cx="355.5" cy="275.2422" fill="#84BE84" rx="2" ry="2" style="stroke: #038048; stroke-width: 1.0;"/><text fill="#19273C" font-family="Open Sans" font-size="10" lengthAdjust="spacingAndGlyphs" textLength="92" x="363.5" y="277.2041">String getVersion()</text><ellipse cx="355.5" cy="286.8828" fill="#84BE84" rx="2" ry="2" style="stroke: #038048; stroke-width: 1.0;"/><text fill="#19273C" font-family="Open Sans" font-size="10" lengthAdjust="spacingAndGlyphs" textLength="110" x="363.5" y="288.8447">String getDescription()</text><ellipse cx="355.5" cy="298.5234" fill="#84BE84" rx="2" ry="2" style="stroke: #038048; stroke-width: 1.0;"/><text fill="#19273C" font-family="Open Sans" font-size="10" lengthAdjust="spacingAndGlyphs" textLength="142" x="363.5" y="300.4854">Promise fromArchive(Buffer)</text><ellipse cx="355.5" cy="310.1641" fill="#84BE84" rx="2" ry="2" style="stroke: #038048; stroke-width: 1.0;"/><text fill="#19273C" font-family="Open Sans" font-size="10" lengthAdjust="spacingAndGlyphs" textLength="88" x="363.5" y="312.126">Buffer toArchive()</text><ellipse cx="355.5" cy="321.8047" fill="#84BE84" rx="2" ry="2" style="stroke: #038048; stroke-width: 1.0;"/><text fill="#19273C" font-family="Open Sans" font-size="10" lengthAdjust="spacingAndGlyphs" textLength="299" x="363.5" y="323.7666">Promise fromDirectory(String,Object,Object,boolean,boolean)</text><ellipse cx="355.5" cy="333.4453" fill="#84BE84" rx="2" ry="2" style="stroke: #038048; stroke-width: 1.0;"/><text fill="#19273C" font-family="Open Sans" font-size="10" lengthAdjust="spacingAndGlyphs" textLength="145" x="363.5" y="335.4072">Introspector getIntrospector()</text><ellipse cx="355.5" cy="345.0859" fill="#84BE84" rx="2" ry="2" style="stroke: #038048; stroke-width: 1.0;"/><text fill="#19273C" font-family="Open Sans" font-size="10" lengthAdjust="spacingAndGlyphs" textLength="101" x="363.5" y="347.0479">Factory getFactory()</text><ellipse cx="355.5" cy="356.7266" fill="#84BE84" rx="2" ry="2" style="stroke: #038048; stroke-width: 1.0;"/><text fill="#19273C" font-family="Open Sans" font-size="10" lengthAdjust="spacingAndGlyphs" textLength="115" x="363.5" y="358.6885">Serializer getSerializer()</text><path d="M789.596,312.796 C803.27,339.82 822.7,378.216 837.188,406.8475 " fill="none" style="stroke: #3C6DF0; stroke-width: 1.0;"/><polygon fill="none" points="843.513,403.8437,846.297,424.8496,831.021,410.1648,843.513,403.8437" style="stroke: #3C6DF0; stroke-width: 1.0;"/><path d="M923.602,312.796 C910.09,339.82 890.892,378.216 876.576,406.8475 " fill="none" style="stroke: #3C6DF0; stroke-width: 1.0;"/><polygon fill="none" points="882.781,410.0915,867.575,424.8496,870.259,403.8305,882.781,410.0915" style="stroke: #3C6DF0; stroke-width: 1.0;"/><path d="M940,110.341 C940,142.809 940,189.423 940,225.263 " fill="none" style="stroke: #3C6DF0; stroke-width: 1.0;"/><polygon fill="none" points="947,225.447,940,245.447,933,225.447,947,225.447" style="stroke: #3C6DF0; stroke-width: 1.0;"/><path d="M1172,307.04 C1172,333.506 1172,374.1816 1172,404.6978 " fill="none" style="stroke: #3C6DF0; stroke-width: 1.0;"/><polygon fill="none" points="1179,404.7744,1172,424.7744,1165,404.7743,1179,404.7744" style="stroke: #3C6DF0; stroke-width: 1.0;"/><path d="M1172,110.341 C1172,144.461 1172,194.205 1172,230.649 " fill="none" style="stroke: #3C6DF0; stroke-width: 1.0;"/><polygon fill="none" points="1179,230.856,1172,250.856,1165,230.856,1179,230.856" style="stroke: #3C6DF0; stroke-width: 1.0;"/></g></svg>