<?xml version="1.0" encoding="UTF-8" standalone="no"?><svg xmlns="http://www.w3.org/2000/svg" xmlns:xlink="http://www.w3.org/1999/xlink" contentScriptType="application/ecmascript" contentStyleType="text/css" height="250px" preserveAspectRatio="none" style="width:229px;height:250px;" version="1.1" viewBox="0 0 229 250" width="229px" zoomAndPan="magnify"><defs><filter height="300%" id="fije83g" width="300%" x="-1" y="-1"><feGaussianBlur result="blurOut" stdDeviation="2.0"/><feColorMatrix in="blurOut" result="blurOut2" type="matrix" values="0 0 0 0 0 0 0 0 0 0 0 0 0 0 0 0 0 0 .4 0"/><feOffset dx="4.0" dy="4.0" in="blurOut2" result="blurOut3"/><feBlend in="SourceGraphic" in2="blurOut3" mode="normal"/></filter></defs><g><!--class Identifiable--><rect fill="#FEFECE" filter="url(#fije83g)" height="124.8281" style="stroke: #A80036; stroke-width: 1.5;" width="214" x="6" y="8"/><ellipse cx="74.25" cy="24" fill="#ADD1B2" rx="11" ry="11" style="stroke: #A80036; stroke-width: 1.0;"/><path d="M77.2188,29.6406 Q76.6406,29.9375 76,30.0859 Q75.3594,30.2344 74.6563,30.2344 Q72.1563,30.2344 70.8359,28.5859 Q69.5156,26.9375 69.5156,23.8125 Q69.5156,20.6875 70.8359,19.0313 Q72.1563,17.375 74.6563,17.375 Q75.3594,17.375 76.0078,17.5313 Q76.6563,17.6875 77.2188,17.9844 L77.2188,20.7031 Q76.5938,20.125 76,19.8516 Q75.4063,19.5781 74.7813,19.5781 Q73.4375,19.5781 72.75,20.6484 Q72.0625,21.7188 72.0625,23.8125 Q72.0625,25.9063 72.75,26.9766 Q73.4375,28.0469 74.7813,28.0469 Q75.4063,28.0469 76,27.7734 Q76.5938,27.5 77.2188,26.9219 L77.2188,29.6406 Z "/><text fill="#000000" font-family="sans-serif" font-size="12" lengthAdjust="spacingAndGlyphs" textLength="69" x="94.75" y="28.1543">Identifiable</text><line style="stroke: #A80036; stroke-width: 1.5;" x1="7" x2="219" y1="40" y2="40"/><line style="stroke: #A80036; stroke-width: 1.5;" x1="7" x2="219" y1="48" y2="48"/><ellipse cx="17" cy="59.9023" fill="#84BE84" rx="3" ry="3" style="stroke: #038048; stroke-width: 1.0;"/><text fill="#000000" font-family="sans-serif" font-size="11" lengthAdjust="spacingAndGlyphs" textLength="113" x="26" y="62.2104">string getIdentifier()</text><ellipse cx="17" cy="72.707" fill="#84BE84" rx="3" ry="3" style="stroke: #038048; stroke-width: 1.0;"/><text fill="#000000" font-family="sans-serif" font-size="11" lengthAdjust="spacingAndGlyphs" textLength="136" x="26" y="75.0151">void setIdentifier(string)</text><ellipse cx="17" cy="85.5117" fill="#84BE84" rx="3" ry="3" style="stroke: #038048; stroke-width: 1.0;"/><text fill="#000000" font-family="sans-serif" font-size="11" lengthAdjust="spacingAndGlyphs" textLength="188" x="26" y="87.8198">string getFullyQualifiedIdentifier()</text><ellipse cx="17" cy="98.3164" fill="#84BE84" rx="3" ry="3" style="stroke: #038048; stroke-width: 1.0;"/><text fill="#000000" font-family="sans-serif" font-size="11" lengthAdjust="spacingAndGlyphs" textLength="91" x="26" y="100.6245">String toString()</text><ellipse cx="17" cy="111.1211" fill="#84BE84" rx="3" ry="3" style="stroke: #038048; stroke-width: 1.0;"/><text fill="#000000" font-family="sans-serif" font-size="11" lengthAdjust="spacingAndGlyphs" textLength="136" x="26" y="113.4292">boolean isRelationship()</text><ellipse cx="17" cy="123.9258" fill="#84BE84" rx="3" ry="3" style="stroke: #038048; stroke-width: 1.0;"/><text fill="#000000" font-family="sans-serif" font-size="11" lengthAdjust="spacingAndGlyphs" textLength="120" x="26" y="126.2339">boolean isResource()</text><!--class Typed--><rect fill="#FEFECE" filter="url(#fije83g)" height="48" style="stroke: #A80036; stroke-width: 1.5;" width="69" x="78.5" y="193"/><ellipse cx="93.5" cy="209" fill="#ADD1B2" rx="11" ry="11" style="stroke: #A80036; stroke-width: 1.0;"/><path d="M96.4688,214.6406 Q95.8906,214.9375 95.25,215.0859 Q94.6094,215.2344 93.9063,215.2344 Q91.4063,215.2344 90.0859,213.5859 Q88.7656,211.9375 88.7656,208.8125 Q88.7656,205.6875 90.0859,204.0313 Q91.4063,202.375 93.9063,202.375 Q94.6094,202.375 95.2578,202.5313 Q95.9063,202.6875 96.4688,202.9844 L96.4688,205.7031 Q95.8438,205.125 95.25,204.8516 Q94.6563,204.5781 94.0313,204.5781 Q92.6875,204.5781 92,205.6484 Q91.3125,206.7188 91.3125,208.8125 Q91.3125,210.9063 92,211.9766 Q92.6875,213.0469 94.0313,213.0469 Q94.6563,213.0469 95.25,212.7734 Q95.8438,212.5 96.4688,211.9219 L96.4688,214.6406 Z "/><text fill="#000000" font-family="sans-serif" font-size="12" lengthAdjust="spacingAndGlyphs" textLength="37" x="107.5" y="213.1543">Typed</text><line style="stroke: #A80036; stroke-width: 1.5;" x1="79.5" x2="146.5" y1="225" y2="225"/><line style="stroke: #A80036; stroke-width: 1.5;" x1="79.5" x2="146.5" y1="233" y2="233"/><path d="M113,133.2 C113,146.4323 113,160.147 113,172.517 " fill="none" style="stroke: #A80036; stroke-width: 1.0;"/><polygon fill="none" points="120,172.9363,113,192.9363,106,172.9362,120,172.9363" style="stroke: #A80036; stroke-width: 1.0;"/></g></svg>