<?xml version="1.0" encoding="UTF-8" standalone="no"?><svg xmlns="http://www.w3.org/2000/svg" xmlns:xlink="http://www.w3.org/1999/xlink" contentScriptType="application/ecmascript" contentStyleType="text/css" height="199px" preserveAspectRatio="none" style="width:177px;height:199px;" version="1.1" viewBox="0 0 177 199" width="177px" zoomAndPan="magnify"><defs><filter height="300%" id="f2tk8mm" width="300%" x="-1" y="-1"><feGaussianBlur result="blurOut" stdDeviation="2.0"/><feColorMatrix in="blurOut" result="blurOut2" type="matrix" values="0 0 0 0 0 0 0 0 0 0 0 0 0 0 0 0 0 0 .4 0"/><feOffset dx="4.0" dy="4.0" in="blurOut2" result="blurOut3"/><feBlend in="SourceGraphic" in2="blurOut3" mode="normal"/></filter></defs><g><!--class Relationship--><rect fill="#FEFECE" filter="url(#f2tk8mm)" height="73.6094" style="stroke: #A80036; stroke-width: 1.5;" width="162" x="6" y="8"/><ellipse cx="44.85" cy="24" fill="#ADD1B2" rx="11" ry="11" style="stroke: #A80036; stroke-width: 1.0;"/><path d="M47.8188,29.6406 Q47.2406,29.9375 46.6,30.0859 Q45.9594,30.2344 45.2563,30.2344 Q42.7563,30.2344 41.4359,28.5859 Q40.1156,26.9375 40.1156,23.8125 Q40.1156,20.6875 41.4359,19.0313 Q42.7563,17.375 45.2563,17.375 Q45.9594,17.375 46.6078,17.5313 Q47.2563,17.6875 47.8188,17.9844 L47.8188,20.7031 Q47.1938,20.125 46.6,19.8516 Q46.0063,19.5781 45.3813,19.5781 Q44.0375,19.5781 43.35,20.6484 Q42.6625,21.7188 42.6625,23.8125 Q42.6625,25.9063 43.35,26.9766 Q44.0375,28.0469 45.3813,28.0469 Q46.0063,28.0469 46.6,27.7734 Q47.1938,27.5 47.8188,26.9219 L47.8188,29.6406 Z "/><text fill="#000000" font-family="sans-serif" font-size="12" lengthAdjust="spacingAndGlyphs" textLength="77" x="64.15" y="28.1543">Relationship</text><line style="stroke: #A80036; stroke-width: 1.5;" x1="7" x2="167" y1="40" y2="40"/><line style="stroke: #A80036; stroke-width: 1.5;" x1="7" x2="167" y1="48" y2="48"/><ellipse cx="17" cy="59.9023" fill="#84BE84" rx="3" ry="3" style="stroke: #038048; stroke-width: 1.0;"/><text fill="#000000" font-family="sans-serif" font-size="11" lengthAdjust="spacingAndGlyphs" textLength="91" x="26" y="62.2104">String toString()</text><ellipse cx="17" cy="72.707" fill="#84BE84" rx="3" ry="3" style="stroke: #038048; stroke-width: 1.0;"/><text fill="#000000" font-family="sans-serif" font-size="11" lengthAdjust="spacingAndGlyphs" textLength="136" x="26" y="75.0151">boolean isRelationship()</text><!--class Identifiable--><rect fill="#FEFECE" filter="url(#f2tk8mm)" height="48" style="stroke: #A80036; stroke-width: 1.5;" width="101" x="36.5" y="142"/><ellipse cx="51.5" cy="158" fill="#ADD1B2" rx="11" ry="11" style="stroke: #A80036; stroke-width: 1.0;"/><path d="M54.4688,163.6406 Q53.8906,163.9375 53.25,164.0859 Q52.6094,164.2344 51.9063,164.2344 Q49.4063,164.2344 48.0859,162.5859 Q46.7656,160.9375 46.7656,157.8125 Q46.7656,154.6875 48.0859,153.0313 Q49.4063,151.375 51.9063,151.375 Q52.6094,151.375 53.2578,151.5313 Q53.9063,151.6875 54.4688,151.9844 L54.4688,154.7031 Q53.8438,154.125 53.25,153.8516 Q52.6563,153.5781 52.0313,153.5781 Q50.6875,153.5781 50,154.6484 Q49.3125,155.7188 49.3125,157.8125 Q49.3125,159.9063 50,160.9766 Q50.6875,162.0469 52.0313,162.0469 Q52.6563,162.0469 53.25,161.7734 Q53.8438,161.5 54.4688,160.9219 L54.4688,163.6406 Z "/><text fill="#000000" font-family="sans-serif" font-size="12" lengthAdjust="spacingAndGlyphs" textLength="69" x="65.5" y="162.1543">Identifiable</text><line style="stroke: #A80036; stroke-width: 1.5;" x1="37.5" x2="136.5" y1="174" y2="174"/><line style="stroke: #A80036; stroke-width: 1.5;" x1="37.5" x2="136.5" y1="182" y2="182"/><path d="M87,82.027 C87,94.4728 87,108.5506 87,121.529 " fill="none" style="stroke: #A80036; stroke-width: 1.0;"/><polygon fill="none" points="94.0001,121.8505,87,141.8505,80.0001,121.8504,94.0001,121.8505" style="stroke: #A80036; stroke-width: 1.0;"/></g></svg>