<?xml version="1.0" encoding="UTF-8" standalone="no"?><svg xmlns="http://www.w3.org/2000/svg" xmlns:xlink="http://www.w3.org/1999/xlink" contentScriptType="application/ecmascript" contentStyleType="text/css" height="186px" preserveAspectRatio="none" style="width:174px;height:186px;" version="1.1" viewBox="0 0 174 186" width="174px" zoomAndPan="magnify"><defs><filter height="300%" id="fs4i31f" width="300%" x="-1" y="-1"><feGaussianBlur result="blurOut" stdDeviation="2.0"/><feColorMatrix in="blurOut" result="blurOut2" type="matrix" values="0 0 0 0 0 0 0 0 0 0 0 0 0 0 0 0 0 0 .4 0"/><feOffset dx="4.0" dy="4.0" in="blurOut2" result="blurOut3"/><feBlend in="SourceGraphic" in2="blurOut3" mode="normal"/></filter></defs><g><!--class BaseException--><rect fill="#FEFECE" filter="url(#fs4i31f)" height="60.8047" style="stroke: #A80036; stroke-width: 1.5;" width="159" x="6" y="8"/><ellipse cx="36.75" cy="24" fill="#ADD1B2" rx="11" ry="11" style="stroke: #A80036; stroke-width: 1.0;"/><path d="M39.7188,29.6406 Q39.1406,29.9375 38.5,30.0859 Q37.8594,30.2344 37.1563,30.2344 Q34.6563,30.2344 33.3359,28.5859 Q32.0156,26.9375 32.0156,23.8125 Q32.0156,20.6875 33.3359,19.0313 Q34.6563,17.375 37.1563,17.375 Q37.8594,17.375 38.5078,17.5313 Q39.1563,17.6875 39.7188,17.9844 L39.7188,20.7031 Q39.0938,20.125 38.5,19.8516 Q37.9063,19.5781 37.2813,19.5781 Q35.9375,19.5781 35.25,20.6484 Q34.5625,21.7188 34.5625,23.8125 Q34.5625,25.9063 35.25,26.9766 Q35.9375,28.0469 37.2813,28.0469 Q37.9063,28.0469 38.5,27.7734 Q39.0938,27.5 39.7188,26.9219 L39.7188,29.6406 Z "/><text fill="#000000" font-family="sans-serif" font-size="12" lengthAdjust="spacingAndGlyphs" textLength="92" x="54.25" y="28.1543">BaseException</text><line style="stroke: #A80036; stroke-width: 1.5;" x1="7" x2="164" y1="40" y2="40"/><line style="stroke: #A80036; stroke-width: 1.5;" x1="7" x2="164" y1="48" y2="48"/><ellipse cx="17" cy="59.9023" fill="#84BE84" rx="3" ry="3" style="stroke: #038048; stroke-width: 1.0;"/><text fill="#000000" font-family="sans-serif" font-size="11" lengthAdjust="spacingAndGlyphs" textLength="133" x="26" y="62.2104">void constructor(string)</text><!--class Error--><rect fill="#FEFECE" filter="url(#fs4i31f)" height="48" style="stroke: #A80036; stroke-width: 1.5;" width="63" x="54" y="129"/><ellipse cx="69" cy="145" fill="#ADD1B2" rx="11" ry="11" style="stroke: #A80036; stroke-width: 1.0;"/><path d="M71.9688,150.6406 Q71.3906,150.9375 70.75,151.0859 Q70.1094,151.2344 69.4063,151.2344 Q66.9063,151.2344 65.5859,149.5859 Q64.2656,147.9375 64.2656,144.8125 Q64.2656,141.6875 65.5859,140.0313 Q66.9063,138.375 69.4063,138.375 Q70.1094,138.375 70.7578,138.5313 Q71.4063,138.6875 71.9688,138.9844 L71.9688,141.7031 Q71.3438,141.125 70.75,140.8516 Q70.1563,140.5781 69.5313,140.5781 Q68.1875,140.5781 67.5,141.6484 Q66.8125,142.7188 66.8125,144.8125 Q66.8125,146.9063 67.5,147.9766 Q68.1875,149.0469 69.5313,149.0469 Q70.1563,149.0469 70.75,148.7734 Q71.3438,148.5 71.9688,147.9219 L71.9688,150.6406 Z "/><text fill="#000000" font-family="sans-serif" font-size="12" lengthAdjust="spacingAndGlyphs" textLength="31" x="83" y="149.1543">Error</text><line style="stroke: #A80036; stroke-width: 1.5;" x1="55" x2="116" y1="161" y2="161"/><line style="stroke: #A80036; stroke-width: 1.5;" x1="55" x2="116" y1="169" y2="169"/><path d="M85.5,69.058 C85.5,81.1313 85.5,95.3402 85.5,108.5536 " fill="none" style="stroke: #A80036; stroke-width: 1.0;"/><polygon fill="none" points="92.5001,108.6686,85.5,128.6686,78.5001,108.6686,92.5001,108.6686" style="stroke: #A80036; stroke-width: 1.0;"/></g></svg>