<?xml version="1.0" encoding="UTF-8" standalone="no"?><svg xmlns="http://www.w3.org/2000/svg" xmlns:xlink="http://www.w3.org/1999/xlink" contentScriptType="application/ecmascript" contentStyleType="text/css" height="199px" preserveAspectRatio="none" style="width:161px;height:199px;" version="1.1" viewBox="0 0 161 199" width="161px" zoomAndPan="magnify"><defs><filter height="300%" id="fa97k97" width="300%" x="-1" y="-1"><feGaussianBlur result="blurOut" stdDeviation="2.0"/><feColorMatrix in="blurOut" result="blurOut2" type="matrix" values="0 0 0 0 0 0 0 0 0 0 0 0 0 0 0 0 0 0 .4 0"/><feOffset dx="4.0" dy="4.0" in="blurOut2" result="blurOut3"/><feBlend in="SourceGraphic" in2="blurOut3" mode="normal"/></filter></defs><g><!--class Resource--><rect fill="#FEFECE" filter="url(#fa97k97)" height="73.6094" style="stroke: #A80036; stroke-width: 1.5;" width="146" x="6" y="8"/><ellipse cx="45.75" cy="24" fill="#ADD1B2" rx="11" ry="11" style="stroke: #A80036; stroke-width: 1.0;"/><path d="M48.7188,29.6406 Q48.1406,29.9375 47.5,30.0859 Q46.8594,30.2344 46.1563,30.2344 Q43.6563,30.2344 42.3359,28.5859 Q41.0156,26.9375 41.0156,23.8125 Q41.0156,20.6875 42.3359,19.0313 Q43.6563,17.375 46.1563,17.375 Q46.8594,17.375 47.5078,17.5313 Q48.1563,17.6875 48.7188,17.9844 L48.7188,20.7031 Q48.0938,20.125 47.5,19.8516 Q46.9063,19.5781 46.2813,19.5781 Q44.9375,19.5781 44.25,20.6484 Q43.5625,21.7188 43.5625,23.8125 Q43.5625,25.9063 44.25,26.9766 Q44.9375,28.0469 46.2813,28.0469 Q46.9063,28.0469 47.5,27.7734 Q48.0938,27.5 48.7188,26.9219 L48.7188,29.6406 Z "/><text fill="#000000" font-family="sans-serif" font-size="12" lengthAdjust="spacingAndGlyphs" textLength="59" x="65.25" y="28.1543">Resource</text><line style="stroke: #A80036; stroke-width: 1.5;" x1="7" x2="151" y1="40" y2="40"/><line style="stroke: #A80036; stroke-width: 1.5;" x1="7" x2="151" y1="48" y2="48"/><ellipse cx="17" cy="59.9023" fill="#84BE84" rx="3" ry="3" style="stroke: #038048; stroke-width: 1.0;"/><text fill="#000000" font-family="sans-serif" font-size="11" lengthAdjust="spacingAndGlyphs" textLength="91" x="26" y="62.2104">String toString()</text><ellipse cx="17" cy="72.707" fill="#84BE84" rx="3" ry="3" style="stroke: #038048; stroke-width: 1.0;"/><text fill="#000000" font-family="sans-serif" font-size="11" lengthAdjust="spacingAndGlyphs" textLength="120" x="26" y="75.0151">boolean isResource()</text><!--class Identifiable--><rect fill="#FEFECE" filter="url(#fa97k97)" height="48" style="stroke: #A80036; stroke-width: 1.5;" width="101" x="28.5" y="142"/><ellipse cx="43.5" cy="158" fill="#ADD1B2" rx="11" ry="11" style="stroke: #A80036; stroke-width: 1.0;"/><path d="M46.4688,163.6406 Q45.8906,163.9375 45.25,164.0859 Q44.6094,164.2344 43.9063,164.2344 Q41.4063,164.2344 40.0859,162.5859 Q38.7656,160.9375 38.7656,157.8125 Q38.7656,154.6875 40.0859,153.0313 Q41.4063,151.375 43.9063,151.375 Q44.6094,151.375 45.2578,151.5313 Q45.9063,151.6875 46.4688,151.9844 L46.4688,154.7031 Q45.8438,154.125 45.25,153.8516 Q44.6563,153.5781 44.0313,153.5781 Q42.6875,153.5781 42,154.6484 Q41.3125,155.7188 41.3125,157.8125 Q41.3125,159.9063 42,160.9766 Q42.6875,162.0469 44.0313,162.0469 Q44.6563,162.0469 45.25,161.7734 Q45.8438,161.5 46.4688,160.9219 L46.4688,163.6406 Z "/><text fill="#000000" font-family="sans-serif" font-size="12" lengthAdjust="spacingAndGlyphs" textLength="69" x="57.5" y="162.1543">Identifiable</text><line style="stroke: #A80036; stroke-width: 1.5;" x1="29.5" x2="128.5" y1="174" y2="174"/><line style="stroke: #A80036; stroke-width: 1.5;" x1="29.5" x2="128.5" y1="182" y2="182"/><path d="M79,82.027 C79,94.4728 79,108.5506 79,121.529 " fill="none" style="stroke: #A80036; stroke-width: 1.0;"/><polygon fill="none" points="86.0001,121.8505,79,141.8505,72.0001,121.8504,86.0001,121.8505" style="stroke: #A80036; stroke-width: 1.0;"/></g></svg>