<?xml version="1.0" encoding="UTF-8" standalone="no"?><svg xmlns="http://www.w3.org/2000/svg" xmlns:xlink="http://www.w3.org/1999/xlink" contentScriptType="application/ecmascript" contentStyleType="text/css" height="227px" preserveAspectRatio="none" style="width:192px;height:227px;" version="1.1" viewBox="0 0 192 227" width="192px" zoomAndPan="magnify"><defs/><g><!--class Identifiable--><rect fill="#F8FAFA" height="113.8438" rx="1" ry="1" style="stroke: #E3ECEC; stroke-width: 1.5;" width="185" x="6" y="8"/><ellipse cx="68.25" cy="22" fill="#FFFFFF" rx="9" ry="9" style="stroke: #E3ECEC; stroke-width: 1.0;"/><path d="M69.5313,25.2969 Q69.1875,25.4688 68.8125,25.5547 Q68.4375,25.6406 68.0156,25.6406 Q66.5469,25.6406 65.7734,24.6719 Q65,23.7031 65,21.8594 Q65,20.0156 65.7734,19.0469 Q66.5469,18.0781 68.0156,18.0781 Q68.4375,18.0781 68.8203,18.1641 Q69.2031,18.25 69.5313,18.4219 L69.5313,20.0313 Q69.1563,19.6875 68.8047,19.5313 Q68.4531,19.375 68.0938,19.375 Q67.2969,19.375 66.8906,20 Q66.4844,20.625 66.4844,21.8594 Q66.4844,23.0938 66.8906,23.7188 Q67.2969,24.3438 68.0938,24.3438 Q68.4531,24.3438 68.8047,24.1875 Q69.1563,24.0313 69.5313,23.6875 L69.5313,25.2969 Z "/><text fill="#19273C" font-family="Open Sans" font-size="10" lengthAdjust="spacingAndGlyphs" textLength="53" x="85.75" y="25.4619">Identifiable</text><line style="stroke: #E3ECEC; stroke-width: 1.5;" x1="7" x2="190" y1="36" y2="36"/><line style="stroke: #E3ECEC; stroke-width: 1.5;" x1="7" x2="190" y1="44" y2="44"/><ellipse cx="16" cy="55.3203" fill="#84BE84" rx="2" ry="2" style="stroke: #038048; stroke-width: 1.0;"/><text fill="#19273C" font-family="Open Sans" font-size="10" lengthAdjust="spacingAndGlyphs" textLength="97" x="24" y="57.2822">string getIdentifier()</text><ellipse cx="16" cy="66.9609" fill="#84BE84" rx="2" ry="2" style="stroke: #038048; stroke-width: 1.0;"/><text fill="#19273C" font-family="Open Sans" font-size="10" lengthAdjust="spacingAndGlyphs" textLength="116" x="24" y="68.9229">void setIdentifier(string)</text><ellipse cx="16" cy="78.6016" fill="#84BE84" rx="2" ry="2" style="stroke: #038048; stroke-width: 1.0;"/><text fill="#19273C" font-family="Open Sans" font-size="10" lengthAdjust="spacingAndGlyphs" textLength="161" x="24" y="80.5635">string getFullyQualifiedIdentifier()</text><ellipse cx="16" cy="90.2422" fill="#84BE84" rx="2" ry="2" style="stroke: #038048; stroke-width: 1.0;"/><text fill="#19273C" font-family="Open Sans" font-size="10" lengthAdjust="spacingAndGlyphs" textLength="79" x="24" y="92.2041">String toString()</text><ellipse cx="16" cy="101.8828" fill="#84BE84" rx="2" ry="2" style="stroke: #038048; stroke-width: 1.0;"/><text fill="#19273C" font-family="Open Sans" font-size="10" lengthAdjust="spacingAndGlyphs" textLength="114" x="24" y="103.8447">boolean isRelationship()</text><ellipse cx="16" cy="113.5234" fill="#84BE84" rx="2" ry="2" style="stroke: #038048; stroke-width: 1.0;"/><text fill="#19273C" font-family="Open Sans" font-size="10" lengthAdjust="spacingAndGlyphs" textLength="101" x="24" y="115.4854">boolean isResource()</text><!--class Typed--><rect fill="#F8FAFA" height="44" rx="1" ry="1" style="stroke: #E3ECEC; stroke-width: 1.5;" width="57" x="70" y="182"/><ellipse cx="83" cy="196" fill="#FFFFFF" rx="9" ry="9" style="stroke: #E3ECEC; stroke-width: 1.0;"/><path d="M84.2813,199.2969 Q83.9375,199.4688 83.5625,199.5547 Q83.1875,199.6406 82.7656,199.6406 Q81.2969,199.6406 80.5234,198.6719 Q79.75,197.7031 79.75,195.8594 Q79.75,194.0156 80.5234,193.0469 Q81.2969,192.0781 82.7656,192.0781 Q83.1875,192.0781 83.5703,192.1641 Q83.9531,192.25 84.2813,192.4219 L84.2813,194.0313 Q83.9063,193.6875 83.5547,193.5313 Q83.2031,193.375 82.8438,193.375 Q82.0469,193.375 81.6406,194 Q81.2344,194.625 81.2344,195.8594 Q81.2344,197.0938 81.6406,197.7188 Q82.0469,198.3438 82.8438,198.3438 Q83.2031,198.3438 83.5547,198.1875 Q83.9063,198.0313 84.2813,197.6875 L84.2813,199.2969 Z "/><text fill="#19273C" font-family="Open Sans" font-size="10" lengthAdjust="spacingAndGlyphs" textLength="29" x="95" y="199.4619">Typed</text><line style="stroke: #E3ECEC; stroke-width: 1.5;" x1="71" x2="126" y1="210" y2="210"/><line style="stroke: #E3ECEC; stroke-width: 1.5;" x1="71" x2="126" y1="218" y2="218"/><path d="M98.5,122.118 C98.5,135.3272 98.5,149.1714 98.5,161.5973 " fill="none" style="stroke: #3C6DF0; stroke-width: 1.0;"/><polygon fill="none" points="105.5001,161.9887,98.5,181.9887,91.5001,161.9886,105.5001,161.9887" style="stroke: #3C6DF0; stroke-width: 1.0;"/></g></svg>