<?xml version="1.0" encoding="UTF-8" standalone="no"?><svg xmlns="http://www.w3.org/2000/svg" xmlns:xlink="http://www.w3.org/1999/xlink" contentScriptType="application/ecmascript" contentStyleType="text/css" height="377px" preserveAspectRatio="none" style="width:254px;height:377px;" version="1.1" viewBox="0 0 254 377" width="254px" zoomAndPan="magnify"><defs><filter height="300%" id="fixl4u6" width="300%" x="-1" y="-1"><feGaussianBlur result="blurOut" stdDeviation="2.0"/><feColorMatrix in="blurOut" result="blurOut2" type="matrix" values="0 0 0 0 0 0 0 0 0 0 0 0 0 0 0 0 0 0 .4 0"/><feOffset dx="4.0" dy="4.0" in="blurOut2" result="blurOut3"/><feBlend in="SourceGraphic" in2="blurOut3" mode="normal"/></filter></defs><g><!--class Wallet--><rect fill="#F8F8F8" filter="url(#fixl4u6)" height="150.4375" style="stroke: #383838; stroke-width: 1.5;" width="194" x="28.5" y="218"/><ellipse cx="102.25" cy="234" fill="#C2C2C2" rx="11" ry="11" style="stroke: #383838; stroke-width: 1.0;"/><path d="M105.2188,239.6406 Q104.6406,239.9375 104,240.0859 Q103.3594,240.2344 102.6563,240.2344 Q100.1563,240.2344 98.8359,238.5859 Q97.5156,236.9375 97.5156,233.8125 Q97.5156,230.6875 98.8359,229.0313 Q100.1563,227.375 102.6563,227.375 Q103.3594,227.375 104.0078,227.5313 Q104.6563,227.6875 105.2188,227.9844 L105.2188,230.7031 Q104.5938,230.125 104,229.8516 Q103.4063,229.5781 102.7813,229.5781 Q101.4375,229.5781 100.75,230.6484 Q100.0625,231.7188 100.0625,233.8125 Q100.0625,235.9063 100.75,236.9766 Q101.4375,238.0469 102.7813,238.0469 Q103.4063,238.0469 104,237.7734 Q104.5938,237.5 105.2188,236.9219 L105.2188,239.6406 Z "/><text fill="#000000" font-family="sans-serif" font-size="12" lengthAdjust="spacingAndGlyphs" textLength="38" x="122.75" y="238.1543">Wallet</text><line style="stroke: #383838; stroke-width: 1.5;" x1="29.5" x2="221.5" y1="250" y2="250"/><line style="stroke: #383838; stroke-width: 1.5;" x1="29.5" x2="221.5" y1="258" y2="258"/><ellipse cx="39.5" cy="269.9023" fill="#A6A6A6" rx="3" ry="3" style="stroke: #545454; stroke-width: 1.0;"/><text fill="#000000" font-family="sans-serif" font-size="11" lengthAdjust="spacingAndGlyphs" textLength="96" x="48.5" y="272.2104">Wallet getWallet()</text><ellipse cx="39.5" cy="282.707" fill="#A6A6A6" rx="3" ry="3" style="stroke: #545454; stroke-width: 1.0;"/><text fill="#000000" font-family="sans-serif" font-size="11" lengthAdjust="spacingAndGlyphs" textLength="119" x="48.5" y="285.0151">void setWallet(Wallet)</text><ellipse cx="39.5" cy="295.5117" fill="#A6A6A6" rx="3" ry="3" style="stroke: #545454; stroke-width: 1.0;"/><text fill="#000000" font-family="sans-serif" font-size="11" lengthAdjust="spacingAndGlyphs" textLength="76" x="48.5" y="297.8198">Promise list()</text><ellipse cx="39.5" cy="308.3164" fill="#A6A6A6" rx="3" ry="3" style="stroke: #545454; stroke-width: 1.0;"/><text fill="#000000" font-family="sans-serif" font-size="11" lengthAdjust="spacingAndGlyphs" textLength="140" x="48.5" y="310.6245">Promise contains(string)</text><ellipse cx="39.5" cy="321.1211" fill="#A6A6A6" rx="3" ry="3" style="stroke: #545454; stroke-width: 1.0;"/><text fill="#000000" font-family="sans-serif" font-size="11" lengthAdjust="spacingAndGlyphs" textLength="110" x="48.5" y="323.4292">Promise get(string)</text><ellipse cx="39.5" cy="333.9258" fill="#A6A6A6" rx="3" ry="3" style="stroke: #545454; stroke-width: 1.0;"/><text fill="#000000" font-family="sans-serif" font-size="11" lengthAdjust="spacingAndGlyphs" textLength="150" x="48.5" y="336.2339">Promise add(string,string)</text><ellipse cx="39.5" cy="346.7305" fill="#A6A6A6" rx="3" ry="3" style="stroke: #545454; stroke-width: 1.0;"/><text fill="#000000" font-family="sans-serif" font-size="11" lengthAdjust="spacingAndGlyphs" textLength="168" x="48.5" y="349.0386">Promise update(string,string)</text><ellipse cx="39.5" cy="359.5352" fill="#A6A6A6" rx="3" ry="3" style="stroke: #545454; stroke-width: 1.0;"/><text fill="#000000" font-family="sans-serif" font-size="11" lengthAdjust="spacingAndGlyphs" textLength="135" x="48.5" y="361.8433">Promise remove(string)</text><!--class FileWallet--><rect fill="#F8F8F8" filter="url(#fixl4u6)" height="150.4375" style="stroke: #383838; stroke-width: 1.5;" width="239" x="6" y="8"/><ellipse cx="91.75" cy="24" fill="#C2C2C2" rx="11" ry="11" style="stroke: #383838; stroke-width: 1.0;"/><path d="M94.7188,29.6406 Q94.1406,29.9375 93.5,30.0859 Q92.8594,30.2344 92.1563,30.2344 Q89.6563,30.2344 88.3359,28.5859 Q87.0156,26.9375 87.0156,23.8125 Q87.0156,20.6875 88.3359,19.0313 Q89.6563,17.375 92.1563,17.375 Q92.8594,17.375 93.5078,17.5313 Q94.1563,17.6875 94.7188,17.9844 L94.7188,20.7031 Q94.0938,20.125 93.5,19.8516 Q92.9063,19.5781 92.2813,19.5781 Q90.9375,19.5781 90.25,20.6484 Q89.5625,21.7188 89.5625,23.8125 Q89.5625,25.9063 90.25,26.9766 Q90.9375,28.0469 92.2813,28.0469 Q92.9063,28.0469 93.5,27.7734 Q94.0938,27.5 94.7188,26.9219 L94.7188,29.6406 Z "/><text fill="#000000" font-family="sans-serif" font-size="12" lengthAdjust="spacingAndGlyphs" textLength="59" x="112.25" y="28.1543">FileWallet</text><line style="stroke: #383838; stroke-width: 1.5;" x1="7" x2="244" y1="40" y2="40"/><line style="stroke: #383838; stroke-width: 1.5;" x1="7" x2="244" y1="48" y2="48"/><ellipse cx="17" cy="59.9023" fill="#A6A6A6" rx="3" ry="3" style="stroke: #545454; stroke-width: 1.0;"/><text fill="#000000" font-family="sans-serif" font-size="11" lengthAdjust="spacingAndGlyphs" textLength="147" x="26" y="62.2104">string getHomeDirectory()</text><ellipse cx="17" cy="72.707" fill="#A6A6A6" rx="3" ry="3" style="stroke: #545454; stroke-width: 1.0;"/><text fill="#000000" font-family="sans-serif" font-size="11" lengthAdjust="spacingAndGlyphs" textLength="213" x="26" y="75.0151">void constructor(Object,string,Object)</text><ellipse cx="17" cy="85.5117" fill="#A6A6A6" rx="3" ry="3" style="stroke: #545454; stroke-width: 1.0;"/><text fill="#000000" font-family="sans-serif" font-size="11" lengthAdjust="spacingAndGlyphs" textLength="76" x="26" y="87.8198">Promise list()</text><ellipse cx="17" cy="98.3164" fill="#A6A6A6" rx="3" ry="3" style="stroke: #545454; stroke-width: 1.0;"/><text fill="#000000" font-family="sans-serif" font-size="11" lengthAdjust="spacingAndGlyphs" textLength="140" x="26" y="100.6245">Promise contains(string)</text><ellipse cx="17" cy="111.1211" fill="#A6A6A6" rx="3" ry="3" style="stroke: #545454; stroke-width: 1.0;"/><text fill="#000000" font-family="sans-serif" font-size="11" lengthAdjust="spacingAndGlyphs" textLength="110" x="26" y="113.4292">Promise get(string)</text><ellipse cx="17" cy="123.9258" fill="#A6A6A6" rx="3" ry="3" style="stroke: #545454; stroke-width: 1.0;"/><text fill="#000000" font-family="sans-serif" font-size="11" lengthAdjust="spacingAndGlyphs" textLength="150" x="26" y="126.2339">Promise add(string,string)</text><ellipse cx="17" cy="136.7305" fill="#A6A6A6" rx="3" ry="3" style="stroke: #545454; stroke-width: 1.0;"/><text fill="#000000" font-family="sans-serif" font-size="11" lengthAdjust="spacingAndGlyphs" textLength="168" x="26" y="139.0386">Promise update(string,string)</text><ellipse cx="17" cy="149.5352" fill="#A6A6A6" rx="3" ry="3" style="stroke: #545454; stroke-width: 1.0;"/><text fill="#000000" font-family="sans-serif" font-size="11" lengthAdjust="spacingAndGlyphs" textLength="135" x="26" y="151.8433">Promise remove(string)</text><path d="M125.5,158.212 C125.5,170.922 125.5,184.279 125.5,197.434 " fill="none" style="stroke: #383838; stroke-width: 1.0;"/><polygon fill="none" points="132.5,197.817,125.5,217.817,118.5,197.817,132.5,197.817" style="stroke: #383838; stroke-width: 1.0;"/></g></svg>