<?xml version="1.0" encoding="UTF-8" standalone="no"?><svg xmlns="http://www.w3.org/2000/svg" xmlns:xlink="http://www.w3.org/1999/xlink" contentScriptType="application/ecmascript" contentStyleType="text/css" height="413px" preserveAspectRatio="none" style="width:494px;height:413px;" version="1.1" viewBox="0 0 494 413" width="494px" zoomAndPan="magnify"><defs/><g><!--class Registry--><rect fill="#F8FAFA" height="253.5313" rx="1" ry="1" style="stroke: #E3ECEC; stroke-width: 1.5;" width="442" x="28.5" y="159"/><ellipse cx="225.75" cy="173" fill="#FFFFFF" rx="9" ry="9" style="stroke: #E3ECEC; stroke-width: 1.0;"/><path d="M227.0313,176.2969 Q226.6875,176.4688 226.3125,176.5547 Q225.9375,176.6406 225.5156,176.6406 Q224.0469,176.6406 223.2734,175.6719 Q222.5,174.7031 222.5,172.8594 Q222.5,171.0156 223.2734,170.0469 Q224.0469,169.0781 225.5156,169.0781 Q225.9375,169.0781 226.3203,169.1641 Q226.7031,169.25 227.0313,169.4219 L227.0313,171.0313 Q226.6563,170.6875 226.3047,170.5313 Q225.9531,170.375 225.5938,170.375 Q224.7969,170.375 224.3906,171 Q223.9844,171.625 223.9844,172.8594 Q223.9844,174.0938 224.3906,174.7188 Q224.7969,175.3438 225.5938,175.3438 Q225.9531,175.3438 226.3047,175.1875 Q226.6563,175.0313 227.0313,174.6875 L227.0313,176.2969 Z "/><text fill="#19273C" font-family="Open Sans" font-size="10" lengthAdjust="spacingAndGlyphs" textLength="40" x="243.25" y="176.4619">Registry</text><line style="stroke: #E3ECEC; stroke-width: 1.5;" x1="29.5" x2="469.5" y1="187" y2="187"/><line style="stroke: #E3ECEC; stroke-width: 1.5;" x1="29.5" x2="469.5" y1="195" y2="195"/><ellipse cx="38.5" cy="206.3203" fill="#84BE84" rx="2" ry="2" style="stroke: #038048; stroke-width: 1.0;"/><text fill="#19273C" font-family="Open Sans" font-size="10" lengthAdjust="spacingAndGlyphs" textLength="235" x="46.5" y="208.2822">Promise getAllRegistries(SecurityContext,string)</text><ellipse cx="38.5" cy="217.9609" fill="#84BE84" rx="2" ry="2" style="stroke: #038048; stroke-width: 1.0;"/><text fill="#19273C" font-family="Open Sans" font-size="10" lengthAdjust="spacingAndGlyphs" textLength="247" x="46.5" y="219.9229">Promise getRegistry(SecurityContext,string,string)</text><ellipse cx="38.5" cy="229.6016" fill="#84BE84" rx="2" ry="2" style="stroke: #038048; stroke-width: 1.0;"/><text fill="#19273C" font-family="Open Sans" font-size="10" lengthAdjust="spacingAndGlyphs" textLength="259" x="46.5" y="231.5635">Promise existsRegistry(SecurityContext,string,string)</text><ellipse cx="38.5" cy="241.2422" fill="#84BE84" rx="2" ry="2" style="stroke: #038048; stroke-width: 1.0;"/><text fill="#19273C" font-family="Open Sans" font-size="10" lengthAdjust="spacingAndGlyphs" textLength="279" x="46.5" y="243.2041">Promise addRegistry(SecurityContext,string,string,string)</text><ellipse cx="38.5" cy="252.8828" fill="#84BE84" rx="2" ry="2" style="stroke: #038048; stroke-width: 1.0;"/><text fill="#19273C" font-family="Open Sans" font-size="10" lengthAdjust="spacingAndGlyphs" textLength="418" x="46.5" y="254.8447">void constructor(string,string,string,SecurityContext,ModelManager,Factory,Serializer)</text><ellipse cx="38.5" cy="264.5234" fill="#84BE84" rx="2" ry="2" style="stroke: #038048; stroke-width: 1.0;"/><text fill="#19273C" font-family="Open Sans" font-size="10" lengthAdjust="spacingAndGlyphs" textLength="133" x="46.5" y="266.4854">Promise addAll(Resource[])</text><ellipse cx="38.5" cy="276.1641" fill="#84BE84" rx="2" ry="2" style="stroke: #038048; stroke-width: 1.0;"/><text fill="#19273C" font-family="Open Sans" font-size="10" lengthAdjust="spacingAndGlyphs" textLength="114" x="46.5" y="278.126">Promise add(Resource)</text><ellipse cx="38.5" cy="287.8047" fill="#84BE84" rx="2" ry="2" style="stroke: #038048; stroke-width: 1.0;"/><text fill="#19273C" font-family="Open Sans" font-size="10" lengthAdjust="spacingAndGlyphs" textLength="149" x="46.5" y="289.7666">Promise updateAll(Resource[])</text><ellipse cx="38.5" cy="299.4453" fill="#84BE84" rx="2" ry="2" style="stroke: #038048; stroke-width: 1.0;"/><text fill="#19273C" font-family="Open Sans" font-size="10" lengthAdjust="spacingAndGlyphs" textLength="130" x="46.5" y="301.4072">Promise update(Resource)</text><ellipse cx="38.5" cy="311.0859" fill="#84BE84" rx="2" ry="2" style="stroke: #038048; stroke-width: 1.0;"/><text fill="#19273C" font-family="Open Sans" font-size="10" lengthAdjust="spacingAndGlyphs" textLength="100" x="46.5" y="313.0479">Promise removeAll()</text><ellipse cx="38.5" cy="322.7266" fill="#84BE84" rx="2" ry="2" style="stroke: #038048; stroke-width: 1.0;"/><text fill="#19273C" font-family="Open Sans" font-size="10" lengthAdjust="spacingAndGlyphs" textLength="89" x="46.5" y="324.6885">Promise remove()</text><ellipse cx="38.5" cy="334.3672" fill="#84BE84" rx="2" ry="2" style="stroke: #038048; stroke-width: 1.0;"/><text fill="#19273C" font-family="Open Sans" font-size="10" lengthAdjust="spacingAndGlyphs" textLength="78" x="46.5" y="336.3291">Promise getAll()</text><ellipse cx="38.5" cy="346.0078" fill="#84BE84" rx="2" ry="2" style="stroke: #038048; stroke-width: 1.0;"/><text fill="#19273C" font-family="Open Sans" font-size="10" lengthAdjust="spacingAndGlyphs" textLength="94" x="46.5" y="347.9697">Promise get(string)</text><ellipse cx="38.5" cy="357.6484" fill="#84BE84" rx="2" ry="2" style="stroke: #038048; stroke-width: 1.0;"/><text fill="#19273C" font-family="Open Sans" font-size="10" lengthAdjust="spacingAndGlyphs" textLength="106" x="46.5" y="359.6104">Promise exists(string)</text><ellipse cx="38.5" cy="369.2891" fill="#84BE84" rx="2" ry="2" style="stroke: #038048; stroke-width: 1.0;"/><text fill="#19273C" font-family="Open Sans" font-size="10" lengthAdjust="spacingAndGlyphs" textLength="96" x="46.5" y="371.251">Promise find(string)</text><ellipse cx="38.5" cy="380.9297" fill="#84BE84" rx="2" ry="2" style="stroke: #038048; stroke-width: 1.0;"/><text fill="#19273C" font-family="Open Sans" font-size="10" lengthAdjust="spacingAndGlyphs" textLength="106" x="46.5" y="382.8916">Promise query(string)</text><ellipse cx="38.5" cy="392.5703" fill="#84BE84" rx="2" ry="2" style="stroke: #038048; stroke-width: 1.0;"/><text fill="#19273C" font-family="Open Sans" font-size="10" lengthAdjust="spacingAndGlyphs" textLength="97" x="46.5" y="394.5322">Promise resolveAll()</text><ellipse cx="38.5" cy="404.2109" fill="#84BE84" rx="2" ry="2" style="stroke: #038048; stroke-width: 1.0;"/><text fill="#19273C" font-family="Open Sans" font-size="10" lengthAdjust="spacingAndGlyphs" textLength="113" x="46.5" y="406.1729">Promise resolve(string)</text><!--class ParticipantRegistry--><rect fill="#F8FAFA" height="90.5625" rx="1" ry="1" style="stroke: #E3ECEC; stroke-width: 1.5;" width="487" x="6" y="8"/><ellipse cx="199.75" cy="22" fill="#FFFFFF" rx="9" ry="9" style="stroke: #E3ECEC; stroke-width: 1.0;"/><path d="M201.0313,25.2969 Q200.6875,25.4688 200.3125,25.5547 Q199.9375,25.6406 199.5156,25.6406 Q198.0469,25.6406 197.2734,24.6719 Q196.5,23.7031 196.5,21.8594 Q196.5,20.0156 197.2734,19.0469 Q198.0469,18.0781 199.5156,18.0781 Q199.9375,18.0781 200.3203,18.1641 Q200.7031,18.25 201.0313,18.4219 L201.0313,20.0313 Q200.6563,19.6875 200.3047,19.5313 Q199.9531,19.375 199.5938,19.375 Q198.7969,19.375 198.3906,20 Q197.9844,20.625 197.9844,21.8594 Q197.9844,23.0938 198.3906,23.7188 Q198.7969,24.3438 199.5938,24.3438 Q199.9531,24.3438 200.3047,24.1875 Q200.6563,24.0313 201.0313,23.6875 L201.0313,25.2969 Z "/><text fill="#19273C" font-family="Open Sans" font-size="10" lengthAdjust="spacingAndGlyphs" textLength="92" x="217.25" y="25.4619">ParticipantRegistry</text><line style="stroke: #E3ECEC; stroke-width: 1.5;" x1="7" x2="492" y1="36" y2="36"/><line style="stroke: #E3ECEC; stroke-width: 1.5;" x1="7" x2="492" y1="44" y2="44"/><ellipse cx="16" cy="55.3203" fill="#84BE84" rx="2" ry="2" style="stroke: #038048; stroke-width: 1.0;"/><text fill="#19273C" font-family="Open Sans" font-size="10" lengthAdjust="spacingAndGlyphs" textLength="419" x="24" y="57.2822">Promise getAllParticipantRegistries(SecurityContext,ModelManager,Factory,Serializer)</text><ellipse cx="16" cy="66.9609" fill="#84BE84" rx="2" ry="2" style="stroke: #038048; stroke-width: 1.0;"/><text fill="#19273C" font-family="Open Sans" font-size="10" lengthAdjust="spacingAndGlyphs" textLength="431" x="24" y="68.9229">Promise getParticipantRegistry(SecurityContext,string,ModelManager,Factory,Serializer)</text><ellipse cx="16" cy="78.6016" fill="#84BE84" rx="2" ry="2" style="stroke: #038048; stroke-width: 1.0;"/><text fill="#19273C" font-family="Open Sans" font-size="10" lengthAdjust="spacingAndGlyphs" textLength="463" x="24" y="80.5635">Promise addParticipantRegistry(SecurityContext,string,string,ModelManager,Factory,Serializer)</text><ellipse cx="16" cy="90.2422" fill="#84BE84" rx="2" ry="2" style="stroke: #038048; stroke-width: 1.0;"/><text fill="#19273C" font-family="Open Sans" font-size="10" lengthAdjust="spacingAndGlyphs" textLength="388" x="24" y="92.2041">void constructor(string,string,SecurityContext,ModelManager,Factory,Serializer)</text><path d="M249.5,99.216 C249.5,111.051 249.5,124.498 249.5,138.62 " fill="none" style="stroke: #3C6DF0; stroke-width: 1.0;"/><polygon fill="none" points="256.5,138.935,249.5,158.935,242.5,138.935,256.5,138.935" style="stroke: #3C6DF0; stroke-width: 1.0;"/></g></svg>