<?xml version="1.0" encoding="UTF-8" standalone="no"?><svg xmlns="http://www.w3.org/2000/svg" xmlns:xlink="http://www.w3.org/1999/xlink" contentScriptType="application/ecmascript" contentStyleType="text/css" height="99px" preserveAspectRatio="none" style="width:202px;height:99px;" version="1.1" viewBox="0 0 202 99" width="202px" zoomAndPan="magnify"><defs/><g><!--class SecurityContext--><rect fill="#F8FAFA" height="90.5625" rx="1" ry="1" style="stroke: #E3ECEC; stroke-width: 1.5;" width="195" x="6" y="8"/><ellipse cx="59.75" cy="22" fill="#FFFFFF" rx="9" ry="9" style="stroke: #E3ECEC; stroke-width: 1.0;"/><path d="M61.0313,25.2969 Q60.6875,25.4688 60.3125,25.5547 Q59.9375,25.6406 59.5156,25.6406 Q58.0469,25.6406 57.2734,24.6719 Q56.5,23.7031 56.5,21.8594 Q56.5,20.0156 57.2734,19.0469 Q58.0469,18.0781 59.5156,18.0781 Q59.9375,18.0781 60.3203,18.1641 Q60.7031,18.25 61.0313,18.4219 L61.0313,20.0313 Q60.6563,19.6875 60.3047,19.5313 Q59.9531,19.375 59.5938,19.375 Q58.7969,19.375 58.3906,20 Q57.9844,20.625 57.9844,21.8594 Q57.9844,23.0938 58.3906,23.7188 Q58.7969,24.3438 59.5938,24.3438 Q59.9531,24.3438 60.3047,24.1875 Q60.6563,24.0313 61.0313,23.6875 L61.0313,25.2969 Z "/><text fill="#19273C" font-family="Open Sans" font-size="10" lengthAdjust="spacingAndGlyphs" textLength="80" x="77.25" y="25.4619">SecurityContext</text><line style="stroke: #E3ECEC; stroke-width: 1.5;" x1="7" x2="200" y1="36" y2="36"/><line style="stroke: #E3ECEC; stroke-width: 1.5;" x1="7" x2="200" y1="44" y2="44"/><ellipse cx="16" cy="55.3203" fill="#84BE84" rx="2" ry="2" style="stroke: #038048; stroke-width: 1.0;"/><text fill="#19273C" font-family="Open Sans" font-size="10" lengthAdjust="spacingAndGlyphs" textLength="171" x="24" y="57.2822">void constructor(Connection,string)</text><ellipse cx="16" cy="66.9609" fill="#84BE84" rx="2" ry="2" style="stroke: #038048; stroke-width: 1.0;"/><text fill="#19273C" font-family="Open Sans" font-size="10" lengthAdjust="spacingAndGlyphs" textLength="137" x="24" y="68.9229">Connection getConnection()</text><ellipse cx="16" cy="78.6016" fill="#84BE84" rx="2" ry="2" style="stroke: #038048; stroke-width: 1.0;"/><text fill="#19273C" font-family="Open Sans" font-size="10" lengthAdjust="spacingAndGlyphs" textLength="77" x="24" y="80.5635">string getUser()</text><ellipse cx="16" cy="90.2422" fill="#84BE84" rx="2" ry="2" style="stroke: #038048; stroke-width: 1.0;"/><text fill="#19273C" font-family="Open Sans" font-size="10" lengthAdjust="spacingAndGlyphs" textLength="78" x="24" y="92.2041">Object toJSON()</text></g></svg>