<?xml version="1.0" encoding="UTF-8" standalone="no"?><svg xmlns="http://www.w3.org/2000/svg" xmlns:xlink="http://www.w3.org/1999/xlink" contentScriptType="application/ecmascript" contentStyleType="text/css" height="146px" preserveAspectRatio="none" style="width:173px;height:146px;" version="1.1" viewBox="0 0 173 146" width="173px" zoomAndPan="magnify"><defs/><g><!--class Wallet--><rect fill="#F8FAFA" height="137.125" rx="1" ry="1" style="stroke: #E3ECEC; stroke-width: 1.5;" width="166" x="6" y="8"/><ellipse cx="70.75" cy="22" fill="#FFFFFF" rx="9" ry="9" style="stroke: #E3ECEC; stroke-width: 1.0;"/><path d="M72.0313,25.2969 Q71.6875,25.4688 71.3125,25.5547 Q70.9375,25.6406 70.5156,25.6406 Q69.0469,25.6406 68.2734,24.6719 Q67.5,23.7031 67.5,21.8594 Q67.5,20.0156 68.2734,19.0469 Q69.0469,18.0781 70.5156,18.0781 Q70.9375,18.0781 71.3203,18.1641 Q71.7031,18.25 72.0313,18.4219 L72.0313,20.0313 Q71.6563,19.6875 71.3047,19.5313 Q70.9531,19.375 70.5938,19.375 Q69.7969,19.375 69.3906,20 Q68.9844,20.625 68.9844,21.8594 Q68.9844,23.0938 69.3906,23.7188 Q69.7969,24.3438 70.5938,24.3438 Q70.9531,24.3438 71.3047,24.1875 Q71.6563,24.0313 72.0313,23.6875 L72.0313,25.2969 Z "/><text fill="#19273C" font-family="Open Sans" font-size="10" lengthAdjust="spacingAndGlyphs" textLength="29" x="88.25" y="25.4619">Wallet</text><line style="stroke: #E3ECEC; stroke-width: 1.5;" x1="7" x2="171" y1="36" y2="36"/><line style="stroke: #E3ECEC; stroke-width: 1.5;" x1="7" x2="171" y1="44" y2="44"/><ellipse cx="16" cy="55.3203" fill="#84BE84" rx="2" ry="2" style="stroke: #038048; stroke-width: 1.0;"/><text fill="#19273C" font-family="Open Sans" font-size="10" lengthAdjust="spacingAndGlyphs" textLength="85" x="24" y="57.2822">Wallet getWallet()</text><ellipse cx="16" cy="66.9609" fill="#84BE84" rx="2" ry="2" style="stroke: #038048; stroke-width: 1.0;"/><text fill="#19273C" font-family="Open Sans" font-size="10" lengthAdjust="spacingAndGlyphs" textLength="104" x="24" y="68.9229">void setWallet(Wallet)</text><ellipse cx="16" cy="78.6016" fill="#84BE84" rx="2" ry="2" style="stroke: #038048; stroke-width: 1.0;"/><text fill="#19273C" font-family="Open Sans" font-size="10" lengthAdjust="spacingAndGlyphs" textLength="64" x="24" y="80.5635">Promise list()</text><ellipse cx="16" cy="90.2422" fill="#84BE84" rx="2" ry="2" style="stroke: #038048; stroke-width: 1.0;"/><text fill="#19273C" font-family="Open Sans" font-size="10" lengthAdjust="spacingAndGlyphs" textLength="118" x="24" y="92.2041">Promise contains(string)</text><ellipse cx="16" cy="101.8828" fill="#84BE84" rx="2" ry="2" style="stroke: #038048; stroke-width: 1.0;"/><text fill="#19273C" font-family="Open Sans" font-size="10" lengthAdjust="spacingAndGlyphs" textLength="94" x="24" y="103.8447">Promise get(string)</text><ellipse cx="16" cy="113.5234" fill="#84BE84" rx="2" ry="2" style="stroke: #038048; stroke-width: 1.0;"/><text fill="#19273C" font-family="Open Sans" font-size="10" lengthAdjust="spacingAndGlyphs" textLength="126" x="24" y="115.4854">Promise add(string,string)</text><ellipse cx="16" cy="125.1641" fill="#84BE84" rx="2" ry="2" style="stroke: #038048; stroke-width: 1.0;"/><text fill="#19273C" font-family="Open Sans" font-size="10" lengthAdjust="spacingAndGlyphs" textLength="142" x="24" y="127.126">Promise update(string,string)</text><ellipse cx="16" cy="136.8047" fill="#84BE84" rx="2" ry="2" style="stroke: #038048; stroke-width: 1.0;"/><text fill="#19273C" font-family="Open Sans" font-size="10" lengthAdjust="spacingAndGlyphs" textLength="116" x="24" y="138.7666">Promise remove(string)</text></g></svg>