<?xml version="1.0" encoding="UTF-8" standalone="no"?><svg xmlns="http://www.w3.org/2000/svg" xmlns:xlink="http://www.w3.org/1999/xlink" contentScriptType="application/ecmascript" contentStyleType="text/css" height="116px" preserveAspectRatio="none" style="width:241px;height:116px;" version="1.1" viewBox="0 0 241 116" width="241px" zoomAndPan="magnify"><defs><filter height="300%" id="f3ped56" width="300%" x="-1" y="-1"><feGaussianBlur result="blurOut" stdDeviation="2.0"/><feColorMatrix in="blurOut" result="blurOut2" type="matrix" values="0 0 0 0 0 0 0 0 0 0 0 0 0 0 0 0 0 0 .4 0"/><feOffset dx="4.0" dy="4.0" in="blurOut2" result="blurOut3"/><feBlend in="SourceGraphic" in2="blurOut3" mode="normal"/></filter></defs><g><!--class SecurityContext--><rect fill="#FEFECE" filter="url(#f3ped56)" height="99.2188" style="stroke: #A80036; stroke-width: 1.5;" width="226" x="6" y="8"/><ellipse cx="65.75" cy="24" fill="#ADD1B2" rx="11" ry="11" style="stroke: #A80036; stroke-width: 1.0;"/><path d="M68.7188,29.6406 Q68.1406,29.9375 67.5,30.0859 Q66.8594,30.2344 66.1563,30.2344 Q63.6563,30.2344 62.3359,28.5859 Q61.0156,26.9375 61.0156,23.8125 Q61.0156,20.6875 62.3359,19.0313 Q63.6563,17.375 66.1563,17.375 Q66.8594,17.375 67.5078,17.5313 Q68.1563,17.6875 68.7188,17.9844 L68.7188,20.7031 Q68.0938,20.125 67.5,19.8516 Q66.9063,19.5781 66.2813,19.5781 Q64.9375,19.5781 64.25,20.6484 Q63.5625,21.7188 63.5625,23.8125 Q63.5625,25.9063 64.25,26.9766 Q64.9375,28.0469 66.2813,28.0469 Q66.9063,28.0469 67.5,27.7734 Q68.0938,27.5 68.7188,26.9219 L68.7188,29.6406 Z "/><text fill="#000000" font-family="sans-serif" font-size="12" lengthAdjust="spacingAndGlyphs" textLength="98" x="86.25" y="28.1543">SecurityContext</text><line style="stroke: #A80036; stroke-width: 1.5;" x1="7" x2="231" y1="40" y2="40"/><line style="stroke: #A80036; stroke-width: 1.5;" x1="7" x2="231" y1="48" y2="48"/><ellipse cx="17" cy="59.9023" fill="#84BE84" rx="3" ry="3" style="stroke: #038048; stroke-width: 1.0;"/><text fill="#000000" font-family="sans-serif" font-size="11" lengthAdjust="spacingAndGlyphs" textLength="200" x="26" y="62.2104">void constructor(Connection,string)</text><ellipse cx="17" cy="72.707" fill="#84BE84" rx="3" ry="3" style="stroke: #038048; stroke-width: 1.0;"/><text fill="#000000" font-family="sans-serif" font-size="11" lengthAdjust="spacingAndGlyphs" textLength="156" x="26" y="75.0151">Connection getConnection()</text><ellipse cx="17" cy="85.5117" fill="#84BE84" rx="3" ry="3" style="stroke: #038048; stroke-width: 1.0;"/><text fill="#000000" font-family="sans-serif" font-size="11" lengthAdjust="spacingAndGlyphs" textLength="90" x="26" y="87.8198">string getUser()</text><ellipse cx="17" cy="98.3164" fill="#84BE84" rx="3" ry="3" style="stroke: #038048; stroke-width: 1.0;"/><text fill="#000000" font-family="sans-serif" font-size="11" lengthAdjust="spacingAndGlyphs" textLength="87" x="26" y="100.6245">Object toJSON()</text></g></svg>